%TF.GenerationSoftware,KiCad,Pcbnew,(5.1.10)-1*%
%TF.CreationDate,2021-06-03T16:35:32+08:00*%
%TF.ProjectId,u1,75312e6b-6963-4616-945f-706362585858,rev?*%
%TF.SameCoordinates,Original*%
%TF.FileFunction,Copper,L2,Bot*%
%TF.FilePolarity,Positive*%
%FSLAX46Y46*%
G04 Gerber Fmt 4.6, Leading zero omitted, Abs format (unit mm)*
G04 Created by KiCad (PCBNEW (5.1.10)-1) date 2021-06-03 16:35:32*
%MOMM*%
%LPD*%
G01*
G04 APERTURE LIST*
%TA.AperFunction,SMDPad,CuDef*%
%ADD10R,1.400000X0.900000*%
%TD*%
%TA.AperFunction,ComponentPad*%
%ADD11O,1.200000X2.300000*%
%TD*%
%TA.AperFunction,ComponentPad*%
%ADD12O,1.100000X1.800000*%
%TD*%
%TA.AperFunction,ComponentPad*%
%ADD13C,3.800000*%
%TD*%
%TA.AperFunction,ViaPad*%
%ADD14C,0.700000*%
%TD*%
%TA.AperFunction,Conductor*%
%ADD15C,0.200000*%
%TD*%
%TA.AperFunction,Conductor*%
%ADD16C,0.300000*%
%TD*%
%TA.AperFunction,Conductor*%
%ADD17C,0.127000*%
%TD*%
%TA.AperFunction,Conductor*%
%ADD18C,0.100000*%
%TD*%
G04 APERTURE END LIST*
D10*
%TO.P,SW1,2*%
%TO.N,Net-(J2-Pad5)*%
X110800000Y-92150000D03*
X107200000Y-92150000D03*
%TO.P,SW1,1*%
%TO.N,Net-(J2-Pad6)*%
X107200000Y-90850000D03*
X110800000Y-90850000D03*
%TD*%
D11*
%TO.P,J1,S1*%
%TO.N,GND*%
X104680000Y-96830000D03*
X113320000Y-96830000D03*
D12*
X113320000Y-92650000D03*
X104680000Y-92650000D03*
%TD*%
D13*
%TO.P,REF\u002A\u002A,1*%
%TO.N,N/C*%
X116000000Y-104500000D03*
%TD*%
%TO.P,REF\u002A\u002A,1*%
%TO.N,N/C*%
X102000000Y-104500000D03*
%TD*%
%TO.P,REF\u002A\u002A,1*%
%TO.N,N/C*%
X116000000Y-92000000D03*
%TD*%
%TO.P,REF\u002A\u002A,1*%
%TO.N,N/C*%
X102000000Y-92000000D03*
%TD*%
D14*
%TO.N,DN*%
X107560000Y-95880000D03*
X108660000Y-94780000D03*
%TO.N,Net-(J2-Pad5)*%
X110500000Y-103000000D03*
%TO.N,Net-(J2-Pad6)*%
X111500000Y-103000000D03*
%TD*%
D15*
%TO.N,DN*%
X108660000Y-94780000D02*
X107560000Y-95880000D01*
D16*
%TO.N,Net-(J2-Pad5)*%
X110800000Y-92912500D02*
X110800000Y-92150000D01*
X109600000Y-94112500D02*
X110800000Y-92912500D01*
X109600000Y-96675000D02*
X109600000Y-94112500D01*
X110500000Y-97575000D02*
X109600000Y-96675000D01*
X110500000Y-103000000D02*
X110500000Y-97575000D01*
X110800000Y-92150000D02*
X107200000Y-92150000D01*
%TO.N,Net-(J2-Pad6)*%
X107650000Y-90850000D02*
X107200000Y-90850000D01*
X110800000Y-90850000D02*
X107200000Y-90850000D01*
X110800000Y-90850000D02*
X111650000Y-90850000D01*
X112000000Y-91200000D02*
X112000000Y-93325000D01*
X111650000Y-90850000D02*
X112000000Y-91200000D01*
X112000000Y-93325000D02*
X110700000Y-94625000D01*
X110700000Y-94625000D02*
X110700000Y-96225000D01*
X110700000Y-96225000D02*
X111500000Y-97025000D01*
X111500000Y-97025000D02*
X111500000Y-103000000D01*
%TD*%
D17*
%TO.N,GND*%
X106380812Y-90221622D02*
X106348302Y-90248302D01*
X106321622Y-90280812D01*
X106301797Y-90317902D01*
X106289589Y-90358147D01*
X106285467Y-90400000D01*
X106285467Y-91300000D01*
X106289589Y-91341853D01*
X106301797Y-91382098D01*
X106321622Y-91419188D01*
X106348302Y-91451698D01*
X106380812Y-91478378D01*
X106417902Y-91498203D01*
X106423826Y-91500000D01*
X106417902Y-91501797D01*
X106380812Y-91521622D01*
X106348302Y-91548302D01*
X106321622Y-91580812D01*
X106301797Y-91617902D01*
X106289589Y-91658147D01*
X106285467Y-91700000D01*
X106285467Y-92600000D01*
X106289589Y-92641853D01*
X106301797Y-92682098D01*
X106321622Y-92719188D01*
X106348302Y-92751698D01*
X106380812Y-92778378D01*
X106417902Y-92798203D01*
X106458147Y-92810411D01*
X106500000Y-92814533D01*
X107900000Y-92814533D01*
X107941853Y-92810411D01*
X107982098Y-92798203D01*
X108019188Y-92778378D01*
X108051698Y-92751698D01*
X108078378Y-92719188D01*
X108098203Y-92682098D01*
X108110411Y-92641853D01*
X108114533Y-92600000D01*
X108114533Y-92513500D01*
X109885467Y-92513500D01*
X109885467Y-92600000D01*
X109889589Y-92641853D01*
X109901797Y-92682098D01*
X109921622Y-92719188D01*
X109948302Y-92751698D01*
X109980812Y-92778378D01*
X110017902Y-92798203D01*
X110058147Y-92810411D01*
X110100000Y-92814533D01*
X110383901Y-92814533D01*
X109355583Y-93842851D01*
X109341725Y-93854224D01*
X109330352Y-93868082D01*
X109330345Y-93868089D01*
X109296300Y-93909574D01*
X109262547Y-93972722D01*
X109241761Y-94041242D01*
X109234743Y-94112500D01*
X109236501Y-94130350D01*
X109236500Y-96657160D01*
X109234743Y-96675000D01*
X109236500Y-96692840D01*
X109236500Y-96692849D01*
X109241760Y-96746257D01*
X109262546Y-96814777D01*
X109296299Y-96877925D01*
X109296300Y-96877926D01*
X109330345Y-96919411D01*
X109330351Y-96919417D01*
X109341724Y-96933275D01*
X109355584Y-96944650D01*
X110136501Y-97725568D01*
X110136500Y-102566590D01*
X110062301Y-102640789D01*
X110000632Y-102733082D01*
X109958155Y-102835633D01*
X109936500Y-102944500D01*
X109936500Y-103055500D01*
X109958155Y-103164367D01*
X110000632Y-103266918D01*
X110062301Y-103359211D01*
X110140789Y-103437699D01*
X110233082Y-103499368D01*
X110335633Y-103541845D01*
X110444500Y-103563500D01*
X110555500Y-103563500D01*
X110664367Y-103541845D01*
X110766918Y-103499368D01*
X110859211Y-103437699D01*
X110937699Y-103359211D01*
X110999368Y-103266918D01*
X111000000Y-103265392D01*
X111000632Y-103266918D01*
X111062301Y-103359211D01*
X111140789Y-103437699D01*
X111233082Y-103499368D01*
X111335633Y-103541845D01*
X111444500Y-103563500D01*
X111555500Y-103563500D01*
X111664367Y-103541845D01*
X111766918Y-103499368D01*
X111859211Y-103437699D01*
X111937699Y-103359211D01*
X111999368Y-103266918D01*
X112041845Y-103164367D01*
X112063500Y-103055500D01*
X112063500Y-102944500D01*
X112041845Y-102835633D01*
X111999368Y-102733082D01*
X111937699Y-102640789D01*
X111863500Y-102566590D01*
X111863500Y-97042840D01*
X111865257Y-97025000D01*
X111863500Y-97007160D01*
X111863500Y-97007150D01*
X111858240Y-96953742D01*
X111839966Y-96893500D01*
X112402500Y-96893500D01*
X112402500Y-97443500D01*
X112432518Y-97621275D01*
X112496641Y-97789778D01*
X112592405Y-97942534D01*
X112716130Y-98073672D01*
X112863062Y-98178152D01*
X113027554Y-98251960D01*
X113114097Y-98274098D01*
X113256500Y-98215716D01*
X113256500Y-96893500D01*
X113383500Y-96893500D01*
X113383500Y-98215716D01*
X113525903Y-98274098D01*
X113612446Y-98251960D01*
X113776938Y-98178152D01*
X113923870Y-98073672D01*
X114047595Y-97942534D01*
X114143359Y-97789778D01*
X114207482Y-97621275D01*
X114237500Y-97443500D01*
X114237500Y-96893500D01*
X113383500Y-96893500D01*
X113256500Y-96893500D01*
X112402500Y-96893500D01*
X111839966Y-96893500D01*
X111837454Y-96885222D01*
X111809568Y-96833051D01*
X111836962Y-96838500D01*
X111943038Y-96838500D01*
X112047075Y-96817806D01*
X112145076Y-96777213D01*
X112233274Y-96718281D01*
X112308281Y-96643274D01*
X112367213Y-96555076D01*
X112402500Y-96469885D01*
X112402500Y-96766500D01*
X113256500Y-96766500D01*
X113256500Y-95444284D01*
X113383500Y-95444284D01*
X113383500Y-96766500D01*
X114237500Y-96766500D01*
X114237500Y-96216500D01*
X114207482Y-96038725D01*
X114143359Y-95870222D01*
X114047595Y-95717466D01*
X113923870Y-95586328D01*
X113776938Y-95481848D01*
X113612446Y-95408040D01*
X113525903Y-95385902D01*
X113383500Y-95444284D01*
X113256500Y-95444284D01*
X113114097Y-95385902D01*
X113027554Y-95408040D01*
X112863062Y-95481848D01*
X112716130Y-95586328D01*
X112592405Y-95717466D01*
X112496641Y-95870222D01*
X112432518Y-96038725D01*
X112411656Y-96162278D01*
X112407806Y-96142925D01*
X112367213Y-96044924D01*
X112308281Y-95956726D01*
X112233274Y-95881719D01*
X112145076Y-95822787D01*
X112047075Y-95782194D01*
X111943038Y-95761500D01*
X111836962Y-95761500D01*
X111732925Y-95782194D01*
X111634924Y-95822787D01*
X111546726Y-95881719D01*
X111471719Y-95956726D01*
X111412787Y-96044924D01*
X111372194Y-96142925D01*
X111351500Y-96246962D01*
X111351500Y-96353038D01*
X111353833Y-96364766D01*
X111063500Y-96074434D01*
X111063500Y-94775566D01*
X112244417Y-93594650D01*
X112258276Y-93583276D01*
X112269649Y-93569418D01*
X112269655Y-93569412D01*
X112303701Y-93527927D01*
X112337454Y-93464778D01*
X112358240Y-93396258D01*
X112363500Y-93342850D01*
X112363500Y-93342840D01*
X112365257Y-93325000D01*
X112363500Y-93307160D01*
X112363500Y-92713500D01*
X112452500Y-92713500D01*
X112452500Y-93063500D01*
X112481557Y-93231521D01*
X112542835Y-93390645D01*
X112633979Y-93534756D01*
X112751486Y-93658317D01*
X112890841Y-93756579D01*
X113046688Y-93825766D01*
X113121939Y-93844588D01*
X113256500Y-93785563D01*
X113256500Y-92713500D01*
X112452500Y-92713500D01*
X112363500Y-92713500D01*
X112363500Y-92236500D01*
X112452500Y-92236500D01*
X112452500Y-92586500D01*
X113256500Y-92586500D01*
X113256500Y-91514437D01*
X113121939Y-91455412D01*
X113046688Y-91474234D01*
X112890841Y-91543421D01*
X112751486Y-91641683D01*
X112633979Y-91765244D01*
X112542835Y-91909355D01*
X112481557Y-92068479D01*
X112452500Y-92236500D01*
X112363500Y-92236500D01*
X112363500Y-91217840D01*
X112365257Y-91200000D01*
X112363500Y-91182160D01*
X112363500Y-91182150D01*
X112358240Y-91128742D01*
X112337454Y-91060222D01*
X112331250Y-91048615D01*
X112303701Y-90997073D01*
X112269655Y-90955588D01*
X112269645Y-90955578D01*
X112258275Y-90941724D01*
X112244422Y-90930355D01*
X111919654Y-90605588D01*
X111908276Y-90591724D01*
X111852926Y-90546299D01*
X111789778Y-90512546D01*
X111721258Y-90491760D01*
X111714533Y-90491098D01*
X111714533Y-90400000D01*
X111710411Y-90358147D01*
X111698203Y-90317902D01*
X111678378Y-90280812D01*
X111651698Y-90248302D01*
X111619188Y-90221622D01*
X111607735Y-90215500D01*
X114866494Y-90215500D01*
X114652722Y-90358338D01*
X114358338Y-90652722D01*
X114127041Y-90998882D01*
X113967721Y-91383515D01*
X113911550Y-91665905D01*
X113888514Y-91641683D01*
X113749159Y-91543421D01*
X113593312Y-91474234D01*
X113518061Y-91455412D01*
X113383500Y-91514437D01*
X113383500Y-92586500D01*
X113403500Y-92586500D01*
X113403500Y-92713500D01*
X113383500Y-92713500D01*
X113383500Y-93785563D01*
X113518061Y-93844588D01*
X113593312Y-93825766D01*
X113749159Y-93756579D01*
X113888514Y-93658317D01*
X114006021Y-93534756D01*
X114097165Y-93390645D01*
X114158443Y-93231521D01*
X114183639Y-93085823D01*
X114358338Y-93347278D01*
X114652722Y-93641662D01*
X114998882Y-93872959D01*
X115383515Y-94032279D01*
X115791838Y-94113500D01*
X116208162Y-94113500D01*
X116616485Y-94032279D01*
X117001118Y-93872959D01*
X117347278Y-93641662D01*
X117641662Y-93347278D01*
X117784501Y-93133505D01*
X117784500Y-103366494D01*
X117641662Y-103152722D01*
X117347278Y-102858338D01*
X117001118Y-102627041D01*
X116616485Y-102467721D01*
X116208162Y-102386500D01*
X115791838Y-102386500D01*
X115383515Y-102467721D01*
X114998882Y-102627041D01*
X114652722Y-102858338D01*
X114358338Y-103152722D01*
X114127041Y-103498882D01*
X113967721Y-103883515D01*
X113886500Y-104291838D01*
X113886500Y-104708162D01*
X113967721Y-105116485D01*
X114127041Y-105501118D01*
X114358338Y-105847278D01*
X114652722Y-106141662D01*
X114866494Y-106284500D01*
X103133506Y-106284500D01*
X103347278Y-106141662D01*
X103641662Y-105847278D01*
X103872959Y-105501118D01*
X104032279Y-105116485D01*
X104113500Y-104708162D01*
X104113500Y-104291838D01*
X104032279Y-103883515D01*
X103872959Y-103498882D01*
X103641662Y-103152722D01*
X103347278Y-102858338D01*
X103001118Y-102627041D01*
X102616485Y-102467721D01*
X102208162Y-102386500D01*
X101791838Y-102386500D01*
X101383515Y-102467721D01*
X100998882Y-102627041D01*
X100652722Y-102858338D01*
X100358338Y-103152722D01*
X100215500Y-103366494D01*
X100215500Y-96893500D01*
X103762500Y-96893500D01*
X103762500Y-97443500D01*
X103792518Y-97621275D01*
X103856641Y-97789778D01*
X103952405Y-97942534D01*
X104076130Y-98073672D01*
X104223062Y-98178152D01*
X104387554Y-98251960D01*
X104474097Y-98274098D01*
X104616500Y-98215716D01*
X104616500Y-96893500D01*
X104743500Y-96893500D01*
X104743500Y-98215716D01*
X104885903Y-98274098D01*
X104972446Y-98251960D01*
X105136938Y-98178152D01*
X105283870Y-98073672D01*
X105407595Y-97942534D01*
X105503359Y-97789778D01*
X105567482Y-97621275D01*
X105597500Y-97443500D01*
X105597500Y-96893500D01*
X104743500Y-96893500D01*
X104616500Y-96893500D01*
X103762500Y-96893500D01*
X100215500Y-96893500D01*
X100215500Y-96216500D01*
X103762500Y-96216500D01*
X103762500Y-96766500D01*
X104616500Y-96766500D01*
X104616500Y-95444284D01*
X104743500Y-95444284D01*
X104743500Y-96766500D01*
X105597500Y-96766500D01*
X105597500Y-96469885D01*
X105632787Y-96555076D01*
X105691719Y-96643274D01*
X105766726Y-96718281D01*
X105854924Y-96777213D01*
X105952925Y-96817806D01*
X106056962Y-96838500D01*
X106163038Y-96838500D01*
X106267075Y-96817806D01*
X106365076Y-96777213D01*
X106453274Y-96718281D01*
X106528281Y-96643274D01*
X106587213Y-96555076D01*
X106627806Y-96457075D01*
X106648500Y-96353038D01*
X106648500Y-96246962D01*
X106627806Y-96142925D01*
X106587213Y-96044924D01*
X106528281Y-95956726D01*
X106453274Y-95881719D01*
X106367640Y-95824500D01*
X106996500Y-95824500D01*
X106996500Y-95935500D01*
X107018155Y-96044367D01*
X107060632Y-96146918D01*
X107122301Y-96239211D01*
X107200789Y-96317699D01*
X107293082Y-96379368D01*
X107395633Y-96421845D01*
X107504500Y-96443500D01*
X107615500Y-96443500D01*
X107724367Y-96421845D01*
X107826918Y-96379368D01*
X107919211Y-96317699D01*
X107997699Y-96239211D01*
X108059368Y-96146918D01*
X108101845Y-96044367D01*
X108123500Y-95935500D01*
X108123500Y-95824500D01*
X108112775Y-95770581D01*
X108550581Y-95332775D01*
X108604500Y-95343500D01*
X108715500Y-95343500D01*
X108824367Y-95321845D01*
X108926918Y-95279368D01*
X109019211Y-95217699D01*
X109097699Y-95139211D01*
X109159368Y-95046918D01*
X109201845Y-94944367D01*
X109223500Y-94835500D01*
X109223500Y-94724500D01*
X109201845Y-94615633D01*
X109159368Y-94513082D01*
X109097699Y-94420789D01*
X109019211Y-94342301D01*
X108926918Y-94280632D01*
X108824367Y-94238155D01*
X108715500Y-94216500D01*
X108604500Y-94216500D01*
X108495633Y-94238155D01*
X108393082Y-94280632D01*
X108300789Y-94342301D01*
X108222301Y-94420789D01*
X108160632Y-94513082D01*
X108118155Y-94615633D01*
X108096500Y-94724500D01*
X108096500Y-94835500D01*
X108107225Y-94889419D01*
X107669419Y-95327225D01*
X107615500Y-95316500D01*
X107504500Y-95316500D01*
X107395633Y-95338155D01*
X107293082Y-95380632D01*
X107200789Y-95442301D01*
X107122301Y-95520789D01*
X107060632Y-95613082D01*
X107018155Y-95715633D01*
X106996500Y-95824500D01*
X106367640Y-95824500D01*
X106365076Y-95822787D01*
X106267075Y-95782194D01*
X106163038Y-95761500D01*
X106056962Y-95761500D01*
X105952925Y-95782194D01*
X105854924Y-95822787D01*
X105766726Y-95881719D01*
X105691719Y-95956726D01*
X105632787Y-96044924D01*
X105592194Y-96142925D01*
X105588344Y-96162278D01*
X105567482Y-96038725D01*
X105503359Y-95870222D01*
X105407595Y-95717466D01*
X105283870Y-95586328D01*
X105136938Y-95481848D01*
X104972446Y-95408040D01*
X104885903Y-95385902D01*
X104743500Y-95444284D01*
X104616500Y-95444284D01*
X104474097Y-95385902D01*
X104387554Y-95408040D01*
X104223062Y-95481848D01*
X104076130Y-95586328D01*
X103952405Y-95717466D01*
X103856641Y-95870222D01*
X103792518Y-96038725D01*
X103762500Y-96216500D01*
X100215500Y-96216500D01*
X100215500Y-93133506D01*
X100358338Y-93347278D01*
X100652722Y-93641662D01*
X100998882Y-93872959D01*
X101383515Y-94032279D01*
X101791838Y-94113500D01*
X102208162Y-94113500D01*
X102616485Y-94032279D01*
X103001118Y-93872959D01*
X103347278Y-93641662D01*
X103641662Y-93347278D01*
X103816361Y-93085823D01*
X103841557Y-93231521D01*
X103902835Y-93390645D01*
X103993979Y-93534756D01*
X104111486Y-93658317D01*
X104250841Y-93756579D01*
X104406688Y-93825766D01*
X104481939Y-93844588D01*
X104616500Y-93785563D01*
X104616500Y-92713500D01*
X104743500Y-92713500D01*
X104743500Y-93785563D01*
X104878061Y-93844588D01*
X104953312Y-93825766D01*
X105109159Y-93756579D01*
X105248514Y-93658317D01*
X105366021Y-93534756D01*
X105457165Y-93390645D01*
X105518443Y-93231521D01*
X105547500Y-93063500D01*
X105547500Y-92713500D01*
X104743500Y-92713500D01*
X104616500Y-92713500D01*
X104596500Y-92713500D01*
X104596500Y-92586500D01*
X104616500Y-92586500D01*
X104616500Y-91514437D01*
X104743500Y-91514437D01*
X104743500Y-92586500D01*
X105547500Y-92586500D01*
X105547500Y-92236500D01*
X105518443Y-92068479D01*
X105457165Y-91909355D01*
X105366021Y-91765244D01*
X105248514Y-91641683D01*
X105109159Y-91543421D01*
X104953312Y-91474234D01*
X104878061Y-91455412D01*
X104743500Y-91514437D01*
X104616500Y-91514437D01*
X104481939Y-91455412D01*
X104406688Y-91474234D01*
X104250841Y-91543421D01*
X104111486Y-91641683D01*
X104088450Y-91665905D01*
X104032279Y-91383515D01*
X103872959Y-90998882D01*
X103641662Y-90652722D01*
X103347278Y-90358338D01*
X103133506Y-90215500D01*
X106392265Y-90215500D01*
X106380812Y-90221622D01*
%TA.AperFunction,Conductor*%
D18*
G36*
X106380812Y-90221622D02*
G01*
X106348302Y-90248302D01*
X106321622Y-90280812D01*
X106301797Y-90317902D01*
X106289589Y-90358147D01*
X106285467Y-90400000D01*
X106285467Y-91300000D01*
X106289589Y-91341853D01*
X106301797Y-91382098D01*
X106321622Y-91419188D01*
X106348302Y-91451698D01*
X106380812Y-91478378D01*
X106417902Y-91498203D01*
X106423826Y-91500000D01*
X106417902Y-91501797D01*
X106380812Y-91521622D01*
X106348302Y-91548302D01*
X106321622Y-91580812D01*
X106301797Y-91617902D01*
X106289589Y-91658147D01*
X106285467Y-91700000D01*
X106285467Y-92600000D01*
X106289589Y-92641853D01*
X106301797Y-92682098D01*
X106321622Y-92719188D01*
X106348302Y-92751698D01*
X106380812Y-92778378D01*
X106417902Y-92798203D01*
X106458147Y-92810411D01*
X106500000Y-92814533D01*
X107900000Y-92814533D01*
X107941853Y-92810411D01*
X107982098Y-92798203D01*
X108019188Y-92778378D01*
X108051698Y-92751698D01*
X108078378Y-92719188D01*
X108098203Y-92682098D01*
X108110411Y-92641853D01*
X108114533Y-92600000D01*
X108114533Y-92513500D01*
X109885467Y-92513500D01*
X109885467Y-92600000D01*
X109889589Y-92641853D01*
X109901797Y-92682098D01*
X109921622Y-92719188D01*
X109948302Y-92751698D01*
X109980812Y-92778378D01*
X110017902Y-92798203D01*
X110058147Y-92810411D01*
X110100000Y-92814533D01*
X110383901Y-92814533D01*
X109355583Y-93842851D01*
X109341725Y-93854224D01*
X109330352Y-93868082D01*
X109330345Y-93868089D01*
X109296300Y-93909574D01*
X109262547Y-93972722D01*
X109241761Y-94041242D01*
X109234743Y-94112500D01*
X109236501Y-94130350D01*
X109236500Y-96657160D01*
X109234743Y-96675000D01*
X109236500Y-96692840D01*
X109236500Y-96692849D01*
X109241760Y-96746257D01*
X109262546Y-96814777D01*
X109296299Y-96877925D01*
X109296300Y-96877926D01*
X109330345Y-96919411D01*
X109330351Y-96919417D01*
X109341724Y-96933275D01*
X109355584Y-96944650D01*
X110136501Y-97725568D01*
X110136500Y-102566590D01*
X110062301Y-102640789D01*
X110000632Y-102733082D01*
X109958155Y-102835633D01*
X109936500Y-102944500D01*
X109936500Y-103055500D01*
X109958155Y-103164367D01*
X110000632Y-103266918D01*
X110062301Y-103359211D01*
X110140789Y-103437699D01*
X110233082Y-103499368D01*
X110335633Y-103541845D01*
X110444500Y-103563500D01*
X110555500Y-103563500D01*
X110664367Y-103541845D01*
X110766918Y-103499368D01*
X110859211Y-103437699D01*
X110937699Y-103359211D01*
X110999368Y-103266918D01*
X111000000Y-103265392D01*
X111000632Y-103266918D01*
X111062301Y-103359211D01*
X111140789Y-103437699D01*
X111233082Y-103499368D01*
X111335633Y-103541845D01*
X111444500Y-103563500D01*
X111555500Y-103563500D01*
X111664367Y-103541845D01*
X111766918Y-103499368D01*
X111859211Y-103437699D01*
X111937699Y-103359211D01*
X111999368Y-103266918D01*
X112041845Y-103164367D01*
X112063500Y-103055500D01*
X112063500Y-102944500D01*
X112041845Y-102835633D01*
X111999368Y-102733082D01*
X111937699Y-102640789D01*
X111863500Y-102566590D01*
X111863500Y-97042840D01*
X111865257Y-97025000D01*
X111863500Y-97007160D01*
X111863500Y-97007150D01*
X111858240Y-96953742D01*
X111839966Y-96893500D01*
X112402500Y-96893500D01*
X112402500Y-97443500D01*
X112432518Y-97621275D01*
X112496641Y-97789778D01*
X112592405Y-97942534D01*
X112716130Y-98073672D01*
X112863062Y-98178152D01*
X113027554Y-98251960D01*
X113114097Y-98274098D01*
X113256500Y-98215716D01*
X113256500Y-96893500D01*
X113383500Y-96893500D01*
X113383500Y-98215716D01*
X113525903Y-98274098D01*
X113612446Y-98251960D01*
X113776938Y-98178152D01*
X113923870Y-98073672D01*
X114047595Y-97942534D01*
X114143359Y-97789778D01*
X114207482Y-97621275D01*
X114237500Y-97443500D01*
X114237500Y-96893500D01*
X113383500Y-96893500D01*
X113256500Y-96893500D01*
X112402500Y-96893500D01*
X111839966Y-96893500D01*
X111837454Y-96885222D01*
X111809568Y-96833051D01*
X111836962Y-96838500D01*
X111943038Y-96838500D01*
X112047075Y-96817806D01*
X112145076Y-96777213D01*
X112233274Y-96718281D01*
X112308281Y-96643274D01*
X112367213Y-96555076D01*
X112402500Y-96469885D01*
X112402500Y-96766500D01*
X113256500Y-96766500D01*
X113256500Y-95444284D01*
X113383500Y-95444284D01*
X113383500Y-96766500D01*
X114237500Y-96766500D01*
X114237500Y-96216500D01*
X114207482Y-96038725D01*
X114143359Y-95870222D01*
X114047595Y-95717466D01*
X113923870Y-95586328D01*
X113776938Y-95481848D01*
X113612446Y-95408040D01*
X113525903Y-95385902D01*
X113383500Y-95444284D01*
X113256500Y-95444284D01*
X113114097Y-95385902D01*
X113027554Y-95408040D01*
X112863062Y-95481848D01*
X112716130Y-95586328D01*
X112592405Y-95717466D01*
X112496641Y-95870222D01*
X112432518Y-96038725D01*
X112411656Y-96162278D01*
X112407806Y-96142925D01*
X112367213Y-96044924D01*
X112308281Y-95956726D01*
X112233274Y-95881719D01*
X112145076Y-95822787D01*
X112047075Y-95782194D01*
X111943038Y-95761500D01*
X111836962Y-95761500D01*
X111732925Y-95782194D01*
X111634924Y-95822787D01*
X111546726Y-95881719D01*
X111471719Y-95956726D01*
X111412787Y-96044924D01*
X111372194Y-96142925D01*
X111351500Y-96246962D01*
X111351500Y-96353038D01*
X111353833Y-96364766D01*
X111063500Y-96074434D01*
X111063500Y-94775566D01*
X112244417Y-93594650D01*
X112258276Y-93583276D01*
X112269649Y-93569418D01*
X112269655Y-93569412D01*
X112303701Y-93527927D01*
X112337454Y-93464778D01*
X112358240Y-93396258D01*
X112363500Y-93342850D01*
X112363500Y-93342840D01*
X112365257Y-93325000D01*
X112363500Y-93307160D01*
X112363500Y-92713500D01*
X112452500Y-92713500D01*
X112452500Y-93063500D01*
X112481557Y-93231521D01*
X112542835Y-93390645D01*
X112633979Y-93534756D01*
X112751486Y-93658317D01*
X112890841Y-93756579D01*
X113046688Y-93825766D01*
X113121939Y-93844588D01*
X113256500Y-93785563D01*
X113256500Y-92713500D01*
X112452500Y-92713500D01*
X112363500Y-92713500D01*
X112363500Y-92236500D01*
X112452500Y-92236500D01*
X112452500Y-92586500D01*
X113256500Y-92586500D01*
X113256500Y-91514437D01*
X113121939Y-91455412D01*
X113046688Y-91474234D01*
X112890841Y-91543421D01*
X112751486Y-91641683D01*
X112633979Y-91765244D01*
X112542835Y-91909355D01*
X112481557Y-92068479D01*
X112452500Y-92236500D01*
X112363500Y-92236500D01*
X112363500Y-91217840D01*
X112365257Y-91200000D01*
X112363500Y-91182160D01*
X112363500Y-91182150D01*
X112358240Y-91128742D01*
X112337454Y-91060222D01*
X112331250Y-91048615D01*
X112303701Y-90997073D01*
X112269655Y-90955588D01*
X112269645Y-90955578D01*
X112258275Y-90941724D01*
X112244422Y-90930355D01*
X111919654Y-90605588D01*
X111908276Y-90591724D01*
X111852926Y-90546299D01*
X111789778Y-90512546D01*
X111721258Y-90491760D01*
X111714533Y-90491098D01*
X111714533Y-90400000D01*
X111710411Y-90358147D01*
X111698203Y-90317902D01*
X111678378Y-90280812D01*
X111651698Y-90248302D01*
X111619188Y-90221622D01*
X111607735Y-90215500D01*
X114866494Y-90215500D01*
X114652722Y-90358338D01*
X114358338Y-90652722D01*
X114127041Y-90998882D01*
X113967721Y-91383515D01*
X113911550Y-91665905D01*
X113888514Y-91641683D01*
X113749159Y-91543421D01*
X113593312Y-91474234D01*
X113518061Y-91455412D01*
X113383500Y-91514437D01*
X113383500Y-92586500D01*
X113403500Y-92586500D01*
X113403500Y-92713500D01*
X113383500Y-92713500D01*
X113383500Y-93785563D01*
X113518061Y-93844588D01*
X113593312Y-93825766D01*
X113749159Y-93756579D01*
X113888514Y-93658317D01*
X114006021Y-93534756D01*
X114097165Y-93390645D01*
X114158443Y-93231521D01*
X114183639Y-93085823D01*
X114358338Y-93347278D01*
X114652722Y-93641662D01*
X114998882Y-93872959D01*
X115383515Y-94032279D01*
X115791838Y-94113500D01*
X116208162Y-94113500D01*
X116616485Y-94032279D01*
X117001118Y-93872959D01*
X117347278Y-93641662D01*
X117641662Y-93347278D01*
X117784501Y-93133505D01*
X117784500Y-103366494D01*
X117641662Y-103152722D01*
X117347278Y-102858338D01*
X117001118Y-102627041D01*
X116616485Y-102467721D01*
X116208162Y-102386500D01*
X115791838Y-102386500D01*
X115383515Y-102467721D01*
X114998882Y-102627041D01*
X114652722Y-102858338D01*
X114358338Y-103152722D01*
X114127041Y-103498882D01*
X113967721Y-103883515D01*
X113886500Y-104291838D01*
X113886500Y-104708162D01*
X113967721Y-105116485D01*
X114127041Y-105501118D01*
X114358338Y-105847278D01*
X114652722Y-106141662D01*
X114866494Y-106284500D01*
X103133506Y-106284500D01*
X103347278Y-106141662D01*
X103641662Y-105847278D01*
X103872959Y-105501118D01*
X104032279Y-105116485D01*
X104113500Y-104708162D01*
X104113500Y-104291838D01*
X104032279Y-103883515D01*
X103872959Y-103498882D01*
X103641662Y-103152722D01*
X103347278Y-102858338D01*
X103001118Y-102627041D01*
X102616485Y-102467721D01*
X102208162Y-102386500D01*
X101791838Y-102386500D01*
X101383515Y-102467721D01*
X100998882Y-102627041D01*
X100652722Y-102858338D01*
X100358338Y-103152722D01*
X100215500Y-103366494D01*
X100215500Y-96893500D01*
X103762500Y-96893500D01*
X103762500Y-97443500D01*
X103792518Y-97621275D01*
X103856641Y-97789778D01*
X103952405Y-97942534D01*
X104076130Y-98073672D01*
X104223062Y-98178152D01*
X104387554Y-98251960D01*
X104474097Y-98274098D01*
X104616500Y-98215716D01*
X104616500Y-96893500D01*
X104743500Y-96893500D01*
X104743500Y-98215716D01*
X104885903Y-98274098D01*
X104972446Y-98251960D01*
X105136938Y-98178152D01*
X105283870Y-98073672D01*
X105407595Y-97942534D01*
X105503359Y-97789778D01*
X105567482Y-97621275D01*
X105597500Y-97443500D01*
X105597500Y-96893500D01*
X104743500Y-96893500D01*
X104616500Y-96893500D01*
X103762500Y-96893500D01*
X100215500Y-96893500D01*
X100215500Y-96216500D01*
X103762500Y-96216500D01*
X103762500Y-96766500D01*
X104616500Y-96766500D01*
X104616500Y-95444284D01*
X104743500Y-95444284D01*
X104743500Y-96766500D01*
X105597500Y-96766500D01*
X105597500Y-96469885D01*
X105632787Y-96555076D01*
X105691719Y-96643274D01*
X105766726Y-96718281D01*
X105854924Y-96777213D01*
X105952925Y-96817806D01*
X106056962Y-96838500D01*
X106163038Y-96838500D01*
X106267075Y-96817806D01*
X106365076Y-96777213D01*
X106453274Y-96718281D01*
X106528281Y-96643274D01*
X106587213Y-96555076D01*
X106627806Y-96457075D01*
X106648500Y-96353038D01*
X106648500Y-96246962D01*
X106627806Y-96142925D01*
X106587213Y-96044924D01*
X106528281Y-95956726D01*
X106453274Y-95881719D01*
X106367640Y-95824500D01*
X106996500Y-95824500D01*
X106996500Y-95935500D01*
X107018155Y-96044367D01*
X107060632Y-96146918D01*
X107122301Y-96239211D01*
X107200789Y-96317699D01*
X107293082Y-96379368D01*
X107395633Y-96421845D01*
X107504500Y-96443500D01*
X107615500Y-96443500D01*
X107724367Y-96421845D01*
X107826918Y-96379368D01*
X107919211Y-96317699D01*
X107997699Y-96239211D01*
X108059368Y-96146918D01*
X108101845Y-96044367D01*
X108123500Y-95935500D01*
X108123500Y-95824500D01*
X108112775Y-95770581D01*
X108550581Y-95332775D01*
X108604500Y-95343500D01*
X108715500Y-95343500D01*
X108824367Y-95321845D01*
X108926918Y-95279368D01*
X109019211Y-95217699D01*
X109097699Y-95139211D01*
X109159368Y-95046918D01*
X109201845Y-94944367D01*
X109223500Y-94835500D01*
X109223500Y-94724500D01*
X109201845Y-94615633D01*
X109159368Y-94513082D01*
X109097699Y-94420789D01*
X109019211Y-94342301D01*
X108926918Y-94280632D01*
X108824367Y-94238155D01*
X108715500Y-94216500D01*
X108604500Y-94216500D01*
X108495633Y-94238155D01*
X108393082Y-94280632D01*
X108300789Y-94342301D01*
X108222301Y-94420789D01*
X108160632Y-94513082D01*
X108118155Y-94615633D01*
X108096500Y-94724500D01*
X108096500Y-94835500D01*
X108107225Y-94889419D01*
X107669419Y-95327225D01*
X107615500Y-95316500D01*
X107504500Y-95316500D01*
X107395633Y-95338155D01*
X107293082Y-95380632D01*
X107200789Y-95442301D01*
X107122301Y-95520789D01*
X107060632Y-95613082D01*
X107018155Y-95715633D01*
X106996500Y-95824500D01*
X106367640Y-95824500D01*
X106365076Y-95822787D01*
X106267075Y-95782194D01*
X106163038Y-95761500D01*
X106056962Y-95761500D01*
X105952925Y-95782194D01*
X105854924Y-95822787D01*
X105766726Y-95881719D01*
X105691719Y-95956726D01*
X105632787Y-96044924D01*
X105592194Y-96142925D01*
X105588344Y-96162278D01*
X105567482Y-96038725D01*
X105503359Y-95870222D01*
X105407595Y-95717466D01*
X105283870Y-95586328D01*
X105136938Y-95481848D01*
X104972446Y-95408040D01*
X104885903Y-95385902D01*
X104743500Y-95444284D01*
X104616500Y-95444284D01*
X104474097Y-95385902D01*
X104387554Y-95408040D01*
X104223062Y-95481848D01*
X104076130Y-95586328D01*
X103952405Y-95717466D01*
X103856641Y-95870222D01*
X103792518Y-96038725D01*
X103762500Y-96216500D01*
X100215500Y-96216500D01*
X100215500Y-93133506D01*
X100358338Y-93347278D01*
X100652722Y-93641662D01*
X100998882Y-93872959D01*
X101383515Y-94032279D01*
X101791838Y-94113500D01*
X102208162Y-94113500D01*
X102616485Y-94032279D01*
X103001118Y-93872959D01*
X103347278Y-93641662D01*
X103641662Y-93347278D01*
X103816361Y-93085823D01*
X103841557Y-93231521D01*
X103902835Y-93390645D01*
X103993979Y-93534756D01*
X104111486Y-93658317D01*
X104250841Y-93756579D01*
X104406688Y-93825766D01*
X104481939Y-93844588D01*
X104616500Y-93785563D01*
X104616500Y-92713500D01*
X104743500Y-92713500D01*
X104743500Y-93785563D01*
X104878061Y-93844588D01*
X104953312Y-93825766D01*
X105109159Y-93756579D01*
X105248514Y-93658317D01*
X105366021Y-93534756D01*
X105457165Y-93390645D01*
X105518443Y-93231521D01*
X105547500Y-93063500D01*
X105547500Y-92713500D01*
X104743500Y-92713500D01*
X104616500Y-92713500D01*
X104596500Y-92713500D01*
X104596500Y-92586500D01*
X104616500Y-92586500D01*
X104616500Y-91514437D01*
X104743500Y-91514437D01*
X104743500Y-92586500D01*
X105547500Y-92586500D01*
X105547500Y-92236500D01*
X105518443Y-92068479D01*
X105457165Y-91909355D01*
X105366021Y-91765244D01*
X105248514Y-91641683D01*
X105109159Y-91543421D01*
X104953312Y-91474234D01*
X104878061Y-91455412D01*
X104743500Y-91514437D01*
X104616500Y-91514437D01*
X104481939Y-91455412D01*
X104406688Y-91474234D01*
X104250841Y-91543421D01*
X104111486Y-91641683D01*
X104088450Y-91665905D01*
X104032279Y-91383515D01*
X103872959Y-90998882D01*
X103641662Y-90652722D01*
X103347278Y-90358338D01*
X103133506Y-90215500D01*
X106392265Y-90215500D01*
X106380812Y-90221622D01*
G37*
%TD.AperFunction*%
%TD*%
M02*
