%TF.GenerationSoftware,KiCad,Pcbnew,8.0.5*%
%TF.CreationDate,2024-11-25T09:27:34+08:00*%
%TF.ProjectId,u1,75312e6b-6963-4616-945f-706362585858,rev?*%
%TF.SameCoordinates,PX2aea540PY2160ec0*%
%TF.FileFunction,Soldermask,Top*%
%TF.FilePolarity,Negative*%
%FSLAX46Y46*%
G04 Gerber Fmt 4.6, Leading zero omitted, Abs format (unit mm)*
G04 Created by KiCad (PCBNEW 8.0.5) date 2024-11-25 09:27:34*
%MOMM*%
%LPD*%
G01*
G04 APERTURE LIST*
G04 Aperture macros list*
%AMRoundRect*
0 Rectangle with rounded corners*
0 $1 Rounding radius*
0 $2 $3 $4 $5 $6 $7 $8 $9 X,Y pos of 4 corners*
0 Add a 4 corners polygon primitive as box body*
4,1,4,$2,$3,$4,$5,$6,$7,$8,$9,$2,$3,0*
0 Add four circle primitives for the rounded corners*
1,1,$1+$1,$2,$3*
1,1,$1+$1,$4,$5*
1,1,$1+$1,$6,$7*
1,1,$1+$1,$8,$9*
0 Add four rect primitives between the rounded corners*
20,1,$1+$1,$2,$3,$4,$5,0*
20,1,$1+$1,$4,$5,$6,$7,0*
20,1,$1+$1,$6,$7,$8,$9,0*
20,1,$1+$1,$8,$9,$2,$3,0*%
G04 Aperture macros list end*
%ADD10C,0.100000*%
%ADD11C,0.150000*%
%ADD12C,0.300000*%
%ADD13C,0.400000*%
%ADD14C,3.500000*%
%ADD15C,0.650000*%
%ADD16R,0.600000X1.450000*%
%ADD17R,0.300000X1.450000*%
%ADD18O,1.200000X2.300000*%
%ADD19O,1.100000X1.800000*%
%ADD20RoundRect,0.200000X0.275000X-0.200000X0.275000X0.200000X-0.275000X0.200000X-0.275000X-0.200000X0*%
%ADD21RoundRect,0.200000X-0.275000X0.200000X-0.275000X-0.200000X0.275000X-0.200000X0.275000X0.200000X0*%
%ADD22R,0.375000X0.500000*%
%ADD23R,0.300000X0.650000*%
%ADD24R,2.000000X2.500000*%
%ADD25R,0.500000X1.400000*%
%TA.AperFunction,Profile*%
%ADD26C,0.050000*%
%TD*%
G04 APERTURE END LIST*
D10*
D11*
X132002200Y-131007200D02*
X240002200Y-131007200D01*
X240002200Y-163007200D01*
X132002200Y-163007200D01*
X132002200Y-131007200D01*
D10*
D11*
X-35000000Y25000000D02*
X242002200Y25000000D01*
X242002200Y-165007200D01*
X-35000000Y-165007200D01*
X-35000000Y25000000D01*
D10*
D11*
X-33000000Y23000000D02*
X240002200Y23000000D01*
X240002200Y-163007200D01*
X-33000000Y-163007200D01*
X-33000000Y23000000D01*
D10*
D11*
X15000000Y23000000D02*
X15000000Y25000000D01*
D10*
D11*
X65000000Y23000000D02*
X65000000Y25000000D01*
D10*
D11*
X115000000Y23000000D02*
X115000000Y25000000D01*
D10*
D11*
X165000000Y23000000D02*
X165000000Y25000000D01*
D10*
D11*
X215000000Y23000000D02*
X215000000Y25000000D01*
D10*
D11*
X-8910840Y23406396D02*
X-9653697Y23406396D01*
X-9282269Y23406396D02*
X-9282269Y24706396D01*
X-9282269Y24706396D02*
X-9406078Y24520681D01*
X-9406078Y24520681D02*
X-9529888Y24396872D01*
X-9529888Y24396872D02*
X-9653697Y24334967D01*
D10*
D11*
X40346303Y24582586D02*
X40408207Y24644491D01*
X40408207Y24644491D02*
X40532017Y24706396D01*
X40532017Y24706396D02*
X40841541Y24706396D01*
X40841541Y24706396D02*
X40965350Y24644491D01*
X40965350Y24644491D02*
X41027255Y24582586D01*
X41027255Y24582586D02*
X41089160Y24458777D01*
X41089160Y24458777D02*
X41089160Y24334967D01*
X41089160Y24334967D02*
X41027255Y24149253D01*
X41027255Y24149253D02*
X40284398Y23406396D01*
X40284398Y23406396D02*
X41089160Y23406396D01*
D10*
D11*
X90284398Y24706396D02*
X91089160Y24706396D01*
X91089160Y24706396D02*
X90655826Y24211158D01*
X90655826Y24211158D02*
X90841541Y24211158D01*
X90841541Y24211158D02*
X90965350Y24149253D01*
X90965350Y24149253D02*
X91027255Y24087348D01*
X91027255Y24087348D02*
X91089160Y23963539D01*
X91089160Y23963539D02*
X91089160Y23654015D01*
X91089160Y23654015D02*
X91027255Y23530205D01*
X91027255Y23530205D02*
X90965350Y23468300D01*
X90965350Y23468300D02*
X90841541Y23406396D01*
X90841541Y23406396D02*
X90470112Y23406396D01*
X90470112Y23406396D02*
X90346303Y23468300D01*
X90346303Y23468300D02*
X90284398Y23530205D01*
D10*
D11*
X140965350Y24273062D02*
X140965350Y23406396D01*
X140655826Y24768300D02*
X140346303Y23839729D01*
X140346303Y23839729D02*
X141151064Y23839729D01*
D10*
D11*
X191027255Y24706396D02*
X190408207Y24706396D01*
X190408207Y24706396D02*
X190346303Y24087348D01*
X190346303Y24087348D02*
X190408207Y24149253D01*
X190408207Y24149253D02*
X190532017Y24211158D01*
X190532017Y24211158D02*
X190841541Y24211158D01*
X190841541Y24211158D02*
X190965350Y24149253D01*
X190965350Y24149253D02*
X191027255Y24087348D01*
X191027255Y24087348D02*
X191089160Y23963539D01*
X191089160Y23963539D02*
X191089160Y23654015D01*
X191089160Y23654015D02*
X191027255Y23530205D01*
X191027255Y23530205D02*
X190965350Y23468300D01*
X190965350Y23468300D02*
X190841541Y23406396D01*
X190841541Y23406396D02*
X190532017Y23406396D01*
X190532017Y23406396D02*
X190408207Y23468300D01*
X190408207Y23468300D02*
X190346303Y23530205D01*
D10*
D11*
X240965350Y24706396D02*
X240717731Y24706396D01*
X240717731Y24706396D02*
X240593922Y24644491D01*
X240593922Y24644491D02*
X240532017Y24582586D01*
X240532017Y24582586D02*
X240408207Y24396872D01*
X240408207Y24396872D02*
X240346303Y24149253D01*
X240346303Y24149253D02*
X240346303Y23654015D01*
X240346303Y23654015D02*
X240408207Y23530205D01*
X240408207Y23530205D02*
X240470112Y23468300D01*
X240470112Y23468300D02*
X240593922Y23406396D01*
X240593922Y23406396D02*
X240841541Y23406396D01*
X240841541Y23406396D02*
X240965350Y23468300D01*
X240965350Y23468300D02*
X241027255Y23530205D01*
X241027255Y23530205D02*
X241089160Y23654015D01*
X241089160Y23654015D02*
X241089160Y23963539D01*
X241089160Y23963539D02*
X241027255Y24087348D01*
X241027255Y24087348D02*
X240965350Y24149253D01*
X240965350Y24149253D02*
X240841541Y24211158D01*
X240841541Y24211158D02*
X240593922Y24211158D01*
X240593922Y24211158D02*
X240470112Y24149253D01*
X240470112Y24149253D02*
X240408207Y24087348D01*
X240408207Y24087348D02*
X240346303Y23963539D01*
D10*
D11*
X15000000Y-163007200D02*
X15000000Y-165007200D01*
D10*
D11*
X65000000Y-163007200D02*
X65000000Y-165007200D01*
D10*
D11*
X115000000Y-163007200D02*
X115000000Y-165007200D01*
D10*
D11*
X165000000Y-163007200D02*
X165000000Y-165007200D01*
D10*
D11*
X215000000Y-163007200D02*
X215000000Y-165007200D01*
D10*
D11*
X-8910840Y-164600804D02*
X-9653697Y-164600804D01*
X-9282269Y-164600804D02*
X-9282269Y-163300804D01*
X-9282269Y-163300804D02*
X-9406078Y-163486519D01*
X-9406078Y-163486519D02*
X-9529888Y-163610328D01*
X-9529888Y-163610328D02*
X-9653697Y-163672233D01*
D10*
D11*
X40346303Y-163424614D02*
X40408207Y-163362709D01*
X40408207Y-163362709D02*
X40532017Y-163300804D01*
X40532017Y-163300804D02*
X40841541Y-163300804D01*
X40841541Y-163300804D02*
X40965350Y-163362709D01*
X40965350Y-163362709D02*
X41027255Y-163424614D01*
X41027255Y-163424614D02*
X41089160Y-163548423D01*
X41089160Y-163548423D02*
X41089160Y-163672233D01*
X41089160Y-163672233D02*
X41027255Y-163857947D01*
X41027255Y-163857947D02*
X40284398Y-164600804D01*
X40284398Y-164600804D02*
X41089160Y-164600804D01*
D10*
D11*
X90284398Y-163300804D02*
X91089160Y-163300804D01*
X91089160Y-163300804D02*
X90655826Y-163796042D01*
X90655826Y-163796042D02*
X90841541Y-163796042D01*
X90841541Y-163796042D02*
X90965350Y-163857947D01*
X90965350Y-163857947D02*
X91027255Y-163919852D01*
X91027255Y-163919852D02*
X91089160Y-164043661D01*
X91089160Y-164043661D02*
X91089160Y-164353185D01*
X91089160Y-164353185D02*
X91027255Y-164476995D01*
X91027255Y-164476995D02*
X90965350Y-164538900D01*
X90965350Y-164538900D02*
X90841541Y-164600804D01*
X90841541Y-164600804D02*
X90470112Y-164600804D01*
X90470112Y-164600804D02*
X90346303Y-164538900D01*
X90346303Y-164538900D02*
X90284398Y-164476995D01*
D10*
D11*
X140965350Y-163734138D02*
X140965350Y-164600804D01*
X140655826Y-163238900D02*
X140346303Y-164167471D01*
X140346303Y-164167471D02*
X141151064Y-164167471D01*
D10*
D11*
X191027255Y-163300804D02*
X190408207Y-163300804D01*
X190408207Y-163300804D02*
X190346303Y-163919852D01*
X190346303Y-163919852D02*
X190408207Y-163857947D01*
X190408207Y-163857947D02*
X190532017Y-163796042D01*
X190532017Y-163796042D02*
X190841541Y-163796042D01*
X190841541Y-163796042D02*
X190965350Y-163857947D01*
X190965350Y-163857947D02*
X191027255Y-163919852D01*
X191027255Y-163919852D02*
X191089160Y-164043661D01*
X191089160Y-164043661D02*
X191089160Y-164353185D01*
X191089160Y-164353185D02*
X191027255Y-164476995D01*
X191027255Y-164476995D02*
X190965350Y-164538900D01*
X190965350Y-164538900D02*
X190841541Y-164600804D01*
X190841541Y-164600804D02*
X190532017Y-164600804D01*
X190532017Y-164600804D02*
X190408207Y-164538900D01*
X190408207Y-164538900D02*
X190346303Y-164476995D01*
D10*
D11*
X240965350Y-163300804D02*
X240717731Y-163300804D01*
X240717731Y-163300804D02*
X240593922Y-163362709D01*
X240593922Y-163362709D02*
X240532017Y-163424614D01*
X240532017Y-163424614D02*
X240408207Y-163610328D01*
X240408207Y-163610328D02*
X240346303Y-163857947D01*
X240346303Y-163857947D02*
X240346303Y-164353185D01*
X240346303Y-164353185D02*
X240408207Y-164476995D01*
X240408207Y-164476995D02*
X240470112Y-164538900D01*
X240470112Y-164538900D02*
X240593922Y-164600804D01*
X240593922Y-164600804D02*
X240841541Y-164600804D01*
X240841541Y-164600804D02*
X240965350Y-164538900D01*
X240965350Y-164538900D02*
X241027255Y-164476995D01*
X241027255Y-164476995D02*
X241089160Y-164353185D01*
X241089160Y-164353185D02*
X241089160Y-164043661D01*
X241089160Y-164043661D02*
X241027255Y-163919852D01*
X241027255Y-163919852D02*
X240965350Y-163857947D01*
X240965350Y-163857947D02*
X240841541Y-163796042D01*
X240841541Y-163796042D02*
X240593922Y-163796042D01*
X240593922Y-163796042D02*
X240470112Y-163857947D01*
X240470112Y-163857947D02*
X240408207Y-163919852D01*
X240408207Y-163919852D02*
X240346303Y-164043661D01*
D10*
D11*
X-35000000Y-25000000D02*
X-33000000Y-25000000D01*
D10*
D11*
X-35000000Y-75000000D02*
X-33000000Y-75000000D01*
D10*
D11*
X-35000000Y-125000000D02*
X-33000000Y-125000000D01*
D10*
D11*
X-34309524Y-222176D02*
X-33690477Y-222176D01*
X-34433334Y-593604D02*
X-34000001Y706396D01*
X-34000001Y706396D02*
X-33566667Y-593604D01*
D10*
D11*
X-33907143Y-49912652D02*
X-33721429Y-49974557D01*
X-33721429Y-49974557D02*
X-33659524Y-50036461D01*
X-33659524Y-50036461D02*
X-33597620Y-50160271D01*
X-33597620Y-50160271D02*
X-33597620Y-50345985D01*
X-33597620Y-50345985D02*
X-33659524Y-50469795D01*
X-33659524Y-50469795D02*
X-33721429Y-50531700D01*
X-33721429Y-50531700D02*
X-33845239Y-50593604D01*
X-33845239Y-50593604D02*
X-34340477Y-50593604D01*
X-34340477Y-50593604D02*
X-34340477Y-49293604D01*
X-34340477Y-49293604D02*
X-33907143Y-49293604D01*
X-33907143Y-49293604D02*
X-33783334Y-49355509D01*
X-33783334Y-49355509D02*
X-33721429Y-49417414D01*
X-33721429Y-49417414D02*
X-33659524Y-49541223D01*
X-33659524Y-49541223D02*
X-33659524Y-49665033D01*
X-33659524Y-49665033D02*
X-33721429Y-49788842D01*
X-33721429Y-49788842D02*
X-33783334Y-49850747D01*
X-33783334Y-49850747D02*
X-33907143Y-49912652D01*
X-33907143Y-49912652D02*
X-34340477Y-49912652D01*
D10*
D11*
X-33597620Y-100469795D02*
X-33659524Y-100531700D01*
X-33659524Y-100531700D02*
X-33845239Y-100593604D01*
X-33845239Y-100593604D02*
X-33969048Y-100593604D01*
X-33969048Y-100593604D02*
X-34154762Y-100531700D01*
X-34154762Y-100531700D02*
X-34278572Y-100407890D01*
X-34278572Y-100407890D02*
X-34340477Y-100284080D01*
X-34340477Y-100284080D02*
X-34402381Y-100036461D01*
X-34402381Y-100036461D02*
X-34402381Y-99850747D01*
X-34402381Y-99850747D02*
X-34340477Y-99603128D01*
X-34340477Y-99603128D02*
X-34278572Y-99479319D01*
X-34278572Y-99479319D02*
X-34154762Y-99355509D01*
X-34154762Y-99355509D02*
X-33969048Y-99293604D01*
X-33969048Y-99293604D02*
X-33845239Y-99293604D01*
X-33845239Y-99293604D02*
X-33659524Y-99355509D01*
X-33659524Y-99355509D02*
X-33597620Y-99417414D01*
D10*
D11*
X-34340477Y-150593604D02*
X-34340477Y-149293604D01*
X-34340477Y-149293604D02*
X-34030953Y-149293604D01*
X-34030953Y-149293604D02*
X-33845239Y-149355509D01*
X-33845239Y-149355509D02*
X-33721429Y-149479319D01*
X-33721429Y-149479319D02*
X-33659524Y-149603128D01*
X-33659524Y-149603128D02*
X-33597620Y-149850747D01*
X-33597620Y-149850747D02*
X-33597620Y-150036461D01*
X-33597620Y-150036461D02*
X-33659524Y-150284080D01*
X-33659524Y-150284080D02*
X-33721429Y-150407890D01*
X-33721429Y-150407890D02*
X-33845239Y-150531700D01*
X-33845239Y-150531700D02*
X-34030953Y-150593604D01*
X-34030953Y-150593604D02*
X-34340477Y-150593604D01*
D10*
D11*
X242002200Y-25000000D02*
X240002200Y-25000000D01*
D10*
D11*
X242002200Y-75000000D02*
X240002200Y-75000000D01*
D10*
D11*
X242002200Y-125000000D02*
X240002200Y-125000000D01*
D10*
D11*
X240692676Y-222176D02*
X241311723Y-222176D01*
X240568866Y-593604D02*
X241002199Y706396D01*
X241002199Y706396D02*
X241435533Y-593604D01*
D10*
D11*
X241095057Y-49912652D02*
X241280771Y-49974557D01*
X241280771Y-49974557D02*
X241342676Y-50036461D01*
X241342676Y-50036461D02*
X241404580Y-50160271D01*
X241404580Y-50160271D02*
X241404580Y-50345985D01*
X241404580Y-50345985D02*
X241342676Y-50469795D01*
X241342676Y-50469795D02*
X241280771Y-50531700D01*
X241280771Y-50531700D02*
X241156961Y-50593604D01*
X241156961Y-50593604D02*
X240661723Y-50593604D01*
X240661723Y-50593604D02*
X240661723Y-49293604D01*
X240661723Y-49293604D02*
X241095057Y-49293604D01*
X241095057Y-49293604D02*
X241218866Y-49355509D01*
X241218866Y-49355509D02*
X241280771Y-49417414D01*
X241280771Y-49417414D02*
X241342676Y-49541223D01*
X241342676Y-49541223D02*
X241342676Y-49665033D01*
X241342676Y-49665033D02*
X241280771Y-49788842D01*
X241280771Y-49788842D02*
X241218866Y-49850747D01*
X241218866Y-49850747D02*
X241095057Y-49912652D01*
X241095057Y-49912652D02*
X240661723Y-49912652D01*
D10*
D11*
X241404580Y-100469795D02*
X241342676Y-100531700D01*
X241342676Y-100531700D02*
X241156961Y-100593604D01*
X241156961Y-100593604D02*
X241033152Y-100593604D01*
X241033152Y-100593604D02*
X240847438Y-100531700D01*
X240847438Y-100531700D02*
X240723628Y-100407890D01*
X240723628Y-100407890D02*
X240661723Y-100284080D01*
X240661723Y-100284080D02*
X240599819Y-100036461D01*
X240599819Y-100036461D02*
X240599819Y-99850747D01*
X240599819Y-99850747D02*
X240661723Y-99603128D01*
X240661723Y-99603128D02*
X240723628Y-99479319D01*
X240723628Y-99479319D02*
X240847438Y-99355509D01*
X240847438Y-99355509D02*
X241033152Y-99293604D01*
X241033152Y-99293604D02*
X241156961Y-99293604D01*
X241156961Y-99293604D02*
X241342676Y-99355509D01*
X241342676Y-99355509D02*
X241404580Y-99417414D01*
D10*
D11*
X240661723Y-150593604D02*
X240661723Y-149293604D01*
X240661723Y-149293604D02*
X240971247Y-149293604D01*
X240971247Y-149293604D02*
X241156961Y-149355509D01*
X241156961Y-149355509D02*
X241280771Y-149479319D01*
X241280771Y-149479319D02*
X241342676Y-149603128D01*
X241342676Y-149603128D02*
X241404580Y-149850747D01*
X241404580Y-149850747D02*
X241404580Y-150036461D01*
X241404580Y-150036461D02*
X241342676Y-150284080D01*
X241342676Y-150284080D02*
X241280771Y-150407890D01*
X241280771Y-150407890D02*
X241156961Y-150531700D01*
X241156961Y-150531700D02*
X240971247Y-150593604D01*
X240971247Y-150593604D02*
X240661723Y-150593604D01*
D10*
D11*
X155458026Y-158793328D02*
X155458026Y-157293328D01*
X155458026Y-157293328D02*
X155815169Y-157293328D01*
X155815169Y-157293328D02*
X156029455Y-157364757D01*
X156029455Y-157364757D02*
X156172312Y-157507614D01*
X156172312Y-157507614D02*
X156243741Y-157650471D01*
X156243741Y-157650471D02*
X156315169Y-157936185D01*
X156315169Y-157936185D02*
X156315169Y-158150471D01*
X156315169Y-158150471D02*
X156243741Y-158436185D01*
X156243741Y-158436185D02*
X156172312Y-158579042D01*
X156172312Y-158579042D02*
X156029455Y-158721900D01*
X156029455Y-158721900D02*
X155815169Y-158793328D01*
X155815169Y-158793328D02*
X155458026Y-158793328D01*
X157600884Y-158793328D02*
X157600884Y-158007614D01*
X157600884Y-158007614D02*
X157529455Y-157864757D01*
X157529455Y-157864757D02*
X157386598Y-157793328D01*
X157386598Y-157793328D02*
X157100884Y-157793328D01*
X157100884Y-157793328D02*
X156958026Y-157864757D01*
X157600884Y-158721900D02*
X157458026Y-158793328D01*
X157458026Y-158793328D02*
X157100884Y-158793328D01*
X157100884Y-158793328D02*
X156958026Y-158721900D01*
X156958026Y-158721900D02*
X156886598Y-158579042D01*
X156886598Y-158579042D02*
X156886598Y-158436185D01*
X156886598Y-158436185D02*
X156958026Y-158293328D01*
X156958026Y-158293328D02*
X157100884Y-158221900D01*
X157100884Y-158221900D02*
X157458026Y-158221900D01*
X157458026Y-158221900D02*
X157600884Y-158150471D01*
X158100884Y-157793328D02*
X158672312Y-157793328D01*
X158315169Y-157293328D02*
X158315169Y-158579042D01*
X158315169Y-158579042D02*
X158386598Y-158721900D01*
X158386598Y-158721900D02*
X158529455Y-158793328D01*
X158529455Y-158793328D02*
X158672312Y-158793328D01*
X159743741Y-158721900D02*
X159600884Y-158793328D01*
X159600884Y-158793328D02*
X159315170Y-158793328D01*
X159315170Y-158793328D02*
X159172312Y-158721900D01*
X159172312Y-158721900D02*
X159100884Y-158579042D01*
X159100884Y-158579042D02*
X159100884Y-158007614D01*
X159100884Y-158007614D02*
X159172312Y-157864757D01*
X159172312Y-157864757D02*
X159315170Y-157793328D01*
X159315170Y-157793328D02*
X159600884Y-157793328D01*
X159600884Y-157793328D02*
X159743741Y-157864757D01*
X159743741Y-157864757D02*
X159815170Y-158007614D01*
X159815170Y-158007614D02*
X159815170Y-158150471D01*
X159815170Y-158150471D02*
X159100884Y-158293328D01*
X160458026Y-158650471D02*
X160529455Y-158721900D01*
X160529455Y-158721900D02*
X160458026Y-158793328D01*
X160458026Y-158793328D02*
X160386598Y-158721900D01*
X160386598Y-158721900D02*
X160458026Y-158650471D01*
X160458026Y-158650471D02*
X160458026Y-158793328D01*
X160458026Y-157864757D02*
X160529455Y-157936185D01*
X160529455Y-157936185D02*
X160458026Y-158007614D01*
X160458026Y-158007614D02*
X160386598Y-157936185D01*
X160386598Y-157936185D02*
X160458026Y-157864757D01*
X160458026Y-157864757D02*
X160458026Y-158007614D01*
D10*
D11*
X132002200Y-159507200D02*
X240002200Y-159507200D01*
D10*
D11*
X133458026Y-161593328D02*
X133458026Y-160093328D01*
X134315169Y-161593328D02*
X133672312Y-160736185D01*
X134315169Y-160093328D02*
X133458026Y-160950471D01*
X134958026Y-161593328D02*
X134958026Y-160593328D01*
X134958026Y-160093328D02*
X134886598Y-160164757D01*
X134886598Y-160164757D02*
X134958026Y-160236185D01*
X134958026Y-160236185D02*
X135029455Y-160164757D01*
X135029455Y-160164757D02*
X134958026Y-160093328D01*
X134958026Y-160093328D02*
X134958026Y-160236185D01*
X136529455Y-161450471D02*
X136458027Y-161521900D01*
X136458027Y-161521900D02*
X136243741Y-161593328D01*
X136243741Y-161593328D02*
X136100884Y-161593328D01*
X136100884Y-161593328D02*
X135886598Y-161521900D01*
X135886598Y-161521900D02*
X135743741Y-161379042D01*
X135743741Y-161379042D02*
X135672312Y-161236185D01*
X135672312Y-161236185D02*
X135600884Y-160950471D01*
X135600884Y-160950471D02*
X135600884Y-160736185D01*
X135600884Y-160736185D02*
X135672312Y-160450471D01*
X135672312Y-160450471D02*
X135743741Y-160307614D01*
X135743741Y-160307614D02*
X135886598Y-160164757D01*
X135886598Y-160164757D02*
X136100884Y-160093328D01*
X136100884Y-160093328D02*
X136243741Y-160093328D01*
X136243741Y-160093328D02*
X136458027Y-160164757D01*
X136458027Y-160164757D02*
X136529455Y-160236185D01*
X137815170Y-161593328D02*
X137815170Y-160807614D01*
X137815170Y-160807614D02*
X137743741Y-160664757D01*
X137743741Y-160664757D02*
X137600884Y-160593328D01*
X137600884Y-160593328D02*
X137315170Y-160593328D01*
X137315170Y-160593328D02*
X137172312Y-160664757D01*
X137815170Y-161521900D02*
X137672312Y-161593328D01*
X137672312Y-161593328D02*
X137315170Y-161593328D01*
X137315170Y-161593328D02*
X137172312Y-161521900D01*
X137172312Y-161521900D02*
X137100884Y-161379042D01*
X137100884Y-161379042D02*
X137100884Y-161236185D01*
X137100884Y-161236185D02*
X137172312Y-161093328D01*
X137172312Y-161093328D02*
X137315170Y-161021900D01*
X137315170Y-161021900D02*
X137672312Y-161021900D01*
X137672312Y-161021900D02*
X137815170Y-160950471D01*
X139172313Y-161593328D02*
X139172313Y-160093328D01*
X139172313Y-161521900D02*
X139029455Y-161593328D01*
X139029455Y-161593328D02*
X138743741Y-161593328D01*
X138743741Y-161593328D02*
X138600884Y-161521900D01*
X138600884Y-161521900D02*
X138529455Y-161450471D01*
X138529455Y-161450471D02*
X138458027Y-161307614D01*
X138458027Y-161307614D02*
X138458027Y-160879042D01*
X138458027Y-160879042D02*
X138529455Y-160736185D01*
X138529455Y-160736185D02*
X138600884Y-160664757D01*
X138600884Y-160664757D02*
X138743741Y-160593328D01*
X138743741Y-160593328D02*
X139029455Y-160593328D01*
X139029455Y-160593328D02*
X139172313Y-160664757D01*
X141029455Y-160807614D02*
X141529455Y-160807614D01*
X141743741Y-161593328D02*
X141029455Y-161593328D01*
X141029455Y-161593328D02*
X141029455Y-160093328D01*
X141029455Y-160093328D02*
X141743741Y-160093328D01*
X142386598Y-161450471D02*
X142458027Y-161521900D01*
X142458027Y-161521900D02*
X142386598Y-161593328D01*
X142386598Y-161593328D02*
X142315170Y-161521900D01*
X142315170Y-161521900D02*
X142386598Y-161450471D01*
X142386598Y-161450471D02*
X142386598Y-161593328D01*
X143100884Y-161593328D02*
X143100884Y-160093328D01*
X143100884Y-160093328D02*
X143458027Y-160093328D01*
X143458027Y-160093328D02*
X143672313Y-160164757D01*
X143672313Y-160164757D02*
X143815170Y-160307614D01*
X143815170Y-160307614D02*
X143886599Y-160450471D01*
X143886599Y-160450471D02*
X143958027Y-160736185D01*
X143958027Y-160736185D02*
X143958027Y-160950471D01*
X143958027Y-160950471D02*
X143886599Y-161236185D01*
X143886599Y-161236185D02*
X143815170Y-161379042D01*
X143815170Y-161379042D02*
X143672313Y-161521900D01*
X143672313Y-161521900D02*
X143458027Y-161593328D01*
X143458027Y-161593328D02*
X143100884Y-161593328D01*
X144600884Y-161450471D02*
X144672313Y-161521900D01*
X144672313Y-161521900D02*
X144600884Y-161593328D01*
X144600884Y-161593328D02*
X144529456Y-161521900D01*
X144529456Y-161521900D02*
X144600884Y-161450471D01*
X144600884Y-161450471D02*
X144600884Y-161593328D01*
X145243742Y-161164757D02*
X145958028Y-161164757D01*
X145100885Y-161593328D02*
X145600885Y-160093328D01*
X145600885Y-160093328D02*
X146100885Y-161593328D01*
X146600884Y-161450471D02*
X146672313Y-161521900D01*
X146672313Y-161521900D02*
X146600884Y-161593328D01*
X146600884Y-161593328D02*
X146529456Y-161521900D01*
X146529456Y-161521900D02*
X146600884Y-161450471D01*
X146600884Y-161450471D02*
X146600884Y-161593328D01*
X148672313Y-160736185D02*
X148529456Y-160664757D01*
X148529456Y-160664757D02*
X148458027Y-160593328D01*
X148458027Y-160593328D02*
X148386599Y-160450471D01*
X148386599Y-160450471D02*
X148386599Y-160379042D01*
X148386599Y-160379042D02*
X148458027Y-160236185D01*
X148458027Y-160236185D02*
X148529456Y-160164757D01*
X148529456Y-160164757D02*
X148672313Y-160093328D01*
X148672313Y-160093328D02*
X148958027Y-160093328D01*
X148958027Y-160093328D02*
X149100885Y-160164757D01*
X149100885Y-160164757D02*
X149172313Y-160236185D01*
X149172313Y-160236185D02*
X149243742Y-160379042D01*
X149243742Y-160379042D02*
X149243742Y-160450471D01*
X149243742Y-160450471D02*
X149172313Y-160593328D01*
X149172313Y-160593328D02*
X149100885Y-160664757D01*
X149100885Y-160664757D02*
X148958027Y-160736185D01*
X148958027Y-160736185D02*
X148672313Y-160736185D01*
X148672313Y-160736185D02*
X148529456Y-160807614D01*
X148529456Y-160807614D02*
X148458027Y-160879042D01*
X148458027Y-160879042D02*
X148386599Y-161021900D01*
X148386599Y-161021900D02*
X148386599Y-161307614D01*
X148386599Y-161307614D02*
X148458027Y-161450471D01*
X148458027Y-161450471D02*
X148529456Y-161521900D01*
X148529456Y-161521900D02*
X148672313Y-161593328D01*
X148672313Y-161593328D02*
X148958027Y-161593328D01*
X148958027Y-161593328D02*
X149100885Y-161521900D01*
X149100885Y-161521900D02*
X149172313Y-161450471D01*
X149172313Y-161450471D02*
X149243742Y-161307614D01*
X149243742Y-161307614D02*
X149243742Y-161021900D01*
X149243742Y-161021900D02*
X149172313Y-160879042D01*
X149172313Y-160879042D02*
X149100885Y-160807614D01*
X149100885Y-160807614D02*
X148958027Y-160736185D01*
X149886598Y-161450471D02*
X149958027Y-161521900D01*
X149958027Y-161521900D02*
X149886598Y-161593328D01*
X149886598Y-161593328D02*
X149815170Y-161521900D01*
X149815170Y-161521900D02*
X149886598Y-161450471D01*
X149886598Y-161450471D02*
X149886598Y-161593328D01*
X150886599Y-160093328D02*
X151029456Y-160093328D01*
X151029456Y-160093328D02*
X151172313Y-160164757D01*
X151172313Y-160164757D02*
X151243742Y-160236185D01*
X151243742Y-160236185D02*
X151315170Y-160379042D01*
X151315170Y-160379042D02*
X151386599Y-160664757D01*
X151386599Y-160664757D02*
X151386599Y-161021900D01*
X151386599Y-161021900D02*
X151315170Y-161307614D01*
X151315170Y-161307614D02*
X151243742Y-161450471D01*
X151243742Y-161450471D02*
X151172313Y-161521900D01*
X151172313Y-161521900D02*
X151029456Y-161593328D01*
X151029456Y-161593328D02*
X150886599Y-161593328D01*
X150886599Y-161593328D02*
X150743742Y-161521900D01*
X150743742Y-161521900D02*
X150672313Y-161450471D01*
X150672313Y-161450471D02*
X150600884Y-161307614D01*
X150600884Y-161307614D02*
X150529456Y-161021900D01*
X150529456Y-161021900D02*
X150529456Y-160664757D01*
X150529456Y-160664757D02*
X150600884Y-160379042D01*
X150600884Y-160379042D02*
X150672313Y-160236185D01*
X150672313Y-160236185D02*
X150743742Y-160164757D01*
X150743742Y-160164757D02*
X150886599Y-160093328D01*
X152029455Y-161450471D02*
X152100884Y-161521900D01*
X152100884Y-161521900D02*
X152029455Y-161593328D01*
X152029455Y-161593328D02*
X151958027Y-161521900D01*
X151958027Y-161521900D02*
X152029455Y-161450471D01*
X152029455Y-161450471D02*
X152029455Y-161593328D01*
X153458027Y-160093328D02*
X152743741Y-160093328D01*
X152743741Y-160093328D02*
X152672313Y-160807614D01*
X152672313Y-160807614D02*
X152743741Y-160736185D01*
X152743741Y-160736185D02*
X152886599Y-160664757D01*
X152886599Y-160664757D02*
X153243741Y-160664757D01*
X153243741Y-160664757D02*
X153386599Y-160736185D01*
X153386599Y-160736185D02*
X153458027Y-160807614D01*
X153458027Y-160807614D02*
X153529456Y-160950471D01*
X153529456Y-160950471D02*
X153529456Y-161307614D01*
X153529456Y-161307614D02*
X153458027Y-161450471D01*
X153458027Y-161450471D02*
X153386599Y-161521900D01*
X153386599Y-161521900D02*
X153243741Y-161593328D01*
X153243741Y-161593328D02*
X152886599Y-161593328D01*
X152886599Y-161593328D02*
X152743741Y-161521900D01*
X152743741Y-161521900D02*
X152672313Y-161450471D01*
D10*
D11*
X132002200Y-156507200D02*
X240002200Y-156507200D01*
D10*
D12*
X219413853Y-158785528D02*
X218913853Y-158071242D01*
X218556710Y-158785528D02*
X218556710Y-157285528D01*
X218556710Y-157285528D02*
X219128139Y-157285528D01*
X219128139Y-157285528D02*
X219270996Y-157356957D01*
X219270996Y-157356957D02*
X219342425Y-157428385D01*
X219342425Y-157428385D02*
X219413853Y-157571242D01*
X219413853Y-157571242D02*
X219413853Y-157785528D01*
X219413853Y-157785528D02*
X219342425Y-157928385D01*
X219342425Y-157928385D02*
X219270996Y-157999814D01*
X219270996Y-157999814D02*
X219128139Y-158071242D01*
X219128139Y-158071242D02*
X218556710Y-158071242D01*
X220628139Y-158714100D02*
X220485282Y-158785528D01*
X220485282Y-158785528D02*
X220199568Y-158785528D01*
X220199568Y-158785528D02*
X220056710Y-158714100D01*
X220056710Y-158714100D02*
X219985282Y-158571242D01*
X219985282Y-158571242D02*
X219985282Y-157999814D01*
X219985282Y-157999814D02*
X220056710Y-157856957D01*
X220056710Y-157856957D02*
X220199568Y-157785528D01*
X220199568Y-157785528D02*
X220485282Y-157785528D01*
X220485282Y-157785528D02*
X220628139Y-157856957D01*
X220628139Y-157856957D02*
X220699568Y-157999814D01*
X220699568Y-157999814D02*
X220699568Y-158142671D01*
X220699568Y-158142671D02*
X219985282Y-158285528D01*
X221199567Y-157785528D02*
X221556710Y-158785528D01*
X221556710Y-158785528D02*
X221913853Y-157785528D01*
X222485281Y-158642671D02*
X222556710Y-158714100D01*
X222556710Y-158714100D02*
X222485281Y-158785528D01*
X222485281Y-158785528D02*
X222413853Y-158714100D01*
X222413853Y-158714100D02*
X222485281Y-158642671D01*
X222485281Y-158642671D02*
X222485281Y-158785528D01*
X222485281Y-157856957D02*
X222556710Y-157928385D01*
X222556710Y-157928385D02*
X222485281Y-157999814D01*
X222485281Y-157999814D02*
X222413853Y-157928385D01*
X222413853Y-157928385D02*
X222485281Y-157856957D01*
X222485281Y-157856957D02*
X222485281Y-157999814D01*
D10*
D11*
X133386598Y-158721900D02*
X133600884Y-158793328D01*
X133600884Y-158793328D02*
X133958026Y-158793328D01*
X133958026Y-158793328D02*
X134100884Y-158721900D01*
X134100884Y-158721900D02*
X134172312Y-158650471D01*
X134172312Y-158650471D02*
X134243741Y-158507614D01*
X134243741Y-158507614D02*
X134243741Y-158364757D01*
X134243741Y-158364757D02*
X134172312Y-158221900D01*
X134172312Y-158221900D02*
X134100884Y-158150471D01*
X134100884Y-158150471D02*
X133958026Y-158079042D01*
X133958026Y-158079042D02*
X133672312Y-158007614D01*
X133672312Y-158007614D02*
X133529455Y-157936185D01*
X133529455Y-157936185D02*
X133458026Y-157864757D01*
X133458026Y-157864757D02*
X133386598Y-157721900D01*
X133386598Y-157721900D02*
X133386598Y-157579042D01*
X133386598Y-157579042D02*
X133458026Y-157436185D01*
X133458026Y-157436185D02*
X133529455Y-157364757D01*
X133529455Y-157364757D02*
X133672312Y-157293328D01*
X133672312Y-157293328D02*
X134029455Y-157293328D01*
X134029455Y-157293328D02*
X134243741Y-157364757D01*
X134886597Y-158793328D02*
X134886597Y-157793328D01*
X134886597Y-157293328D02*
X134815169Y-157364757D01*
X134815169Y-157364757D02*
X134886597Y-157436185D01*
X134886597Y-157436185D02*
X134958026Y-157364757D01*
X134958026Y-157364757D02*
X134886597Y-157293328D01*
X134886597Y-157293328D02*
X134886597Y-157436185D01*
X135458026Y-157793328D02*
X136243741Y-157793328D01*
X136243741Y-157793328D02*
X135458026Y-158793328D01*
X135458026Y-158793328D02*
X136243741Y-158793328D01*
X137386598Y-158721900D02*
X137243741Y-158793328D01*
X137243741Y-158793328D02*
X136958027Y-158793328D01*
X136958027Y-158793328D02*
X136815169Y-158721900D01*
X136815169Y-158721900D02*
X136743741Y-158579042D01*
X136743741Y-158579042D02*
X136743741Y-158007614D01*
X136743741Y-158007614D02*
X136815169Y-157864757D01*
X136815169Y-157864757D02*
X136958027Y-157793328D01*
X136958027Y-157793328D02*
X137243741Y-157793328D01*
X137243741Y-157793328D02*
X137386598Y-157864757D01*
X137386598Y-157864757D02*
X137458027Y-158007614D01*
X137458027Y-158007614D02*
X137458027Y-158150471D01*
X137458027Y-158150471D02*
X136743741Y-158293328D01*
X138100883Y-158650471D02*
X138172312Y-158721900D01*
X138172312Y-158721900D02*
X138100883Y-158793328D01*
X138100883Y-158793328D02*
X138029455Y-158721900D01*
X138029455Y-158721900D02*
X138100883Y-158650471D01*
X138100883Y-158650471D02*
X138100883Y-158793328D01*
X138100883Y-157864757D02*
X138172312Y-157936185D01*
X138172312Y-157936185D02*
X138100883Y-158007614D01*
X138100883Y-158007614D02*
X138029455Y-157936185D01*
X138029455Y-157936185D02*
X138100883Y-157864757D01*
X138100883Y-157864757D02*
X138100883Y-158007614D01*
X139886598Y-158364757D02*
X140600884Y-158364757D01*
X139743741Y-158793328D02*
X140243741Y-157293328D01*
X140243741Y-157293328D02*
X140743741Y-158793328D01*
X141886598Y-157793328D02*
X141886598Y-158793328D01*
X141529455Y-157221900D02*
X141172312Y-158293328D01*
X141172312Y-158293328D02*
X142100883Y-158293328D01*
D10*
D11*
X218458026Y-161593328D02*
X218458026Y-160093328D01*
X219815170Y-161593328D02*
X219815170Y-160093328D01*
X219815170Y-161521900D02*
X219672312Y-161593328D01*
X219672312Y-161593328D02*
X219386598Y-161593328D01*
X219386598Y-161593328D02*
X219243741Y-161521900D01*
X219243741Y-161521900D02*
X219172312Y-161450471D01*
X219172312Y-161450471D02*
X219100884Y-161307614D01*
X219100884Y-161307614D02*
X219100884Y-160879042D01*
X219100884Y-160879042D02*
X219172312Y-160736185D01*
X219172312Y-160736185D02*
X219243741Y-160664757D01*
X219243741Y-160664757D02*
X219386598Y-160593328D01*
X219386598Y-160593328D02*
X219672312Y-160593328D01*
X219672312Y-160593328D02*
X219815170Y-160664757D01*
X220529455Y-161450471D02*
X220600884Y-161521900D01*
X220600884Y-161521900D02*
X220529455Y-161593328D01*
X220529455Y-161593328D02*
X220458027Y-161521900D01*
X220458027Y-161521900D02*
X220529455Y-161450471D01*
X220529455Y-161450471D02*
X220529455Y-161593328D01*
X220529455Y-160664757D02*
X220600884Y-160736185D01*
X220600884Y-160736185D02*
X220529455Y-160807614D01*
X220529455Y-160807614D02*
X220458027Y-160736185D01*
X220458027Y-160736185D02*
X220529455Y-160664757D01*
X220529455Y-160664757D02*
X220529455Y-160807614D01*
X223172313Y-161593328D02*
X222315170Y-161593328D01*
X222743741Y-161593328D02*
X222743741Y-160093328D01*
X222743741Y-160093328D02*
X222600884Y-160307614D01*
X222600884Y-160307614D02*
X222458027Y-160450471D01*
X222458027Y-160450471D02*
X222315170Y-160521900D01*
X224886598Y-160021900D02*
X223600884Y-161950471D01*
X226172313Y-161593328D02*
X225315170Y-161593328D01*
X225743741Y-161593328D02*
X225743741Y-160093328D01*
X225743741Y-160093328D02*
X225600884Y-160307614D01*
X225600884Y-160307614D02*
X225458027Y-160450471D01*
X225458027Y-160450471D02*
X225315170Y-160521900D01*
D10*
D11*
X132002200Y-152507200D02*
X240002200Y-152507200D01*
D10*
D13*
X133693928Y-153211638D02*
X134836785Y-153211638D01*
X134015357Y-155211638D02*
X134265357Y-153211638D01*
X135253452Y-155211638D02*
X135420119Y-153878304D01*
X135503452Y-153211638D02*
X135396309Y-153306876D01*
X135396309Y-153306876D02*
X135479643Y-153402114D01*
X135479643Y-153402114D02*
X135586786Y-153306876D01*
X135586786Y-153306876D02*
X135503452Y-153211638D01*
X135503452Y-153211638D02*
X135479643Y-153402114D01*
X136086786Y-153878304D02*
X136848690Y-153878304D01*
X136455833Y-153211638D02*
X136241548Y-154925923D01*
X136241548Y-154925923D02*
X136312976Y-155116400D01*
X136312976Y-155116400D02*
X136491548Y-155211638D01*
X136491548Y-155211638D02*
X136682024Y-155211638D01*
X137634405Y-155211638D02*
X137455833Y-155116400D01*
X137455833Y-155116400D02*
X137384405Y-154925923D01*
X137384405Y-154925923D02*
X137598690Y-153211638D01*
X139170119Y-155116400D02*
X138967738Y-155211638D01*
X138967738Y-155211638D02*
X138586785Y-155211638D01*
X138586785Y-155211638D02*
X138408214Y-155116400D01*
X138408214Y-155116400D02*
X138336785Y-154925923D01*
X138336785Y-154925923D02*
X138432024Y-154164019D01*
X138432024Y-154164019D02*
X138551071Y-153973542D01*
X138551071Y-153973542D02*
X138753452Y-153878304D01*
X138753452Y-153878304D02*
X139134404Y-153878304D01*
X139134404Y-153878304D02*
X139312976Y-153973542D01*
X139312976Y-153973542D02*
X139384404Y-154164019D01*
X139384404Y-154164019D02*
X139360595Y-154354495D01*
X139360595Y-154354495D02*
X138384404Y-154544971D01*
X140134405Y-155021161D02*
X140217738Y-155116400D01*
X140217738Y-155116400D02*
X140110595Y-155211638D01*
X140110595Y-155211638D02*
X140027262Y-155116400D01*
X140027262Y-155116400D02*
X140134405Y-155021161D01*
X140134405Y-155021161D02*
X140110595Y-155211638D01*
X140265357Y-153973542D02*
X140348690Y-154068780D01*
X140348690Y-154068780D02*
X140241548Y-154164019D01*
X140241548Y-154164019D02*
X140158214Y-154068780D01*
X140158214Y-154068780D02*
X140265357Y-153973542D01*
X140265357Y-153973542D02*
X140241548Y-154164019D01*
D10*
D11*
X133958026Y-150607614D02*
X133458026Y-150607614D01*
X133458026Y-151393328D02*
X133458026Y-149893328D01*
X133458026Y-149893328D02*
X134172312Y-149893328D01*
X134743740Y-151393328D02*
X134743740Y-150393328D01*
X134743740Y-149893328D02*
X134672312Y-149964757D01*
X134672312Y-149964757D02*
X134743740Y-150036185D01*
X134743740Y-150036185D02*
X134815169Y-149964757D01*
X134815169Y-149964757D02*
X134743740Y-149893328D01*
X134743740Y-149893328D02*
X134743740Y-150036185D01*
X135672312Y-151393328D02*
X135529455Y-151321900D01*
X135529455Y-151321900D02*
X135458026Y-151179042D01*
X135458026Y-151179042D02*
X135458026Y-149893328D01*
X136815169Y-151321900D02*
X136672312Y-151393328D01*
X136672312Y-151393328D02*
X136386598Y-151393328D01*
X136386598Y-151393328D02*
X136243740Y-151321900D01*
X136243740Y-151321900D02*
X136172312Y-151179042D01*
X136172312Y-151179042D02*
X136172312Y-150607614D01*
X136172312Y-150607614D02*
X136243740Y-150464757D01*
X136243740Y-150464757D02*
X136386598Y-150393328D01*
X136386598Y-150393328D02*
X136672312Y-150393328D01*
X136672312Y-150393328D02*
X136815169Y-150464757D01*
X136815169Y-150464757D02*
X136886598Y-150607614D01*
X136886598Y-150607614D02*
X136886598Y-150750471D01*
X136886598Y-150750471D02*
X136172312Y-150893328D01*
X137529454Y-151250471D02*
X137600883Y-151321900D01*
X137600883Y-151321900D02*
X137529454Y-151393328D01*
X137529454Y-151393328D02*
X137458026Y-151321900D01*
X137458026Y-151321900D02*
X137529454Y-151250471D01*
X137529454Y-151250471D02*
X137529454Y-151393328D01*
X137529454Y-150464757D02*
X137600883Y-150536185D01*
X137600883Y-150536185D02*
X137529454Y-150607614D01*
X137529454Y-150607614D02*
X137458026Y-150536185D01*
X137458026Y-150536185D02*
X137529454Y-150464757D01*
X137529454Y-150464757D02*
X137529454Y-150607614D01*
X140029455Y-150393328D02*
X140029455Y-151393328D01*
X139386597Y-150393328D02*
X139386597Y-151179042D01*
X139386597Y-151179042D02*
X139458026Y-151321900D01*
X139458026Y-151321900D02*
X139600883Y-151393328D01*
X139600883Y-151393328D02*
X139815169Y-151393328D01*
X139815169Y-151393328D02*
X139958026Y-151321900D01*
X139958026Y-151321900D02*
X140029455Y-151250471D01*
X141529455Y-151393328D02*
X140672312Y-151393328D01*
X141100883Y-151393328D02*
X141100883Y-149893328D01*
X141100883Y-149893328D02*
X140958026Y-150107614D01*
X140958026Y-150107614D02*
X140815169Y-150250471D01*
X140815169Y-150250471D02*
X140672312Y-150321900D01*
X142172311Y-151250471D02*
X142243740Y-151321900D01*
X142243740Y-151321900D02*
X142172311Y-151393328D01*
X142172311Y-151393328D02*
X142100883Y-151321900D01*
X142100883Y-151321900D02*
X142172311Y-151250471D01*
X142172311Y-151250471D02*
X142172311Y-151393328D01*
X142886597Y-151393328D02*
X142886597Y-149893328D01*
X143029455Y-150821900D02*
X143458026Y-151393328D01*
X143458026Y-150393328D02*
X142886597Y-150964757D01*
X144100883Y-151393328D02*
X144100883Y-150393328D01*
X144100883Y-149893328D02*
X144029455Y-149964757D01*
X144029455Y-149964757D02*
X144100883Y-150036185D01*
X144100883Y-150036185D02*
X144172312Y-149964757D01*
X144172312Y-149964757D02*
X144100883Y-149893328D01*
X144100883Y-149893328D02*
X144100883Y-150036185D01*
X145458027Y-151321900D02*
X145315169Y-151393328D01*
X145315169Y-151393328D02*
X145029455Y-151393328D01*
X145029455Y-151393328D02*
X144886598Y-151321900D01*
X144886598Y-151321900D02*
X144815169Y-151250471D01*
X144815169Y-151250471D02*
X144743741Y-151107614D01*
X144743741Y-151107614D02*
X144743741Y-150679042D01*
X144743741Y-150679042D02*
X144815169Y-150536185D01*
X144815169Y-150536185D02*
X144886598Y-150464757D01*
X144886598Y-150464757D02*
X145029455Y-150393328D01*
X145029455Y-150393328D02*
X145315169Y-150393328D01*
X145315169Y-150393328D02*
X145458027Y-150464757D01*
X146743741Y-151393328D02*
X146743741Y-150607614D01*
X146743741Y-150607614D02*
X146672312Y-150464757D01*
X146672312Y-150464757D02*
X146529455Y-150393328D01*
X146529455Y-150393328D02*
X146243741Y-150393328D01*
X146243741Y-150393328D02*
X146100883Y-150464757D01*
X146743741Y-151321900D02*
X146600883Y-151393328D01*
X146600883Y-151393328D02*
X146243741Y-151393328D01*
X146243741Y-151393328D02*
X146100883Y-151321900D01*
X146100883Y-151321900D02*
X146029455Y-151179042D01*
X146029455Y-151179042D02*
X146029455Y-151036185D01*
X146029455Y-151036185D02*
X146100883Y-150893328D01*
X146100883Y-150893328D02*
X146243741Y-150821900D01*
X146243741Y-150821900D02*
X146600883Y-150821900D01*
X146600883Y-150821900D02*
X146743741Y-150750471D01*
X148100884Y-151393328D02*
X148100884Y-149893328D01*
X148100884Y-151321900D02*
X147958026Y-151393328D01*
X147958026Y-151393328D02*
X147672312Y-151393328D01*
X147672312Y-151393328D02*
X147529455Y-151321900D01*
X147529455Y-151321900D02*
X147458026Y-151250471D01*
X147458026Y-151250471D02*
X147386598Y-151107614D01*
X147386598Y-151107614D02*
X147386598Y-150679042D01*
X147386598Y-150679042D02*
X147458026Y-150536185D01*
X147458026Y-150536185D02*
X147529455Y-150464757D01*
X147529455Y-150464757D02*
X147672312Y-150393328D01*
X147672312Y-150393328D02*
X147958026Y-150393328D01*
X147958026Y-150393328D02*
X148100884Y-150464757D01*
X148458027Y-151536185D02*
X149600884Y-151536185D01*
X149958026Y-150393328D02*
X149958026Y-151893328D01*
X149958026Y-150464757D02*
X150100884Y-150393328D01*
X150100884Y-150393328D02*
X150386598Y-150393328D01*
X150386598Y-150393328D02*
X150529455Y-150464757D01*
X150529455Y-150464757D02*
X150600884Y-150536185D01*
X150600884Y-150536185D02*
X150672312Y-150679042D01*
X150672312Y-150679042D02*
X150672312Y-151107614D01*
X150672312Y-151107614D02*
X150600884Y-151250471D01*
X150600884Y-151250471D02*
X150529455Y-151321900D01*
X150529455Y-151321900D02*
X150386598Y-151393328D01*
X150386598Y-151393328D02*
X150100884Y-151393328D01*
X150100884Y-151393328D02*
X149958026Y-151321900D01*
X151958027Y-151321900D02*
X151815169Y-151393328D01*
X151815169Y-151393328D02*
X151529455Y-151393328D01*
X151529455Y-151393328D02*
X151386598Y-151321900D01*
X151386598Y-151321900D02*
X151315169Y-151250471D01*
X151315169Y-151250471D02*
X151243741Y-151107614D01*
X151243741Y-151107614D02*
X151243741Y-150679042D01*
X151243741Y-150679042D02*
X151315169Y-150536185D01*
X151315169Y-150536185D02*
X151386598Y-150464757D01*
X151386598Y-150464757D02*
X151529455Y-150393328D01*
X151529455Y-150393328D02*
X151815169Y-150393328D01*
X151815169Y-150393328D02*
X151958027Y-150464757D01*
X152600883Y-151393328D02*
X152600883Y-149893328D01*
X152600883Y-150464757D02*
X152743741Y-150393328D01*
X152743741Y-150393328D02*
X153029455Y-150393328D01*
X153029455Y-150393328D02*
X153172312Y-150464757D01*
X153172312Y-150464757D02*
X153243741Y-150536185D01*
X153243741Y-150536185D02*
X153315169Y-150679042D01*
X153315169Y-150679042D02*
X153315169Y-151107614D01*
X153315169Y-151107614D02*
X153243741Y-151250471D01*
X153243741Y-151250471D02*
X153172312Y-151321900D01*
X153172312Y-151321900D02*
X153029455Y-151393328D01*
X153029455Y-151393328D02*
X152743741Y-151393328D01*
X152743741Y-151393328D02*
X152600883Y-151321900D01*
D10*
D11*
X132002200Y-146507200D02*
X240002200Y-146507200D01*
D10*
D11*
X133386598Y-148621900D02*
X133600884Y-148693328D01*
X133600884Y-148693328D02*
X133958026Y-148693328D01*
X133958026Y-148693328D02*
X134100884Y-148621900D01*
X134100884Y-148621900D02*
X134172312Y-148550471D01*
X134172312Y-148550471D02*
X134243741Y-148407614D01*
X134243741Y-148407614D02*
X134243741Y-148264757D01*
X134243741Y-148264757D02*
X134172312Y-148121900D01*
X134172312Y-148121900D02*
X134100884Y-148050471D01*
X134100884Y-148050471D02*
X133958026Y-147979042D01*
X133958026Y-147979042D02*
X133672312Y-147907614D01*
X133672312Y-147907614D02*
X133529455Y-147836185D01*
X133529455Y-147836185D02*
X133458026Y-147764757D01*
X133458026Y-147764757D02*
X133386598Y-147621900D01*
X133386598Y-147621900D02*
X133386598Y-147479042D01*
X133386598Y-147479042D02*
X133458026Y-147336185D01*
X133458026Y-147336185D02*
X133529455Y-147264757D01*
X133529455Y-147264757D02*
X133672312Y-147193328D01*
X133672312Y-147193328D02*
X134029455Y-147193328D01*
X134029455Y-147193328D02*
X134243741Y-147264757D01*
X134886597Y-148693328D02*
X134886597Y-147193328D01*
X135529455Y-148693328D02*
X135529455Y-147907614D01*
X135529455Y-147907614D02*
X135458026Y-147764757D01*
X135458026Y-147764757D02*
X135315169Y-147693328D01*
X135315169Y-147693328D02*
X135100883Y-147693328D01*
X135100883Y-147693328D02*
X134958026Y-147764757D01*
X134958026Y-147764757D02*
X134886597Y-147836185D01*
X136815169Y-148621900D02*
X136672312Y-148693328D01*
X136672312Y-148693328D02*
X136386598Y-148693328D01*
X136386598Y-148693328D02*
X136243740Y-148621900D01*
X136243740Y-148621900D02*
X136172312Y-148479042D01*
X136172312Y-148479042D02*
X136172312Y-147907614D01*
X136172312Y-147907614D02*
X136243740Y-147764757D01*
X136243740Y-147764757D02*
X136386598Y-147693328D01*
X136386598Y-147693328D02*
X136672312Y-147693328D01*
X136672312Y-147693328D02*
X136815169Y-147764757D01*
X136815169Y-147764757D02*
X136886598Y-147907614D01*
X136886598Y-147907614D02*
X136886598Y-148050471D01*
X136886598Y-148050471D02*
X136172312Y-148193328D01*
X138100883Y-148621900D02*
X137958026Y-148693328D01*
X137958026Y-148693328D02*
X137672312Y-148693328D01*
X137672312Y-148693328D02*
X137529454Y-148621900D01*
X137529454Y-148621900D02*
X137458026Y-148479042D01*
X137458026Y-148479042D02*
X137458026Y-147907614D01*
X137458026Y-147907614D02*
X137529454Y-147764757D01*
X137529454Y-147764757D02*
X137672312Y-147693328D01*
X137672312Y-147693328D02*
X137958026Y-147693328D01*
X137958026Y-147693328D02*
X138100883Y-147764757D01*
X138100883Y-147764757D02*
X138172312Y-147907614D01*
X138172312Y-147907614D02*
X138172312Y-148050471D01*
X138172312Y-148050471D02*
X137458026Y-148193328D01*
X138600883Y-147693328D02*
X139172311Y-147693328D01*
X138815168Y-147193328D02*
X138815168Y-148479042D01*
X138815168Y-148479042D02*
X138886597Y-148621900D01*
X138886597Y-148621900D02*
X139029454Y-148693328D01*
X139029454Y-148693328D02*
X139172311Y-148693328D01*
X139672311Y-148550471D02*
X139743740Y-148621900D01*
X139743740Y-148621900D02*
X139672311Y-148693328D01*
X139672311Y-148693328D02*
X139600883Y-148621900D01*
X139600883Y-148621900D02*
X139672311Y-148550471D01*
X139672311Y-148550471D02*
X139672311Y-148693328D01*
X139672311Y-147764757D02*
X139743740Y-147836185D01*
X139743740Y-147836185D02*
X139672311Y-147907614D01*
X139672311Y-147907614D02*
X139600883Y-147836185D01*
X139600883Y-147836185D02*
X139672311Y-147764757D01*
X139672311Y-147764757D02*
X139672311Y-147907614D01*
D10*
D11*
X152002200Y-156507200D02*
X152002200Y-159507200D01*
D10*
D11*
X216002200Y-156507200D02*
X216002200Y-163007200D01*
D14*
%TO.C,REF\u002A\u002A*%
X2000000Y-2000000D03*
%TD*%
%TO.C,REF\u002A\u002A*%
X16000000Y-2000000D03*
%TD*%
%TO.C,REF\u002A\u002A*%
X2000000Y-14500000D03*
%TD*%
%TO.C,REF\u002A\u002A*%
X16000000Y-14500000D03*
%TD*%
D15*
%TO.C,J1*%
X11890000Y-5050000D03*
X6110000Y-5050000D03*
D16*
X12250000Y-6495000D03*
X11450000Y-6495000D03*
D17*
X10250000Y-6495000D03*
X9250000Y-6495000D03*
X8750000Y-6495000D03*
X7750000Y-6495000D03*
D16*
X6550000Y-6495000D03*
X5750000Y-6495000D03*
X5750000Y-6495000D03*
X6550000Y-6495000D03*
D17*
X7250000Y-6495000D03*
X8250000Y-6495000D03*
X9750000Y-6495000D03*
X10750000Y-6495000D03*
D16*
X11450000Y-6495000D03*
X12250000Y-6495000D03*
D18*
X13320000Y-5580000D03*
D19*
X13320000Y-1400000D03*
D18*
X4680000Y-5580000D03*
D19*
X4680000Y-1400000D03*
%TD*%
D20*
%TO.C,R1*%
X15900000Y-10425000D03*
X15900000Y-8775000D03*
%TD*%
D21*
%TO.C,R2*%
X14500000Y-8775000D03*
X14500000Y-10425000D03*
%TD*%
D22*
%TO.C,U1*%
X3137500Y-8750000D03*
D23*
X2600000Y-8675000D03*
D22*
X2062500Y-8750000D03*
X2062500Y-10450000D03*
D23*
X2600000Y-10525000D03*
D22*
X3137500Y-10450000D03*
%TD*%
D24*
%TO.C,J2*%
X12900000Y-13875000D03*
X5100000Y-13875000D03*
D25*
X10500000Y-11350000D03*
X9500000Y-11350000D03*
X8500000Y-11350000D03*
X7500000Y-11350000D03*
%TD*%
D26*
X16000000Y0D02*
X2000000Y0D01*
X0Y-2000000D02*
G75*
G02*
X2000000Y0I2000000J0D01*
G01*
X18000000Y-14500000D02*
G75*
G02*
X16000000Y-16500000I-2000000J0D01*
G01*
X18000000Y-14500000D02*
X18000000Y-2000000D01*
X2000000Y-16500000D02*
G75*
G02*
X0Y-14500000I0J2000000D01*
G01*
X2000000Y-16500000D02*
X16000000Y-16500000D01*
X0Y-2000000D02*
X0Y-14500000D01*
X16000000Y0D02*
G75*
G02*
X18000000Y-2000000I0J-2000000D01*
G01*
M02*
