%TF.GenerationSoftware,KiCad,Pcbnew,8.0.5*%
%TF.CreationDate,2024-11-25T09:27:33+08:00*%
%TF.ProjectId,u1,75312e6b-6963-4616-945f-706362585858,rev?*%
%TF.SameCoordinates,PX2aea540PY2160ec0*%
%TF.FileFunction,Copper,L1,Top*%
%TF.FilePolarity,Positive*%
%FSLAX46Y46*%
G04 Gerber Fmt 4.6, Leading zero omitted, Abs format (unit mm)*
G04 Created by KiCad (PCBNEW 8.0.5) date 2024-11-25 09:27:33*
%MOMM*%
%LPD*%
G01*
G04 APERTURE LIST*
G04 Aperture macros list*
%AMRoundRect*
0 Rectangle with rounded corners*
0 $1 Rounding radius*
0 $2 $3 $4 $5 $6 $7 $8 $9 X,Y pos of 4 corners*
0 Add a 4 corners polygon primitive as box body*
4,1,4,$2,$3,$4,$5,$6,$7,$8,$9,$2,$3,0*
0 Add four circle primitives for the rounded corners*
1,1,$1+$1,$2,$3*
1,1,$1+$1,$4,$5*
1,1,$1+$1,$6,$7*
1,1,$1+$1,$8,$9*
0 Add four rect primitives between the rounded corners*
20,1,$1+$1,$2,$3,$4,$5,0*
20,1,$1+$1,$4,$5,$6,$7,0*
20,1,$1+$1,$6,$7,$8,$9,0*
20,1,$1+$1,$8,$9,$2,$3,0*%
G04 Aperture macros list end*
%ADD10C,0.100000*%
%ADD11C,0.150000*%
%ADD12C,0.300000*%
%ADD13C,0.400000*%
%TA.AperFunction,ComponentPad*%
%ADD14C,3.500000*%
%TD*%
%TA.AperFunction,SMDPad,CuDef*%
%ADD15R,0.600000X1.450000*%
%TD*%
%TA.AperFunction,SMDPad,CuDef*%
%ADD16R,0.300000X1.450000*%
%TD*%
%TA.AperFunction,ComponentPad*%
%ADD17O,1.200000X2.300000*%
%TD*%
%TA.AperFunction,ComponentPad*%
%ADD18O,1.100000X1.800000*%
%TD*%
%TA.AperFunction,SMDPad,CuDef*%
%ADD19RoundRect,0.200000X0.275000X-0.200000X0.275000X0.200000X-0.275000X0.200000X-0.275000X-0.200000X0*%
%TD*%
%TA.AperFunction,SMDPad,CuDef*%
%ADD20RoundRect,0.200000X-0.275000X0.200000X-0.275000X-0.200000X0.275000X-0.200000X0.275000X0.200000X0*%
%TD*%
%TA.AperFunction,SMDPad,CuDef*%
%ADD21R,0.375000X0.500000*%
%TD*%
%TA.AperFunction,SMDPad,CuDef*%
%ADD22R,0.300000X0.650000*%
%TD*%
%TA.AperFunction,SMDPad,CuDef*%
%ADD23R,2.000000X2.500000*%
%TD*%
%TA.AperFunction,SMDPad,CuDef*%
%ADD24R,0.500000X1.400000*%
%TD*%
%TA.AperFunction,ViaPad*%
%ADD25C,0.700000*%
%TD*%
%TA.AperFunction,Conductor*%
%ADD26C,0.250000*%
%TD*%
%TA.AperFunction,Conductor*%
%ADD27C,0.400000*%
%TD*%
%TA.AperFunction,Conductor*%
%ADD28C,0.200000*%
%TD*%
%TA.AperFunction,Conductor*%
%ADD29C,0.300000*%
%TD*%
%TA.AperFunction,Profile*%
%ADD30C,0.050000*%
%TD*%
G04 APERTURE END LIST*
D10*
D11*
X132002200Y-131007200D02*
X240002200Y-131007200D01*
X240002200Y-163007200D01*
X132002200Y-163007200D01*
X132002200Y-131007200D01*
D10*
D11*
X-35000000Y25000000D02*
X242002200Y25000000D01*
X242002200Y-165007200D01*
X-35000000Y-165007200D01*
X-35000000Y25000000D01*
D10*
D11*
X-33000000Y23000000D02*
X240002200Y23000000D01*
X240002200Y-163007200D01*
X-33000000Y-163007200D01*
X-33000000Y23000000D01*
D10*
D11*
X15000000Y23000000D02*
X15000000Y25000000D01*
D10*
D11*
X65000000Y23000000D02*
X65000000Y25000000D01*
D10*
D11*
X115000000Y23000000D02*
X115000000Y25000000D01*
D10*
D11*
X165000000Y23000000D02*
X165000000Y25000000D01*
D10*
D11*
X215000000Y23000000D02*
X215000000Y25000000D01*
D10*
D11*
X-8910840Y23406396D02*
X-9653697Y23406396D01*
X-9282269Y23406396D02*
X-9282269Y24706396D01*
X-9282269Y24706396D02*
X-9406078Y24520681D01*
X-9406078Y24520681D02*
X-9529888Y24396872D01*
X-9529888Y24396872D02*
X-9653697Y24334967D01*
D10*
D11*
X40346303Y24582586D02*
X40408207Y24644491D01*
X40408207Y24644491D02*
X40532017Y24706396D01*
X40532017Y24706396D02*
X40841541Y24706396D01*
X40841541Y24706396D02*
X40965350Y24644491D01*
X40965350Y24644491D02*
X41027255Y24582586D01*
X41027255Y24582586D02*
X41089160Y24458777D01*
X41089160Y24458777D02*
X41089160Y24334967D01*
X41089160Y24334967D02*
X41027255Y24149253D01*
X41027255Y24149253D02*
X40284398Y23406396D01*
X40284398Y23406396D02*
X41089160Y23406396D01*
D10*
D11*
X90284398Y24706396D02*
X91089160Y24706396D01*
X91089160Y24706396D02*
X90655826Y24211158D01*
X90655826Y24211158D02*
X90841541Y24211158D01*
X90841541Y24211158D02*
X90965350Y24149253D01*
X90965350Y24149253D02*
X91027255Y24087348D01*
X91027255Y24087348D02*
X91089160Y23963539D01*
X91089160Y23963539D02*
X91089160Y23654015D01*
X91089160Y23654015D02*
X91027255Y23530205D01*
X91027255Y23530205D02*
X90965350Y23468300D01*
X90965350Y23468300D02*
X90841541Y23406396D01*
X90841541Y23406396D02*
X90470112Y23406396D01*
X90470112Y23406396D02*
X90346303Y23468300D01*
X90346303Y23468300D02*
X90284398Y23530205D01*
D10*
D11*
X140965350Y24273062D02*
X140965350Y23406396D01*
X140655826Y24768300D02*
X140346303Y23839729D01*
X140346303Y23839729D02*
X141151064Y23839729D01*
D10*
D11*
X191027255Y24706396D02*
X190408207Y24706396D01*
X190408207Y24706396D02*
X190346303Y24087348D01*
X190346303Y24087348D02*
X190408207Y24149253D01*
X190408207Y24149253D02*
X190532017Y24211158D01*
X190532017Y24211158D02*
X190841541Y24211158D01*
X190841541Y24211158D02*
X190965350Y24149253D01*
X190965350Y24149253D02*
X191027255Y24087348D01*
X191027255Y24087348D02*
X191089160Y23963539D01*
X191089160Y23963539D02*
X191089160Y23654015D01*
X191089160Y23654015D02*
X191027255Y23530205D01*
X191027255Y23530205D02*
X190965350Y23468300D01*
X190965350Y23468300D02*
X190841541Y23406396D01*
X190841541Y23406396D02*
X190532017Y23406396D01*
X190532017Y23406396D02*
X190408207Y23468300D01*
X190408207Y23468300D02*
X190346303Y23530205D01*
D10*
D11*
X240965350Y24706396D02*
X240717731Y24706396D01*
X240717731Y24706396D02*
X240593922Y24644491D01*
X240593922Y24644491D02*
X240532017Y24582586D01*
X240532017Y24582586D02*
X240408207Y24396872D01*
X240408207Y24396872D02*
X240346303Y24149253D01*
X240346303Y24149253D02*
X240346303Y23654015D01*
X240346303Y23654015D02*
X240408207Y23530205D01*
X240408207Y23530205D02*
X240470112Y23468300D01*
X240470112Y23468300D02*
X240593922Y23406396D01*
X240593922Y23406396D02*
X240841541Y23406396D01*
X240841541Y23406396D02*
X240965350Y23468300D01*
X240965350Y23468300D02*
X241027255Y23530205D01*
X241027255Y23530205D02*
X241089160Y23654015D01*
X241089160Y23654015D02*
X241089160Y23963539D01*
X241089160Y23963539D02*
X241027255Y24087348D01*
X241027255Y24087348D02*
X240965350Y24149253D01*
X240965350Y24149253D02*
X240841541Y24211158D01*
X240841541Y24211158D02*
X240593922Y24211158D01*
X240593922Y24211158D02*
X240470112Y24149253D01*
X240470112Y24149253D02*
X240408207Y24087348D01*
X240408207Y24087348D02*
X240346303Y23963539D01*
D10*
D11*
X15000000Y-163007200D02*
X15000000Y-165007200D01*
D10*
D11*
X65000000Y-163007200D02*
X65000000Y-165007200D01*
D10*
D11*
X115000000Y-163007200D02*
X115000000Y-165007200D01*
D10*
D11*
X165000000Y-163007200D02*
X165000000Y-165007200D01*
D10*
D11*
X215000000Y-163007200D02*
X215000000Y-165007200D01*
D10*
D11*
X-8910840Y-164600804D02*
X-9653697Y-164600804D01*
X-9282269Y-164600804D02*
X-9282269Y-163300804D01*
X-9282269Y-163300804D02*
X-9406078Y-163486519D01*
X-9406078Y-163486519D02*
X-9529888Y-163610328D01*
X-9529888Y-163610328D02*
X-9653697Y-163672233D01*
D10*
D11*
X40346303Y-163424614D02*
X40408207Y-163362709D01*
X40408207Y-163362709D02*
X40532017Y-163300804D01*
X40532017Y-163300804D02*
X40841541Y-163300804D01*
X40841541Y-163300804D02*
X40965350Y-163362709D01*
X40965350Y-163362709D02*
X41027255Y-163424614D01*
X41027255Y-163424614D02*
X41089160Y-163548423D01*
X41089160Y-163548423D02*
X41089160Y-163672233D01*
X41089160Y-163672233D02*
X41027255Y-163857947D01*
X41027255Y-163857947D02*
X40284398Y-164600804D01*
X40284398Y-164600804D02*
X41089160Y-164600804D01*
D10*
D11*
X90284398Y-163300804D02*
X91089160Y-163300804D01*
X91089160Y-163300804D02*
X90655826Y-163796042D01*
X90655826Y-163796042D02*
X90841541Y-163796042D01*
X90841541Y-163796042D02*
X90965350Y-163857947D01*
X90965350Y-163857947D02*
X91027255Y-163919852D01*
X91027255Y-163919852D02*
X91089160Y-164043661D01*
X91089160Y-164043661D02*
X91089160Y-164353185D01*
X91089160Y-164353185D02*
X91027255Y-164476995D01*
X91027255Y-164476995D02*
X90965350Y-164538900D01*
X90965350Y-164538900D02*
X90841541Y-164600804D01*
X90841541Y-164600804D02*
X90470112Y-164600804D01*
X90470112Y-164600804D02*
X90346303Y-164538900D01*
X90346303Y-164538900D02*
X90284398Y-164476995D01*
D10*
D11*
X140965350Y-163734138D02*
X140965350Y-164600804D01*
X140655826Y-163238900D02*
X140346303Y-164167471D01*
X140346303Y-164167471D02*
X141151064Y-164167471D01*
D10*
D11*
X191027255Y-163300804D02*
X190408207Y-163300804D01*
X190408207Y-163300804D02*
X190346303Y-163919852D01*
X190346303Y-163919852D02*
X190408207Y-163857947D01*
X190408207Y-163857947D02*
X190532017Y-163796042D01*
X190532017Y-163796042D02*
X190841541Y-163796042D01*
X190841541Y-163796042D02*
X190965350Y-163857947D01*
X190965350Y-163857947D02*
X191027255Y-163919852D01*
X191027255Y-163919852D02*
X191089160Y-164043661D01*
X191089160Y-164043661D02*
X191089160Y-164353185D01*
X191089160Y-164353185D02*
X191027255Y-164476995D01*
X191027255Y-164476995D02*
X190965350Y-164538900D01*
X190965350Y-164538900D02*
X190841541Y-164600804D01*
X190841541Y-164600804D02*
X190532017Y-164600804D01*
X190532017Y-164600804D02*
X190408207Y-164538900D01*
X190408207Y-164538900D02*
X190346303Y-164476995D01*
D10*
D11*
X240965350Y-163300804D02*
X240717731Y-163300804D01*
X240717731Y-163300804D02*
X240593922Y-163362709D01*
X240593922Y-163362709D02*
X240532017Y-163424614D01*
X240532017Y-163424614D02*
X240408207Y-163610328D01*
X240408207Y-163610328D02*
X240346303Y-163857947D01*
X240346303Y-163857947D02*
X240346303Y-164353185D01*
X240346303Y-164353185D02*
X240408207Y-164476995D01*
X240408207Y-164476995D02*
X240470112Y-164538900D01*
X240470112Y-164538900D02*
X240593922Y-164600804D01*
X240593922Y-164600804D02*
X240841541Y-164600804D01*
X240841541Y-164600804D02*
X240965350Y-164538900D01*
X240965350Y-164538900D02*
X241027255Y-164476995D01*
X241027255Y-164476995D02*
X241089160Y-164353185D01*
X241089160Y-164353185D02*
X241089160Y-164043661D01*
X241089160Y-164043661D02*
X241027255Y-163919852D01*
X241027255Y-163919852D02*
X240965350Y-163857947D01*
X240965350Y-163857947D02*
X240841541Y-163796042D01*
X240841541Y-163796042D02*
X240593922Y-163796042D01*
X240593922Y-163796042D02*
X240470112Y-163857947D01*
X240470112Y-163857947D02*
X240408207Y-163919852D01*
X240408207Y-163919852D02*
X240346303Y-164043661D01*
D10*
D11*
X-35000000Y-25000000D02*
X-33000000Y-25000000D01*
D10*
D11*
X-35000000Y-75000000D02*
X-33000000Y-75000000D01*
D10*
D11*
X-35000000Y-125000000D02*
X-33000000Y-125000000D01*
D10*
D11*
X-34309524Y-222176D02*
X-33690477Y-222176D01*
X-34433334Y-593604D02*
X-34000001Y706396D01*
X-34000001Y706396D02*
X-33566667Y-593604D01*
D10*
D11*
X-33907143Y-49912652D02*
X-33721429Y-49974557D01*
X-33721429Y-49974557D02*
X-33659524Y-50036461D01*
X-33659524Y-50036461D02*
X-33597620Y-50160271D01*
X-33597620Y-50160271D02*
X-33597620Y-50345985D01*
X-33597620Y-50345985D02*
X-33659524Y-50469795D01*
X-33659524Y-50469795D02*
X-33721429Y-50531700D01*
X-33721429Y-50531700D02*
X-33845239Y-50593604D01*
X-33845239Y-50593604D02*
X-34340477Y-50593604D01*
X-34340477Y-50593604D02*
X-34340477Y-49293604D01*
X-34340477Y-49293604D02*
X-33907143Y-49293604D01*
X-33907143Y-49293604D02*
X-33783334Y-49355509D01*
X-33783334Y-49355509D02*
X-33721429Y-49417414D01*
X-33721429Y-49417414D02*
X-33659524Y-49541223D01*
X-33659524Y-49541223D02*
X-33659524Y-49665033D01*
X-33659524Y-49665033D02*
X-33721429Y-49788842D01*
X-33721429Y-49788842D02*
X-33783334Y-49850747D01*
X-33783334Y-49850747D02*
X-33907143Y-49912652D01*
X-33907143Y-49912652D02*
X-34340477Y-49912652D01*
D10*
D11*
X-33597620Y-100469795D02*
X-33659524Y-100531700D01*
X-33659524Y-100531700D02*
X-33845239Y-100593604D01*
X-33845239Y-100593604D02*
X-33969048Y-100593604D01*
X-33969048Y-100593604D02*
X-34154762Y-100531700D01*
X-34154762Y-100531700D02*
X-34278572Y-100407890D01*
X-34278572Y-100407890D02*
X-34340477Y-100284080D01*
X-34340477Y-100284080D02*
X-34402381Y-100036461D01*
X-34402381Y-100036461D02*
X-34402381Y-99850747D01*
X-34402381Y-99850747D02*
X-34340477Y-99603128D01*
X-34340477Y-99603128D02*
X-34278572Y-99479319D01*
X-34278572Y-99479319D02*
X-34154762Y-99355509D01*
X-34154762Y-99355509D02*
X-33969048Y-99293604D01*
X-33969048Y-99293604D02*
X-33845239Y-99293604D01*
X-33845239Y-99293604D02*
X-33659524Y-99355509D01*
X-33659524Y-99355509D02*
X-33597620Y-99417414D01*
D10*
D11*
X-34340477Y-150593604D02*
X-34340477Y-149293604D01*
X-34340477Y-149293604D02*
X-34030953Y-149293604D01*
X-34030953Y-149293604D02*
X-33845239Y-149355509D01*
X-33845239Y-149355509D02*
X-33721429Y-149479319D01*
X-33721429Y-149479319D02*
X-33659524Y-149603128D01*
X-33659524Y-149603128D02*
X-33597620Y-149850747D01*
X-33597620Y-149850747D02*
X-33597620Y-150036461D01*
X-33597620Y-150036461D02*
X-33659524Y-150284080D01*
X-33659524Y-150284080D02*
X-33721429Y-150407890D01*
X-33721429Y-150407890D02*
X-33845239Y-150531700D01*
X-33845239Y-150531700D02*
X-34030953Y-150593604D01*
X-34030953Y-150593604D02*
X-34340477Y-150593604D01*
D10*
D11*
X242002200Y-25000000D02*
X240002200Y-25000000D01*
D10*
D11*
X242002200Y-75000000D02*
X240002200Y-75000000D01*
D10*
D11*
X242002200Y-125000000D02*
X240002200Y-125000000D01*
D10*
D11*
X240692676Y-222176D02*
X241311723Y-222176D01*
X240568866Y-593604D02*
X241002199Y706396D01*
X241002199Y706396D02*
X241435533Y-593604D01*
D10*
D11*
X241095057Y-49912652D02*
X241280771Y-49974557D01*
X241280771Y-49974557D02*
X241342676Y-50036461D01*
X241342676Y-50036461D02*
X241404580Y-50160271D01*
X241404580Y-50160271D02*
X241404580Y-50345985D01*
X241404580Y-50345985D02*
X241342676Y-50469795D01*
X241342676Y-50469795D02*
X241280771Y-50531700D01*
X241280771Y-50531700D02*
X241156961Y-50593604D01*
X241156961Y-50593604D02*
X240661723Y-50593604D01*
X240661723Y-50593604D02*
X240661723Y-49293604D01*
X240661723Y-49293604D02*
X241095057Y-49293604D01*
X241095057Y-49293604D02*
X241218866Y-49355509D01*
X241218866Y-49355509D02*
X241280771Y-49417414D01*
X241280771Y-49417414D02*
X241342676Y-49541223D01*
X241342676Y-49541223D02*
X241342676Y-49665033D01*
X241342676Y-49665033D02*
X241280771Y-49788842D01*
X241280771Y-49788842D02*
X241218866Y-49850747D01*
X241218866Y-49850747D02*
X241095057Y-49912652D01*
X241095057Y-49912652D02*
X240661723Y-49912652D01*
D10*
D11*
X241404580Y-100469795D02*
X241342676Y-100531700D01*
X241342676Y-100531700D02*
X241156961Y-100593604D01*
X241156961Y-100593604D02*
X241033152Y-100593604D01*
X241033152Y-100593604D02*
X240847438Y-100531700D01*
X240847438Y-100531700D02*
X240723628Y-100407890D01*
X240723628Y-100407890D02*
X240661723Y-100284080D01*
X240661723Y-100284080D02*
X240599819Y-100036461D01*
X240599819Y-100036461D02*
X240599819Y-99850747D01*
X240599819Y-99850747D02*
X240661723Y-99603128D01*
X240661723Y-99603128D02*
X240723628Y-99479319D01*
X240723628Y-99479319D02*
X240847438Y-99355509D01*
X240847438Y-99355509D02*
X241033152Y-99293604D01*
X241033152Y-99293604D02*
X241156961Y-99293604D01*
X241156961Y-99293604D02*
X241342676Y-99355509D01*
X241342676Y-99355509D02*
X241404580Y-99417414D01*
D10*
D11*
X240661723Y-150593604D02*
X240661723Y-149293604D01*
X240661723Y-149293604D02*
X240971247Y-149293604D01*
X240971247Y-149293604D02*
X241156961Y-149355509D01*
X241156961Y-149355509D02*
X241280771Y-149479319D01*
X241280771Y-149479319D02*
X241342676Y-149603128D01*
X241342676Y-149603128D02*
X241404580Y-149850747D01*
X241404580Y-149850747D02*
X241404580Y-150036461D01*
X241404580Y-150036461D02*
X241342676Y-150284080D01*
X241342676Y-150284080D02*
X241280771Y-150407890D01*
X241280771Y-150407890D02*
X241156961Y-150531700D01*
X241156961Y-150531700D02*
X240971247Y-150593604D01*
X240971247Y-150593604D02*
X240661723Y-150593604D01*
D10*
D11*
X155458026Y-158793328D02*
X155458026Y-157293328D01*
X155458026Y-157293328D02*
X155815169Y-157293328D01*
X155815169Y-157293328D02*
X156029455Y-157364757D01*
X156029455Y-157364757D02*
X156172312Y-157507614D01*
X156172312Y-157507614D02*
X156243741Y-157650471D01*
X156243741Y-157650471D02*
X156315169Y-157936185D01*
X156315169Y-157936185D02*
X156315169Y-158150471D01*
X156315169Y-158150471D02*
X156243741Y-158436185D01*
X156243741Y-158436185D02*
X156172312Y-158579042D01*
X156172312Y-158579042D02*
X156029455Y-158721900D01*
X156029455Y-158721900D02*
X155815169Y-158793328D01*
X155815169Y-158793328D02*
X155458026Y-158793328D01*
X157600884Y-158793328D02*
X157600884Y-158007614D01*
X157600884Y-158007614D02*
X157529455Y-157864757D01*
X157529455Y-157864757D02*
X157386598Y-157793328D01*
X157386598Y-157793328D02*
X157100884Y-157793328D01*
X157100884Y-157793328D02*
X156958026Y-157864757D01*
X157600884Y-158721900D02*
X157458026Y-158793328D01*
X157458026Y-158793328D02*
X157100884Y-158793328D01*
X157100884Y-158793328D02*
X156958026Y-158721900D01*
X156958026Y-158721900D02*
X156886598Y-158579042D01*
X156886598Y-158579042D02*
X156886598Y-158436185D01*
X156886598Y-158436185D02*
X156958026Y-158293328D01*
X156958026Y-158293328D02*
X157100884Y-158221900D01*
X157100884Y-158221900D02*
X157458026Y-158221900D01*
X157458026Y-158221900D02*
X157600884Y-158150471D01*
X158100884Y-157793328D02*
X158672312Y-157793328D01*
X158315169Y-157293328D02*
X158315169Y-158579042D01*
X158315169Y-158579042D02*
X158386598Y-158721900D01*
X158386598Y-158721900D02*
X158529455Y-158793328D01*
X158529455Y-158793328D02*
X158672312Y-158793328D01*
X159743741Y-158721900D02*
X159600884Y-158793328D01*
X159600884Y-158793328D02*
X159315170Y-158793328D01*
X159315170Y-158793328D02*
X159172312Y-158721900D01*
X159172312Y-158721900D02*
X159100884Y-158579042D01*
X159100884Y-158579042D02*
X159100884Y-158007614D01*
X159100884Y-158007614D02*
X159172312Y-157864757D01*
X159172312Y-157864757D02*
X159315170Y-157793328D01*
X159315170Y-157793328D02*
X159600884Y-157793328D01*
X159600884Y-157793328D02*
X159743741Y-157864757D01*
X159743741Y-157864757D02*
X159815170Y-158007614D01*
X159815170Y-158007614D02*
X159815170Y-158150471D01*
X159815170Y-158150471D02*
X159100884Y-158293328D01*
X160458026Y-158650471D02*
X160529455Y-158721900D01*
X160529455Y-158721900D02*
X160458026Y-158793328D01*
X160458026Y-158793328D02*
X160386598Y-158721900D01*
X160386598Y-158721900D02*
X160458026Y-158650471D01*
X160458026Y-158650471D02*
X160458026Y-158793328D01*
X160458026Y-157864757D02*
X160529455Y-157936185D01*
X160529455Y-157936185D02*
X160458026Y-158007614D01*
X160458026Y-158007614D02*
X160386598Y-157936185D01*
X160386598Y-157936185D02*
X160458026Y-157864757D01*
X160458026Y-157864757D02*
X160458026Y-158007614D01*
D10*
D11*
X132002200Y-159507200D02*
X240002200Y-159507200D01*
D10*
D11*
X133458026Y-161593328D02*
X133458026Y-160093328D01*
X134315169Y-161593328D02*
X133672312Y-160736185D01*
X134315169Y-160093328D02*
X133458026Y-160950471D01*
X134958026Y-161593328D02*
X134958026Y-160593328D01*
X134958026Y-160093328D02*
X134886598Y-160164757D01*
X134886598Y-160164757D02*
X134958026Y-160236185D01*
X134958026Y-160236185D02*
X135029455Y-160164757D01*
X135029455Y-160164757D02*
X134958026Y-160093328D01*
X134958026Y-160093328D02*
X134958026Y-160236185D01*
X136529455Y-161450471D02*
X136458027Y-161521900D01*
X136458027Y-161521900D02*
X136243741Y-161593328D01*
X136243741Y-161593328D02*
X136100884Y-161593328D01*
X136100884Y-161593328D02*
X135886598Y-161521900D01*
X135886598Y-161521900D02*
X135743741Y-161379042D01*
X135743741Y-161379042D02*
X135672312Y-161236185D01*
X135672312Y-161236185D02*
X135600884Y-160950471D01*
X135600884Y-160950471D02*
X135600884Y-160736185D01*
X135600884Y-160736185D02*
X135672312Y-160450471D01*
X135672312Y-160450471D02*
X135743741Y-160307614D01*
X135743741Y-160307614D02*
X135886598Y-160164757D01*
X135886598Y-160164757D02*
X136100884Y-160093328D01*
X136100884Y-160093328D02*
X136243741Y-160093328D01*
X136243741Y-160093328D02*
X136458027Y-160164757D01*
X136458027Y-160164757D02*
X136529455Y-160236185D01*
X137815170Y-161593328D02*
X137815170Y-160807614D01*
X137815170Y-160807614D02*
X137743741Y-160664757D01*
X137743741Y-160664757D02*
X137600884Y-160593328D01*
X137600884Y-160593328D02*
X137315170Y-160593328D01*
X137315170Y-160593328D02*
X137172312Y-160664757D01*
X137815170Y-161521900D02*
X137672312Y-161593328D01*
X137672312Y-161593328D02*
X137315170Y-161593328D01*
X137315170Y-161593328D02*
X137172312Y-161521900D01*
X137172312Y-161521900D02*
X137100884Y-161379042D01*
X137100884Y-161379042D02*
X137100884Y-161236185D01*
X137100884Y-161236185D02*
X137172312Y-161093328D01*
X137172312Y-161093328D02*
X137315170Y-161021900D01*
X137315170Y-161021900D02*
X137672312Y-161021900D01*
X137672312Y-161021900D02*
X137815170Y-160950471D01*
X139172313Y-161593328D02*
X139172313Y-160093328D01*
X139172313Y-161521900D02*
X139029455Y-161593328D01*
X139029455Y-161593328D02*
X138743741Y-161593328D01*
X138743741Y-161593328D02*
X138600884Y-161521900D01*
X138600884Y-161521900D02*
X138529455Y-161450471D01*
X138529455Y-161450471D02*
X138458027Y-161307614D01*
X138458027Y-161307614D02*
X138458027Y-160879042D01*
X138458027Y-160879042D02*
X138529455Y-160736185D01*
X138529455Y-160736185D02*
X138600884Y-160664757D01*
X138600884Y-160664757D02*
X138743741Y-160593328D01*
X138743741Y-160593328D02*
X139029455Y-160593328D01*
X139029455Y-160593328D02*
X139172313Y-160664757D01*
X141029455Y-160807614D02*
X141529455Y-160807614D01*
X141743741Y-161593328D02*
X141029455Y-161593328D01*
X141029455Y-161593328D02*
X141029455Y-160093328D01*
X141029455Y-160093328D02*
X141743741Y-160093328D01*
X142386598Y-161450471D02*
X142458027Y-161521900D01*
X142458027Y-161521900D02*
X142386598Y-161593328D01*
X142386598Y-161593328D02*
X142315170Y-161521900D01*
X142315170Y-161521900D02*
X142386598Y-161450471D01*
X142386598Y-161450471D02*
X142386598Y-161593328D01*
X143100884Y-161593328D02*
X143100884Y-160093328D01*
X143100884Y-160093328D02*
X143458027Y-160093328D01*
X143458027Y-160093328D02*
X143672313Y-160164757D01*
X143672313Y-160164757D02*
X143815170Y-160307614D01*
X143815170Y-160307614D02*
X143886599Y-160450471D01*
X143886599Y-160450471D02*
X143958027Y-160736185D01*
X143958027Y-160736185D02*
X143958027Y-160950471D01*
X143958027Y-160950471D02*
X143886599Y-161236185D01*
X143886599Y-161236185D02*
X143815170Y-161379042D01*
X143815170Y-161379042D02*
X143672313Y-161521900D01*
X143672313Y-161521900D02*
X143458027Y-161593328D01*
X143458027Y-161593328D02*
X143100884Y-161593328D01*
X144600884Y-161450471D02*
X144672313Y-161521900D01*
X144672313Y-161521900D02*
X144600884Y-161593328D01*
X144600884Y-161593328D02*
X144529456Y-161521900D01*
X144529456Y-161521900D02*
X144600884Y-161450471D01*
X144600884Y-161450471D02*
X144600884Y-161593328D01*
X145243742Y-161164757D02*
X145958028Y-161164757D01*
X145100885Y-161593328D02*
X145600885Y-160093328D01*
X145600885Y-160093328D02*
X146100885Y-161593328D01*
X146600884Y-161450471D02*
X146672313Y-161521900D01*
X146672313Y-161521900D02*
X146600884Y-161593328D01*
X146600884Y-161593328D02*
X146529456Y-161521900D01*
X146529456Y-161521900D02*
X146600884Y-161450471D01*
X146600884Y-161450471D02*
X146600884Y-161593328D01*
X148672313Y-160736185D02*
X148529456Y-160664757D01*
X148529456Y-160664757D02*
X148458027Y-160593328D01*
X148458027Y-160593328D02*
X148386599Y-160450471D01*
X148386599Y-160450471D02*
X148386599Y-160379042D01*
X148386599Y-160379042D02*
X148458027Y-160236185D01*
X148458027Y-160236185D02*
X148529456Y-160164757D01*
X148529456Y-160164757D02*
X148672313Y-160093328D01*
X148672313Y-160093328D02*
X148958027Y-160093328D01*
X148958027Y-160093328D02*
X149100885Y-160164757D01*
X149100885Y-160164757D02*
X149172313Y-160236185D01*
X149172313Y-160236185D02*
X149243742Y-160379042D01*
X149243742Y-160379042D02*
X149243742Y-160450471D01*
X149243742Y-160450471D02*
X149172313Y-160593328D01*
X149172313Y-160593328D02*
X149100885Y-160664757D01*
X149100885Y-160664757D02*
X148958027Y-160736185D01*
X148958027Y-160736185D02*
X148672313Y-160736185D01*
X148672313Y-160736185D02*
X148529456Y-160807614D01*
X148529456Y-160807614D02*
X148458027Y-160879042D01*
X148458027Y-160879042D02*
X148386599Y-161021900D01*
X148386599Y-161021900D02*
X148386599Y-161307614D01*
X148386599Y-161307614D02*
X148458027Y-161450471D01*
X148458027Y-161450471D02*
X148529456Y-161521900D01*
X148529456Y-161521900D02*
X148672313Y-161593328D01*
X148672313Y-161593328D02*
X148958027Y-161593328D01*
X148958027Y-161593328D02*
X149100885Y-161521900D01*
X149100885Y-161521900D02*
X149172313Y-161450471D01*
X149172313Y-161450471D02*
X149243742Y-161307614D01*
X149243742Y-161307614D02*
X149243742Y-161021900D01*
X149243742Y-161021900D02*
X149172313Y-160879042D01*
X149172313Y-160879042D02*
X149100885Y-160807614D01*
X149100885Y-160807614D02*
X148958027Y-160736185D01*
X149886598Y-161450471D02*
X149958027Y-161521900D01*
X149958027Y-161521900D02*
X149886598Y-161593328D01*
X149886598Y-161593328D02*
X149815170Y-161521900D01*
X149815170Y-161521900D02*
X149886598Y-161450471D01*
X149886598Y-161450471D02*
X149886598Y-161593328D01*
X150886599Y-160093328D02*
X151029456Y-160093328D01*
X151029456Y-160093328D02*
X151172313Y-160164757D01*
X151172313Y-160164757D02*
X151243742Y-160236185D01*
X151243742Y-160236185D02*
X151315170Y-160379042D01*
X151315170Y-160379042D02*
X151386599Y-160664757D01*
X151386599Y-160664757D02*
X151386599Y-161021900D01*
X151386599Y-161021900D02*
X151315170Y-161307614D01*
X151315170Y-161307614D02*
X151243742Y-161450471D01*
X151243742Y-161450471D02*
X151172313Y-161521900D01*
X151172313Y-161521900D02*
X151029456Y-161593328D01*
X151029456Y-161593328D02*
X150886599Y-161593328D01*
X150886599Y-161593328D02*
X150743742Y-161521900D01*
X150743742Y-161521900D02*
X150672313Y-161450471D01*
X150672313Y-161450471D02*
X150600884Y-161307614D01*
X150600884Y-161307614D02*
X150529456Y-161021900D01*
X150529456Y-161021900D02*
X150529456Y-160664757D01*
X150529456Y-160664757D02*
X150600884Y-160379042D01*
X150600884Y-160379042D02*
X150672313Y-160236185D01*
X150672313Y-160236185D02*
X150743742Y-160164757D01*
X150743742Y-160164757D02*
X150886599Y-160093328D01*
X152029455Y-161450471D02*
X152100884Y-161521900D01*
X152100884Y-161521900D02*
X152029455Y-161593328D01*
X152029455Y-161593328D02*
X151958027Y-161521900D01*
X151958027Y-161521900D02*
X152029455Y-161450471D01*
X152029455Y-161450471D02*
X152029455Y-161593328D01*
X153458027Y-160093328D02*
X152743741Y-160093328D01*
X152743741Y-160093328D02*
X152672313Y-160807614D01*
X152672313Y-160807614D02*
X152743741Y-160736185D01*
X152743741Y-160736185D02*
X152886599Y-160664757D01*
X152886599Y-160664757D02*
X153243741Y-160664757D01*
X153243741Y-160664757D02*
X153386599Y-160736185D01*
X153386599Y-160736185D02*
X153458027Y-160807614D01*
X153458027Y-160807614D02*
X153529456Y-160950471D01*
X153529456Y-160950471D02*
X153529456Y-161307614D01*
X153529456Y-161307614D02*
X153458027Y-161450471D01*
X153458027Y-161450471D02*
X153386599Y-161521900D01*
X153386599Y-161521900D02*
X153243741Y-161593328D01*
X153243741Y-161593328D02*
X152886599Y-161593328D01*
X152886599Y-161593328D02*
X152743741Y-161521900D01*
X152743741Y-161521900D02*
X152672313Y-161450471D01*
D10*
D11*
X132002200Y-156507200D02*
X240002200Y-156507200D01*
D10*
D12*
X219413853Y-158785528D02*
X218913853Y-158071242D01*
X218556710Y-158785528D02*
X218556710Y-157285528D01*
X218556710Y-157285528D02*
X219128139Y-157285528D01*
X219128139Y-157285528D02*
X219270996Y-157356957D01*
X219270996Y-157356957D02*
X219342425Y-157428385D01*
X219342425Y-157428385D02*
X219413853Y-157571242D01*
X219413853Y-157571242D02*
X219413853Y-157785528D01*
X219413853Y-157785528D02*
X219342425Y-157928385D01*
X219342425Y-157928385D02*
X219270996Y-157999814D01*
X219270996Y-157999814D02*
X219128139Y-158071242D01*
X219128139Y-158071242D02*
X218556710Y-158071242D01*
X220628139Y-158714100D02*
X220485282Y-158785528D01*
X220485282Y-158785528D02*
X220199568Y-158785528D01*
X220199568Y-158785528D02*
X220056710Y-158714100D01*
X220056710Y-158714100D02*
X219985282Y-158571242D01*
X219985282Y-158571242D02*
X219985282Y-157999814D01*
X219985282Y-157999814D02*
X220056710Y-157856957D01*
X220056710Y-157856957D02*
X220199568Y-157785528D01*
X220199568Y-157785528D02*
X220485282Y-157785528D01*
X220485282Y-157785528D02*
X220628139Y-157856957D01*
X220628139Y-157856957D02*
X220699568Y-157999814D01*
X220699568Y-157999814D02*
X220699568Y-158142671D01*
X220699568Y-158142671D02*
X219985282Y-158285528D01*
X221199567Y-157785528D02*
X221556710Y-158785528D01*
X221556710Y-158785528D02*
X221913853Y-157785528D01*
X222485281Y-158642671D02*
X222556710Y-158714100D01*
X222556710Y-158714100D02*
X222485281Y-158785528D01*
X222485281Y-158785528D02*
X222413853Y-158714100D01*
X222413853Y-158714100D02*
X222485281Y-158642671D01*
X222485281Y-158642671D02*
X222485281Y-158785528D01*
X222485281Y-157856957D02*
X222556710Y-157928385D01*
X222556710Y-157928385D02*
X222485281Y-157999814D01*
X222485281Y-157999814D02*
X222413853Y-157928385D01*
X222413853Y-157928385D02*
X222485281Y-157856957D01*
X222485281Y-157856957D02*
X222485281Y-157999814D01*
D10*
D11*
X133386598Y-158721900D02*
X133600884Y-158793328D01*
X133600884Y-158793328D02*
X133958026Y-158793328D01*
X133958026Y-158793328D02*
X134100884Y-158721900D01*
X134100884Y-158721900D02*
X134172312Y-158650471D01*
X134172312Y-158650471D02*
X134243741Y-158507614D01*
X134243741Y-158507614D02*
X134243741Y-158364757D01*
X134243741Y-158364757D02*
X134172312Y-158221900D01*
X134172312Y-158221900D02*
X134100884Y-158150471D01*
X134100884Y-158150471D02*
X133958026Y-158079042D01*
X133958026Y-158079042D02*
X133672312Y-158007614D01*
X133672312Y-158007614D02*
X133529455Y-157936185D01*
X133529455Y-157936185D02*
X133458026Y-157864757D01*
X133458026Y-157864757D02*
X133386598Y-157721900D01*
X133386598Y-157721900D02*
X133386598Y-157579042D01*
X133386598Y-157579042D02*
X133458026Y-157436185D01*
X133458026Y-157436185D02*
X133529455Y-157364757D01*
X133529455Y-157364757D02*
X133672312Y-157293328D01*
X133672312Y-157293328D02*
X134029455Y-157293328D01*
X134029455Y-157293328D02*
X134243741Y-157364757D01*
X134886597Y-158793328D02*
X134886597Y-157793328D01*
X134886597Y-157293328D02*
X134815169Y-157364757D01*
X134815169Y-157364757D02*
X134886597Y-157436185D01*
X134886597Y-157436185D02*
X134958026Y-157364757D01*
X134958026Y-157364757D02*
X134886597Y-157293328D01*
X134886597Y-157293328D02*
X134886597Y-157436185D01*
X135458026Y-157793328D02*
X136243741Y-157793328D01*
X136243741Y-157793328D02*
X135458026Y-158793328D01*
X135458026Y-158793328D02*
X136243741Y-158793328D01*
X137386598Y-158721900D02*
X137243741Y-158793328D01*
X137243741Y-158793328D02*
X136958027Y-158793328D01*
X136958027Y-158793328D02*
X136815169Y-158721900D01*
X136815169Y-158721900D02*
X136743741Y-158579042D01*
X136743741Y-158579042D02*
X136743741Y-158007614D01*
X136743741Y-158007614D02*
X136815169Y-157864757D01*
X136815169Y-157864757D02*
X136958027Y-157793328D01*
X136958027Y-157793328D02*
X137243741Y-157793328D01*
X137243741Y-157793328D02*
X137386598Y-157864757D01*
X137386598Y-157864757D02*
X137458027Y-158007614D01*
X137458027Y-158007614D02*
X137458027Y-158150471D01*
X137458027Y-158150471D02*
X136743741Y-158293328D01*
X138100883Y-158650471D02*
X138172312Y-158721900D01*
X138172312Y-158721900D02*
X138100883Y-158793328D01*
X138100883Y-158793328D02*
X138029455Y-158721900D01*
X138029455Y-158721900D02*
X138100883Y-158650471D01*
X138100883Y-158650471D02*
X138100883Y-158793328D01*
X138100883Y-157864757D02*
X138172312Y-157936185D01*
X138172312Y-157936185D02*
X138100883Y-158007614D01*
X138100883Y-158007614D02*
X138029455Y-157936185D01*
X138029455Y-157936185D02*
X138100883Y-157864757D01*
X138100883Y-157864757D02*
X138100883Y-158007614D01*
X139886598Y-158364757D02*
X140600884Y-158364757D01*
X139743741Y-158793328D02*
X140243741Y-157293328D01*
X140243741Y-157293328D02*
X140743741Y-158793328D01*
X141886598Y-157793328D02*
X141886598Y-158793328D01*
X141529455Y-157221900D02*
X141172312Y-158293328D01*
X141172312Y-158293328D02*
X142100883Y-158293328D01*
D10*
D11*
X218458026Y-161593328D02*
X218458026Y-160093328D01*
X219815170Y-161593328D02*
X219815170Y-160093328D01*
X219815170Y-161521900D02*
X219672312Y-161593328D01*
X219672312Y-161593328D02*
X219386598Y-161593328D01*
X219386598Y-161593328D02*
X219243741Y-161521900D01*
X219243741Y-161521900D02*
X219172312Y-161450471D01*
X219172312Y-161450471D02*
X219100884Y-161307614D01*
X219100884Y-161307614D02*
X219100884Y-160879042D01*
X219100884Y-160879042D02*
X219172312Y-160736185D01*
X219172312Y-160736185D02*
X219243741Y-160664757D01*
X219243741Y-160664757D02*
X219386598Y-160593328D01*
X219386598Y-160593328D02*
X219672312Y-160593328D01*
X219672312Y-160593328D02*
X219815170Y-160664757D01*
X220529455Y-161450471D02*
X220600884Y-161521900D01*
X220600884Y-161521900D02*
X220529455Y-161593328D01*
X220529455Y-161593328D02*
X220458027Y-161521900D01*
X220458027Y-161521900D02*
X220529455Y-161450471D01*
X220529455Y-161450471D02*
X220529455Y-161593328D01*
X220529455Y-160664757D02*
X220600884Y-160736185D01*
X220600884Y-160736185D02*
X220529455Y-160807614D01*
X220529455Y-160807614D02*
X220458027Y-160736185D01*
X220458027Y-160736185D02*
X220529455Y-160664757D01*
X220529455Y-160664757D02*
X220529455Y-160807614D01*
X223172313Y-161593328D02*
X222315170Y-161593328D01*
X222743741Y-161593328D02*
X222743741Y-160093328D01*
X222743741Y-160093328D02*
X222600884Y-160307614D01*
X222600884Y-160307614D02*
X222458027Y-160450471D01*
X222458027Y-160450471D02*
X222315170Y-160521900D01*
X224886598Y-160021900D02*
X223600884Y-161950471D01*
X226172313Y-161593328D02*
X225315170Y-161593328D01*
X225743741Y-161593328D02*
X225743741Y-160093328D01*
X225743741Y-160093328D02*
X225600884Y-160307614D01*
X225600884Y-160307614D02*
X225458027Y-160450471D01*
X225458027Y-160450471D02*
X225315170Y-160521900D01*
D10*
D11*
X132002200Y-152507200D02*
X240002200Y-152507200D01*
D10*
D13*
X133693928Y-153211638D02*
X134836785Y-153211638D01*
X134015357Y-155211638D02*
X134265357Y-153211638D01*
X135253452Y-155211638D02*
X135420119Y-153878304D01*
X135503452Y-153211638D02*
X135396309Y-153306876D01*
X135396309Y-153306876D02*
X135479643Y-153402114D01*
X135479643Y-153402114D02*
X135586786Y-153306876D01*
X135586786Y-153306876D02*
X135503452Y-153211638D01*
X135503452Y-153211638D02*
X135479643Y-153402114D01*
X136086786Y-153878304D02*
X136848690Y-153878304D01*
X136455833Y-153211638D02*
X136241548Y-154925923D01*
X136241548Y-154925923D02*
X136312976Y-155116400D01*
X136312976Y-155116400D02*
X136491548Y-155211638D01*
X136491548Y-155211638D02*
X136682024Y-155211638D01*
X137634405Y-155211638D02*
X137455833Y-155116400D01*
X137455833Y-155116400D02*
X137384405Y-154925923D01*
X137384405Y-154925923D02*
X137598690Y-153211638D01*
X139170119Y-155116400D02*
X138967738Y-155211638D01*
X138967738Y-155211638D02*
X138586785Y-155211638D01*
X138586785Y-155211638D02*
X138408214Y-155116400D01*
X138408214Y-155116400D02*
X138336785Y-154925923D01*
X138336785Y-154925923D02*
X138432024Y-154164019D01*
X138432024Y-154164019D02*
X138551071Y-153973542D01*
X138551071Y-153973542D02*
X138753452Y-153878304D01*
X138753452Y-153878304D02*
X139134404Y-153878304D01*
X139134404Y-153878304D02*
X139312976Y-153973542D01*
X139312976Y-153973542D02*
X139384404Y-154164019D01*
X139384404Y-154164019D02*
X139360595Y-154354495D01*
X139360595Y-154354495D02*
X138384404Y-154544971D01*
X140134405Y-155021161D02*
X140217738Y-155116400D01*
X140217738Y-155116400D02*
X140110595Y-155211638D01*
X140110595Y-155211638D02*
X140027262Y-155116400D01*
X140027262Y-155116400D02*
X140134405Y-155021161D01*
X140134405Y-155021161D02*
X140110595Y-155211638D01*
X140265357Y-153973542D02*
X140348690Y-154068780D01*
X140348690Y-154068780D02*
X140241548Y-154164019D01*
X140241548Y-154164019D02*
X140158214Y-154068780D01*
X140158214Y-154068780D02*
X140265357Y-153973542D01*
X140265357Y-153973542D02*
X140241548Y-154164019D01*
D10*
D11*
X133958026Y-150607614D02*
X133458026Y-150607614D01*
X133458026Y-151393328D02*
X133458026Y-149893328D01*
X133458026Y-149893328D02*
X134172312Y-149893328D01*
X134743740Y-151393328D02*
X134743740Y-150393328D01*
X134743740Y-149893328D02*
X134672312Y-149964757D01*
X134672312Y-149964757D02*
X134743740Y-150036185D01*
X134743740Y-150036185D02*
X134815169Y-149964757D01*
X134815169Y-149964757D02*
X134743740Y-149893328D01*
X134743740Y-149893328D02*
X134743740Y-150036185D01*
X135672312Y-151393328D02*
X135529455Y-151321900D01*
X135529455Y-151321900D02*
X135458026Y-151179042D01*
X135458026Y-151179042D02*
X135458026Y-149893328D01*
X136815169Y-151321900D02*
X136672312Y-151393328D01*
X136672312Y-151393328D02*
X136386598Y-151393328D01*
X136386598Y-151393328D02*
X136243740Y-151321900D01*
X136243740Y-151321900D02*
X136172312Y-151179042D01*
X136172312Y-151179042D02*
X136172312Y-150607614D01*
X136172312Y-150607614D02*
X136243740Y-150464757D01*
X136243740Y-150464757D02*
X136386598Y-150393328D01*
X136386598Y-150393328D02*
X136672312Y-150393328D01*
X136672312Y-150393328D02*
X136815169Y-150464757D01*
X136815169Y-150464757D02*
X136886598Y-150607614D01*
X136886598Y-150607614D02*
X136886598Y-150750471D01*
X136886598Y-150750471D02*
X136172312Y-150893328D01*
X137529454Y-151250471D02*
X137600883Y-151321900D01*
X137600883Y-151321900D02*
X137529454Y-151393328D01*
X137529454Y-151393328D02*
X137458026Y-151321900D01*
X137458026Y-151321900D02*
X137529454Y-151250471D01*
X137529454Y-151250471D02*
X137529454Y-151393328D01*
X137529454Y-150464757D02*
X137600883Y-150536185D01*
X137600883Y-150536185D02*
X137529454Y-150607614D01*
X137529454Y-150607614D02*
X137458026Y-150536185D01*
X137458026Y-150536185D02*
X137529454Y-150464757D01*
X137529454Y-150464757D02*
X137529454Y-150607614D01*
X140029455Y-150393328D02*
X140029455Y-151393328D01*
X139386597Y-150393328D02*
X139386597Y-151179042D01*
X139386597Y-151179042D02*
X139458026Y-151321900D01*
X139458026Y-151321900D02*
X139600883Y-151393328D01*
X139600883Y-151393328D02*
X139815169Y-151393328D01*
X139815169Y-151393328D02*
X139958026Y-151321900D01*
X139958026Y-151321900D02*
X140029455Y-151250471D01*
X141529455Y-151393328D02*
X140672312Y-151393328D01*
X141100883Y-151393328D02*
X141100883Y-149893328D01*
X141100883Y-149893328D02*
X140958026Y-150107614D01*
X140958026Y-150107614D02*
X140815169Y-150250471D01*
X140815169Y-150250471D02*
X140672312Y-150321900D01*
X142172311Y-151250471D02*
X142243740Y-151321900D01*
X142243740Y-151321900D02*
X142172311Y-151393328D01*
X142172311Y-151393328D02*
X142100883Y-151321900D01*
X142100883Y-151321900D02*
X142172311Y-151250471D01*
X142172311Y-151250471D02*
X142172311Y-151393328D01*
X142886597Y-151393328D02*
X142886597Y-149893328D01*
X143029455Y-150821900D02*
X143458026Y-151393328D01*
X143458026Y-150393328D02*
X142886597Y-150964757D01*
X144100883Y-151393328D02*
X144100883Y-150393328D01*
X144100883Y-149893328D02*
X144029455Y-149964757D01*
X144029455Y-149964757D02*
X144100883Y-150036185D01*
X144100883Y-150036185D02*
X144172312Y-149964757D01*
X144172312Y-149964757D02*
X144100883Y-149893328D01*
X144100883Y-149893328D02*
X144100883Y-150036185D01*
X145458027Y-151321900D02*
X145315169Y-151393328D01*
X145315169Y-151393328D02*
X145029455Y-151393328D01*
X145029455Y-151393328D02*
X144886598Y-151321900D01*
X144886598Y-151321900D02*
X144815169Y-151250471D01*
X144815169Y-151250471D02*
X144743741Y-151107614D01*
X144743741Y-151107614D02*
X144743741Y-150679042D01*
X144743741Y-150679042D02*
X144815169Y-150536185D01*
X144815169Y-150536185D02*
X144886598Y-150464757D01*
X144886598Y-150464757D02*
X145029455Y-150393328D01*
X145029455Y-150393328D02*
X145315169Y-150393328D01*
X145315169Y-150393328D02*
X145458027Y-150464757D01*
X146743741Y-151393328D02*
X146743741Y-150607614D01*
X146743741Y-150607614D02*
X146672312Y-150464757D01*
X146672312Y-150464757D02*
X146529455Y-150393328D01*
X146529455Y-150393328D02*
X146243741Y-150393328D01*
X146243741Y-150393328D02*
X146100883Y-150464757D01*
X146743741Y-151321900D02*
X146600883Y-151393328D01*
X146600883Y-151393328D02*
X146243741Y-151393328D01*
X146243741Y-151393328D02*
X146100883Y-151321900D01*
X146100883Y-151321900D02*
X146029455Y-151179042D01*
X146029455Y-151179042D02*
X146029455Y-151036185D01*
X146029455Y-151036185D02*
X146100883Y-150893328D01*
X146100883Y-150893328D02*
X146243741Y-150821900D01*
X146243741Y-150821900D02*
X146600883Y-150821900D01*
X146600883Y-150821900D02*
X146743741Y-150750471D01*
X148100884Y-151393328D02*
X148100884Y-149893328D01*
X148100884Y-151321900D02*
X147958026Y-151393328D01*
X147958026Y-151393328D02*
X147672312Y-151393328D01*
X147672312Y-151393328D02*
X147529455Y-151321900D01*
X147529455Y-151321900D02*
X147458026Y-151250471D01*
X147458026Y-151250471D02*
X147386598Y-151107614D01*
X147386598Y-151107614D02*
X147386598Y-150679042D01*
X147386598Y-150679042D02*
X147458026Y-150536185D01*
X147458026Y-150536185D02*
X147529455Y-150464757D01*
X147529455Y-150464757D02*
X147672312Y-150393328D01*
X147672312Y-150393328D02*
X147958026Y-150393328D01*
X147958026Y-150393328D02*
X148100884Y-150464757D01*
X148458027Y-151536185D02*
X149600884Y-151536185D01*
X149958026Y-150393328D02*
X149958026Y-151893328D01*
X149958026Y-150464757D02*
X150100884Y-150393328D01*
X150100884Y-150393328D02*
X150386598Y-150393328D01*
X150386598Y-150393328D02*
X150529455Y-150464757D01*
X150529455Y-150464757D02*
X150600884Y-150536185D01*
X150600884Y-150536185D02*
X150672312Y-150679042D01*
X150672312Y-150679042D02*
X150672312Y-151107614D01*
X150672312Y-151107614D02*
X150600884Y-151250471D01*
X150600884Y-151250471D02*
X150529455Y-151321900D01*
X150529455Y-151321900D02*
X150386598Y-151393328D01*
X150386598Y-151393328D02*
X150100884Y-151393328D01*
X150100884Y-151393328D02*
X149958026Y-151321900D01*
X151958027Y-151321900D02*
X151815169Y-151393328D01*
X151815169Y-151393328D02*
X151529455Y-151393328D01*
X151529455Y-151393328D02*
X151386598Y-151321900D01*
X151386598Y-151321900D02*
X151315169Y-151250471D01*
X151315169Y-151250471D02*
X151243741Y-151107614D01*
X151243741Y-151107614D02*
X151243741Y-150679042D01*
X151243741Y-150679042D02*
X151315169Y-150536185D01*
X151315169Y-150536185D02*
X151386598Y-150464757D01*
X151386598Y-150464757D02*
X151529455Y-150393328D01*
X151529455Y-150393328D02*
X151815169Y-150393328D01*
X151815169Y-150393328D02*
X151958027Y-150464757D01*
X152600883Y-151393328D02*
X152600883Y-149893328D01*
X152600883Y-150464757D02*
X152743741Y-150393328D01*
X152743741Y-150393328D02*
X153029455Y-150393328D01*
X153029455Y-150393328D02*
X153172312Y-150464757D01*
X153172312Y-150464757D02*
X153243741Y-150536185D01*
X153243741Y-150536185D02*
X153315169Y-150679042D01*
X153315169Y-150679042D02*
X153315169Y-151107614D01*
X153315169Y-151107614D02*
X153243741Y-151250471D01*
X153243741Y-151250471D02*
X153172312Y-151321900D01*
X153172312Y-151321900D02*
X153029455Y-151393328D01*
X153029455Y-151393328D02*
X152743741Y-151393328D01*
X152743741Y-151393328D02*
X152600883Y-151321900D01*
D10*
D11*
X132002200Y-146507200D02*
X240002200Y-146507200D01*
D10*
D11*
X133386598Y-148621900D02*
X133600884Y-148693328D01*
X133600884Y-148693328D02*
X133958026Y-148693328D01*
X133958026Y-148693328D02*
X134100884Y-148621900D01*
X134100884Y-148621900D02*
X134172312Y-148550471D01*
X134172312Y-148550471D02*
X134243741Y-148407614D01*
X134243741Y-148407614D02*
X134243741Y-148264757D01*
X134243741Y-148264757D02*
X134172312Y-148121900D01*
X134172312Y-148121900D02*
X134100884Y-148050471D01*
X134100884Y-148050471D02*
X133958026Y-147979042D01*
X133958026Y-147979042D02*
X133672312Y-147907614D01*
X133672312Y-147907614D02*
X133529455Y-147836185D01*
X133529455Y-147836185D02*
X133458026Y-147764757D01*
X133458026Y-147764757D02*
X133386598Y-147621900D01*
X133386598Y-147621900D02*
X133386598Y-147479042D01*
X133386598Y-147479042D02*
X133458026Y-147336185D01*
X133458026Y-147336185D02*
X133529455Y-147264757D01*
X133529455Y-147264757D02*
X133672312Y-147193328D01*
X133672312Y-147193328D02*
X134029455Y-147193328D01*
X134029455Y-147193328D02*
X134243741Y-147264757D01*
X134886597Y-148693328D02*
X134886597Y-147193328D01*
X135529455Y-148693328D02*
X135529455Y-147907614D01*
X135529455Y-147907614D02*
X135458026Y-147764757D01*
X135458026Y-147764757D02*
X135315169Y-147693328D01*
X135315169Y-147693328D02*
X135100883Y-147693328D01*
X135100883Y-147693328D02*
X134958026Y-147764757D01*
X134958026Y-147764757D02*
X134886597Y-147836185D01*
X136815169Y-148621900D02*
X136672312Y-148693328D01*
X136672312Y-148693328D02*
X136386598Y-148693328D01*
X136386598Y-148693328D02*
X136243740Y-148621900D01*
X136243740Y-148621900D02*
X136172312Y-148479042D01*
X136172312Y-148479042D02*
X136172312Y-147907614D01*
X136172312Y-147907614D02*
X136243740Y-147764757D01*
X136243740Y-147764757D02*
X136386598Y-147693328D01*
X136386598Y-147693328D02*
X136672312Y-147693328D01*
X136672312Y-147693328D02*
X136815169Y-147764757D01*
X136815169Y-147764757D02*
X136886598Y-147907614D01*
X136886598Y-147907614D02*
X136886598Y-148050471D01*
X136886598Y-148050471D02*
X136172312Y-148193328D01*
X138100883Y-148621900D02*
X137958026Y-148693328D01*
X137958026Y-148693328D02*
X137672312Y-148693328D01*
X137672312Y-148693328D02*
X137529454Y-148621900D01*
X137529454Y-148621900D02*
X137458026Y-148479042D01*
X137458026Y-148479042D02*
X137458026Y-147907614D01*
X137458026Y-147907614D02*
X137529454Y-147764757D01*
X137529454Y-147764757D02*
X137672312Y-147693328D01*
X137672312Y-147693328D02*
X137958026Y-147693328D01*
X137958026Y-147693328D02*
X138100883Y-147764757D01*
X138100883Y-147764757D02*
X138172312Y-147907614D01*
X138172312Y-147907614D02*
X138172312Y-148050471D01*
X138172312Y-148050471D02*
X137458026Y-148193328D01*
X138600883Y-147693328D02*
X139172311Y-147693328D01*
X138815168Y-147193328D02*
X138815168Y-148479042D01*
X138815168Y-148479042D02*
X138886597Y-148621900D01*
X138886597Y-148621900D02*
X139029454Y-148693328D01*
X139029454Y-148693328D02*
X139172311Y-148693328D01*
X139672311Y-148550471D02*
X139743740Y-148621900D01*
X139743740Y-148621900D02*
X139672311Y-148693328D01*
X139672311Y-148693328D02*
X139600883Y-148621900D01*
X139600883Y-148621900D02*
X139672311Y-148550471D01*
X139672311Y-148550471D02*
X139672311Y-148693328D01*
X139672311Y-147764757D02*
X139743740Y-147836185D01*
X139743740Y-147836185D02*
X139672311Y-147907614D01*
X139672311Y-147907614D02*
X139600883Y-147836185D01*
X139600883Y-147836185D02*
X139672311Y-147764757D01*
X139672311Y-147764757D02*
X139672311Y-147907614D01*
D10*
D11*
X152002200Y-156507200D02*
X152002200Y-159507200D01*
D10*
D11*
X216002200Y-156507200D02*
X216002200Y-163007200D01*
D14*
%TO.P,REF\u002A\u002A,1*%
%TO.N,GND*%
X2000000Y-2000000D03*
%TD*%
%TO.P,REF\u002A\u002A,1*%
%TO.N,GND*%
X16000000Y-2000000D03*
%TD*%
%TO.P,REF\u002A\u002A,1*%
%TO.N,GND*%
X2000000Y-14500000D03*
%TD*%
%TO.P,REF\u002A\u002A,1*%
%TO.N,GND*%
X16000000Y-14500000D03*
%TD*%
D15*
%TO.P,J1,A1,GND*%
%TO.N,GND*%
X12250000Y-6495000D03*
%TO.P,J1,A4,VBUS*%
%TO.N,UVCC*%
X11450000Y-6495000D03*
D16*
%TO.P,J1,A5,CC1*%
%TO.N,Net-(J1-CC1)*%
X10250000Y-6495000D03*
%TO.P,J1,A6,D+*%
%TO.N,DP*%
X9250000Y-6495000D03*
%TO.P,J1,A7,D-*%
%TO.N,DN*%
X8750000Y-6495000D03*
%TO.P,J1,A8,SBU1*%
%TO.N,unconnected-(J1-SBU1-PadA8)*%
X7750000Y-6495000D03*
D15*
%TO.P,J1,A9,VBUS*%
%TO.N,UVCC*%
X6550000Y-6495000D03*
%TO.P,J1,A12,GND*%
%TO.N,GND*%
X5750000Y-6495000D03*
%TO.P,J1,B1,GND*%
X5750000Y-6495000D03*
%TO.P,J1,B4,VBUS*%
%TO.N,UVCC*%
X6550000Y-6495000D03*
D16*
%TO.P,J1,B5,CC2*%
%TO.N,Net-(J1-CC2)*%
X7250000Y-6495000D03*
%TO.P,J1,B6,D+*%
%TO.N,DP*%
X8250000Y-6495000D03*
%TO.P,J1,B7,D-*%
%TO.N,DN*%
X9750000Y-6495000D03*
%TO.P,J1,B8,SBU2*%
%TO.N,unconnected-(J1-SBU2-PadB8)*%
X10750000Y-6495000D03*
D15*
%TO.P,J1,B9,VBUS*%
%TO.N,UVCC*%
X11450000Y-6495000D03*
%TO.P,J1,B12,GND*%
%TO.N,GND*%
X12250000Y-6495000D03*
D17*
%TO.P,J1,S1,SHIELD*%
X13320000Y-5580000D03*
D18*
X13320000Y-1400000D03*
D17*
X4680000Y-5580000D03*
D18*
X4680000Y-1400000D03*
%TD*%
D19*
%TO.P,R1,1*%
%TO.N,Net-(J1-CC1)*%
X15900000Y-10425000D03*
%TO.P,R1,2*%
%TO.N,GND*%
X15900000Y-8775000D03*
%TD*%
D20*
%TO.P,R2,1*%
%TO.N,GND*%
X14500000Y-8775000D03*
%TO.P,R2,2*%
%TO.N,Net-(J1-CC2)*%
X14500000Y-10425000D03*
%TD*%
D21*
%TO.P,U1,1,I/O1*%
%TO.N,DN*%
X3137500Y-8750000D03*
D22*
%TO.P,U1,2,GND*%
%TO.N,GND*%
X2600000Y-8675000D03*
D21*
%TO.P,U1,3,I/O2*%
%TO.N,DP*%
X2062500Y-8750000D03*
%TO.P,U1,4,I/O2*%
%TO.N,D+*%
X2062500Y-10450000D03*
D22*
%TO.P,U1,5,VBUS*%
%TO.N,UVCC*%
X2600000Y-10525000D03*
D21*
%TO.P,U1,6,I/O1*%
%TO.N,D-*%
X3137500Y-10450000D03*
%TD*%
D23*
%TO.P,J2,MP,MountPin*%
%TO.N,GND*%
X12900000Y-13875000D03*
X5100000Y-13875000D03*
D24*
%TO.P,J2,4,Pin_4*%
X10500000Y-11350000D03*
%TO.P,J2,3,Pin_3*%
%TO.N,D+*%
X9500000Y-11350000D03*
%TO.P,J2,2,Pin_2*%
%TO.N,D-*%
X8500000Y-11350000D03*
%TO.P,J2,1,Pin_1*%
%TO.N,UVCC*%
X7500000Y-11350000D03*
%TD*%
D25*
%TO.N,DN*%
X7560000Y-4630000D03*
X8660000Y-3530000D03*
%TD*%
D26*
%TO.N,GND*%
X4680000Y-8540000D02*
X4680000Y-5580000D01*
X3940000Y-9280000D02*
X4680000Y-8540000D01*
X2600000Y-9075000D02*
X2805000Y-9280000D01*
X2805000Y-9280000D02*
X3940000Y-9280000D01*
X2600000Y-8675000D02*
X2600000Y-9075000D01*
D27*
%TO.N,UVCC*%
X7243601Y-9520000D02*
G75*
G02*
X6550000Y-8826399I-1J693600D01*
G01*
X7500000Y-11350000D02*
X7500000Y-9520000D01*
X7500000Y-9520000D02*
X7243601Y-9520000D01*
X11320000Y-9520000D02*
X7500000Y-9520000D01*
D26*
X5580000Y-8370000D02*
X6550000Y-8370000D01*
X4180000Y-9770000D02*
X5580000Y-8370000D01*
X2950000Y-9770000D02*
X4180000Y-9770000D01*
X2600000Y-10120000D02*
X2950000Y-9770000D01*
X2600000Y-10525000D02*
X2600000Y-10120000D01*
D27*
X6550000Y-8370000D02*
X6550000Y-6495000D01*
X6550000Y-8826399D02*
X6550000Y-8370000D01*
X16250000Y-11350000D02*
X13150000Y-11350000D01*
X16810000Y-10790000D02*
X16250000Y-11350000D01*
X11900000Y-3650000D02*
X14400000Y-3650000D01*
X16810000Y-6060000D02*
X16810000Y-10790000D01*
X13150000Y-11350000D02*
X11320000Y-9520000D01*
X11025000Y-4525000D02*
X11900000Y-3650000D01*
X14400000Y-3650000D02*
X16810000Y-6060000D01*
X11025000Y-5325000D02*
X11025000Y-4525000D01*
X11450000Y-5750000D02*
X11025000Y-5325000D01*
X11450000Y-6495000D02*
X11450000Y-5750000D01*
D28*
%TO.N,D+*%
X9500000Y-12360000D02*
X9500000Y-11750000D01*
X8790000Y-12640000D02*
X9220000Y-12640000D01*
X7270000Y-13160000D02*
X8270000Y-13160000D01*
X2500000Y-11610000D02*
X3130000Y-12240000D01*
X3130000Y-12240000D02*
X6350000Y-12240000D01*
X6350000Y-12240000D02*
X7270000Y-13160000D01*
X2062500Y-10862500D02*
X2500000Y-11300000D01*
X9220000Y-12640000D02*
X9500000Y-12360000D01*
X2500000Y-11300000D02*
X2500000Y-11610000D01*
X8270000Y-13160000D02*
X8790000Y-12640000D01*
X2062500Y-10450000D02*
X2062500Y-10862500D01*
%TO.N,D-*%
X8500000Y-12410000D02*
X8500000Y-11750000D01*
X7430000Y-12800000D02*
X8110000Y-12800000D01*
X2900000Y-11480000D02*
X3270000Y-11850000D01*
X6480000Y-11850000D02*
X7430000Y-12800000D01*
X8110000Y-12800000D02*
X8500000Y-12410000D01*
X3270000Y-11850000D02*
X6480000Y-11850000D01*
X2900000Y-11293750D02*
X2900000Y-11480000D01*
X3137500Y-11056250D02*
X2900000Y-11293750D01*
X3137500Y-10450000D02*
X3137500Y-11056250D01*
%TO.N,Net-(J1-CC2)*%
X11770000Y-8870000D02*
X13325000Y-10425000D01*
X8300000Y-8870000D02*
X11770000Y-8870000D01*
X7250000Y-7820000D02*
X8300000Y-8870000D01*
X7250000Y-6495000D02*
X7250000Y-7820000D01*
X13325000Y-10425000D02*
X14500000Y-10425000D01*
%TO.N,Net-(J1-CC1)*%
X12050000Y-8350000D02*
X10950000Y-8350000D01*
X13300000Y-9600000D02*
X12050000Y-8350000D01*
X10250000Y-7650000D02*
X10250000Y-6495000D01*
X15900000Y-9600000D02*
X13300000Y-9600000D01*
X15900000Y-10425000D02*
X15900000Y-9600000D01*
X10950000Y-8350000D02*
X10250000Y-7650000D01*
%TO.N,DP*%
X9250000Y-7710000D02*
X9250000Y-6495000D01*
X8520000Y-7970000D02*
X8990000Y-7970000D01*
X8990000Y-7970000D02*
X9250000Y-7710000D01*
X8250000Y-7700000D02*
X8520000Y-7970000D01*
X8250000Y-6495000D02*
X8250000Y-7700000D01*
D29*
%TO.N,GND*%
X13320000Y-7000000D02*
X13320000Y-5580000D01*
X14500000Y-8775000D02*
X14500000Y-8180000D01*
X14500000Y-8180000D02*
X13320000Y-7000000D01*
D28*
%TO.N,DN*%
X2875000Y-7925000D02*
X2875000Y-5175000D01*
X3137500Y-8750000D02*
X3137500Y-8187500D01*
X3137500Y-8187500D02*
X2875000Y-7925000D01*
%TO.N,DP*%
X2062500Y-8212500D02*
X2062500Y-8750000D01*
X2350000Y-7925000D02*
X2062500Y-8212500D01*
X2350000Y-5025000D02*
X2350000Y-7925000D01*
D29*
%TO.N,GND*%
X12670000Y-5580000D02*
X13320000Y-5580000D01*
X5750000Y-6495000D02*
X5750000Y-6000000D01*
X5330000Y-5580000D02*
X4680000Y-5580000D01*
X12250000Y-6495000D02*
X12250000Y-6000000D01*
X12250000Y-6000000D02*
X12670000Y-5580000D01*
X5750000Y-6000000D02*
X5330000Y-5580000D01*
D28*
%TO.N,DP*%
X3875000Y-3500000D02*
X2350000Y-5025000D01*
X9250000Y-5250000D02*
X7500000Y-3500000D01*
X7500000Y-3500000D02*
X3875000Y-3500000D01*
X9250000Y-6495000D02*
X9250000Y-5250000D01*
%TO.N,DN*%
X7560000Y-4630000D02*
X7960000Y-4630000D01*
X7960000Y-4630000D02*
X8750000Y-5420000D01*
X8750000Y-5420000D02*
X8750000Y-6495000D01*
X7560000Y-4230000D02*
X7560000Y-4630000D01*
X4100000Y-3950000D02*
X7280000Y-3950000D01*
X7280000Y-3950000D02*
X7560000Y-4230000D01*
X8660000Y-3530000D02*
X8660000Y-3860000D01*
X8660000Y-3860000D02*
X9750000Y-4950000D01*
X9750000Y-4950000D02*
X9750000Y-6495000D01*
X2875000Y-5175000D02*
X4100000Y-3950000D01*
D27*
%TO.N,UVCC*%
X6500000Y-6545000D02*
X6550000Y-6495000D01*
%TD*%
%TA.AperFunction,Conductor*%
%TO.N,GND*%
G36*
X17502602Y-3325825D02*
G01*
X17502603Y-3325825D01*
X17515350Y-3313077D01*
X17515360Y-3313065D01*
X17686807Y-3084039D01*
X17686808Y-3084039D01*
X17741668Y-2983570D01*
X17791073Y-2934165D01*
X17859346Y-2919313D01*
X17924810Y-2943730D01*
X17966682Y-2999663D01*
X17974500Y-3042997D01*
X17974500Y-13457002D01*
X17954815Y-13524041D01*
X17902011Y-13569796D01*
X17832853Y-13579740D01*
X17769297Y-13550715D01*
X17741668Y-13516429D01*
X17686808Y-13415961D01*
X17686807Y-13415960D01*
X17515360Y-13186934D01*
X17515350Y-13186922D01*
X17502603Y-13174175D01*
X17502602Y-13174175D01*
X16827815Y-13848961D01*
X16815589Y-13830664D01*
X16669336Y-13684411D01*
X16651038Y-13672184D01*
X17325825Y-12997398D01*
X17325825Y-12997397D01*
X17313077Y-12984649D01*
X17313065Y-12984639D01*
X17084039Y-12813192D01*
X17084038Y-12813191D01*
X16832957Y-12676091D01*
X16832958Y-12676091D01*
X16564895Y-12576109D01*
X16285362Y-12515300D01*
X16000001Y-12494891D01*
X15999999Y-12494891D01*
X15714637Y-12515300D01*
X15435104Y-12576109D01*
X15167041Y-12676091D01*
X14915961Y-12813191D01*
X14915960Y-12813192D01*
X14686934Y-12984639D01*
X14686922Y-12984649D01*
X14674175Y-12997397D01*
X14674175Y-12997398D01*
X15348961Y-13672184D01*
X15330664Y-13684411D01*
X15184411Y-13830664D01*
X15172184Y-13848961D01*
X14497398Y-13174175D01*
X14497397Y-13174175D01*
X14484649Y-13186922D01*
X14484639Y-13186934D01*
X14373267Y-13335710D01*
X14317333Y-13377581D01*
X14247642Y-13382565D01*
X14186319Y-13349080D01*
X14152834Y-13287757D01*
X14150000Y-13261399D01*
X14150000Y-12600373D01*
X14149999Y-12600371D01*
X14135496Y-12527459D01*
X14135494Y-12527455D01*
X14080239Y-12444760D01*
X13997544Y-12389505D01*
X13997540Y-12389503D01*
X13924627Y-12375000D01*
X13025000Y-12375000D01*
X13025000Y-15375000D01*
X13924626Y-15375000D01*
X13924628Y-15374999D01*
X13997540Y-15360496D01*
X13997544Y-15360495D01*
X14026638Y-15341055D01*
X14093315Y-15320177D01*
X14160695Y-15338661D01*
X14204361Y-15384730D01*
X14313191Y-15584038D01*
X14313192Y-15584039D01*
X14484639Y-15813065D01*
X14484649Y-15813077D01*
X14497397Y-15825825D01*
X14497398Y-15825825D01*
X15172184Y-15151038D01*
X15184411Y-15169336D01*
X15330664Y-15315589D01*
X15348961Y-15327815D01*
X14674175Y-16002602D01*
X14686922Y-16015350D01*
X14686934Y-16015360D01*
X14915960Y-16186807D01*
X14915960Y-16186808D01*
X15016430Y-16241668D01*
X15065835Y-16291073D01*
X15080687Y-16359346D01*
X15056270Y-16424810D01*
X15000337Y-16466682D01*
X14957003Y-16474500D01*
X3042997Y-16474500D01*
X2975958Y-16454815D01*
X2930203Y-16402011D01*
X2920259Y-16332853D01*
X2949284Y-16269297D01*
X2983570Y-16241668D01*
X3084039Y-16186808D01*
X3084039Y-16186807D01*
X3313065Y-16015360D01*
X3313077Y-16015350D01*
X3325825Y-16002602D01*
X2651038Y-15327815D01*
X2669336Y-15315589D01*
X2815589Y-15169336D01*
X2827815Y-15151038D01*
X3502602Y-15825825D01*
X3502603Y-15825825D01*
X3515350Y-15813077D01*
X3515360Y-15813065D01*
X3686807Y-15584039D01*
X3686811Y-15584033D01*
X3795638Y-15384731D01*
X3845043Y-15335325D01*
X3913316Y-15320473D01*
X3973360Y-15341054D01*
X4002456Y-15360495D01*
X4002459Y-15360496D01*
X4075371Y-15374999D01*
X4075374Y-15375000D01*
X4975000Y-15375000D01*
X5225000Y-15375000D01*
X6124626Y-15375000D01*
X6124628Y-15374999D01*
X6197540Y-15360496D01*
X6197544Y-15360494D01*
X6280239Y-15305239D01*
X6335494Y-15222544D01*
X6335496Y-15222540D01*
X6349999Y-15149628D01*
X11650000Y-15149628D01*
X11664503Y-15222540D01*
X11664505Y-15222544D01*
X11719760Y-15305239D01*
X11802455Y-15360494D01*
X11802459Y-15360496D01*
X11875371Y-15374999D01*
X11875374Y-15375000D01*
X12775000Y-15375000D01*
X12775000Y-14000000D01*
X11650000Y-14000000D01*
X11650000Y-15149628D01*
X6349999Y-15149628D01*
X6350000Y-15149626D01*
X6350000Y-14000000D01*
X5225000Y-14000000D01*
X5225000Y-15375000D01*
X4975000Y-15375000D01*
X4975000Y-13874000D01*
X4994685Y-13806961D01*
X5047489Y-13761206D01*
X5099000Y-13750000D01*
X6350000Y-13750000D01*
X6350000Y-13035044D01*
X6369685Y-12968005D01*
X6422489Y-12922250D01*
X6491647Y-12912306D01*
X6555203Y-12941331D01*
X6561681Y-12947363D01*
X7054787Y-13440469D01*
X7134712Y-13486614D01*
X7223856Y-13510500D01*
X7223858Y-13510500D01*
X8316142Y-13510500D01*
X8316144Y-13510500D01*
X8405288Y-13486614D01*
X8485212Y-13440470D01*
X8898863Y-13026819D01*
X8960186Y-12993334D01*
X8986544Y-12990500D01*
X9266142Y-12990500D01*
X9266144Y-12990500D01*
X9355288Y-12966614D01*
X9435212Y-12920470D01*
X9755311Y-12600371D01*
X11650000Y-12600371D01*
X11650000Y-13750000D01*
X12775000Y-13750000D01*
X12775000Y-12375000D01*
X11875373Y-12375000D01*
X11802459Y-12389503D01*
X11802455Y-12389505D01*
X11719760Y-12444760D01*
X11664505Y-12527455D01*
X11664503Y-12527459D01*
X11650000Y-12600371D01*
X9755311Y-12600371D01*
X9780470Y-12575212D01*
X9826614Y-12495288D01*
X9850500Y-12406144D01*
X9850500Y-12350401D01*
X9870185Y-12283362D01*
X9905610Y-12247298D01*
X9930601Y-12230601D01*
X9930601Y-12230600D01*
X9931563Y-12229958D01*
X9998241Y-12209082D01*
X10065620Y-12227568D01*
X10069342Y-12229960D01*
X10152455Y-12285494D01*
X10152459Y-12285496D01*
X10225371Y-12299999D01*
X10225374Y-12300000D01*
X10375000Y-12300000D01*
X10625000Y-12300000D01*
X10774626Y-12300000D01*
X10774628Y-12299999D01*
X10847540Y-12285496D01*
X10847544Y-12285494D01*
X10930239Y-12230239D01*
X10985494Y-12147544D01*
X10985496Y-12147540D01*
X10999999Y-12074628D01*
X11000000Y-12074626D01*
X11000000Y-11475000D01*
X10625000Y-11475000D01*
X10625000Y-12300000D01*
X10375000Y-12300000D01*
X10375000Y-11225000D01*
X10625000Y-11225000D01*
X11000000Y-11225000D01*
X11000000Y-10625373D01*
X10999999Y-10625371D01*
X10985496Y-10552459D01*
X10985494Y-10552455D01*
X10930239Y-10469760D01*
X10847544Y-10414505D01*
X10847540Y-10414503D01*
X10774627Y-10400000D01*
X10625000Y-10400000D01*
X10625000Y-11225000D01*
X10375000Y-11225000D01*
X10375000Y-10400000D01*
X10225373Y-10400000D01*
X10152459Y-10414503D01*
X10152456Y-10414504D01*
X10069340Y-10470040D01*
X10002662Y-10490917D01*
X9935282Y-10472432D01*
X9931560Y-10470040D01*
X9847739Y-10414033D01*
X9847735Y-10414032D01*
X9774677Y-10399500D01*
X9774674Y-10399500D01*
X9225326Y-10399500D01*
X9225323Y-10399500D01*
X9152264Y-10414032D01*
X9152260Y-10414033D01*
X9068890Y-10469739D01*
X9002212Y-10490616D01*
X8934832Y-10472131D01*
X8931110Y-10469739D01*
X8847739Y-10414033D01*
X8847735Y-10414032D01*
X8774677Y-10399500D01*
X8774674Y-10399500D01*
X8225326Y-10399500D01*
X8225323Y-10399500D01*
X8152264Y-10414032D01*
X8152258Y-10414034D01*
X8143387Y-10419962D01*
X8076708Y-10440837D01*
X8009329Y-10422350D01*
X7962641Y-10370369D01*
X7950500Y-10316857D01*
X7950500Y-10094500D01*
X7970185Y-10027461D01*
X8022989Y-9981706D01*
X8074500Y-9970500D01*
X11082035Y-9970500D01*
X11149074Y-9990185D01*
X11169715Y-10006818D01*
X12873386Y-11710490D01*
X12976113Y-11769799D01*
X13000321Y-11776284D01*
X13000324Y-11776286D01*
X13000325Y-11776286D01*
X13030447Y-11784357D01*
X13090691Y-11800500D01*
X13090693Y-11800500D01*
X16309308Y-11800500D01*
X16309309Y-11800500D01*
X16399673Y-11776286D01*
X16423887Y-11769799D01*
X16526614Y-11710489D01*
X17170490Y-11066614D01*
X17229799Y-10963886D01*
X17238825Y-10930201D01*
X17240065Y-10925576D01*
X17253437Y-10875667D01*
X17260500Y-10849309D01*
X17260500Y-6000691D01*
X17229799Y-5886114D01*
X17229799Y-5886113D01*
X17229799Y-5886112D01*
X17170492Y-5783389D01*
X17170488Y-5783384D01*
X16377608Y-4990504D01*
X15575102Y-4187999D01*
X15541618Y-4126677D01*
X15546602Y-4056985D01*
X15588474Y-4001052D01*
X15653938Y-3976635D01*
X15689143Y-3979153D01*
X15714640Y-3984699D01*
X15714637Y-3984699D01*
X15999999Y-4005109D01*
X16000001Y-4005109D01*
X16285362Y-3984699D01*
X16564895Y-3923890D01*
X16832958Y-3823908D01*
X17084038Y-3686808D01*
X17084039Y-3686807D01*
X17313065Y-3515360D01*
X17313077Y-3515350D01*
X17325825Y-3502602D01*
X16651038Y-2827815D01*
X16669336Y-2815589D01*
X16815589Y-2669336D01*
X16827815Y-2651038D01*
X17502602Y-3325825D01*
G37*
%TD.AperFunction*%
%TA.AperFunction,Conductor*%
G36*
X1184411Y-2669336D02*
G01*
X1330664Y-2815589D01*
X1348961Y-2827815D01*
X674175Y-3502602D01*
X686922Y-3515350D01*
X686934Y-3515360D01*
X915960Y-3686807D01*
X915961Y-3686808D01*
X1167042Y-3823908D01*
X1167041Y-3823908D01*
X1435104Y-3923890D01*
X1714637Y-3984699D01*
X1999999Y-4005109D01*
X2000001Y-4005109D01*
X2285362Y-3984699D01*
X2564898Y-3923889D01*
X2564904Y-3923887D01*
X2653655Y-3890785D01*
X2723346Y-3885800D01*
X2784670Y-3919284D01*
X2818155Y-3980607D01*
X2813171Y-4050299D01*
X2784670Y-4094647D01*
X2069531Y-4809786D01*
X2069529Y-4809789D01*
X2047247Y-4848384D01*
X2047246Y-4848386D01*
X2023386Y-4889711D01*
X1999500Y-4978856D01*
X1999500Y-7728456D01*
X1979815Y-7795495D01*
X1963181Y-7816137D01*
X1782032Y-7997285D01*
X1782028Y-7997291D01*
X1751308Y-8050500D01*
X1735887Y-8077209D01*
X1735886Y-8077212D01*
X1712000Y-8166356D01*
X1712000Y-8255442D01*
X1692315Y-8322481D01*
X1691103Y-8324332D01*
X1639033Y-8402260D01*
X1639032Y-8402264D01*
X1624500Y-8475321D01*
X1624500Y-9024678D01*
X1639032Y-9097735D01*
X1639033Y-9097739D01*
X1656343Y-9123645D01*
X1694399Y-9180601D01*
X1768054Y-9229815D01*
X1777260Y-9235966D01*
X1777264Y-9235967D01*
X1850321Y-9250499D01*
X1850324Y-9250500D01*
X1850326Y-9250500D01*
X2274674Y-9250500D01*
X2327093Y-9240073D01*
X2375475Y-9240073D01*
X2425376Y-9250000D01*
X2475000Y-9250000D01*
X2475000Y-9148880D01*
X2484440Y-9101424D01*
X2485440Y-9099010D01*
X2529283Y-9044608D01*
X2595578Y-9022545D01*
X2663277Y-9039826D01*
X2710886Y-9090965D01*
X2714560Y-9099010D01*
X2715560Y-9101424D01*
X2725000Y-9148880D01*
X2725000Y-9250000D01*
X2747868Y-9272868D01*
X2781353Y-9334191D01*
X2776369Y-9403883D01*
X2734497Y-9459816D01*
X2722194Y-9467932D01*
X2719443Y-9469520D01*
X2719435Y-9469526D01*
X2369438Y-9819525D01*
X2299527Y-9889435D01*
X2294577Y-9895887D01*
X2293064Y-9894726D01*
X2250078Y-9935715D01*
X2193257Y-9949500D01*
X1850323Y-9949500D01*
X1777264Y-9964032D01*
X1777260Y-9964033D01*
X1694399Y-10019399D01*
X1639033Y-10102260D01*
X1639032Y-10102264D01*
X1624500Y-10175321D01*
X1624500Y-10724678D01*
X1639032Y-10797735D01*
X1639033Y-10797739D01*
X1639034Y-10797740D01*
X1691102Y-10875667D01*
X1699865Y-10888781D01*
X1716536Y-10925576D01*
X1726801Y-10963884D01*
X1726802Y-10963885D01*
X1735886Y-10997789D01*
X1735887Y-10997790D01*
X1782027Y-11077708D01*
X1782031Y-11077713D01*
X2113181Y-11408862D01*
X2146666Y-11470185D01*
X2149500Y-11496543D01*
X2149500Y-11656144D01*
X2164062Y-11710488D01*
X2173386Y-11745287D01*
X2173387Y-11745290D01*
X2219527Y-11825208D01*
X2219531Y-11825213D01*
X2808593Y-12414275D01*
X2842078Y-12475598D01*
X2837094Y-12545290D01*
X2795222Y-12601223D01*
X2729758Y-12625640D01*
X2677579Y-12618138D01*
X2564897Y-12576110D01*
X2285362Y-12515300D01*
X2000001Y-12494891D01*
X1999999Y-12494891D01*
X1714637Y-12515300D01*
X1435104Y-12576109D01*
X1167041Y-12676091D01*
X915961Y-12813191D01*
X915960Y-12813192D01*
X686934Y-12984639D01*
X686922Y-12984649D01*
X674175Y-12997397D01*
X674175Y-12997398D01*
X1348961Y-13672184D01*
X1330664Y-13684411D01*
X1184411Y-13830664D01*
X1172184Y-13848961D01*
X497398Y-13174175D01*
X497397Y-13174175D01*
X484649Y-13186922D01*
X484639Y-13186934D01*
X313192Y-13415960D01*
X313191Y-13415961D01*
X258332Y-13516429D01*
X208927Y-13565834D01*
X140654Y-13580686D01*
X75189Y-13556269D01*
X33318Y-13500335D01*
X25500Y-13457002D01*
X25500Y-3042997D01*
X45185Y-2975958D01*
X97989Y-2930203D01*
X167147Y-2920259D01*
X230703Y-2949284D01*
X258332Y-2983570D01*
X313191Y-3084039D01*
X484639Y-3313065D01*
X484649Y-3313077D01*
X497397Y-3325825D01*
X497398Y-3325825D01*
X1172184Y-2651038D01*
X1184411Y-2669336D01*
G37*
%TD.AperFunction*%
%TA.AperFunction,Conductor*%
G36*
X3793039Y-12610185D02*
G01*
X3838794Y-12662989D01*
X3850000Y-12714500D01*
X3850000Y-13261399D01*
X3830315Y-13328438D01*
X3777511Y-13374193D01*
X3708353Y-13384137D01*
X3644797Y-13355112D01*
X3626733Y-13335710D01*
X3515360Y-13186934D01*
X3515350Y-13186922D01*
X3502603Y-13174175D01*
X3502602Y-13174175D01*
X2827815Y-13848961D01*
X2815589Y-13830664D01*
X2669336Y-13684411D01*
X2651038Y-13672184D01*
X3325825Y-12997398D01*
X3325825Y-12997397D01*
X3313077Y-12984649D01*
X3313059Y-12984633D01*
X3084808Y-12813767D01*
X3042936Y-12757834D01*
X3037952Y-12688142D01*
X3071437Y-12626819D01*
X3132760Y-12593334D01*
X3159118Y-12590500D01*
X3176144Y-12590500D01*
X3726000Y-12590500D01*
X3793039Y-12610185D01*
G37*
%TD.AperFunction*%
%TA.AperFunction,Conductor*%
G36*
X3749334Y-4898861D02*
G01*
X3805267Y-4940733D01*
X3829684Y-5006197D01*
X3830000Y-5015043D01*
X3830000Y-5455000D01*
X4380000Y-5455000D01*
X4380000Y-5705000D01*
X3830000Y-5705000D01*
X3830000Y-6213722D01*
X3862663Y-6377928D01*
X3862665Y-6377936D01*
X3926740Y-6532627D01*
X3926740Y-6532628D01*
X4019758Y-6671839D01*
X4019764Y-6671847D01*
X4138152Y-6790235D01*
X4138160Y-6790241D01*
X4277371Y-6883259D01*
X4432063Y-6947334D01*
X4432071Y-6947336D01*
X4600191Y-6980778D01*
X4662102Y-7013163D01*
X4696676Y-7073878D01*
X4700000Y-7102395D01*
X4700000Y-7850000D01*
X5270237Y-7850000D01*
X5337276Y-7869685D01*
X5383031Y-7922489D01*
X5392975Y-7991647D01*
X5363950Y-8055203D01*
X5355021Y-8063614D01*
X5355185Y-8063778D01*
X4060782Y-9358181D01*
X3999459Y-9391666D01*
X3973101Y-9394500D01*
X3591064Y-9394500D01*
X3524025Y-9374815D01*
X3478270Y-9322011D01*
X3468326Y-9252853D01*
X3497351Y-9189297D01*
X3503383Y-9182819D01*
X3505598Y-9180603D01*
X3505597Y-9180603D01*
X3505601Y-9180601D01*
X3560966Y-9097740D01*
X3575500Y-9024674D01*
X3575500Y-8475326D01*
X3575500Y-8475323D01*
X3575499Y-8475321D01*
X3560967Y-8402264D01*
X3560966Y-8402260D01*
X3508897Y-8324332D01*
X3488020Y-8257654D01*
X3488000Y-8255442D01*
X3488000Y-8141358D01*
X3488000Y-8141356D01*
X3464114Y-8052212D01*
X3464113Y-8052210D01*
X3463132Y-8050510D01*
X3463132Y-8050511D01*
X3463126Y-8050500D01*
X3417970Y-7972288D01*
X3261819Y-7816137D01*
X3228334Y-7754814D01*
X3225500Y-7728456D01*
X3225500Y-5371543D01*
X3245185Y-5304504D01*
X3261814Y-5283867D01*
X3618321Y-4927360D01*
X3679642Y-4893877D01*
X3749334Y-4898861D01*
G37*
%TD.AperFunction*%
%TA.AperFunction,Conductor*%
G36*
X14229074Y-4120185D02*
G01*
X14249716Y-4136819D01*
X16323181Y-6210284D01*
X16356666Y-6271607D01*
X16359500Y-6297965D01*
X16359500Y-8001158D01*
X16339815Y-8068197D01*
X16287011Y-8113952D01*
X16232102Y-8124567D01*
X16232102Y-8125000D01*
X16229864Y-8125000D01*
X16229740Y-8125024D01*
X16229224Y-8125000D01*
X16025000Y-8125000D01*
X16025000Y-8776000D01*
X16005315Y-8843039D01*
X15952511Y-8888794D01*
X15901000Y-8900000D01*
X13775001Y-8900000D01*
X13775001Y-9029196D01*
X13777851Y-9059607D01*
X13786578Y-9084544D01*
X13790141Y-9154323D01*
X13755412Y-9214951D01*
X13693419Y-9247178D01*
X13669537Y-9249500D01*
X13496544Y-9249500D01*
X13429505Y-9229815D01*
X13408863Y-9213181D01*
X12716475Y-8520793D01*
X13775000Y-8520793D01*
X13775000Y-8650000D01*
X14375000Y-8650000D01*
X14625000Y-8650000D01*
X15775000Y-8650000D01*
X15775000Y-8125000D01*
X15570804Y-8125000D01*
X15540393Y-8127851D01*
X15412354Y-8172653D01*
X15303205Y-8253209D01*
X15299767Y-8257868D01*
X15244118Y-8300117D01*
X15174462Y-8305573D01*
X15112914Y-8272503D01*
X15100233Y-8257868D01*
X15096794Y-8253209D01*
X14987645Y-8172653D01*
X14859602Y-8127850D01*
X14829207Y-8125000D01*
X14625000Y-8125000D01*
X14625000Y-8650000D01*
X14375000Y-8650000D01*
X14375000Y-8125000D01*
X14170804Y-8125000D01*
X14140393Y-8127851D01*
X14012354Y-8172653D01*
X13903207Y-8253207D01*
X13822653Y-8362354D01*
X13777850Y-8490395D01*
X13777850Y-8490399D01*
X13775000Y-8520793D01*
X12716475Y-8520793D01*
X12259465Y-8063783D01*
X12261302Y-8061945D01*
X12227715Y-8015940D01*
X12223565Y-7946194D01*
X12257781Y-7885276D01*
X12319501Y-7852527D01*
X12344407Y-7850000D01*
X13300000Y-7850000D01*
X13300000Y-7102395D01*
X13319685Y-7035356D01*
X13372489Y-6989601D01*
X13399809Y-6980778D01*
X13567928Y-6947336D01*
X13567936Y-6947334D01*
X13722627Y-6883259D01*
X13722628Y-6883259D01*
X13861839Y-6790241D01*
X13861847Y-6790235D01*
X13980235Y-6671847D01*
X13980241Y-6671839D01*
X14073259Y-6532628D01*
X14073259Y-6532627D01*
X14137334Y-6377936D01*
X14137336Y-6377928D01*
X14169999Y-6213722D01*
X14170000Y-6213720D01*
X14170000Y-5705000D01*
X13620000Y-5705000D01*
X13620000Y-5455000D01*
X14170000Y-5455000D01*
X14170000Y-4946279D01*
X14169999Y-4946277D01*
X14137336Y-4782071D01*
X14137334Y-4782063D01*
X14073259Y-4627372D01*
X14073259Y-4627371D01*
X13980241Y-4488160D01*
X13980235Y-4488152D01*
X13861846Y-4369763D01*
X13798748Y-4327603D01*
X13753942Y-4273990D01*
X13745235Y-4204666D01*
X13775389Y-4141638D01*
X13834832Y-4104918D01*
X13867638Y-4100500D01*
X14162035Y-4100500D01*
X14229074Y-4120185D01*
G37*
%TD.AperFunction*%
%TA.AperFunction,Conductor*%
G36*
X13177888Y-45185D02*
G01*
X13223643Y-97989D01*
X13233587Y-167147D01*
X13204562Y-230703D01*
X13145784Y-268477D01*
X13135040Y-271117D01*
X13086656Y-280741D01*
X13086648Y-280743D01*
X12941060Y-341047D01*
X12941051Y-341052D01*
X12810030Y-428598D01*
X12810026Y-428601D01*
X12698601Y-540026D01*
X12698598Y-540030D01*
X12611052Y-671051D01*
X12611047Y-671060D01*
X12550743Y-816648D01*
X12550741Y-816656D01*
X12520000Y-971202D01*
X12520000Y-1275000D01*
X13020000Y-1275000D01*
X13020000Y-1525000D01*
X12520000Y-1525000D01*
X12520000Y-1828797D01*
X12550741Y-1983343D01*
X12550743Y-1983351D01*
X12611047Y-2128939D01*
X12611052Y-2128948D01*
X12698598Y-2259969D01*
X12698601Y-2259973D01*
X12810026Y-2371398D01*
X12810030Y-2371401D01*
X12941051Y-2458947D01*
X12941060Y-2458952D01*
X13086648Y-2519256D01*
X13086656Y-2519258D01*
X13194999Y-2540809D01*
X13195000Y-2540809D01*
X13195000Y-1974242D01*
X13204204Y-1979556D01*
X13280504Y-2000000D01*
X13359496Y-2000000D01*
X13435796Y-1979556D01*
X13445000Y-1974242D01*
X13445000Y-2540809D01*
X13553343Y-2519258D01*
X13553351Y-2519256D01*
X13698939Y-2458952D01*
X13698948Y-2458947D01*
X13829969Y-2371401D01*
X13829971Y-2371399D01*
X13836980Y-2364391D01*
X13898302Y-2330903D01*
X13967993Y-2335884D01*
X14023929Y-2377753D01*
X14045831Y-2425709D01*
X14076110Y-2564896D01*
X14176091Y-2832958D01*
X14276080Y-3016073D01*
X14290932Y-3084346D01*
X14266515Y-3149810D01*
X14210582Y-3191682D01*
X14167248Y-3199500D01*
X11840691Y-3199500D01*
X11765934Y-3219530D01*
X11765935Y-3219531D01*
X11726111Y-3230201D01*
X11623386Y-3289511D01*
X11623383Y-3289513D01*
X10664513Y-4248383D01*
X10664509Y-4248389D01*
X10605201Y-4351112D01*
X10605200Y-4351117D01*
X10574500Y-4465691D01*
X10574500Y-5326000D01*
X10554815Y-5393039D01*
X10502011Y-5438794D01*
X10450500Y-5450000D01*
X10224500Y-5450000D01*
X10157461Y-5430315D01*
X10111706Y-5377511D01*
X10100500Y-5326000D01*
X10100500Y-4903858D01*
X10100500Y-4903856D01*
X10076614Y-4814712D01*
X10048079Y-4765288D01*
X10030470Y-4734788D01*
X9226717Y-3931035D01*
X9193232Y-3869712D01*
X9198216Y-3800020D01*
X9199837Y-3795901D01*
X9245044Y-3686762D01*
X9265682Y-3530000D01*
X9263753Y-3515350D01*
X9249445Y-3406664D01*
X9245044Y-3373238D01*
X9184536Y-3227159D01*
X9088282Y-3101718D01*
X8962841Y-3005464D01*
X8948836Y-2999663D01*
X8816762Y-2944956D01*
X8816760Y-2944955D01*
X8660001Y-2924318D01*
X8659999Y-2924318D01*
X8503239Y-2944955D01*
X8503237Y-2944956D01*
X8357160Y-3005463D01*
X8231718Y-3101718D01*
X8135463Y-3227160D01*
X8085627Y-3347475D01*
X8041786Y-3401878D01*
X7975491Y-3423943D01*
X7907792Y-3406664D01*
X7883385Y-3387703D01*
X7715213Y-3219531D01*
X7715208Y-3219527D01*
X7635290Y-3173387D01*
X7635289Y-3173386D01*
X7635288Y-3173386D01*
X7546144Y-3149500D01*
X3860054Y-3149500D01*
X3793015Y-3129815D01*
X3747260Y-3077011D01*
X3737316Y-3007853D01*
X3751222Y-2966073D01*
X3823908Y-2832958D01*
X3923890Y-2564895D01*
X3954168Y-2425710D01*
X3987653Y-2364387D01*
X4048976Y-2330902D01*
X4118667Y-2335886D01*
X4163015Y-2364387D01*
X4170026Y-2371398D01*
X4170030Y-2371401D01*
X4301051Y-2458947D01*
X4301060Y-2458952D01*
X4446648Y-2519256D01*
X4446656Y-2519258D01*
X4554999Y-2540809D01*
X4555000Y-2540809D01*
X4555000Y-1974242D01*
X4564204Y-1979556D01*
X4640504Y-2000000D01*
X4719496Y-2000000D01*
X4795796Y-1979556D01*
X4805000Y-1974242D01*
X4805000Y-2540809D01*
X4913343Y-2519258D01*
X4913351Y-2519256D01*
X5058939Y-2458952D01*
X5058948Y-2458947D01*
X5189969Y-2371401D01*
X5189973Y-2371398D01*
X5301398Y-2259973D01*
X5301401Y-2259969D01*
X5388947Y-2128948D01*
X5388952Y-2128939D01*
X5449256Y-1983351D01*
X5449258Y-1983343D01*
X5479999Y-1828797D01*
X5480000Y-1828794D01*
X5480000Y-1525000D01*
X4980000Y-1525000D01*
X4980000Y-1275000D01*
X5480000Y-1275000D01*
X5480000Y-971206D01*
X5479999Y-971202D01*
X5449258Y-816656D01*
X5449256Y-816648D01*
X5388952Y-671060D01*
X5388947Y-671051D01*
X5301401Y-540030D01*
X5301398Y-540026D01*
X5189973Y-428601D01*
X5189969Y-428598D01*
X5058948Y-341052D01*
X5058939Y-341047D01*
X4913351Y-280743D01*
X4913343Y-280741D01*
X4864960Y-271117D01*
X4803049Y-238732D01*
X4768475Y-178017D01*
X4772214Y-108247D01*
X4813080Y-51575D01*
X4878099Y-25994D01*
X4889151Y-25500D01*
X13110849Y-25500D01*
X13177888Y-45185D01*
G37*
%TD.AperFunction*%
%TA.AperFunction,Conductor*%
G36*
X4537888Y-45185D02*
G01*
X4583643Y-97989D01*
X4593587Y-167147D01*
X4564562Y-230703D01*
X4505784Y-268477D01*
X4495040Y-271117D01*
X4446656Y-280741D01*
X4446648Y-280743D01*
X4301060Y-341047D01*
X4301051Y-341052D01*
X4170030Y-428598D01*
X4170026Y-428601D01*
X4058601Y-540026D01*
X4058598Y-540030D01*
X3971052Y-671051D01*
X3971047Y-671060D01*
X3910743Y-816648D01*
X3910741Y-816654D01*
X3902371Y-858734D01*
X3869985Y-920645D01*
X3809269Y-955219D01*
X3739500Y-951478D01*
X3682828Y-910611D01*
X3681487Y-908852D01*
X3515366Y-686940D01*
X3515350Y-686922D01*
X3502603Y-674175D01*
X3502602Y-674175D01*
X2827815Y-1348961D01*
X2815589Y-1330664D01*
X2669336Y-1184411D01*
X2651038Y-1172184D01*
X3325825Y-497398D01*
X3325825Y-497397D01*
X3313077Y-484649D01*
X3313065Y-484639D01*
X3084039Y-313192D01*
X3084039Y-313191D01*
X2983570Y-258332D01*
X2934165Y-208927D01*
X2919313Y-140654D01*
X2943730Y-75190D01*
X2999663Y-33318D01*
X3042997Y-25500D01*
X4470849Y-25500D01*
X4537888Y-45185D01*
G37*
%TD.AperFunction*%
%TA.AperFunction,Conductor*%
G36*
X15024042Y-45185D02*
G01*
X15069797Y-97989D01*
X15079741Y-167147D01*
X15050716Y-230703D01*
X15016430Y-258332D01*
X14915960Y-313191D01*
X14915960Y-313192D01*
X14686934Y-484639D01*
X14686922Y-484649D01*
X14674175Y-497397D01*
X14674175Y-497398D01*
X15348961Y-1172184D01*
X15330664Y-1184411D01*
X15184411Y-1330664D01*
X15172184Y-1348961D01*
X14497398Y-674175D01*
X14497397Y-674175D01*
X14484649Y-686922D01*
X14484639Y-686934D01*
X14318512Y-908853D01*
X14262578Y-950724D01*
X14192887Y-955708D01*
X14131564Y-922223D01*
X14098079Y-860900D01*
X14097627Y-858732D01*
X14089256Y-816648D01*
X14028952Y-671060D01*
X14028947Y-671051D01*
X13941401Y-540030D01*
X13941398Y-540026D01*
X13829973Y-428601D01*
X13829969Y-428598D01*
X13698948Y-341052D01*
X13698939Y-341047D01*
X13553351Y-280743D01*
X13553343Y-280741D01*
X13504960Y-271117D01*
X13443049Y-238732D01*
X13408475Y-178017D01*
X13412214Y-108247D01*
X13453080Y-51575D01*
X13518099Y-25994D01*
X13529151Y-25500D01*
X14957003Y-25500D01*
X15024042Y-45185D01*
G37*
%TD.AperFunction*%
%TD*%
D30*
X16000000Y0D02*
X2000000Y0D01*
X0Y-2000000D02*
G75*
G02*
X2000000Y0I2000000J0D01*
G01*
X18000000Y-14500000D02*
G75*
G02*
X16000000Y-16500000I-2000000J0D01*
G01*
X18000000Y-14500000D02*
X18000000Y-2000000D01*
X2000000Y-16500000D02*
G75*
G02*
X0Y-14500000I0J2000000D01*
G01*
X2000000Y-16500000D02*
X16000000Y-16500000D01*
X0Y-2000000D02*
X0Y-14500000D01*
X16000000Y0D02*
G75*
G02*
X18000000Y-2000000I0J-2000000D01*
G01*
M02*
