%TF.GenerationSoftware,KiCad,Pcbnew,(5.1.10)-1*%
%TF.CreationDate,2021-07-01T01:20:01+08:00*%
%TF.ProjectId,u1,75312e6b-6963-4616-945f-706362585858,rev?*%
%TF.SameCoordinates,Original*%
%TF.FileFunction,Copper,L2,Bot*%
%TF.FilePolarity,Positive*%
%FSLAX46Y46*%
G04 Gerber Fmt 4.6, Leading zero omitted, Abs format (unit mm)*
G04 Created by KiCad (PCBNEW (5.1.10)-1) date 2021-07-01 01:20:01*
%MOMM*%
%LPD*%
G01*
G04 APERTURE LIST*
%TA.AperFunction,EtchedComponent*%
%ADD10C,0.010000*%
%TD*%
%TA.AperFunction,EtchedComponent*%
%ADD11C,0.100000*%
%TD*%
%TA.AperFunction,ComponentPad*%
%ADD12O,1.200000X2.300000*%
%TD*%
%TA.AperFunction,ComponentPad*%
%ADD13O,1.100000X1.800000*%
%TD*%
%TA.AperFunction,ComponentPad*%
%ADD14C,3.800000*%
%TD*%
%TA.AperFunction,ViaPad*%
%ADD15C,0.700000*%
%TD*%
%TA.AperFunction,Conductor*%
%ADD16C,0.200000*%
%TD*%
%TA.AperFunction,Conductor*%
%ADD17C,0.127000*%
%TD*%
%TA.AperFunction,Conductor*%
%ADD18C,0.100000*%
%TD*%
G04 APERTURE END LIST*
D10*
%TO.C,G\u002A\u002A\u002A*%
G36*
X106725344Y-100637122D02*
G01*
X106623673Y-100649320D01*
X106526958Y-100675134D01*
X106431137Y-100714291D01*
X106306755Y-100784833D01*
X106197823Y-100872105D01*
X106105448Y-100974813D01*
X106030739Y-101091660D01*
X105974802Y-101221351D01*
X105961481Y-101263838D01*
X105942931Y-101354400D01*
X105934132Y-101457180D01*
X105935086Y-101563464D01*
X105945791Y-101664540D01*
X105961481Y-101736161D01*
X106010392Y-101866124D01*
X106078386Y-101985340D01*
X106163432Y-102091888D01*
X106263501Y-102183843D01*
X106376562Y-102259282D01*
X106500585Y-102316282D01*
X106606598Y-102347372D01*
X106678517Y-102358489D01*
X106762949Y-102363898D01*
X106850644Y-102363563D01*
X106932358Y-102357450D01*
X106985319Y-102348797D01*
X107115786Y-102308520D01*
X107237617Y-102248220D01*
X107348594Y-102170021D01*
X107446502Y-102076043D01*
X107529125Y-101968410D01*
X107594247Y-101849244D01*
X107639122Y-101722674D01*
X107656134Y-101631464D01*
X107663530Y-101528514D01*
X107662930Y-101500000D01*
X107227773Y-101500000D01*
X107226906Y-101555525D01*
X107223312Y-101596127D01*
X107215505Y-101629939D01*
X107201997Y-101665096D01*
X107194590Y-101681522D01*
X107147699Y-101758236D01*
X107083994Y-101826388D01*
X107008721Y-101881583D01*
X106927124Y-101919427D01*
X106901793Y-101926842D01*
X106867692Y-101931923D01*
X106821001Y-101934541D01*
X106774563Y-101934202D01*
X106723853Y-101930007D01*
X106680964Y-101920448D01*
X106635286Y-101902646D01*
X106604892Y-101888181D01*
X106521677Y-101835598D01*
X106455714Y-101770545D01*
X106406993Y-101695890D01*
X106375507Y-101614502D01*
X106361245Y-101529249D01*
X106364201Y-101442999D01*
X106384364Y-101358621D01*
X106421726Y-101278983D01*
X106476278Y-101206954D01*
X106548012Y-101145402D01*
X106607269Y-101110663D01*
X106651839Y-101089488D01*
X106686332Y-101076578D01*
X106719666Y-101069928D01*
X106760757Y-101067531D01*
X106800032Y-101067314D01*
X106855710Y-101068565D01*
X106896821Y-101073009D01*
X106931827Y-101082187D01*
X106969193Y-101097640D01*
X106970917Y-101098439D01*
X107046852Y-101144113D01*
X107115528Y-101205090D01*
X107170826Y-101275347D01*
X107194590Y-101318478D01*
X107210820Y-101356483D01*
X107220750Y-101389860D01*
X107225866Y-101426741D01*
X107227656Y-101475261D01*
X107227773Y-101500000D01*
X107662930Y-101500000D01*
X107661309Y-101423073D01*
X107649473Y-101324395D01*
X107639122Y-101277326D01*
X107600148Y-101162022D01*
X107546305Y-101058066D01*
X107474586Y-100960355D01*
X107412849Y-100893655D01*
X107314307Y-100804909D01*
X107215720Y-100736988D01*
X107112873Y-100688006D01*
X107001554Y-100656078D01*
X106877549Y-100639317D01*
X106839729Y-100637073D01*
X106725344Y-100637122D01*
G37*
X106725344Y-100637122D02*
X106623673Y-100649320D01*
X106526958Y-100675134D01*
X106431137Y-100714291D01*
X106306755Y-100784833D01*
X106197823Y-100872105D01*
X106105448Y-100974813D01*
X106030739Y-101091660D01*
X105974802Y-101221351D01*
X105961481Y-101263838D01*
X105942931Y-101354400D01*
X105934132Y-101457180D01*
X105935086Y-101563464D01*
X105945791Y-101664540D01*
X105961481Y-101736161D01*
X106010392Y-101866124D01*
X106078386Y-101985340D01*
X106163432Y-102091888D01*
X106263501Y-102183843D01*
X106376562Y-102259282D01*
X106500585Y-102316282D01*
X106606598Y-102347372D01*
X106678517Y-102358489D01*
X106762949Y-102363898D01*
X106850644Y-102363563D01*
X106932358Y-102357450D01*
X106985319Y-102348797D01*
X107115786Y-102308520D01*
X107237617Y-102248220D01*
X107348594Y-102170021D01*
X107446502Y-102076043D01*
X107529125Y-101968410D01*
X107594247Y-101849244D01*
X107639122Y-101722674D01*
X107656134Y-101631464D01*
X107663530Y-101528514D01*
X107662930Y-101500000D01*
X107227773Y-101500000D01*
X107226906Y-101555525D01*
X107223312Y-101596127D01*
X107215505Y-101629939D01*
X107201997Y-101665096D01*
X107194590Y-101681522D01*
X107147699Y-101758236D01*
X107083994Y-101826388D01*
X107008721Y-101881583D01*
X106927124Y-101919427D01*
X106901793Y-101926842D01*
X106867692Y-101931923D01*
X106821001Y-101934541D01*
X106774563Y-101934202D01*
X106723853Y-101930007D01*
X106680964Y-101920448D01*
X106635286Y-101902646D01*
X106604892Y-101888181D01*
X106521677Y-101835598D01*
X106455714Y-101770545D01*
X106406993Y-101695890D01*
X106375507Y-101614502D01*
X106361245Y-101529249D01*
X106364201Y-101442999D01*
X106384364Y-101358621D01*
X106421726Y-101278983D01*
X106476278Y-101206954D01*
X106548012Y-101145402D01*
X106607269Y-101110663D01*
X106651839Y-101089488D01*
X106686332Y-101076578D01*
X106719666Y-101069928D01*
X106760757Y-101067531D01*
X106800032Y-101067314D01*
X106855710Y-101068565D01*
X106896821Y-101073009D01*
X106931827Y-101082187D01*
X106969193Y-101097640D01*
X106970917Y-101098439D01*
X107046852Y-101144113D01*
X107115528Y-101205090D01*
X107170826Y-101275347D01*
X107194590Y-101318478D01*
X107210820Y-101356483D01*
X107220750Y-101389860D01*
X107225866Y-101426741D01*
X107227656Y-101475261D01*
X107227773Y-101500000D01*
X107662930Y-101500000D01*
X107661309Y-101423073D01*
X107649473Y-101324395D01*
X107639122Y-101277326D01*
X107600148Y-101162022D01*
X107546305Y-101058066D01*
X107474586Y-100960355D01*
X107412849Y-100893655D01*
X107314307Y-100804909D01*
X107215720Y-100736988D01*
X107112873Y-100688006D01*
X107001554Y-100656078D01*
X106877549Y-100639317D01*
X106839729Y-100637073D01*
X106725344Y-100637122D01*
G36*
X111011067Y-99766681D02*
G01*
X110826497Y-99792614D01*
X110648454Y-99835541D01*
X110481125Y-99894248D01*
X110339273Y-99961679D01*
X110292174Y-99987874D01*
X110248848Y-100013327D01*
X110207549Y-100039538D01*
X110166531Y-100068010D01*
X110124049Y-100100244D01*
X110078357Y-100137742D01*
X110027709Y-100182006D01*
X109970360Y-100234537D01*
X109904564Y-100296838D01*
X109828576Y-100370410D01*
X109740649Y-100456754D01*
X109639039Y-100557372D01*
X109588819Y-100607277D01*
X109121228Y-101072261D01*
X109274064Y-101225321D01*
X109426899Y-101378381D01*
X109874427Y-100932965D01*
X109960999Y-100847207D01*
X110044834Y-100764935D01*
X110124116Y-100687878D01*
X110197029Y-100617765D01*
X110261758Y-100556329D01*
X110316487Y-100505297D01*
X110359400Y-100466401D01*
X110388682Y-100441369D01*
X110397000Y-100435039D01*
X110547628Y-100342609D01*
X110703625Y-100272560D01*
X110865793Y-100224636D01*
X111034934Y-100198584D01*
X111159001Y-100193225D01*
X111332645Y-100204438D01*
X111500555Y-100237558D01*
X111661105Y-100291806D01*
X111812669Y-100366402D01*
X111953621Y-100460567D01*
X112082336Y-100573521D01*
X112180046Y-100682648D01*
X112239446Y-100766101D01*
X112297731Y-100865006D01*
X112351130Y-100971876D01*
X112395875Y-101079225D01*
X112425877Y-101170954D01*
X112437311Y-101214154D01*
X112445627Y-101251497D01*
X112451316Y-101288071D01*
X112454870Y-101328959D01*
X112456779Y-101379247D01*
X112457534Y-101444019D01*
X112457639Y-101500000D01*
X112457395Y-101577774D01*
X112456337Y-101637544D01*
X112453974Y-101684395D01*
X112449815Y-101723413D01*
X112443369Y-101759682D01*
X112434145Y-101798287D01*
X112425877Y-101829045D01*
X112392274Y-101930330D01*
X112346589Y-102037944D01*
X112292592Y-102144400D01*
X112234051Y-102242213D01*
X112180046Y-102317351D01*
X112067233Y-102441859D01*
X111942570Y-102547753D01*
X111802837Y-102637638D01*
X111749129Y-102666125D01*
X111600007Y-102731434D01*
X111451408Y-102775746D01*
X111297867Y-102800363D01*
X111159000Y-102806774D01*
X110984564Y-102796031D01*
X110817673Y-102763623D01*
X110657471Y-102709276D01*
X110503101Y-102632719D01*
X110397000Y-102565034D01*
X110378301Y-102549484D01*
X110343951Y-102518144D01*
X110294563Y-102471616D01*
X110230751Y-102410501D01*
X110153130Y-102335399D01*
X110062312Y-102246911D01*
X109958913Y-102145639D01*
X109843544Y-102032183D01*
X109716821Y-101907144D01*
X109579357Y-101771123D01*
X109431765Y-101624722D01*
X109274660Y-101468540D01*
X109132773Y-101327223D01*
X108966016Y-101161007D01*
X108814714Y-101010252D01*
X108677965Y-100874121D01*
X108554865Y-100751777D01*
X108444513Y-100642382D01*
X108346006Y-100545100D01*
X108258442Y-100459094D01*
X108180918Y-100383525D01*
X108112532Y-100317558D01*
X108052382Y-100260354D01*
X107999564Y-100211077D01*
X107953177Y-100168890D01*
X107912318Y-100132956D01*
X107876085Y-100102437D01*
X107843576Y-100076496D01*
X107813887Y-100054296D01*
X107786116Y-100035000D01*
X107759362Y-100017772D01*
X107732721Y-100001772D01*
X107705292Y-99986166D01*
X107676171Y-99970115D01*
X107660728Y-99961679D01*
X107504602Y-99888295D01*
X107335550Y-99830447D01*
X107158604Y-99789160D01*
X106978801Y-99765459D01*
X106801174Y-99760371D01*
X106701509Y-99766316D01*
X106542504Y-99786479D01*
X106398586Y-99816273D01*
X106263094Y-99857578D01*
X106129364Y-99912272D01*
X106053338Y-99949157D01*
X105901806Y-100035450D01*
X105764497Y-100133561D01*
X105634318Y-100248659D01*
X105611753Y-100270919D01*
X105479221Y-100418387D01*
X105367344Y-100575175D01*
X105274868Y-100743317D01*
X105200538Y-100924845D01*
X105191279Y-100952135D01*
X105155021Y-101072802D01*
X105129666Y-101185713D01*
X105113898Y-101299253D01*
X105106402Y-101421807D01*
X105105325Y-101500000D01*
X105108643Y-101631583D01*
X105119472Y-101749308D01*
X105139127Y-101861559D01*
X105168926Y-101976722D01*
X105191279Y-102047864D01*
X105263106Y-102231482D01*
X105352899Y-102401421D01*
X105461912Y-102559715D01*
X105591401Y-102708396D01*
X105611753Y-102729080D01*
X105760002Y-102861720D01*
X105920332Y-102975550D01*
X106091012Y-103069934D01*
X106270310Y-103144239D01*
X106456495Y-103197831D01*
X106647836Y-103230076D01*
X106842600Y-103240340D01*
X106988934Y-103233318D01*
X107173504Y-103207385D01*
X107351547Y-103164458D01*
X107518876Y-103105751D01*
X107660728Y-103038320D01*
X107707827Y-103012125D01*
X107751153Y-102986673D01*
X107792452Y-102960461D01*
X107833470Y-102931989D01*
X107875952Y-102899755D01*
X107921644Y-102862257D01*
X107972292Y-102817993D01*
X108029641Y-102765462D01*
X108095437Y-102703161D01*
X108171425Y-102629590D01*
X108259352Y-102543245D01*
X108360962Y-102442627D01*
X108411182Y-102392723D01*
X108878773Y-101927738D01*
X108725935Y-101774676D01*
X108573097Y-101621615D01*
X108119799Y-102073375D01*
X108013035Y-102179545D01*
X107920744Y-102270676D01*
X107841243Y-102348224D01*
X107772847Y-102413647D01*
X107713871Y-102468400D01*
X107662631Y-102513940D01*
X107617442Y-102551724D01*
X107576620Y-102583207D01*
X107538480Y-102609847D01*
X107501337Y-102633099D01*
X107463507Y-102654420D01*
X107424046Y-102674894D01*
X107281647Y-102734369D01*
X107128297Y-102776208D01*
X106968286Y-102800122D01*
X106805904Y-102805822D01*
X106645443Y-102793017D01*
X106491193Y-102761417D01*
X106428312Y-102742139D01*
X106267486Y-102675526D01*
X106117630Y-102589286D01*
X105980694Y-102484777D01*
X105858622Y-102363359D01*
X105819955Y-102317351D01*
X105760555Y-102233898D01*
X105702270Y-102134993D01*
X105648871Y-102028123D01*
X105604126Y-101920774D01*
X105574124Y-101829045D01*
X105562690Y-101785846D01*
X105554374Y-101748502D01*
X105548685Y-101711928D01*
X105545131Y-101671040D01*
X105543222Y-101620752D01*
X105542467Y-101555980D01*
X105542362Y-101500000D01*
X105542606Y-101422226D01*
X105543664Y-101362455D01*
X105546027Y-101315604D01*
X105550186Y-101276586D01*
X105556632Y-101240317D01*
X105565856Y-101201712D01*
X105574124Y-101170954D01*
X105607727Y-101069669D01*
X105653412Y-100962055D01*
X105707409Y-100855599D01*
X105765950Y-100757786D01*
X105819955Y-100682648D01*
X105932768Y-100558140D01*
X106057431Y-100452246D01*
X106197164Y-100362361D01*
X106250872Y-100333875D01*
X106399994Y-100268565D01*
X106548593Y-100224253D01*
X106702134Y-100199637D01*
X106841000Y-100193225D01*
X107015471Y-100203973D01*
X107182398Y-100236396D01*
X107342622Y-100290759D01*
X107496982Y-100367330D01*
X107603000Y-100434988D01*
X107621672Y-100450520D01*
X107655989Y-100481833D01*
X107705332Y-100528320D01*
X107769079Y-100589374D01*
X107846611Y-100664386D01*
X107937307Y-100752750D01*
X108040546Y-100853857D01*
X108155708Y-100967101D01*
X108282172Y-101091873D01*
X108419318Y-101227567D01*
X108566525Y-101373574D01*
X108723173Y-101529288D01*
X108867228Y-101672753D01*
X109034006Y-101838981D01*
X109185329Y-101989747D01*
X109322099Y-102125890D01*
X109445219Y-102248245D01*
X109555590Y-102357651D01*
X109654116Y-102454945D01*
X109741697Y-102540962D01*
X109819238Y-102616542D01*
X109887640Y-102682519D01*
X109947805Y-102739732D01*
X110000635Y-102789017D01*
X110047034Y-102831212D01*
X110087903Y-102867154D01*
X110124144Y-102897679D01*
X110156661Y-102923625D01*
X110186354Y-102945829D01*
X110214127Y-102965128D01*
X110240882Y-102982358D01*
X110267522Y-102998357D01*
X110294947Y-103013963D01*
X110324062Y-103030011D01*
X110339273Y-103038320D01*
X110498138Y-103112906D01*
X110669802Y-103171167D01*
X110849940Y-103212268D01*
X111034224Y-103235373D01*
X111218330Y-103239647D01*
X111339664Y-103231534D01*
X111536558Y-103199364D01*
X111726752Y-103145393D01*
X111908832Y-103070300D01*
X112081384Y-102974760D01*
X112242996Y-102859453D01*
X112388248Y-102729080D01*
X112520780Y-102581612D01*
X112632657Y-102424824D01*
X112725133Y-102256683D01*
X112799463Y-102075154D01*
X112808722Y-102047864D01*
X112844980Y-101927197D01*
X112870335Y-101814286D01*
X112886103Y-101700747D01*
X112893599Y-101578193D01*
X112894676Y-101500000D01*
X112891358Y-101368416D01*
X112880529Y-101250692D01*
X112860874Y-101138440D01*
X112831075Y-101023277D01*
X112808722Y-100952135D01*
X112736895Y-100768517D01*
X112647102Y-100598578D01*
X112538089Y-100440284D01*
X112408600Y-100291603D01*
X112388248Y-100270919D01*
X112239999Y-100138279D01*
X112079669Y-100024449D01*
X111908989Y-99930065D01*
X111729691Y-99855760D01*
X111543506Y-99802168D01*
X111352165Y-99769923D01*
X111157401Y-99759659D01*
X111011067Y-99766681D01*
G37*
X111011067Y-99766681D02*
X110826497Y-99792614D01*
X110648454Y-99835541D01*
X110481125Y-99894248D01*
X110339273Y-99961679D01*
X110292174Y-99987874D01*
X110248848Y-100013327D01*
X110207549Y-100039538D01*
X110166531Y-100068010D01*
X110124049Y-100100244D01*
X110078357Y-100137742D01*
X110027709Y-100182006D01*
X109970360Y-100234537D01*
X109904564Y-100296838D01*
X109828576Y-100370410D01*
X109740649Y-100456754D01*
X109639039Y-100557372D01*
X109588819Y-100607277D01*
X109121228Y-101072261D01*
X109274064Y-101225321D01*
X109426899Y-101378381D01*
X109874427Y-100932965D01*
X109960999Y-100847207D01*
X110044834Y-100764935D01*
X110124116Y-100687878D01*
X110197029Y-100617765D01*
X110261758Y-100556329D01*
X110316487Y-100505297D01*
X110359400Y-100466401D01*
X110388682Y-100441369D01*
X110397000Y-100435039D01*
X110547628Y-100342609D01*
X110703625Y-100272560D01*
X110865793Y-100224636D01*
X111034934Y-100198584D01*
X111159001Y-100193225D01*
X111332645Y-100204438D01*
X111500555Y-100237558D01*
X111661105Y-100291806D01*
X111812669Y-100366402D01*
X111953621Y-100460567D01*
X112082336Y-100573521D01*
X112180046Y-100682648D01*
X112239446Y-100766101D01*
X112297731Y-100865006D01*
X112351130Y-100971876D01*
X112395875Y-101079225D01*
X112425877Y-101170954D01*
X112437311Y-101214154D01*
X112445627Y-101251497D01*
X112451316Y-101288071D01*
X112454870Y-101328959D01*
X112456779Y-101379247D01*
X112457534Y-101444019D01*
X112457639Y-101500000D01*
X112457395Y-101577774D01*
X112456337Y-101637544D01*
X112453974Y-101684395D01*
X112449815Y-101723413D01*
X112443369Y-101759682D01*
X112434145Y-101798287D01*
X112425877Y-101829045D01*
X112392274Y-101930330D01*
X112346589Y-102037944D01*
X112292592Y-102144400D01*
X112234051Y-102242213D01*
X112180046Y-102317351D01*
X112067233Y-102441859D01*
X111942570Y-102547753D01*
X111802837Y-102637638D01*
X111749129Y-102666125D01*
X111600007Y-102731434D01*
X111451408Y-102775746D01*
X111297867Y-102800363D01*
X111159000Y-102806774D01*
X110984564Y-102796031D01*
X110817673Y-102763623D01*
X110657471Y-102709276D01*
X110503101Y-102632719D01*
X110397000Y-102565034D01*
X110378301Y-102549484D01*
X110343951Y-102518144D01*
X110294563Y-102471616D01*
X110230751Y-102410501D01*
X110153130Y-102335399D01*
X110062312Y-102246911D01*
X109958913Y-102145639D01*
X109843544Y-102032183D01*
X109716821Y-101907144D01*
X109579357Y-101771123D01*
X109431765Y-101624722D01*
X109274660Y-101468540D01*
X109132773Y-101327223D01*
X108966016Y-101161007D01*
X108814714Y-101010252D01*
X108677965Y-100874121D01*
X108554865Y-100751777D01*
X108444513Y-100642382D01*
X108346006Y-100545100D01*
X108258442Y-100459094D01*
X108180918Y-100383525D01*
X108112532Y-100317558D01*
X108052382Y-100260354D01*
X107999564Y-100211077D01*
X107953177Y-100168890D01*
X107912318Y-100132956D01*
X107876085Y-100102437D01*
X107843576Y-100076496D01*
X107813887Y-100054296D01*
X107786116Y-100035000D01*
X107759362Y-100017772D01*
X107732721Y-100001772D01*
X107705292Y-99986166D01*
X107676171Y-99970115D01*
X107660728Y-99961679D01*
X107504602Y-99888295D01*
X107335550Y-99830447D01*
X107158604Y-99789160D01*
X106978801Y-99765459D01*
X106801174Y-99760371D01*
X106701509Y-99766316D01*
X106542504Y-99786479D01*
X106398586Y-99816273D01*
X106263094Y-99857578D01*
X106129364Y-99912272D01*
X106053338Y-99949157D01*
X105901806Y-100035450D01*
X105764497Y-100133561D01*
X105634318Y-100248659D01*
X105611753Y-100270919D01*
X105479221Y-100418387D01*
X105367344Y-100575175D01*
X105274868Y-100743317D01*
X105200538Y-100924845D01*
X105191279Y-100952135D01*
X105155021Y-101072802D01*
X105129666Y-101185713D01*
X105113898Y-101299253D01*
X105106402Y-101421807D01*
X105105325Y-101500000D01*
X105108643Y-101631583D01*
X105119472Y-101749308D01*
X105139127Y-101861559D01*
X105168926Y-101976722D01*
X105191279Y-102047864D01*
X105263106Y-102231482D01*
X105352899Y-102401421D01*
X105461912Y-102559715D01*
X105591401Y-102708396D01*
X105611753Y-102729080D01*
X105760002Y-102861720D01*
X105920332Y-102975550D01*
X106091012Y-103069934D01*
X106270310Y-103144239D01*
X106456495Y-103197831D01*
X106647836Y-103230076D01*
X106842600Y-103240340D01*
X106988934Y-103233318D01*
X107173504Y-103207385D01*
X107351547Y-103164458D01*
X107518876Y-103105751D01*
X107660728Y-103038320D01*
X107707827Y-103012125D01*
X107751153Y-102986673D01*
X107792452Y-102960461D01*
X107833470Y-102931989D01*
X107875952Y-102899755D01*
X107921644Y-102862257D01*
X107972292Y-102817993D01*
X108029641Y-102765462D01*
X108095437Y-102703161D01*
X108171425Y-102629590D01*
X108259352Y-102543245D01*
X108360962Y-102442627D01*
X108411182Y-102392723D01*
X108878773Y-101927738D01*
X108725935Y-101774676D01*
X108573097Y-101621615D01*
X108119799Y-102073375D01*
X108013035Y-102179545D01*
X107920744Y-102270676D01*
X107841243Y-102348224D01*
X107772847Y-102413647D01*
X107713871Y-102468400D01*
X107662631Y-102513940D01*
X107617442Y-102551724D01*
X107576620Y-102583207D01*
X107538480Y-102609847D01*
X107501337Y-102633099D01*
X107463507Y-102654420D01*
X107424046Y-102674894D01*
X107281647Y-102734369D01*
X107128297Y-102776208D01*
X106968286Y-102800122D01*
X106805904Y-102805822D01*
X106645443Y-102793017D01*
X106491193Y-102761417D01*
X106428312Y-102742139D01*
X106267486Y-102675526D01*
X106117630Y-102589286D01*
X105980694Y-102484777D01*
X105858622Y-102363359D01*
X105819955Y-102317351D01*
X105760555Y-102233898D01*
X105702270Y-102134993D01*
X105648871Y-102028123D01*
X105604126Y-101920774D01*
X105574124Y-101829045D01*
X105562690Y-101785846D01*
X105554374Y-101748502D01*
X105548685Y-101711928D01*
X105545131Y-101671040D01*
X105543222Y-101620752D01*
X105542467Y-101555980D01*
X105542362Y-101500000D01*
X105542606Y-101422226D01*
X105543664Y-101362455D01*
X105546027Y-101315604D01*
X105550186Y-101276586D01*
X105556632Y-101240317D01*
X105565856Y-101201712D01*
X105574124Y-101170954D01*
X105607727Y-101069669D01*
X105653412Y-100962055D01*
X105707409Y-100855599D01*
X105765950Y-100757786D01*
X105819955Y-100682648D01*
X105932768Y-100558140D01*
X106057431Y-100452246D01*
X106197164Y-100362361D01*
X106250872Y-100333875D01*
X106399994Y-100268565D01*
X106548593Y-100224253D01*
X106702134Y-100199637D01*
X106841000Y-100193225D01*
X107015471Y-100203973D01*
X107182398Y-100236396D01*
X107342622Y-100290759D01*
X107496982Y-100367330D01*
X107603000Y-100434988D01*
X107621672Y-100450520D01*
X107655989Y-100481833D01*
X107705332Y-100528320D01*
X107769079Y-100589374D01*
X107846611Y-100664386D01*
X107937307Y-100752750D01*
X108040546Y-100853857D01*
X108155708Y-100967101D01*
X108282172Y-101091873D01*
X108419318Y-101227567D01*
X108566525Y-101373574D01*
X108723173Y-101529288D01*
X108867228Y-101672753D01*
X109034006Y-101838981D01*
X109185329Y-101989747D01*
X109322099Y-102125890D01*
X109445219Y-102248245D01*
X109555590Y-102357651D01*
X109654116Y-102454945D01*
X109741697Y-102540962D01*
X109819238Y-102616542D01*
X109887640Y-102682519D01*
X109947805Y-102739732D01*
X110000635Y-102789017D01*
X110047034Y-102831212D01*
X110087903Y-102867154D01*
X110124144Y-102897679D01*
X110156661Y-102923625D01*
X110186354Y-102945829D01*
X110214127Y-102965128D01*
X110240882Y-102982358D01*
X110267522Y-102998357D01*
X110294947Y-103013963D01*
X110324062Y-103030011D01*
X110339273Y-103038320D01*
X110498138Y-103112906D01*
X110669802Y-103171167D01*
X110849940Y-103212268D01*
X111034224Y-103235373D01*
X111218330Y-103239647D01*
X111339664Y-103231534D01*
X111536558Y-103199364D01*
X111726752Y-103145393D01*
X111908832Y-103070300D01*
X112081384Y-102974760D01*
X112242996Y-102859453D01*
X112388248Y-102729080D01*
X112520780Y-102581612D01*
X112632657Y-102424824D01*
X112725133Y-102256683D01*
X112799463Y-102075154D01*
X112808722Y-102047864D01*
X112844980Y-101927197D01*
X112870335Y-101814286D01*
X112886103Y-101700747D01*
X112893599Y-101578193D01*
X112894676Y-101500000D01*
X112891358Y-101368416D01*
X112880529Y-101250692D01*
X112860874Y-101138440D01*
X112831075Y-101023277D01*
X112808722Y-100952135D01*
X112736895Y-100768517D01*
X112647102Y-100598578D01*
X112538089Y-100440284D01*
X112408600Y-100291603D01*
X112388248Y-100270919D01*
X112239999Y-100138279D01*
X112079669Y-100024449D01*
X111908989Y-99930065D01*
X111729691Y-99855760D01*
X111543506Y-99802168D01*
X111352165Y-99769923D01*
X111157401Y-99759659D01*
X111011067Y-99766681D01*
D11*
G36*
X110939637Y-102365909D02*
G01*
X111378364Y-102365909D01*
X111378364Y-100634091D01*
X110939637Y-100634091D01*
X110939637Y-102365909D01*
G37*
%TD*%
D12*
%TO.P,J1,S1*%
%TO.N,GND*%
X104680000Y-96830000D03*
X113320000Y-96830000D03*
D13*
X113320000Y-92650000D03*
X104680000Y-92650000D03*
%TD*%
D14*
%TO.P,REF\u002A\u002A,1*%
%TO.N,N/C*%
X116000000Y-104500000D03*
%TD*%
%TO.P,REF\u002A\u002A,1*%
%TO.N,N/C*%
X102000000Y-104500000D03*
%TD*%
%TO.P,REF\u002A\u002A,1*%
%TO.N,N/C*%
X116000000Y-92000000D03*
%TD*%
%TO.P,REF\u002A\u002A,1*%
%TO.N,N/C*%
X102000000Y-92000000D03*
%TD*%
D15*
%TO.N,DN*%
X107560000Y-95880000D03*
X108660000Y-94780000D03*
%TD*%
D16*
%TO.N,DN*%
X108660000Y-94780000D02*
X107560000Y-95880000D01*
%TD*%
D17*
%TO.N,GND*%
X114652722Y-90358338D02*
X114358338Y-90652722D01*
X114127041Y-90998882D01*
X113967721Y-91383515D01*
X113911550Y-91665905D01*
X113888514Y-91641683D01*
X113749159Y-91543421D01*
X113593312Y-91474234D01*
X113518061Y-91455412D01*
X113383500Y-91514437D01*
X113383500Y-92586500D01*
X113403500Y-92586500D01*
X113403500Y-92713500D01*
X113383500Y-92713500D01*
X113383500Y-93785563D01*
X113518061Y-93844588D01*
X113593312Y-93825766D01*
X113749159Y-93756579D01*
X113888514Y-93658317D01*
X114006021Y-93534756D01*
X114097165Y-93390645D01*
X114158443Y-93231521D01*
X114183639Y-93085823D01*
X114358338Y-93347278D01*
X114652722Y-93641662D01*
X114998882Y-93872959D01*
X115383515Y-94032279D01*
X115791838Y-94113500D01*
X116208162Y-94113500D01*
X116616485Y-94032279D01*
X117001118Y-93872959D01*
X117347278Y-93641662D01*
X117641662Y-93347278D01*
X117784501Y-93133505D01*
X117784500Y-103366494D01*
X117641662Y-103152722D01*
X117347278Y-102858338D01*
X117001118Y-102627041D01*
X116616485Y-102467721D01*
X116208162Y-102386500D01*
X115791838Y-102386500D01*
X115383515Y-102467721D01*
X114998882Y-102627041D01*
X114652722Y-102858338D01*
X114358338Y-103152722D01*
X114127041Y-103498882D01*
X113967721Y-103883515D01*
X113886500Y-104291838D01*
X113886500Y-104708162D01*
X113967721Y-105116485D01*
X114127041Y-105501118D01*
X114358338Y-105847278D01*
X114652722Y-106141662D01*
X114866494Y-106284500D01*
X103133506Y-106284500D01*
X103347278Y-106141662D01*
X103641662Y-105847278D01*
X103872959Y-105501118D01*
X104032279Y-105116485D01*
X104113500Y-104708162D01*
X104113500Y-104291838D01*
X104032279Y-103883515D01*
X103872959Y-103498882D01*
X103641662Y-103152722D01*
X103347278Y-102858338D01*
X103001118Y-102627041D01*
X102616485Y-102467721D01*
X102208162Y-102386500D01*
X101791838Y-102386500D01*
X101383515Y-102467721D01*
X100998882Y-102627041D01*
X100652722Y-102858338D01*
X100358338Y-103152722D01*
X100215500Y-103366494D01*
X100215500Y-101502457D01*
X104886839Y-101502457D01*
X104886894Y-101505508D01*
X104890212Y-101637091D01*
X104890918Y-101642804D01*
X104890803Y-101648557D01*
X104891062Y-101651597D01*
X104901891Y-101769322D01*
X104903285Y-101776590D01*
X104903741Y-101783985D01*
X104904246Y-101786994D01*
X104923901Y-101899245D01*
X104925833Y-101906197D01*
X104926850Y-101913335D01*
X104927594Y-101916294D01*
X104957393Y-102031457D01*
X104958796Y-102035290D01*
X104959579Y-102039301D01*
X104960473Y-102042218D01*
X104982826Y-102113360D01*
X104985162Y-102118851D01*
X104986702Y-102124614D01*
X104987794Y-102127463D01*
X105059621Y-102311081D01*
X105064538Y-102320747D01*
X105068509Y-102330853D01*
X105069916Y-102333560D01*
X105159709Y-102503499D01*
X105165917Y-102512896D01*
X105171231Y-102522826D01*
X105172945Y-102525351D01*
X105281958Y-102683645D01*
X105288968Y-102691953D01*
X105295153Y-102700902D01*
X105297141Y-102703217D01*
X105426630Y-102851898D01*
X105430360Y-102855419D01*
X105433528Y-102859454D01*
X105435653Y-102861644D01*
X105456005Y-102882328D01*
X105460180Y-102885815D01*
X105463801Y-102889867D01*
X105466061Y-102891917D01*
X105614310Y-103024557D01*
X105622998Y-103030920D01*
X105631035Y-103038100D01*
X105633511Y-103039883D01*
X105793841Y-103153713D01*
X105803162Y-103159046D01*
X105811935Y-103165267D01*
X105814594Y-103166761D01*
X105985274Y-103261145D01*
X105995142Y-103265403D01*
X106004549Y-103270599D01*
X106007360Y-103271787D01*
X106186658Y-103346092D01*
X106196979Y-103349230D01*
X106206944Y-103353349D01*
X106209870Y-103354214D01*
X106396056Y-103407806D01*
X106406739Y-103409778D01*
X106417180Y-103412765D01*
X106420185Y-103413293D01*
X106611526Y-103445538D01*
X106622465Y-103446296D01*
X106633291Y-103448092D01*
X106636337Y-103448273D01*
X106831101Y-103458537D01*
X106840564Y-103458110D01*
X106850024Y-103458714D01*
X106853073Y-103458589D01*
X106999407Y-103451567D01*
X107007817Y-103450333D01*
X107016311Y-103450096D01*
X107019336Y-103449693D01*
X107203906Y-103423760D01*
X107212736Y-103421624D01*
X107221747Y-103420493D01*
X107224718Y-103419798D01*
X107402761Y-103376871D01*
X107411733Y-103373755D01*
X107420998Y-103371627D01*
X107423884Y-103370636D01*
X107591213Y-103311929D01*
X107600368Y-103307673D01*
X107609919Y-103304380D01*
X107612683Y-103303089D01*
X107754535Y-103235659D01*
X107759217Y-103232843D01*
X107764254Y-103230738D01*
X107766930Y-103229274D01*
X107814029Y-103203079D01*
X107814897Y-103202478D01*
X107815860Y-103202049D01*
X107818501Y-103200522D01*
X107861828Y-103175070D01*
X107863640Y-103173752D01*
X107865653Y-103172770D01*
X107868240Y-103171153D01*
X107909539Y-103144941D01*
X107911893Y-103143102D01*
X107914528Y-103141679D01*
X107917046Y-103139956D01*
X107958064Y-103111485D01*
X107960432Y-103109472D01*
X107963102Y-103107881D01*
X107965545Y-103106054D01*
X108008027Y-103073820D01*
X108009972Y-103072020D01*
X108012194Y-103070578D01*
X108014566Y-103068659D01*
X108060258Y-103031161D01*
X108061582Y-103029839D01*
X108063119Y-103028772D01*
X108065430Y-103026780D01*
X108116078Y-102982516D01*
X108116782Y-102981767D01*
X108117614Y-102981161D01*
X108119878Y-102979116D01*
X108177228Y-102926584D01*
X108177414Y-102926377D01*
X108177643Y-102926204D01*
X108179872Y-102924121D01*
X108245668Y-102861820D01*
X108245687Y-102861798D01*
X108247423Y-102860140D01*
X108323411Y-102786569D01*
X108323444Y-102786530D01*
X108324519Y-102785489D01*
X108412446Y-102699144D01*
X108412474Y-102699110D01*
X108413095Y-102698504D01*
X108514705Y-102597886D01*
X108514720Y-102597867D01*
X108514976Y-102597617D01*
X108565197Y-102547712D01*
X108565202Y-102547706D01*
X108565252Y-102547657D01*
X109000901Y-102114436D01*
X109031112Y-102144535D01*
X109031120Y-102144542D01*
X109031182Y-102144604D01*
X109167951Y-102280747D01*
X109167956Y-102280751D01*
X109168078Y-102280874D01*
X109291198Y-102403229D01*
X109291214Y-102403242D01*
X109291396Y-102403425D01*
X109401767Y-102512831D01*
X109401785Y-102512846D01*
X109402062Y-102513123D01*
X109500588Y-102610417D01*
X109500615Y-102610439D01*
X109501011Y-102610833D01*
X109588592Y-102696850D01*
X109588620Y-102696873D01*
X109589185Y-102697431D01*
X109666727Y-102773011D01*
X109666766Y-102773042D01*
X109667548Y-102773807D01*
X109735950Y-102839785D01*
X109735995Y-102839820D01*
X109737070Y-102840857D01*
X109797235Y-102898070D01*
X109797271Y-102898098D01*
X109798756Y-102899502D01*
X109851383Y-102948598D01*
X109851386Y-102948601D01*
X109851439Y-102948650D01*
X109851586Y-102948787D01*
X109851596Y-102948795D01*
X109853629Y-102950669D01*
X109900028Y-102992865D01*
X109900263Y-102993040D01*
X109900461Y-102993258D01*
X109902738Y-102995288D01*
X109943607Y-103031230D01*
X109944263Y-103031702D01*
X109944822Y-103032291D01*
X109947142Y-103034273D01*
X109983383Y-103064798D01*
X109984518Y-103065578D01*
X109985493Y-103066553D01*
X109987865Y-103068472D01*
X110020382Y-103094418D01*
X110021982Y-103095457D01*
X110023378Y-103096767D01*
X110025809Y-103098611D01*
X110055502Y-103120815D01*
X110057457Y-103121999D01*
X110059176Y-103123503D01*
X110061669Y-103125261D01*
X110089442Y-103144560D01*
X110091467Y-103145692D01*
X110093270Y-103147161D01*
X110095824Y-103148831D01*
X110122579Y-103166061D01*
X110124270Y-103166929D01*
X110125782Y-103168085D01*
X110128387Y-103169674D01*
X110155027Y-103185673D01*
X110155971Y-103186121D01*
X110156816Y-103186736D01*
X110159457Y-103188263D01*
X110186882Y-103203869D01*
X110186892Y-103203874D01*
X110189472Y-103205320D01*
X110218588Y-103221368D01*
X110218626Y-103221384D01*
X110219315Y-103221767D01*
X110234526Y-103230076D01*
X110239267Y-103232093D01*
X110243661Y-103234791D01*
X110246414Y-103236106D01*
X110405279Y-103310692D01*
X110415350Y-103314268D01*
X110425033Y-103318814D01*
X110427915Y-103319814D01*
X110599579Y-103378075D01*
X110609046Y-103380286D01*
X110618227Y-103383493D01*
X110621197Y-103384192D01*
X110801335Y-103425293D01*
X110810625Y-103426475D01*
X110819733Y-103428670D01*
X110822758Y-103429071D01*
X111007042Y-103452176D01*
X111016619Y-103452435D01*
X111026103Y-103453722D01*
X111029153Y-103453814D01*
X111213259Y-103458088D01*
X111221548Y-103457469D01*
X111229862Y-103457843D01*
X111232907Y-103457660D01*
X111354242Y-103449547D01*
X111363004Y-103448093D01*
X111371883Y-103447646D01*
X111374897Y-103447175D01*
X111571791Y-103415005D01*
X111582424Y-103412180D01*
X111593265Y-103410377D01*
X111596206Y-103409565D01*
X111786400Y-103355594D01*
X111796644Y-103351571D01*
X111807230Y-103348533D01*
X111810059Y-103347389D01*
X111992139Y-103272296D01*
X112001845Y-103267133D01*
X112011993Y-103262914D01*
X112014672Y-103261455D01*
X112187224Y-103165915D01*
X112196236Y-103159705D01*
X112205794Y-103154383D01*
X112208290Y-103152628D01*
X112369902Y-103037321D01*
X112377957Y-103030293D01*
X112386661Y-103024082D01*
X112388946Y-103022060D01*
X112534198Y-102891687D01*
X112541090Y-102884164D01*
X112548706Y-102877389D01*
X112550761Y-102875134D01*
X112683293Y-102727666D01*
X112689667Y-102719004D01*
X112696853Y-102710998D01*
X112698642Y-102708527D01*
X112810519Y-102551738D01*
X112816130Y-102541984D01*
X112822622Y-102532785D01*
X112824111Y-102530122D01*
X112916587Y-102361981D01*
X112920905Y-102351912D01*
X112926163Y-102342295D01*
X112927338Y-102339479D01*
X113001668Y-102157951D01*
X113003162Y-102152960D01*
X113005378Y-102148239D01*
X113006378Y-102145357D01*
X113015637Y-102118066D01*
X113016166Y-102115801D01*
X113017081Y-102113658D01*
X113017979Y-102110742D01*
X113054237Y-101990074D01*
X113055441Y-101983951D01*
X113057482Y-101978043D01*
X113058171Y-101975071D01*
X113083526Y-101862159D01*
X113084453Y-101854670D01*
X113086317Y-101847361D01*
X113086758Y-101844342D01*
X113102526Y-101730803D01*
X113102803Y-101723919D01*
X113103988Y-101717131D01*
X113104195Y-101714087D01*
X113111691Y-101591533D01*
X113111557Y-101587882D01*
X113112015Y-101584253D01*
X113112078Y-101581202D01*
X113113155Y-101503010D01*
X113112925Y-101500276D01*
X113113162Y-101497543D01*
X113113107Y-101494492D01*
X113109789Y-101362908D01*
X113109083Y-101357195D01*
X113109198Y-101351442D01*
X113108939Y-101348401D01*
X113098110Y-101230677D01*
X113096716Y-101223408D01*
X113096260Y-101216016D01*
X113095755Y-101213007D01*
X113076100Y-101100755D01*
X113074168Y-101093804D01*
X113073151Y-101086664D01*
X113072407Y-101083705D01*
X113042608Y-100968542D01*
X113041205Y-100964709D01*
X113040422Y-100960698D01*
X113039528Y-100957781D01*
X113017175Y-100886639D01*
X113014839Y-100881146D01*
X113013299Y-100875386D01*
X113012208Y-100872537D01*
X112940380Y-100688918D01*
X112935459Y-100679245D01*
X112931491Y-100669146D01*
X112930085Y-100666439D01*
X112840292Y-100496500D01*
X112834084Y-100487103D01*
X112828770Y-100477173D01*
X112827056Y-100474648D01*
X112718043Y-100316354D01*
X112711032Y-100308044D01*
X112704847Y-100299096D01*
X112702860Y-100296782D01*
X112573371Y-100148101D01*
X112569641Y-100144581D01*
X112566473Y-100140545D01*
X112564348Y-100138355D01*
X112543996Y-100117671D01*
X112539821Y-100114184D01*
X112536200Y-100110132D01*
X112533940Y-100108082D01*
X112385691Y-99975442D01*
X112377003Y-99969079D01*
X112368966Y-99961899D01*
X112366490Y-99960116D01*
X112206160Y-99846286D01*
X112196839Y-99840953D01*
X112188066Y-99834732D01*
X112185406Y-99833237D01*
X112014727Y-99738854D01*
X112004860Y-99734596D01*
X111995452Y-99729400D01*
X111992641Y-99728212D01*
X111813343Y-99653907D01*
X111803023Y-99650770D01*
X111793057Y-99646650D01*
X111790131Y-99645786D01*
X111603946Y-99592193D01*
X111593260Y-99590221D01*
X111582821Y-99587234D01*
X111579816Y-99586706D01*
X111388475Y-99554461D01*
X111377534Y-99553703D01*
X111366709Y-99551907D01*
X111363664Y-99551726D01*
X111168900Y-99541462D01*
X111159436Y-99541889D01*
X111149976Y-99541285D01*
X111146928Y-99541410D01*
X111000594Y-99548432D01*
X110992184Y-99549666D01*
X110983690Y-99549903D01*
X110980665Y-99550306D01*
X110796095Y-99576239D01*
X110787265Y-99578375D01*
X110778254Y-99579506D01*
X110775283Y-99580201D01*
X110597240Y-99623128D01*
X110588268Y-99626244D01*
X110579003Y-99628372D01*
X110576117Y-99629362D01*
X110408788Y-99688070D01*
X110399632Y-99692326D01*
X110390082Y-99695619D01*
X110387317Y-99696910D01*
X110245466Y-99764341D01*
X110240789Y-99767154D01*
X110235747Y-99769261D01*
X110233070Y-99770726D01*
X110185972Y-99796920D01*
X110185103Y-99797521D01*
X110184137Y-99797952D01*
X110181496Y-99799479D01*
X110138170Y-99824932D01*
X110136362Y-99826247D01*
X110134351Y-99827228D01*
X110131764Y-99828845D01*
X110090465Y-99855056D01*
X110088109Y-99856897D01*
X110085473Y-99858320D01*
X110082955Y-99860043D01*
X110041937Y-99888515D01*
X110039570Y-99890527D01*
X110036900Y-99892118D01*
X110034456Y-99893945D01*
X109991974Y-99926179D01*
X109990029Y-99927980D01*
X109987807Y-99929421D01*
X109985435Y-99931340D01*
X109939743Y-99968838D01*
X109938420Y-99970159D01*
X109936883Y-99971226D01*
X109934572Y-99973218D01*
X109883923Y-100017483D01*
X109883219Y-100018232D01*
X109882387Y-100018838D01*
X109880123Y-100020883D01*
X109822774Y-100073414D01*
X109822587Y-100073622D01*
X109822358Y-100073795D01*
X109820129Y-100075878D01*
X109754333Y-100138179D01*
X109754314Y-100138201D01*
X109752577Y-100139860D01*
X109676589Y-100213432D01*
X109676556Y-100213470D01*
X109675483Y-100214510D01*
X109587556Y-100300854D01*
X109587528Y-100300888D01*
X109586906Y-100301495D01*
X109485296Y-100402113D01*
X109485281Y-100402131D01*
X109485023Y-100402384D01*
X109434803Y-100452289D01*
X109434799Y-100452294D01*
X109434749Y-100452343D01*
X108999120Y-100885544D01*
X108968937Y-100855470D01*
X108968867Y-100855400D01*
X108832118Y-100719269D01*
X108832107Y-100719260D01*
X108831991Y-100719143D01*
X108708891Y-100596799D01*
X108708875Y-100596786D01*
X108708693Y-100596603D01*
X108598342Y-100487208D01*
X108598324Y-100487193D01*
X108598046Y-100486915D01*
X108499539Y-100389634D01*
X108499516Y-100389615D01*
X108499115Y-100389216D01*
X108411552Y-100303211D01*
X108411520Y-100303185D01*
X108410959Y-100302631D01*
X108333435Y-100227062D01*
X108333398Y-100227032D01*
X108332614Y-100226266D01*
X108264228Y-100160299D01*
X108264189Y-100160268D01*
X108263109Y-100159227D01*
X108202959Y-100102022D01*
X108202919Y-100101991D01*
X108201436Y-100100588D01*
X108148822Y-100051501D01*
X108148819Y-100051498D01*
X108148765Y-100051448D01*
X108148619Y-100051312D01*
X108148609Y-100051304D01*
X108146576Y-100049430D01*
X108100188Y-100007243D01*
X108099952Y-100007067D01*
X108099751Y-100006846D01*
X108097474Y-100004815D01*
X108056616Y-99968881D01*
X108055956Y-99968407D01*
X108055400Y-99967820D01*
X108053080Y-99965839D01*
X108016848Y-99935320D01*
X108015716Y-99934542D01*
X108014741Y-99933567D01*
X108012369Y-99931648D01*
X107979860Y-99905707D01*
X107978255Y-99904665D01*
X107976855Y-99903351D01*
X107974424Y-99901507D01*
X107944735Y-99879307D01*
X107942778Y-99878123D01*
X107941058Y-99876617D01*
X107938565Y-99874859D01*
X107910794Y-99855563D01*
X107908766Y-99854430D01*
X107906966Y-99852963D01*
X107904412Y-99851293D01*
X107877658Y-99834065D01*
X107875972Y-99833199D01*
X107874463Y-99832046D01*
X107871859Y-99830457D01*
X107845218Y-99814458D01*
X107844270Y-99814008D01*
X107843415Y-99813386D01*
X107840774Y-99811859D01*
X107813345Y-99796253D01*
X107813336Y-99796249D01*
X107810765Y-99794809D01*
X107781644Y-99778757D01*
X107781605Y-99778740D01*
X107780920Y-99778360D01*
X107765477Y-99769924D01*
X107760778Y-99767925D01*
X107756426Y-99765250D01*
X107753674Y-99763933D01*
X107597548Y-99690550D01*
X107587693Y-99687045D01*
X107578224Y-99682571D01*
X107575344Y-99681564D01*
X107406292Y-99623716D01*
X107397090Y-99621542D01*
X107388166Y-99618376D01*
X107385199Y-99617663D01*
X107208253Y-99576376D01*
X107199128Y-99575169D01*
X107190181Y-99572953D01*
X107187159Y-99572534D01*
X107007356Y-99548833D01*
X106997689Y-99548511D01*
X106988107Y-99547157D01*
X106985057Y-99547049D01*
X106807430Y-99541961D01*
X106799329Y-99542522D01*
X106791210Y-99542098D01*
X106788163Y-99542259D01*
X106688499Y-99548204D01*
X106682813Y-99549106D01*
X106677051Y-99549189D01*
X106674021Y-99549552D01*
X106515017Y-99569715D01*
X106508184Y-99571271D01*
X106501201Y-99571918D01*
X106498210Y-99572516D01*
X106354291Y-99602310D01*
X106346163Y-99604841D01*
X106337795Y-99606400D01*
X106334871Y-99607269D01*
X106199379Y-99648574D01*
X106191464Y-99651861D01*
X106183212Y-99654203D01*
X106180380Y-99655339D01*
X106046651Y-99710033D01*
X106041860Y-99712564D01*
X106036742Y-99714374D01*
X106033988Y-99715687D01*
X105957962Y-99752572D01*
X105953108Y-99755545D01*
X105947874Y-99757794D01*
X105945212Y-99759286D01*
X105793680Y-99845579D01*
X105785750Y-99851185D01*
X105777272Y-99855913D01*
X105774777Y-99857669D01*
X105637468Y-99955781D01*
X105630092Y-99962226D01*
X105622067Y-99967862D01*
X105619768Y-99969867D01*
X105489588Y-100084966D01*
X105486556Y-100088227D01*
X105483057Y-100090981D01*
X105480870Y-100093108D01*
X105458305Y-100115368D01*
X105455070Y-100119253D01*
X105451294Y-100122611D01*
X105449239Y-100124866D01*
X105316708Y-100272333D01*
X105310334Y-100280995D01*
X105303148Y-100289001D01*
X105301359Y-100291472D01*
X105189482Y-100448260D01*
X105183868Y-100458020D01*
X105177379Y-100467214D01*
X105175890Y-100469877D01*
X105083414Y-100638020D01*
X105079097Y-100648087D01*
X105073838Y-100657705D01*
X105072663Y-100660521D01*
X104998333Y-100842048D01*
X104996839Y-100847039D01*
X104994623Y-100851760D01*
X104993623Y-100854642D01*
X104984364Y-100881932D01*
X104983835Y-100884199D01*
X104982920Y-100886341D01*
X104982022Y-100889257D01*
X104945764Y-101009924D01*
X104944560Y-101016049D01*
X104942519Y-101021956D01*
X104941830Y-101024928D01*
X104916475Y-101137839D01*
X104915548Y-101145330D01*
X104913684Y-101152638D01*
X104913243Y-101155657D01*
X104897475Y-101269197D01*
X104897198Y-101276081D01*
X104896013Y-101282869D01*
X104895806Y-101285913D01*
X104888310Y-101408467D01*
X104888444Y-101412118D01*
X104887986Y-101415748D01*
X104887923Y-101418798D01*
X104886846Y-101496991D01*
X104887076Y-101499724D01*
X104886839Y-101502457D01*
X100215500Y-101502457D01*
X100215500Y-96893500D01*
X103762500Y-96893500D01*
X103762500Y-97443500D01*
X103792518Y-97621275D01*
X103856641Y-97789778D01*
X103952405Y-97942534D01*
X104076130Y-98073672D01*
X104223062Y-98178152D01*
X104387554Y-98251960D01*
X104474097Y-98274098D01*
X104616500Y-98215716D01*
X104616500Y-96893500D01*
X104743500Y-96893500D01*
X104743500Y-98215716D01*
X104885903Y-98274098D01*
X104972446Y-98251960D01*
X105136938Y-98178152D01*
X105283870Y-98073672D01*
X105407595Y-97942534D01*
X105503359Y-97789778D01*
X105567482Y-97621275D01*
X105597500Y-97443500D01*
X105597500Y-96893500D01*
X112402500Y-96893500D01*
X112402500Y-97443500D01*
X112432518Y-97621275D01*
X112496641Y-97789778D01*
X112592405Y-97942534D01*
X112716130Y-98073672D01*
X112863062Y-98178152D01*
X113027554Y-98251960D01*
X113114097Y-98274098D01*
X113256500Y-98215716D01*
X113256500Y-96893500D01*
X113383500Y-96893500D01*
X113383500Y-98215716D01*
X113525903Y-98274098D01*
X113612446Y-98251960D01*
X113776938Y-98178152D01*
X113923870Y-98073672D01*
X114047595Y-97942534D01*
X114143359Y-97789778D01*
X114207482Y-97621275D01*
X114237500Y-97443500D01*
X114237500Y-96893500D01*
X113383500Y-96893500D01*
X113256500Y-96893500D01*
X112402500Y-96893500D01*
X105597500Y-96893500D01*
X104743500Y-96893500D01*
X104616500Y-96893500D01*
X103762500Y-96893500D01*
X100215500Y-96893500D01*
X100215500Y-96216500D01*
X103762500Y-96216500D01*
X103762500Y-96766500D01*
X104616500Y-96766500D01*
X104616500Y-95444284D01*
X104743500Y-95444284D01*
X104743500Y-96766500D01*
X105597500Y-96766500D01*
X105597500Y-96469885D01*
X105632787Y-96555076D01*
X105691719Y-96643274D01*
X105766726Y-96718281D01*
X105854924Y-96777213D01*
X105952925Y-96817806D01*
X106056962Y-96838500D01*
X106163038Y-96838500D01*
X106267075Y-96817806D01*
X106365076Y-96777213D01*
X106453274Y-96718281D01*
X106528281Y-96643274D01*
X106587213Y-96555076D01*
X106627806Y-96457075D01*
X106648500Y-96353038D01*
X106648500Y-96246962D01*
X106627806Y-96142925D01*
X106587213Y-96044924D01*
X106528281Y-95956726D01*
X106453274Y-95881719D01*
X106367640Y-95824500D01*
X106996500Y-95824500D01*
X106996500Y-95935500D01*
X107018155Y-96044367D01*
X107060632Y-96146918D01*
X107122301Y-96239211D01*
X107200789Y-96317699D01*
X107293082Y-96379368D01*
X107395633Y-96421845D01*
X107504500Y-96443500D01*
X107615500Y-96443500D01*
X107724367Y-96421845D01*
X107826918Y-96379368D01*
X107919211Y-96317699D01*
X107989948Y-96246962D01*
X111351500Y-96246962D01*
X111351500Y-96353038D01*
X111372194Y-96457075D01*
X111412787Y-96555076D01*
X111471719Y-96643274D01*
X111546726Y-96718281D01*
X111634924Y-96777213D01*
X111732925Y-96817806D01*
X111836962Y-96838500D01*
X111943038Y-96838500D01*
X112047075Y-96817806D01*
X112145076Y-96777213D01*
X112233274Y-96718281D01*
X112308281Y-96643274D01*
X112367213Y-96555076D01*
X112402500Y-96469885D01*
X112402500Y-96766500D01*
X113256500Y-96766500D01*
X113256500Y-95444284D01*
X113383500Y-95444284D01*
X113383500Y-96766500D01*
X114237500Y-96766500D01*
X114237500Y-96216500D01*
X114207482Y-96038725D01*
X114143359Y-95870222D01*
X114047595Y-95717466D01*
X113923870Y-95586328D01*
X113776938Y-95481848D01*
X113612446Y-95408040D01*
X113525903Y-95385902D01*
X113383500Y-95444284D01*
X113256500Y-95444284D01*
X113114097Y-95385902D01*
X113027554Y-95408040D01*
X112863062Y-95481848D01*
X112716130Y-95586328D01*
X112592405Y-95717466D01*
X112496641Y-95870222D01*
X112432518Y-96038725D01*
X112411656Y-96162278D01*
X112407806Y-96142925D01*
X112367213Y-96044924D01*
X112308281Y-95956726D01*
X112233274Y-95881719D01*
X112145076Y-95822787D01*
X112047075Y-95782194D01*
X111943038Y-95761500D01*
X111836962Y-95761500D01*
X111732925Y-95782194D01*
X111634924Y-95822787D01*
X111546726Y-95881719D01*
X111471719Y-95956726D01*
X111412787Y-96044924D01*
X111372194Y-96142925D01*
X111351500Y-96246962D01*
X107989948Y-96246962D01*
X107997699Y-96239211D01*
X108059368Y-96146918D01*
X108101845Y-96044367D01*
X108123500Y-95935500D01*
X108123500Y-95824500D01*
X108112775Y-95770581D01*
X108550581Y-95332775D01*
X108604500Y-95343500D01*
X108715500Y-95343500D01*
X108824367Y-95321845D01*
X108926918Y-95279368D01*
X109019211Y-95217699D01*
X109097699Y-95139211D01*
X109159368Y-95046918D01*
X109201845Y-94944367D01*
X109223500Y-94835500D01*
X109223500Y-94724500D01*
X109201845Y-94615633D01*
X109159368Y-94513082D01*
X109097699Y-94420789D01*
X109019211Y-94342301D01*
X108926918Y-94280632D01*
X108824367Y-94238155D01*
X108715500Y-94216500D01*
X108604500Y-94216500D01*
X108495633Y-94238155D01*
X108393082Y-94280632D01*
X108300789Y-94342301D01*
X108222301Y-94420789D01*
X108160632Y-94513082D01*
X108118155Y-94615633D01*
X108096500Y-94724500D01*
X108096500Y-94835500D01*
X108107225Y-94889419D01*
X107669419Y-95327225D01*
X107615500Y-95316500D01*
X107504500Y-95316500D01*
X107395633Y-95338155D01*
X107293082Y-95380632D01*
X107200789Y-95442301D01*
X107122301Y-95520789D01*
X107060632Y-95613082D01*
X107018155Y-95715633D01*
X106996500Y-95824500D01*
X106367640Y-95824500D01*
X106365076Y-95822787D01*
X106267075Y-95782194D01*
X106163038Y-95761500D01*
X106056962Y-95761500D01*
X105952925Y-95782194D01*
X105854924Y-95822787D01*
X105766726Y-95881719D01*
X105691719Y-95956726D01*
X105632787Y-96044924D01*
X105592194Y-96142925D01*
X105588344Y-96162278D01*
X105567482Y-96038725D01*
X105503359Y-95870222D01*
X105407595Y-95717466D01*
X105283870Y-95586328D01*
X105136938Y-95481848D01*
X104972446Y-95408040D01*
X104885903Y-95385902D01*
X104743500Y-95444284D01*
X104616500Y-95444284D01*
X104474097Y-95385902D01*
X104387554Y-95408040D01*
X104223062Y-95481848D01*
X104076130Y-95586328D01*
X103952405Y-95717466D01*
X103856641Y-95870222D01*
X103792518Y-96038725D01*
X103762500Y-96216500D01*
X100215500Y-96216500D01*
X100215500Y-93133506D01*
X100358338Y-93347278D01*
X100652722Y-93641662D01*
X100998882Y-93872959D01*
X101383515Y-94032279D01*
X101791838Y-94113500D01*
X102208162Y-94113500D01*
X102616485Y-94032279D01*
X103001118Y-93872959D01*
X103347278Y-93641662D01*
X103641662Y-93347278D01*
X103816361Y-93085823D01*
X103841557Y-93231521D01*
X103902835Y-93390645D01*
X103993979Y-93534756D01*
X104111486Y-93658317D01*
X104250841Y-93756579D01*
X104406688Y-93825766D01*
X104481939Y-93844588D01*
X104616500Y-93785563D01*
X104616500Y-92713500D01*
X104743500Y-92713500D01*
X104743500Y-93785563D01*
X104878061Y-93844588D01*
X104953312Y-93825766D01*
X105109159Y-93756579D01*
X105248514Y-93658317D01*
X105366021Y-93534756D01*
X105457165Y-93390645D01*
X105518443Y-93231521D01*
X105547500Y-93063500D01*
X105547500Y-92713500D01*
X112452500Y-92713500D01*
X112452500Y-93063500D01*
X112481557Y-93231521D01*
X112542835Y-93390645D01*
X112633979Y-93534756D01*
X112751486Y-93658317D01*
X112890841Y-93756579D01*
X113046688Y-93825766D01*
X113121939Y-93844588D01*
X113256500Y-93785563D01*
X113256500Y-92713500D01*
X112452500Y-92713500D01*
X105547500Y-92713500D01*
X104743500Y-92713500D01*
X104616500Y-92713500D01*
X104596500Y-92713500D01*
X104596500Y-92586500D01*
X104616500Y-92586500D01*
X104616500Y-91514437D01*
X104743500Y-91514437D01*
X104743500Y-92586500D01*
X105547500Y-92586500D01*
X105547500Y-92236500D01*
X112452500Y-92236500D01*
X112452500Y-92586500D01*
X113256500Y-92586500D01*
X113256500Y-91514437D01*
X113121939Y-91455412D01*
X113046688Y-91474234D01*
X112890841Y-91543421D01*
X112751486Y-91641683D01*
X112633979Y-91765244D01*
X112542835Y-91909355D01*
X112481557Y-92068479D01*
X112452500Y-92236500D01*
X105547500Y-92236500D01*
X105518443Y-92068479D01*
X105457165Y-91909355D01*
X105366021Y-91765244D01*
X105248514Y-91641683D01*
X105109159Y-91543421D01*
X104953312Y-91474234D01*
X104878061Y-91455412D01*
X104743500Y-91514437D01*
X104616500Y-91514437D01*
X104481939Y-91455412D01*
X104406688Y-91474234D01*
X104250841Y-91543421D01*
X104111486Y-91641683D01*
X104088450Y-91665905D01*
X104032279Y-91383515D01*
X103872959Y-90998882D01*
X103641662Y-90652722D01*
X103347278Y-90358338D01*
X103133506Y-90215500D01*
X114866494Y-90215500D01*
X114652722Y-90358338D01*
%TA.AperFunction,Conductor*%
D18*
G36*
X114652722Y-90358338D02*
G01*
X114358338Y-90652722D01*
X114127041Y-90998882D01*
X113967721Y-91383515D01*
X113911550Y-91665905D01*
X113888514Y-91641683D01*
X113749159Y-91543421D01*
X113593312Y-91474234D01*
X113518061Y-91455412D01*
X113383500Y-91514437D01*
X113383500Y-92586500D01*
X113403500Y-92586500D01*
X113403500Y-92713500D01*
X113383500Y-92713500D01*
X113383500Y-93785563D01*
X113518061Y-93844588D01*
X113593312Y-93825766D01*
X113749159Y-93756579D01*
X113888514Y-93658317D01*
X114006021Y-93534756D01*
X114097165Y-93390645D01*
X114158443Y-93231521D01*
X114183639Y-93085823D01*
X114358338Y-93347278D01*
X114652722Y-93641662D01*
X114998882Y-93872959D01*
X115383515Y-94032279D01*
X115791838Y-94113500D01*
X116208162Y-94113500D01*
X116616485Y-94032279D01*
X117001118Y-93872959D01*
X117347278Y-93641662D01*
X117641662Y-93347278D01*
X117784501Y-93133505D01*
X117784500Y-103366494D01*
X117641662Y-103152722D01*
X117347278Y-102858338D01*
X117001118Y-102627041D01*
X116616485Y-102467721D01*
X116208162Y-102386500D01*
X115791838Y-102386500D01*
X115383515Y-102467721D01*
X114998882Y-102627041D01*
X114652722Y-102858338D01*
X114358338Y-103152722D01*
X114127041Y-103498882D01*
X113967721Y-103883515D01*
X113886500Y-104291838D01*
X113886500Y-104708162D01*
X113967721Y-105116485D01*
X114127041Y-105501118D01*
X114358338Y-105847278D01*
X114652722Y-106141662D01*
X114866494Y-106284500D01*
X103133506Y-106284500D01*
X103347278Y-106141662D01*
X103641662Y-105847278D01*
X103872959Y-105501118D01*
X104032279Y-105116485D01*
X104113500Y-104708162D01*
X104113500Y-104291838D01*
X104032279Y-103883515D01*
X103872959Y-103498882D01*
X103641662Y-103152722D01*
X103347278Y-102858338D01*
X103001118Y-102627041D01*
X102616485Y-102467721D01*
X102208162Y-102386500D01*
X101791838Y-102386500D01*
X101383515Y-102467721D01*
X100998882Y-102627041D01*
X100652722Y-102858338D01*
X100358338Y-103152722D01*
X100215500Y-103366494D01*
X100215500Y-101502457D01*
X104886839Y-101502457D01*
X104886894Y-101505508D01*
X104890212Y-101637091D01*
X104890918Y-101642804D01*
X104890803Y-101648557D01*
X104891062Y-101651597D01*
X104901891Y-101769322D01*
X104903285Y-101776590D01*
X104903741Y-101783985D01*
X104904246Y-101786994D01*
X104923901Y-101899245D01*
X104925833Y-101906197D01*
X104926850Y-101913335D01*
X104927594Y-101916294D01*
X104957393Y-102031457D01*
X104958796Y-102035290D01*
X104959579Y-102039301D01*
X104960473Y-102042218D01*
X104982826Y-102113360D01*
X104985162Y-102118851D01*
X104986702Y-102124614D01*
X104987794Y-102127463D01*
X105059621Y-102311081D01*
X105064538Y-102320747D01*
X105068509Y-102330853D01*
X105069916Y-102333560D01*
X105159709Y-102503499D01*
X105165917Y-102512896D01*
X105171231Y-102522826D01*
X105172945Y-102525351D01*
X105281958Y-102683645D01*
X105288968Y-102691953D01*
X105295153Y-102700902D01*
X105297141Y-102703217D01*
X105426630Y-102851898D01*
X105430360Y-102855419D01*
X105433528Y-102859454D01*
X105435653Y-102861644D01*
X105456005Y-102882328D01*
X105460180Y-102885815D01*
X105463801Y-102889867D01*
X105466061Y-102891917D01*
X105614310Y-103024557D01*
X105622998Y-103030920D01*
X105631035Y-103038100D01*
X105633511Y-103039883D01*
X105793841Y-103153713D01*
X105803162Y-103159046D01*
X105811935Y-103165267D01*
X105814594Y-103166761D01*
X105985274Y-103261145D01*
X105995142Y-103265403D01*
X106004549Y-103270599D01*
X106007360Y-103271787D01*
X106186658Y-103346092D01*
X106196979Y-103349230D01*
X106206944Y-103353349D01*
X106209870Y-103354214D01*
X106396056Y-103407806D01*
X106406739Y-103409778D01*
X106417180Y-103412765D01*
X106420185Y-103413293D01*
X106611526Y-103445538D01*
X106622465Y-103446296D01*
X106633291Y-103448092D01*
X106636337Y-103448273D01*
X106831101Y-103458537D01*
X106840564Y-103458110D01*
X106850024Y-103458714D01*
X106853073Y-103458589D01*
X106999407Y-103451567D01*
X107007817Y-103450333D01*
X107016311Y-103450096D01*
X107019336Y-103449693D01*
X107203906Y-103423760D01*
X107212736Y-103421624D01*
X107221747Y-103420493D01*
X107224718Y-103419798D01*
X107402761Y-103376871D01*
X107411733Y-103373755D01*
X107420998Y-103371627D01*
X107423884Y-103370636D01*
X107591213Y-103311929D01*
X107600368Y-103307673D01*
X107609919Y-103304380D01*
X107612683Y-103303089D01*
X107754535Y-103235659D01*
X107759217Y-103232843D01*
X107764254Y-103230738D01*
X107766930Y-103229274D01*
X107814029Y-103203079D01*
X107814897Y-103202478D01*
X107815860Y-103202049D01*
X107818501Y-103200522D01*
X107861828Y-103175070D01*
X107863640Y-103173752D01*
X107865653Y-103172770D01*
X107868240Y-103171153D01*
X107909539Y-103144941D01*
X107911893Y-103143102D01*
X107914528Y-103141679D01*
X107917046Y-103139956D01*
X107958064Y-103111485D01*
X107960432Y-103109472D01*
X107963102Y-103107881D01*
X107965545Y-103106054D01*
X108008027Y-103073820D01*
X108009972Y-103072020D01*
X108012194Y-103070578D01*
X108014566Y-103068659D01*
X108060258Y-103031161D01*
X108061582Y-103029839D01*
X108063119Y-103028772D01*
X108065430Y-103026780D01*
X108116078Y-102982516D01*
X108116782Y-102981767D01*
X108117614Y-102981161D01*
X108119878Y-102979116D01*
X108177228Y-102926584D01*
X108177414Y-102926377D01*
X108177643Y-102926204D01*
X108179872Y-102924121D01*
X108245668Y-102861820D01*
X108245687Y-102861798D01*
X108247423Y-102860140D01*
X108323411Y-102786569D01*
X108323444Y-102786530D01*
X108324519Y-102785489D01*
X108412446Y-102699144D01*
X108412474Y-102699110D01*
X108413095Y-102698504D01*
X108514705Y-102597886D01*
X108514720Y-102597867D01*
X108514976Y-102597617D01*
X108565197Y-102547712D01*
X108565202Y-102547706D01*
X108565252Y-102547657D01*
X109000901Y-102114436D01*
X109031112Y-102144535D01*
X109031120Y-102144542D01*
X109031182Y-102144604D01*
X109167951Y-102280747D01*
X109167956Y-102280751D01*
X109168078Y-102280874D01*
X109291198Y-102403229D01*
X109291214Y-102403242D01*
X109291396Y-102403425D01*
X109401767Y-102512831D01*
X109401785Y-102512846D01*
X109402062Y-102513123D01*
X109500588Y-102610417D01*
X109500615Y-102610439D01*
X109501011Y-102610833D01*
X109588592Y-102696850D01*
X109588620Y-102696873D01*
X109589185Y-102697431D01*
X109666727Y-102773011D01*
X109666766Y-102773042D01*
X109667548Y-102773807D01*
X109735950Y-102839785D01*
X109735995Y-102839820D01*
X109737070Y-102840857D01*
X109797235Y-102898070D01*
X109797271Y-102898098D01*
X109798756Y-102899502D01*
X109851383Y-102948598D01*
X109851386Y-102948601D01*
X109851439Y-102948650D01*
X109851586Y-102948787D01*
X109851596Y-102948795D01*
X109853629Y-102950669D01*
X109900028Y-102992865D01*
X109900263Y-102993040D01*
X109900461Y-102993258D01*
X109902738Y-102995288D01*
X109943607Y-103031230D01*
X109944263Y-103031702D01*
X109944822Y-103032291D01*
X109947142Y-103034273D01*
X109983383Y-103064798D01*
X109984518Y-103065578D01*
X109985493Y-103066553D01*
X109987865Y-103068472D01*
X110020382Y-103094418D01*
X110021982Y-103095457D01*
X110023378Y-103096767D01*
X110025809Y-103098611D01*
X110055502Y-103120815D01*
X110057457Y-103121999D01*
X110059176Y-103123503D01*
X110061669Y-103125261D01*
X110089442Y-103144560D01*
X110091467Y-103145692D01*
X110093270Y-103147161D01*
X110095824Y-103148831D01*
X110122579Y-103166061D01*
X110124270Y-103166929D01*
X110125782Y-103168085D01*
X110128387Y-103169674D01*
X110155027Y-103185673D01*
X110155971Y-103186121D01*
X110156816Y-103186736D01*
X110159457Y-103188263D01*
X110186882Y-103203869D01*
X110186892Y-103203874D01*
X110189472Y-103205320D01*
X110218588Y-103221368D01*
X110218626Y-103221384D01*
X110219315Y-103221767D01*
X110234526Y-103230076D01*
X110239267Y-103232093D01*
X110243661Y-103234791D01*
X110246414Y-103236106D01*
X110405279Y-103310692D01*
X110415350Y-103314268D01*
X110425033Y-103318814D01*
X110427915Y-103319814D01*
X110599579Y-103378075D01*
X110609046Y-103380286D01*
X110618227Y-103383493D01*
X110621197Y-103384192D01*
X110801335Y-103425293D01*
X110810625Y-103426475D01*
X110819733Y-103428670D01*
X110822758Y-103429071D01*
X111007042Y-103452176D01*
X111016619Y-103452435D01*
X111026103Y-103453722D01*
X111029153Y-103453814D01*
X111213259Y-103458088D01*
X111221548Y-103457469D01*
X111229862Y-103457843D01*
X111232907Y-103457660D01*
X111354242Y-103449547D01*
X111363004Y-103448093D01*
X111371883Y-103447646D01*
X111374897Y-103447175D01*
X111571791Y-103415005D01*
X111582424Y-103412180D01*
X111593265Y-103410377D01*
X111596206Y-103409565D01*
X111786400Y-103355594D01*
X111796644Y-103351571D01*
X111807230Y-103348533D01*
X111810059Y-103347389D01*
X111992139Y-103272296D01*
X112001845Y-103267133D01*
X112011993Y-103262914D01*
X112014672Y-103261455D01*
X112187224Y-103165915D01*
X112196236Y-103159705D01*
X112205794Y-103154383D01*
X112208290Y-103152628D01*
X112369902Y-103037321D01*
X112377957Y-103030293D01*
X112386661Y-103024082D01*
X112388946Y-103022060D01*
X112534198Y-102891687D01*
X112541090Y-102884164D01*
X112548706Y-102877389D01*
X112550761Y-102875134D01*
X112683293Y-102727666D01*
X112689667Y-102719004D01*
X112696853Y-102710998D01*
X112698642Y-102708527D01*
X112810519Y-102551738D01*
X112816130Y-102541984D01*
X112822622Y-102532785D01*
X112824111Y-102530122D01*
X112916587Y-102361981D01*
X112920905Y-102351912D01*
X112926163Y-102342295D01*
X112927338Y-102339479D01*
X113001668Y-102157951D01*
X113003162Y-102152960D01*
X113005378Y-102148239D01*
X113006378Y-102145357D01*
X113015637Y-102118066D01*
X113016166Y-102115801D01*
X113017081Y-102113658D01*
X113017979Y-102110742D01*
X113054237Y-101990074D01*
X113055441Y-101983951D01*
X113057482Y-101978043D01*
X113058171Y-101975071D01*
X113083526Y-101862159D01*
X113084453Y-101854670D01*
X113086317Y-101847361D01*
X113086758Y-101844342D01*
X113102526Y-101730803D01*
X113102803Y-101723919D01*
X113103988Y-101717131D01*
X113104195Y-101714087D01*
X113111691Y-101591533D01*
X113111557Y-101587882D01*
X113112015Y-101584253D01*
X113112078Y-101581202D01*
X113113155Y-101503010D01*
X113112925Y-101500276D01*
X113113162Y-101497543D01*
X113113107Y-101494492D01*
X113109789Y-101362908D01*
X113109083Y-101357195D01*
X113109198Y-101351442D01*
X113108939Y-101348401D01*
X113098110Y-101230677D01*
X113096716Y-101223408D01*
X113096260Y-101216016D01*
X113095755Y-101213007D01*
X113076100Y-101100755D01*
X113074168Y-101093804D01*
X113073151Y-101086664D01*
X113072407Y-101083705D01*
X113042608Y-100968542D01*
X113041205Y-100964709D01*
X113040422Y-100960698D01*
X113039528Y-100957781D01*
X113017175Y-100886639D01*
X113014839Y-100881146D01*
X113013299Y-100875386D01*
X113012208Y-100872537D01*
X112940380Y-100688918D01*
X112935459Y-100679245D01*
X112931491Y-100669146D01*
X112930085Y-100666439D01*
X112840292Y-100496500D01*
X112834084Y-100487103D01*
X112828770Y-100477173D01*
X112827056Y-100474648D01*
X112718043Y-100316354D01*
X112711032Y-100308044D01*
X112704847Y-100299096D01*
X112702860Y-100296782D01*
X112573371Y-100148101D01*
X112569641Y-100144581D01*
X112566473Y-100140545D01*
X112564348Y-100138355D01*
X112543996Y-100117671D01*
X112539821Y-100114184D01*
X112536200Y-100110132D01*
X112533940Y-100108082D01*
X112385691Y-99975442D01*
X112377003Y-99969079D01*
X112368966Y-99961899D01*
X112366490Y-99960116D01*
X112206160Y-99846286D01*
X112196839Y-99840953D01*
X112188066Y-99834732D01*
X112185406Y-99833237D01*
X112014727Y-99738854D01*
X112004860Y-99734596D01*
X111995452Y-99729400D01*
X111992641Y-99728212D01*
X111813343Y-99653907D01*
X111803023Y-99650770D01*
X111793057Y-99646650D01*
X111790131Y-99645786D01*
X111603946Y-99592193D01*
X111593260Y-99590221D01*
X111582821Y-99587234D01*
X111579816Y-99586706D01*
X111388475Y-99554461D01*
X111377534Y-99553703D01*
X111366709Y-99551907D01*
X111363664Y-99551726D01*
X111168900Y-99541462D01*
X111159436Y-99541889D01*
X111149976Y-99541285D01*
X111146928Y-99541410D01*
X111000594Y-99548432D01*
X110992184Y-99549666D01*
X110983690Y-99549903D01*
X110980665Y-99550306D01*
X110796095Y-99576239D01*
X110787265Y-99578375D01*
X110778254Y-99579506D01*
X110775283Y-99580201D01*
X110597240Y-99623128D01*
X110588268Y-99626244D01*
X110579003Y-99628372D01*
X110576117Y-99629362D01*
X110408788Y-99688070D01*
X110399632Y-99692326D01*
X110390082Y-99695619D01*
X110387317Y-99696910D01*
X110245466Y-99764341D01*
X110240789Y-99767154D01*
X110235747Y-99769261D01*
X110233070Y-99770726D01*
X110185972Y-99796920D01*
X110185103Y-99797521D01*
X110184137Y-99797952D01*
X110181496Y-99799479D01*
X110138170Y-99824932D01*
X110136362Y-99826247D01*
X110134351Y-99827228D01*
X110131764Y-99828845D01*
X110090465Y-99855056D01*
X110088109Y-99856897D01*
X110085473Y-99858320D01*
X110082955Y-99860043D01*
X110041937Y-99888515D01*
X110039570Y-99890527D01*
X110036900Y-99892118D01*
X110034456Y-99893945D01*
X109991974Y-99926179D01*
X109990029Y-99927980D01*
X109987807Y-99929421D01*
X109985435Y-99931340D01*
X109939743Y-99968838D01*
X109938420Y-99970159D01*
X109936883Y-99971226D01*
X109934572Y-99973218D01*
X109883923Y-100017483D01*
X109883219Y-100018232D01*
X109882387Y-100018838D01*
X109880123Y-100020883D01*
X109822774Y-100073414D01*
X109822587Y-100073622D01*
X109822358Y-100073795D01*
X109820129Y-100075878D01*
X109754333Y-100138179D01*
X109754314Y-100138201D01*
X109752577Y-100139860D01*
X109676589Y-100213432D01*
X109676556Y-100213470D01*
X109675483Y-100214510D01*
X109587556Y-100300854D01*
X109587528Y-100300888D01*
X109586906Y-100301495D01*
X109485296Y-100402113D01*
X109485281Y-100402131D01*
X109485023Y-100402384D01*
X109434803Y-100452289D01*
X109434799Y-100452294D01*
X109434749Y-100452343D01*
X108999120Y-100885544D01*
X108968937Y-100855470D01*
X108968867Y-100855400D01*
X108832118Y-100719269D01*
X108832107Y-100719260D01*
X108831991Y-100719143D01*
X108708891Y-100596799D01*
X108708875Y-100596786D01*
X108708693Y-100596603D01*
X108598342Y-100487208D01*
X108598324Y-100487193D01*
X108598046Y-100486915D01*
X108499539Y-100389634D01*
X108499516Y-100389615D01*
X108499115Y-100389216D01*
X108411552Y-100303211D01*
X108411520Y-100303185D01*
X108410959Y-100302631D01*
X108333435Y-100227062D01*
X108333398Y-100227032D01*
X108332614Y-100226266D01*
X108264228Y-100160299D01*
X108264189Y-100160268D01*
X108263109Y-100159227D01*
X108202959Y-100102022D01*
X108202919Y-100101991D01*
X108201436Y-100100588D01*
X108148822Y-100051501D01*
X108148819Y-100051498D01*
X108148765Y-100051448D01*
X108148619Y-100051312D01*
X108148609Y-100051304D01*
X108146576Y-100049430D01*
X108100188Y-100007243D01*
X108099952Y-100007067D01*
X108099751Y-100006846D01*
X108097474Y-100004815D01*
X108056616Y-99968881D01*
X108055956Y-99968407D01*
X108055400Y-99967820D01*
X108053080Y-99965839D01*
X108016848Y-99935320D01*
X108015716Y-99934542D01*
X108014741Y-99933567D01*
X108012369Y-99931648D01*
X107979860Y-99905707D01*
X107978255Y-99904665D01*
X107976855Y-99903351D01*
X107974424Y-99901507D01*
X107944735Y-99879307D01*
X107942778Y-99878123D01*
X107941058Y-99876617D01*
X107938565Y-99874859D01*
X107910794Y-99855563D01*
X107908766Y-99854430D01*
X107906966Y-99852963D01*
X107904412Y-99851293D01*
X107877658Y-99834065D01*
X107875972Y-99833199D01*
X107874463Y-99832046D01*
X107871859Y-99830457D01*
X107845218Y-99814458D01*
X107844270Y-99814008D01*
X107843415Y-99813386D01*
X107840774Y-99811859D01*
X107813345Y-99796253D01*
X107813336Y-99796249D01*
X107810765Y-99794809D01*
X107781644Y-99778757D01*
X107781605Y-99778740D01*
X107780920Y-99778360D01*
X107765477Y-99769924D01*
X107760778Y-99767925D01*
X107756426Y-99765250D01*
X107753674Y-99763933D01*
X107597548Y-99690550D01*
X107587693Y-99687045D01*
X107578224Y-99682571D01*
X107575344Y-99681564D01*
X107406292Y-99623716D01*
X107397090Y-99621542D01*
X107388166Y-99618376D01*
X107385199Y-99617663D01*
X107208253Y-99576376D01*
X107199128Y-99575169D01*
X107190181Y-99572953D01*
X107187159Y-99572534D01*
X107007356Y-99548833D01*
X106997689Y-99548511D01*
X106988107Y-99547157D01*
X106985057Y-99547049D01*
X106807430Y-99541961D01*
X106799329Y-99542522D01*
X106791210Y-99542098D01*
X106788163Y-99542259D01*
X106688499Y-99548204D01*
X106682813Y-99549106D01*
X106677051Y-99549189D01*
X106674021Y-99549552D01*
X106515017Y-99569715D01*
X106508184Y-99571271D01*
X106501201Y-99571918D01*
X106498210Y-99572516D01*
X106354291Y-99602310D01*
X106346163Y-99604841D01*
X106337795Y-99606400D01*
X106334871Y-99607269D01*
X106199379Y-99648574D01*
X106191464Y-99651861D01*
X106183212Y-99654203D01*
X106180380Y-99655339D01*
X106046651Y-99710033D01*
X106041860Y-99712564D01*
X106036742Y-99714374D01*
X106033988Y-99715687D01*
X105957962Y-99752572D01*
X105953108Y-99755545D01*
X105947874Y-99757794D01*
X105945212Y-99759286D01*
X105793680Y-99845579D01*
X105785750Y-99851185D01*
X105777272Y-99855913D01*
X105774777Y-99857669D01*
X105637468Y-99955781D01*
X105630092Y-99962226D01*
X105622067Y-99967862D01*
X105619768Y-99969867D01*
X105489588Y-100084966D01*
X105486556Y-100088227D01*
X105483057Y-100090981D01*
X105480870Y-100093108D01*
X105458305Y-100115368D01*
X105455070Y-100119253D01*
X105451294Y-100122611D01*
X105449239Y-100124866D01*
X105316708Y-100272333D01*
X105310334Y-100280995D01*
X105303148Y-100289001D01*
X105301359Y-100291472D01*
X105189482Y-100448260D01*
X105183868Y-100458020D01*
X105177379Y-100467214D01*
X105175890Y-100469877D01*
X105083414Y-100638020D01*
X105079097Y-100648087D01*
X105073838Y-100657705D01*
X105072663Y-100660521D01*
X104998333Y-100842048D01*
X104996839Y-100847039D01*
X104994623Y-100851760D01*
X104993623Y-100854642D01*
X104984364Y-100881932D01*
X104983835Y-100884199D01*
X104982920Y-100886341D01*
X104982022Y-100889257D01*
X104945764Y-101009924D01*
X104944560Y-101016049D01*
X104942519Y-101021956D01*
X104941830Y-101024928D01*
X104916475Y-101137839D01*
X104915548Y-101145330D01*
X104913684Y-101152638D01*
X104913243Y-101155657D01*
X104897475Y-101269197D01*
X104897198Y-101276081D01*
X104896013Y-101282869D01*
X104895806Y-101285913D01*
X104888310Y-101408467D01*
X104888444Y-101412118D01*
X104887986Y-101415748D01*
X104887923Y-101418798D01*
X104886846Y-101496991D01*
X104887076Y-101499724D01*
X104886839Y-101502457D01*
X100215500Y-101502457D01*
X100215500Y-96893500D01*
X103762500Y-96893500D01*
X103762500Y-97443500D01*
X103792518Y-97621275D01*
X103856641Y-97789778D01*
X103952405Y-97942534D01*
X104076130Y-98073672D01*
X104223062Y-98178152D01*
X104387554Y-98251960D01*
X104474097Y-98274098D01*
X104616500Y-98215716D01*
X104616500Y-96893500D01*
X104743500Y-96893500D01*
X104743500Y-98215716D01*
X104885903Y-98274098D01*
X104972446Y-98251960D01*
X105136938Y-98178152D01*
X105283870Y-98073672D01*
X105407595Y-97942534D01*
X105503359Y-97789778D01*
X105567482Y-97621275D01*
X105597500Y-97443500D01*
X105597500Y-96893500D01*
X112402500Y-96893500D01*
X112402500Y-97443500D01*
X112432518Y-97621275D01*
X112496641Y-97789778D01*
X112592405Y-97942534D01*
X112716130Y-98073672D01*
X112863062Y-98178152D01*
X113027554Y-98251960D01*
X113114097Y-98274098D01*
X113256500Y-98215716D01*
X113256500Y-96893500D01*
X113383500Y-96893500D01*
X113383500Y-98215716D01*
X113525903Y-98274098D01*
X113612446Y-98251960D01*
X113776938Y-98178152D01*
X113923870Y-98073672D01*
X114047595Y-97942534D01*
X114143359Y-97789778D01*
X114207482Y-97621275D01*
X114237500Y-97443500D01*
X114237500Y-96893500D01*
X113383500Y-96893500D01*
X113256500Y-96893500D01*
X112402500Y-96893500D01*
X105597500Y-96893500D01*
X104743500Y-96893500D01*
X104616500Y-96893500D01*
X103762500Y-96893500D01*
X100215500Y-96893500D01*
X100215500Y-96216500D01*
X103762500Y-96216500D01*
X103762500Y-96766500D01*
X104616500Y-96766500D01*
X104616500Y-95444284D01*
X104743500Y-95444284D01*
X104743500Y-96766500D01*
X105597500Y-96766500D01*
X105597500Y-96469885D01*
X105632787Y-96555076D01*
X105691719Y-96643274D01*
X105766726Y-96718281D01*
X105854924Y-96777213D01*
X105952925Y-96817806D01*
X106056962Y-96838500D01*
X106163038Y-96838500D01*
X106267075Y-96817806D01*
X106365076Y-96777213D01*
X106453274Y-96718281D01*
X106528281Y-96643274D01*
X106587213Y-96555076D01*
X106627806Y-96457075D01*
X106648500Y-96353038D01*
X106648500Y-96246962D01*
X106627806Y-96142925D01*
X106587213Y-96044924D01*
X106528281Y-95956726D01*
X106453274Y-95881719D01*
X106367640Y-95824500D01*
X106996500Y-95824500D01*
X106996500Y-95935500D01*
X107018155Y-96044367D01*
X107060632Y-96146918D01*
X107122301Y-96239211D01*
X107200789Y-96317699D01*
X107293082Y-96379368D01*
X107395633Y-96421845D01*
X107504500Y-96443500D01*
X107615500Y-96443500D01*
X107724367Y-96421845D01*
X107826918Y-96379368D01*
X107919211Y-96317699D01*
X107989948Y-96246962D01*
X111351500Y-96246962D01*
X111351500Y-96353038D01*
X111372194Y-96457075D01*
X111412787Y-96555076D01*
X111471719Y-96643274D01*
X111546726Y-96718281D01*
X111634924Y-96777213D01*
X111732925Y-96817806D01*
X111836962Y-96838500D01*
X111943038Y-96838500D01*
X112047075Y-96817806D01*
X112145076Y-96777213D01*
X112233274Y-96718281D01*
X112308281Y-96643274D01*
X112367213Y-96555076D01*
X112402500Y-96469885D01*
X112402500Y-96766500D01*
X113256500Y-96766500D01*
X113256500Y-95444284D01*
X113383500Y-95444284D01*
X113383500Y-96766500D01*
X114237500Y-96766500D01*
X114237500Y-96216500D01*
X114207482Y-96038725D01*
X114143359Y-95870222D01*
X114047595Y-95717466D01*
X113923870Y-95586328D01*
X113776938Y-95481848D01*
X113612446Y-95408040D01*
X113525903Y-95385902D01*
X113383500Y-95444284D01*
X113256500Y-95444284D01*
X113114097Y-95385902D01*
X113027554Y-95408040D01*
X112863062Y-95481848D01*
X112716130Y-95586328D01*
X112592405Y-95717466D01*
X112496641Y-95870222D01*
X112432518Y-96038725D01*
X112411656Y-96162278D01*
X112407806Y-96142925D01*
X112367213Y-96044924D01*
X112308281Y-95956726D01*
X112233274Y-95881719D01*
X112145076Y-95822787D01*
X112047075Y-95782194D01*
X111943038Y-95761500D01*
X111836962Y-95761500D01*
X111732925Y-95782194D01*
X111634924Y-95822787D01*
X111546726Y-95881719D01*
X111471719Y-95956726D01*
X111412787Y-96044924D01*
X111372194Y-96142925D01*
X111351500Y-96246962D01*
X107989948Y-96246962D01*
X107997699Y-96239211D01*
X108059368Y-96146918D01*
X108101845Y-96044367D01*
X108123500Y-95935500D01*
X108123500Y-95824500D01*
X108112775Y-95770581D01*
X108550581Y-95332775D01*
X108604500Y-95343500D01*
X108715500Y-95343500D01*
X108824367Y-95321845D01*
X108926918Y-95279368D01*
X109019211Y-95217699D01*
X109097699Y-95139211D01*
X109159368Y-95046918D01*
X109201845Y-94944367D01*
X109223500Y-94835500D01*
X109223500Y-94724500D01*
X109201845Y-94615633D01*
X109159368Y-94513082D01*
X109097699Y-94420789D01*
X109019211Y-94342301D01*
X108926918Y-94280632D01*
X108824367Y-94238155D01*
X108715500Y-94216500D01*
X108604500Y-94216500D01*
X108495633Y-94238155D01*
X108393082Y-94280632D01*
X108300789Y-94342301D01*
X108222301Y-94420789D01*
X108160632Y-94513082D01*
X108118155Y-94615633D01*
X108096500Y-94724500D01*
X108096500Y-94835500D01*
X108107225Y-94889419D01*
X107669419Y-95327225D01*
X107615500Y-95316500D01*
X107504500Y-95316500D01*
X107395633Y-95338155D01*
X107293082Y-95380632D01*
X107200789Y-95442301D01*
X107122301Y-95520789D01*
X107060632Y-95613082D01*
X107018155Y-95715633D01*
X106996500Y-95824500D01*
X106367640Y-95824500D01*
X106365076Y-95822787D01*
X106267075Y-95782194D01*
X106163038Y-95761500D01*
X106056962Y-95761500D01*
X105952925Y-95782194D01*
X105854924Y-95822787D01*
X105766726Y-95881719D01*
X105691719Y-95956726D01*
X105632787Y-96044924D01*
X105592194Y-96142925D01*
X105588344Y-96162278D01*
X105567482Y-96038725D01*
X105503359Y-95870222D01*
X105407595Y-95717466D01*
X105283870Y-95586328D01*
X105136938Y-95481848D01*
X104972446Y-95408040D01*
X104885903Y-95385902D01*
X104743500Y-95444284D01*
X104616500Y-95444284D01*
X104474097Y-95385902D01*
X104387554Y-95408040D01*
X104223062Y-95481848D01*
X104076130Y-95586328D01*
X103952405Y-95717466D01*
X103856641Y-95870222D01*
X103792518Y-96038725D01*
X103762500Y-96216500D01*
X100215500Y-96216500D01*
X100215500Y-93133506D01*
X100358338Y-93347278D01*
X100652722Y-93641662D01*
X100998882Y-93872959D01*
X101383515Y-94032279D01*
X101791838Y-94113500D01*
X102208162Y-94113500D01*
X102616485Y-94032279D01*
X103001118Y-93872959D01*
X103347278Y-93641662D01*
X103641662Y-93347278D01*
X103816361Y-93085823D01*
X103841557Y-93231521D01*
X103902835Y-93390645D01*
X103993979Y-93534756D01*
X104111486Y-93658317D01*
X104250841Y-93756579D01*
X104406688Y-93825766D01*
X104481939Y-93844588D01*
X104616500Y-93785563D01*
X104616500Y-92713500D01*
X104743500Y-92713500D01*
X104743500Y-93785563D01*
X104878061Y-93844588D01*
X104953312Y-93825766D01*
X105109159Y-93756579D01*
X105248514Y-93658317D01*
X105366021Y-93534756D01*
X105457165Y-93390645D01*
X105518443Y-93231521D01*
X105547500Y-93063500D01*
X105547500Y-92713500D01*
X112452500Y-92713500D01*
X112452500Y-93063500D01*
X112481557Y-93231521D01*
X112542835Y-93390645D01*
X112633979Y-93534756D01*
X112751486Y-93658317D01*
X112890841Y-93756579D01*
X113046688Y-93825766D01*
X113121939Y-93844588D01*
X113256500Y-93785563D01*
X113256500Y-92713500D01*
X112452500Y-92713500D01*
X105547500Y-92713500D01*
X104743500Y-92713500D01*
X104616500Y-92713500D01*
X104596500Y-92713500D01*
X104596500Y-92586500D01*
X104616500Y-92586500D01*
X104616500Y-91514437D01*
X104743500Y-91514437D01*
X104743500Y-92586500D01*
X105547500Y-92586500D01*
X105547500Y-92236500D01*
X112452500Y-92236500D01*
X112452500Y-92586500D01*
X113256500Y-92586500D01*
X113256500Y-91514437D01*
X113121939Y-91455412D01*
X113046688Y-91474234D01*
X112890841Y-91543421D01*
X112751486Y-91641683D01*
X112633979Y-91765244D01*
X112542835Y-91909355D01*
X112481557Y-92068479D01*
X112452500Y-92236500D01*
X105547500Y-92236500D01*
X105518443Y-92068479D01*
X105457165Y-91909355D01*
X105366021Y-91765244D01*
X105248514Y-91641683D01*
X105109159Y-91543421D01*
X104953312Y-91474234D01*
X104878061Y-91455412D01*
X104743500Y-91514437D01*
X104616500Y-91514437D01*
X104481939Y-91455412D01*
X104406688Y-91474234D01*
X104250841Y-91543421D01*
X104111486Y-91641683D01*
X104088450Y-91665905D01*
X104032279Y-91383515D01*
X103872959Y-90998882D01*
X103641662Y-90652722D01*
X103347278Y-90358338D01*
X103133506Y-90215500D01*
X114866494Y-90215500D01*
X114652722Y-90358338D01*
G37*
%TD.AperFunction*%
%TD*%
M02*
