%TF.GenerationSoftware,KiCad,Pcbnew,7.0.5*%
%TF.CreationDate,2023-06-17T10:38:31+08:00*%
%TF.ProjectId,u3-daughterboard,75332d64-6175-4676-9874-6572626f6172,rev?*%
%TF.SameCoordinates,PX4db9760PY501bd00*%
%TF.FileFunction,Copper,L2,Bot*%
%TF.FilePolarity,Positive*%
%FSLAX46Y46*%
G04 Gerber Fmt 4.6, Leading zero omitted, Abs format (unit mm)*
G04 Created by KiCad (PCBNEW 7.0.5) date 2023-06-17 10:38:31*
%MOMM*%
%LPD*%
G01*
G04 APERTURE LIST*
%TA.AperFunction,ComponentPad*%
%ADD10O,1.200000X2.300000*%
%TD*%
%TA.AperFunction,ComponentPad*%
%ADD11O,1.100000X1.800000*%
%TD*%
%TA.AperFunction,ComponentPad*%
%ADD12C,3.600000*%
%TD*%
%TA.AperFunction,ConnectorPad*%
%ADD13C,5.600000*%
%TD*%
%TA.AperFunction,ViaPad*%
%ADD14C,0.800000*%
%TD*%
%TA.AperFunction,ViaPad*%
%ADD15C,0.700000*%
%TD*%
%TA.AperFunction,Conductor*%
%ADD16C,1.000000*%
%TD*%
%TA.AperFunction,Conductor*%
%ADD17C,0.200000*%
%TD*%
G04 APERTURE END LIST*
D10*
%TO.P,J1,S1,SHIELD*%
%TO.N,Earth*%
X31920000Y-5480000D03*
D11*
X31920000Y-1300000D03*
D10*
X23280000Y-5480000D03*
D11*
X23280000Y-1300000D03*
%TD*%
D12*
%TO.P,H2,1,1*%
%TO.N,Earth*%
X36500000Y-4500000D03*
D13*
X36500000Y-4500000D03*
%TD*%
D14*
%TO.N,GND*%
X18600000Y-6800000D03*
D15*
%TO.N,DP*%
X26600000Y-4850000D03*
X18600000Y-2450000D03*
%TO.N,DN*%
X18600000Y-1375000D03*
X27600000Y-4850000D03*
%TO.N,GND*%
X8650000Y-1850000D03*
X16250000Y-3750000D03*
X25100000Y-1350000D03*
X30100000Y-1350000D03*
%TD*%
D16*
%TO.N,Earth*%
X33592893Y-1592893D02*
X36500000Y-4500000D01*
X31920000Y-1300000D02*
X32885786Y-1300000D01*
X33592900Y-1592886D02*
G75*
G03*
X32885786Y-1300000I-707100J-707114D01*
G01*
D17*
%TO.N,DP*%
X26900000Y-4342893D02*
X26900000Y-3800000D01*
X20903553Y-3153553D02*
X19996446Y-2246446D01*
X26600000Y-4850000D02*
X26753554Y-4696446D01*
X26400000Y-3300000D02*
X21257107Y-3300000D01*
X18803553Y-2246447D02*
X18600000Y-2450000D01*
X19642893Y-2100000D02*
X19157107Y-2100000D01*
X19996449Y-2246443D02*
G75*
G03*
X19642893Y-2100000I-353549J-353557D01*
G01*
X26900000Y-3800000D02*
G75*
G03*
X26400000Y-3300000I-500000J0D01*
G01*
X20903550Y-3153556D02*
G75*
G03*
X21257107Y-3300000I353550J353556D01*
G01*
X19157107Y-2100005D02*
G75*
G03*
X18803553Y-2246447I-7J-499995D01*
G01*
X26753557Y-4696449D02*
G75*
G03*
X26900000Y-4342893I-353557J353549D01*
G01*
%TO.N,DN*%
X19132107Y-1700000D02*
X19842893Y-1700000D01*
X20196447Y-1846447D02*
X21103554Y-2753554D01*
X18600000Y-1375000D02*
X18778554Y-1553554D01*
X27300000Y-3758664D02*
X27300000Y-4342893D01*
X21457107Y-2900000D02*
X26441336Y-2900000D01*
X27446447Y-4696447D02*
X27600000Y-4850000D01*
X21103551Y-2753557D02*
G75*
G03*
X21457107Y-2900000I353549J353557D01*
G01*
X18778551Y-1553557D02*
G75*
G03*
X19132107Y-1700000I353549J353557D01*
G01*
X27300005Y-4342893D02*
G75*
G03*
X27446447Y-4696447I499995J-7D01*
G01*
X27300000Y-3758664D02*
G75*
G03*
X26441336Y-2900000I-858700J-36D01*
G01*
X20196450Y-1846444D02*
G75*
G03*
X19842893Y-1700000I-353550J-353556D01*
G01*
%TD*%
%TA.AperFunction,Conductor*%
%TO.N,GND*%
G36*
X22715099Y-170185D02*
G01*
X22760854Y-222989D01*
X22770798Y-292147D01*
X22741773Y-355703D01*
X22735741Y-362181D01*
X22650184Y-447737D01*
X22554211Y-600476D01*
X22494631Y-770745D01*
X22494630Y-770750D01*
X22479500Y-905039D01*
X22479500Y-1694960D01*
X22494630Y-1829249D01*
X22494631Y-1829254D01*
X22554211Y-1999523D01*
X22630573Y-2121052D01*
X22650184Y-2152262D01*
X22777738Y-2279816D01*
X22799099Y-2293238D01*
X22842496Y-2320506D01*
X22888787Y-2372841D01*
X22899435Y-2441894D01*
X22871060Y-2505743D01*
X22812670Y-2544115D01*
X22776524Y-2549500D01*
X21522616Y-2549500D01*
X21522604Y-2549499D01*
X21461167Y-2549499D01*
X21453068Y-2548968D01*
X21437014Y-2546855D01*
X21434592Y-2546536D01*
X21403326Y-2538159D01*
X21397432Y-2535718D01*
X21369399Y-2519533D01*
X21354644Y-2508211D01*
X21348547Y-2502865D01*
X20480608Y-1634926D01*
X20480601Y-1634914D01*
X20444288Y-1598601D01*
X20444289Y-1598601D01*
X20396958Y-1551270D01*
X20288652Y-1472583D01*
X20288648Y-1472580D01*
X20169375Y-1411809D01*
X20169371Y-1411807D01*
X20042047Y-1370439D01*
X19909828Y-1349499D01*
X19909824Y-1349499D01*
X19856275Y-1349499D01*
X19842887Y-1349500D01*
X19311070Y-1349500D01*
X19244031Y-1329815D01*
X19198276Y-1277011D01*
X19188131Y-1241686D01*
X19188112Y-1241543D01*
X19185044Y-1218238D01*
X19124536Y-1072159D01*
X19028282Y-946718D01*
X18902841Y-850464D01*
X18756762Y-789956D01*
X18756760Y-789955D01*
X18600001Y-769318D01*
X18599999Y-769318D01*
X18443239Y-789955D01*
X18443237Y-789956D01*
X18297160Y-850463D01*
X18171718Y-946718D01*
X18075463Y-1072160D01*
X18014956Y-1218237D01*
X18014955Y-1218239D01*
X17994318Y-1374998D01*
X17994318Y-1375001D01*
X18014955Y-1531760D01*
X18014956Y-1531762D01*
X18075464Y-1677841D01*
X18171718Y-1803282D01*
X18185847Y-1814124D01*
X18227050Y-1870550D01*
X18231205Y-1940296D01*
X18196993Y-2001217D01*
X18185853Y-2010871D01*
X18171719Y-2021716D01*
X18075463Y-2147160D01*
X18014956Y-2293237D01*
X18014955Y-2293239D01*
X17994318Y-2449998D01*
X17994318Y-2450001D01*
X18014955Y-2606760D01*
X18014956Y-2606762D01*
X18075464Y-2752841D01*
X18171718Y-2878282D01*
X18297159Y-2974536D01*
X18443238Y-3035044D01*
X18521619Y-3045363D01*
X18599999Y-3055682D01*
X18600000Y-3055682D01*
X18600001Y-3055682D01*
X18652254Y-3048802D01*
X18756762Y-3035044D01*
X18902841Y-2974536D01*
X19028282Y-2878282D01*
X19124536Y-2752841D01*
X19185044Y-2606762D01*
X19191422Y-2558314D01*
X19219688Y-2494418D01*
X19278013Y-2455947D01*
X19314361Y-2450500D01*
X19587381Y-2450500D01*
X19587384Y-2450501D01*
X19638831Y-2450500D01*
X19646931Y-2451031D01*
X19665412Y-2453463D01*
X19696671Y-2461839D01*
X19702571Y-2464283D01*
X19730594Y-2480461D01*
X19745355Y-2491788D01*
X19751455Y-2497137D01*
X20619392Y-3365074D01*
X20619398Y-3365085D01*
X20655711Y-3401398D01*
X20655711Y-3401399D01*
X20703042Y-3448730D01*
X20811348Y-3527417D01*
X20811351Y-3527419D01*
X20841117Y-3542585D01*
X20930630Y-3588193D01*
X21057951Y-3629560D01*
X21190176Y-3650501D01*
X21257112Y-3650500D01*
X26344486Y-3650500D01*
X26387789Y-3650500D01*
X26411972Y-3652881D01*
X26433018Y-3657067D01*
X26477719Y-3675584D01*
X26485206Y-3680587D01*
X26519412Y-3714793D01*
X26524415Y-3722280D01*
X26542933Y-3766985D01*
X26547117Y-3788021D01*
X26549499Y-3812210D01*
X26549499Y-4142221D01*
X26529814Y-4209260D01*
X26477010Y-4255015D01*
X26450991Y-4262488D01*
X26451089Y-4262852D01*
X26443241Y-4264954D01*
X26297160Y-4325463D01*
X26171718Y-4421718D01*
X26075463Y-4547160D01*
X26014956Y-4693237D01*
X26014955Y-4693239D01*
X25994318Y-4849998D01*
X25994318Y-4850001D01*
X26014955Y-5006760D01*
X26014956Y-5006762D01*
X26072696Y-5146160D01*
X26075464Y-5152841D01*
X26171718Y-5278282D01*
X26297159Y-5374536D01*
X26443238Y-5435044D01*
X26521619Y-5445363D01*
X26599999Y-5455682D01*
X26600000Y-5455682D01*
X26600001Y-5455682D01*
X26652254Y-5448802D01*
X26756762Y-5435044D01*
X26902841Y-5374536D01*
X27024515Y-5281171D01*
X27089683Y-5255979D01*
X27158127Y-5270017D01*
X27175478Y-5281167D01*
X27297159Y-5374536D01*
X27443238Y-5435044D01*
X27521619Y-5445363D01*
X27599999Y-5455682D01*
X27600000Y-5455682D01*
X27600001Y-5455682D01*
X27652253Y-5448802D01*
X27756762Y-5435044D01*
X27902841Y-5374536D01*
X28028282Y-5278282D01*
X28124536Y-5152841D01*
X28185044Y-5006762D01*
X28192516Y-4950000D01*
X29909533Y-4950000D01*
X29929312Y-5100234D01*
X29929313Y-5100236D01*
X29962298Y-5179870D01*
X29987302Y-5240233D01*
X30079549Y-5360451D01*
X30199767Y-5452698D01*
X30339764Y-5510687D01*
X30452280Y-5525500D01*
X30452287Y-5525500D01*
X30527713Y-5525500D01*
X30527720Y-5525500D01*
X30640236Y-5510687D01*
X30780233Y-5452698D01*
X30870013Y-5383806D01*
X30935182Y-5358612D01*
X31003627Y-5372650D01*
X31053617Y-5421464D01*
X31069500Y-5482182D01*
X31069500Y-6076116D01*
X31084486Y-6213911D01*
X31143557Y-6389223D01*
X31143558Y-6389225D01*
X31174855Y-6441241D01*
X31222829Y-6520976D01*
X31238931Y-6547737D01*
X31238932Y-6547738D01*
X31366149Y-6682040D01*
X31404430Y-6707995D01*
X31519270Y-6785858D01*
X31519273Y-6785859D01*
X31519276Y-6785861D01*
X31691122Y-6854330D01*
X31691125Y-6854331D01*
X31873683Y-6884260D01*
X32058407Y-6874245D01*
X32058411Y-6874244D01*
X32236656Y-6824755D01*
X32236656Y-6824754D01*
X32236659Y-6824754D01*
X32400104Y-6738100D01*
X32541100Y-6618337D01*
X32653054Y-6471064D01*
X32730732Y-6303167D01*
X32770500Y-6122497D01*
X32770500Y-4883887D01*
X32755514Y-4746090D01*
X32696444Y-4570779D01*
X32601070Y-4412264D01*
X32534192Y-4341662D01*
X32473850Y-4277959D01*
X32372525Y-4209260D01*
X32320730Y-4174142D01*
X32320727Y-4174140D01*
X32320723Y-4174138D01*
X32148877Y-4105669D01*
X32075851Y-4093697D01*
X31966317Y-4075740D01*
X31966314Y-4075740D01*
X31781593Y-4085755D01*
X31781588Y-4085755D01*
X31603343Y-4135244D01*
X31603337Y-4135247D01*
X31439897Y-4221898D01*
X31298900Y-4341662D01*
X31186946Y-4488936D01*
X31150668Y-4567349D01*
X31104653Y-4619927D01*
X31037518Y-4639280D01*
X30970576Y-4619266D01*
X30939754Y-4590769D01*
X30906290Y-4547159D01*
X30900451Y-4539549D01*
X30780233Y-4447302D01*
X30780229Y-4447300D01*
X30695637Y-4412261D01*
X30640236Y-4389313D01*
X30626171Y-4387461D01*
X30527727Y-4374500D01*
X30527720Y-4374500D01*
X30452280Y-4374500D01*
X30452272Y-4374500D01*
X30339764Y-4389313D01*
X30339763Y-4389313D01*
X30199770Y-4447300D01*
X30199767Y-4447301D01*
X30199767Y-4447302D01*
X30079549Y-4539549D01*
X29989554Y-4656833D01*
X29987300Y-4659770D01*
X29929313Y-4799763D01*
X29929312Y-4799765D01*
X29909533Y-4949999D01*
X29909533Y-4950000D01*
X28192516Y-4950000D01*
X28198802Y-4902254D01*
X28205682Y-4850001D01*
X28205682Y-4849998D01*
X28185044Y-4693239D01*
X28185044Y-4693238D01*
X28124536Y-4547159D01*
X28028282Y-4421718D01*
X27902841Y-4325464D01*
X27756762Y-4264956D01*
X27756761Y-4264956D01*
X27748912Y-4262853D01*
X27749355Y-4261199D01*
X27694410Y-4236888D01*
X27655943Y-4178561D01*
X27650499Y-4142226D01*
X27650499Y-3828612D01*
X27650502Y-3828580D01*
X27650500Y-3758648D01*
X27650500Y-3722040D01*
X27650497Y-3722013D01*
X27650496Y-3663488D01*
X27620717Y-3475510D01*
X27620715Y-3475505D01*
X27620715Y-3475502D01*
X27561901Y-3294507D01*
X27545107Y-3261549D01*
X27475493Y-3124928D01*
X27363623Y-2970955D01*
X27229045Y-2836377D01*
X27075072Y-2724507D01*
X26959818Y-2665780D01*
X26905492Y-2638098D01*
X26724497Y-2579284D01*
X26592131Y-2558315D01*
X26536512Y-2549504D01*
X26536511Y-2549503D01*
X26536513Y-2549503D01*
X26504845Y-2549502D01*
X26504811Y-2549500D01*
X26499824Y-2549500D01*
X26441353Y-2549500D01*
X26441339Y-2549499D01*
X26385837Y-2549498D01*
X26385836Y-2549498D01*
X26375857Y-2549498D01*
X26375833Y-2549500D01*
X23783476Y-2549500D01*
X23716437Y-2529815D01*
X23670682Y-2477011D01*
X23660738Y-2407853D01*
X23689763Y-2344297D01*
X23717504Y-2320506D01*
X23782262Y-2279816D01*
X23909816Y-2152262D01*
X24005789Y-1999522D01*
X24065368Y-1829255D01*
X24066447Y-1819685D01*
X24080499Y-1694960D01*
X24080500Y-1694956D01*
X24080500Y-905043D01*
X24080499Y-905039D01*
X24065369Y-770750D01*
X24065368Y-770745D01*
X24049935Y-726641D01*
X24005789Y-600478D01*
X23992574Y-579447D01*
X23961388Y-529815D01*
X23909816Y-447738D01*
X23824259Y-362181D01*
X23790774Y-300858D01*
X23795758Y-231166D01*
X23837630Y-175233D01*
X23903094Y-150816D01*
X23911940Y-150500D01*
X31288060Y-150500D01*
X31355099Y-170185D01*
X31400854Y-222989D01*
X31410798Y-292147D01*
X31381773Y-355703D01*
X31375741Y-362181D01*
X31290184Y-447737D01*
X31194211Y-600476D01*
X31134631Y-770745D01*
X31134630Y-770750D01*
X31119500Y-905039D01*
X31119500Y-1694960D01*
X31134630Y-1829249D01*
X31134631Y-1829254D01*
X31194211Y-1999523D01*
X31270573Y-2121052D01*
X31290184Y-2152262D01*
X31417738Y-2279816D01*
X31570478Y-2375789D01*
X31662112Y-2407853D01*
X31740745Y-2435368D01*
X31740750Y-2435369D01*
X31919996Y-2455565D01*
X31920000Y-2455565D01*
X31920004Y-2455565D01*
X32099249Y-2435369D01*
X32099252Y-2435368D01*
X32099255Y-2435368D01*
X32269522Y-2375789D01*
X32422262Y-2279816D01*
X32549816Y-2152262D01*
X32567871Y-2123528D01*
X32577297Y-2108527D01*
X32629631Y-2062237D01*
X32682290Y-2050500D01*
X32806911Y-2050500D01*
X32806916Y-2050501D01*
X32881731Y-2050500D01*
X32889829Y-2051030D01*
X32934187Y-2056870D01*
X32965449Y-2065245D01*
X32995465Y-2077678D01*
X33023495Y-2093859D01*
X33058939Y-2121056D01*
X33065029Y-2126397D01*
X33441490Y-2502858D01*
X33811455Y-2872823D01*
X33844940Y-2934146D01*
X33839956Y-3003838D01*
X33832302Y-3020485D01*
X33747263Y-3174353D01*
X33690042Y-3312497D01*
X33622524Y-3475502D01*
X33616146Y-3490899D01*
X33521297Y-3820124D01*
X33521295Y-3820133D01*
X33463905Y-4157906D01*
X33463903Y-4157918D01*
X33444693Y-4500000D01*
X33463903Y-4842081D01*
X33463905Y-4842093D01*
X33521295Y-5179866D01*
X33521297Y-5179875D01*
X33573320Y-5360450D01*
X33616147Y-5509104D01*
X33690042Y-5687502D01*
X33747263Y-5825646D01*
X33912998Y-6125521D01*
X34111269Y-6404959D01*
X34339570Y-6660426D01*
X34339573Y-6660429D01*
X34595040Y-6888730D01*
X34595046Y-6888734D01*
X34595047Y-6888735D01*
X34874479Y-7087002D01*
X35174352Y-7252736D01*
X35490896Y-7383853D01*
X35820130Y-7478704D01*
X36157914Y-7536096D01*
X36500000Y-7555307D01*
X36842086Y-7536096D01*
X37179870Y-7478704D01*
X37509104Y-7383853D01*
X37825648Y-7252736D01*
X38125521Y-7087002D01*
X38404953Y-6888735D01*
X38421168Y-6874245D01*
X38515754Y-6789717D01*
X38660428Y-6660428D01*
X38816829Y-6485414D01*
X38888730Y-6404959D01*
X38888731Y-6404957D01*
X38888735Y-6404953D01*
X39087002Y-6125521D01*
X39252736Y-5825648D01*
X39383853Y-5509104D01*
X39478704Y-5179870D01*
X39536096Y-4842086D01*
X39555307Y-4500000D01*
X39536096Y-4157914D01*
X39478704Y-3820130D01*
X39383853Y-3490896D01*
X39252736Y-3174352D01*
X39087002Y-2874479D01*
X38888735Y-2595047D01*
X38888734Y-2595046D01*
X38888730Y-2595040D01*
X38660429Y-2339573D01*
X38660426Y-2339570D01*
X38404959Y-2111269D01*
X38125521Y-1912998D01*
X37927005Y-1803282D01*
X37825648Y-1747264D01*
X37509104Y-1616147D01*
X37424479Y-1591766D01*
X37179875Y-1521297D01*
X37179866Y-1521295D01*
X36842093Y-1463905D01*
X36842081Y-1463903D01*
X36500000Y-1444693D01*
X36157918Y-1463903D01*
X36157906Y-1463905D01*
X35820133Y-1521295D01*
X35820124Y-1521297D01*
X35490899Y-1616146D01*
X35490896Y-1616147D01*
X35445589Y-1634914D01*
X35174353Y-1747263D01*
X35020485Y-1832302D01*
X34952288Y-1847502D01*
X34886700Y-1823418D01*
X34872823Y-1811455D01*
X34161883Y-1100515D01*
X34161867Y-1100486D01*
X34123577Y-1062197D01*
X34123578Y-1062197D01*
X34042448Y-981069D01*
X34042446Y-981067D01*
X33860400Y-841382D01*
X33860399Y-841381D01*
X33860396Y-841379D01*
X33661669Y-726647D01*
X33661663Y-726644D01*
X33661656Y-726641D01*
X33449667Y-638834D01*
X33449663Y-638833D01*
X33228014Y-579446D01*
X33228012Y-579445D01*
X33000520Y-549499D01*
X33000515Y-549498D01*
X33000510Y-549498D01*
X33000502Y-549498D01*
X32885774Y-549500D01*
X32682290Y-549500D01*
X32615251Y-529815D01*
X32577297Y-491473D01*
X32549817Y-447739D01*
X32464259Y-362181D01*
X32430774Y-300858D01*
X32435758Y-231166D01*
X32477630Y-175233D01*
X32543094Y-150816D01*
X32551940Y-150500D01*
X35465649Y-150500D01*
X35498560Y-150500D01*
X35501424Y-150566D01*
X35898456Y-168922D01*
X35904155Y-169449D01*
X36296391Y-224164D01*
X36302002Y-225213D01*
X36687514Y-315884D01*
X36693006Y-317447D01*
X37068513Y-443304D01*
X37073823Y-445361D01*
X37436130Y-605335D01*
X37441230Y-607874D01*
X37654465Y-726646D01*
X37787207Y-800583D01*
X37792078Y-803599D01*
X38118797Y-1027406D01*
X38123356Y-1030849D01*
X38428032Y-1283848D01*
X38432266Y-1287708D01*
X38712291Y-1567733D01*
X38716149Y-1571965D01*
X38969148Y-1876639D01*
X38972593Y-1881202D01*
X39196400Y-2207921D01*
X39199416Y-2212792D01*
X39288563Y-2372841D01*
X39386964Y-2549504D01*
X39392119Y-2558758D01*
X39394668Y-2563877D01*
X39554633Y-2926165D01*
X39556697Y-2931492D01*
X39682550Y-3306986D01*
X39684118Y-3312497D01*
X39774783Y-3697984D01*
X39775836Y-3703616D01*
X39830549Y-4095837D01*
X39831077Y-4101542D01*
X39849367Y-4497135D01*
X39849367Y-4502865D01*
X39831077Y-4898457D01*
X39830549Y-4904162D01*
X39775836Y-5296383D01*
X39774783Y-5302015D01*
X39684118Y-5687502D01*
X39682550Y-5693013D01*
X39556697Y-6068507D01*
X39554630Y-6073842D01*
X39415376Y-6389225D01*
X39394673Y-6436112D01*
X39392119Y-6441241D01*
X39199416Y-6787207D01*
X39196400Y-6792078D01*
X38972593Y-7118797D01*
X38969140Y-7123370D01*
X38716151Y-7428032D01*
X38712291Y-7432266D01*
X38432266Y-7712291D01*
X38428032Y-7716151D01*
X38123370Y-7969140D01*
X38118797Y-7972593D01*
X37792078Y-8196400D01*
X37787207Y-8199416D01*
X37441241Y-8392119D01*
X37436113Y-8394672D01*
X37073842Y-8554630D01*
X37068507Y-8556697D01*
X36693013Y-8682550D01*
X36687502Y-8684118D01*
X36302015Y-8774783D01*
X36296383Y-8775836D01*
X35904162Y-8830549D01*
X35898457Y-8831077D01*
X35501424Y-8849434D01*
X35498560Y-8849500D01*
X4501440Y-8849500D01*
X4498576Y-8849434D01*
X4101542Y-8831077D01*
X4095837Y-8830549D01*
X3703616Y-8775836D01*
X3697984Y-8774783D01*
X3312497Y-8684118D01*
X3306986Y-8682550D01*
X2931492Y-8556697D01*
X2926165Y-8554633D01*
X2563877Y-8394668D01*
X2558758Y-8392119D01*
X2212792Y-8199416D01*
X2207921Y-8196400D01*
X1881202Y-7972593D01*
X1876639Y-7969148D01*
X1571965Y-7716149D01*
X1567733Y-7712291D01*
X1287708Y-7432266D01*
X1283848Y-7428032D01*
X1030849Y-7123356D01*
X1027406Y-7118797D01*
X803599Y-6792078D01*
X800583Y-6787207D01*
X729966Y-6660426D01*
X607874Y-6441230D01*
X605335Y-6436130D01*
X445361Y-6073823D01*
X443302Y-6068507D01*
X332678Y-5738451D01*
X317447Y-5693006D01*
X315884Y-5687514D01*
X225213Y-5302002D01*
X224163Y-5296383D01*
X222041Y-5281173D01*
X169449Y-4904155D01*
X168922Y-4898457D01*
X159434Y-4693237D01*
X150632Y-4502855D01*
X150632Y-4500000D01*
X800000Y-4500000D01*
X819685Y-4825443D01*
X819685Y-4825448D01*
X819686Y-4825449D01*
X878457Y-5146152D01*
X878458Y-5146156D01*
X878459Y-5146160D01*
X975449Y-5457414D01*
X975453Y-5457425D01*
X975454Y-5457428D01*
X975456Y-5457433D01*
X1109269Y-5754753D01*
X1152127Y-5825648D01*
X1277949Y-6033783D01*
X1479023Y-6290434D01*
X1709565Y-6520976D01*
X1966216Y-6722050D01*
X1966221Y-6722053D01*
X1966225Y-6722056D01*
X2245247Y-6890731D01*
X2542567Y-7024544D01*
X2542577Y-7024547D01*
X2542585Y-7024550D01*
X2742999Y-7087001D01*
X2853848Y-7121543D01*
X3174551Y-7180314D01*
X3500000Y-7200000D01*
X3825449Y-7180314D01*
X4146152Y-7121543D01*
X4457433Y-7024544D01*
X4754753Y-6890731D01*
X5033775Y-6722056D01*
X5084851Y-6682041D01*
X5112440Y-6660426D01*
X5290431Y-6520979D01*
X5520979Y-6290431D01*
X5688884Y-6076116D01*
X22429500Y-6076116D01*
X22444486Y-6213911D01*
X22503557Y-6389223D01*
X22503558Y-6389225D01*
X22534855Y-6441241D01*
X22582829Y-6520976D01*
X22598931Y-6547737D01*
X22598932Y-6547738D01*
X22726149Y-6682040D01*
X22764430Y-6707995D01*
X22879270Y-6785858D01*
X22879273Y-6785859D01*
X22879276Y-6785861D01*
X23051122Y-6854330D01*
X23051125Y-6854331D01*
X23233683Y-6884260D01*
X23418407Y-6874245D01*
X23418411Y-6874244D01*
X23596656Y-6824755D01*
X23596656Y-6824754D01*
X23596659Y-6824754D01*
X23760104Y-6738100D01*
X23901100Y-6618337D01*
X24013054Y-6471064D01*
X24090732Y-6303167D01*
X24130500Y-6122497D01*
X24130500Y-5482182D01*
X24150185Y-5415143D01*
X24202989Y-5369388D01*
X24272147Y-5359444D01*
X24329987Y-5383807D01*
X24419765Y-5452697D01*
X24419767Y-5452698D01*
X24559764Y-5510687D01*
X24672280Y-5525500D01*
X24672287Y-5525500D01*
X24747713Y-5525500D01*
X24747720Y-5525500D01*
X24860236Y-5510687D01*
X25000233Y-5452698D01*
X25120451Y-5360451D01*
X25212698Y-5240233D01*
X25270687Y-5100236D01*
X25290466Y-4950000D01*
X25270687Y-4799764D01*
X25212698Y-4659767D01*
X25120451Y-4539549D01*
X25000233Y-4447302D01*
X25000229Y-4447300D01*
X24915637Y-4412261D01*
X24860236Y-4389313D01*
X24846171Y-4387461D01*
X24747727Y-4374500D01*
X24747720Y-4374500D01*
X24672280Y-4374500D01*
X24672272Y-4374500D01*
X24559764Y-4389313D01*
X24559763Y-4389313D01*
X24419770Y-4447300D01*
X24419767Y-4447301D01*
X24419767Y-4447302D01*
X24299549Y-4539549D01*
X24299548Y-4539550D01*
X24263551Y-4586462D01*
X24207122Y-4627664D01*
X24137376Y-4631818D01*
X24076456Y-4597604D01*
X24058926Y-4574903D01*
X23982150Y-4447300D01*
X23961070Y-4412264D01*
X23894192Y-4341662D01*
X23833850Y-4277959D01*
X23732525Y-4209260D01*
X23680730Y-4174142D01*
X23680727Y-4174140D01*
X23680723Y-4174138D01*
X23508877Y-4105669D01*
X23435851Y-4093697D01*
X23326317Y-4075740D01*
X23326314Y-4075740D01*
X23141593Y-4085755D01*
X23141588Y-4085755D01*
X22963343Y-4135244D01*
X22963337Y-4135247D01*
X22799897Y-4221898D01*
X22658900Y-4341662D01*
X22546946Y-4488936D01*
X22469268Y-4656832D01*
X22469266Y-4656836D01*
X22429500Y-4837502D01*
X22429500Y-6076116D01*
X5688884Y-6076116D01*
X5722056Y-6033775D01*
X5890731Y-5754753D01*
X6024544Y-5457433D01*
X6026020Y-5452698D01*
X6054765Y-5360450D01*
X6121543Y-5146152D01*
X6180314Y-4825449D01*
X6200000Y-4500000D01*
X6180314Y-4174551D01*
X6121543Y-3853848D01*
X6074729Y-3703616D01*
X6024550Y-3542585D01*
X6024546Y-3542574D01*
X6024544Y-3542567D01*
X5890731Y-3245247D01*
X5722056Y-2966225D01*
X5722053Y-2966221D01*
X5722050Y-2966216D01*
X5520976Y-2709565D01*
X5290434Y-2479023D01*
X5033783Y-2277949D01*
X5033775Y-2277944D01*
X4754753Y-2109269D01*
X4457433Y-1975456D01*
X4457428Y-1975454D01*
X4457425Y-1975453D01*
X4457414Y-1975449D01*
X4146160Y-1878459D01*
X4146156Y-1878458D01*
X4146152Y-1878457D01*
X3825449Y-1819686D01*
X3825448Y-1819685D01*
X3825443Y-1819685D01*
X3528219Y-1801706D01*
X3500000Y-1800000D01*
X3499999Y-1800000D01*
X3174556Y-1819685D01*
X3174550Y-1819686D01*
X3174551Y-1819686D01*
X2853848Y-1878457D01*
X2853845Y-1878457D01*
X2853839Y-1878459D01*
X2542585Y-1975449D01*
X2542574Y-1975453D01*
X2542568Y-1975455D01*
X2542567Y-1975456D01*
X2463878Y-2010871D01*
X2246896Y-2108527D01*
X2245247Y-2109269D01*
X2182568Y-2147160D01*
X1966216Y-2277949D01*
X1709565Y-2479023D01*
X1479023Y-2709565D01*
X1277949Y-2966216D01*
X1109268Y-3245249D01*
X1109267Y-3245251D01*
X1080260Y-3309703D01*
X982275Y-3527417D01*
X975453Y-3542574D01*
X975449Y-3542585D01*
X878459Y-3853839D01*
X878457Y-3853845D01*
X878457Y-3853848D01*
X834111Y-4095837D01*
X819685Y-4174556D01*
X800000Y-4500000D01*
X150632Y-4500000D01*
X150632Y-4497135D01*
X151012Y-4488936D01*
X165565Y-4174142D01*
X168922Y-4101542D01*
X169450Y-4095837D01*
X224165Y-3703604D01*
X225212Y-3698001D01*
X315885Y-3312479D01*
X317445Y-3306998D01*
X443307Y-2931478D01*
X445358Y-2926183D01*
X605339Y-2563860D01*
X607870Y-2558777D01*
X800587Y-2212784D01*
X803599Y-2207921D01*
X859439Y-2126405D01*
X1027413Y-1881192D01*
X1030840Y-1876653D01*
X1283861Y-1571952D01*
X1287697Y-1567744D01*
X1567744Y-1287697D01*
X1571952Y-1283861D01*
X1876653Y-1030840D01*
X1881192Y-1027413D01*
X2207921Y-803598D01*
X2212784Y-800587D01*
X2558777Y-607870D01*
X2563860Y-605339D01*
X2926183Y-445358D01*
X2931478Y-443307D01*
X3306998Y-317445D01*
X3312479Y-315885D01*
X3698001Y-225212D01*
X3703604Y-224165D01*
X4095846Y-169449D01*
X4101543Y-168922D01*
X4498576Y-150566D01*
X4501440Y-150500D01*
X4534351Y-150500D01*
X22648060Y-150500D01*
X22715099Y-170185D01*
G37*
%TD.AperFunction*%
%TD*%
M02*
