%TF.GenerationSoftware,KiCad,Pcbnew,(5.1.10)-1*%
%TF.CreationDate,2021-06-03T16:35:32+08:00*%
%TF.ProjectId,u1,75312e6b-6963-4616-945f-706362585858,rev?*%
%TF.SameCoordinates,Original*%
%TF.FileFunction,Legend,Bot*%
%TF.FilePolarity,Positive*%
%FSLAX46Y46*%
G04 Gerber Fmt 4.6, Leading zero omitted, Abs format (unit mm)*
G04 Created by KiCad (PCBNEW (5.1.10)-1) date 2021-06-03 16:35:32*
%MOMM*%
%LPD*%
G01*
G04 APERTURE LIST*
%ADD10C,0.120000*%
%ADD11C,0.150000*%
G04 APERTURE END LIST*
D10*
X110006000Y-105198000D02*
X110006000Y-103740000D01*
X112090000Y-103740000D02*
X105890000Y-103740000D01*
X105890000Y-102340000D02*
X105890000Y-105198000D01*
X105890000Y-102340000D02*
X112090000Y-102340000D01*
X110006000Y-105198000D02*
X105890000Y-105198000D01*
X112090000Y-102340000D02*
X112090000Y-103740000D01*
D11*
X108858714Y-104357857D02*
X108858714Y-104924523D01*
X109061095Y-104034047D02*
X109263476Y-104641190D01*
X108737285Y-104641190D01*
X108413476Y-104924523D02*
X108413476Y-104074523D01*
X108089666Y-104074523D01*
X108008714Y-104115000D01*
X107968238Y-104155476D01*
X107927761Y-104236428D01*
X107927761Y-104357857D01*
X107968238Y-104438809D01*
X108008714Y-104479285D01*
X108089666Y-104519761D01*
X108413476Y-104519761D01*
X107563476Y-104924523D02*
X107563476Y-104074523D01*
X107158714Y-104924523D02*
X107158714Y-104074523D01*
X106673000Y-104924523D01*
X106673000Y-104074523D01*
X111156666Y-101174523D02*
X111156666Y-101862619D01*
X111116190Y-101943571D01*
X111075714Y-101984047D01*
X110994761Y-102024523D01*
X110832857Y-102024523D01*
X110751904Y-101984047D01*
X110711428Y-101943571D01*
X110670952Y-101862619D01*
X110670952Y-101174523D01*
X110266190Y-102024523D02*
X110266190Y-101174523D01*
X109780476Y-102024523D01*
X109780476Y-101174523D01*
X109375714Y-102024523D02*
X109375714Y-101174523D01*
X108687619Y-101579285D02*
X108970952Y-101579285D01*
X108970952Y-102024523D02*
X108970952Y-101174523D01*
X108566190Y-101174523D01*
X108242380Y-102024523D02*
X108242380Y-101174523D01*
X107837619Y-101579285D02*
X107554285Y-101579285D01*
X107432857Y-102024523D02*
X107837619Y-102024523D01*
X107837619Y-101174523D01*
X107432857Y-101174523D01*
X107068571Y-102024523D02*
X107068571Y-101174523D01*
X106866190Y-101174523D01*
X106744761Y-101215000D01*
X106663809Y-101295952D01*
X106623333Y-101376904D01*
X106582857Y-101538809D01*
X106582857Y-101660238D01*
X106623333Y-101822142D01*
X106663809Y-101903095D01*
X106744761Y-101984047D01*
X106866190Y-102024523D01*
X107068571Y-102024523D01*
X108858714Y-102574523D02*
X109020619Y-102574523D01*
X109101571Y-102615000D01*
X109142047Y-102655476D01*
X109223000Y-102776904D01*
X109263476Y-102938809D01*
X109263476Y-103262619D01*
X109223000Y-103343571D01*
X109182523Y-103384047D01*
X109101571Y-103424523D01*
X108939666Y-103424523D01*
X108858714Y-103384047D01*
X108818238Y-103343571D01*
X108777761Y-103262619D01*
X108777761Y-103060238D01*
X108818238Y-102979285D01*
X108858714Y-102938809D01*
X108939666Y-102898333D01*
X109101571Y-102898333D01*
X109182523Y-102938809D01*
X109223000Y-102979285D01*
X109263476Y-103060238D01*
X108413476Y-103424523D02*
X108413476Y-102574523D01*
X108089666Y-102574523D01*
X108008714Y-102615000D01*
X107968238Y-102655476D01*
X107927761Y-102736428D01*
X107927761Y-102857857D01*
X107968238Y-102938809D01*
X108008714Y-102979285D01*
X108089666Y-103019761D01*
X108413476Y-103019761D01*
X107563476Y-103424523D02*
X107563476Y-102574523D01*
X107158714Y-103424523D02*
X107158714Y-102574523D01*
X106673000Y-103424523D01*
X106673000Y-102574523D01*
D10*
%TO.C,SW1*%
X110800000Y-93000000D02*
X110800000Y-92700000D01*
X107200000Y-93000000D02*
X110800000Y-93000000D01*
X107200000Y-92700000D02*
X107200000Y-93000000D01*
%TD*%
M02*
