M48
; DRILL file {KiCad 7.0.5} date Tue Jul  4 16:39:15 2023
; FORMAT={-:-/ absolute / metric / decimal}
; #@! TF.CreationDate,2023-07-04T16:39:15+08:00
; #@! TF.GenerationSoftware,Kicad,Pcbnew,7.0.5
; #@! TF.FileFunction,Plated,1,2,PTH
FMAT,2
METRIC
; #@! TA.AperFunction,Plated,PTH,ViaDrill
T1C0.350
; #@! TA.AperFunction,Plated,PTH,ViaDrill
T2C0.400
; #@! TA.AperFunction,Plated,PTH,ComponentDrill
T3C0.600
; #@! TA.AperFunction,Plated,PTH,ComponentDrill
T4C3.200
%
G90
G05
T1
X16.899Y-30.65
X16.899Y-62.65
X16.899Y-94.65
X19.399Y-27.15
X19.399Y-59.15
X19.399Y-91.15
X20.399Y-27.15
X20.399Y-59.15
X20.399Y-91.15
X21.899Y-30.65
X21.899Y-62.65
X21.899Y-94.65
X24.899Y-8.375
X24.899Y-9.45
X24.899Y-40.375
X24.899Y-41.45
X24.899Y-72.375
X24.899Y-73.45
X29.099Y-29.55
X29.099Y-30.625
X29.099Y-61.55
X29.099Y-62.625
X29.099Y-93.55
X29.099Y-94.625
X32.099Y-8.35
X32.099Y-40.35
X32.099Y-72.35
X33.599Y-11.85
X33.599Y-43.85
X33.599Y-75.85
X34.599Y-11.85
X34.599Y-43.85
X34.599Y-75.85
X37.099Y-8.35
X37.099Y-40.35
X37.099Y-72.35
X58.899Y-30.65
X58.899Y-62.65
X58.899Y-94.65
X61.399Y-27.15
X61.399Y-59.15
X61.399Y-91.15
X62.399Y-27.15
X62.399Y-59.15
X62.399Y-91.15
X63.899Y-30.65
X63.899Y-62.65
X63.899Y-94.65
X66.899Y-8.375
X66.899Y-9.45
X66.899Y-40.375
X66.899Y-41.45
X66.899Y-72.375
X66.899Y-73.45
X71.099Y-29.55
X71.099Y-30.625
X71.099Y-61.55
X71.099Y-62.625
X71.099Y-93.55
X71.099Y-94.625
X74.099Y-8.35
X74.099Y-40.35
X74.099Y-72.35
X75.599Y-11.85
X75.599Y-43.85
X75.599Y-75.85
X76.599Y-11.85
X76.599Y-43.85
X76.599Y-75.85
X79.099Y-8.35
X79.099Y-40.35
X79.099Y-72.35
X100.899Y-30.65
X100.899Y-62.65
X100.899Y-94.65
X103.399Y-27.15
X103.399Y-59.15
X103.399Y-91.15
X104.399Y-27.15
X104.399Y-59.15
X104.399Y-91.15
X105.899Y-30.65
X105.899Y-62.65
X105.899Y-94.65
X108.899Y-8.375
X108.899Y-9.45
X108.899Y-40.375
X108.899Y-41.45
X108.899Y-72.375
X108.899Y-73.45
X113.099Y-29.55
X113.099Y-30.625
X113.099Y-61.55
X113.099Y-62.625
X113.099Y-93.55
X113.099Y-94.625
X116.099Y-8.35
X116.099Y-40.35
X116.099Y-72.35
X117.599Y-11.85
X117.599Y-43.85
X117.599Y-75.85
X118.599Y-11.85
X118.599Y-43.85
X118.599Y-75.85
X121.099Y-8.35
X121.099Y-40.35
X121.099Y-72.35
T2
X26.399Y-25.05
X26.399Y-57.05
X26.399Y-89.05
X27.599Y-13.95
X27.599Y-45.95
X27.599Y-77.95
X68.399Y-25.05
X68.399Y-57.05
X68.399Y-89.05
X69.599Y-13.95
X69.599Y-45.95
X69.599Y-77.95
X110.399Y-25.05
X110.399Y-57.05
X110.399Y-89.05
X111.599Y-13.95
X111.599Y-45.95
X111.599Y-77.95
T4
X10.499Y-27.5
X10.499Y-59.5
X10.499Y-91.5
X43.499Y-11.5
X43.499Y-43.5
X43.499Y-75.5
X52.499Y-27.5
X52.499Y-59.5
X52.499Y-91.5
X85.499Y-11.5
X85.499Y-43.5
X85.499Y-75.5
X94.499Y-27.5
X94.499Y-59.5
X94.499Y-91.5
X127.499Y-11.5
X127.499Y-43.5
X127.499Y-75.5
T3
G00X15.079Y-25.97
M15
G01X15.079Y-27.07
M16
G05
G00X15.079Y-30.4
M15
G01X15.079Y-31.0
M16
G05
G00X15.079Y-57.97
M15
G01X15.079Y-59.07
M16
G05
G00X15.079Y-62.4
M15
G01X15.079Y-63.0
M16
G05
G00X15.079Y-89.97
M15
G01X15.079Y-91.07
M16
G05
G00X15.079Y-94.4
M15
G01X15.079Y-95.0
M16
G05
G00X23.719Y-25.97
M15
G01X23.719Y-27.07
M16
G05
G00X23.719Y-30.4
M15
G01X23.719Y-31.0
M16
G05
G00X23.719Y-57.97
M15
G01X23.719Y-59.07
M16
G05
G00X23.719Y-62.4
M15
G01X23.719Y-63.0
M16
G05
G00X23.719Y-89.97
M15
G01X23.719Y-91.07
M16
G05
G00X23.719Y-94.4
M15
G01X23.719Y-95.0
M16
G05
G00X30.279Y-8.6
M15
G01X30.279Y-8.0
M16
G05
G00X30.279Y-13.03
M15
G01X30.279Y-11.93
M16
G05
G00X30.279Y-40.6
M15
G01X30.279Y-40.0
M16
G05
G00X30.279Y-45.03
M15
G01X30.279Y-43.93
M16
G05
G00X30.279Y-72.6
M15
G01X30.279Y-72.0
M16
G05
G00X30.279Y-77.03
M15
G01X30.279Y-75.93
M16
G05
G00X38.919Y-8.6
M15
G01X38.919Y-8.0
M16
G05
G00X38.919Y-13.03
M15
G01X38.919Y-11.93
M16
G05
G00X38.919Y-40.6
M15
G01X38.919Y-40.0
M16
G05
G00X38.919Y-45.03
M15
G01X38.919Y-43.93
M16
G05
G00X38.919Y-72.6
M15
G01X38.919Y-72.0
M16
G05
G00X38.919Y-77.03
M15
G01X38.919Y-75.93
M16
G05
G00X57.079Y-25.97
M15
G01X57.079Y-27.07
M16
G05
G00X57.079Y-30.4
M15
G01X57.079Y-31.0
M16
G05
G00X57.079Y-57.97
M15
G01X57.079Y-59.07
M16
G05
G00X57.079Y-62.4
M15
G01X57.079Y-63.0
M16
G05
G00X57.079Y-89.97
M15
G01X57.079Y-91.07
M16
G05
G00X57.079Y-94.4
M15
G01X57.079Y-95.0
M16
G05
G00X65.719Y-25.97
M15
G01X65.719Y-27.07
M16
G05
G00X65.719Y-30.4
M15
G01X65.719Y-31.0
M16
G05
G00X65.719Y-57.97
M15
G01X65.719Y-59.07
M16
G05
G00X65.719Y-62.4
M15
G01X65.719Y-63.0
M16
G05
G00X65.719Y-89.97
M15
G01X65.719Y-91.07
M16
G05
G00X65.719Y-94.4
M15
G01X65.719Y-95.0
M16
G05
G00X72.279Y-8.6
M15
G01X72.279Y-8.0
M16
G05
G00X72.279Y-13.03
M15
G01X72.279Y-11.93
M16
G05
G00X72.279Y-40.6
M15
G01X72.279Y-40.0
M16
G05
G00X72.279Y-45.03
M15
G01X72.279Y-43.93
M16
G05
G00X72.279Y-72.6
M15
G01X72.279Y-72.0
M16
G05
G00X72.279Y-77.03
M15
G01X72.279Y-75.93
M16
G05
G00X80.919Y-8.6
M15
G01X80.919Y-8.0
M16
G05
G00X80.919Y-13.03
M15
G01X80.919Y-11.93
M16
G05
G00X80.919Y-40.6
M15
G01X80.919Y-40.0
M16
G05
G00X80.919Y-45.03
M15
G01X80.919Y-43.93
M16
G05
G00X80.919Y-72.6
M15
G01X80.919Y-72.0
M16
G05
G00X80.919Y-77.03
M15
G01X80.919Y-75.93
M16
G05
G00X99.079Y-25.97
M15
G01X99.079Y-27.07
M16
G05
G00X99.079Y-30.4
M15
G01X99.079Y-31.0
M16
G05
G00X99.079Y-57.97
M15
G01X99.079Y-59.07
M16
G05
G00X99.079Y-62.4
M15
G01X99.079Y-63.0
M16
G05
G00X99.079Y-89.97
M15
G01X99.079Y-91.07
M16
G05
G00X99.079Y-94.4
M15
G01X99.079Y-95.0
M16
G05
G00X107.719Y-25.97
M15
G01X107.719Y-27.07
M16
G05
G00X107.719Y-30.4
M15
G01X107.719Y-31.0
M16
G05
G00X107.719Y-57.97
M15
G01X107.719Y-59.07
M16
G05
G00X107.719Y-62.4
M15
G01X107.719Y-63.0
M16
G05
G00X107.719Y-89.97
M15
G01X107.719Y-91.07
M16
G05
G00X107.719Y-94.4
M15
G01X107.719Y-95.0
M16
G05
G00X114.279Y-8.6
M15
G01X114.279Y-8.0
M16
G05
G00X114.279Y-13.03
M15
G01X114.279Y-11.93
M16
G05
G00X114.279Y-40.6
M15
G01X114.279Y-40.0
M16
G05
G00X114.279Y-45.03
M15
G01X114.279Y-43.93
M16
G05
G00X114.279Y-72.6
M15
G01X114.279Y-72.0
M16
G05
G00X114.279Y-77.03
M15
G01X114.279Y-75.93
M16
G05
G00X122.919Y-8.6
M15
G01X122.919Y-8.0
M16
G05
G00X122.919Y-13.03
M15
G01X122.919Y-11.93
M16
G05
G00X122.919Y-40.6
M15
G01X122.919Y-40.0
M16
G05
G00X122.919Y-45.03
M15
G01X122.919Y-43.93
M16
G05
G00X122.919Y-72.6
M15
G01X122.919Y-72.0
M16
G05
G00X122.919Y-77.03
M15
G01X122.919Y-75.93
M16
G05
T0
M30
