M48
; DRILL file {KiCad 7.0.5} date Tue Jul  4 16:39:15 2023
; FORMAT={-:-/ absolute / metric / decimal}
; #@! TF.CreationDate,2023-07-04T16:39:15+08:00
; #@! TF.GenerationSoftware,Kicad,Pcbnew,7.0.5
; #@! TF.FileFunction,NonPlated,1,2,NPTH
FMAT,2
METRIC
; #@! TA.AperFunction,NonPlated,NPTH,ComponentDrill
T1C0.600
; #@! TA.AperFunction,NonPlated,NPTH,ComponentDrill
T2C0.650
; #@! TA.AperFunction,NonPlated,NPTH,ComponentDrill
T3C2.000
; #@! TA.AperFunction,NonPlated,NPTH,ComponentDrill
T4C3.200
%
G90
G05
T1
X24.099Y-16.0
X24.099Y-23.0
X24.099Y-48.0
X24.099Y-55.0
X24.099Y-80.0
X24.099Y-87.0
X24.927Y-16.0
X24.927Y-23.0
X24.927Y-48.0
X24.927Y-55.0
X24.927Y-80.0
X24.927Y-87.0
X25.756Y-16.0
X25.756Y-23.0
X25.756Y-48.0
X25.756Y-55.0
X25.756Y-80.0
X25.756Y-87.0
X26.584Y-16.0
X26.584Y-23.0
X26.584Y-48.0
X26.584Y-55.0
X26.584Y-80.0
X26.584Y-87.0
X27.413Y-16.0
X27.413Y-23.0
X27.413Y-48.0
X27.413Y-55.0
X27.413Y-80.0
X27.413Y-87.0
X28.241Y-16.0
X28.241Y-23.0
X28.241Y-48.0
X28.241Y-55.0
X28.241Y-80.0
X28.241Y-87.0
X29.07Y-16.0
X29.07Y-23.0
X29.07Y-48.0
X29.07Y-55.0
X29.07Y-80.0
X29.07Y-87.0
X29.899Y-16.0
X29.899Y-23.0
X29.899Y-48.0
X29.899Y-55.0
X29.899Y-80.0
X29.899Y-87.0
X66.099Y-16.0
X66.099Y-23.0
X66.099Y-48.0
X66.099Y-55.0
X66.099Y-80.0
X66.099Y-87.0
X66.927Y-16.0
X66.927Y-23.0
X66.927Y-48.0
X66.927Y-55.0
X66.927Y-80.0
X66.927Y-87.0
X67.756Y-16.0
X67.756Y-23.0
X67.756Y-48.0
X67.756Y-55.0
X67.756Y-80.0
X67.756Y-87.0
X68.584Y-16.0
X68.584Y-23.0
X68.584Y-48.0
X68.584Y-55.0
X68.584Y-80.0
X68.584Y-87.0
X69.413Y-16.0
X69.413Y-23.0
X69.413Y-48.0
X69.413Y-55.0
X69.413Y-80.0
X69.413Y-87.0
X70.241Y-16.0
X70.241Y-23.0
X70.241Y-48.0
X70.241Y-55.0
X70.241Y-80.0
X70.241Y-87.0
X71.07Y-16.0
X71.07Y-23.0
X71.07Y-48.0
X71.07Y-55.0
X71.07Y-80.0
X71.07Y-87.0
X71.899Y-16.0
X71.899Y-23.0
X71.899Y-48.0
X71.899Y-55.0
X71.899Y-80.0
X71.899Y-87.0
X108.099Y-16.0
X108.099Y-23.0
X108.099Y-48.0
X108.099Y-55.0
X108.099Y-80.0
X108.099Y-87.0
X108.927Y-16.0
X108.927Y-23.0
X108.927Y-48.0
X108.927Y-55.0
X108.927Y-80.0
X108.927Y-87.0
X109.756Y-16.0
X109.756Y-23.0
X109.756Y-48.0
X109.756Y-55.0
X109.756Y-80.0
X109.756Y-87.0
X110.584Y-16.0
X110.584Y-23.0
X110.584Y-48.0
X110.584Y-55.0
X110.584Y-80.0
X110.584Y-87.0
X111.413Y-16.0
X111.413Y-23.0
X111.413Y-48.0
X111.413Y-55.0
X111.413Y-80.0
X111.413Y-87.0
X112.241Y-16.0
X112.241Y-23.0
X112.241Y-48.0
X112.241Y-55.0
X112.241Y-80.0
X112.241Y-87.0
X113.07Y-16.0
X113.07Y-23.0
X113.07Y-48.0
X113.07Y-55.0
X113.07Y-80.0
X113.07Y-87.0
X113.899Y-16.0
X113.899Y-23.0
X113.899Y-48.0
X113.899Y-55.0
X113.899Y-80.0
X113.899Y-87.0
T2
X16.509Y-27.05
X16.509Y-59.05
X16.509Y-91.05
X22.289Y-27.05
X22.289Y-59.05
X22.289Y-91.05
X31.709Y-11.95
X31.709Y-43.95
X31.709Y-75.95
X37.489Y-11.95
X37.489Y-43.95
X37.489Y-75.95
X58.509Y-27.05
X58.509Y-59.05
X58.509Y-91.05
X64.289Y-27.05
X64.289Y-59.05
X64.289Y-91.05
X73.709Y-11.95
X73.709Y-43.95
X73.709Y-75.95
X79.489Y-11.95
X79.489Y-43.95
X79.489Y-75.95
X100.509Y-27.05
X100.509Y-59.05
X100.509Y-91.05
X106.289Y-27.05
X106.289Y-59.05
X106.289Y-91.05
X115.709Y-11.95
X115.709Y-43.95
X115.709Y-75.95
X121.489Y-11.95
X121.489Y-43.95
X121.489Y-75.95
T3
X2.5Y-2.5
X2.5Y-100.5
X135.497Y-2.5
X135.497Y-100.5
T4
X10.499Y-11.5
X10.499Y-43.5
X10.499Y-75.5
X43.499Y-27.5
X43.499Y-59.5
X43.499Y-91.5
X52.499Y-11.5
X52.499Y-43.5
X52.499Y-75.5
X85.499Y-27.5
X85.499Y-59.5
X85.499Y-91.5
X94.499Y-11.5
X94.499Y-43.5
X94.499Y-75.5
X127.499Y-27.5
X127.499Y-59.5
X127.499Y-91.5
T0
M30
