%TF.GenerationSoftware,KiCad,Pcbnew,7.0.5*%
%TF.CreationDate,2023-07-04T16:39:27+08:00*%
%TF.ProjectId,u3-panelized,75332d70-616e-4656-9c69-7a65642e6b69,rev?*%
%TF.SameCoordinates,PX1312d00PY1312d00*%
%TF.FileFunction,Paste,Top*%
%TF.FilePolarity,Positive*%
%FSLAX46Y46*%
G04 Gerber Fmt 4.6, Leading zero omitted, Abs format (unit mm)*
G04 Created by KiCad (PCBNEW 7.0.5) date 2023-07-04 16:39:27*
%MOMM*%
%LPD*%
G01*
G04 APERTURE LIST*
G04 Aperture macros list*
%AMRoundRect*
0 Rectangle with rounded corners*
0 $1 Rounding radius*
0 $2 $3 $4 $5 $6 $7 $8 $9 X,Y pos of 4 corners*
0 Add a 4 corners polygon primitive as box body*
4,1,4,$2,$3,$4,$5,$6,$7,$8,$9,$2,$3,0*
0 Add four circle primitives for the rounded corners*
1,1,$1+$1,$2,$3*
1,1,$1+$1,$4,$5*
1,1,$1+$1,$6,$7*
1,1,$1+$1,$8,$9*
0 Add four rect primitives between the rounded corners*
20,1,$1+$1,$2,$3,$4,$5,0*
20,1,$1+$1,$4,$5,$6,$7,0*
20,1,$1+$1,$6,$7,$8,$9,0*
20,1,$1+$1,$8,$9,$2,$3,0*%
G04 Aperture macros list end*
%ADD10RoundRect,0.112500X0.112500X-0.187500X0.112500X0.187500X-0.112500X0.187500X-0.112500X-0.187500X0*%
%ADD11RoundRect,0.200000X0.275000X-0.200000X0.275000X0.200000X-0.275000X0.200000X-0.275000X-0.200000X0*%
%ADD12RoundRect,0.135000X-0.135000X-0.185000X0.135000X-0.185000X0.135000X0.185000X-0.135000X0.185000X0*%
%ADD13R,0.600000X1.450000*%
%ADD14R,0.300000X1.450000*%
%ADD15O,1.200000X2.300000*%
%ADD16O,1.100000X1.800000*%
%ADD17RoundRect,0.135000X0.135000X0.185000X-0.135000X0.185000X-0.135000X-0.185000X0.135000X-0.185000X0*%
%ADD18RoundRect,0.140000X-0.170000X0.140000X-0.170000X-0.140000X0.170000X-0.140000X0.170000X0.140000X0*%
%ADD19RoundRect,0.200000X-0.275000X0.200000X-0.275000X-0.200000X0.275000X-0.200000X0.275000X0.200000X0*%
%ADD20R,0.800000X1.000000*%
%ADD21R,1.200000X1.000000*%
%ADD22R,1.100000X1.000000*%
%ADD23RoundRect,0.112500X-0.112500X0.187500X-0.112500X-0.187500X0.112500X-0.187500X0.112500X0.187500X0*%
%ADD24RoundRect,0.140000X0.170000X-0.140000X0.170000X0.140000X-0.170000X0.140000X-0.170000X-0.140000X0*%
%ADD25R,0.500000X0.375000*%
%ADD26R,0.650000X0.300000*%
G04 APERTURE END LIST*
D10*
%TO.C,D1*%
X69598601Y-79000001D03*
X69598601Y-76900001D03*
%TD*%
D11*
%TO.C,R3*%
X27598601Y-41950000D03*
X27598601Y-40300000D03*
%TD*%
D12*
%TO.C,R2*%
X22738601Y-76900000D03*
X23758601Y-76900000D03*
%TD*%
D13*
%TO.C,J1*%
X100148601Y-57605000D03*
X100948601Y-57605000D03*
D14*
X102148601Y-57605000D03*
X103148601Y-57605000D03*
X103648601Y-57605000D03*
X104648601Y-57605000D03*
D13*
X105848601Y-57605000D03*
X106648601Y-57605000D03*
X106648601Y-57605000D03*
X105848601Y-57605000D03*
D14*
X105148601Y-57605000D03*
X104148601Y-57605000D03*
X102648601Y-57605000D03*
X101648601Y-57605000D03*
D13*
X100948601Y-57605000D03*
X100148601Y-57605000D03*
D15*
X99078601Y-58520000D03*
D16*
X99078601Y-62700000D03*
D15*
X107718601Y-58520000D03*
D16*
X107718601Y-62700000D03*
%TD*%
D13*
%TO.C,J1*%
X79848601Y-77395000D03*
X79048601Y-77395000D03*
D14*
X77848601Y-77395000D03*
X76848601Y-77395000D03*
X76348601Y-77395000D03*
X75348601Y-77395000D03*
D13*
X74148601Y-77395000D03*
X73348601Y-77395000D03*
X73348601Y-77395000D03*
X74148601Y-77395000D03*
D14*
X74848601Y-77395000D03*
X75848601Y-77395000D03*
X77348601Y-77395000D03*
X78348601Y-77395000D03*
D13*
X79048601Y-77395000D03*
X79848601Y-77395000D03*
D15*
X80918601Y-76480000D03*
D16*
X80918601Y-72300000D03*
D15*
X72278601Y-76480000D03*
D16*
X72278601Y-72300000D03*
%TD*%
D17*
%TO.C,R1*%
X65758601Y-43900000D03*
X64738601Y-43900000D03*
%TD*%
D10*
%TO.C,D1*%
X111598601Y-15000001D03*
X111598601Y-12900001D03*
%TD*%
D11*
%TO.C,R3*%
X27598601Y-73950000D03*
X27598601Y-72300000D03*
%TD*%
D12*
%TO.C,R2*%
X106738601Y-12900000D03*
X107758601Y-12900000D03*
%TD*%
D18*
%TO.C,C1*%
X28098601Y-56569999D03*
X28098601Y-57529999D03*
%TD*%
D17*
%TO.C,R1*%
X65758601Y-75900000D03*
X64738601Y-75900000D03*
%TD*%
D12*
%TO.C,R1*%
X72238601Y-27100000D03*
X73258601Y-27100000D03*
%TD*%
D13*
%TO.C,J1*%
X121848601Y-13395000D03*
X121048601Y-13395000D03*
D14*
X119848601Y-13395000D03*
X118848601Y-13395000D03*
X118348601Y-13395000D03*
X117348601Y-13395000D03*
D13*
X116148601Y-13395000D03*
X115348601Y-13395000D03*
X115348601Y-13395000D03*
X116148601Y-13395000D03*
D14*
X116848601Y-13395000D03*
X117848601Y-13395000D03*
X119348601Y-13395000D03*
X120348601Y-13395000D03*
D13*
X121048601Y-13395000D03*
X121848601Y-13395000D03*
D15*
X122918601Y-12480000D03*
D16*
X122918601Y-8300000D03*
D15*
X114278601Y-12480000D03*
D16*
X114278601Y-8300000D03*
%TD*%
D19*
%TO.C,R3*%
X68398601Y-61050000D03*
X68398601Y-62700000D03*
%TD*%
D20*
%TO.C,J2*%
X99698601Y-43125000D03*
X100898601Y-43125000D03*
X102098601Y-43125000D03*
X103298601Y-43125000D03*
D21*
X98498601Y-46975000D03*
D22*
X104498601Y-46975000D03*
%TD*%
D23*
%TO.C,D1*%
X68398601Y-55999999D03*
X68398601Y-58099999D03*
%TD*%
D18*
%TO.C,C1*%
X28098601Y-24569999D03*
X28098601Y-25529999D03*
%TD*%
D24*
%TO.C,C1*%
X109898601Y-46430001D03*
X109898601Y-45470001D03*
%TD*%
D11*
%TO.C,R3*%
X27598601Y-9950000D03*
X27598601Y-8300000D03*
%TD*%
D25*
%TO.C,U1*%
X71898601Y-93550000D03*
D26*
X71823601Y-94087500D03*
D25*
X71898601Y-94625000D03*
X73598601Y-94625000D03*
D26*
X73673601Y-94087500D03*
D25*
X73598601Y-93550000D03*
%TD*%
D13*
%TO.C,J1*%
X58148601Y-89605000D03*
X58948601Y-89605000D03*
D14*
X60148601Y-89605000D03*
X61148601Y-89605000D03*
X61648601Y-89605000D03*
X62648601Y-89605000D03*
D13*
X63848601Y-89605000D03*
X64648601Y-89605000D03*
X64648601Y-89605000D03*
X63848601Y-89605000D03*
D14*
X63148601Y-89605000D03*
X62148601Y-89605000D03*
X60648601Y-89605000D03*
X59648601Y-89605000D03*
D13*
X58948601Y-89605000D03*
X58148601Y-89605000D03*
D15*
X57078601Y-90520000D03*
D16*
X57078601Y-94700000D03*
D15*
X65718601Y-90520000D03*
D16*
X65718601Y-94700000D03*
%TD*%
D17*
%TO.C,R1*%
X65758601Y-11900000D03*
X64738601Y-11900000D03*
%TD*%
D25*
%TO.C,U1*%
X24098601Y-41450000D03*
D26*
X24173601Y-40912500D03*
D25*
X24098601Y-40375000D03*
X22398601Y-40375000D03*
D26*
X22323601Y-40912500D03*
D25*
X22398601Y-41450000D03*
%TD*%
D24*
%TO.C,C1*%
X25898601Y-14430001D03*
X25898601Y-13470001D03*
%TD*%
D18*
%TO.C,C1*%
X112098601Y-56569999D03*
X112098601Y-57529999D03*
%TD*%
D25*
%TO.C,U1*%
X66098601Y-9450000D03*
D26*
X66173601Y-8912500D03*
D25*
X66098601Y-8375000D03*
X64398601Y-8375000D03*
D26*
X64323601Y-8912500D03*
D25*
X64398601Y-9450000D03*
%TD*%
D18*
%TO.C,C1*%
X28098601Y-88569999D03*
X28098601Y-89529999D03*
%TD*%
D24*
%TO.C,C1*%
X67898601Y-46430001D03*
X67898601Y-45470001D03*
%TD*%
D20*
%TO.C,J2*%
X38298601Y-59875000D03*
X37098601Y-59875000D03*
X35898601Y-59875000D03*
X34698601Y-59875000D03*
D21*
X39498601Y-56025000D03*
D22*
X33498601Y-56025000D03*
%TD*%
D10*
%TO.C,D1*%
X69598601Y-47000001D03*
X69598601Y-44900001D03*
%TD*%
D13*
%TO.C,J1*%
X16148601Y-57605000D03*
X16948601Y-57605000D03*
D14*
X18148601Y-57605000D03*
X19148601Y-57605000D03*
X19648601Y-57605000D03*
X20648601Y-57605000D03*
D13*
X21848601Y-57605000D03*
X22648601Y-57605000D03*
X22648601Y-57605000D03*
X21848601Y-57605000D03*
D14*
X21148601Y-57605000D03*
X20148601Y-57605000D03*
X18648601Y-57605000D03*
X17648601Y-57605000D03*
D13*
X16948601Y-57605000D03*
X16148601Y-57605000D03*
D15*
X15078601Y-58520000D03*
D16*
X15078601Y-62700000D03*
D15*
X23718601Y-58520000D03*
D16*
X23718601Y-62700000D03*
%TD*%
D18*
%TO.C,C1*%
X70098601Y-88569999D03*
X70098601Y-89529999D03*
%TD*%
%TO.C,C1*%
X112098601Y-24569999D03*
X112098601Y-25529999D03*
%TD*%
D25*
%TO.C,U1*%
X29898601Y-93550000D03*
D26*
X29823601Y-94087500D03*
D25*
X29898601Y-94625000D03*
X31598601Y-94625000D03*
D26*
X31673601Y-94087500D03*
D25*
X31598601Y-93550000D03*
%TD*%
D20*
%TO.C,J2*%
X57698601Y-75125000D03*
X58898601Y-75125000D03*
X60098601Y-75125000D03*
X61298601Y-75125000D03*
D21*
X56498601Y-78975000D03*
D22*
X62498601Y-78975000D03*
%TD*%
D12*
%TO.C,R1*%
X30238601Y-59100000D03*
X31258601Y-59100000D03*
%TD*%
D17*
%TO.C,R2*%
X73258601Y-90100000D03*
X72238601Y-90100000D03*
%TD*%
%TO.C,R1*%
X23758601Y-43900000D03*
X22738601Y-43900000D03*
%TD*%
D25*
%TO.C,U1*%
X108098601Y-9450000D03*
D26*
X108173601Y-8912500D03*
D25*
X108098601Y-8375000D03*
X106398601Y-8375000D03*
D26*
X106323601Y-8912500D03*
D25*
X106398601Y-9450000D03*
%TD*%
D17*
%TO.C,R2*%
X73258601Y-26100000D03*
X72238601Y-26100000D03*
%TD*%
D20*
%TO.C,J2*%
X15698601Y-11125000D03*
X16898601Y-11125000D03*
X18098601Y-11125000D03*
X19298601Y-11125000D03*
D21*
X14498601Y-14975000D03*
D22*
X20498601Y-14975000D03*
%TD*%
D24*
%TO.C,C1*%
X67898601Y-14430001D03*
X67898601Y-13470001D03*
%TD*%
D25*
%TO.C,U1*%
X66098601Y-41450000D03*
D26*
X66173601Y-40912500D03*
D25*
X66098601Y-40375000D03*
X64398601Y-40375000D03*
D26*
X64323601Y-40912500D03*
D25*
X64398601Y-41450000D03*
%TD*%
%TO.C,U1*%
X66098601Y-73450000D03*
D26*
X66173601Y-72912500D03*
D25*
X66098601Y-72375000D03*
X64398601Y-72375000D03*
D26*
X64323601Y-72912500D03*
D25*
X64398601Y-73450000D03*
%TD*%
D24*
%TO.C,C1*%
X109898601Y-14430001D03*
X109898601Y-13470001D03*
%TD*%
D23*
%TO.C,D1*%
X68398601Y-87999999D03*
X68398601Y-90099999D03*
%TD*%
D25*
%TO.C,U1*%
X113898601Y-61550000D03*
D26*
X113823601Y-62087500D03*
D25*
X113898601Y-62625000D03*
X115598601Y-62625000D03*
D26*
X115673601Y-62087500D03*
D25*
X115598601Y-61550000D03*
%TD*%
D17*
%TO.C,R2*%
X31258601Y-26100000D03*
X30238601Y-26100000D03*
%TD*%
D18*
%TO.C,C1*%
X70098601Y-56569999D03*
X70098601Y-57529999D03*
%TD*%
D19*
%TO.C,R3*%
X68398601Y-93050000D03*
X68398601Y-94700000D03*
%TD*%
%TO.C,R3*%
X110398601Y-93050000D03*
X110398601Y-94700000D03*
%TD*%
D13*
%TO.C,J1*%
X37848601Y-45395000D03*
X37048601Y-45395000D03*
D14*
X35848601Y-45395000D03*
X34848601Y-45395000D03*
X34348601Y-45395000D03*
X33348601Y-45395000D03*
D13*
X32148601Y-45395000D03*
X31348601Y-45395000D03*
X31348601Y-45395000D03*
X32148601Y-45395000D03*
D14*
X32848601Y-45395000D03*
X33848601Y-45395000D03*
X35348601Y-45395000D03*
X36348601Y-45395000D03*
D13*
X37048601Y-45395000D03*
X37848601Y-45395000D03*
D15*
X38918601Y-44480000D03*
D16*
X38918601Y-40300000D03*
D15*
X30278601Y-44480000D03*
D16*
X30278601Y-40300000D03*
%TD*%
D17*
%TO.C,R2*%
X115258601Y-26100000D03*
X114238601Y-26100000D03*
%TD*%
D20*
%TO.C,J2*%
X38298601Y-91875000D03*
X37098601Y-91875000D03*
X35898601Y-91875000D03*
X34698601Y-91875000D03*
D21*
X39498601Y-88025000D03*
D22*
X33498601Y-88025000D03*
%TD*%
D10*
%TO.C,D1*%
X27598601Y-15000001D03*
X27598601Y-12900001D03*
%TD*%
%TO.C,D1*%
X69598601Y-15000001D03*
X69598601Y-12900001D03*
%TD*%
D12*
%TO.C,R1*%
X114238601Y-59100000D03*
X115258601Y-59100000D03*
%TD*%
D13*
%TO.C,J1*%
X121848601Y-77395000D03*
X121048601Y-77395000D03*
D14*
X119848601Y-77395000D03*
X118848601Y-77395000D03*
X118348601Y-77395000D03*
X117348601Y-77395000D03*
D13*
X116148601Y-77395000D03*
X115348601Y-77395000D03*
X115348601Y-77395000D03*
X116148601Y-77395000D03*
D14*
X116848601Y-77395000D03*
X117848601Y-77395000D03*
X119348601Y-77395000D03*
X120348601Y-77395000D03*
D13*
X121048601Y-77395000D03*
X121848601Y-77395000D03*
D15*
X122918601Y-76480000D03*
D16*
X122918601Y-72300000D03*
D15*
X114278601Y-76480000D03*
D16*
X114278601Y-72300000D03*
%TD*%
D25*
%TO.C,U1*%
X71898601Y-61550000D03*
D26*
X71823601Y-62087500D03*
D25*
X71898601Y-62625000D03*
X73598601Y-62625000D03*
D26*
X73673601Y-62087500D03*
D25*
X73598601Y-61550000D03*
%TD*%
D20*
%TO.C,J2*%
X15698601Y-43125000D03*
X16898601Y-43125000D03*
X18098601Y-43125000D03*
X19298601Y-43125000D03*
D21*
X14498601Y-46975000D03*
D22*
X20498601Y-46975000D03*
%TD*%
D24*
%TO.C,C1*%
X25898601Y-78430001D03*
X25898601Y-77470001D03*
%TD*%
D12*
%TO.C,R2*%
X64738601Y-76900000D03*
X65758601Y-76900000D03*
%TD*%
D19*
%TO.C,R3*%
X110398601Y-61050000D03*
X110398601Y-62700000D03*
%TD*%
D13*
%TO.C,J1*%
X100148601Y-25605000D03*
X100948601Y-25605000D03*
D14*
X102148601Y-25605000D03*
X103148601Y-25605000D03*
X103648601Y-25605000D03*
X104648601Y-25605000D03*
D13*
X105848601Y-25605000D03*
X106648601Y-25605000D03*
X106648601Y-25605000D03*
X105848601Y-25605000D03*
D14*
X105148601Y-25605000D03*
X104148601Y-25605000D03*
X102648601Y-25605000D03*
X101648601Y-25605000D03*
D13*
X100948601Y-25605000D03*
X100148601Y-25605000D03*
D15*
X99078601Y-26520000D03*
D16*
X99078601Y-30700000D03*
D15*
X107718601Y-26520000D03*
D16*
X107718601Y-30700000D03*
%TD*%
D25*
%TO.C,U1*%
X113898601Y-93550000D03*
D26*
X113823601Y-94087500D03*
D25*
X113898601Y-94625000D03*
X115598601Y-94625000D03*
D26*
X115673601Y-94087500D03*
D25*
X115598601Y-93550000D03*
%TD*%
D13*
%TO.C,J1*%
X16148601Y-89605000D03*
X16948601Y-89605000D03*
D14*
X18148601Y-89605000D03*
X19148601Y-89605000D03*
X19648601Y-89605000D03*
X20648601Y-89605000D03*
D13*
X21848601Y-89605000D03*
X22648601Y-89605000D03*
X22648601Y-89605000D03*
X21848601Y-89605000D03*
D14*
X21148601Y-89605000D03*
X20148601Y-89605000D03*
X18648601Y-89605000D03*
X17648601Y-89605000D03*
D13*
X16948601Y-89605000D03*
X16148601Y-89605000D03*
D15*
X15078601Y-90520000D03*
D16*
X15078601Y-94700000D03*
D15*
X23718601Y-90520000D03*
D16*
X23718601Y-94700000D03*
%TD*%
D17*
%TO.C,R2*%
X115258601Y-58100000D03*
X114238601Y-58100000D03*
%TD*%
D10*
%TO.C,D1*%
X27598601Y-47000001D03*
X27598601Y-44900001D03*
%TD*%
D20*
%TO.C,J2*%
X80298601Y-59875000D03*
X79098601Y-59875000D03*
X77898601Y-59875000D03*
X76698601Y-59875000D03*
D21*
X81498601Y-56025000D03*
D22*
X75498601Y-56025000D03*
%TD*%
D13*
%TO.C,J1*%
X79848601Y-45395000D03*
X79048601Y-45395000D03*
D14*
X77848601Y-45395000D03*
X76848601Y-45395000D03*
X76348601Y-45395000D03*
X75348601Y-45395000D03*
D13*
X74148601Y-45395000D03*
X73348601Y-45395000D03*
X73348601Y-45395000D03*
X74148601Y-45395000D03*
D14*
X74848601Y-45395000D03*
X75848601Y-45395000D03*
X77348601Y-45395000D03*
X78348601Y-45395000D03*
D13*
X79048601Y-45395000D03*
X79848601Y-45395000D03*
D15*
X80918601Y-44480000D03*
D16*
X80918601Y-40300000D03*
D15*
X72278601Y-44480000D03*
D16*
X72278601Y-40300000D03*
%TD*%
D17*
%TO.C,R2*%
X115258601Y-90100000D03*
X114238601Y-90100000D03*
%TD*%
D12*
%TO.C,R2*%
X22738601Y-12900000D03*
X23758601Y-12900000D03*
%TD*%
D25*
%TO.C,U1*%
X71898601Y-29550000D03*
D26*
X71823601Y-30087500D03*
D25*
X71898601Y-30625000D03*
X73598601Y-30625000D03*
D26*
X73673601Y-30087500D03*
D25*
X73598601Y-29550000D03*
%TD*%
D20*
%TO.C,J2*%
X57698601Y-11125000D03*
X58898601Y-11125000D03*
X60098601Y-11125000D03*
X61298601Y-11125000D03*
D21*
X56498601Y-14975000D03*
D22*
X62498601Y-14975000D03*
%TD*%
D17*
%TO.C,R1*%
X23758601Y-75900000D03*
X22738601Y-75900000D03*
%TD*%
D12*
%TO.C,R1*%
X30238601Y-91100000D03*
X31258601Y-91100000D03*
%TD*%
D11*
%TO.C,R3*%
X111598601Y-41950000D03*
X111598601Y-40300000D03*
%TD*%
D25*
%TO.C,U1*%
X24098601Y-9450000D03*
D26*
X24173601Y-8912500D03*
D25*
X24098601Y-8375000D03*
X22398601Y-8375000D03*
D26*
X22323601Y-8912500D03*
D25*
X22398601Y-9450000D03*
%TD*%
D13*
%TO.C,J1*%
X37848601Y-77395000D03*
X37048601Y-77395000D03*
D14*
X35848601Y-77395000D03*
X34848601Y-77395000D03*
X34348601Y-77395000D03*
X33348601Y-77395000D03*
D13*
X32148601Y-77395000D03*
X31348601Y-77395000D03*
X31348601Y-77395000D03*
X32148601Y-77395000D03*
D14*
X32848601Y-77395000D03*
X33848601Y-77395000D03*
X35348601Y-77395000D03*
X36348601Y-77395000D03*
D13*
X37048601Y-77395000D03*
X37848601Y-77395000D03*
D15*
X38918601Y-76480000D03*
D16*
X38918601Y-72300000D03*
D15*
X30278601Y-76480000D03*
D16*
X30278601Y-72300000D03*
%TD*%
D12*
%TO.C,R1*%
X114238601Y-27100000D03*
X115258601Y-27100000D03*
%TD*%
D23*
%TO.C,D1*%
X110398601Y-55999999D03*
X110398601Y-58099999D03*
%TD*%
D20*
%TO.C,J2*%
X80298601Y-27875000D03*
X79098601Y-27875000D03*
X77898601Y-27875000D03*
X76698601Y-27875000D03*
D21*
X81498601Y-24025000D03*
D22*
X75498601Y-24025000D03*
%TD*%
D12*
%TO.C,R1*%
X72238601Y-59100000D03*
X73258601Y-59100000D03*
%TD*%
D19*
%TO.C,R3*%
X26398601Y-29050000D03*
X26398601Y-30700000D03*
%TD*%
D23*
%TO.C,D1*%
X110398601Y-87999999D03*
X110398601Y-90099999D03*
%TD*%
D11*
%TO.C,R3*%
X111598601Y-73950000D03*
X111598601Y-72300000D03*
%TD*%
D13*
%TO.C,J1*%
X58148601Y-25605000D03*
X58948601Y-25605000D03*
D14*
X60148601Y-25605000D03*
X61148601Y-25605000D03*
X61648601Y-25605000D03*
X62648601Y-25605000D03*
D13*
X63848601Y-25605000D03*
X64648601Y-25605000D03*
X64648601Y-25605000D03*
X63848601Y-25605000D03*
D14*
X63148601Y-25605000D03*
X62148601Y-25605000D03*
X60648601Y-25605000D03*
X59648601Y-25605000D03*
D13*
X58948601Y-25605000D03*
X58148601Y-25605000D03*
D15*
X57078601Y-26520000D03*
D16*
X57078601Y-30700000D03*
D15*
X65718601Y-26520000D03*
D16*
X65718601Y-30700000D03*
%TD*%
D11*
%TO.C,R3*%
X69598601Y-41950000D03*
X69598601Y-40300000D03*
%TD*%
D12*
%TO.C,R1*%
X72238601Y-91100000D03*
X73258601Y-91100000D03*
%TD*%
D17*
%TO.C,R1*%
X107758601Y-43900000D03*
X106738601Y-43900000D03*
%TD*%
D25*
%TO.C,U1*%
X29898601Y-29550000D03*
D26*
X29823601Y-30087500D03*
D25*
X29898601Y-30625000D03*
X31598601Y-30625000D03*
D26*
X31673601Y-30087500D03*
D25*
X31598601Y-29550000D03*
%TD*%
D24*
%TO.C,C1*%
X67898601Y-78430001D03*
X67898601Y-77470001D03*
%TD*%
D12*
%TO.C,R1*%
X114238601Y-91100000D03*
X115258601Y-91100000D03*
%TD*%
%TO.C,R2*%
X106738601Y-76900000D03*
X107758601Y-76900000D03*
%TD*%
D10*
%TO.C,D1*%
X27598601Y-79000001D03*
X27598601Y-76900001D03*
%TD*%
%TO.C,D1*%
X111598601Y-47000001D03*
X111598601Y-44900001D03*
%TD*%
D19*
%TO.C,R3*%
X110398601Y-29050000D03*
X110398601Y-30700000D03*
%TD*%
D25*
%TO.C,U1*%
X29898601Y-61550000D03*
D26*
X29823601Y-62087500D03*
D25*
X29898601Y-62625000D03*
X31598601Y-62625000D03*
D26*
X31673601Y-62087500D03*
D25*
X31598601Y-61550000D03*
%TD*%
%TO.C,U1*%
X108098601Y-73450000D03*
D26*
X108173601Y-72912500D03*
D25*
X108098601Y-72375000D03*
X106398601Y-72375000D03*
D26*
X106323601Y-72912500D03*
D25*
X106398601Y-73450000D03*
%TD*%
D12*
%TO.C,R2*%
X64738601Y-44900000D03*
X65758601Y-44900000D03*
%TD*%
%TO.C,R2*%
X22738601Y-44900000D03*
X23758601Y-44900000D03*
%TD*%
D13*
%TO.C,J1*%
X100148601Y-89605000D03*
X100948601Y-89605000D03*
D14*
X102148601Y-89605000D03*
X103148601Y-89605000D03*
X103648601Y-89605000D03*
X104648601Y-89605000D03*
D13*
X105848601Y-89605000D03*
X106648601Y-89605000D03*
X106648601Y-89605000D03*
X105848601Y-89605000D03*
D14*
X105148601Y-89605000D03*
X104148601Y-89605000D03*
X102648601Y-89605000D03*
X101648601Y-89605000D03*
D13*
X100948601Y-89605000D03*
X100148601Y-89605000D03*
D15*
X99078601Y-90520000D03*
D16*
X99078601Y-94700000D03*
D15*
X107718601Y-90520000D03*
D16*
X107718601Y-94700000D03*
%TD*%
D10*
%TO.C,D1*%
X111598601Y-79000001D03*
X111598601Y-76900001D03*
%TD*%
D24*
%TO.C,C1*%
X25898601Y-46430001D03*
X25898601Y-45470001D03*
%TD*%
D13*
%TO.C,J1*%
X16148601Y-25605000D03*
X16948601Y-25605000D03*
D14*
X18148601Y-25605000D03*
X19148601Y-25605000D03*
X19648601Y-25605000D03*
X20648601Y-25605000D03*
D13*
X21848601Y-25605000D03*
X22648601Y-25605000D03*
X22648601Y-25605000D03*
X21848601Y-25605000D03*
D14*
X21148601Y-25605000D03*
X20148601Y-25605000D03*
X18648601Y-25605000D03*
X17648601Y-25605000D03*
D13*
X16948601Y-25605000D03*
X16148601Y-25605000D03*
D15*
X15078601Y-26520000D03*
D16*
X15078601Y-30700000D03*
D15*
X23718601Y-26520000D03*
D16*
X23718601Y-30700000D03*
%TD*%
D20*
%TO.C,J2*%
X80298601Y-91875000D03*
X79098601Y-91875000D03*
X77898601Y-91875000D03*
X76698601Y-91875000D03*
D21*
X81498601Y-88025000D03*
D22*
X75498601Y-88025000D03*
%TD*%
D17*
%TO.C,R2*%
X31258601Y-90100000D03*
X30238601Y-90100000D03*
%TD*%
D19*
%TO.C,R3*%
X68398601Y-29050000D03*
X68398601Y-30700000D03*
%TD*%
D11*
%TO.C,R3*%
X69598601Y-9950000D03*
X69598601Y-8300000D03*
%TD*%
D23*
%TO.C,D1*%
X110398601Y-23999999D03*
X110398601Y-26099999D03*
%TD*%
D20*
%TO.C,J2*%
X122298601Y-59875000D03*
X121098601Y-59875000D03*
X119898601Y-59875000D03*
X118698601Y-59875000D03*
D21*
X123498601Y-56025000D03*
D22*
X117498601Y-56025000D03*
%TD*%
D20*
%TO.C,J2*%
X57698601Y-43125000D03*
X58898601Y-43125000D03*
X60098601Y-43125000D03*
X61298601Y-43125000D03*
D21*
X56498601Y-46975000D03*
D22*
X62498601Y-46975000D03*
%TD*%
D13*
%TO.C,J1*%
X37848601Y-13395000D03*
X37048601Y-13395000D03*
D14*
X35848601Y-13395000D03*
X34848601Y-13395000D03*
X34348601Y-13395000D03*
X33348601Y-13395000D03*
D13*
X32148601Y-13395000D03*
X31348601Y-13395000D03*
X31348601Y-13395000D03*
X32148601Y-13395000D03*
D14*
X32848601Y-13395000D03*
X33848601Y-13395000D03*
X35348601Y-13395000D03*
X36348601Y-13395000D03*
D13*
X37048601Y-13395000D03*
X37848601Y-13395000D03*
D15*
X38918601Y-12480000D03*
D16*
X38918601Y-8300000D03*
D15*
X30278601Y-12480000D03*
D16*
X30278601Y-8300000D03*
%TD*%
D18*
%TO.C,C1*%
X112098601Y-88569999D03*
X112098601Y-89529999D03*
%TD*%
D24*
%TO.C,C1*%
X109898601Y-78430001D03*
X109898601Y-77470001D03*
%TD*%
D19*
%TO.C,R3*%
X26398601Y-61050000D03*
X26398601Y-62700000D03*
%TD*%
D18*
%TO.C,C1*%
X70098601Y-24569999D03*
X70098601Y-25529999D03*
%TD*%
D20*
%TO.C,J2*%
X38298601Y-27875000D03*
X37098601Y-27875000D03*
X35898601Y-27875000D03*
X34698601Y-27875000D03*
D21*
X39498601Y-24025000D03*
D22*
X33498601Y-24025000D03*
%TD*%
D12*
%TO.C,R2*%
X64738601Y-12900000D03*
X65758601Y-12900000D03*
%TD*%
D17*
%TO.C,R1*%
X107758601Y-11900000D03*
X106738601Y-11900000D03*
%TD*%
%TO.C,R2*%
X73258601Y-58100000D03*
X72238601Y-58100000D03*
%TD*%
D25*
%TO.C,U1*%
X113898601Y-29550000D03*
D26*
X113823601Y-30087500D03*
D25*
X113898601Y-30625000D03*
X115598601Y-30625000D03*
D26*
X115673601Y-30087500D03*
D25*
X115598601Y-29550000D03*
%TD*%
D23*
%TO.C,D1*%
X26398601Y-55999999D03*
X26398601Y-58099999D03*
%TD*%
D13*
%TO.C,J1*%
X58148601Y-57605000D03*
X58948601Y-57605000D03*
D14*
X60148601Y-57605000D03*
X61148601Y-57605000D03*
X61648601Y-57605000D03*
X62648601Y-57605000D03*
D13*
X63848601Y-57605000D03*
X64648601Y-57605000D03*
X64648601Y-57605000D03*
X63848601Y-57605000D03*
D14*
X63148601Y-57605000D03*
X62148601Y-57605000D03*
X60648601Y-57605000D03*
X59648601Y-57605000D03*
D13*
X58948601Y-57605000D03*
X58148601Y-57605000D03*
D15*
X57078601Y-58520000D03*
D16*
X57078601Y-62700000D03*
D15*
X65718601Y-58520000D03*
D16*
X65718601Y-62700000D03*
%TD*%
D25*
%TO.C,U1*%
X24098601Y-73450000D03*
D26*
X24173601Y-72912500D03*
D25*
X24098601Y-72375000D03*
X22398601Y-72375000D03*
D26*
X22323601Y-72912500D03*
D25*
X22398601Y-73450000D03*
%TD*%
D11*
%TO.C,R3*%
X111598601Y-9950000D03*
X111598601Y-8300000D03*
%TD*%
D20*
%TO.C,J2*%
X122298601Y-91875000D03*
X121098601Y-91875000D03*
X119898601Y-91875000D03*
X118698601Y-91875000D03*
D21*
X123498601Y-88025000D03*
D22*
X117498601Y-88025000D03*
%TD*%
D20*
%TO.C,J2*%
X99698601Y-11125000D03*
X100898601Y-11125000D03*
X102098601Y-11125000D03*
X103298601Y-11125000D03*
D21*
X98498601Y-14975000D03*
D22*
X104498601Y-14975000D03*
%TD*%
D19*
%TO.C,R3*%
X26398601Y-93050000D03*
X26398601Y-94700000D03*
%TD*%
D20*
%TO.C,J2*%
X15698601Y-75125000D03*
X16898601Y-75125000D03*
X18098601Y-75125000D03*
X19298601Y-75125000D03*
D21*
X14498601Y-78975000D03*
D22*
X20498601Y-78975000D03*
%TD*%
D25*
%TO.C,U1*%
X108098601Y-41450000D03*
D26*
X108173601Y-40912500D03*
D25*
X108098601Y-40375000D03*
X106398601Y-40375000D03*
D26*
X106323601Y-40912500D03*
D25*
X106398601Y-41450000D03*
%TD*%
D23*
%TO.C,D1*%
X26398601Y-23999999D03*
X26398601Y-26099999D03*
%TD*%
D12*
%TO.C,R2*%
X106738601Y-44900000D03*
X107758601Y-44900000D03*
%TD*%
D23*
%TO.C,D1*%
X68398601Y-23999999D03*
X68398601Y-26099999D03*
%TD*%
D13*
%TO.C,J1*%
X79848601Y-13395000D03*
X79048601Y-13395000D03*
D14*
X77848601Y-13395000D03*
X76848601Y-13395000D03*
X76348601Y-13395000D03*
X75348601Y-13395000D03*
D13*
X74148601Y-13395000D03*
X73348601Y-13395000D03*
X73348601Y-13395000D03*
X74148601Y-13395000D03*
D14*
X74848601Y-13395000D03*
X75848601Y-13395000D03*
X77348601Y-13395000D03*
X78348601Y-13395000D03*
D13*
X79048601Y-13395000D03*
X79848601Y-13395000D03*
D15*
X80918601Y-12480000D03*
D16*
X80918601Y-8300000D03*
D15*
X72278601Y-12480000D03*
D16*
X72278601Y-8300000D03*
%TD*%
D17*
%TO.C,R1*%
X107758601Y-75900000D03*
X106738601Y-75900000D03*
%TD*%
%TO.C,R1*%
X23758601Y-11900000D03*
X22738601Y-11900000D03*
%TD*%
D11*
%TO.C,R3*%
X69598601Y-73950000D03*
X69598601Y-72300000D03*
%TD*%
D20*
%TO.C,J2*%
X122298601Y-27875000D03*
X121098601Y-27875000D03*
X119898601Y-27875000D03*
X118698601Y-27875000D03*
D21*
X123498601Y-24025000D03*
D22*
X117498601Y-24025000D03*
%TD*%
D23*
%TO.C,D1*%
X26398601Y-87999999D03*
X26398601Y-90099999D03*
%TD*%
D20*
%TO.C,J2*%
X99698601Y-75125000D03*
X100898601Y-75125000D03*
X102098601Y-75125000D03*
X103298601Y-75125000D03*
D21*
X98498601Y-78975000D03*
D22*
X104498601Y-78975000D03*
%TD*%
D12*
%TO.C,R1*%
X30238601Y-27100000D03*
X31258601Y-27100000D03*
%TD*%
D17*
%TO.C,R2*%
X31258601Y-58100000D03*
X30238601Y-58100000D03*
%TD*%
D13*
%TO.C,J1*%
X121848601Y-45395000D03*
X121048601Y-45395000D03*
D14*
X119848601Y-45395000D03*
X118848601Y-45395000D03*
X118348601Y-45395000D03*
X117348601Y-45395000D03*
D13*
X116148601Y-45395000D03*
X115348601Y-45395000D03*
X115348601Y-45395000D03*
X116148601Y-45395000D03*
D14*
X116848601Y-45395000D03*
X117848601Y-45395000D03*
X119348601Y-45395000D03*
X120348601Y-45395000D03*
D13*
X121048601Y-45395000D03*
X121848601Y-45395000D03*
D15*
X122918601Y-44480000D03*
D16*
X122918601Y-40300000D03*
D15*
X114278601Y-44480000D03*
D16*
X114278601Y-40300000D03*
%TD*%
M02*
