%TF.GenerationSoftware,KiCad,Pcbnew,(5.1.10)-1*%
%TF.CreationDate,2021-08-17T15:54:52+08:00*%
%TF.ProjectId,u1_Warped,75315f57-6172-4706-9564-2e6b69636164,rev?*%
%TF.SameCoordinates,Original*%
%TF.FileFunction,Paste,Top*%
%TF.FilePolarity,Positive*%
%FSLAX46Y46*%
G04 Gerber Fmt 4.6, Leading zero omitted, Abs format (unit mm)*
G04 Created by KiCad (PCBNEW (5.1.10)-1) date 2021-08-17 15:54:52*
%MOMM*%
%LPD*%
G01*
G04 APERTURE LIST*
%ADD10R,0.600000X1.450000*%
%ADD11R,0.300000X1.450000*%
%ADD12O,1.200000X2.300000*%
%ADD13O,1.100000X1.800000*%
%ADD14R,0.375000X0.500000*%
%ADD15R,0.300000X0.650000*%
G04 APERTURE END LIST*
%TO.C,R1*%
G36*
G01*
X139225000Y-117375000D02*
X139775000Y-117375000D01*
G75*
G02*
X139975000Y-117575000I0J-200000D01*
G01*
X139975000Y-117975000D01*
G75*
G02*
X139775000Y-118175000I-200000J0D01*
G01*
X139225000Y-118175000D01*
G75*
G02*
X139025000Y-117975000I0J200000D01*
G01*
X139025000Y-117575000D01*
G75*
G02*
X139225000Y-117375000I200000J0D01*
G01*
G37*
G36*
G01*
X139225000Y-119025000D02*
X139775000Y-119025000D01*
G75*
G02*
X139975000Y-119225000I0J-200000D01*
G01*
X139975000Y-119625000D01*
G75*
G02*
X139775000Y-119825000I-200000J0D01*
G01*
X139225000Y-119825000D01*
G75*
G02*
X139025000Y-119625000I0J200000D01*
G01*
X139025000Y-119225000D01*
G75*
G02*
X139225000Y-119025000I200000J0D01*
G01*
G37*
%TD*%
%TO.C,R1*%
G36*
G01*
X119225000Y-117375000D02*
X119775000Y-117375000D01*
G75*
G02*
X119975000Y-117575000I0J-200000D01*
G01*
X119975000Y-117975000D01*
G75*
G02*
X119775000Y-118175000I-200000J0D01*
G01*
X119225000Y-118175000D01*
G75*
G02*
X119025000Y-117975000I0J200000D01*
G01*
X119025000Y-117575000D01*
G75*
G02*
X119225000Y-117375000I200000J0D01*
G01*
G37*
G36*
G01*
X119225000Y-119025000D02*
X119775000Y-119025000D01*
G75*
G02*
X119975000Y-119225000I0J-200000D01*
G01*
X119975000Y-119625000D01*
G75*
G02*
X119775000Y-119825000I-200000J0D01*
G01*
X119225000Y-119825000D01*
G75*
G02*
X119025000Y-119625000I0J200000D01*
G01*
X119025000Y-119225000D01*
G75*
G02*
X119225000Y-119025000I200000J0D01*
G01*
G37*
%TD*%
%TO.C,R1*%
G36*
G01*
X99225000Y-117375000D02*
X99775000Y-117375000D01*
G75*
G02*
X99975000Y-117575000I0J-200000D01*
G01*
X99975000Y-117975000D01*
G75*
G02*
X99775000Y-118175000I-200000J0D01*
G01*
X99225000Y-118175000D01*
G75*
G02*
X99025000Y-117975000I0J200000D01*
G01*
X99025000Y-117575000D01*
G75*
G02*
X99225000Y-117375000I200000J0D01*
G01*
G37*
G36*
G01*
X99225000Y-119025000D02*
X99775000Y-119025000D01*
G75*
G02*
X99975000Y-119225000I0J-200000D01*
G01*
X99975000Y-119625000D01*
G75*
G02*
X99775000Y-119825000I-200000J0D01*
G01*
X99225000Y-119825000D01*
G75*
G02*
X99025000Y-119625000I0J200000D01*
G01*
X99025000Y-119225000D01*
G75*
G02*
X99225000Y-119025000I200000J0D01*
G01*
G37*
%TD*%
%TO.C,R1*%
G36*
G01*
X79225000Y-117375000D02*
X79775000Y-117375000D01*
G75*
G02*
X79975000Y-117575000I0J-200000D01*
G01*
X79975000Y-117975000D01*
G75*
G02*
X79775000Y-118175000I-200000J0D01*
G01*
X79225000Y-118175000D01*
G75*
G02*
X79025000Y-117975000I0J200000D01*
G01*
X79025000Y-117575000D01*
G75*
G02*
X79225000Y-117375000I200000J0D01*
G01*
G37*
G36*
G01*
X79225000Y-119025000D02*
X79775000Y-119025000D01*
G75*
G02*
X79975000Y-119225000I0J-200000D01*
G01*
X79975000Y-119625000D01*
G75*
G02*
X79775000Y-119825000I-200000J0D01*
G01*
X79225000Y-119825000D01*
G75*
G02*
X79025000Y-119625000I0J200000D01*
G01*
X79025000Y-119225000D01*
G75*
G02*
X79225000Y-119025000I200000J0D01*
G01*
G37*
%TD*%
%TO.C,R1*%
G36*
G01*
X59225000Y-117375000D02*
X59775000Y-117375000D01*
G75*
G02*
X59975000Y-117575000I0J-200000D01*
G01*
X59975000Y-117975000D01*
G75*
G02*
X59775000Y-118175000I-200000J0D01*
G01*
X59225000Y-118175000D01*
G75*
G02*
X59025000Y-117975000I0J200000D01*
G01*
X59025000Y-117575000D01*
G75*
G02*
X59225000Y-117375000I200000J0D01*
G01*
G37*
G36*
G01*
X59225000Y-119025000D02*
X59775000Y-119025000D01*
G75*
G02*
X59975000Y-119225000I0J-200000D01*
G01*
X59975000Y-119625000D01*
G75*
G02*
X59775000Y-119825000I-200000J0D01*
G01*
X59225000Y-119825000D01*
G75*
G02*
X59025000Y-119625000I0J200000D01*
G01*
X59025000Y-119225000D01*
G75*
G02*
X59225000Y-119025000I200000J0D01*
G01*
G37*
%TD*%
%TO.C,R1*%
G36*
G01*
X139225000Y-98875000D02*
X139775000Y-98875000D01*
G75*
G02*
X139975000Y-99075000I0J-200000D01*
G01*
X139975000Y-99475000D01*
G75*
G02*
X139775000Y-99675000I-200000J0D01*
G01*
X139225000Y-99675000D01*
G75*
G02*
X139025000Y-99475000I0J200000D01*
G01*
X139025000Y-99075000D01*
G75*
G02*
X139225000Y-98875000I200000J0D01*
G01*
G37*
G36*
G01*
X139225000Y-100525000D02*
X139775000Y-100525000D01*
G75*
G02*
X139975000Y-100725000I0J-200000D01*
G01*
X139975000Y-101125000D01*
G75*
G02*
X139775000Y-101325000I-200000J0D01*
G01*
X139225000Y-101325000D01*
G75*
G02*
X139025000Y-101125000I0J200000D01*
G01*
X139025000Y-100725000D01*
G75*
G02*
X139225000Y-100525000I200000J0D01*
G01*
G37*
%TD*%
%TO.C,R1*%
G36*
G01*
X119225000Y-98875000D02*
X119775000Y-98875000D01*
G75*
G02*
X119975000Y-99075000I0J-200000D01*
G01*
X119975000Y-99475000D01*
G75*
G02*
X119775000Y-99675000I-200000J0D01*
G01*
X119225000Y-99675000D01*
G75*
G02*
X119025000Y-99475000I0J200000D01*
G01*
X119025000Y-99075000D01*
G75*
G02*
X119225000Y-98875000I200000J0D01*
G01*
G37*
G36*
G01*
X119225000Y-100525000D02*
X119775000Y-100525000D01*
G75*
G02*
X119975000Y-100725000I0J-200000D01*
G01*
X119975000Y-101125000D01*
G75*
G02*
X119775000Y-101325000I-200000J0D01*
G01*
X119225000Y-101325000D01*
G75*
G02*
X119025000Y-101125000I0J200000D01*
G01*
X119025000Y-100725000D01*
G75*
G02*
X119225000Y-100525000I200000J0D01*
G01*
G37*
%TD*%
%TO.C,R1*%
G36*
G01*
X99225000Y-98875000D02*
X99775000Y-98875000D01*
G75*
G02*
X99975000Y-99075000I0J-200000D01*
G01*
X99975000Y-99475000D01*
G75*
G02*
X99775000Y-99675000I-200000J0D01*
G01*
X99225000Y-99675000D01*
G75*
G02*
X99025000Y-99475000I0J200000D01*
G01*
X99025000Y-99075000D01*
G75*
G02*
X99225000Y-98875000I200000J0D01*
G01*
G37*
G36*
G01*
X99225000Y-100525000D02*
X99775000Y-100525000D01*
G75*
G02*
X99975000Y-100725000I0J-200000D01*
G01*
X99975000Y-101125000D01*
G75*
G02*
X99775000Y-101325000I-200000J0D01*
G01*
X99225000Y-101325000D01*
G75*
G02*
X99025000Y-101125000I0J200000D01*
G01*
X99025000Y-100725000D01*
G75*
G02*
X99225000Y-100525000I200000J0D01*
G01*
G37*
%TD*%
%TO.C,R1*%
G36*
G01*
X79225000Y-98875000D02*
X79775000Y-98875000D01*
G75*
G02*
X79975000Y-99075000I0J-200000D01*
G01*
X79975000Y-99475000D01*
G75*
G02*
X79775000Y-99675000I-200000J0D01*
G01*
X79225000Y-99675000D01*
G75*
G02*
X79025000Y-99475000I0J200000D01*
G01*
X79025000Y-99075000D01*
G75*
G02*
X79225000Y-98875000I200000J0D01*
G01*
G37*
G36*
G01*
X79225000Y-100525000D02*
X79775000Y-100525000D01*
G75*
G02*
X79975000Y-100725000I0J-200000D01*
G01*
X79975000Y-101125000D01*
G75*
G02*
X79775000Y-101325000I-200000J0D01*
G01*
X79225000Y-101325000D01*
G75*
G02*
X79025000Y-101125000I0J200000D01*
G01*
X79025000Y-100725000D01*
G75*
G02*
X79225000Y-100525000I200000J0D01*
G01*
G37*
%TD*%
%TO.C,R1*%
G36*
G01*
X59225000Y-98875000D02*
X59775000Y-98875000D01*
G75*
G02*
X59975000Y-99075000I0J-200000D01*
G01*
X59975000Y-99475000D01*
G75*
G02*
X59775000Y-99675000I-200000J0D01*
G01*
X59225000Y-99675000D01*
G75*
G02*
X59025000Y-99475000I0J200000D01*
G01*
X59025000Y-99075000D01*
G75*
G02*
X59225000Y-98875000I200000J0D01*
G01*
G37*
G36*
G01*
X59225000Y-100525000D02*
X59775000Y-100525000D01*
G75*
G02*
X59975000Y-100725000I0J-200000D01*
G01*
X59975000Y-101125000D01*
G75*
G02*
X59775000Y-101325000I-200000J0D01*
G01*
X59225000Y-101325000D01*
G75*
G02*
X59025000Y-101125000I0J200000D01*
G01*
X59025000Y-100725000D01*
G75*
G02*
X59225000Y-100525000I200000J0D01*
G01*
G37*
%TD*%
%TO.C,R1*%
G36*
G01*
X139225000Y-80375000D02*
X139775000Y-80375000D01*
G75*
G02*
X139975000Y-80575000I0J-200000D01*
G01*
X139975000Y-80975000D01*
G75*
G02*
X139775000Y-81175000I-200000J0D01*
G01*
X139225000Y-81175000D01*
G75*
G02*
X139025000Y-80975000I0J200000D01*
G01*
X139025000Y-80575000D01*
G75*
G02*
X139225000Y-80375000I200000J0D01*
G01*
G37*
G36*
G01*
X139225000Y-82025000D02*
X139775000Y-82025000D01*
G75*
G02*
X139975000Y-82225000I0J-200000D01*
G01*
X139975000Y-82625000D01*
G75*
G02*
X139775000Y-82825000I-200000J0D01*
G01*
X139225000Y-82825000D01*
G75*
G02*
X139025000Y-82625000I0J200000D01*
G01*
X139025000Y-82225000D01*
G75*
G02*
X139225000Y-82025000I200000J0D01*
G01*
G37*
%TD*%
%TO.C,R1*%
G36*
G01*
X119225000Y-80375000D02*
X119775000Y-80375000D01*
G75*
G02*
X119975000Y-80575000I0J-200000D01*
G01*
X119975000Y-80975000D01*
G75*
G02*
X119775000Y-81175000I-200000J0D01*
G01*
X119225000Y-81175000D01*
G75*
G02*
X119025000Y-80975000I0J200000D01*
G01*
X119025000Y-80575000D01*
G75*
G02*
X119225000Y-80375000I200000J0D01*
G01*
G37*
G36*
G01*
X119225000Y-82025000D02*
X119775000Y-82025000D01*
G75*
G02*
X119975000Y-82225000I0J-200000D01*
G01*
X119975000Y-82625000D01*
G75*
G02*
X119775000Y-82825000I-200000J0D01*
G01*
X119225000Y-82825000D01*
G75*
G02*
X119025000Y-82625000I0J200000D01*
G01*
X119025000Y-82225000D01*
G75*
G02*
X119225000Y-82025000I200000J0D01*
G01*
G37*
%TD*%
%TO.C,R1*%
G36*
G01*
X99225000Y-80375000D02*
X99775000Y-80375000D01*
G75*
G02*
X99975000Y-80575000I0J-200000D01*
G01*
X99975000Y-80975000D01*
G75*
G02*
X99775000Y-81175000I-200000J0D01*
G01*
X99225000Y-81175000D01*
G75*
G02*
X99025000Y-80975000I0J200000D01*
G01*
X99025000Y-80575000D01*
G75*
G02*
X99225000Y-80375000I200000J0D01*
G01*
G37*
G36*
G01*
X99225000Y-82025000D02*
X99775000Y-82025000D01*
G75*
G02*
X99975000Y-82225000I0J-200000D01*
G01*
X99975000Y-82625000D01*
G75*
G02*
X99775000Y-82825000I-200000J0D01*
G01*
X99225000Y-82825000D01*
G75*
G02*
X99025000Y-82625000I0J200000D01*
G01*
X99025000Y-82225000D01*
G75*
G02*
X99225000Y-82025000I200000J0D01*
G01*
G37*
%TD*%
%TO.C,R1*%
G36*
G01*
X79225000Y-80375000D02*
X79775000Y-80375000D01*
G75*
G02*
X79975000Y-80575000I0J-200000D01*
G01*
X79975000Y-80975000D01*
G75*
G02*
X79775000Y-81175000I-200000J0D01*
G01*
X79225000Y-81175000D01*
G75*
G02*
X79025000Y-80975000I0J200000D01*
G01*
X79025000Y-80575000D01*
G75*
G02*
X79225000Y-80375000I200000J0D01*
G01*
G37*
G36*
G01*
X79225000Y-82025000D02*
X79775000Y-82025000D01*
G75*
G02*
X79975000Y-82225000I0J-200000D01*
G01*
X79975000Y-82625000D01*
G75*
G02*
X79775000Y-82825000I-200000J0D01*
G01*
X79225000Y-82825000D01*
G75*
G02*
X79025000Y-82625000I0J200000D01*
G01*
X79025000Y-82225000D01*
G75*
G02*
X79225000Y-82025000I200000J0D01*
G01*
G37*
%TD*%
%TO.C,R1*%
G36*
G01*
X59225000Y-80375000D02*
X59775000Y-80375000D01*
G75*
G02*
X59975000Y-80575000I0J-200000D01*
G01*
X59975000Y-80975000D01*
G75*
G02*
X59775000Y-81175000I-200000J0D01*
G01*
X59225000Y-81175000D01*
G75*
G02*
X59025000Y-80975000I0J200000D01*
G01*
X59025000Y-80575000D01*
G75*
G02*
X59225000Y-80375000I200000J0D01*
G01*
G37*
G36*
G01*
X59225000Y-82025000D02*
X59775000Y-82025000D01*
G75*
G02*
X59975000Y-82225000I0J-200000D01*
G01*
X59975000Y-82625000D01*
G75*
G02*
X59775000Y-82825000I-200000J0D01*
G01*
X59225000Y-82825000D01*
G75*
G02*
X59025000Y-82625000I0J200000D01*
G01*
X59025000Y-82225000D01*
G75*
G02*
X59225000Y-82025000I200000J0D01*
G01*
G37*
%TD*%
%TO.C,R1*%
G36*
G01*
X139225000Y-61875000D02*
X139775000Y-61875000D01*
G75*
G02*
X139975000Y-62075000I0J-200000D01*
G01*
X139975000Y-62475000D01*
G75*
G02*
X139775000Y-62675000I-200000J0D01*
G01*
X139225000Y-62675000D01*
G75*
G02*
X139025000Y-62475000I0J200000D01*
G01*
X139025000Y-62075000D01*
G75*
G02*
X139225000Y-61875000I200000J0D01*
G01*
G37*
G36*
G01*
X139225000Y-63525000D02*
X139775000Y-63525000D01*
G75*
G02*
X139975000Y-63725000I0J-200000D01*
G01*
X139975000Y-64125000D01*
G75*
G02*
X139775000Y-64325000I-200000J0D01*
G01*
X139225000Y-64325000D01*
G75*
G02*
X139025000Y-64125000I0J200000D01*
G01*
X139025000Y-63725000D01*
G75*
G02*
X139225000Y-63525000I200000J0D01*
G01*
G37*
%TD*%
%TO.C,R1*%
G36*
G01*
X119225000Y-61875000D02*
X119775000Y-61875000D01*
G75*
G02*
X119975000Y-62075000I0J-200000D01*
G01*
X119975000Y-62475000D01*
G75*
G02*
X119775000Y-62675000I-200000J0D01*
G01*
X119225000Y-62675000D01*
G75*
G02*
X119025000Y-62475000I0J200000D01*
G01*
X119025000Y-62075000D01*
G75*
G02*
X119225000Y-61875000I200000J0D01*
G01*
G37*
G36*
G01*
X119225000Y-63525000D02*
X119775000Y-63525000D01*
G75*
G02*
X119975000Y-63725000I0J-200000D01*
G01*
X119975000Y-64125000D01*
G75*
G02*
X119775000Y-64325000I-200000J0D01*
G01*
X119225000Y-64325000D01*
G75*
G02*
X119025000Y-64125000I0J200000D01*
G01*
X119025000Y-63725000D01*
G75*
G02*
X119225000Y-63525000I200000J0D01*
G01*
G37*
%TD*%
%TO.C,R1*%
G36*
G01*
X99225000Y-61875000D02*
X99775000Y-61875000D01*
G75*
G02*
X99975000Y-62075000I0J-200000D01*
G01*
X99975000Y-62475000D01*
G75*
G02*
X99775000Y-62675000I-200000J0D01*
G01*
X99225000Y-62675000D01*
G75*
G02*
X99025000Y-62475000I0J200000D01*
G01*
X99025000Y-62075000D01*
G75*
G02*
X99225000Y-61875000I200000J0D01*
G01*
G37*
G36*
G01*
X99225000Y-63525000D02*
X99775000Y-63525000D01*
G75*
G02*
X99975000Y-63725000I0J-200000D01*
G01*
X99975000Y-64125000D01*
G75*
G02*
X99775000Y-64325000I-200000J0D01*
G01*
X99225000Y-64325000D01*
G75*
G02*
X99025000Y-64125000I0J200000D01*
G01*
X99025000Y-63725000D01*
G75*
G02*
X99225000Y-63525000I200000J0D01*
G01*
G37*
%TD*%
%TO.C,R1*%
G36*
G01*
X79225000Y-61875000D02*
X79775000Y-61875000D01*
G75*
G02*
X79975000Y-62075000I0J-200000D01*
G01*
X79975000Y-62475000D01*
G75*
G02*
X79775000Y-62675000I-200000J0D01*
G01*
X79225000Y-62675000D01*
G75*
G02*
X79025000Y-62475000I0J200000D01*
G01*
X79025000Y-62075000D01*
G75*
G02*
X79225000Y-61875000I200000J0D01*
G01*
G37*
G36*
G01*
X79225000Y-63525000D02*
X79775000Y-63525000D01*
G75*
G02*
X79975000Y-63725000I0J-200000D01*
G01*
X79975000Y-64125000D01*
G75*
G02*
X79775000Y-64325000I-200000J0D01*
G01*
X79225000Y-64325000D01*
G75*
G02*
X79025000Y-64125000I0J200000D01*
G01*
X79025000Y-63725000D01*
G75*
G02*
X79225000Y-63525000I200000J0D01*
G01*
G37*
%TD*%
%TO.C,R1*%
G36*
G01*
X59225000Y-61875000D02*
X59775000Y-61875000D01*
G75*
G02*
X59975000Y-62075000I0J-200000D01*
G01*
X59975000Y-62475000D01*
G75*
G02*
X59775000Y-62675000I-200000J0D01*
G01*
X59225000Y-62675000D01*
G75*
G02*
X59025000Y-62475000I0J200000D01*
G01*
X59025000Y-62075000D01*
G75*
G02*
X59225000Y-61875000I200000J0D01*
G01*
G37*
G36*
G01*
X59225000Y-63525000D02*
X59775000Y-63525000D01*
G75*
G02*
X59975000Y-63725000I0J-200000D01*
G01*
X59975000Y-64125000D01*
G75*
G02*
X59775000Y-64325000I-200000J0D01*
G01*
X59225000Y-64325000D01*
G75*
G02*
X59025000Y-64125000I0J200000D01*
G01*
X59025000Y-63725000D01*
G75*
G02*
X59225000Y-63525000I200000J0D01*
G01*
G37*
%TD*%
%TO.C,R1*%
G36*
G01*
X139225000Y-43375000D02*
X139775000Y-43375000D01*
G75*
G02*
X139975000Y-43575000I0J-200000D01*
G01*
X139975000Y-43975000D01*
G75*
G02*
X139775000Y-44175000I-200000J0D01*
G01*
X139225000Y-44175000D01*
G75*
G02*
X139025000Y-43975000I0J200000D01*
G01*
X139025000Y-43575000D01*
G75*
G02*
X139225000Y-43375000I200000J0D01*
G01*
G37*
G36*
G01*
X139225000Y-45025000D02*
X139775000Y-45025000D01*
G75*
G02*
X139975000Y-45225000I0J-200000D01*
G01*
X139975000Y-45625000D01*
G75*
G02*
X139775000Y-45825000I-200000J0D01*
G01*
X139225000Y-45825000D01*
G75*
G02*
X139025000Y-45625000I0J200000D01*
G01*
X139025000Y-45225000D01*
G75*
G02*
X139225000Y-45025000I200000J0D01*
G01*
G37*
%TD*%
%TO.C,R1*%
G36*
G01*
X119225000Y-43375000D02*
X119775000Y-43375000D01*
G75*
G02*
X119975000Y-43575000I0J-200000D01*
G01*
X119975000Y-43975000D01*
G75*
G02*
X119775000Y-44175000I-200000J0D01*
G01*
X119225000Y-44175000D01*
G75*
G02*
X119025000Y-43975000I0J200000D01*
G01*
X119025000Y-43575000D01*
G75*
G02*
X119225000Y-43375000I200000J0D01*
G01*
G37*
G36*
G01*
X119225000Y-45025000D02*
X119775000Y-45025000D01*
G75*
G02*
X119975000Y-45225000I0J-200000D01*
G01*
X119975000Y-45625000D01*
G75*
G02*
X119775000Y-45825000I-200000J0D01*
G01*
X119225000Y-45825000D01*
G75*
G02*
X119025000Y-45625000I0J200000D01*
G01*
X119025000Y-45225000D01*
G75*
G02*
X119225000Y-45025000I200000J0D01*
G01*
G37*
%TD*%
%TO.C,R1*%
G36*
G01*
X99225000Y-43375000D02*
X99775000Y-43375000D01*
G75*
G02*
X99975000Y-43575000I0J-200000D01*
G01*
X99975000Y-43975000D01*
G75*
G02*
X99775000Y-44175000I-200000J0D01*
G01*
X99225000Y-44175000D01*
G75*
G02*
X99025000Y-43975000I0J200000D01*
G01*
X99025000Y-43575000D01*
G75*
G02*
X99225000Y-43375000I200000J0D01*
G01*
G37*
G36*
G01*
X99225000Y-45025000D02*
X99775000Y-45025000D01*
G75*
G02*
X99975000Y-45225000I0J-200000D01*
G01*
X99975000Y-45625000D01*
G75*
G02*
X99775000Y-45825000I-200000J0D01*
G01*
X99225000Y-45825000D01*
G75*
G02*
X99025000Y-45625000I0J200000D01*
G01*
X99025000Y-45225000D01*
G75*
G02*
X99225000Y-45025000I200000J0D01*
G01*
G37*
%TD*%
%TO.C,R1*%
G36*
G01*
X79225000Y-43375000D02*
X79775000Y-43375000D01*
G75*
G02*
X79975000Y-43575000I0J-200000D01*
G01*
X79975000Y-43975000D01*
G75*
G02*
X79775000Y-44175000I-200000J0D01*
G01*
X79225000Y-44175000D01*
G75*
G02*
X79025000Y-43975000I0J200000D01*
G01*
X79025000Y-43575000D01*
G75*
G02*
X79225000Y-43375000I200000J0D01*
G01*
G37*
G36*
G01*
X79225000Y-45025000D02*
X79775000Y-45025000D01*
G75*
G02*
X79975000Y-45225000I0J-200000D01*
G01*
X79975000Y-45625000D01*
G75*
G02*
X79775000Y-45825000I-200000J0D01*
G01*
X79225000Y-45825000D01*
G75*
G02*
X79025000Y-45625000I0J200000D01*
G01*
X79025000Y-45225000D01*
G75*
G02*
X79225000Y-45025000I200000J0D01*
G01*
G37*
%TD*%
%TO.C,J2*%
G36*
G01*
X132200000Y-121125000D02*
X132200000Y-119875000D01*
G75*
G02*
X132350000Y-119725000I150000J0D01*
G01*
X132650000Y-119725000D01*
G75*
G02*
X132800000Y-119875000I0J-150000D01*
G01*
X132800000Y-121125000D01*
G75*
G02*
X132650000Y-121275000I-150000J0D01*
G01*
X132350000Y-121275000D01*
G75*
G02*
X132200000Y-121125000I0J150000D01*
G01*
G37*
G36*
G01*
X133200000Y-121125000D02*
X133200000Y-119875000D01*
G75*
G02*
X133350000Y-119725000I150000J0D01*
G01*
X133650000Y-119725000D01*
G75*
G02*
X133800000Y-119875000I0J-150000D01*
G01*
X133800000Y-121125000D01*
G75*
G02*
X133650000Y-121275000I-150000J0D01*
G01*
X133350000Y-121275000D01*
G75*
G02*
X133200000Y-121125000I0J150000D01*
G01*
G37*
G36*
G01*
X134200000Y-121125000D02*
X134200000Y-119875000D01*
G75*
G02*
X134350000Y-119725000I150000J0D01*
G01*
X134650000Y-119725000D01*
G75*
G02*
X134800000Y-119875000I0J-150000D01*
G01*
X134800000Y-121125000D01*
G75*
G02*
X134650000Y-121275000I-150000J0D01*
G01*
X134350000Y-121275000D01*
G75*
G02*
X134200000Y-121125000I0J150000D01*
G01*
G37*
G36*
G01*
X135200000Y-121125000D02*
X135200000Y-119875000D01*
G75*
G02*
X135350000Y-119725000I150000J0D01*
G01*
X135650000Y-119725000D01*
G75*
G02*
X135800000Y-119875000I0J-150000D01*
G01*
X135800000Y-121125000D01*
G75*
G02*
X135650000Y-121275000I-150000J0D01*
G01*
X135350000Y-121275000D01*
G75*
G02*
X135200000Y-121125000I0J150000D01*
G01*
G37*
G36*
G01*
X130600000Y-125025001D02*
X130600000Y-123724999D01*
G75*
G02*
X130849999Y-123475000I249999J0D01*
G01*
X131550001Y-123475000D01*
G75*
G02*
X131800000Y-123724999I0J-249999D01*
G01*
X131800000Y-125025001D01*
G75*
G02*
X131550001Y-125275000I-249999J0D01*
G01*
X130849999Y-125275000D01*
G75*
G02*
X130600000Y-125025001I0J249999D01*
G01*
G37*
G36*
G01*
X136200000Y-125025001D02*
X136200000Y-123724999D01*
G75*
G02*
X136449999Y-123475000I249999J0D01*
G01*
X137150001Y-123475000D01*
G75*
G02*
X137400000Y-123724999I0J-249999D01*
G01*
X137400000Y-125025001D01*
G75*
G02*
X137150001Y-125275000I-249999J0D01*
G01*
X136449999Y-125275000D01*
G75*
G02*
X136200000Y-125025001I0J249999D01*
G01*
G37*
%TD*%
%TO.C,J2*%
G36*
G01*
X112200000Y-121125000D02*
X112200000Y-119875000D01*
G75*
G02*
X112350000Y-119725000I150000J0D01*
G01*
X112650000Y-119725000D01*
G75*
G02*
X112800000Y-119875000I0J-150000D01*
G01*
X112800000Y-121125000D01*
G75*
G02*
X112650000Y-121275000I-150000J0D01*
G01*
X112350000Y-121275000D01*
G75*
G02*
X112200000Y-121125000I0J150000D01*
G01*
G37*
G36*
G01*
X113200000Y-121125000D02*
X113200000Y-119875000D01*
G75*
G02*
X113350000Y-119725000I150000J0D01*
G01*
X113650000Y-119725000D01*
G75*
G02*
X113800000Y-119875000I0J-150000D01*
G01*
X113800000Y-121125000D01*
G75*
G02*
X113650000Y-121275000I-150000J0D01*
G01*
X113350000Y-121275000D01*
G75*
G02*
X113200000Y-121125000I0J150000D01*
G01*
G37*
G36*
G01*
X114200000Y-121125000D02*
X114200000Y-119875000D01*
G75*
G02*
X114350000Y-119725000I150000J0D01*
G01*
X114650000Y-119725000D01*
G75*
G02*
X114800000Y-119875000I0J-150000D01*
G01*
X114800000Y-121125000D01*
G75*
G02*
X114650000Y-121275000I-150000J0D01*
G01*
X114350000Y-121275000D01*
G75*
G02*
X114200000Y-121125000I0J150000D01*
G01*
G37*
G36*
G01*
X115200000Y-121125000D02*
X115200000Y-119875000D01*
G75*
G02*
X115350000Y-119725000I150000J0D01*
G01*
X115650000Y-119725000D01*
G75*
G02*
X115800000Y-119875000I0J-150000D01*
G01*
X115800000Y-121125000D01*
G75*
G02*
X115650000Y-121275000I-150000J0D01*
G01*
X115350000Y-121275000D01*
G75*
G02*
X115200000Y-121125000I0J150000D01*
G01*
G37*
G36*
G01*
X110600000Y-125025001D02*
X110600000Y-123724999D01*
G75*
G02*
X110849999Y-123475000I249999J0D01*
G01*
X111550001Y-123475000D01*
G75*
G02*
X111800000Y-123724999I0J-249999D01*
G01*
X111800000Y-125025001D01*
G75*
G02*
X111550001Y-125275000I-249999J0D01*
G01*
X110849999Y-125275000D01*
G75*
G02*
X110600000Y-125025001I0J249999D01*
G01*
G37*
G36*
G01*
X116200000Y-125025001D02*
X116200000Y-123724999D01*
G75*
G02*
X116449999Y-123475000I249999J0D01*
G01*
X117150001Y-123475000D01*
G75*
G02*
X117400000Y-123724999I0J-249999D01*
G01*
X117400000Y-125025001D01*
G75*
G02*
X117150001Y-125275000I-249999J0D01*
G01*
X116449999Y-125275000D01*
G75*
G02*
X116200000Y-125025001I0J249999D01*
G01*
G37*
%TD*%
%TO.C,J2*%
G36*
G01*
X92200000Y-121125000D02*
X92200000Y-119875000D01*
G75*
G02*
X92350000Y-119725000I150000J0D01*
G01*
X92650000Y-119725000D01*
G75*
G02*
X92800000Y-119875000I0J-150000D01*
G01*
X92800000Y-121125000D01*
G75*
G02*
X92650000Y-121275000I-150000J0D01*
G01*
X92350000Y-121275000D01*
G75*
G02*
X92200000Y-121125000I0J150000D01*
G01*
G37*
G36*
G01*
X93200000Y-121125000D02*
X93200000Y-119875000D01*
G75*
G02*
X93350000Y-119725000I150000J0D01*
G01*
X93650000Y-119725000D01*
G75*
G02*
X93800000Y-119875000I0J-150000D01*
G01*
X93800000Y-121125000D01*
G75*
G02*
X93650000Y-121275000I-150000J0D01*
G01*
X93350000Y-121275000D01*
G75*
G02*
X93200000Y-121125000I0J150000D01*
G01*
G37*
G36*
G01*
X94200000Y-121125000D02*
X94200000Y-119875000D01*
G75*
G02*
X94350000Y-119725000I150000J0D01*
G01*
X94650000Y-119725000D01*
G75*
G02*
X94800000Y-119875000I0J-150000D01*
G01*
X94800000Y-121125000D01*
G75*
G02*
X94650000Y-121275000I-150000J0D01*
G01*
X94350000Y-121275000D01*
G75*
G02*
X94200000Y-121125000I0J150000D01*
G01*
G37*
G36*
G01*
X95200000Y-121125000D02*
X95200000Y-119875000D01*
G75*
G02*
X95350000Y-119725000I150000J0D01*
G01*
X95650000Y-119725000D01*
G75*
G02*
X95800000Y-119875000I0J-150000D01*
G01*
X95800000Y-121125000D01*
G75*
G02*
X95650000Y-121275000I-150000J0D01*
G01*
X95350000Y-121275000D01*
G75*
G02*
X95200000Y-121125000I0J150000D01*
G01*
G37*
G36*
G01*
X90600000Y-125025001D02*
X90600000Y-123724999D01*
G75*
G02*
X90849999Y-123475000I249999J0D01*
G01*
X91550001Y-123475000D01*
G75*
G02*
X91800000Y-123724999I0J-249999D01*
G01*
X91800000Y-125025001D01*
G75*
G02*
X91550001Y-125275000I-249999J0D01*
G01*
X90849999Y-125275000D01*
G75*
G02*
X90600000Y-125025001I0J249999D01*
G01*
G37*
G36*
G01*
X96200000Y-125025001D02*
X96200000Y-123724999D01*
G75*
G02*
X96449999Y-123475000I249999J0D01*
G01*
X97150001Y-123475000D01*
G75*
G02*
X97400000Y-123724999I0J-249999D01*
G01*
X97400000Y-125025001D01*
G75*
G02*
X97150001Y-125275000I-249999J0D01*
G01*
X96449999Y-125275000D01*
G75*
G02*
X96200000Y-125025001I0J249999D01*
G01*
G37*
%TD*%
%TO.C,J2*%
G36*
G01*
X72200000Y-121125000D02*
X72200000Y-119875000D01*
G75*
G02*
X72350000Y-119725000I150000J0D01*
G01*
X72650000Y-119725000D01*
G75*
G02*
X72800000Y-119875000I0J-150000D01*
G01*
X72800000Y-121125000D01*
G75*
G02*
X72650000Y-121275000I-150000J0D01*
G01*
X72350000Y-121275000D01*
G75*
G02*
X72200000Y-121125000I0J150000D01*
G01*
G37*
G36*
G01*
X73200000Y-121125000D02*
X73200000Y-119875000D01*
G75*
G02*
X73350000Y-119725000I150000J0D01*
G01*
X73650000Y-119725000D01*
G75*
G02*
X73800000Y-119875000I0J-150000D01*
G01*
X73800000Y-121125000D01*
G75*
G02*
X73650000Y-121275000I-150000J0D01*
G01*
X73350000Y-121275000D01*
G75*
G02*
X73200000Y-121125000I0J150000D01*
G01*
G37*
G36*
G01*
X74200000Y-121125000D02*
X74200000Y-119875000D01*
G75*
G02*
X74350000Y-119725000I150000J0D01*
G01*
X74650000Y-119725000D01*
G75*
G02*
X74800000Y-119875000I0J-150000D01*
G01*
X74800000Y-121125000D01*
G75*
G02*
X74650000Y-121275000I-150000J0D01*
G01*
X74350000Y-121275000D01*
G75*
G02*
X74200000Y-121125000I0J150000D01*
G01*
G37*
G36*
G01*
X75200000Y-121125000D02*
X75200000Y-119875000D01*
G75*
G02*
X75350000Y-119725000I150000J0D01*
G01*
X75650000Y-119725000D01*
G75*
G02*
X75800000Y-119875000I0J-150000D01*
G01*
X75800000Y-121125000D01*
G75*
G02*
X75650000Y-121275000I-150000J0D01*
G01*
X75350000Y-121275000D01*
G75*
G02*
X75200000Y-121125000I0J150000D01*
G01*
G37*
G36*
G01*
X70600000Y-125025001D02*
X70600000Y-123724999D01*
G75*
G02*
X70849999Y-123475000I249999J0D01*
G01*
X71550001Y-123475000D01*
G75*
G02*
X71800000Y-123724999I0J-249999D01*
G01*
X71800000Y-125025001D01*
G75*
G02*
X71550001Y-125275000I-249999J0D01*
G01*
X70849999Y-125275000D01*
G75*
G02*
X70600000Y-125025001I0J249999D01*
G01*
G37*
G36*
G01*
X76200000Y-125025001D02*
X76200000Y-123724999D01*
G75*
G02*
X76449999Y-123475000I249999J0D01*
G01*
X77150001Y-123475000D01*
G75*
G02*
X77400000Y-123724999I0J-249999D01*
G01*
X77400000Y-125025001D01*
G75*
G02*
X77150001Y-125275000I-249999J0D01*
G01*
X76449999Y-125275000D01*
G75*
G02*
X76200000Y-125025001I0J249999D01*
G01*
G37*
%TD*%
%TO.C,J2*%
G36*
G01*
X52200000Y-121125000D02*
X52200000Y-119875000D01*
G75*
G02*
X52350000Y-119725000I150000J0D01*
G01*
X52650000Y-119725000D01*
G75*
G02*
X52800000Y-119875000I0J-150000D01*
G01*
X52800000Y-121125000D01*
G75*
G02*
X52650000Y-121275000I-150000J0D01*
G01*
X52350000Y-121275000D01*
G75*
G02*
X52200000Y-121125000I0J150000D01*
G01*
G37*
G36*
G01*
X53200000Y-121125000D02*
X53200000Y-119875000D01*
G75*
G02*
X53350000Y-119725000I150000J0D01*
G01*
X53650000Y-119725000D01*
G75*
G02*
X53800000Y-119875000I0J-150000D01*
G01*
X53800000Y-121125000D01*
G75*
G02*
X53650000Y-121275000I-150000J0D01*
G01*
X53350000Y-121275000D01*
G75*
G02*
X53200000Y-121125000I0J150000D01*
G01*
G37*
G36*
G01*
X54200000Y-121125000D02*
X54200000Y-119875000D01*
G75*
G02*
X54350000Y-119725000I150000J0D01*
G01*
X54650000Y-119725000D01*
G75*
G02*
X54800000Y-119875000I0J-150000D01*
G01*
X54800000Y-121125000D01*
G75*
G02*
X54650000Y-121275000I-150000J0D01*
G01*
X54350000Y-121275000D01*
G75*
G02*
X54200000Y-121125000I0J150000D01*
G01*
G37*
G36*
G01*
X55200000Y-121125000D02*
X55200000Y-119875000D01*
G75*
G02*
X55350000Y-119725000I150000J0D01*
G01*
X55650000Y-119725000D01*
G75*
G02*
X55800000Y-119875000I0J-150000D01*
G01*
X55800000Y-121125000D01*
G75*
G02*
X55650000Y-121275000I-150000J0D01*
G01*
X55350000Y-121275000D01*
G75*
G02*
X55200000Y-121125000I0J150000D01*
G01*
G37*
G36*
G01*
X50600000Y-125025001D02*
X50600000Y-123724999D01*
G75*
G02*
X50849999Y-123475000I249999J0D01*
G01*
X51550001Y-123475000D01*
G75*
G02*
X51800000Y-123724999I0J-249999D01*
G01*
X51800000Y-125025001D01*
G75*
G02*
X51550001Y-125275000I-249999J0D01*
G01*
X50849999Y-125275000D01*
G75*
G02*
X50600000Y-125025001I0J249999D01*
G01*
G37*
G36*
G01*
X56200000Y-125025001D02*
X56200000Y-123724999D01*
G75*
G02*
X56449999Y-123475000I249999J0D01*
G01*
X57150001Y-123475000D01*
G75*
G02*
X57400000Y-123724999I0J-249999D01*
G01*
X57400000Y-125025001D01*
G75*
G02*
X57150001Y-125275000I-249999J0D01*
G01*
X56449999Y-125275000D01*
G75*
G02*
X56200000Y-125025001I0J249999D01*
G01*
G37*
%TD*%
%TO.C,J2*%
G36*
G01*
X132200000Y-102625000D02*
X132200000Y-101375000D01*
G75*
G02*
X132350000Y-101225000I150000J0D01*
G01*
X132650000Y-101225000D01*
G75*
G02*
X132800000Y-101375000I0J-150000D01*
G01*
X132800000Y-102625000D01*
G75*
G02*
X132650000Y-102775000I-150000J0D01*
G01*
X132350000Y-102775000D01*
G75*
G02*
X132200000Y-102625000I0J150000D01*
G01*
G37*
G36*
G01*
X133200000Y-102625000D02*
X133200000Y-101375000D01*
G75*
G02*
X133350000Y-101225000I150000J0D01*
G01*
X133650000Y-101225000D01*
G75*
G02*
X133800000Y-101375000I0J-150000D01*
G01*
X133800000Y-102625000D01*
G75*
G02*
X133650000Y-102775000I-150000J0D01*
G01*
X133350000Y-102775000D01*
G75*
G02*
X133200000Y-102625000I0J150000D01*
G01*
G37*
G36*
G01*
X134200000Y-102625000D02*
X134200000Y-101375000D01*
G75*
G02*
X134350000Y-101225000I150000J0D01*
G01*
X134650000Y-101225000D01*
G75*
G02*
X134800000Y-101375000I0J-150000D01*
G01*
X134800000Y-102625000D01*
G75*
G02*
X134650000Y-102775000I-150000J0D01*
G01*
X134350000Y-102775000D01*
G75*
G02*
X134200000Y-102625000I0J150000D01*
G01*
G37*
G36*
G01*
X135200000Y-102625000D02*
X135200000Y-101375000D01*
G75*
G02*
X135350000Y-101225000I150000J0D01*
G01*
X135650000Y-101225000D01*
G75*
G02*
X135800000Y-101375000I0J-150000D01*
G01*
X135800000Y-102625000D01*
G75*
G02*
X135650000Y-102775000I-150000J0D01*
G01*
X135350000Y-102775000D01*
G75*
G02*
X135200000Y-102625000I0J150000D01*
G01*
G37*
G36*
G01*
X130600000Y-106525001D02*
X130600000Y-105224999D01*
G75*
G02*
X130849999Y-104975000I249999J0D01*
G01*
X131550001Y-104975000D01*
G75*
G02*
X131800000Y-105224999I0J-249999D01*
G01*
X131800000Y-106525001D01*
G75*
G02*
X131550001Y-106775000I-249999J0D01*
G01*
X130849999Y-106775000D01*
G75*
G02*
X130600000Y-106525001I0J249999D01*
G01*
G37*
G36*
G01*
X136200000Y-106525001D02*
X136200000Y-105224999D01*
G75*
G02*
X136449999Y-104975000I249999J0D01*
G01*
X137150001Y-104975000D01*
G75*
G02*
X137400000Y-105224999I0J-249999D01*
G01*
X137400000Y-106525001D01*
G75*
G02*
X137150001Y-106775000I-249999J0D01*
G01*
X136449999Y-106775000D01*
G75*
G02*
X136200000Y-106525001I0J249999D01*
G01*
G37*
%TD*%
%TO.C,J2*%
G36*
G01*
X112200000Y-102625000D02*
X112200000Y-101375000D01*
G75*
G02*
X112350000Y-101225000I150000J0D01*
G01*
X112650000Y-101225000D01*
G75*
G02*
X112800000Y-101375000I0J-150000D01*
G01*
X112800000Y-102625000D01*
G75*
G02*
X112650000Y-102775000I-150000J0D01*
G01*
X112350000Y-102775000D01*
G75*
G02*
X112200000Y-102625000I0J150000D01*
G01*
G37*
G36*
G01*
X113200000Y-102625000D02*
X113200000Y-101375000D01*
G75*
G02*
X113350000Y-101225000I150000J0D01*
G01*
X113650000Y-101225000D01*
G75*
G02*
X113800000Y-101375000I0J-150000D01*
G01*
X113800000Y-102625000D01*
G75*
G02*
X113650000Y-102775000I-150000J0D01*
G01*
X113350000Y-102775000D01*
G75*
G02*
X113200000Y-102625000I0J150000D01*
G01*
G37*
G36*
G01*
X114200000Y-102625000D02*
X114200000Y-101375000D01*
G75*
G02*
X114350000Y-101225000I150000J0D01*
G01*
X114650000Y-101225000D01*
G75*
G02*
X114800000Y-101375000I0J-150000D01*
G01*
X114800000Y-102625000D01*
G75*
G02*
X114650000Y-102775000I-150000J0D01*
G01*
X114350000Y-102775000D01*
G75*
G02*
X114200000Y-102625000I0J150000D01*
G01*
G37*
G36*
G01*
X115200000Y-102625000D02*
X115200000Y-101375000D01*
G75*
G02*
X115350000Y-101225000I150000J0D01*
G01*
X115650000Y-101225000D01*
G75*
G02*
X115800000Y-101375000I0J-150000D01*
G01*
X115800000Y-102625000D01*
G75*
G02*
X115650000Y-102775000I-150000J0D01*
G01*
X115350000Y-102775000D01*
G75*
G02*
X115200000Y-102625000I0J150000D01*
G01*
G37*
G36*
G01*
X110600000Y-106525001D02*
X110600000Y-105224999D01*
G75*
G02*
X110849999Y-104975000I249999J0D01*
G01*
X111550001Y-104975000D01*
G75*
G02*
X111800000Y-105224999I0J-249999D01*
G01*
X111800000Y-106525001D01*
G75*
G02*
X111550001Y-106775000I-249999J0D01*
G01*
X110849999Y-106775000D01*
G75*
G02*
X110600000Y-106525001I0J249999D01*
G01*
G37*
G36*
G01*
X116200000Y-106525001D02*
X116200000Y-105224999D01*
G75*
G02*
X116449999Y-104975000I249999J0D01*
G01*
X117150001Y-104975000D01*
G75*
G02*
X117400000Y-105224999I0J-249999D01*
G01*
X117400000Y-106525001D01*
G75*
G02*
X117150001Y-106775000I-249999J0D01*
G01*
X116449999Y-106775000D01*
G75*
G02*
X116200000Y-106525001I0J249999D01*
G01*
G37*
%TD*%
%TO.C,J2*%
G36*
G01*
X92200000Y-102625000D02*
X92200000Y-101375000D01*
G75*
G02*
X92350000Y-101225000I150000J0D01*
G01*
X92650000Y-101225000D01*
G75*
G02*
X92800000Y-101375000I0J-150000D01*
G01*
X92800000Y-102625000D01*
G75*
G02*
X92650000Y-102775000I-150000J0D01*
G01*
X92350000Y-102775000D01*
G75*
G02*
X92200000Y-102625000I0J150000D01*
G01*
G37*
G36*
G01*
X93200000Y-102625000D02*
X93200000Y-101375000D01*
G75*
G02*
X93350000Y-101225000I150000J0D01*
G01*
X93650000Y-101225000D01*
G75*
G02*
X93800000Y-101375000I0J-150000D01*
G01*
X93800000Y-102625000D01*
G75*
G02*
X93650000Y-102775000I-150000J0D01*
G01*
X93350000Y-102775000D01*
G75*
G02*
X93200000Y-102625000I0J150000D01*
G01*
G37*
G36*
G01*
X94200000Y-102625000D02*
X94200000Y-101375000D01*
G75*
G02*
X94350000Y-101225000I150000J0D01*
G01*
X94650000Y-101225000D01*
G75*
G02*
X94800000Y-101375000I0J-150000D01*
G01*
X94800000Y-102625000D01*
G75*
G02*
X94650000Y-102775000I-150000J0D01*
G01*
X94350000Y-102775000D01*
G75*
G02*
X94200000Y-102625000I0J150000D01*
G01*
G37*
G36*
G01*
X95200000Y-102625000D02*
X95200000Y-101375000D01*
G75*
G02*
X95350000Y-101225000I150000J0D01*
G01*
X95650000Y-101225000D01*
G75*
G02*
X95800000Y-101375000I0J-150000D01*
G01*
X95800000Y-102625000D01*
G75*
G02*
X95650000Y-102775000I-150000J0D01*
G01*
X95350000Y-102775000D01*
G75*
G02*
X95200000Y-102625000I0J150000D01*
G01*
G37*
G36*
G01*
X90600000Y-106525001D02*
X90600000Y-105224999D01*
G75*
G02*
X90849999Y-104975000I249999J0D01*
G01*
X91550001Y-104975000D01*
G75*
G02*
X91800000Y-105224999I0J-249999D01*
G01*
X91800000Y-106525001D01*
G75*
G02*
X91550001Y-106775000I-249999J0D01*
G01*
X90849999Y-106775000D01*
G75*
G02*
X90600000Y-106525001I0J249999D01*
G01*
G37*
G36*
G01*
X96200000Y-106525001D02*
X96200000Y-105224999D01*
G75*
G02*
X96449999Y-104975000I249999J0D01*
G01*
X97150001Y-104975000D01*
G75*
G02*
X97400000Y-105224999I0J-249999D01*
G01*
X97400000Y-106525001D01*
G75*
G02*
X97150001Y-106775000I-249999J0D01*
G01*
X96449999Y-106775000D01*
G75*
G02*
X96200000Y-106525001I0J249999D01*
G01*
G37*
%TD*%
%TO.C,J2*%
G36*
G01*
X72200000Y-102625000D02*
X72200000Y-101375000D01*
G75*
G02*
X72350000Y-101225000I150000J0D01*
G01*
X72650000Y-101225000D01*
G75*
G02*
X72800000Y-101375000I0J-150000D01*
G01*
X72800000Y-102625000D01*
G75*
G02*
X72650000Y-102775000I-150000J0D01*
G01*
X72350000Y-102775000D01*
G75*
G02*
X72200000Y-102625000I0J150000D01*
G01*
G37*
G36*
G01*
X73200000Y-102625000D02*
X73200000Y-101375000D01*
G75*
G02*
X73350000Y-101225000I150000J0D01*
G01*
X73650000Y-101225000D01*
G75*
G02*
X73800000Y-101375000I0J-150000D01*
G01*
X73800000Y-102625000D01*
G75*
G02*
X73650000Y-102775000I-150000J0D01*
G01*
X73350000Y-102775000D01*
G75*
G02*
X73200000Y-102625000I0J150000D01*
G01*
G37*
G36*
G01*
X74200000Y-102625000D02*
X74200000Y-101375000D01*
G75*
G02*
X74350000Y-101225000I150000J0D01*
G01*
X74650000Y-101225000D01*
G75*
G02*
X74800000Y-101375000I0J-150000D01*
G01*
X74800000Y-102625000D01*
G75*
G02*
X74650000Y-102775000I-150000J0D01*
G01*
X74350000Y-102775000D01*
G75*
G02*
X74200000Y-102625000I0J150000D01*
G01*
G37*
G36*
G01*
X75200000Y-102625000D02*
X75200000Y-101375000D01*
G75*
G02*
X75350000Y-101225000I150000J0D01*
G01*
X75650000Y-101225000D01*
G75*
G02*
X75800000Y-101375000I0J-150000D01*
G01*
X75800000Y-102625000D01*
G75*
G02*
X75650000Y-102775000I-150000J0D01*
G01*
X75350000Y-102775000D01*
G75*
G02*
X75200000Y-102625000I0J150000D01*
G01*
G37*
G36*
G01*
X70600000Y-106525001D02*
X70600000Y-105224999D01*
G75*
G02*
X70849999Y-104975000I249999J0D01*
G01*
X71550001Y-104975000D01*
G75*
G02*
X71800000Y-105224999I0J-249999D01*
G01*
X71800000Y-106525001D01*
G75*
G02*
X71550001Y-106775000I-249999J0D01*
G01*
X70849999Y-106775000D01*
G75*
G02*
X70600000Y-106525001I0J249999D01*
G01*
G37*
G36*
G01*
X76200000Y-106525001D02*
X76200000Y-105224999D01*
G75*
G02*
X76449999Y-104975000I249999J0D01*
G01*
X77150001Y-104975000D01*
G75*
G02*
X77400000Y-105224999I0J-249999D01*
G01*
X77400000Y-106525001D01*
G75*
G02*
X77150001Y-106775000I-249999J0D01*
G01*
X76449999Y-106775000D01*
G75*
G02*
X76200000Y-106525001I0J249999D01*
G01*
G37*
%TD*%
%TO.C,J2*%
G36*
G01*
X52200000Y-102625000D02*
X52200000Y-101375000D01*
G75*
G02*
X52350000Y-101225000I150000J0D01*
G01*
X52650000Y-101225000D01*
G75*
G02*
X52800000Y-101375000I0J-150000D01*
G01*
X52800000Y-102625000D01*
G75*
G02*
X52650000Y-102775000I-150000J0D01*
G01*
X52350000Y-102775000D01*
G75*
G02*
X52200000Y-102625000I0J150000D01*
G01*
G37*
G36*
G01*
X53200000Y-102625000D02*
X53200000Y-101375000D01*
G75*
G02*
X53350000Y-101225000I150000J0D01*
G01*
X53650000Y-101225000D01*
G75*
G02*
X53800000Y-101375000I0J-150000D01*
G01*
X53800000Y-102625000D01*
G75*
G02*
X53650000Y-102775000I-150000J0D01*
G01*
X53350000Y-102775000D01*
G75*
G02*
X53200000Y-102625000I0J150000D01*
G01*
G37*
G36*
G01*
X54200000Y-102625000D02*
X54200000Y-101375000D01*
G75*
G02*
X54350000Y-101225000I150000J0D01*
G01*
X54650000Y-101225000D01*
G75*
G02*
X54800000Y-101375000I0J-150000D01*
G01*
X54800000Y-102625000D01*
G75*
G02*
X54650000Y-102775000I-150000J0D01*
G01*
X54350000Y-102775000D01*
G75*
G02*
X54200000Y-102625000I0J150000D01*
G01*
G37*
G36*
G01*
X55200000Y-102625000D02*
X55200000Y-101375000D01*
G75*
G02*
X55350000Y-101225000I150000J0D01*
G01*
X55650000Y-101225000D01*
G75*
G02*
X55800000Y-101375000I0J-150000D01*
G01*
X55800000Y-102625000D01*
G75*
G02*
X55650000Y-102775000I-150000J0D01*
G01*
X55350000Y-102775000D01*
G75*
G02*
X55200000Y-102625000I0J150000D01*
G01*
G37*
G36*
G01*
X50600000Y-106525001D02*
X50600000Y-105224999D01*
G75*
G02*
X50849999Y-104975000I249999J0D01*
G01*
X51550001Y-104975000D01*
G75*
G02*
X51800000Y-105224999I0J-249999D01*
G01*
X51800000Y-106525001D01*
G75*
G02*
X51550001Y-106775000I-249999J0D01*
G01*
X50849999Y-106775000D01*
G75*
G02*
X50600000Y-106525001I0J249999D01*
G01*
G37*
G36*
G01*
X56200000Y-106525001D02*
X56200000Y-105224999D01*
G75*
G02*
X56449999Y-104975000I249999J0D01*
G01*
X57150001Y-104975000D01*
G75*
G02*
X57400000Y-105224999I0J-249999D01*
G01*
X57400000Y-106525001D01*
G75*
G02*
X57150001Y-106775000I-249999J0D01*
G01*
X56449999Y-106775000D01*
G75*
G02*
X56200000Y-106525001I0J249999D01*
G01*
G37*
%TD*%
%TO.C,J2*%
G36*
G01*
X132200000Y-84125000D02*
X132200000Y-82875000D01*
G75*
G02*
X132350000Y-82725000I150000J0D01*
G01*
X132650000Y-82725000D01*
G75*
G02*
X132800000Y-82875000I0J-150000D01*
G01*
X132800000Y-84125000D01*
G75*
G02*
X132650000Y-84275000I-150000J0D01*
G01*
X132350000Y-84275000D01*
G75*
G02*
X132200000Y-84125000I0J150000D01*
G01*
G37*
G36*
G01*
X133200000Y-84125000D02*
X133200000Y-82875000D01*
G75*
G02*
X133350000Y-82725000I150000J0D01*
G01*
X133650000Y-82725000D01*
G75*
G02*
X133800000Y-82875000I0J-150000D01*
G01*
X133800000Y-84125000D01*
G75*
G02*
X133650000Y-84275000I-150000J0D01*
G01*
X133350000Y-84275000D01*
G75*
G02*
X133200000Y-84125000I0J150000D01*
G01*
G37*
G36*
G01*
X134200000Y-84125000D02*
X134200000Y-82875000D01*
G75*
G02*
X134350000Y-82725000I150000J0D01*
G01*
X134650000Y-82725000D01*
G75*
G02*
X134800000Y-82875000I0J-150000D01*
G01*
X134800000Y-84125000D01*
G75*
G02*
X134650000Y-84275000I-150000J0D01*
G01*
X134350000Y-84275000D01*
G75*
G02*
X134200000Y-84125000I0J150000D01*
G01*
G37*
G36*
G01*
X135200000Y-84125000D02*
X135200000Y-82875000D01*
G75*
G02*
X135350000Y-82725000I150000J0D01*
G01*
X135650000Y-82725000D01*
G75*
G02*
X135800000Y-82875000I0J-150000D01*
G01*
X135800000Y-84125000D01*
G75*
G02*
X135650000Y-84275000I-150000J0D01*
G01*
X135350000Y-84275000D01*
G75*
G02*
X135200000Y-84125000I0J150000D01*
G01*
G37*
G36*
G01*
X130600000Y-88025001D02*
X130600000Y-86724999D01*
G75*
G02*
X130849999Y-86475000I249999J0D01*
G01*
X131550001Y-86475000D01*
G75*
G02*
X131800000Y-86724999I0J-249999D01*
G01*
X131800000Y-88025001D01*
G75*
G02*
X131550001Y-88275000I-249999J0D01*
G01*
X130849999Y-88275000D01*
G75*
G02*
X130600000Y-88025001I0J249999D01*
G01*
G37*
G36*
G01*
X136200000Y-88025001D02*
X136200000Y-86724999D01*
G75*
G02*
X136449999Y-86475000I249999J0D01*
G01*
X137150001Y-86475000D01*
G75*
G02*
X137400000Y-86724999I0J-249999D01*
G01*
X137400000Y-88025001D01*
G75*
G02*
X137150001Y-88275000I-249999J0D01*
G01*
X136449999Y-88275000D01*
G75*
G02*
X136200000Y-88025001I0J249999D01*
G01*
G37*
%TD*%
%TO.C,J2*%
G36*
G01*
X112200000Y-84125000D02*
X112200000Y-82875000D01*
G75*
G02*
X112350000Y-82725000I150000J0D01*
G01*
X112650000Y-82725000D01*
G75*
G02*
X112800000Y-82875000I0J-150000D01*
G01*
X112800000Y-84125000D01*
G75*
G02*
X112650000Y-84275000I-150000J0D01*
G01*
X112350000Y-84275000D01*
G75*
G02*
X112200000Y-84125000I0J150000D01*
G01*
G37*
G36*
G01*
X113200000Y-84125000D02*
X113200000Y-82875000D01*
G75*
G02*
X113350000Y-82725000I150000J0D01*
G01*
X113650000Y-82725000D01*
G75*
G02*
X113800000Y-82875000I0J-150000D01*
G01*
X113800000Y-84125000D01*
G75*
G02*
X113650000Y-84275000I-150000J0D01*
G01*
X113350000Y-84275000D01*
G75*
G02*
X113200000Y-84125000I0J150000D01*
G01*
G37*
G36*
G01*
X114200000Y-84125000D02*
X114200000Y-82875000D01*
G75*
G02*
X114350000Y-82725000I150000J0D01*
G01*
X114650000Y-82725000D01*
G75*
G02*
X114800000Y-82875000I0J-150000D01*
G01*
X114800000Y-84125000D01*
G75*
G02*
X114650000Y-84275000I-150000J0D01*
G01*
X114350000Y-84275000D01*
G75*
G02*
X114200000Y-84125000I0J150000D01*
G01*
G37*
G36*
G01*
X115200000Y-84125000D02*
X115200000Y-82875000D01*
G75*
G02*
X115350000Y-82725000I150000J0D01*
G01*
X115650000Y-82725000D01*
G75*
G02*
X115800000Y-82875000I0J-150000D01*
G01*
X115800000Y-84125000D01*
G75*
G02*
X115650000Y-84275000I-150000J0D01*
G01*
X115350000Y-84275000D01*
G75*
G02*
X115200000Y-84125000I0J150000D01*
G01*
G37*
G36*
G01*
X110600000Y-88025001D02*
X110600000Y-86724999D01*
G75*
G02*
X110849999Y-86475000I249999J0D01*
G01*
X111550001Y-86475000D01*
G75*
G02*
X111800000Y-86724999I0J-249999D01*
G01*
X111800000Y-88025001D01*
G75*
G02*
X111550001Y-88275000I-249999J0D01*
G01*
X110849999Y-88275000D01*
G75*
G02*
X110600000Y-88025001I0J249999D01*
G01*
G37*
G36*
G01*
X116200000Y-88025001D02*
X116200000Y-86724999D01*
G75*
G02*
X116449999Y-86475000I249999J0D01*
G01*
X117150001Y-86475000D01*
G75*
G02*
X117400000Y-86724999I0J-249999D01*
G01*
X117400000Y-88025001D01*
G75*
G02*
X117150001Y-88275000I-249999J0D01*
G01*
X116449999Y-88275000D01*
G75*
G02*
X116200000Y-88025001I0J249999D01*
G01*
G37*
%TD*%
%TO.C,J2*%
G36*
G01*
X92200000Y-84125000D02*
X92200000Y-82875000D01*
G75*
G02*
X92350000Y-82725000I150000J0D01*
G01*
X92650000Y-82725000D01*
G75*
G02*
X92800000Y-82875000I0J-150000D01*
G01*
X92800000Y-84125000D01*
G75*
G02*
X92650000Y-84275000I-150000J0D01*
G01*
X92350000Y-84275000D01*
G75*
G02*
X92200000Y-84125000I0J150000D01*
G01*
G37*
G36*
G01*
X93200000Y-84125000D02*
X93200000Y-82875000D01*
G75*
G02*
X93350000Y-82725000I150000J0D01*
G01*
X93650000Y-82725000D01*
G75*
G02*
X93800000Y-82875000I0J-150000D01*
G01*
X93800000Y-84125000D01*
G75*
G02*
X93650000Y-84275000I-150000J0D01*
G01*
X93350000Y-84275000D01*
G75*
G02*
X93200000Y-84125000I0J150000D01*
G01*
G37*
G36*
G01*
X94200000Y-84125000D02*
X94200000Y-82875000D01*
G75*
G02*
X94350000Y-82725000I150000J0D01*
G01*
X94650000Y-82725000D01*
G75*
G02*
X94800000Y-82875000I0J-150000D01*
G01*
X94800000Y-84125000D01*
G75*
G02*
X94650000Y-84275000I-150000J0D01*
G01*
X94350000Y-84275000D01*
G75*
G02*
X94200000Y-84125000I0J150000D01*
G01*
G37*
G36*
G01*
X95200000Y-84125000D02*
X95200000Y-82875000D01*
G75*
G02*
X95350000Y-82725000I150000J0D01*
G01*
X95650000Y-82725000D01*
G75*
G02*
X95800000Y-82875000I0J-150000D01*
G01*
X95800000Y-84125000D01*
G75*
G02*
X95650000Y-84275000I-150000J0D01*
G01*
X95350000Y-84275000D01*
G75*
G02*
X95200000Y-84125000I0J150000D01*
G01*
G37*
G36*
G01*
X90600000Y-88025001D02*
X90600000Y-86724999D01*
G75*
G02*
X90849999Y-86475000I249999J0D01*
G01*
X91550001Y-86475000D01*
G75*
G02*
X91800000Y-86724999I0J-249999D01*
G01*
X91800000Y-88025001D01*
G75*
G02*
X91550001Y-88275000I-249999J0D01*
G01*
X90849999Y-88275000D01*
G75*
G02*
X90600000Y-88025001I0J249999D01*
G01*
G37*
G36*
G01*
X96200000Y-88025001D02*
X96200000Y-86724999D01*
G75*
G02*
X96449999Y-86475000I249999J0D01*
G01*
X97150001Y-86475000D01*
G75*
G02*
X97400000Y-86724999I0J-249999D01*
G01*
X97400000Y-88025001D01*
G75*
G02*
X97150001Y-88275000I-249999J0D01*
G01*
X96449999Y-88275000D01*
G75*
G02*
X96200000Y-88025001I0J249999D01*
G01*
G37*
%TD*%
%TO.C,J2*%
G36*
G01*
X72200000Y-84125000D02*
X72200000Y-82875000D01*
G75*
G02*
X72350000Y-82725000I150000J0D01*
G01*
X72650000Y-82725000D01*
G75*
G02*
X72800000Y-82875000I0J-150000D01*
G01*
X72800000Y-84125000D01*
G75*
G02*
X72650000Y-84275000I-150000J0D01*
G01*
X72350000Y-84275000D01*
G75*
G02*
X72200000Y-84125000I0J150000D01*
G01*
G37*
G36*
G01*
X73200000Y-84125000D02*
X73200000Y-82875000D01*
G75*
G02*
X73350000Y-82725000I150000J0D01*
G01*
X73650000Y-82725000D01*
G75*
G02*
X73800000Y-82875000I0J-150000D01*
G01*
X73800000Y-84125000D01*
G75*
G02*
X73650000Y-84275000I-150000J0D01*
G01*
X73350000Y-84275000D01*
G75*
G02*
X73200000Y-84125000I0J150000D01*
G01*
G37*
G36*
G01*
X74200000Y-84125000D02*
X74200000Y-82875000D01*
G75*
G02*
X74350000Y-82725000I150000J0D01*
G01*
X74650000Y-82725000D01*
G75*
G02*
X74800000Y-82875000I0J-150000D01*
G01*
X74800000Y-84125000D01*
G75*
G02*
X74650000Y-84275000I-150000J0D01*
G01*
X74350000Y-84275000D01*
G75*
G02*
X74200000Y-84125000I0J150000D01*
G01*
G37*
G36*
G01*
X75200000Y-84125000D02*
X75200000Y-82875000D01*
G75*
G02*
X75350000Y-82725000I150000J0D01*
G01*
X75650000Y-82725000D01*
G75*
G02*
X75800000Y-82875000I0J-150000D01*
G01*
X75800000Y-84125000D01*
G75*
G02*
X75650000Y-84275000I-150000J0D01*
G01*
X75350000Y-84275000D01*
G75*
G02*
X75200000Y-84125000I0J150000D01*
G01*
G37*
G36*
G01*
X70600000Y-88025001D02*
X70600000Y-86724999D01*
G75*
G02*
X70849999Y-86475000I249999J0D01*
G01*
X71550001Y-86475000D01*
G75*
G02*
X71800000Y-86724999I0J-249999D01*
G01*
X71800000Y-88025001D01*
G75*
G02*
X71550001Y-88275000I-249999J0D01*
G01*
X70849999Y-88275000D01*
G75*
G02*
X70600000Y-88025001I0J249999D01*
G01*
G37*
G36*
G01*
X76200000Y-88025001D02*
X76200000Y-86724999D01*
G75*
G02*
X76449999Y-86475000I249999J0D01*
G01*
X77150001Y-86475000D01*
G75*
G02*
X77400000Y-86724999I0J-249999D01*
G01*
X77400000Y-88025001D01*
G75*
G02*
X77150001Y-88275000I-249999J0D01*
G01*
X76449999Y-88275000D01*
G75*
G02*
X76200000Y-88025001I0J249999D01*
G01*
G37*
%TD*%
%TO.C,J2*%
G36*
G01*
X52200000Y-84125000D02*
X52200000Y-82875000D01*
G75*
G02*
X52350000Y-82725000I150000J0D01*
G01*
X52650000Y-82725000D01*
G75*
G02*
X52800000Y-82875000I0J-150000D01*
G01*
X52800000Y-84125000D01*
G75*
G02*
X52650000Y-84275000I-150000J0D01*
G01*
X52350000Y-84275000D01*
G75*
G02*
X52200000Y-84125000I0J150000D01*
G01*
G37*
G36*
G01*
X53200000Y-84125000D02*
X53200000Y-82875000D01*
G75*
G02*
X53350000Y-82725000I150000J0D01*
G01*
X53650000Y-82725000D01*
G75*
G02*
X53800000Y-82875000I0J-150000D01*
G01*
X53800000Y-84125000D01*
G75*
G02*
X53650000Y-84275000I-150000J0D01*
G01*
X53350000Y-84275000D01*
G75*
G02*
X53200000Y-84125000I0J150000D01*
G01*
G37*
G36*
G01*
X54200000Y-84125000D02*
X54200000Y-82875000D01*
G75*
G02*
X54350000Y-82725000I150000J0D01*
G01*
X54650000Y-82725000D01*
G75*
G02*
X54800000Y-82875000I0J-150000D01*
G01*
X54800000Y-84125000D01*
G75*
G02*
X54650000Y-84275000I-150000J0D01*
G01*
X54350000Y-84275000D01*
G75*
G02*
X54200000Y-84125000I0J150000D01*
G01*
G37*
G36*
G01*
X55200000Y-84125000D02*
X55200000Y-82875000D01*
G75*
G02*
X55350000Y-82725000I150000J0D01*
G01*
X55650000Y-82725000D01*
G75*
G02*
X55800000Y-82875000I0J-150000D01*
G01*
X55800000Y-84125000D01*
G75*
G02*
X55650000Y-84275000I-150000J0D01*
G01*
X55350000Y-84275000D01*
G75*
G02*
X55200000Y-84125000I0J150000D01*
G01*
G37*
G36*
G01*
X50600000Y-88025001D02*
X50600000Y-86724999D01*
G75*
G02*
X50849999Y-86475000I249999J0D01*
G01*
X51550001Y-86475000D01*
G75*
G02*
X51800000Y-86724999I0J-249999D01*
G01*
X51800000Y-88025001D01*
G75*
G02*
X51550001Y-88275000I-249999J0D01*
G01*
X50849999Y-88275000D01*
G75*
G02*
X50600000Y-88025001I0J249999D01*
G01*
G37*
G36*
G01*
X56200000Y-88025001D02*
X56200000Y-86724999D01*
G75*
G02*
X56449999Y-86475000I249999J0D01*
G01*
X57150001Y-86475000D01*
G75*
G02*
X57400000Y-86724999I0J-249999D01*
G01*
X57400000Y-88025001D01*
G75*
G02*
X57150001Y-88275000I-249999J0D01*
G01*
X56449999Y-88275000D01*
G75*
G02*
X56200000Y-88025001I0J249999D01*
G01*
G37*
%TD*%
%TO.C,J2*%
G36*
G01*
X132200000Y-65625000D02*
X132200000Y-64375000D01*
G75*
G02*
X132350000Y-64225000I150000J0D01*
G01*
X132650000Y-64225000D01*
G75*
G02*
X132800000Y-64375000I0J-150000D01*
G01*
X132800000Y-65625000D01*
G75*
G02*
X132650000Y-65775000I-150000J0D01*
G01*
X132350000Y-65775000D01*
G75*
G02*
X132200000Y-65625000I0J150000D01*
G01*
G37*
G36*
G01*
X133200000Y-65625000D02*
X133200000Y-64375000D01*
G75*
G02*
X133350000Y-64225000I150000J0D01*
G01*
X133650000Y-64225000D01*
G75*
G02*
X133800000Y-64375000I0J-150000D01*
G01*
X133800000Y-65625000D01*
G75*
G02*
X133650000Y-65775000I-150000J0D01*
G01*
X133350000Y-65775000D01*
G75*
G02*
X133200000Y-65625000I0J150000D01*
G01*
G37*
G36*
G01*
X134200000Y-65625000D02*
X134200000Y-64375000D01*
G75*
G02*
X134350000Y-64225000I150000J0D01*
G01*
X134650000Y-64225000D01*
G75*
G02*
X134800000Y-64375000I0J-150000D01*
G01*
X134800000Y-65625000D01*
G75*
G02*
X134650000Y-65775000I-150000J0D01*
G01*
X134350000Y-65775000D01*
G75*
G02*
X134200000Y-65625000I0J150000D01*
G01*
G37*
G36*
G01*
X135200000Y-65625000D02*
X135200000Y-64375000D01*
G75*
G02*
X135350000Y-64225000I150000J0D01*
G01*
X135650000Y-64225000D01*
G75*
G02*
X135800000Y-64375000I0J-150000D01*
G01*
X135800000Y-65625000D01*
G75*
G02*
X135650000Y-65775000I-150000J0D01*
G01*
X135350000Y-65775000D01*
G75*
G02*
X135200000Y-65625000I0J150000D01*
G01*
G37*
G36*
G01*
X130600000Y-69525001D02*
X130600000Y-68224999D01*
G75*
G02*
X130849999Y-67975000I249999J0D01*
G01*
X131550001Y-67975000D01*
G75*
G02*
X131800000Y-68224999I0J-249999D01*
G01*
X131800000Y-69525001D01*
G75*
G02*
X131550001Y-69775000I-249999J0D01*
G01*
X130849999Y-69775000D01*
G75*
G02*
X130600000Y-69525001I0J249999D01*
G01*
G37*
G36*
G01*
X136200000Y-69525001D02*
X136200000Y-68224999D01*
G75*
G02*
X136449999Y-67975000I249999J0D01*
G01*
X137150001Y-67975000D01*
G75*
G02*
X137400000Y-68224999I0J-249999D01*
G01*
X137400000Y-69525001D01*
G75*
G02*
X137150001Y-69775000I-249999J0D01*
G01*
X136449999Y-69775000D01*
G75*
G02*
X136200000Y-69525001I0J249999D01*
G01*
G37*
%TD*%
%TO.C,J2*%
G36*
G01*
X112200000Y-65625000D02*
X112200000Y-64375000D01*
G75*
G02*
X112350000Y-64225000I150000J0D01*
G01*
X112650000Y-64225000D01*
G75*
G02*
X112800000Y-64375000I0J-150000D01*
G01*
X112800000Y-65625000D01*
G75*
G02*
X112650000Y-65775000I-150000J0D01*
G01*
X112350000Y-65775000D01*
G75*
G02*
X112200000Y-65625000I0J150000D01*
G01*
G37*
G36*
G01*
X113200000Y-65625000D02*
X113200000Y-64375000D01*
G75*
G02*
X113350000Y-64225000I150000J0D01*
G01*
X113650000Y-64225000D01*
G75*
G02*
X113800000Y-64375000I0J-150000D01*
G01*
X113800000Y-65625000D01*
G75*
G02*
X113650000Y-65775000I-150000J0D01*
G01*
X113350000Y-65775000D01*
G75*
G02*
X113200000Y-65625000I0J150000D01*
G01*
G37*
G36*
G01*
X114200000Y-65625000D02*
X114200000Y-64375000D01*
G75*
G02*
X114350000Y-64225000I150000J0D01*
G01*
X114650000Y-64225000D01*
G75*
G02*
X114800000Y-64375000I0J-150000D01*
G01*
X114800000Y-65625000D01*
G75*
G02*
X114650000Y-65775000I-150000J0D01*
G01*
X114350000Y-65775000D01*
G75*
G02*
X114200000Y-65625000I0J150000D01*
G01*
G37*
G36*
G01*
X115200000Y-65625000D02*
X115200000Y-64375000D01*
G75*
G02*
X115350000Y-64225000I150000J0D01*
G01*
X115650000Y-64225000D01*
G75*
G02*
X115800000Y-64375000I0J-150000D01*
G01*
X115800000Y-65625000D01*
G75*
G02*
X115650000Y-65775000I-150000J0D01*
G01*
X115350000Y-65775000D01*
G75*
G02*
X115200000Y-65625000I0J150000D01*
G01*
G37*
G36*
G01*
X110600000Y-69525001D02*
X110600000Y-68224999D01*
G75*
G02*
X110849999Y-67975000I249999J0D01*
G01*
X111550001Y-67975000D01*
G75*
G02*
X111800000Y-68224999I0J-249999D01*
G01*
X111800000Y-69525001D01*
G75*
G02*
X111550001Y-69775000I-249999J0D01*
G01*
X110849999Y-69775000D01*
G75*
G02*
X110600000Y-69525001I0J249999D01*
G01*
G37*
G36*
G01*
X116200000Y-69525001D02*
X116200000Y-68224999D01*
G75*
G02*
X116449999Y-67975000I249999J0D01*
G01*
X117150001Y-67975000D01*
G75*
G02*
X117400000Y-68224999I0J-249999D01*
G01*
X117400000Y-69525001D01*
G75*
G02*
X117150001Y-69775000I-249999J0D01*
G01*
X116449999Y-69775000D01*
G75*
G02*
X116200000Y-69525001I0J249999D01*
G01*
G37*
%TD*%
%TO.C,J2*%
G36*
G01*
X92200000Y-65625000D02*
X92200000Y-64375000D01*
G75*
G02*
X92350000Y-64225000I150000J0D01*
G01*
X92650000Y-64225000D01*
G75*
G02*
X92800000Y-64375000I0J-150000D01*
G01*
X92800000Y-65625000D01*
G75*
G02*
X92650000Y-65775000I-150000J0D01*
G01*
X92350000Y-65775000D01*
G75*
G02*
X92200000Y-65625000I0J150000D01*
G01*
G37*
G36*
G01*
X93200000Y-65625000D02*
X93200000Y-64375000D01*
G75*
G02*
X93350000Y-64225000I150000J0D01*
G01*
X93650000Y-64225000D01*
G75*
G02*
X93800000Y-64375000I0J-150000D01*
G01*
X93800000Y-65625000D01*
G75*
G02*
X93650000Y-65775000I-150000J0D01*
G01*
X93350000Y-65775000D01*
G75*
G02*
X93200000Y-65625000I0J150000D01*
G01*
G37*
G36*
G01*
X94200000Y-65625000D02*
X94200000Y-64375000D01*
G75*
G02*
X94350000Y-64225000I150000J0D01*
G01*
X94650000Y-64225000D01*
G75*
G02*
X94800000Y-64375000I0J-150000D01*
G01*
X94800000Y-65625000D01*
G75*
G02*
X94650000Y-65775000I-150000J0D01*
G01*
X94350000Y-65775000D01*
G75*
G02*
X94200000Y-65625000I0J150000D01*
G01*
G37*
G36*
G01*
X95200000Y-65625000D02*
X95200000Y-64375000D01*
G75*
G02*
X95350000Y-64225000I150000J0D01*
G01*
X95650000Y-64225000D01*
G75*
G02*
X95800000Y-64375000I0J-150000D01*
G01*
X95800000Y-65625000D01*
G75*
G02*
X95650000Y-65775000I-150000J0D01*
G01*
X95350000Y-65775000D01*
G75*
G02*
X95200000Y-65625000I0J150000D01*
G01*
G37*
G36*
G01*
X90600000Y-69525001D02*
X90600000Y-68224999D01*
G75*
G02*
X90849999Y-67975000I249999J0D01*
G01*
X91550001Y-67975000D01*
G75*
G02*
X91800000Y-68224999I0J-249999D01*
G01*
X91800000Y-69525001D01*
G75*
G02*
X91550001Y-69775000I-249999J0D01*
G01*
X90849999Y-69775000D01*
G75*
G02*
X90600000Y-69525001I0J249999D01*
G01*
G37*
G36*
G01*
X96200000Y-69525001D02*
X96200000Y-68224999D01*
G75*
G02*
X96449999Y-67975000I249999J0D01*
G01*
X97150001Y-67975000D01*
G75*
G02*
X97400000Y-68224999I0J-249999D01*
G01*
X97400000Y-69525001D01*
G75*
G02*
X97150001Y-69775000I-249999J0D01*
G01*
X96449999Y-69775000D01*
G75*
G02*
X96200000Y-69525001I0J249999D01*
G01*
G37*
%TD*%
%TO.C,J2*%
G36*
G01*
X72200000Y-65625000D02*
X72200000Y-64375000D01*
G75*
G02*
X72350000Y-64225000I150000J0D01*
G01*
X72650000Y-64225000D01*
G75*
G02*
X72800000Y-64375000I0J-150000D01*
G01*
X72800000Y-65625000D01*
G75*
G02*
X72650000Y-65775000I-150000J0D01*
G01*
X72350000Y-65775000D01*
G75*
G02*
X72200000Y-65625000I0J150000D01*
G01*
G37*
G36*
G01*
X73200000Y-65625000D02*
X73200000Y-64375000D01*
G75*
G02*
X73350000Y-64225000I150000J0D01*
G01*
X73650000Y-64225000D01*
G75*
G02*
X73800000Y-64375000I0J-150000D01*
G01*
X73800000Y-65625000D01*
G75*
G02*
X73650000Y-65775000I-150000J0D01*
G01*
X73350000Y-65775000D01*
G75*
G02*
X73200000Y-65625000I0J150000D01*
G01*
G37*
G36*
G01*
X74200000Y-65625000D02*
X74200000Y-64375000D01*
G75*
G02*
X74350000Y-64225000I150000J0D01*
G01*
X74650000Y-64225000D01*
G75*
G02*
X74800000Y-64375000I0J-150000D01*
G01*
X74800000Y-65625000D01*
G75*
G02*
X74650000Y-65775000I-150000J0D01*
G01*
X74350000Y-65775000D01*
G75*
G02*
X74200000Y-65625000I0J150000D01*
G01*
G37*
G36*
G01*
X75200000Y-65625000D02*
X75200000Y-64375000D01*
G75*
G02*
X75350000Y-64225000I150000J0D01*
G01*
X75650000Y-64225000D01*
G75*
G02*
X75800000Y-64375000I0J-150000D01*
G01*
X75800000Y-65625000D01*
G75*
G02*
X75650000Y-65775000I-150000J0D01*
G01*
X75350000Y-65775000D01*
G75*
G02*
X75200000Y-65625000I0J150000D01*
G01*
G37*
G36*
G01*
X70600000Y-69525001D02*
X70600000Y-68224999D01*
G75*
G02*
X70849999Y-67975000I249999J0D01*
G01*
X71550001Y-67975000D01*
G75*
G02*
X71800000Y-68224999I0J-249999D01*
G01*
X71800000Y-69525001D01*
G75*
G02*
X71550001Y-69775000I-249999J0D01*
G01*
X70849999Y-69775000D01*
G75*
G02*
X70600000Y-69525001I0J249999D01*
G01*
G37*
G36*
G01*
X76200000Y-69525001D02*
X76200000Y-68224999D01*
G75*
G02*
X76449999Y-67975000I249999J0D01*
G01*
X77150001Y-67975000D01*
G75*
G02*
X77400000Y-68224999I0J-249999D01*
G01*
X77400000Y-69525001D01*
G75*
G02*
X77150001Y-69775000I-249999J0D01*
G01*
X76449999Y-69775000D01*
G75*
G02*
X76200000Y-69525001I0J249999D01*
G01*
G37*
%TD*%
%TO.C,J2*%
G36*
G01*
X52200000Y-65625000D02*
X52200000Y-64375000D01*
G75*
G02*
X52350000Y-64225000I150000J0D01*
G01*
X52650000Y-64225000D01*
G75*
G02*
X52800000Y-64375000I0J-150000D01*
G01*
X52800000Y-65625000D01*
G75*
G02*
X52650000Y-65775000I-150000J0D01*
G01*
X52350000Y-65775000D01*
G75*
G02*
X52200000Y-65625000I0J150000D01*
G01*
G37*
G36*
G01*
X53200000Y-65625000D02*
X53200000Y-64375000D01*
G75*
G02*
X53350000Y-64225000I150000J0D01*
G01*
X53650000Y-64225000D01*
G75*
G02*
X53800000Y-64375000I0J-150000D01*
G01*
X53800000Y-65625000D01*
G75*
G02*
X53650000Y-65775000I-150000J0D01*
G01*
X53350000Y-65775000D01*
G75*
G02*
X53200000Y-65625000I0J150000D01*
G01*
G37*
G36*
G01*
X54200000Y-65625000D02*
X54200000Y-64375000D01*
G75*
G02*
X54350000Y-64225000I150000J0D01*
G01*
X54650000Y-64225000D01*
G75*
G02*
X54800000Y-64375000I0J-150000D01*
G01*
X54800000Y-65625000D01*
G75*
G02*
X54650000Y-65775000I-150000J0D01*
G01*
X54350000Y-65775000D01*
G75*
G02*
X54200000Y-65625000I0J150000D01*
G01*
G37*
G36*
G01*
X55200000Y-65625000D02*
X55200000Y-64375000D01*
G75*
G02*
X55350000Y-64225000I150000J0D01*
G01*
X55650000Y-64225000D01*
G75*
G02*
X55800000Y-64375000I0J-150000D01*
G01*
X55800000Y-65625000D01*
G75*
G02*
X55650000Y-65775000I-150000J0D01*
G01*
X55350000Y-65775000D01*
G75*
G02*
X55200000Y-65625000I0J150000D01*
G01*
G37*
G36*
G01*
X50600000Y-69525001D02*
X50600000Y-68224999D01*
G75*
G02*
X50849999Y-67975000I249999J0D01*
G01*
X51550001Y-67975000D01*
G75*
G02*
X51800000Y-68224999I0J-249999D01*
G01*
X51800000Y-69525001D01*
G75*
G02*
X51550001Y-69775000I-249999J0D01*
G01*
X50849999Y-69775000D01*
G75*
G02*
X50600000Y-69525001I0J249999D01*
G01*
G37*
G36*
G01*
X56200000Y-69525001D02*
X56200000Y-68224999D01*
G75*
G02*
X56449999Y-67975000I249999J0D01*
G01*
X57150001Y-67975000D01*
G75*
G02*
X57400000Y-68224999I0J-249999D01*
G01*
X57400000Y-69525001D01*
G75*
G02*
X57150001Y-69775000I-249999J0D01*
G01*
X56449999Y-69775000D01*
G75*
G02*
X56200000Y-69525001I0J249999D01*
G01*
G37*
%TD*%
%TO.C,J2*%
G36*
G01*
X132200000Y-47125000D02*
X132200000Y-45875000D01*
G75*
G02*
X132350000Y-45725000I150000J0D01*
G01*
X132650000Y-45725000D01*
G75*
G02*
X132800000Y-45875000I0J-150000D01*
G01*
X132800000Y-47125000D01*
G75*
G02*
X132650000Y-47275000I-150000J0D01*
G01*
X132350000Y-47275000D01*
G75*
G02*
X132200000Y-47125000I0J150000D01*
G01*
G37*
G36*
G01*
X133200000Y-47125000D02*
X133200000Y-45875000D01*
G75*
G02*
X133350000Y-45725000I150000J0D01*
G01*
X133650000Y-45725000D01*
G75*
G02*
X133800000Y-45875000I0J-150000D01*
G01*
X133800000Y-47125000D01*
G75*
G02*
X133650000Y-47275000I-150000J0D01*
G01*
X133350000Y-47275000D01*
G75*
G02*
X133200000Y-47125000I0J150000D01*
G01*
G37*
G36*
G01*
X134200000Y-47125000D02*
X134200000Y-45875000D01*
G75*
G02*
X134350000Y-45725000I150000J0D01*
G01*
X134650000Y-45725000D01*
G75*
G02*
X134800000Y-45875000I0J-150000D01*
G01*
X134800000Y-47125000D01*
G75*
G02*
X134650000Y-47275000I-150000J0D01*
G01*
X134350000Y-47275000D01*
G75*
G02*
X134200000Y-47125000I0J150000D01*
G01*
G37*
G36*
G01*
X135200000Y-47125000D02*
X135200000Y-45875000D01*
G75*
G02*
X135350000Y-45725000I150000J0D01*
G01*
X135650000Y-45725000D01*
G75*
G02*
X135800000Y-45875000I0J-150000D01*
G01*
X135800000Y-47125000D01*
G75*
G02*
X135650000Y-47275000I-150000J0D01*
G01*
X135350000Y-47275000D01*
G75*
G02*
X135200000Y-47125000I0J150000D01*
G01*
G37*
G36*
G01*
X130600000Y-51025001D02*
X130600000Y-49724999D01*
G75*
G02*
X130849999Y-49475000I249999J0D01*
G01*
X131550001Y-49475000D01*
G75*
G02*
X131800000Y-49724999I0J-249999D01*
G01*
X131800000Y-51025001D01*
G75*
G02*
X131550001Y-51275000I-249999J0D01*
G01*
X130849999Y-51275000D01*
G75*
G02*
X130600000Y-51025001I0J249999D01*
G01*
G37*
G36*
G01*
X136200000Y-51025001D02*
X136200000Y-49724999D01*
G75*
G02*
X136449999Y-49475000I249999J0D01*
G01*
X137150001Y-49475000D01*
G75*
G02*
X137400000Y-49724999I0J-249999D01*
G01*
X137400000Y-51025001D01*
G75*
G02*
X137150001Y-51275000I-249999J0D01*
G01*
X136449999Y-51275000D01*
G75*
G02*
X136200000Y-51025001I0J249999D01*
G01*
G37*
%TD*%
%TO.C,J2*%
G36*
G01*
X112200000Y-47125000D02*
X112200000Y-45875000D01*
G75*
G02*
X112350000Y-45725000I150000J0D01*
G01*
X112650000Y-45725000D01*
G75*
G02*
X112800000Y-45875000I0J-150000D01*
G01*
X112800000Y-47125000D01*
G75*
G02*
X112650000Y-47275000I-150000J0D01*
G01*
X112350000Y-47275000D01*
G75*
G02*
X112200000Y-47125000I0J150000D01*
G01*
G37*
G36*
G01*
X113200000Y-47125000D02*
X113200000Y-45875000D01*
G75*
G02*
X113350000Y-45725000I150000J0D01*
G01*
X113650000Y-45725000D01*
G75*
G02*
X113800000Y-45875000I0J-150000D01*
G01*
X113800000Y-47125000D01*
G75*
G02*
X113650000Y-47275000I-150000J0D01*
G01*
X113350000Y-47275000D01*
G75*
G02*
X113200000Y-47125000I0J150000D01*
G01*
G37*
G36*
G01*
X114200000Y-47125000D02*
X114200000Y-45875000D01*
G75*
G02*
X114350000Y-45725000I150000J0D01*
G01*
X114650000Y-45725000D01*
G75*
G02*
X114800000Y-45875000I0J-150000D01*
G01*
X114800000Y-47125000D01*
G75*
G02*
X114650000Y-47275000I-150000J0D01*
G01*
X114350000Y-47275000D01*
G75*
G02*
X114200000Y-47125000I0J150000D01*
G01*
G37*
G36*
G01*
X115200000Y-47125000D02*
X115200000Y-45875000D01*
G75*
G02*
X115350000Y-45725000I150000J0D01*
G01*
X115650000Y-45725000D01*
G75*
G02*
X115800000Y-45875000I0J-150000D01*
G01*
X115800000Y-47125000D01*
G75*
G02*
X115650000Y-47275000I-150000J0D01*
G01*
X115350000Y-47275000D01*
G75*
G02*
X115200000Y-47125000I0J150000D01*
G01*
G37*
G36*
G01*
X110600000Y-51025001D02*
X110600000Y-49724999D01*
G75*
G02*
X110849999Y-49475000I249999J0D01*
G01*
X111550001Y-49475000D01*
G75*
G02*
X111800000Y-49724999I0J-249999D01*
G01*
X111800000Y-51025001D01*
G75*
G02*
X111550001Y-51275000I-249999J0D01*
G01*
X110849999Y-51275000D01*
G75*
G02*
X110600000Y-51025001I0J249999D01*
G01*
G37*
G36*
G01*
X116200000Y-51025001D02*
X116200000Y-49724999D01*
G75*
G02*
X116449999Y-49475000I249999J0D01*
G01*
X117150001Y-49475000D01*
G75*
G02*
X117400000Y-49724999I0J-249999D01*
G01*
X117400000Y-51025001D01*
G75*
G02*
X117150001Y-51275000I-249999J0D01*
G01*
X116449999Y-51275000D01*
G75*
G02*
X116200000Y-51025001I0J249999D01*
G01*
G37*
%TD*%
%TO.C,J2*%
G36*
G01*
X92200000Y-47125000D02*
X92200000Y-45875000D01*
G75*
G02*
X92350000Y-45725000I150000J0D01*
G01*
X92650000Y-45725000D01*
G75*
G02*
X92800000Y-45875000I0J-150000D01*
G01*
X92800000Y-47125000D01*
G75*
G02*
X92650000Y-47275000I-150000J0D01*
G01*
X92350000Y-47275000D01*
G75*
G02*
X92200000Y-47125000I0J150000D01*
G01*
G37*
G36*
G01*
X93200000Y-47125000D02*
X93200000Y-45875000D01*
G75*
G02*
X93350000Y-45725000I150000J0D01*
G01*
X93650000Y-45725000D01*
G75*
G02*
X93800000Y-45875000I0J-150000D01*
G01*
X93800000Y-47125000D01*
G75*
G02*
X93650000Y-47275000I-150000J0D01*
G01*
X93350000Y-47275000D01*
G75*
G02*
X93200000Y-47125000I0J150000D01*
G01*
G37*
G36*
G01*
X94200000Y-47125000D02*
X94200000Y-45875000D01*
G75*
G02*
X94350000Y-45725000I150000J0D01*
G01*
X94650000Y-45725000D01*
G75*
G02*
X94800000Y-45875000I0J-150000D01*
G01*
X94800000Y-47125000D01*
G75*
G02*
X94650000Y-47275000I-150000J0D01*
G01*
X94350000Y-47275000D01*
G75*
G02*
X94200000Y-47125000I0J150000D01*
G01*
G37*
G36*
G01*
X95200000Y-47125000D02*
X95200000Y-45875000D01*
G75*
G02*
X95350000Y-45725000I150000J0D01*
G01*
X95650000Y-45725000D01*
G75*
G02*
X95800000Y-45875000I0J-150000D01*
G01*
X95800000Y-47125000D01*
G75*
G02*
X95650000Y-47275000I-150000J0D01*
G01*
X95350000Y-47275000D01*
G75*
G02*
X95200000Y-47125000I0J150000D01*
G01*
G37*
G36*
G01*
X90600000Y-51025001D02*
X90600000Y-49724999D01*
G75*
G02*
X90849999Y-49475000I249999J0D01*
G01*
X91550001Y-49475000D01*
G75*
G02*
X91800000Y-49724999I0J-249999D01*
G01*
X91800000Y-51025001D01*
G75*
G02*
X91550001Y-51275000I-249999J0D01*
G01*
X90849999Y-51275000D01*
G75*
G02*
X90600000Y-51025001I0J249999D01*
G01*
G37*
G36*
G01*
X96200000Y-51025001D02*
X96200000Y-49724999D01*
G75*
G02*
X96449999Y-49475000I249999J0D01*
G01*
X97150001Y-49475000D01*
G75*
G02*
X97400000Y-49724999I0J-249999D01*
G01*
X97400000Y-51025001D01*
G75*
G02*
X97150001Y-51275000I-249999J0D01*
G01*
X96449999Y-51275000D01*
G75*
G02*
X96200000Y-51025001I0J249999D01*
G01*
G37*
%TD*%
%TO.C,J2*%
G36*
G01*
X72200000Y-47125000D02*
X72200000Y-45875000D01*
G75*
G02*
X72350000Y-45725000I150000J0D01*
G01*
X72650000Y-45725000D01*
G75*
G02*
X72800000Y-45875000I0J-150000D01*
G01*
X72800000Y-47125000D01*
G75*
G02*
X72650000Y-47275000I-150000J0D01*
G01*
X72350000Y-47275000D01*
G75*
G02*
X72200000Y-47125000I0J150000D01*
G01*
G37*
G36*
G01*
X73200000Y-47125000D02*
X73200000Y-45875000D01*
G75*
G02*
X73350000Y-45725000I150000J0D01*
G01*
X73650000Y-45725000D01*
G75*
G02*
X73800000Y-45875000I0J-150000D01*
G01*
X73800000Y-47125000D01*
G75*
G02*
X73650000Y-47275000I-150000J0D01*
G01*
X73350000Y-47275000D01*
G75*
G02*
X73200000Y-47125000I0J150000D01*
G01*
G37*
G36*
G01*
X74200000Y-47125000D02*
X74200000Y-45875000D01*
G75*
G02*
X74350000Y-45725000I150000J0D01*
G01*
X74650000Y-45725000D01*
G75*
G02*
X74800000Y-45875000I0J-150000D01*
G01*
X74800000Y-47125000D01*
G75*
G02*
X74650000Y-47275000I-150000J0D01*
G01*
X74350000Y-47275000D01*
G75*
G02*
X74200000Y-47125000I0J150000D01*
G01*
G37*
G36*
G01*
X75200000Y-47125000D02*
X75200000Y-45875000D01*
G75*
G02*
X75350000Y-45725000I150000J0D01*
G01*
X75650000Y-45725000D01*
G75*
G02*
X75800000Y-45875000I0J-150000D01*
G01*
X75800000Y-47125000D01*
G75*
G02*
X75650000Y-47275000I-150000J0D01*
G01*
X75350000Y-47275000D01*
G75*
G02*
X75200000Y-47125000I0J150000D01*
G01*
G37*
G36*
G01*
X70600000Y-51025001D02*
X70600000Y-49724999D01*
G75*
G02*
X70849999Y-49475000I249999J0D01*
G01*
X71550001Y-49475000D01*
G75*
G02*
X71800000Y-49724999I0J-249999D01*
G01*
X71800000Y-51025001D01*
G75*
G02*
X71550001Y-51275000I-249999J0D01*
G01*
X70849999Y-51275000D01*
G75*
G02*
X70600000Y-51025001I0J249999D01*
G01*
G37*
G36*
G01*
X76200000Y-51025001D02*
X76200000Y-49724999D01*
G75*
G02*
X76449999Y-49475000I249999J0D01*
G01*
X77150001Y-49475000D01*
G75*
G02*
X77400000Y-49724999I0J-249999D01*
G01*
X77400000Y-51025001D01*
G75*
G02*
X77150001Y-51275000I-249999J0D01*
G01*
X76449999Y-51275000D01*
G75*
G02*
X76200000Y-51025001I0J249999D01*
G01*
G37*
%TD*%
D10*
%TO.C,J1*%
X130750000Y-115245000D03*
X131550000Y-115245000D03*
X136450000Y-115245000D03*
X137250000Y-115245000D03*
X137250000Y-115245000D03*
X136450000Y-115245000D03*
X131550000Y-115245000D03*
X130750000Y-115245000D03*
D11*
X135750000Y-115245000D03*
X135250000Y-115245000D03*
X134750000Y-115245000D03*
X133750000Y-115245000D03*
X133250000Y-115245000D03*
X132750000Y-115245000D03*
X132250000Y-115245000D03*
X134250000Y-115245000D03*
D12*
X129680000Y-114330000D03*
X138320000Y-114330000D03*
D13*
X138320000Y-110150000D03*
X129680000Y-110150000D03*
%TD*%
D10*
%TO.C,J1*%
X110750000Y-115245000D03*
X111550000Y-115245000D03*
X116450000Y-115245000D03*
X117250000Y-115245000D03*
X117250000Y-115245000D03*
X116450000Y-115245000D03*
X111550000Y-115245000D03*
X110750000Y-115245000D03*
D11*
X115750000Y-115245000D03*
X115250000Y-115245000D03*
X114750000Y-115245000D03*
X113750000Y-115245000D03*
X113250000Y-115245000D03*
X112750000Y-115245000D03*
X112250000Y-115245000D03*
X114250000Y-115245000D03*
D12*
X109680000Y-114330000D03*
X118320000Y-114330000D03*
D13*
X118320000Y-110150000D03*
X109680000Y-110150000D03*
%TD*%
D10*
%TO.C,J1*%
X90750000Y-115245000D03*
X91550000Y-115245000D03*
X96450000Y-115245000D03*
X97250000Y-115245000D03*
X97250000Y-115245000D03*
X96450000Y-115245000D03*
X91550000Y-115245000D03*
X90750000Y-115245000D03*
D11*
X95750000Y-115245000D03*
X95250000Y-115245000D03*
X94750000Y-115245000D03*
X93750000Y-115245000D03*
X93250000Y-115245000D03*
X92750000Y-115245000D03*
X92250000Y-115245000D03*
X94250000Y-115245000D03*
D12*
X89680000Y-114330000D03*
X98320000Y-114330000D03*
D13*
X98320000Y-110150000D03*
X89680000Y-110150000D03*
%TD*%
D10*
%TO.C,J1*%
X70750000Y-115245000D03*
X71550000Y-115245000D03*
X76450000Y-115245000D03*
X77250000Y-115245000D03*
X77250000Y-115245000D03*
X76450000Y-115245000D03*
X71550000Y-115245000D03*
X70750000Y-115245000D03*
D11*
X75750000Y-115245000D03*
X75250000Y-115245000D03*
X74750000Y-115245000D03*
X73750000Y-115245000D03*
X73250000Y-115245000D03*
X72750000Y-115245000D03*
X72250000Y-115245000D03*
X74250000Y-115245000D03*
D12*
X69680000Y-114330000D03*
X78320000Y-114330000D03*
D13*
X78320000Y-110150000D03*
X69680000Y-110150000D03*
%TD*%
D10*
%TO.C,J1*%
X50750000Y-115245000D03*
X51550000Y-115245000D03*
X56450000Y-115245000D03*
X57250000Y-115245000D03*
X57250000Y-115245000D03*
X56450000Y-115245000D03*
X51550000Y-115245000D03*
X50750000Y-115245000D03*
D11*
X55750000Y-115245000D03*
X55250000Y-115245000D03*
X54750000Y-115245000D03*
X53750000Y-115245000D03*
X53250000Y-115245000D03*
X52750000Y-115245000D03*
X52250000Y-115245000D03*
X54250000Y-115245000D03*
D12*
X49680000Y-114330000D03*
X58320000Y-114330000D03*
D13*
X58320000Y-110150000D03*
X49680000Y-110150000D03*
%TD*%
D10*
%TO.C,J1*%
X130750000Y-96745000D03*
X131550000Y-96745000D03*
X136450000Y-96745000D03*
X137250000Y-96745000D03*
X137250000Y-96745000D03*
X136450000Y-96745000D03*
X131550000Y-96745000D03*
X130750000Y-96745000D03*
D11*
X135750000Y-96745000D03*
X135250000Y-96745000D03*
X134750000Y-96745000D03*
X133750000Y-96745000D03*
X133250000Y-96745000D03*
X132750000Y-96745000D03*
X132250000Y-96745000D03*
X134250000Y-96745000D03*
D12*
X129680000Y-95830000D03*
X138320000Y-95830000D03*
D13*
X138320000Y-91650000D03*
X129680000Y-91650000D03*
%TD*%
D10*
%TO.C,J1*%
X110750000Y-96745000D03*
X111550000Y-96745000D03*
X116450000Y-96745000D03*
X117250000Y-96745000D03*
X117250000Y-96745000D03*
X116450000Y-96745000D03*
X111550000Y-96745000D03*
X110750000Y-96745000D03*
D11*
X115750000Y-96745000D03*
X115250000Y-96745000D03*
X114750000Y-96745000D03*
X113750000Y-96745000D03*
X113250000Y-96745000D03*
X112750000Y-96745000D03*
X112250000Y-96745000D03*
X114250000Y-96745000D03*
D12*
X109680000Y-95830000D03*
X118320000Y-95830000D03*
D13*
X118320000Y-91650000D03*
X109680000Y-91650000D03*
%TD*%
D10*
%TO.C,J1*%
X90750000Y-96745000D03*
X91550000Y-96745000D03*
X96450000Y-96745000D03*
X97250000Y-96745000D03*
X97250000Y-96745000D03*
X96450000Y-96745000D03*
X91550000Y-96745000D03*
X90750000Y-96745000D03*
D11*
X95750000Y-96745000D03*
X95250000Y-96745000D03*
X94750000Y-96745000D03*
X93750000Y-96745000D03*
X93250000Y-96745000D03*
X92750000Y-96745000D03*
X92250000Y-96745000D03*
X94250000Y-96745000D03*
D12*
X89680000Y-95830000D03*
X98320000Y-95830000D03*
D13*
X98320000Y-91650000D03*
X89680000Y-91650000D03*
%TD*%
D10*
%TO.C,J1*%
X70750000Y-96745000D03*
X71550000Y-96745000D03*
X76450000Y-96745000D03*
X77250000Y-96745000D03*
X77250000Y-96745000D03*
X76450000Y-96745000D03*
X71550000Y-96745000D03*
X70750000Y-96745000D03*
D11*
X75750000Y-96745000D03*
X75250000Y-96745000D03*
X74750000Y-96745000D03*
X73750000Y-96745000D03*
X73250000Y-96745000D03*
X72750000Y-96745000D03*
X72250000Y-96745000D03*
X74250000Y-96745000D03*
D12*
X69680000Y-95830000D03*
X78320000Y-95830000D03*
D13*
X78320000Y-91650000D03*
X69680000Y-91650000D03*
%TD*%
D10*
%TO.C,J1*%
X50750000Y-96745000D03*
X51550000Y-96745000D03*
X56450000Y-96745000D03*
X57250000Y-96745000D03*
X57250000Y-96745000D03*
X56450000Y-96745000D03*
X51550000Y-96745000D03*
X50750000Y-96745000D03*
D11*
X55750000Y-96745000D03*
X55250000Y-96745000D03*
X54750000Y-96745000D03*
X53750000Y-96745000D03*
X53250000Y-96745000D03*
X52750000Y-96745000D03*
X52250000Y-96745000D03*
X54250000Y-96745000D03*
D12*
X49680000Y-95830000D03*
X58320000Y-95830000D03*
D13*
X58320000Y-91650000D03*
X49680000Y-91650000D03*
%TD*%
D10*
%TO.C,J1*%
X130750000Y-78245000D03*
X131550000Y-78245000D03*
X136450000Y-78245000D03*
X137250000Y-78245000D03*
X137250000Y-78245000D03*
X136450000Y-78245000D03*
X131550000Y-78245000D03*
X130750000Y-78245000D03*
D11*
X135750000Y-78245000D03*
X135250000Y-78245000D03*
X134750000Y-78245000D03*
X133750000Y-78245000D03*
X133250000Y-78245000D03*
X132750000Y-78245000D03*
X132250000Y-78245000D03*
X134250000Y-78245000D03*
D12*
X129680000Y-77330000D03*
X138320000Y-77330000D03*
D13*
X138320000Y-73150000D03*
X129680000Y-73150000D03*
%TD*%
D10*
%TO.C,J1*%
X110750000Y-78245000D03*
X111550000Y-78245000D03*
X116450000Y-78245000D03*
X117250000Y-78245000D03*
X117250000Y-78245000D03*
X116450000Y-78245000D03*
X111550000Y-78245000D03*
X110750000Y-78245000D03*
D11*
X115750000Y-78245000D03*
X115250000Y-78245000D03*
X114750000Y-78245000D03*
X113750000Y-78245000D03*
X113250000Y-78245000D03*
X112750000Y-78245000D03*
X112250000Y-78245000D03*
X114250000Y-78245000D03*
D12*
X109680000Y-77330000D03*
X118320000Y-77330000D03*
D13*
X118320000Y-73150000D03*
X109680000Y-73150000D03*
%TD*%
D10*
%TO.C,J1*%
X90750000Y-78245000D03*
X91550000Y-78245000D03*
X96450000Y-78245000D03*
X97250000Y-78245000D03*
X97250000Y-78245000D03*
X96450000Y-78245000D03*
X91550000Y-78245000D03*
X90750000Y-78245000D03*
D11*
X95750000Y-78245000D03*
X95250000Y-78245000D03*
X94750000Y-78245000D03*
X93750000Y-78245000D03*
X93250000Y-78245000D03*
X92750000Y-78245000D03*
X92250000Y-78245000D03*
X94250000Y-78245000D03*
D12*
X89680000Y-77330000D03*
X98320000Y-77330000D03*
D13*
X98320000Y-73150000D03*
X89680000Y-73150000D03*
%TD*%
D10*
%TO.C,J1*%
X70750000Y-78245000D03*
X71550000Y-78245000D03*
X76450000Y-78245000D03*
X77250000Y-78245000D03*
X77250000Y-78245000D03*
X76450000Y-78245000D03*
X71550000Y-78245000D03*
X70750000Y-78245000D03*
D11*
X75750000Y-78245000D03*
X75250000Y-78245000D03*
X74750000Y-78245000D03*
X73750000Y-78245000D03*
X73250000Y-78245000D03*
X72750000Y-78245000D03*
X72250000Y-78245000D03*
X74250000Y-78245000D03*
D12*
X69680000Y-77330000D03*
X78320000Y-77330000D03*
D13*
X78320000Y-73150000D03*
X69680000Y-73150000D03*
%TD*%
D10*
%TO.C,J1*%
X50750000Y-78245000D03*
X51550000Y-78245000D03*
X56450000Y-78245000D03*
X57250000Y-78245000D03*
X57250000Y-78245000D03*
X56450000Y-78245000D03*
X51550000Y-78245000D03*
X50750000Y-78245000D03*
D11*
X55750000Y-78245000D03*
X55250000Y-78245000D03*
X54750000Y-78245000D03*
X53750000Y-78245000D03*
X53250000Y-78245000D03*
X52750000Y-78245000D03*
X52250000Y-78245000D03*
X54250000Y-78245000D03*
D12*
X49680000Y-77330000D03*
X58320000Y-77330000D03*
D13*
X58320000Y-73150000D03*
X49680000Y-73150000D03*
%TD*%
D10*
%TO.C,J1*%
X130750000Y-59745000D03*
X131550000Y-59745000D03*
X136450000Y-59745000D03*
X137250000Y-59745000D03*
X137250000Y-59745000D03*
X136450000Y-59745000D03*
X131550000Y-59745000D03*
X130750000Y-59745000D03*
D11*
X135750000Y-59745000D03*
X135250000Y-59745000D03*
X134750000Y-59745000D03*
X133750000Y-59745000D03*
X133250000Y-59745000D03*
X132750000Y-59745000D03*
X132250000Y-59745000D03*
X134250000Y-59745000D03*
D12*
X129680000Y-58830000D03*
X138320000Y-58830000D03*
D13*
X138320000Y-54650000D03*
X129680000Y-54650000D03*
%TD*%
D10*
%TO.C,J1*%
X110750000Y-59745000D03*
X111550000Y-59745000D03*
X116450000Y-59745000D03*
X117250000Y-59745000D03*
X117250000Y-59745000D03*
X116450000Y-59745000D03*
X111550000Y-59745000D03*
X110750000Y-59745000D03*
D11*
X115750000Y-59745000D03*
X115250000Y-59745000D03*
X114750000Y-59745000D03*
X113750000Y-59745000D03*
X113250000Y-59745000D03*
X112750000Y-59745000D03*
X112250000Y-59745000D03*
X114250000Y-59745000D03*
D12*
X109680000Y-58830000D03*
X118320000Y-58830000D03*
D13*
X118320000Y-54650000D03*
X109680000Y-54650000D03*
%TD*%
D10*
%TO.C,J1*%
X90750000Y-59745000D03*
X91550000Y-59745000D03*
X96450000Y-59745000D03*
X97250000Y-59745000D03*
X97250000Y-59745000D03*
X96450000Y-59745000D03*
X91550000Y-59745000D03*
X90750000Y-59745000D03*
D11*
X95750000Y-59745000D03*
X95250000Y-59745000D03*
X94750000Y-59745000D03*
X93750000Y-59745000D03*
X93250000Y-59745000D03*
X92750000Y-59745000D03*
X92250000Y-59745000D03*
X94250000Y-59745000D03*
D12*
X89680000Y-58830000D03*
X98320000Y-58830000D03*
D13*
X98320000Y-54650000D03*
X89680000Y-54650000D03*
%TD*%
D10*
%TO.C,J1*%
X70750000Y-59745000D03*
X71550000Y-59745000D03*
X76450000Y-59745000D03*
X77250000Y-59745000D03*
X77250000Y-59745000D03*
X76450000Y-59745000D03*
X71550000Y-59745000D03*
X70750000Y-59745000D03*
D11*
X75750000Y-59745000D03*
X75250000Y-59745000D03*
X74750000Y-59745000D03*
X73750000Y-59745000D03*
X73250000Y-59745000D03*
X72750000Y-59745000D03*
X72250000Y-59745000D03*
X74250000Y-59745000D03*
D12*
X69680000Y-58830000D03*
X78320000Y-58830000D03*
D13*
X78320000Y-54650000D03*
X69680000Y-54650000D03*
%TD*%
D10*
%TO.C,J1*%
X50750000Y-59745000D03*
X51550000Y-59745000D03*
X56450000Y-59745000D03*
X57250000Y-59745000D03*
X57250000Y-59745000D03*
X56450000Y-59745000D03*
X51550000Y-59745000D03*
X50750000Y-59745000D03*
D11*
X55750000Y-59745000D03*
X55250000Y-59745000D03*
X54750000Y-59745000D03*
X53750000Y-59745000D03*
X53250000Y-59745000D03*
X52750000Y-59745000D03*
X52250000Y-59745000D03*
X54250000Y-59745000D03*
D12*
X49680000Y-58830000D03*
X58320000Y-58830000D03*
D13*
X58320000Y-54650000D03*
X49680000Y-54650000D03*
%TD*%
D10*
%TO.C,J1*%
X130750000Y-41245000D03*
X131550000Y-41245000D03*
X136450000Y-41245000D03*
X137250000Y-41245000D03*
X137250000Y-41245000D03*
X136450000Y-41245000D03*
X131550000Y-41245000D03*
X130750000Y-41245000D03*
D11*
X135750000Y-41245000D03*
X135250000Y-41245000D03*
X134750000Y-41245000D03*
X133750000Y-41245000D03*
X133250000Y-41245000D03*
X132750000Y-41245000D03*
X132250000Y-41245000D03*
X134250000Y-41245000D03*
D12*
X129680000Y-40330000D03*
X138320000Y-40330000D03*
D13*
X138320000Y-36150000D03*
X129680000Y-36150000D03*
%TD*%
D10*
%TO.C,J1*%
X110750000Y-41245000D03*
X111550000Y-41245000D03*
X116450000Y-41245000D03*
X117250000Y-41245000D03*
X117250000Y-41245000D03*
X116450000Y-41245000D03*
X111550000Y-41245000D03*
X110750000Y-41245000D03*
D11*
X115750000Y-41245000D03*
X115250000Y-41245000D03*
X114750000Y-41245000D03*
X113750000Y-41245000D03*
X113250000Y-41245000D03*
X112750000Y-41245000D03*
X112250000Y-41245000D03*
X114250000Y-41245000D03*
D12*
X109680000Y-40330000D03*
X118320000Y-40330000D03*
D13*
X118320000Y-36150000D03*
X109680000Y-36150000D03*
%TD*%
D10*
%TO.C,J1*%
X90750000Y-41245000D03*
X91550000Y-41245000D03*
X96450000Y-41245000D03*
X97250000Y-41245000D03*
X97250000Y-41245000D03*
X96450000Y-41245000D03*
X91550000Y-41245000D03*
X90750000Y-41245000D03*
D11*
X95750000Y-41245000D03*
X95250000Y-41245000D03*
X94750000Y-41245000D03*
X93750000Y-41245000D03*
X93250000Y-41245000D03*
X92750000Y-41245000D03*
X92250000Y-41245000D03*
X94250000Y-41245000D03*
D12*
X89680000Y-40330000D03*
X98320000Y-40330000D03*
D13*
X98320000Y-36150000D03*
X89680000Y-36150000D03*
%TD*%
D10*
%TO.C,J1*%
X70750000Y-41245000D03*
X71550000Y-41245000D03*
X76450000Y-41245000D03*
X77250000Y-41245000D03*
X77250000Y-41245000D03*
X76450000Y-41245000D03*
X71550000Y-41245000D03*
X70750000Y-41245000D03*
D11*
X75750000Y-41245000D03*
X75250000Y-41245000D03*
X74750000Y-41245000D03*
X73750000Y-41245000D03*
X73250000Y-41245000D03*
X72750000Y-41245000D03*
X72250000Y-41245000D03*
X74250000Y-41245000D03*
D12*
X69680000Y-40330000D03*
X78320000Y-40330000D03*
D13*
X78320000Y-36150000D03*
X69680000Y-36150000D03*
%TD*%
%TO.C,R2*%
G36*
G01*
X141175000Y-118175000D02*
X140625000Y-118175000D01*
G75*
G02*
X140425000Y-117975000I0J200000D01*
G01*
X140425000Y-117575000D01*
G75*
G02*
X140625000Y-117375000I200000J0D01*
G01*
X141175000Y-117375000D01*
G75*
G02*
X141375000Y-117575000I0J-200000D01*
G01*
X141375000Y-117975000D01*
G75*
G02*
X141175000Y-118175000I-200000J0D01*
G01*
G37*
G36*
G01*
X141175000Y-119825000D02*
X140625000Y-119825000D01*
G75*
G02*
X140425000Y-119625000I0J200000D01*
G01*
X140425000Y-119225000D01*
G75*
G02*
X140625000Y-119025000I200000J0D01*
G01*
X141175000Y-119025000D01*
G75*
G02*
X141375000Y-119225000I0J-200000D01*
G01*
X141375000Y-119625000D01*
G75*
G02*
X141175000Y-119825000I-200000J0D01*
G01*
G37*
%TD*%
%TO.C,R2*%
G36*
G01*
X121175000Y-118175000D02*
X120625000Y-118175000D01*
G75*
G02*
X120425000Y-117975000I0J200000D01*
G01*
X120425000Y-117575000D01*
G75*
G02*
X120625000Y-117375000I200000J0D01*
G01*
X121175000Y-117375000D01*
G75*
G02*
X121375000Y-117575000I0J-200000D01*
G01*
X121375000Y-117975000D01*
G75*
G02*
X121175000Y-118175000I-200000J0D01*
G01*
G37*
G36*
G01*
X121175000Y-119825000D02*
X120625000Y-119825000D01*
G75*
G02*
X120425000Y-119625000I0J200000D01*
G01*
X120425000Y-119225000D01*
G75*
G02*
X120625000Y-119025000I200000J0D01*
G01*
X121175000Y-119025000D01*
G75*
G02*
X121375000Y-119225000I0J-200000D01*
G01*
X121375000Y-119625000D01*
G75*
G02*
X121175000Y-119825000I-200000J0D01*
G01*
G37*
%TD*%
%TO.C,R2*%
G36*
G01*
X101175000Y-118175000D02*
X100625000Y-118175000D01*
G75*
G02*
X100425000Y-117975000I0J200000D01*
G01*
X100425000Y-117575000D01*
G75*
G02*
X100625000Y-117375000I200000J0D01*
G01*
X101175000Y-117375000D01*
G75*
G02*
X101375000Y-117575000I0J-200000D01*
G01*
X101375000Y-117975000D01*
G75*
G02*
X101175000Y-118175000I-200000J0D01*
G01*
G37*
G36*
G01*
X101175000Y-119825000D02*
X100625000Y-119825000D01*
G75*
G02*
X100425000Y-119625000I0J200000D01*
G01*
X100425000Y-119225000D01*
G75*
G02*
X100625000Y-119025000I200000J0D01*
G01*
X101175000Y-119025000D01*
G75*
G02*
X101375000Y-119225000I0J-200000D01*
G01*
X101375000Y-119625000D01*
G75*
G02*
X101175000Y-119825000I-200000J0D01*
G01*
G37*
%TD*%
%TO.C,R2*%
G36*
G01*
X81175000Y-118175000D02*
X80625000Y-118175000D01*
G75*
G02*
X80425000Y-117975000I0J200000D01*
G01*
X80425000Y-117575000D01*
G75*
G02*
X80625000Y-117375000I200000J0D01*
G01*
X81175000Y-117375000D01*
G75*
G02*
X81375000Y-117575000I0J-200000D01*
G01*
X81375000Y-117975000D01*
G75*
G02*
X81175000Y-118175000I-200000J0D01*
G01*
G37*
G36*
G01*
X81175000Y-119825000D02*
X80625000Y-119825000D01*
G75*
G02*
X80425000Y-119625000I0J200000D01*
G01*
X80425000Y-119225000D01*
G75*
G02*
X80625000Y-119025000I200000J0D01*
G01*
X81175000Y-119025000D01*
G75*
G02*
X81375000Y-119225000I0J-200000D01*
G01*
X81375000Y-119625000D01*
G75*
G02*
X81175000Y-119825000I-200000J0D01*
G01*
G37*
%TD*%
%TO.C,R2*%
G36*
G01*
X61175000Y-118175000D02*
X60625000Y-118175000D01*
G75*
G02*
X60425000Y-117975000I0J200000D01*
G01*
X60425000Y-117575000D01*
G75*
G02*
X60625000Y-117375000I200000J0D01*
G01*
X61175000Y-117375000D01*
G75*
G02*
X61375000Y-117575000I0J-200000D01*
G01*
X61375000Y-117975000D01*
G75*
G02*
X61175000Y-118175000I-200000J0D01*
G01*
G37*
G36*
G01*
X61175000Y-119825000D02*
X60625000Y-119825000D01*
G75*
G02*
X60425000Y-119625000I0J200000D01*
G01*
X60425000Y-119225000D01*
G75*
G02*
X60625000Y-119025000I200000J0D01*
G01*
X61175000Y-119025000D01*
G75*
G02*
X61375000Y-119225000I0J-200000D01*
G01*
X61375000Y-119625000D01*
G75*
G02*
X61175000Y-119825000I-200000J0D01*
G01*
G37*
%TD*%
%TO.C,R2*%
G36*
G01*
X141175000Y-99675000D02*
X140625000Y-99675000D01*
G75*
G02*
X140425000Y-99475000I0J200000D01*
G01*
X140425000Y-99075000D01*
G75*
G02*
X140625000Y-98875000I200000J0D01*
G01*
X141175000Y-98875000D01*
G75*
G02*
X141375000Y-99075000I0J-200000D01*
G01*
X141375000Y-99475000D01*
G75*
G02*
X141175000Y-99675000I-200000J0D01*
G01*
G37*
G36*
G01*
X141175000Y-101325000D02*
X140625000Y-101325000D01*
G75*
G02*
X140425000Y-101125000I0J200000D01*
G01*
X140425000Y-100725000D01*
G75*
G02*
X140625000Y-100525000I200000J0D01*
G01*
X141175000Y-100525000D01*
G75*
G02*
X141375000Y-100725000I0J-200000D01*
G01*
X141375000Y-101125000D01*
G75*
G02*
X141175000Y-101325000I-200000J0D01*
G01*
G37*
%TD*%
%TO.C,R2*%
G36*
G01*
X121175000Y-99675000D02*
X120625000Y-99675000D01*
G75*
G02*
X120425000Y-99475000I0J200000D01*
G01*
X120425000Y-99075000D01*
G75*
G02*
X120625000Y-98875000I200000J0D01*
G01*
X121175000Y-98875000D01*
G75*
G02*
X121375000Y-99075000I0J-200000D01*
G01*
X121375000Y-99475000D01*
G75*
G02*
X121175000Y-99675000I-200000J0D01*
G01*
G37*
G36*
G01*
X121175000Y-101325000D02*
X120625000Y-101325000D01*
G75*
G02*
X120425000Y-101125000I0J200000D01*
G01*
X120425000Y-100725000D01*
G75*
G02*
X120625000Y-100525000I200000J0D01*
G01*
X121175000Y-100525000D01*
G75*
G02*
X121375000Y-100725000I0J-200000D01*
G01*
X121375000Y-101125000D01*
G75*
G02*
X121175000Y-101325000I-200000J0D01*
G01*
G37*
%TD*%
%TO.C,R2*%
G36*
G01*
X101175000Y-99675000D02*
X100625000Y-99675000D01*
G75*
G02*
X100425000Y-99475000I0J200000D01*
G01*
X100425000Y-99075000D01*
G75*
G02*
X100625000Y-98875000I200000J0D01*
G01*
X101175000Y-98875000D01*
G75*
G02*
X101375000Y-99075000I0J-200000D01*
G01*
X101375000Y-99475000D01*
G75*
G02*
X101175000Y-99675000I-200000J0D01*
G01*
G37*
G36*
G01*
X101175000Y-101325000D02*
X100625000Y-101325000D01*
G75*
G02*
X100425000Y-101125000I0J200000D01*
G01*
X100425000Y-100725000D01*
G75*
G02*
X100625000Y-100525000I200000J0D01*
G01*
X101175000Y-100525000D01*
G75*
G02*
X101375000Y-100725000I0J-200000D01*
G01*
X101375000Y-101125000D01*
G75*
G02*
X101175000Y-101325000I-200000J0D01*
G01*
G37*
%TD*%
%TO.C,R2*%
G36*
G01*
X81175000Y-99675000D02*
X80625000Y-99675000D01*
G75*
G02*
X80425000Y-99475000I0J200000D01*
G01*
X80425000Y-99075000D01*
G75*
G02*
X80625000Y-98875000I200000J0D01*
G01*
X81175000Y-98875000D01*
G75*
G02*
X81375000Y-99075000I0J-200000D01*
G01*
X81375000Y-99475000D01*
G75*
G02*
X81175000Y-99675000I-200000J0D01*
G01*
G37*
G36*
G01*
X81175000Y-101325000D02*
X80625000Y-101325000D01*
G75*
G02*
X80425000Y-101125000I0J200000D01*
G01*
X80425000Y-100725000D01*
G75*
G02*
X80625000Y-100525000I200000J0D01*
G01*
X81175000Y-100525000D01*
G75*
G02*
X81375000Y-100725000I0J-200000D01*
G01*
X81375000Y-101125000D01*
G75*
G02*
X81175000Y-101325000I-200000J0D01*
G01*
G37*
%TD*%
%TO.C,R2*%
G36*
G01*
X61175000Y-99675000D02*
X60625000Y-99675000D01*
G75*
G02*
X60425000Y-99475000I0J200000D01*
G01*
X60425000Y-99075000D01*
G75*
G02*
X60625000Y-98875000I200000J0D01*
G01*
X61175000Y-98875000D01*
G75*
G02*
X61375000Y-99075000I0J-200000D01*
G01*
X61375000Y-99475000D01*
G75*
G02*
X61175000Y-99675000I-200000J0D01*
G01*
G37*
G36*
G01*
X61175000Y-101325000D02*
X60625000Y-101325000D01*
G75*
G02*
X60425000Y-101125000I0J200000D01*
G01*
X60425000Y-100725000D01*
G75*
G02*
X60625000Y-100525000I200000J0D01*
G01*
X61175000Y-100525000D01*
G75*
G02*
X61375000Y-100725000I0J-200000D01*
G01*
X61375000Y-101125000D01*
G75*
G02*
X61175000Y-101325000I-200000J0D01*
G01*
G37*
%TD*%
%TO.C,R2*%
G36*
G01*
X141175000Y-81175000D02*
X140625000Y-81175000D01*
G75*
G02*
X140425000Y-80975000I0J200000D01*
G01*
X140425000Y-80575000D01*
G75*
G02*
X140625000Y-80375000I200000J0D01*
G01*
X141175000Y-80375000D01*
G75*
G02*
X141375000Y-80575000I0J-200000D01*
G01*
X141375000Y-80975000D01*
G75*
G02*
X141175000Y-81175000I-200000J0D01*
G01*
G37*
G36*
G01*
X141175000Y-82825000D02*
X140625000Y-82825000D01*
G75*
G02*
X140425000Y-82625000I0J200000D01*
G01*
X140425000Y-82225000D01*
G75*
G02*
X140625000Y-82025000I200000J0D01*
G01*
X141175000Y-82025000D01*
G75*
G02*
X141375000Y-82225000I0J-200000D01*
G01*
X141375000Y-82625000D01*
G75*
G02*
X141175000Y-82825000I-200000J0D01*
G01*
G37*
%TD*%
%TO.C,R2*%
G36*
G01*
X121175000Y-81175000D02*
X120625000Y-81175000D01*
G75*
G02*
X120425000Y-80975000I0J200000D01*
G01*
X120425000Y-80575000D01*
G75*
G02*
X120625000Y-80375000I200000J0D01*
G01*
X121175000Y-80375000D01*
G75*
G02*
X121375000Y-80575000I0J-200000D01*
G01*
X121375000Y-80975000D01*
G75*
G02*
X121175000Y-81175000I-200000J0D01*
G01*
G37*
G36*
G01*
X121175000Y-82825000D02*
X120625000Y-82825000D01*
G75*
G02*
X120425000Y-82625000I0J200000D01*
G01*
X120425000Y-82225000D01*
G75*
G02*
X120625000Y-82025000I200000J0D01*
G01*
X121175000Y-82025000D01*
G75*
G02*
X121375000Y-82225000I0J-200000D01*
G01*
X121375000Y-82625000D01*
G75*
G02*
X121175000Y-82825000I-200000J0D01*
G01*
G37*
%TD*%
%TO.C,R2*%
G36*
G01*
X101175000Y-81175000D02*
X100625000Y-81175000D01*
G75*
G02*
X100425000Y-80975000I0J200000D01*
G01*
X100425000Y-80575000D01*
G75*
G02*
X100625000Y-80375000I200000J0D01*
G01*
X101175000Y-80375000D01*
G75*
G02*
X101375000Y-80575000I0J-200000D01*
G01*
X101375000Y-80975000D01*
G75*
G02*
X101175000Y-81175000I-200000J0D01*
G01*
G37*
G36*
G01*
X101175000Y-82825000D02*
X100625000Y-82825000D01*
G75*
G02*
X100425000Y-82625000I0J200000D01*
G01*
X100425000Y-82225000D01*
G75*
G02*
X100625000Y-82025000I200000J0D01*
G01*
X101175000Y-82025000D01*
G75*
G02*
X101375000Y-82225000I0J-200000D01*
G01*
X101375000Y-82625000D01*
G75*
G02*
X101175000Y-82825000I-200000J0D01*
G01*
G37*
%TD*%
%TO.C,R2*%
G36*
G01*
X81175000Y-81175000D02*
X80625000Y-81175000D01*
G75*
G02*
X80425000Y-80975000I0J200000D01*
G01*
X80425000Y-80575000D01*
G75*
G02*
X80625000Y-80375000I200000J0D01*
G01*
X81175000Y-80375000D01*
G75*
G02*
X81375000Y-80575000I0J-200000D01*
G01*
X81375000Y-80975000D01*
G75*
G02*
X81175000Y-81175000I-200000J0D01*
G01*
G37*
G36*
G01*
X81175000Y-82825000D02*
X80625000Y-82825000D01*
G75*
G02*
X80425000Y-82625000I0J200000D01*
G01*
X80425000Y-82225000D01*
G75*
G02*
X80625000Y-82025000I200000J0D01*
G01*
X81175000Y-82025000D01*
G75*
G02*
X81375000Y-82225000I0J-200000D01*
G01*
X81375000Y-82625000D01*
G75*
G02*
X81175000Y-82825000I-200000J0D01*
G01*
G37*
%TD*%
%TO.C,R2*%
G36*
G01*
X61175000Y-81175000D02*
X60625000Y-81175000D01*
G75*
G02*
X60425000Y-80975000I0J200000D01*
G01*
X60425000Y-80575000D01*
G75*
G02*
X60625000Y-80375000I200000J0D01*
G01*
X61175000Y-80375000D01*
G75*
G02*
X61375000Y-80575000I0J-200000D01*
G01*
X61375000Y-80975000D01*
G75*
G02*
X61175000Y-81175000I-200000J0D01*
G01*
G37*
G36*
G01*
X61175000Y-82825000D02*
X60625000Y-82825000D01*
G75*
G02*
X60425000Y-82625000I0J200000D01*
G01*
X60425000Y-82225000D01*
G75*
G02*
X60625000Y-82025000I200000J0D01*
G01*
X61175000Y-82025000D01*
G75*
G02*
X61375000Y-82225000I0J-200000D01*
G01*
X61375000Y-82625000D01*
G75*
G02*
X61175000Y-82825000I-200000J0D01*
G01*
G37*
%TD*%
%TO.C,R2*%
G36*
G01*
X141175000Y-62675000D02*
X140625000Y-62675000D01*
G75*
G02*
X140425000Y-62475000I0J200000D01*
G01*
X140425000Y-62075000D01*
G75*
G02*
X140625000Y-61875000I200000J0D01*
G01*
X141175000Y-61875000D01*
G75*
G02*
X141375000Y-62075000I0J-200000D01*
G01*
X141375000Y-62475000D01*
G75*
G02*
X141175000Y-62675000I-200000J0D01*
G01*
G37*
G36*
G01*
X141175000Y-64325000D02*
X140625000Y-64325000D01*
G75*
G02*
X140425000Y-64125000I0J200000D01*
G01*
X140425000Y-63725000D01*
G75*
G02*
X140625000Y-63525000I200000J0D01*
G01*
X141175000Y-63525000D01*
G75*
G02*
X141375000Y-63725000I0J-200000D01*
G01*
X141375000Y-64125000D01*
G75*
G02*
X141175000Y-64325000I-200000J0D01*
G01*
G37*
%TD*%
%TO.C,R2*%
G36*
G01*
X121175000Y-62675000D02*
X120625000Y-62675000D01*
G75*
G02*
X120425000Y-62475000I0J200000D01*
G01*
X120425000Y-62075000D01*
G75*
G02*
X120625000Y-61875000I200000J0D01*
G01*
X121175000Y-61875000D01*
G75*
G02*
X121375000Y-62075000I0J-200000D01*
G01*
X121375000Y-62475000D01*
G75*
G02*
X121175000Y-62675000I-200000J0D01*
G01*
G37*
G36*
G01*
X121175000Y-64325000D02*
X120625000Y-64325000D01*
G75*
G02*
X120425000Y-64125000I0J200000D01*
G01*
X120425000Y-63725000D01*
G75*
G02*
X120625000Y-63525000I200000J0D01*
G01*
X121175000Y-63525000D01*
G75*
G02*
X121375000Y-63725000I0J-200000D01*
G01*
X121375000Y-64125000D01*
G75*
G02*
X121175000Y-64325000I-200000J0D01*
G01*
G37*
%TD*%
%TO.C,R2*%
G36*
G01*
X101175000Y-62675000D02*
X100625000Y-62675000D01*
G75*
G02*
X100425000Y-62475000I0J200000D01*
G01*
X100425000Y-62075000D01*
G75*
G02*
X100625000Y-61875000I200000J0D01*
G01*
X101175000Y-61875000D01*
G75*
G02*
X101375000Y-62075000I0J-200000D01*
G01*
X101375000Y-62475000D01*
G75*
G02*
X101175000Y-62675000I-200000J0D01*
G01*
G37*
G36*
G01*
X101175000Y-64325000D02*
X100625000Y-64325000D01*
G75*
G02*
X100425000Y-64125000I0J200000D01*
G01*
X100425000Y-63725000D01*
G75*
G02*
X100625000Y-63525000I200000J0D01*
G01*
X101175000Y-63525000D01*
G75*
G02*
X101375000Y-63725000I0J-200000D01*
G01*
X101375000Y-64125000D01*
G75*
G02*
X101175000Y-64325000I-200000J0D01*
G01*
G37*
%TD*%
%TO.C,R2*%
G36*
G01*
X81175000Y-62675000D02*
X80625000Y-62675000D01*
G75*
G02*
X80425000Y-62475000I0J200000D01*
G01*
X80425000Y-62075000D01*
G75*
G02*
X80625000Y-61875000I200000J0D01*
G01*
X81175000Y-61875000D01*
G75*
G02*
X81375000Y-62075000I0J-200000D01*
G01*
X81375000Y-62475000D01*
G75*
G02*
X81175000Y-62675000I-200000J0D01*
G01*
G37*
G36*
G01*
X81175000Y-64325000D02*
X80625000Y-64325000D01*
G75*
G02*
X80425000Y-64125000I0J200000D01*
G01*
X80425000Y-63725000D01*
G75*
G02*
X80625000Y-63525000I200000J0D01*
G01*
X81175000Y-63525000D01*
G75*
G02*
X81375000Y-63725000I0J-200000D01*
G01*
X81375000Y-64125000D01*
G75*
G02*
X81175000Y-64325000I-200000J0D01*
G01*
G37*
%TD*%
%TO.C,R2*%
G36*
G01*
X61175000Y-62675000D02*
X60625000Y-62675000D01*
G75*
G02*
X60425000Y-62475000I0J200000D01*
G01*
X60425000Y-62075000D01*
G75*
G02*
X60625000Y-61875000I200000J0D01*
G01*
X61175000Y-61875000D01*
G75*
G02*
X61375000Y-62075000I0J-200000D01*
G01*
X61375000Y-62475000D01*
G75*
G02*
X61175000Y-62675000I-200000J0D01*
G01*
G37*
G36*
G01*
X61175000Y-64325000D02*
X60625000Y-64325000D01*
G75*
G02*
X60425000Y-64125000I0J200000D01*
G01*
X60425000Y-63725000D01*
G75*
G02*
X60625000Y-63525000I200000J0D01*
G01*
X61175000Y-63525000D01*
G75*
G02*
X61375000Y-63725000I0J-200000D01*
G01*
X61375000Y-64125000D01*
G75*
G02*
X61175000Y-64325000I-200000J0D01*
G01*
G37*
%TD*%
%TO.C,R2*%
G36*
G01*
X141175000Y-44175000D02*
X140625000Y-44175000D01*
G75*
G02*
X140425000Y-43975000I0J200000D01*
G01*
X140425000Y-43575000D01*
G75*
G02*
X140625000Y-43375000I200000J0D01*
G01*
X141175000Y-43375000D01*
G75*
G02*
X141375000Y-43575000I0J-200000D01*
G01*
X141375000Y-43975000D01*
G75*
G02*
X141175000Y-44175000I-200000J0D01*
G01*
G37*
G36*
G01*
X141175000Y-45825000D02*
X140625000Y-45825000D01*
G75*
G02*
X140425000Y-45625000I0J200000D01*
G01*
X140425000Y-45225000D01*
G75*
G02*
X140625000Y-45025000I200000J0D01*
G01*
X141175000Y-45025000D01*
G75*
G02*
X141375000Y-45225000I0J-200000D01*
G01*
X141375000Y-45625000D01*
G75*
G02*
X141175000Y-45825000I-200000J0D01*
G01*
G37*
%TD*%
%TO.C,R2*%
G36*
G01*
X121175000Y-44175000D02*
X120625000Y-44175000D01*
G75*
G02*
X120425000Y-43975000I0J200000D01*
G01*
X120425000Y-43575000D01*
G75*
G02*
X120625000Y-43375000I200000J0D01*
G01*
X121175000Y-43375000D01*
G75*
G02*
X121375000Y-43575000I0J-200000D01*
G01*
X121375000Y-43975000D01*
G75*
G02*
X121175000Y-44175000I-200000J0D01*
G01*
G37*
G36*
G01*
X121175000Y-45825000D02*
X120625000Y-45825000D01*
G75*
G02*
X120425000Y-45625000I0J200000D01*
G01*
X120425000Y-45225000D01*
G75*
G02*
X120625000Y-45025000I200000J0D01*
G01*
X121175000Y-45025000D01*
G75*
G02*
X121375000Y-45225000I0J-200000D01*
G01*
X121375000Y-45625000D01*
G75*
G02*
X121175000Y-45825000I-200000J0D01*
G01*
G37*
%TD*%
%TO.C,R2*%
G36*
G01*
X101175000Y-44175000D02*
X100625000Y-44175000D01*
G75*
G02*
X100425000Y-43975000I0J200000D01*
G01*
X100425000Y-43575000D01*
G75*
G02*
X100625000Y-43375000I200000J0D01*
G01*
X101175000Y-43375000D01*
G75*
G02*
X101375000Y-43575000I0J-200000D01*
G01*
X101375000Y-43975000D01*
G75*
G02*
X101175000Y-44175000I-200000J0D01*
G01*
G37*
G36*
G01*
X101175000Y-45825000D02*
X100625000Y-45825000D01*
G75*
G02*
X100425000Y-45625000I0J200000D01*
G01*
X100425000Y-45225000D01*
G75*
G02*
X100625000Y-45025000I200000J0D01*
G01*
X101175000Y-45025000D01*
G75*
G02*
X101375000Y-45225000I0J-200000D01*
G01*
X101375000Y-45625000D01*
G75*
G02*
X101175000Y-45825000I-200000J0D01*
G01*
G37*
%TD*%
%TO.C,R2*%
G36*
G01*
X81175000Y-44175000D02*
X80625000Y-44175000D01*
G75*
G02*
X80425000Y-43975000I0J200000D01*
G01*
X80425000Y-43575000D01*
G75*
G02*
X80625000Y-43375000I200000J0D01*
G01*
X81175000Y-43375000D01*
G75*
G02*
X81375000Y-43575000I0J-200000D01*
G01*
X81375000Y-43975000D01*
G75*
G02*
X81175000Y-44175000I-200000J0D01*
G01*
G37*
G36*
G01*
X81175000Y-45825000D02*
X80625000Y-45825000D01*
G75*
G02*
X80425000Y-45625000I0J200000D01*
G01*
X80425000Y-45225000D01*
G75*
G02*
X80625000Y-45025000I200000J0D01*
G01*
X81175000Y-45025000D01*
G75*
G02*
X81375000Y-45225000I0J-200000D01*
G01*
X81375000Y-45625000D01*
G75*
G02*
X81175000Y-45825000I-200000J0D01*
G01*
G37*
%TD*%
D14*
%TO.C,U1*%
X128137500Y-117750000D03*
X127062500Y-117750000D03*
D15*
X127600000Y-119525000D03*
X127600000Y-117675000D03*
D14*
X127062500Y-119450000D03*
X128137500Y-119450000D03*
%TD*%
%TO.C,U1*%
X108137500Y-117750000D03*
X107062500Y-117750000D03*
D15*
X107600000Y-119525000D03*
X107600000Y-117675000D03*
D14*
X107062500Y-119450000D03*
X108137500Y-119450000D03*
%TD*%
%TO.C,U1*%
X88137500Y-117750000D03*
X87062500Y-117750000D03*
D15*
X87600000Y-119525000D03*
X87600000Y-117675000D03*
D14*
X87062500Y-119450000D03*
X88137500Y-119450000D03*
%TD*%
%TO.C,U1*%
X68137500Y-117750000D03*
X67062500Y-117750000D03*
D15*
X67600000Y-119525000D03*
X67600000Y-117675000D03*
D14*
X67062500Y-119450000D03*
X68137500Y-119450000D03*
%TD*%
%TO.C,U1*%
X48137500Y-117750000D03*
X47062500Y-117750000D03*
D15*
X47600000Y-119525000D03*
X47600000Y-117675000D03*
D14*
X47062500Y-119450000D03*
X48137500Y-119450000D03*
%TD*%
%TO.C,U1*%
X128137500Y-99250000D03*
X127062500Y-99250000D03*
D15*
X127600000Y-101025000D03*
X127600000Y-99175000D03*
D14*
X127062500Y-100950000D03*
X128137500Y-100950000D03*
%TD*%
%TO.C,U1*%
X108137500Y-99250000D03*
X107062500Y-99250000D03*
D15*
X107600000Y-101025000D03*
X107600000Y-99175000D03*
D14*
X107062500Y-100950000D03*
X108137500Y-100950000D03*
%TD*%
%TO.C,U1*%
X88137500Y-99250000D03*
X87062500Y-99250000D03*
D15*
X87600000Y-101025000D03*
X87600000Y-99175000D03*
D14*
X87062500Y-100950000D03*
X88137500Y-100950000D03*
%TD*%
%TO.C,U1*%
X68137500Y-99250000D03*
X67062500Y-99250000D03*
D15*
X67600000Y-101025000D03*
X67600000Y-99175000D03*
D14*
X67062500Y-100950000D03*
X68137500Y-100950000D03*
%TD*%
%TO.C,U1*%
X48137500Y-99250000D03*
X47062500Y-99250000D03*
D15*
X47600000Y-101025000D03*
X47600000Y-99175000D03*
D14*
X47062500Y-100950000D03*
X48137500Y-100950000D03*
%TD*%
%TO.C,U1*%
X128137500Y-80750000D03*
X127062500Y-80750000D03*
D15*
X127600000Y-82525000D03*
X127600000Y-80675000D03*
D14*
X127062500Y-82450000D03*
X128137500Y-82450000D03*
%TD*%
%TO.C,U1*%
X108137500Y-80750000D03*
X107062500Y-80750000D03*
D15*
X107600000Y-82525000D03*
X107600000Y-80675000D03*
D14*
X107062500Y-82450000D03*
X108137500Y-82450000D03*
%TD*%
%TO.C,U1*%
X88137500Y-80750000D03*
X87062500Y-80750000D03*
D15*
X87600000Y-82525000D03*
X87600000Y-80675000D03*
D14*
X87062500Y-82450000D03*
X88137500Y-82450000D03*
%TD*%
%TO.C,U1*%
X68137500Y-80750000D03*
X67062500Y-80750000D03*
D15*
X67600000Y-82525000D03*
X67600000Y-80675000D03*
D14*
X67062500Y-82450000D03*
X68137500Y-82450000D03*
%TD*%
%TO.C,U1*%
X48137500Y-80750000D03*
X47062500Y-80750000D03*
D15*
X47600000Y-82525000D03*
X47600000Y-80675000D03*
D14*
X47062500Y-82450000D03*
X48137500Y-82450000D03*
%TD*%
%TO.C,U1*%
X128137500Y-62250000D03*
X127062500Y-62250000D03*
D15*
X127600000Y-64025000D03*
X127600000Y-62175000D03*
D14*
X127062500Y-63950000D03*
X128137500Y-63950000D03*
%TD*%
%TO.C,U1*%
X108137500Y-62250000D03*
X107062500Y-62250000D03*
D15*
X107600000Y-64025000D03*
X107600000Y-62175000D03*
D14*
X107062500Y-63950000D03*
X108137500Y-63950000D03*
%TD*%
%TO.C,U1*%
X88137500Y-62250000D03*
X87062500Y-62250000D03*
D15*
X87600000Y-64025000D03*
X87600000Y-62175000D03*
D14*
X87062500Y-63950000D03*
X88137500Y-63950000D03*
%TD*%
%TO.C,U1*%
X68137500Y-62250000D03*
X67062500Y-62250000D03*
D15*
X67600000Y-64025000D03*
X67600000Y-62175000D03*
D14*
X67062500Y-63950000D03*
X68137500Y-63950000D03*
%TD*%
%TO.C,U1*%
X48137500Y-62250000D03*
X47062500Y-62250000D03*
D15*
X47600000Y-64025000D03*
X47600000Y-62175000D03*
D14*
X47062500Y-63950000D03*
X48137500Y-63950000D03*
%TD*%
%TO.C,U1*%
X128137500Y-43750000D03*
X127062500Y-43750000D03*
D15*
X127600000Y-45525000D03*
X127600000Y-43675000D03*
D14*
X127062500Y-45450000D03*
X128137500Y-45450000D03*
%TD*%
%TO.C,U1*%
X108137500Y-43750000D03*
X107062500Y-43750000D03*
D15*
X107600000Y-45525000D03*
X107600000Y-43675000D03*
D14*
X107062500Y-45450000D03*
X108137500Y-45450000D03*
%TD*%
%TO.C,U1*%
X88137500Y-43750000D03*
X87062500Y-43750000D03*
D15*
X87600000Y-45525000D03*
X87600000Y-43675000D03*
D14*
X87062500Y-45450000D03*
X88137500Y-45450000D03*
%TD*%
%TO.C,U1*%
X68137500Y-43750000D03*
X67062500Y-43750000D03*
D15*
X67600000Y-45525000D03*
X67600000Y-43675000D03*
D14*
X67062500Y-45450000D03*
X68137500Y-45450000D03*
%TD*%
%TO.C,R1*%
G36*
G01*
X59225000Y-45025000D02*
X59775000Y-45025000D01*
G75*
G02*
X59975000Y-45225000I0J-200000D01*
G01*
X59975000Y-45625000D01*
G75*
G02*
X59775000Y-45825000I-200000J0D01*
G01*
X59225000Y-45825000D01*
G75*
G02*
X59025000Y-45625000I0J200000D01*
G01*
X59025000Y-45225000D01*
G75*
G02*
X59225000Y-45025000I200000J0D01*
G01*
G37*
G36*
G01*
X59225000Y-43375000D02*
X59775000Y-43375000D01*
G75*
G02*
X59975000Y-43575000I0J-200000D01*
G01*
X59975000Y-43975000D01*
G75*
G02*
X59775000Y-44175000I-200000J0D01*
G01*
X59225000Y-44175000D01*
G75*
G02*
X59025000Y-43975000I0J200000D01*
G01*
X59025000Y-43575000D01*
G75*
G02*
X59225000Y-43375000I200000J0D01*
G01*
G37*
%TD*%
%TO.C,R2*%
G36*
G01*
X61175000Y-45825000D02*
X60625000Y-45825000D01*
G75*
G02*
X60425000Y-45625000I0J200000D01*
G01*
X60425000Y-45225000D01*
G75*
G02*
X60625000Y-45025000I200000J0D01*
G01*
X61175000Y-45025000D01*
G75*
G02*
X61375000Y-45225000I0J-200000D01*
G01*
X61375000Y-45625000D01*
G75*
G02*
X61175000Y-45825000I-200000J0D01*
G01*
G37*
G36*
G01*
X61175000Y-44175000D02*
X60625000Y-44175000D01*
G75*
G02*
X60425000Y-43975000I0J200000D01*
G01*
X60425000Y-43575000D01*
G75*
G02*
X60625000Y-43375000I200000J0D01*
G01*
X61175000Y-43375000D01*
G75*
G02*
X61375000Y-43575000I0J-200000D01*
G01*
X61375000Y-43975000D01*
G75*
G02*
X61175000Y-44175000I-200000J0D01*
G01*
G37*
%TD*%
%TO.C,U1*%
X48137500Y-45450000D03*
X47062500Y-45450000D03*
D15*
X47600000Y-43675000D03*
X47600000Y-45525000D03*
D14*
X47062500Y-43750000D03*
X48137500Y-43750000D03*
%TD*%
%TO.C,J2*%
G36*
G01*
X56200000Y-51025001D02*
X56200000Y-49724999D01*
G75*
G02*
X56449999Y-49475000I249999J0D01*
G01*
X57150001Y-49475000D01*
G75*
G02*
X57400000Y-49724999I0J-249999D01*
G01*
X57400000Y-51025001D01*
G75*
G02*
X57150001Y-51275000I-249999J0D01*
G01*
X56449999Y-51275000D01*
G75*
G02*
X56200000Y-51025001I0J249999D01*
G01*
G37*
G36*
G01*
X50600000Y-51025001D02*
X50600000Y-49724999D01*
G75*
G02*
X50849999Y-49475000I249999J0D01*
G01*
X51550001Y-49475000D01*
G75*
G02*
X51800000Y-49724999I0J-249999D01*
G01*
X51800000Y-51025001D01*
G75*
G02*
X51550001Y-51275000I-249999J0D01*
G01*
X50849999Y-51275000D01*
G75*
G02*
X50600000Y-51025001I0J249999D01*
G01*
G37*
G36*
G01*
X55200000Y-47125000D02*
X55200000Y-45875000D01*
G75*
G02*
X55350000Y-45725000I150000J0D01*
G01*
X55650000Y-45725000D01*
G75*
G02*
X55800000Y-45875000I0J-150000D01*
G01*
X55800000Y-47125000D01*
G75*
G02*
X55650000Y-47275000I-150000J0D01*
G01*
X55350000Y-47275000D01*
G75*
G02*
X55200000Y-47125000I0J150000D01*
G01*
G37*
G36*
G01*
X54200000Y-47125000D02*
X54200000Y-45875000D01*
G75*
G02*
X54350000Y-45725000I150000J0D01*
G01*
X54650000Y-45725000D01*
G75*
G02*
X54800000Y-45875000I0J-150000D01*
G01*
X54800000Y-47125000D01*
G75*
G02*
X54650000Y-47275000I-150000J0D01*
G01*
X54350000Y-47275000D01*
G75*
G02*
X54200000Y-47125000I0J150000D01*
G01*
G37*
G36*
G01*
X53200000Y-47125000D02*
X53200000Y-45875000D01*
G75*
G02*
X53350000Y-45725000I150000J0D01*
G01*
X53650000Y-45725000D01*
G75*
G02*
X53800000Y-45875000I0J-150000D01*
G01*
X53800000Y-47125000D01*
G75*
G02*
X53650000Y-47275000I-150000J0D01*
G01*
X53350000Y-47275000D01*
G75*
G02*
X53200000Y-47125000I0J150000D01*
G01*
G37*
G36*
G01*
X52200000Y-47125000D02*
X52200000Y-45875000D01*
G75*
G02*
X52350000Y-45725000I150000J0D01*
G01*
X52650000Y-45725000D01*
G75*
G02*
X52800000Y-45875000I0J-150000D01*
G01*
X52800000Y-47125000D01*
G75*
G02*
X52650000Y-47275000I-150000J0D01*
G01*
X52350000Y-47275000D01*
G75*
G02*
X52200000Y-47125000I0J150000D01*
G01*
G37*
%TD*%
D13*
%TO.C,J1*%
X49680000Y-36150000D03*
X58320000Y-36150000D03*
D12*
X58320000Y-40330000D03*
X49680000Y-40330000D03*
D11*
X54250000Y-41245000D03*
X52250000Y-41245000D03*
X52750000Y-41245000D03*
X53250000Y-41245000D03*
X53750000Y-41245000D03*
X54750000Y-41245000D03*
X55250000Y-41245000D03*
X55750000Y-41245000D03*
D10*
X50750000Y-41245000D03*
X51550000Y-41245000D03*
X56450000Y-41245000D03*
X57250000Y-41245000D03*
X57250000Y-41245000D03*
X56450000Y-41245000D03*
X51550000Y-41245000D03*
X50750000Y-41245000D03*
%TD*%
M02*
