M48
; DRILL file {KiCad (5.1.10)-1} date 08/17/21 15:54:42
; FORMAT={-:-/ absolute / metric / decimal}
; #@! TF.CreationDate,2021-08-17T15:54:42+08:00
; #@! TF.GenerationSoftware,Kicad,Pcbnew,(5.1.10)-1
; #@! TF.FileFunction,Plated,1,2,PTH
FMAT,2
METRIC
T1C0.350
T2C0.600
T3C2.100
%
G90
G05
T1
X52.56Y-39.38
X52.56Y-57.88
X52.56Y-76.38
X52.56Y-94.88
X52.56Y-113.38
X53.66Y-38.28
X53.66Y-56.78
X53.66Y-75.28
X53.66Y-93.78
X53.66Y-112.28
X72.56Y-39.38
X72.56Y-57.88
X72.56Y-76.38
X72.56Y-94.88
X72.56Y-113.38
X73.66Y-38.28
X73.66Y-56.78
X73.66Y-75.28
X73.66Y-93.78
X73.66Y-112.28
X92.56Y-39.38
X92.56Y-57.88
X92.56Y-76.38
X92.56Y-94.88
X92.56Y-113.38
X93.66Y-38.28
X93.66Y-56.78
X93.66Y-75.28
X93.66Y-93.78
X93.66Y-112.28
X112.56Y-39.38
X112.56Y-57.88
X112.56Y-76.38
X112.56Y-94.88
X112.56Y-113.38
X113.66Y-38.28
X113.66Y-56.78
X113.66Y-75.28
X113.66Y-93.78
X113.66Y-112.28
X132.56Y-39.38
X132.56Y-57.88
X132.56Y-76.38
X132.56Y-94.88
X132.56Y-113.38
X133.66Y-38.28
X133.66Y-56.78
X133.66Y-75.28
X133.66Y-93.78
X133.66Y-112.28
T3
X47.0Y-37.0
X47.0Y-49.5
X47.0Y-55.5
X47.0Y-68.0
X47.0Y-74.0
X47.0Y-86.5
X47.0Y-92.5
X47.0Y-105.0
X47.0Y-111.0
X47.0Y-123.5
X61.0Y-37.0
X61.0Y-49.5
X61.0Y-55.5
X61.0Y-68.0
X61.0Y-74.0
X61.0Y-86.5
X61.0Y-92.5
X61.0Y-105.0
X61.0Y-111.0
X61.0Y-123.5
X67.0Y-37.0
X67.0Y-49.5
X67.0Y-55.5
X67.0Y-68.0
X67.0Y-74.0
X67.0Y-86.5
X67.0Y-92.5
X67.0Y-105.0
X67.0Y-111.0
X67.0Y-123.5
X81.0Y-37.0
X81.0Y-49.5
X81.0Y-55.5
X81.0Y-68.0
X81.0Y-74.0
X81.0Y-86.5
X81.0Y-92.5
X81.0Y-105.0
X81.0Y-111.0
X81.0Y-123.5
X87.0Y-37.0
X87.0Y-49.5
X87.0Y-55.5
X87.0Y-68.0
X87.0Y-74.0
X87.0Y-86.5
X87.0Y-92.5
X87.0Y-105.0
X87.0Y-111.0
X87.0Y-123.5
X101.0Y-37.0
X101.0Y-49.5
X101.0Y-55.5
X101.0Y-68.0
X101.0Y-74.0
X101.0Y-86.5
X101.0Y-92.5
X101.0Y-105.0
X101.0Y-111.0
X101.0Y-123.5
X107.0Y-37.0
X107.0Y-49.5
X107.0Y-55.5
X107.0Y-68.0
X107.0Y-74.0
X107.0Y-86.5
X107.0Y-92.5
X107.0Y-105.0
X107.0Y-111.0
X107.0Y-123.5
X121.0Y-37.0
X121.0Y-49.5
X121.0Y-55.5
X121.0Y-68.0
X121.0Y-74.0
X121.0Y-86.5
X121.0Y-92.5
X121.0Y-105.0
X121.0Y-111.0
X121.0Y-123.5
X127.0Y-37.0
X127.0Y-49.5
X127.0Y-55.5
X127.0Y-68.0
X127.0Y-74.0
X127.0Y-86.5
X127.0Y-92.5
X127.0Y-105.0
X127.0Y-111.0
X127.0Y-123.5
X141.0Y-37.0
X141.0Y-49.5
X141.0Y-55.5
X141.0Y-68.0
X141.0Y-74.0
X141.0Y-86.5
X141.0Y-92.5
X141.0Y-105.0
X141.0Y-111.0
X141.0Y-123.5
T2
G00X49.68Y-36.45
M15
G01X49.68Y-35.85
M16
G05
G00X49.68Y-40.88
M15
G01X49.68Y-39.78
M16
G05
G00X49.68Y-54.95
M15
G01X49.68Y-54.35
M16
G05
G00X49.68Y-59.38
M15
G01X49.68Y-58.28
M16
G05
G00X49.68Y-73.45
M15
G01X49.68Y-72.85
M16
G05
G00X49.68Y-77.88
M15
G01X49.68Y-76.78
M16
G05
G00X49.68Y-91.95
M15
G01X49.68Y-91.35
M16
G05
G00X49.68Y-96.38
M15
G01X49.68Y-95.28
M16
G05
G00X49.68Y-110.45
M15
G01X49.68Y-109.85
M16
G05
G00X49.68Y-114.88
M15
G01X49.68Y-113.78
M16
G05
G00X58.32Y-36.45
M15
G01X58.32Y-35.85
M16
G05
G00X58.32Y-40.88
M15
G01X58.32Y-39.78
M16
G05
G00X58.32Y-54.95
M15
G01X58.32Y-54.35
M16
G05
G00X58.32Y-59.38
M15
G01X58.32Y-58.28
M16
G05
G00X58.32Y-73.45
M15
G01X58.32Y-72.85
M16
G05
G00X58.32Y-77.88
M15
G01X58.32Y-76.78
M16
G05
G00X58.32Y-91.95
M15
G01X58.32Y-91.35
M16
G05
G00X58.32Y-96.38
M15
G01X58.32Y-95.28
M16
G05
G00X58.32Y-110.45
M15
G01X58.32Y-109.85
M16
G05
G00X58.32Y-114.88
M15
G01X58.32Y-113.78
M16
G05
G00X69.68Y-36.45
M15
G01X69.68Y-35.85
M16
G05
G00X69.68Y-40.88
M15
G01X69.68Y-39.78
M16
G05
G00X69.68Y-54.95
M15
G01X69.68Y-54.35
M16
G05
G00X69.68Y-59.38
M15
G01X69.68Y-58.28
M16
G05
G00X69.68Y-73.45
M15
G01X69.68Y-72.85
M16
G05
G00X69.68Y-77.88
M15
G01X69.68Y-76.78
M16
G05
G00X69.68Y-91.95
M15
G01X69.68Y-91.35
M16
G05
G00X69.68Y-96.38
M15
G01X69.68Y-95.28
M16
G05
G00X69.68Y-110.45
M15
G01X69.68Y-109.85
M16
G05
G00X69.68Y-114.88
M15
G01X69.68Y-113.78
M16
G05
G00X78.32Y-36.45
M15
G01X78.32Y-35.85
M16
G05
G00X78.32Y-40.88
M15
G01X78.32Y-39.78
M16
G05
G00X78.32Y-54.95
M15
G01X78.32Y-54.35
M16
G05
G00X78.32Y-59.38
M15
G01X78.32Y-58.28
M16
G05
G00X78.32Y-73.45
M15
G01X78.32Y-72.85
M16
G05
G00X78.32Y-77.88
M15
G01X78.32Y-76.78
M16
G05
G00X78.32Y-91.95
M15
G01X78.32Y-91.35
M16
G05
G00X78.32Y-96.38
M15
G01X78.32Y-95.28
M16
G05
G00X78.32Y-110.45
M15
G01X78.32Y-109.85
M16
G05
G00X78.32Y-114.88
M15
G01X78.32Y-113.78
M16
G05
G00X89.68Y-36.45
M15
G01X89.68Y-35.85
M16
G05
G00X89.68Y-40.88
M15
G01X89.68Y-39.78
M16
G05
G00X89.68Y-54.95
M15
G01X89.68Y-54.35
M16
G05
G00X89.68Y-59.38
M15
G01X89.68Y-58.28
M16
G05
G00X89.68Y-73.45
M15
G01X89.68Y-72.85
M16
G05
G00X89.68Y-77.88
M15
G01X89.68Y-76.78
M16
G05
G00X89.68Y-91.95
M15
G01X89.68Y-91.35
M16
G05
G00X89.68Y-96.38
M15
G01X89.68Y-95.28
M16
G05
G00X89.68Y-110.45
M15
G01X89.68Y-109.85
M16
G05
G00X89.68Y-114.88
M15
G01X89.68Y-113.78
M16
G05
G00X98.32Y-36.45
M15
G01X98.32Y-35.85
M16
G05
G00X98.32Y-40.88
M15
G01X98.32Y-39.78
M16
G05
G00X98.32Y-54.95
M15
G01X98.32Y-54.35
M16
G05
G00X98.32Y-59.38
M15
G01X98.32Y-58.28
M16
G05
G00X98.32Y-73.45
M15
G01X98.32Y-72.85
M16
G05
G00X98.32Y-77.88
M15
G01X98.32Y-76.78
M16
G05
G00X98.32Y-91.95
M15
G01X98.32Y-91.35
M16
G05
G00X98.32Y-96.38
M15
G01X98.32Y-95.28
M16
G05
G00X98.32Y-110.45
M15
G01X98.32Y-109.85
M16
G05
G00X98.32Y-114.88
M15
G01X98.32Y-113.78
M16
G05
G00X109.68Y-36.45
M15
G01X109.68Y-35.85
M16
G05
G00X109.68Y-40.88
M15
G01X109.68Y-39.78
M16
G05
G00X109.68Y-54.95
M15
G01X109.68Y-54.35
M16
G05
G00X109.68Y-59.38
M15
G01X109.68Y-58.28
M16
G05
G00X109.68Y-73.45
M15
G01X109.68Y-72.85
M16
G05
G00X109.68Y-77.88
M15
G01X109.68Y-76.78
M16
G05
G00X109.68Y-91.95
M15
G01X109.68Y-91.35
M16
G05
G00X109.68Y-96.38
M15
G01X109.68Y-95.28
M16
G05
G00X109.68Y-110.45
M15
G01X109.68Y-109.85
M16
G05
G00X109.68Y-114.88
M15
G01X109.68Y-113.78
M16
G05
G00X118.32Y-36.45
M15
G01X118.32Y-35.85
M16
G05
G00X118.32Y-40.88
M15
G01X118.32Y-39.78
M16
G05
G00X118.32Y-54.95
M15
G01X118.32Y-54.35
M16
G05
G00X118.32Y-59.38
M15
G01X118.32Y-58.28
M16
G05
G00X118.32Y-73.45
M15
G01X118.32Y-72.85
M16
G05
G00X118.32Y-77.88
M15
G01X118.32Y-76.78
M16
G05
G00X118.32Y-91.95
M15
G01X118.32Y-91.35
M16
G05
G00X118.32Y-96.38
M15
G01X118.32Y-95.28
M16
G05
G00X118.32Y-110.45
M15
G01X118.32Y-109.85
M16
G05
G00X118.32Y-114.88
M15
G01X118.32Y-113.78
M16
G05
G00X129.68Y-36.45
M15
G01X129.68Y-35.85
M16
G05
G00X129.68Y-40.88
M15
G01X129.68Y-39.78
M16
G05
G00X129.68Y-54.95
M15
G01X129.68Y-54.35
M16
G05
G00X129.68Y-59.38
M15
G01X129.68Y-58.28
M16
G05
G00X129.68Y-73.45
M15
G01X129.68Y-72.85
M16
G05
G00X129.68Y-77.88
M15
G01X129.68Y-76.78
M16
G05
G00X129.68Y-91.95
M15
G01X129.68Y-91.35
M16
G05
G00X129.68Y-96.38
M15
G01X129.68Y-95.28
M16
G05
G00X129.68Y-110.45
M15
G01X129.68Y-109.85
M16
G05
G00X129.68Y-114.88
M15
G01X129.68Y-113.78
M16
G05
G00X138.32Y-36.45
M15
G01X138.32Y-35.85
M16
G05
G00X138.32Y-40.88
M15
G01X138.32Y-39.78
M16
G05
G00X138.32Y-54.95
M15
G01X138.32Y-54.35
M16
G05
G00X138.32Y-59.38
M15
G01X138.32Y-58.28
M16
G05
G00X138.32Y-73.45
M15
G01X138.32Y-72.85
M16
G05
G00X138.32Y-77.88
M15
G01X138.32Y-76.78
M16
G05
G00X138.32Y-91.95
M15
G01X138.32Y-91.35
M16
G05
G00X138.32Y-96.38
M15
G01X138.32Y-95.28
M16
G05
G00X138.32Y-110.45
M15
G01X138.32Y-109.85
M16
G05
G00X138.32Y-114.88
M15
G01X138.32Y-113.78
M16
G05
T0
M30
