%TF.GenerationSoftware,KiCad,Pcbnew,(6.0.5)*%
%TF.CreationDate,2022-08-23T21:33:37+08:00*%
%TF.ProjectId,without-power-switch-using-molex-connector-panelized,77697468-6f75-4742-9d70-6f7765722d73,rev?*%
%TF.SameCoordinates,Original*%
%TF.FileFunction,Soldermask,Top*%
%TF.FilePolarity,Negative*%
%FSLAX46Y46*%
G04 Gerber Fmt 4.6, Leading zero omitted, Abs format (unit mm)*
G04 Created by KiCad (PCBNEW (6.0.5)) date 2022-08-23 21:33:37*
%MOMM*%
%LPD*%
G01*
G04 APERTURE LIST*
G04 Aperture macros list*
%AMRoundRect*
0 Rectangle with rounded corners*
0 $1 Rounding radius*
0 $2 $3 $4 $5 $6 $7 $8 $9 X,Y pos of 4 corners*
0 Add a 4 corners polygon primitive as box body*
4,1,4,$2,$3,$4,$5,$6,$7,$8,$9,$2,$3,0*
0 Add four circle primitives for the rounded corners*
1,1,$1+$1,$2,$3*
1,1,$1+$1,$4,$5*
1,1,$1+$1,$6,$7*
1,1,$1+$1,$8,$9*
0 Add four rect primitives between the rounded corners*
20,1,$1+$1,$2,$3,$4,$5,0*
20,1,$1+$1,$4,$5,$6,$7,0*
20,1,$1+$1,$6,$7,$8,$9,0*
20,1,$1+$1,$8,$9,$2,$3,0*%
G04 Aperture macros list end*
%ADD10C,0.500000*%
%ADD11R,0.375000X0.500000*%
%ADD12R,0.300000X0.650000*%
%ADD13C,3.500000*%
%ADD14RoundRect,0.200000X0.275000X-0.200000X0.275000X0.200000X-0.275000X0.200000X-0.275000X-0.200000X0*%
%ADD15C,0.650000*%
%ADD16R,0.600000X1.450000*%
%ADD17R,0.300000X1.450000*%
%ADD18O,1.100000X1.800000*%
%ADD19O,1.200000X2.300000*%
%ADD20R,0.600000X0.850000*%
%ADD21R,0.700000X0.800000*%
%ADD22RoundRect,0.200000X-0.275000X0.200000X-0.275000X-0.200000X0.275000X-0.200000X0.275000X0.200000X0*%
%ADD23C,2.100000*%
%ADD24C,2.540000*%
G04 APERTURE END LIST*
D10*
%TO.C,REF\u002A\u002A*%
X62100000Y-61916666D03*
%TD*%
%TO.C,REF\u002A\u002A*%
X22100000Y-79583333D03*
%TD*%
%TO.C,REF\u002A\u002A*%
X102100000Y-76250000D03*
%TD*%
D11*
%TO.C,U1*%
X25137500Y-60750000D03*
D12*
X24600000Y-60675000D03*
D11*
X24062500Y-60750000D03*
X24062500Y-62450000D03*
D12*
X24600000Y-62525000D03*
D11*
X25137500Y-62450000D03*
%TD*%
D10*
%TO.C,REF\u002A\u002A*%
X42100000Y-41750000D03*
%TD*%
%TO.C,REF\u002A\u002A*%
X82100000Y-81250000D03*
%TD*%
%TO.C,REF\u002A\u002A*%
X99900000Y-78750000D03*
%TD*%
D13*
%TO.C,REF\u002A\u002A*%
X24000000Y-54000000D03*
%TD*%
%TO.C,REF\u002A\u002A*%
X44000000Y-103500000D03*
%TD*%
D10*
%TO.C,REF\u002A\u002A*%
X22100000Y-25750000D03*
%TD*%
%TO.C,REF\u002A\u002A*%
X22100000Y-42583333D03*
%TD*%
D14*
%TO.C,R1*%
X97900000Y-25425000D03*
X97900000Y-23775000D03*
%TD*%
D10*
%TO.C,REF\u002A\u002A*%
X42100000Y-61083333D03*
%TD*%
D14*
%TO.C,R1*%
X117900000Y-99425000D03*
X117900000Y-97775000D03*
%TD*%
D13*
%TO.C,REF\u002A\u002A*%
X84000000Y-91000000D03*
%TD*%
D10*
%TO.C,REF\u002A\u002A*%
X79900000Y-40083333D03*
%TD*%
D15*
%TO.C,J1*%
X88110000Y-39800000D03*
X93890000Y-39800000D03*
D16*
X94250000Y-41245000D03*
X93450000Y-41245000D03*
D17*
X92250000Y-41245000D03*
X91250000Y-41245000D03*
X90750000Y-41245000D03*
X89750000Y-41245000D03*
D16*
X88550000Y-41245000D03*
X87750000Y-41245000D03*
X87750000Y-41245000D03*
X88550000Y-41245000D03*
D17*
X89250000Y-41245000D03*
X90250000Y-41245000D03*
X91750000Y-41245000D03*
X92750000Y-41245000D03*
D16*
X93450000Y-41245000D03*
X94250000Y-41245000D03*
D18*
X95320000Y-36150000D03*
D19*
X86680000Y-40330000D03*
D18*
X86680000Y-36150000D03*
D19*
X95320000Y-40330000D03*
%TD*%
D10*
%TO.C,REF\u002A\u002A*%
X99900000Y-60250000D03*
%TD*%
%TO.C,REF\u002A\u002A*%
X82100000Y-20750000D03*
%TD*%
D15*
%TO.C,J1*%
X68110000Y-39800000D03*
X73890000Y-39800000D03*
D16*
X74250000Y-41245000D03*
X73450000Y-41245000D03*
D17*
X72250000Y-41245000D03*
X71250000Y-41245000D03*
X70750000Y-41245000D03*
X69750000Y-41245000D03*
D16*
X68550000Y-41245000D03*
X67750000Y-41245000D03*
X67750000Y-41245000D03*
X68550000Y-41245000D03*
D17*
X69250000Y-41245000D03*
X70250000Y-41245000D03*
X71750000Y-41245000D03*
X72750000Y-41245000D03*
D16*
X73450000Y-41245000D03*
X74250000Y-41245000D03*
D19*
X66680000Y-40330000D03*
D18*
X75320000Y-36150000D03*
D19*
X75320000Y-40330000D03*
D18*
X66680000Y-36150000D03*
%TD*%
D11*
%TO.C,U1*%
X105137500Y-23750000D03*
D12*
X104600000Y-23675000D03*
D11*
X104062500Y-23750000D03*
X104062500Y-25450000D03*
D12*
X104600000Y-25525000D03*
D11*
X105137500Y-25450000D03*
%TD*%
D10*
%TO.C,REF\u002A\u002A*%
X102100000Y-61083333D03*
%TD*%
%TO.C,REF\u002A\u002A*%
X99900000Y-96416666D03*
%TD*%
%TO.C,REF\u002A\u002A*%
X79900000Y-41750000D03*
%TD*%
D20*
%TO.C,J2*%
X49200000Y-64000000D03*
X50400000Y-64000000D03*
X51600000Y-64000000D03*
X52800000Y-64000000D03*
D21*
X53950000Y-67775000D03*
X48050000Y-67775000D03*
%TD*%
D10*
%TO.C,REF\u002A\u002A*%
X79900000Y-61916666D03*
%TD*%
%TO.C,REF\u002A\u002A*%
X102100000Y-79583333D03*
%TD*%
D13*
%TO.C,REF\u002A\u002A*%
X104000000Y-48000000D03*
%TD*%
%TO.C,REF\u002A\u002A*%
X78000000Y-48000000D03*
%TD*%
D10*
%TO.C,REF\u002A\u002A*%
X79900000Y-96416666D03*
%TD*%
%TO.C,REF\u002A\u002A*%
X59900000Y-78750000D03*
%TD*%
%TO.C,REF\u002A\u002A*%
X22100000Y-58583333D03*
%TD*%
%TO.C,REF\u002A\u002A*%
X82100000Y-41750000D03*
%TD*%
D13*
%TO.C,REF\u002A\u002A*%
X118000000Y-91000000D03*
%TD*%
D10*
%TO.C,REF\u002A\u002A*%
X119900000Y-79583333D03*
%TD*%
D20*
%TO.C,J2*%
X29200000Y-101000000D03*
X30400000Y-101000000D03*
X31600000Y-101000000D03*
X32800000Y-101000000D03*
D21*
X28050000Y-104775000D03*
X33950000Y-104775000D03*
%TD*%
D10*
%TO.C,REF\u002A\u002A*%
X62100000Y-97250000D03*
%TD*%
%TO.C,REF\u002A\u002A*%
X42100000Y-99750000D03*
%TD*%
D22*
%TO.C,R2*%
X36500000Y-97775000D03*
X36500000Y-99425000D03*
%TD*%
D13*
%TO.C,REF\u002A\u002A*%
X78000000Y-35500000D03*
%TD*%
D10*
%TO.C,REF\u002A\u002A*%
X119900000Y-39250000D03*
%TD*%
D15*
%TO.C,J1*%
X33890000Y-95300000D03*
X28110000Y-95300000D03*
D16*
X34250000Y-96745000D03*
X33450000Y-96745000D03*
D17*
X32250000Y-96745000D03*
X31250000Y-96745000D03*
X30750000Y-96745000D03*
X29750000Y-96745000D03*
D16*
X28550000Y-96745000D03*
X27750000Y-96745000D03*
X27750000Y-96745000D03*
X28550000Y-96745000D03*
D17*
X29250000Y-96745000D03*
X30250000Y-96745000D03*
X31750000Y-96745000D03*
X32750000Y-96745000D03*
D16*
X33450000Y-96745000D03*
X34250000Y-96745000D03*
D19*
X35320000Y-95830000D03*
X26680000Y-95830000D03*
D18*
X35320000Y-91650000D03*
X26680000Y-91650000D03*
%TD*%
D10*
%TO.C,REF\u002A\u002A*%
X99900000Y-57750000D03*
%TD*%
%TO.C,REF\u002A\u002A*%
X62100000Y-58583333D03*
%TD*%
D13*
%TO.C,REF\u002A\u002A*%
X98000000Y-85000000D03*
%TD*%
D10*
%TO.C,REF\u002A\u002A*%
X82100000Y-21583333D03*
%TD*%
%TO.C,REF\u002A\u002A*%
X119900000Y-77083333D03*
%TD*%
D13*
%TO.C,REF\u002A\u002A*%
X98000000Y-103500000D03*
%TD*%
D10*
%TO.C,REF\u002A\u002A*%
X79900000Y-78750000D03*
%TD*%
D13*
%TO.C,REF\u002A\u002A*%
X24000000Y-66500000D03*
%TD*%
D11*
%TO.C,U1*%
X105137500Y-60750000D03*
D12*
X104600000Y-60675000D03*
D11*
X104062500Y-60750000D03*
X104062500Y-62450000D03*
D12*
X104600000Y-62525000D03*
D11*
X105137500Y-62450000D03*
%TD*%
D22*
%TO.C,R2*%
X116500000Y-42275000D03*
X116500000Y-43925000D03*
%TD*%
D10*
%TO.C,REF\u002A\u002A*%
X82100000Y-44250000D03*
%TD*%
%TO.C,REF\u002A\u002A*%
X102100000Y-25750000D03*
%TD*%
D20*
%TO.C,J2*%
X89200000Y-82500000D03*
X90400000Y-82500000D03*
X91600000Y-82500000D03*
X92800000Y-82500000D03*
D21*
X88050000Y-86275000D03*
X93950000Y-86275000D03*
%TD*%
D23*
%TO.C,REF\u002A\u002A*%
X124500000Y-17500000D03*
%TD*%
D14*
%TO.C,R1*%
X97900000Y-80925000D03*
X97900000Y-79275000D03*
%TD*%
%TO.C,R1*%
X57900000Y-25425000D03*
X57900000Y-23775000D03*
%TD*%
D10*
%TO.C,REF\u002A\u002A*%
X39900000Y-76250000D03*
%TD*%
D13*
%TO.C,REF\u002A\u002A*%
X38000000Y-48000000D03*
%TD*%
D10*
%TO.C,REF\u002A\u002A*%
X79900000Y-39250000D03*
%TD*%
%TO.C,REF\u002A\u002A*%
X102100000Y-60250000D03*
%TD*%
%TO.C,REF\u002A\u002A*%
X42100000Y-22416666D03*
%TD*%
D13*
%TO.C,REF\u002A\u002A*%
X104000000Y-17000000D03*
%TD*%
D10*
%TO.C,REF\u002A\u002A*%
X79900000Y-97250000D03*
%TD*%
D13*
%TO.C,REF\u002A\u002A*%
X44000000Y-48000000D03*
%TD*%
D10*
%TO.C,REF\u002A\u002A*%
X102100000Y-57750000D03*
%TD*%
%TO.C,REF\u002A\u002A*%
X119900000Y-40083333D03*
%TD*%
%TO.C,REF\u002A\u002A*%
X22100000Y-98916666D03*
%TD*%
D14*
%TO.C,R1*%
X77900000Y-80925000D03*
X77900000Y-79275000D03*
%TD*%
D10*
%TO.C,REF\u002A\u002A*%
X22100000Y-81250000D03*
%TD*%
D13*
%TO.C,REF\u002A\u002A*%
X64000000Y-48000000D03*
%TD*%
D10*
%TO.C,REF\u002A\u002A*%
X102100000Y-98916666D03*
%TD*%
%TO.C,REF\u002A\u002A*%
X119900000Y-24083333D03*
%TD*%
%TO.C,REF\u002A\u002A*%
X62100000Y-43416666D03*
%TD*%
D14*
%TO.C,R1*%
X117900000Y-43925000D03*
X117900000Y-42275000D03*
%TD*%
D10*
%TO.C,REF\u002A\u002A*%
X59900000Y-43416666D03*
%TD*%
%TO.C,REF\u002A\u002A*%
X102100000Y-40083333D03*
%TD*%
%TO.C,REF\u002A\u002A*%
X39900000Y-81250000D03*
%TD*%
%TO.C,REF\u002A\u002A*%
X79900000Y-77916666D03*
%TD*%
%TO.C,REF\u002A\u002A*%
X42100000Y-59416666D03*
%TD*%
%TO.C,REF\u002A\u002A*%
X62100000Y-22416666D03*
%TD*%
D14*
%TO.C,R1*%
X77900000Y-25425000D03*
X77900000Y-23775000D03*
%TD*%
D10*
%TO.C,REF\u002A\u002A*%
X82100000Y-43416666D03*
%TD*%
D22*
%TO.C,R2*%
X76500000Y-97775000D03*
X76500000Y-99425000D03*
%TD*%
D13*
%TO.C,REF\u002A\u002A*%
X84000000Y-48000000D03*
%TD*%
D10*
%TO.C,REF\u002A\u002A*%
X62100000Y-98916666D03*
%TD*%
D13*
%TO.C,REF\u002A\u002A*%
X38000000Y-35500000D03*
%TD*%
D10*
%TO.C,REF\u002A\u002A*%
X39900000Y-77916666D03*
%TD*%
D13*
%TO.C,REF\u002A\u002A*%
X44000000Y-35500000D03*
%TD*%
D10*
%TO.C,REF\u002A\u002A*%
X119900000Y-95583333D03*
%TD*%
%TO.C,REF\u002A\u002A*%
X22100000Y-97250000D03*
%TD*%
D11*
%TO.C,U1*%
X45137500Y-23750000D03*
D12*
X44600000Y-23675000D03*
D11*
X44062500Y-23750000D03*
X44062500Y-25450000D03*
D12*
X44600000Y-25525000D03*
D11*
X45137500Y-25450000D03*
%TD*%
D10*
%TO.C,REF\u002A\u002A*%
X99900000Y-98916666D03*
%TD*%
D20*
%TO.C,J2*%
X69200000Y-82500000D03*
X70400000Y-82500000D03*
X71600000Y-82500000D03*
X72800000Y-82500000D03*
D21*
X73950000Y-86275000D03*
X68050000Y-86275000D03*
%TD*%
D10*
%TO.C,REF\u002A\u002A*%
X39900000Y-57750000D03*
%TD*%
%TO.C,REF\u002A\u002A*%
X59900000Y-99750000D03*
%TD*%
%TO.C,REF\u002A\u002A*%
X22100000Y-60250000D03*
%TD*%
%TO.C,REF\u002A\u002A*%
X99900000Y-44250000D03*
%TD*%
D11*
%TO.C,U1*%
X65137500Y-23750000D03*
D12*
X64600000Y-23675000D03*
D11*
X64062500Y-23750000D03*
X64062500Y-25450000D03*
D12*
X64600000Y-25525000D03*
D11*
X65137500Y-25450000D03*
%TD*%
D15*
%TO.C,J1*%
X108110000Y-39800000D03*
X113890000Y-39800000D03*
D16*
X114250000Y-41245000D03*
X113450000Y-41245000D03*
D17*
X112250000Y-41245000D03*
X111250000Y-41245000D03*
X110750000Y-41245000D03*
X109750000Y-41245000D03*
D16*
X108550000Y-41245000D03*
X107750000Y-41245000D03*
X107750000Y-41245000D03*
X108550000Y-41245000D03*
D17*
X109250000Y-41245000D03*
X110250000Y-41245000D03*
X111750000Y-41245000D03*
X112750000Y-41245000D03*
D16*
X113450000Y-41245000D03*
X114250000Y-41245000D03*
D18*
X115320000Y-36150000D03*
D19*
X106680000Y-40330000D03*
D18*
X106680000Y-36150000D03*
D19*
X115320000Y-40330000D03*
%TD*%
D10*
%TO.C,REF\u002A\u002A*%
X82100000Y-57750000D03*
%TD*%
%TO.C,REF\u002A\u002A*%
X102100000Y-41750000D03*
%TD*%
D13*
%TO.C,REF\u002A\u002A*%
X58000000Y-29500000D03*
%TD*%
D22*
%TO.C,R2*%
X116500000Y-60775000D03*
X116500000Y-62425000D03*
%TD*%
D13*
%TO.C,REF\u002A\u002A*%
X98000000Y-29500000D03*
%TD*%
D10*
%TO.C,REF\u002A\u002A*%
X39900000Y-42583333D03*
%TD*%
%TO.C,REF\u002A\u002A*%
X22100000Y-23250000D03*
%TD*%
D15*
%TO.C,J1*%
X73890000Y-21300000D03*
X68110000Y-21300000D03*
D16*
X74250000Y-22745000D03*
X73450000Y-22745000D03*
D17*
X72250000Y-22745000D03*
X71250000Y-22745000D03*
X70750000Y-22745000D03*
X69750000Y-22745000D03*
D16*
X68550000Y-22745000D03*
X67750000Y-22745000D03*
X67750000Y-22745000D03*
X68550000Y-22745000D03*
D17*
X69250000Y-22745000D03*
X70250000Y-22745000D03*
X71750000Y-22745000D03*
X72750000Y-22745000D03*
D16*
X73450000Y-22745000D03*
X74250000Y-22745000D03*
D18*
X75320000Y-17650000D03*
X66680000Y-17650000D03*
D19*
X75320000Y-21830000D03*
X66680000Y-21830000D03*
%TD*%
D10*
%TO.C,REF\u002A\u002A*%
X79900000Y-99750000D03*
%TD*%
%TO.C,REF\u002A\u002A*%
X79900000Y-21583333D03*
%TD*%
%TO.C,REF\u002A\u002A*%
X39900000Y-39250000D03*
%TD*%
D15*
%TO.C,J1*%
X108110000Y-95300000D03*
X113890000Y-95300000D03*
D16*
X114250000Y-96745000D03*
X113450000Y-96745000D03*
D17*
X112250000Y-96745000D03*
X111250000Y-96745000D03*
X110750000Y-96745000D03*
X109750000Y-96745000D03*
D16*
X108550000Y-96745000D03*
X107750000Y-96745000D03*
X107750000Y-96745000D03*
X108550000Y-96745000D03*
D17*
X109250000Y-96745000D03*
X110250000Y-96745000D03*
X111750000Y-96745000D03*
X112750000Y-96745000D03*
D16*
X113450000Y-96745000D03*
X114250000Y-96745000D03*
D18*
X115320000Y-91650000D03*
X106680000Y-91650000D03*
D19*
X106680000Y-95830000D03*
X115320000Y-95830000D03*
%TD*%
D10*
%TO.C,REF\u002A\u002A*%
X102100000Y-39250000D03*
%TD*%
%TO.C,REF\u002A\u002A*%
X62100000Y-80416666D03*
%TD*%
D13*
%TO.C,REF\u002A\u002A*%
X38000000Y-29500000D03*
%TD*%
%TO.C,REF\u002A\u002A*%
X64000000Y-29500000D03*
%TD*%
D15*
%TO.C,J1*%
X28110000Y-39800000D03*
X33890000Y-39800000D03*
D16*
X34250000Y-41245000D03*
X33450000Y-41245000D03*
D17*
X32250000Y-41245000D03*
X31250000Y-41245000D03*
X30750000Y-41245000D03*
X29750000Y-41245000D03*
D16*
X28550000Y-41245000D03*
X27750000Y-41245000D03*
X27750000Y-41245000D03*
X28550000Y-41245000D03*
D17*
X29250000Y-41245000D03*
X30250000Y-41245000D03*
X31750000Y-41245000D03*
X32750000Y-41245000D03*
D16*
X33450000Y-41245000D03*
X34250000Y-41245000D03*
D19*
X26680000Y-40330000D03*
D18*
X26680000Y-36150000D03*
X35320000Y-36150000D03*
D19*
X35320000Y-40330000D03*
%TD*%
D10*
%TO.C,REF\u002A\u002A*%
X42100000Y-20750000D03*
%TD*%
%TO.C,REF\u002A\u002A*%
X119900000Y-41750000D03*
%TD*%
%TO.C,REF\u002A\u002A*%
X119900000Y-59416666D03*
%TD*%
%TO.C,REF\u002A\u002A*%
X99900000Y-40083333D03*
%TD*%
%TO.C,REF\u002A\u002A*%
X79900000Y-94750000D03*
%TD*%
%TO.C,REF\u002A\u002A*%
X59900000Y-95583333D03*
%TD*%
%TO.C,REF\u002A\u002A*%
X99900000Y-98083333D03*
%TD*%
D22*
%TO.C,R2*%
X56500000Y-42275000D03*
X56500000Y-43925000D03*
%TD*%
D10*
%TO.C,REF\u002A\u002A*%
X102100000Y-42583333D03*
%TD*%
%TO.C,REF\u002A\u002A*%
X62100000Y-41750000D03*
%TD*%
%TO.C,REF\u002A\u002A*%
X42100000Y-24083333D03*
%TD*%
D13*
%TO.C,REF\u002A\u002A*%
X64000000Y-72500000D03*
%TD*%
D10*
%TO.C,REF\u002A\u002A*%
X22100000Y-78750000D03*
%TD*%
%TO.C,REF\u002A\u002A*%
X22100000Y-77083333D03*
%TD*%
D13*
%TO.C,REF\u002A\u002A*%
X78000000Y-91000000D03*
%TD*%
D10*
%TO.C,REF\u002A\u002A*%
X119900000Y-44250000D03*
%TD*%
%TO.C,REF\u002A\u002A*%
X119900000Y-20750000D03*
%TD*%
%TO.C,REF\u002A\u002A*%
X62100000Y-24916666D03*
%TD*%
%TO.C,REF\u002A\u002A*%
X82100000Y-98083333D03*
%TD*%
%TO.C,REF\u002A\u002A*%
X119900000Y-58583333D03*
%TD*%
D13*
%TO.C,REF\u002A\u002A*%
X118000000Y-72500000D03*
%TD*%
D20*
%TO.C,J2*%
X29200000Y-45500000D03*
X30400000Y-45500000D03*
X31600000Y-45500000D03*
X32800000Y-45500000D03*
D21*
X33950000Y-49275000D03*
X28050000Y-49275000D03*
%TD*%
D10*
%TO.C,REF\u002A\u002A*%
X59900000Y-24916666D03*
%TD*%
D13*
%TO.C,REF\u002A\u002A*%
X104000000Y-85000000D03*
%TD*%
D10*
%TO.C,REF\u002A\u002A*%
X39900000Y-79583333D03*
%TD*%
D13*
%TO.C,REF\u002A\u002A*%
X24000000Y-91000000D03*
%TD*%
D10*
%TO.C,REF\u002A\u002A*%
X82100000Y-97250000D03*
%TD*%
D13*
%TO.C,REF\u002A\u002A*%
X104000000Y-103500000D03*
%TD*%
D10*
%TO.C,REF\u002A\u002A*%
X39900000Y-40083333D03*
%TD*%
D15*
%TO.C,J1*%
X113890000Y-21300000D03*
X108110000Y-21300000D03*
D16*
X114250000Y-22745000D03*
X113450000Y-22745000D03*
D17*
X112250000Y-22745000D03*
X111250000Y-22745000D03*
X110750000Y-22745000D03*
X109750000Y-22745000D03*
D16*
X108550000Y-22745000D03*
X107750000Y-22745000D03*
X107750000Y-22745000D03*
X108550000Y-22745000D03*
D17*
X109250000Y-22745000D03*
X110250000Y-22745000D03*
X111750000Y-22745000D03*
X112750000Y-22745000D03*
D16*
X113450000Y-22745000D03*
X114250000Y-22745000D03*
D19*
X115320000Y-21830000D03*
D18*
X106680000Y-17650000D03*
D19*
X106680000Y-21830000D03*
D18*
X115320000Y-17650000D03*
%TD*%
D10*
%TO.C,REF\u002A\u002A*%
X82100000Y-98916666D03*
%TD*%
%TO.C,REF\u002A\u002A*%
X42100000Y-21583333D03*
%TD*%
%TO.C,REF\u002A\u002A*%
X102100000Y-43416666D03*
%TD*%
%TO.C,REF\u002A\u002A*%
X39900000Y-78750000D03*
%TD*%
%TO.C,REF\u002A\u002A*%
X82100000Y-25750000D03*
%TD*%
%TO.C,REF\u002A\u002A*%
X119900000Y-40916666D03*
%TD*%
%TO.C,REF\u002A\u002A*%
X79900000Y-25750000D03*
%TD*%
%TO.C,REF\u002A\u002A*%
X82100000Y-42583333D03*
%TD*%
D13*
%TO.C,REF\u002A\u002A*%
X98000000Y-66500000D03*
%TD*%
D10*
%TO.C,REF\u002A\u002A*%
X42100000Y-94750000D03*
%TD*%
D20*
%TO.C,J2*%
X109200000Y-27000000D03*
X110400000Y-27000000D03*
X111600000Y-27000000D03*
X112800000Y-27000000D03*
D21*
X113950000Y-30775000D03*
X108050000Y-30775000D03*
%TD*%
D13*
%TO.C,REF\u002A\u002A*%
X58000000Y-103500000D03*
%TD*%
D22*
%TO.C,R2*%
X96500000Y-23775000D03*
X96500000Y-25425000D03*
%TD*%
D15*
%TO.C,J1*%
X108110000Y-58300000D03*
X113890000Y-58300000D03*
D16*
X114250000Y-59745000D03*
X113450000Y-59745000D03*
D17*
X112250000Y-59745000D03*
X111250000Y-59745000D03*
X110750000Y-59745000D03*
X109750000Y-59745000D03*
D16*
X108550000Y-59745000D03*
X107750000Y-59745000D03*
X107750000Y-59745000D03*
X108550000Y-59745000D03*
D17*
X109250000Y-59745000D03*
X110250000Y-59745000D03*
X111750000Y-59745000D03*
X112750000Y-59745000D03*
D16*
X113450000Y-59745000D03*
X114250000Y-59745000D03*
D18*
X106680000Y-54650000D03*
D19*
X106680000Y-58830000D03*
X115320000Y-58830000D03*
D18*
X115320000Y-54650000D03*
%TD*%
D15*
%TO.C,J1*%
X48110000Y-95300000D03*
X53890000Y-95300000D03*
D16*
X54250000Y-96745000D03*
X53450000Y-96745000D03*
D17*
X52250000Y-96745000D03*
X51250000Y-96745000D03*
X50750000Y-96745000D03*
X49750000Y-96745000D03*
D16*
X48550000Y-96745000D03*
X47750000Y-96745000D03*
X47750000Y-96745000D03*
X48550000Y-96745000D03*
D17*
X49250000Y-96745000D03*
X50250000Y-96745000D03*
X51750000Y-96745000D03*
X52750000Y-96745000D03*
D16*
X53450000Y-96745000D03*
X54250000Y-96745000D03*
D18*
X55320000Y-91650000D03*
D19*
X55320000Y-95830000D03*
D18*
X46680000Y-91650000D03*
D19*
X46680000Y-95830000D03*
%TD*%
D22*
%TO.C,R2*%
X96500000Y-79275000D03*
X96500000Y-80925000D03*
%TD*%
D10*
%TO.C,REF\u002A\u002A*%
X22100000Y-62750000D03*
%TD*%
D13*
%TO.C,REF\u002A\u002A*%
X44000000Y-66500000D03*
%TD*%
%TO.C,REF\u002A\u002A*%
X24000000Y-35500000D03*
%TD*%
D10*
%TO.C,REF\u002A\u002A*%
X59900000Y-77916666D03*
%TD*%
%TO.C,REF\u002A\u002A*%
X102100000Y-77916666D03*
%TD*%
D13*
%TO.C,REF\u002A\u002A*%
X64000000Y-66500000D03*
%TD*%
D11*
%TO.C,U1*%
X105137500Y-79250000D03*
D12*
X104600000Y-79175000D03*
D11*
X104062500Y-79250000D03*
X104062500Y-80950000D03*
D12*
X104600000Y-81025000D03*
D11*
X105137500Y-80950000D03*
%TD*%
D22*
%TO.C,R2*%
X36500000Y-23775000D03*
X36500000Y-25425000D03*
%TD*%
D11*
%TO.C,U1*%
X85137500Y-60750000D03*
D12*
X84600000Y-60675000D03*
D11*
X84062500Y-60750000D03*
X84062500Y-62450000D03*
D12*
X84600000Y-62525000D03*
D11*
X85137500Y-62450000D03*
%TD*%
D10*
%TO.C,REF\u002A\u002A*%
X22100000Y-94750000D03*
%TD*%
%TO.C,REF\u002A\u002A*%
X22100000Y-77916666D03*
%TD*%
%TO.C,REF\u002A\u002A*%
X59900000Y-41750000D03*
%TD*%
D11*
%TO.C,U1*%
X85137500Y-79250000D03*
D12*
X84600000Y-79175000D03*
D11*
X84062500Y-79250000D03*
X84062500Y-80950000D03*
D12*
X84600000Y-81025000D03*
D11*
X85137500Y-80950000D03*
%TD*%
D14*
%TO.C,R1*%
X57900000Y-62425000D03*
X57900000Y-60775000D03*
%TD*%
D10*
%TO.C,REF\u002A\u002A*%
X42100000Y-39250000D03*
%TD*%
%TO.C,REF\u002A\u002A*%
X39900000Y-97250000D03*
%TD*%
D15*
%TO.C,J1*%
X73890000Y-58300000D03*
X68110000Y-58300000D03*
D16*
X74250000Y-59745000D03*
X73450000Y-59745000D03*
D17*
X72250000Y-59745000D03*
X71250000Y-59745000D03*
X70750000Y-59745000D03*
X69750000Y-59745000D03*
D16*
X68550000Y-59745000D03*
X67750000Y-59745000D03*
X67750000Y-59745000D03*
X68550000Y-59745000D03*
D17*
X69250000Y-59745000D03*
X70250000Y-59745000D03*
X71750000Y-59745000D03*
X72750000Y-59745000D03*
D16*
X73450000Y-59745000D03*
X74250000Y-59745000D03*
D18*
X75320000Y-54650000D03*
D19*
X75320000Y-58830000D03*
D18*
X66680000Y-54650000D03*
D19*
X66680000Y-58830000D03*
%TD*%
D10*
%TO.C,REF\u002A\u002A*%
X59900000Y-97250000D03*
%TD*%
%TO.C,REF\u002A\u002A*%
X22100000Y-22416666D03*
%TD*%
D13*
%TO.C,REF\u002A\u002A*%
X64000000Y-17000000D03*
%TD*%
%TO.C,REF\u002A\u002A*%
X78000000Y-103500000D03*
%TD*%
%TO.C,REF\u002A\u002A*%
X118000000Y-103500000D03*
%TD*%
D10*
%TO.C,REF\u002A\u002A*%
X59900000Y-58583333D03*
%TD*%
D22*
%TO.C,R2*%
X116500000Y-23775000D03*
X116500000Y-25425000D03*
%TD*%
D13*
%TO.C,REF\u002A\u002A*%
X38000000Y-103500000D03*
%TD*%
D14*
%TO.C,R1*%
X97900000Y-62425000D03*
X97900000Y-60775000D03*
%TD*%
D10*
%TO.C,REF\u002A\u002A*%
X119900000Y-23250000D03*
%TD*%
%TO.C,REF\u002A\u002A*%
X42100000Y-62750000D03*
%TD*%
%TO.C,REF\u002A\u002A*%
X82100000Y-96416666D03*
%TD*%
%TO.C,REF\u002A\u002A*%
X42100000Y-95583333D03*
%TD*%
%TO.C,REF\u002A\u002A*%
X39900000Y-41750000D03*
%TD*%
%TO.C,REF\u002A\u002A*%
X42100000Y-77083333D03*
%TD*%
D15*
%TO.C,J1*%
X53890000Y-39800000D03*
X48110000Y-39800000D03*
D16*
X54250000Y-41245000D03*
X53450000Y-41245000D03*
D17*
X52250000Y-41245000D03*
X51250000Y-41245000D03*
X50750000Y-41245000D03*
X49750000Y-41245000D03*
D16*
X48550000Y-41245000D03*
X47750000Y-41245000D03*
X47750000Y-41245000D03*
X48550000Y-41245000D03*
D17*
X49250000Y-41245000D03*
X50250000Y-41245000D03*
X51750000Y-41245000D03*
X52750000Y-41245000D03*
D16*
X53450000Y-41245000D03*
X54250000Y-41245000D03*
D18*
X46680000Y-36150000D03*
X55320000Y-36150000D03*
D19*
X55320000Y-40330000D03*
X46680000Y-40330000D03*
%TD*%
D13*
%TO.C,REF\u002A\u002A*%
X58000000Y-48000000D03*
%TD*%
D24*
%TO.C,REF\u002A\u002A*%
X17500000Y-98000000D03*
%TD*%
D10*
%TO.C,REF\u002A\u002A*%
X79900000Y-59416666D03*
%TD*%
%TO.C,REF\u002A\u002A*%
X22100000Y-24083333D03*
%TD*%
%TO.C,REF\u002A\u002A*%
X59900000Y-20750000D03*
%TD*%
D13*
%TO.C,REF\u002A\u002A*%
X58000000Y-66500000D03*
%TD*%
D15*
%TO.C,J1*%
X48110000Y-21300000D03*
X53890000Y-21300000D03*
D16*
X54250000Y-22745000D03*
X53450000Y-22745000D03*
D17*
X52250000Y-22745000D03*
X51250000Y-22745000D03*
X50750000Y-22745000D03*
X49750000Y-22745000D03*
D16*
X48550000Y-22745000D03*
X47750000Y-22745000D03*
X47750000Y-22745000D03*
X48550000Y-22745000D03*
D17*
X49250000Y-22745000D03*
X50250000Y-22745000D03*
X51750000Y-22745000D03*
X52750000Y-22745000D03*
D16*
X53450000Y-22745000D03*
X54250000Y-22745000D03*
D19*
X46680000Y-21830000D03*
D18*
X55320000Y-17650000D03*
X46680000Y-17650000D03*
D19*
X55320000Y-21830000D03*
%TD*%
D13*
%TO.C,REF\u002A\u002A*%
X104000000Y-29500000D03*
%TD*%
D10*
%TO.C,REF\u002A\u002A*%
X42100000Y-76250000D03*
%TD*%
%TO.C,REF\u002A\u002A*%
X119900000Y-21583333D03*
%TD*%
%TO.C,REF\u002A\u002A*%
X39900000Y-98916666D03*
%TD*%
D13*
%TO.C,REF\u002A\u002A*%
X44000000Y-29500000D03*
%TD*%
D10*
%TO.C,REF\u002A\u002A*%
X99900000Y-24916666D03*
%TD*%
%TO.C,REF\u002A\u002A*%
X102100000Y-80416666D03*
%TD*%
%TO.C,REF\u002A\u002A*%
X42100000Y-98083333D03*
%TD*%
%TO.C,REF\u002A\u002A*%
X79900000Y-61083333D03*
%TD*%
%TO.C,REF\u002A\u002A*%
X22100000Y-44250000D03*
%TD*%
%TO.C,REF\u002A\u002A*%
X102100000Y-24083333D03*
%TD*%
%TO.C,REF\u002A\u002A*%
X62100000Y-96416666D03*
%TD*%
D13*
%TO.C,REF\u002A\u002A*%
X58000000Y-72500000D03*
%TD*%
D20*
%TO.C,J2*%
X89200000Y-64000000D03*
X90400000Y-64000000D03*
X91600000Y-64000000D03*
X92800000Y-64000000D03*
D21*
X93950000Y-67775000D03*
X88050000Y-67775000D03*
%TD*%
D13*
%TO.C,REF\u002A\u002A*%
X24000000Y-85000000D03*
%TD*%
D10*
%TO.C,REF\u002A\u002A*%
X119900000Y-61083333D03*
%TD*%
D22*
%TO.C,R2*%
X36500000Y-60775000D03*
X36500000Y-62425000D03*
%TD*%
D11*
%TO.C,U1*%
X85137500Y-97750000D03*
D12*
X84600000Y-97675000D03*
D11*
X84062500Y-97750000D03*
X84062500Y-99450000D03*
D12*
X84600000Y-99525000D03*
D11*
X85137500Y-99450000D03*
%TD*%
D14*
%TO.C,R1*%
X77900000Y-43925000D03*
X77900000Y-42275000D03*
%TD*%
D10*
%TO.C,REF\u002A\u002A*%
X79900000Y-76250000D03*
%TD*%
%TO.C,REF\u002A\u002A*%
X102100000Y-61916666D03*
%TD*%
D23*
%TO.C,REF\u002A\u002A*%
X124500000Y-103000000D03*
%TD*%
D10*
%TO.C,REF\u002A\u002A*%
X42100000Y-24916666D03*
%TD*%
D13*
%TO.C,REF\u002A\u002A*%
X118000000Y-17000000D03*
%TD*%
D10*
%TO.C,REF\u002A\u002A*%
X62100000Y-99750000D03*
%TD*%
%TO.C,REF\u002A\u002A*%
X42100000Y-23250000D03*
%TD*%
%TO.C,REF\u002A\u002A*%
X59900000Y-61083333D03*
%TD*%
%TO.C,REF\u002A\u002A*%
X22100000Y-99750000D03*
%TD*%
%TO.C,REF\u002A\u002A*%
X79900000Y-20750000D03*
%TD*%
%TO.C,REF\u002A\u002A*%
X99900000Y-61083333D03*
%TD*%
D15*
%TO.C,J1*%
X88110000Y-76800000D03*
X93890000Y-76800000D03*
D16*
X94250000Y-78245000D03*
X93450000Y-78245000D03*
D17*
X92250000Y-78245000D03*
X91250000Y-78245000D03*
X90750000Y-78245000D03*
X89750000Y-78245000D03*
D16*
X88550000Y-78245000D03*
X87750000Y-78245000D03*
X87750000Y-78245000D03*
X88550000Y-78245000D03*
D17*
X89250000Y-78245000D03*
X90250000Y-78245000D03*
X91750000Y-78245000D03*
X92750000Y-78245000D03*
D16*
X93450000Y-78245000D03*
X94250000Y-78245000D03*
D18*
X86680000Y-73150000D03*
D19*
X95320000Y-77330000D03*
D18*
X95320000Y-73150000D03*
D19*
X86680000Y-77330000D03*
%TD*%
D10*
%TO.C,REF\u002A\u002A*%
X42100000Y-80416666D03*
%TD*%
%TO.C,REF\u002A\u002A*%
X22100000Y-96416666D03*
%TD*%
%TO.C,REF\u002A\u002A*%
X82100000Y-61083333D03*
%TD*%
%TO.C,REF\u002A\u002A*%
X119900000Y-61916666D03*
%TD*%
%TO.C,REF\u002A\u002A*%
X82100000Y-95583333D03*
%TD*%
%TO.C,REF\u002A\u002A*%
X62100000Y-39250000D03*
%TD*%
%TO.C,REF\u002A\u002A*%
X62100000Y-61083333D03*
%TD*%
D15*
%TO.C,J1*%
X28110000Y-76800000D03*
X33890000Y-76800000D03*
D16*
X34250000Y-78245000D03*
X33450000Y-78245000D03*
D17*
X32250000Y-78245000D03*
X31250000Y-78245000D03*
X30750000Y-78245000D03*
X29750000Y-78245000D03*
D16*
X28550000Y-78245000D03*
X27750000Y-78245000D03*
X27750000Y-78245000D03*
X28550000Y-78245000D03*
D17*
X29250000Y-78245000D03*
X30250000Y-78245000D03*
X31750000Y-78245000D03*
X32750000Y-78245000D03*
D16*
X33450000Y-78245000D03*
X34250000Y-78245000D03*
D19*
X35320000Y-77330000D03*
D18*
X26680000Y-73150000D03*
D19*
X26680000Y-77330000D03*
D18*
X35320000Y-73150000D03*
%TD*%
D10*
%TO.C,REF\u002A\u002A*%
X82100000Y-39250000D03*
%TD*%
%TO.C,REF\u002A\u002A*%
X39900000Y-43416666D03*
%TD*%
D13*
%TO.C,REF\u002A\u002A*%
X58000000Y-35500000D03*
%TD*%
D10*
%TO.C,REF\u002A\u002A*%
X22100000Y-41750000D03*
%TD*%
%TO.C,REF\u002A\u002A*%
X59900000Y-76250000D03*
%TD*%
D13*
%TO.C,REF\u002A\u002A*%
X58000000Y-85000000D03*
%TD*%
D10*
%TO.C,REF\u002A\u002A*%
X59900000Y-60250000D03*
%TD*%
D20*
%TO.C,J2*%
X49200000Y-27000000D03*
X50400000Y-27000000D03*
X51600000Y-27000000D03*
X52800000Y-27000000D03*
D21*
X53950000Y-30775000D03*
X48050000Y-30775000D03*
%TD*%
D10*
%TO.C,REF\u002A\u002A*%
X99900000Y-59416666D03*
%TD*%
%TO.C,REF\u002A\u002A*%
X22100000Y-59416666D03*
%TD*%
D15*
%TO.C,J1*%
X68110000Y-76800000D03*
X73890000Y-76800000D03*
D16*
X74250000Y-78245000D03*
X73450000Y-78245000D03*
D17*
X72250000Y-78245000D03*
X71250000Y-78245000D03*
X70750000Y-78245000D03*
X69750000Y-78245000D03*
D16*
X68550000Y-78245000D03*
X67750000Y-78245000D03*
X67750000Y-78245000D03*
X68550000Y-78245000D03*
D17*
X69250000Y-78245000D03*
X70250000Y-78245000D03*
X71750000Y-78245000D03*
X72750000Y-78245000D03*
D16*
X73450000Y-78245000D03*
X74250000Y-78245000D03*
D18*
X66680000Y-73150000D03*
D19*
X75320000Y-77330000D03*
D18*
X75320000Y-73150000D03*
D19*
X66680000Y-77330000D03*
%TD*%
D10*
%TO.C,REF\u002A\u002A*%
X99900000Y-61916666D03*
%TD*%
%TO.C,REF\u002A\u002A*%
X62100000Y-81250000D03*
%TD*%
%TO.C,REF\u002A\u002A*%
X79900000Y-98083333D03*
%TD*%
D13*
%TO.C,REF\u002A\u002A*%
X118000000Y-54000000D03*
%TD*%
D10*
%TO.C,REF\u002A\u002A*%
X62100000Y-94750000D03*
%TD*%
D15*
%TO.C,J1*%
X48110000Y-76800000D03*
X53890000Y-76800000D03*
D16*
X54250000Y-78245000D03*
X53450000Y-78245000D03*
D17*
X52250000Y-78245000D03*
X51250000Y-78245000D03*
X50750000Y-78245000D03*
X49750000Y-78245000D03*
D16*
X48550000Y-78245000D03*
X47750000Y-78245000D03*
X47750000Y-78245000D03*
X48550000Y-78245000D03*
D17*
X49250000Y-78245000D03*
X50250000Y-78245000D03*
X51750000Y-78245000D03*
X52750000Y-78245000D03*
D16*
X53450000Y-78245000D03*
X54250000Y-78245000D03*
D18*
X46680000Y-73150000D03*
D19*
X46680000Y-77330000D03*
X55320000Y-77330000D03*
D18*
X55320000Y-73150000D03*
%TD*%
D10*
%TO.C,REF\u002A\u002A*%
X39900000Y-96416666D03*
%TD*%
%TO.C,REF\u002A\u002A*%
X102100000Y-59416666D03*
%TD*%
%TO.C,REF\u002A\u002A*%
X119900000Y-94750000D03*
%TD*%
%TO.C,REF\u002A\u002A*%
X62100000Y-76250000D03*
%TD*%
%TO.C,REF\u002A\u002A*%
X119900000Y-97250000D03*
%TD*%
D13*
%TO.C,REF\u002A\u002A*%
X84000000Y-29500000D03*
%TD*%
%TO.C,REF\u002A\u002A*%
X44000000Y-17000000D03*
%TD*%
D10*
%TO.C,REF\u002A\u002A*%
X62100000Y-77083333D03*
%TD*%
%TO.C,REF\u002A\u002A*%
X82100000Y-62750000D03*
%TD*%
D11*
%TO.C,U1*%
X85137500Y-42250000D03*
D12*
X84600000Y-42175000D03*
D11*
X84062500Y-42250000D03*
X84062500Y-43950000D03*
D12*
X84600000Y-44025000D03*
D11*
X85137500Y-43950000D03*
%TD*%
D13*
%TO.C,REF\u002A\u002A*%
X84000000Y-54000000D03*
%TD*%
D10*
%TO.C,REF\u002A\u002A*%
X79900000Y-42583333D03*
%TD*%
D13*
%TO.C,REF\u002A\u002A*%
X84000000Y-85000000D03*
%TD*%
D10*
%TO.C,REF\u002A\u002A*%
X99900000Y-22416666D03*
%TD*%
D11*
%TO.C,U1*%
X25137500Y-23750000D03*
D12*
X24600000Y-23675000D03*
D11*
X24062500Y-23750000D03*
X24062500Y-25450000D03*
D12*
X24600000Y-25525000D03*
D11*
X25137500Y-25450000D03*
%TD*%
D10*
%TO.C,REF\u002A\u002A*%
X59900000Y-21583333D03*
%TD*%
%TO.C,REF\u002A\u002A*%
X62100000Y-60250000D03*
%TD*%
%TO.C,REF\u002A\u002A*%
X22100000Y-80416666D03*
%TD*%
%TO.C,REF\u002A\u002A*%
X82100000Y-58583333D03*
%TD*%
%TO.C,REF\u002A\u002A*%
X62100000Y-42583333D03*
%TD*%
D13*
%TO.C,REF\u002A\u002A*%
X38000000Y-85000000D03*
%TD*%
D10*
%TO.C,REF\u002A\u002A*%
X39900000Y-61916666D03*
%TD*%
D13*
%TO.C,REF\u002A\u002A*%
X98000000Y-54000000D03*
%TD*%
D22*
%TO.C,R2*%
X56500000Y-97775000D03*
X56500000Y-99425000D03*
%TD*%
D10*
%TO.C,REF\u002A\u002A*%
X82100000Y-77916666D03*
%TD*%
%TO.C,REF\u002A\u002A*%
X99900000Y-77083333D03*
%TD*%
%TO.C,REF\u002A\u002A*%
X82100000Y-78750000D03*
%TD*%
D13*
%TO.C,REF\u002A\u002A*%
X118000000Y-35500000D03*
%TD*%
%TO.C,REF\u002A\u002A*%
X98000000Y-48000000D03*
%TD*%
D10*
%TO.C,REF\u002A\u002A*%
X102100000Y-24916666D03*
%TD*%
D14*
%TO.C,R1*%
X117900000Y-25425000D03*
X117900000Y-23775000D03*
%TD*%
D13*
%TO.C,REF\u002A\u002A*%
X118000000Y-85000000D03*
%TD*%
D10*
%TO.C,REF\u002A\u002A*%
X79900000Y-57750000D03*
%TD*%
%TO.C,REF\u002A\u002A*%
X79900000Y-24916666D03*
%TD*%
%TO.C,REF\u002A\u002A*%
X99900000Y-24083333D03*
%TD*%
D22*
%TO.C,R2*%
X116500000Y-97775000D03*
X116500000Y-99425000D03*
%TD*%
D10*
%TO.C,REF\u002A\u002A*%
X39900000Y-58583333D03*
%TD*%
%TO.C,REF\u002A\u002A*%
X59900000Y-42583333D03*
%TD*%
D13*
%TO.C,REF\u002A\u002A*%
X98000000Y-35500000D03*
%TD*%
D10*
%TO.C,REF\u002A\u002A*%
X39900000Y-25750000D03*
%TD*%
D11*
%TO.C,U1*%
X105137500Y-97750000D03*
D12*
X104600000Y-97675000D03*
D11*
X104062500Y-97750000D03*
X104062500Y-99450000D03*
D12*
X104600000Y-99525000D03*
D11*
X105137500Y-99450000D03*
%TD*%
D10*
%TO.C,REF\u002A\u002A*%
X119900000Y-81250000D03*
%TD*%
%TO.C,REF\u002A\u002A*%
X119900000Y-96416666D03*
%TD*%
D23*
%TO.C,REF\u002A\u002A*%
X17500000Y-103000000D03*
%TD*%
D13*
%TO.C,REF\u002A\u002A*%
X38000000Y-17000000D03*
%TD*%
D10*
%TO.C,REF\u002A\u002A*%
X79900000Y-62750000D03*
%TD*%
D11*
%TO.C,U1*%
X65137500Y-42250000D03*
D12*
X64600000Y-42175000D03*
D11*
X64062500Y-42250000D03*
X64062500Y-43950000D03*
D12*
X64600000Y-44025000D03*
D11*
X65137500Y-43950000D03*
%TD*%
D13*
%TO.C,REF\u002A\u002A*%
X64000000Y-54000000D03*
%TD*%
%TO.C,REF\u002A\u002A*%
X78000000Y-17000000D03*
%TD*%
D10*
%TO.C,REF\u002A\u002A*%
X59900000Y-25750000D03*
%TD*%
%TO.C,REF\u002A\u002A*%
X102100000Y-44250000D03*
%TD*%
%TO.C,REF\u002A\u002A*%
X62100000Y-79583333D03*
%TD*%
%TO.C,REF\u002A\u002A*%
X99900000Y-62750000D03*
%TD*%
D20*
%TO.C,J2*%
X69200000Y-45500000D03*
X70400000Y-45500000D03*
X71600000Y-45500000D03*
X72800000Y-45500000D03*
D21*
X68050000Y-49275000D03*
X73950000Y-49275000D03*
%TD*%
D10*
%TO.C,REF\u002A\u002A*%
X99900000Y-95583333D03*
%TD*%
%TO.C,REF\u002A\u002A*%
X62100000Y-24083333D03*
%TD*%
D22*
%TO.C,R2*%
X56500000Y-23775000D03*
X56500000Y-25425000D03*
%TD*%
D10*
%TO.C,REF\u002A\u002A*%
X99900000Y-23250000D03*
%TD*%
D20*
%TO.C,J2*%
X29200000Y-27000000D03*
X30400000Y-27000000D03*
X31600000Y-27000000D03*
X32800000Y-27000000D03*
D21*
X33950000Y-30775000D03*
X28050000Y-30775000D03*
%TD*%
D10*
%TO.C,REF\u002A\u002A*%
X62100000Y-23250000D03*
%TD*%
%TO.C,REF\u002A\u002A*%
X102100000Y-21583333D03*
%TD*%
%TO.C,REF\u002A\u002A*%
X119900000Y-57750000D03*
%TD*%
D20*
%TO.C,J2*%
X109200000Y-45500000D03*
X110400000Y-45500000D03*
X111600000Y-45500000D03*
X112800000Y-45500000D03*
D21*
X108050000Y-49275000D03*
X113950000Y-49275000D03*
%TD*%
D23*
%TO.C,REF\u002A\u002A*%
X17500000Y-17500000D03*
%TD*%
D10*
%TO.C,REF\u002A\u002A*%
X119900000Y-76250000D03*
%TD*%
%TO.C,REF\u002A\u002A*%
X79900000Y-43416666D03*
%TD*%
D22*
%TO.C,R2*%
X96500000Y-42275000D03*
X96500000Y-43925000D03*
%TD*%
D20*
%TO.C,J2*%
X29200000Y-64000000D03*
X30400000Y-64000000D03*
X31600000Y-64000000D03*
X32800000Y-64000000D03*
D21*
X33950000Y-67775000D03*
X28050000Y-67775000D03*
%TD*%
D10*
%TO.C,REF\u002A\u002A*%
X79900000Y-23250000D03*
%TD*%
%TO.C,REF\u002A\u002A*%
X39900000Y-21583333D03*
%TD*%
%TO.C,REF\u002A\u002A*%
X42100000Y-42583333D03*
%TD*%
%TO.C,REF\u002A\u002A*%
X99900000Y-58583333D03*
%TD*%
%TO.C,REF\u002A\u002A*%
X39900000Y-44250000D03*
%TD*%
D22*
%TO.C,R2*%
X56500000Y-79275000D03*
X56500000Y-80925000D03*
%TD*%
D11*
%TO.C,U1*%
X105137500Y-42250000D03*
D12*
X104600000Y-42175000D03*
D11*
X104062500Y-42250000D03*
X104062500Y-43950000D03*
D12*
X104600000Y-44025000D03*
D11*
X105137500Y-43950000D03*
%TD*%
D10*
%TO.C,REF\u002A\u002A*%
X99900000Y-25750000D03*
%TD*%
%TO.C,REF\u002A\u002A*%
X82100000Y-80416666D03*
%TD*%
D13*
%TO.C,REF\u002A\u002A*%
X24000000Y-72500000D03*
%TD*%
D10*
%TO.C,REF\u002A\u002A*%
X62100000Y-57750000D03*
%TD*%
%TO.C,REF\u002A\u002A*%
X79900000Y-77083333D03*
%TD*%
D13*
%TO.C,REF\u002A\u002A*%
X118000000Y-29500000D03*
%TD*%
D10*
%TO.C,REF\u002A\u002A*%
X79900000Y-44250000D03*
%TD*%
%TO.C,REF\u002A\u002A*%
X39900000Y-80416666D03*
%TD*%
%TO.C,REF\u002A\u002A*%
X39900000Y-94750000D03*
%TD*%
D13*
%TO.C,REF\u002A\u002A*%
X78000000Y-54000000D03*
%TD*%
D15*
%TO.C,J1*%
X33890000Y-21300000D03*
X28110000Y-21300000D03*
D16*
X34250000Y-22745000D03*
X33450000Y-22745000D03*
D17*
X32250000Y-22745000D03*
X31250000Y-22745000D03*
X30750000Y-22745000D03*
X29750000Y-22745000D03*
D16*
X28550000Y-22745000D03*
X27750000Y-22745000D03*
X27750000Y-22745000D03*
X28550000Y-22745000D03*
D17*
X29250000Y-22745000D03*
X30250000Y-22745000D03*
X31750000Y-22745000D03*
X32750000Y-22745000D03*
D16*
X33450000Y-22745000D03*
X34250000Y-22745000D03*
D18*
X35320000Y-17650000D03*
D19*
X26680000Y-21830000D03*
X35320000Y-21830000D03*
D18*
X26680000Y-17650000D03*
%TD*%
D14*
%TO.C,R1*%
X57900000Y-80925000D03*
X57900000Y-79275000D03*
%TD*%
D13*
%TO.C,REF\u002A\u002A*%
X98000000Y-72500000D03*
%TD*%
D15*
%TO.C,J1*%
X88110000Y-95300000D03*
X93890000Y-95300000D03*
D16*
X94250000Y-96745000D03*
X93450000Y-96745000D03*
D17*
X92250000Y-96745000D03*
X91250000Y-96745000D03*
X90750000Y-96745000D03*
X89750000Y-96745000D03*
D16*
X88550000Y-96745000D03*
X87750000Y-96745000D03*
X87750000Y-96745000D03*
X88550000Y-96745000D03*
D17*
X89250000Y-96745000D03*
X90250000Y-96745000D03*
X91750000Y-96745000D03*
X92750000Y-96745000D03*
D16*
X93450000Y-96745000D03*
X94250000Y-96745000D03*
D18*
X86680000Y-91650000D03*
D19*
X86680000Y-95830000D03*
X95320000Y-95830000D03*
D18*
X95320000Y-91650000D03*
%TD*%
D10*
%TO.C,REF\u002A\u002A*%
X59900000Y-23250000D03*
%TD*%
D24*
%TO.C,REF\u002A\u002A*%
X124500000Y-22500000D03*
%TD*%
D13*
%TO.C,REF\u002A\u002A*%
X44000000Y-54000000D03*
%TD*%
D20*
%TO.C,J2*%
X69200000Y-27000000D03*
X70400000Y-27000000D03*
X71600000Y-27000000D03*
X72800000Y-27000000D03*
D21*
X73950000Y-30775000D03*
X68050000Y-30775000D03*
%TD*%
D13*
%TO.C,REF\u002A\u002A*%
X24000000Y-48000000D03*
%TD*%
D10*
%TO.C,REF\u002A\u002A*%
X82100000Y-24083333D03*
%TD*%
D13*
%TO.C,REF\u002A\u002A*%
X24000000Y-103500000D03*
%TD*%
D10*
%TO.C,REF\u002A\u002A*%
X22100000Y-98083333D03*
%TD*%
%TO.C,REF\u002A\u002A*%
X42100000Y-58583333D03*
%TD*%
%TO.C,REF\u002A\u002A*%
X42100000Y-77916666D03*
%TD*%
%TO.C,REF\u002A\u002A*%
X82100000Y-24916666D03*
%TD*%
%TO.C,REF\u002A\u002A*%
X59900000Y-40916666D03*
%TD*%
D13*
%TO.C,REF\u002A\u002A*%
X84000000Y-72500000D03*
%TD*%
D10*
%TO.C,REF\u002A\u002A*%
X59900000Y-98083333D03*
%TD*%
%TO.C,REF\u002A\u002A*%
X99900000Y-99750000D03*
%TD*%
%TO.C,REF\u002A\u002A*%
X119900000Y-78750000D03*
%TD*%
%TO.C,REF\u002A\u002A*%
X82100000Y-77083333D03*
%TD*%
%TO.C,REF\u002A\u002A*%
X99900000Y-43416666D03*
%TD*%
%TO.C,REF\u002A\u002A*%
X102100000Y-81250000D03*
%TD*%
D15*
%TO.C,J1*%
X48110000Y-58300000D03*
X53890000Y-58300000D03*
D16*
X54250000Y-59745000D03*
X53450000Y-59745000D03*
D17*
X52250000Y-59745000D03*
X51250000Y-59745000D03*
X50750000Y-59745000D03*
X49750000Y-59745000D03*
D16*
X48550000Y-59745000D03*
X47750000Y-59745000D03*
X47750000Y-59745000D03*
X48550000Y-59745000D03*
D17*
X49250000Y-59745000D03*
X50250000Y-59745000D03*
X51750000Y-59745000D03*
X52750000Y-59745000D03*
D16*
X53450000Y-59745000D03*
X54250000Y-59745000D03*
D18*
X46680000Y-54650000D03*
X55320000Y-54650000D03*
D19*
X55320000Y-58830000D03*
X46680000Y-58830000D03*
%TD*%
D15*
%TO.C,J1*%
X93890000Y-21300000D03*
X88110000Y-21300000D03*
D16*
X94250000Y-22745000D03*
X93450000Y-22745000D03*
D17*
X92250000Y-22745000D03*
X91250000Y-22745000D03*
X90750000Y-22745000D03*
X89750000Y-22745000D03*
D16*
X88550000Y-22745000D03*
X87750000Y-22745000D03*
X87750000Y-22745000D03*
X88550000Y-22745000D03*
D17*
X89250000Y-22745000D03*
X90250000Y-22745000D03*
X91750000Y-22745000D03*
X92750000Y-22745000D03*
D16*
X93450000Y-22745000D03*
X94250000Y-22745000D03*
D18*
X86680000Y-17650000D03*
X95320000Y-17650000D03*
D19*
X95320000Y-21830000D03*
X86680000Y-21830000D03*
%TD*%
D13*
%TO.C,REF\u002A\u002A*%
X38000000Y-66500000D03*
%TD*%
D10*
%TO.C,REF\u002A\u002A*%
X62100000Y-44250000D03*
%TD*%
%TO.C,REF\u002A\u002A*%
X102100000Y-98083333D03*
%TD*%
%TO.C,REF\u002A\u002A*%
X82100000Y-59416666D03*
%TD*%
D13*
%TO.C,REF\u002A\u002A*%
X58000000Y-54000000D03*
%TD*%
D11*
%TO.C,U1*%
X65137500Y-79250000D03*
D12*
X64600000Y-79175000D03*
D11*
X64062500Y-79250000D03*
X64062500Y-80950000D03*
D12*
X64600000Y-81025000D03*
D11*
X65137500Y-80950000D03*
%TD*%
%TO.C,U1*%
X45137500Y-42250000D03*
D12*
X44600000Y-42175000D03*
D11*
X44062500Y-42250000D03*
X44062500Y-43950000D03*
D12*
X44600000Y-44025000D03*
D11*
X45137500Y-43950000D03*
%TD*%
D10*
%TO.C,REF\u002A\u002A*%
X102100000Y-58583333D03*
%TD*%
%TO.C,REF\u002A\u002A*%
X82100000Y-76250000D03*
%TD*%
%TO.C,REF\u002A\u002A*%
X59900000Y-62750000D03*
%TD*%
D15*
%TO.C,J1*%
X73890000Y-95300000D03*
X68110000Y-95300000D03*
D16*
X74250000Y-96745000D03*
X73450000Y-96745000D03*
D17*
X72250000Y-96745000D03*
X71250000Y-96745000D03*
X70750000Y-96745000D03*
X69750000Y-96745000D03*
D16*
X68550000Y-96745000D03*
X67750000Y-96745000D03*
X67750000Y-96745000D03*
X68550000Y-96745000D03*
D17*
X69250000Y-96745000D03*
X70250000Y-96745000D03*
X71750000Y-96745000D03*
X72750000Y-96745000D03*
D16*
X73450000Y-96745000D03*
X74250000Y-96745000D03*
D18*
X66680000Y-91650000D03*
D19*
X66680000Y-95830000D03*
D18*
X75320000Y-91650000D03*
D19*
X75320000Y-95830000D03*
%TD*%
D14*
%TO.C,R1*%
X37900000Y-99425000D03*
X37900000Y-97775000D03*
%TD*%
D10*
%TO.C,REF\u002A\u002A*%
X102100000Y-20750000D03*
%TD*%
%TO.C,REF\u002A\u002A*%
X22100000Y-20750000D03*
%TD*%
%TO.C,REF\u002A\u002A*%
X39900000Y-40916666D03*
%TD*%
%TO.C,REF\u002A\u002A*%
X119900000Y-98916666D03*
%TD*%
D13*
%TO.C,REF\u002A\u002A*%
X98000000Y-91000000D03*
%TD*%
D10*
%TO.C,REF\u002A\u002A*%
X62100000Y-21583333D03*
%TD*%
D14*
%TO.C,R1*%
X97900000Y-99425000D03*
X97900000Y-97775000D03*
%TD*%
D13*
%TO.C,REF\u002A\u002A*%
X84000000Y-17000000D03*
%TD*%
D10*
%TO.C,REF\u002A\u002A*%
X62100000Y-40916666D03*
%TD*%
%TO.C,REF\u002A\u002A*%
X102100000Y-97250000D03*
%TD*%
D14*
%TO.C,R1*%
X37900000Y-43925000D03*
X37900000Y-42275000D03*
%TD*%
D10*
%TO.C,REF\u002A\u002A*%
X39900000Y-23250000D03*
%TD*%
%TO.C,REF\u002A\u002A*%
X102100000Y-95583333D03*
%TD*%
D22*
%TO.C,R2*%
X96500000Y-97775000D03*
X96500000Y-99425000D03*
%TD*%
D20*
%TO.C,J2*%
X109200000Y-64000000D03*
X110400000Y-64000000D03*
X111600000Y-64000000D03*
X112800000Y-64000000D03*
D21*
X113950000Y-67775000D03*
X108050000Y-67775000D03*
%TD*%
D10*
%TO.C,REF\u002A\u002A*%
X59900000Y-96416666D03*
%TD*%
%TO.C,REF\u002A\u002A*%
X42100000Y-98916666D03*
%TD*%
D13*
%TO.C,REF\u002A\u002A*%
X118000000Y-48000000D03*
%TD*%
D10*
%TO.C,REF\u002A\u002A*%
X119900000Y-25750000D03*
%TD*%
%TO.C,REF\u002A\u002A*%
X59900000Y-61916666D03*
%TD*%
D14*
%TO.C,R1*%
X77900000Y-62425000D03*
X77900000Y-60775000D03*
%TD*%
D10*
%TO.C,REF\u002A\u002A*%
X39900000Y-77083333D03*
%TD*%
%TO.C,REF\u002A\u002A*%
X39900000Y-98083333D03*
%TD*%
%TO.C,REF\u002A\u002A*%
X119900000Y-43416666D03*
%TD*%
%TO.C,REF\u002A\u002A*%
X59900000Y-40083333D03*
%TD*%
%TO.C,REF\u002A\u002A*%
X79900000Y-40916666D03*
%TD*%
%TO.C,REF\u002A\u002A*%
X42100000Y-79583333D03*
%TD*%
%TO.C,REF\u002A\u002A*%
X42100000Y-61916666D03*
%TD*%
D13*
%TO.C,REF\u002A\u002A*%
X78000000Y-85000000D03*
%TD*%
D20*
%TO.C,J2*%
X89200000Y-101000000D03*
X90400000Y-101000000D03*
X91600000Y-101000000D03*
X92800000Y-101000000D03*
D21*
X88050000Y-104775000D03*
X93950000Y-104775000D03*
%TD*%
D13*
%TO.C,REF\u002A\u002A*%
X64000000Y-35500000D03*
%TD*%
D10*
%TO.C,REF\u002A\u002A*%
X119900000Y-98083333D03*
%TD*%
D13*
%TO.C,REF\u002A\u002A*%
X24000000Y-17000000D03*
%TD*%
D10*
%TO.C,REF\u002A\u002A*%
X22100000Y-40083333D03*
%TD*%
%TO.C,REF\u002A\u002A*%
X39900000Y-95583333D03*
%TD*%
%TO.C,REF\u002A\u002A*%
X99900000Y-40916666D03*
%TD*%
%TO.C,REF\u002A\u002A*%
X59900000Y-57750000D03*
%TD*%
D13*
%TO.C,REF\u002A\u002A*%
X38000000Y-72500000D03*
%TD*%
D11*
%TO.C,U1*%
X65137500Y-60750000D03*
D12*
X64600000Y-60675000D03*
D11*
X64062500Y-60750000D03*
X64062500Y-62450000D03*
D12*
X64600000Y-62525000D03*
D11*
X65137500Y-62450000D03*
%TD*%
D10*
%TO.C,REF\u002A\u002A*%
X22100000Y-95583333D03*
%TD*%
%TO.C,REF\u002A\u002A*%
X99900000Y-76250000D03*
%TD*%
%TO.C,REF\u002A\u002A*%
X39900000Y-60250000D03*
%TD*%
D13*
%TO.C,REF\u002A\u002A*%
X58000000Y-17000000D03*
%TD*%
%TO.C,REF\u002A\u002A*%
X78000000Y-29500000D03*
%TD*%
D10*
%TO.C,REF\u002A\u002A*%
X62100000Y-98083333D03*
%TD*%
D15*
%TO.C,J1*%
X88110000Y-58300000D03*
X93890000Y-58300000D03*
D16*
X94250000Y-59745000D03*
X93450000Y-59745000D03*
D17*
X92250000Y-59745000D03*
X91250000Y-59745000D03*
X90750000Y-59745000D03*
X89750000Y-59745000D03*
D16*
X88550000Y-59745000D03*
X87750000Y-59745000D03*
X87750000Y-59745000D03*
X88550000Y-59745000D03*
D17*
X89250000Y-59745000D03*
X90250000Y-59745000D03*
X91750000Y-59745000D03*
X92750000Y-59745000D03*
D16*
X93450000Y-59745000D03*
X94250000Y-59745000D03*
D18*
X95320000Y-54650000D03*
X86680000Y-54650000D03*
D19*
X86680000Y-58830000D03*
X95320000Y-58830000D03*
%TD*%
D13*
%TO.C,REF\u002A\u002A*%
X104000000Y-35500000D03*
%TD*%
D10*
%TO.C,REF\u002A\u002A*%
X82100000Y-79583333D03*
%TD*%
%TO.C,REF\u002A\u002A*%
X59900000Y-98916666D03*
%TD*%
%TO.C,REF\u002A\u002A*%
X102100000Y-22416666D03*
%TD*%
D14*
%TO.C,R1*%
X37900000Y-80925000D03*
X37900000Y-79275000D03*
%TD*%
D10*
%TO.C,REF\u002A\u002A*%
X119900000Y-42583333D03*
%TD*%
D22*
%TO.C,R2*%
X76500000Y-42275000D03*
X76500000Y-43925000D03*
%TD*%
D10*
%TO.C,REF\u002A\u002A*%
X102100000Y-62750000D03*
%TD*%
D13*
%TO.C,REF\u002A\u002A*%
X104000000Y-66500000D03*
%TD*%
D22*
%TO.C,R2*%
X116500000Y-79275000D03*
X116500000Y-80925000D03*
%TD*%
D10*
%TO.C,REF\u002A\u002A*%
X22100000Y-43416666D03*
%TD*%
%TO.C,REF\u002A\u002A*%
X79900000Y-80416666D03*
%TD*%
D14*
%TO.C,R1*%
X117900000Y-80925000D03*
X117900000Y-79275000D03*
%TD*%
D10*
%TO.C,REF\u002A\u002A*%
X119900000Y-80416666D03*
%TD*%
%TO.C,REF\u002A\u002A*%
X42100000Y-44250000D03*
%TD*%
D20*
%TO.C,J2*%
X29200000Y-82500000D03*
X30400000Y-82500000D03*
X31600000Y-82500000D03*
X32800000Y-82500000D03*
D21*
X33950000Y-86275000D03*
X28050000Y-86275000D03*
%TD*%
D10*
%TO.C,REF\u002A\u002A*%
X102100000Y-96416666D03*
%TD*%
D11*
%TO.C,U1*%
X65137500Y-97750000D03*
D12*
X64600000Y-97675000D03*
D11*
X64062500Y-97750000D03*
X64062500Y-99450000D03*
D12*
X64600000Y-99525000D03*
D11*
X65137500Y-99450000D03*
%TD*%
D10*
%TO.C,REF\u002A\u002A*%
X119900000Y-99750000D03*
%TD*%
%TO.C,REF\u002A\u002A*%
X79900000Y-60250000D03*
%TD*%
%TO.C,REF\u002A\u002A*%
X99900000Y-41750000D03*
%TD*%
%TO.C,REF\u002A\u002A*%
X42100000Y-40916666D03*
%TD*%
D20*
%TO.C,J2*%
X49200000Y-82500000D03*
X50400000Y-82500000D03*
X51600000Y-82500000D03*
X52800000Y-82500000D03*
D21*
X48050000Y-86275000D03*
X53950000Y-86275000D03*
%TD*%
D10*
%TO.C,REF\u002A\u002A*%
X59900000Y-24083333D03*
%TD*%
%TO.C,REF\u002A\u002A*%
X39900000Y-24916666D03*
%TD*%
%TO.C,REF\u002A\u002A*%
X82100000Y-94750000D03*
%TD*%
D13*
%TO.C,REF\u002A\u002A*%
X64000000Y-103500000D03*
%TD*%
D10*
%TO.C,REF\u002A\u002A*%
X99900000Y-79583333D03*
%TD*%
%TO.C,REF\u002A\u002A*%
X22100000Y-57750000D03*
%TD*%
D22*
%TO.C,R2*%
X76500000Y-79275000D03*
X76500000Y-80925000D03*
%TD*%
D10*
%TO.C,REF\u002A\u002A*%
X62100000Y-78750000D03*
%TD*%
D20*
%TO.C,J2*%
X89200000Y-45500000D03*
X90400000Y-45500000D03*
X91600000Y-45500000D03*
X92800000Y-45500000D03*
D21*
X88050000Y-49275000D03*
X93950000Y-49275000D03*
%TD*%
D10*
%TO.C,REF\u002A\u002A*%
X82100000Y-61916666D03*
%TD*%
D11*
%TO.C,U1*%
X45137500Y-79250000D03*
D12*
X44600000Y-79175000D03*
D11*
X44062500Y-79250000D03*
X44062500Y-80950000D03*
D12*
X44600000Y-81025000D03*
D11*
X45137500Y-80950000D03*
%TD*%
D13*
%TO.C,REF\u002A\u002A*%
X98000000Y-17000000D03*
%TD*%
D22*
%TO.C,R2*%
X56500000Y-60775000D03*
X56500000Y-62425000D03*
%TD*%
D10*
%TO.C,REF\u002A\u002A*%
X102100000Y-94750000D03*
%TD*%
%TO.C,REF\u002A\u002A*%
X99900000Y-94750000D03*
%TD*%
D11*
%TO.C,U1*%
X45137500Y-97750000D03*
D12*
X44600000Y-97675000D03*
D11*
X44062500Y-97750000D03*
X44062500Y-99450000D03*
D12*
X44600000Y-99525000D03*
D11*
X45137500Y-99450000D03*
%TD*%
D13*
%TO.C,REF\u002A\u002A*%
X64000000Y-91000000D03*
%TD*%
D20*
%TO.C,J2*%
X109200000Y-101000000D03*
X110400000Y-101000000D03*
X111600000Y-101000000D03*
X112800000Y-101000000D03*
D21*
X108050000Y-104775000D03*
X113950000Y-104775000D03*
%TD*%
D10*
%TO.C,REF\u002A\u002A*%
X42100000Y-96416666D03*
%TD*%
D13*
%TO.C,REF\u002A\u002A*%
X84000000Y-103500000D03*
%TD*%
D10*
%TO.C,REF\u002A\u002A*%
X39900000Y-59416666D03*
%TD*%
D22*
%TO.C,R2*%
X76500000Y-60775000D03*
X76500000Y-62425000D03*
%TD*%
D10*
%TO.C,REF\u002A\u002A*%
X42100000Y-78750000D03*
%TD*%
%TO.C,REF\u002A\u002A*%
X119900000Y-62750000D03*
%TD*%
D13*
%TO.C,REF\u002A\u002A*%
X84000000Y-66500000D03*
%TD*%
D10*
%TO.C,REF\u002A\u002A*%
X22100000Y-21583333D03*
%TD*%
%TO.C,REF\u002A\u002A*%
X39900000Y-61083333D03*
%TD*%
D24*
%TO.C,REF\u002A\u002A*%
X17500000Y-22500000D03*
%TD*%
D20*
%TO.C,J2*%
X49200000Y-45500000D03*
X50400000Y-45500000D03*
X51600000Y-45500000D03*
X52800000Y-45500000D03*
D21*
X53950000Y-49275000D03*
X48050000Y-49275000D03*
%TD*%
D10*
%TO.C,REF\u002A\u002A*%
X102100000Y-40916666D03*
%TD*%
%TO.C,REF\u002A\u002A*%
X62100000Y-59416666D03*
%TD*%
D11*
%TO.C,U1*%
X45137500Y-60750000D03*
D12*
X44600000Y-60675000D03*
D11*
X44062500Y-60750000D03*
X44062500Y-62450000D03*
D12*
X44600000Y-62525000D03*
D11*
X45137500Y-62450000D03*
%TD*%
D10*
%TO.C,REF\u002A\u002A*%
X59900000Y-39250000D03*
%TD*%
%TO.C,REF\u002A\u002A*%
X99900000Y-21583333D03*
%TD*%
D13*
%TO.C,REF\u002A\u002A*%
X64000000Y-85000000D03*
%TD*%
D11*
%TO.C,U1*%
X85137500Y-23750000D03*
D12*
X84600000Y-23675000D03*
D11*
X84062500Y-23750000D03*
X84062500Y-25450000D03*
D12*
X84600000Y-25525000D03*
D11*
X85137500Y-25450000D03*
%TD*%
D10*
%TO.C,REF\u002A\u002A*%
X59900000Y-59416666D03*
%TD*%
D13*
%TO.C,REF\u002A\u002A*%
X44000000Y-72500000D03*
%TD*%
%TO.C,REF\u002A\u002A*%
X44000000Y-85000000D03*
%TD*%
D14*
%TO.C,R1*%
X97900000Y-43925000D03*
X97900000Y-42275000D03*
%TD*%
%TO.C,R1*%
X57900000Y-43925000D03*
X57900000Y-42275000D03*
%TD*%
D10*
%TO.C,REF\u002A\u002A*%
X42100000Y-40083333D03*
%TD*%
D20*
%TO.C,J2*%
X109200000Y-82500000D03*
X110400000Y-82500000D03*
X111600000Y-82500000D03*
X112800000Y-82500000D03*
D21*
X108050000Y-86275000D03*
X113950000Y-86275000D03*
%TD*%
D10*
%TO.C,REF\u002A\u002A*%
X79900000Y-95583333D03*
%TD*%
%TO.C,REF\u002A\u002A*%
X119900000Y-77916666D03*
%TD*%
D11*
%TO.C,U1*%
X25137500Y-42250000D03*
D12*
X24600000Y-42175000D03*
D11*
X24062500Y-42250000D03*
X24062500Y-43950000D03*
D12*
X24600000Y-44025000D03*
D11*
X25137500Y-43950000D03*
%TD*%
D10*
%TO.C,REF\u002A\u002A*%
X59900000Y-81250000D03*
%TD*%
%TO.C,REF\u002A\u002A*%
X79900000Y-79583333D03*
%TD*%
%TO.C,REF\u002A\u002A*%
X99900000Y-81250000D03*
%TD*%
%TO.C,REF\u002A\u002A*%
X42100000Y-60250000D03*
%TD*%
%TO.C,REF\u002A\u002A*%
X102100000Y-77083333D03*
%TD*%
%TO.C,REF\u002A\u002A*%
X22100000Y-76250000D03*
%TD*%
%TO.C,REF\u002A\u002A*%
X62100000Y-77916666D03*
%TD*%
D22*
%TO.C,R2*%
X36500000Y-79275000D03*
X36500000Y-80925000D03*
%TD*%
D10*
%TO.C,REF\u002A\u002A*%
X22100000Y-61083333D03*
%TD*%
%TO.C,REF\u002A\u002A*%
X62100000Y-25750000D03*
%TD*%
%TO.C,REF\u002A\u002A*%
X99900000Y-42583333D03*
%TD*%
D11*
%TO.C,U1*%
X25137500Y-79250000D03*
D12*
X24600000Y-79175000D03*
D11*
X24062500Y-79250000D03*
X24062500Y-80950000D03*
D12*
X24600000Y-81025000D03*
D11*
X25137500Y-80950000D03*
%TD*%
D13*
%TO.C,REF\u002A\u002A*%
X38000000Y-54000000D03*
%TD*%
D14*
%TO.C,R1*%
X57900000Y-99425000D03*
X57900000Y-97775000D03*
%TD*%
D10*
%TO.C,REF\u002A\u002A*%
X39900000Y-99750000D03*
%TD*%
D14*
%TO.C,R1*%
X117900000Y-62425000D03*
X117900000Y-60775000D03*
%TD*%
D13*
%TO.C,REF\u002A\u002A*%
X104000000Y-72500000D03*
%TD*%
%TO.C,REF\u002A\u002A*%
X118000000Y-66500000D03*
%TD*%
D10*
%TO.C,REF\u002A\u002A*%
X59900000Y-79583333D03*
%TD*%
%TO.C,REF\u002A\u002A*%
X79900000Y-24083333D03*
%TD*%
D13*
%TO.C,REF\u002A\u002A*%
X78000000Y-66500000D03*
%TD*%
D10*
%TO.C,REF\u002A\u002A*%
X62100000Y-20750000D03*
%TD*%
%TO.C,REF\u002A\u002A*%
X102100000Y-78750000D03*
%TD*%
%TO.C,REF\u002A\u002A*%
X59900000Y-22416666D03*
%TD*%
D13*
%TO.C,REF\u002A\u002A*%
X84000000Y-35500000D03*
%TD*%
D10*
%TO.C,REF\u002A\u002A*%
X119900000Y-22416666D03*
%TD*%
D13*
%TO.C,REF\u002A\u002A*%
X78000000Y-72500000D03*
%TD*%
D10*
%TO.C,REF\u002A\u002A*%
X42100000Y-81250000D03*
%TD*%
%TO.C,REF\u002A\u002A*%
X119900000Y-60250000D03*
%TD*%
D15*
%TO.C,J1*%
X108110000Y-76800000D03*
X113890000Y-76800000D03*
D16*
X114250000Y-78245000D03*
X113450000Y-78245000D03*
D17*
X112250000Y-78245000D03*
X111250000Y-78245000D03*
X110750000Y-78245000D03*
X109750000Y-78245000D03*
D16*
X108550000Y-78245000D03*
X107750000Y-78245000D03*
X107750000Y-78245000D03*
X108550000Y-78245000D03*
D17*
X109250000Y-78245000D03*
X110250000Y-78245000D03*
X111750000Y-78245000D03*
X112750000Y-78245000D03*
D16*
X113450000Y-78245000D03*
X114250000Y-78245000D03*
D18*
X106680000Y-73150000D03*
D19*
X106680000Y-77330000D03*
X115320000Y-77330000D03*
D18*
X115320000Y-73150000D03*
%TD*%
D11*
%TO.C,U1*%
X25137500Y-97750000D03*
D12*
X24600000Y-97675000D03*
D11*
X24062500Y-97750000D03*
X24062500Y-99450000D03*
D12*
X24600000Y-99525000D03*
D11*
X25137500Y-99450000D03*
%TD*%
D15*
%TO.C,J1*%
X28110000Y-58300000D03*
X33890000Y-58300000D03*
D16*
X34250000Y-59745000D03*
X33450000Y-59745000D03*
D17*
X32250000Y-59745000D03*
X31250000Y-59745000D03*
X30750000Y-59745000D03*
X29750000Y-59745000D03*
D16*
X28550000Y-59745000D03*
X27750000Y-59745000D03*
X27750000Y-59745000D03*
X28550000Y-59745000D03*
D17*
X29250000Y-59745000D03*
X30250000Y-59745000D03*
X31750000Y-59745000D03*
X32750000Y-59745000D03*
D16*
X33450000Y-59745000D03*
X34250000Y-59745000D03*
D19*
X26680000Y-58830000D03*
D18*
X35320000Y-54650000D03*
D19*
X35320000Y-58830000D03*
D18*
X26680000Y-54650000D03*
%TD*%
D22*
%TO.C,R2*%
X76500000Y-23775000D03*
X76500000Y-25425000D03*
%TD*%
D13*
%TO.C,REF\u002A\u002A*%
X58000000Y-91000000D03*
%TD*%
D20*
%TO.C,J2*%
X69200000Y-101000000D03*
X70400000Y-101000000D03*
X71600000Y-101000000D03*
X72800000Y-101000000D03*
D21*
X73950000Y-104775000D03*
X68050000Y-104775000D03*
%TD*%
D10*
%TO.C,REF\u002A\u002A*%
X22100000Y-39250000D03*
%TD*%
%TO.C,REF\u002A\u002A*%
X39900000Y-24083333D03*
%TD*%
%TO.C,REF\u002A\u002A*%
X22100000Y-40916666D03*
%TD*%
%TO.C,REF\u002A\u002A*%
X62100000Y-95583333D03*
%TD*%
D22*
%TO.C,R2*%
X96500000Y-60775000D03*
X96500000Y-62425000D03*
%TD*%
D20*
%TO.C,J2*%
X49200000Y-101000000D03*
X50400000Y-101000000D03*
X51600000Y-101000000D03*
X52800000Y-101000000D03*
D21*
X53950000Y-104775000D03*
X48050000Y-104775000D03*
%TD*%
D13*
%TO.C,REF\u002A\u002A*%
X104000000Y-54000000D03*
%TD*%
D10*
%TO.C,REF\u002A\u002A*%
X99900000Y-20750000D03*
%TD*%
%TO.C,REF\u002A\u002A*%
X79900000Y-58583333D03*
%TD*%
%TO.C,REF\u002A\u002A*%
X39900000Y-62750000D03*
%TD*%
%TO.C,REF\u002A\u002A*%
X42100000Y-57750000D03*
%TD*%
%TO.C,REF\u002A\u002A*%
X42100000Y-25750000D03*
%TD*%
%TO.C,REF\u002A\u002A*%
X99900000Y-80416666D03*
%TD*%
%TO.C,REF\u002A\u002A*%
X119900000Y-24916666D03*
%TD*%
D14*
%TO.C,R1*%
X37900000Y-25425000D03*
X37900000Y-23775000D03*
%TD*%
D10*
%TO.C,REF\u002A\u002A*%
X59900000Y-44250000D03*
%TD*%
%TO.C,REF\u002A\u002A*%
X59900000Y-94750000D03*
%TD*%
%TO.C,REF\u002A\u002A*%
X82100000Y-40083333D03*
%TD*%
D14*
%TO.C,R1*%
X77900000Y-99425000D03*
X77900000Y-97775000D03*
%TD*%
D10*
%TO.C,REF\u002A\u002A*%
X22100000Y-24916666D03*
%TD*%
D20*
%TO.C,J2*%
X69200000Y-64000000D03*
X70400000Y-64000000D03*
X71600000Y-64000000D03*
X72800000Y-64000000D03*
D21*
X73950000Y-67775000D03*
X68050000Y-67775000D03*
%TD*%
D10*
%TO.C,REF\u002A\u002A*%
X82100000Y-23250000D03*
%TD*%
%TO.C,REF\u002A\u002A*%
X82100000Y-40916666D03*
%TD*%
%TO.C,REF\u002A\u002A*%
X82100000Y-60250000D03*
%TD*%
D14*
%TO.C,R1*%
X37900000Y-62425000D03*
X37900000Y-60775000D03*
%TD*%
D10*
%TO.C,REF\u002A\u002A*%
X82100000Y-22416666D03*
%TD*%
%TO.C,REF\u002A\u002A*%
X59900000Y-77083333D03*
%TD*%
%TO.C,REF\u002A\u002A*%
X82100000Y-99750000D03*
%TD*%
%TO.C,REF\u002A\u002A*%
X99900000Y-97250000D03*
%TD*%
D13*
%TO.C,REF\u002A\u002A*%
X24000000Y-29500000D03*
%TD*%
D10*
%TO.C,REF\u002A\u002A*%
X39900000Y-22416666D03*
%TD*%
%TO.C,REF\u002A\u002A*%
X79900000Y-98916666D03*
%TD*%
%TO.C,REF\u002A\u002A*%
X102100000Y-23250000D03*
%TD*%
%TO.C,REF\u002A\u002A*%
X102100000Y-99750000D03*
%TD*%
%TO.C,REF\u002A\u002A*%
X59900000Y-80416666D03*
%TD*%
%TO.C,REF\u002A\u002A*%
X99900000Y-77916666D03*
%TD*%
D13*
%TO.C,REF\u002A\u002A*%
X44000000Y-91000000D03*
%TD*%
D20*
%TO.C,J2*%
X89200000Y-27000000D03*
X90400000Y-27000000D03*
X91600000Y-27000000D03*
X92800000Y-27000000D03*
D21*
X93950000Y-30775000D03*
X88050000Y-30775000D03*
%TD*%
D10*
%TO.C,REF\u002A\u002A*%
X42100000Y-43416666D03*
%TD*%
%TO.C,REF\u002A\u002A*%
X99900000Y-39250000D03*
%TD*%
%TO.C,REF\u002A\u002A*%
X79900000Y-81250000D03*
%TD*%
%TO.C,REF\u002A\u002A*%
X62100000Y-62750000D03*
%TD*%
D22*
%TO.C,R2*%
X36500000Y-42275000D03*
X36500000Y-43925000D03*
%TD*%
D10*
%TO.C,REF\u002A\u002A*%
X39900000Y-20750000D03*
%TD*%
%TO.C,REF\u002A\u002A*%
X79900000Y-22416666D03*
%TD*%
%TO.C,REF\u002A\u002A*%
X42100000Y-97250000D03*
%TD*%
%TO.C,REF\u002A\u002A*%
X62100000Y-40083333D03*
%TD*%
%TO.C,REF\u002A\u002A*%
X22100000Y-61916666D03*
%TD*%
D13*
%TO.C,REF\u002A\u002A*%
X38000000Y-91000000D03*
%TD*%
%TO.C,REF\u002A\u002A*%
X104000000Y-91000000D03*
%TD*%
M02*
