M48
; DRILL file {KiCad (6.0.5)} date Tue Aug 23 21:33:36 2022
; FORMAT={-:-/ absolute / metric / decimal}
; #@! TF.CreationDate,2022-08-23T21:33:36+08:00
; #@! TF.GenerationSoftware,Kicad,Pcbnew,(6.0.5)
; #@! TF.FileFunction,NonPlated,1,2,NPTH
FMAT,2
METRIC
; #@! TA.AperFunction,NonPlated,NPTH,ComponentDrill
T1C0.500
; #@! TA.AperFunction,NonPlated,NPTH,ComponentDrill
T2C0.650
; #@! TA.AperFunction,NonPlated,NPTH,ComponentDrill
T3C2.100
%
G90
G05
T1
X22.1Y-20.75
X22.1Y-21.583
X22.1Y-22.417
X22.1Y-23.25
X22.1Y-24.083
X22.1Y-24.917
X22.1Y-25.75
X22.1Y-39.25
X22.1Y-40.083
X22.1Y-40.917
X22.1Y-41.75
X22.1Y-42.583
X22.1Y-43.417
X22.1Y-44.25
X22.1Y-57.75
X22.1Y-58.583
X22.1Y-59.417
X22.1Y-60.25
X22.1Y-61.083
X22.1Y-61.917
X22.1Y-62.75
X22.1Y-76.25
X22.1Y-77.083
X22.1Y-77.917
X22.1Y-78.75
X22.1Y-79.583
X22.1Y-80.417
X22.1Y-81.25
X22.1Y-94.75
X22.1Y-95.583
X22.1Y-96.417
X22.1Y-97.25
X22.1Y-98.083
X22.1Y-98.917
X22.1Y-99.75
X39.9Y-20.75
X39.9Y-21.583
X39.9Y-22.417
X39.9Y-23.25
X39.9Y-24.083
X39.9Y-24.917
X39.9Y-25.75
X39.9Y-39.25
X39.9Y-40.083
X39.9Y-40.917
X39.9Y-41.75
X39.9Y-42.583
X39.9Y-43.417
X39.9Y-44.25
X39.9Y-57.75
X39.9Y-58.583
X39.9Y-59.417
X39.9Y-60.25
X39.9Y-61.083
X39.9Y-61.917
X39.9Y-62.75
X39.9Y-76.25
X39.9Y-77.083
X39.9Y-77.917
X39.9Y-78.75
X39.9Y-79.583
X39.9Y-80.417
X39.9Y-81.25
X39.9Y-94.75
X39.9Y-95.583
X39.9Y-96.417
X39.9Y-97.25
X39.9Y-98.083
X39.9Y-98.917
X39.9Y-99.75
X42.1Y-20.75
X42.1Y-21.583
X42.1Y-22.417
X42.1Y-23.25
X42.1Y-24.083
X42.1Y-24.917
X42.1Y-25.75
X42.1Y-39.25
X42.1Y-40.083
X42.1Y-40.917
X42.1Y-41.75
X42.1Y-42.583
X42.1Y-43.417
X42.1Y-44.25
X42.1Y-57.75
X42.1Y-58.583
X42.1Y-59.417
X42.1Y-60.25
X42.1Y-61.083
X42.1Y-61.917
X42.1Y-62.75
X42.1Y-76.25
X42.1Y-77.083
X42.1Y-77.917
X42.1Y-78.75
X42.1Y-79.583
X42.1Y-80.417
X42.1Y-81.25
X42.1Y-94.75
X42.1Y-95.583
X42.1Y-96.417
X42.1Y-97.25
X42.1Y-98.083
X42.1Y-98.917
X42.1Y-99.75
X59.9Y-20.75
X59.9Y-21.583
X59.9Y-22.417
X59.9Y-23.25
X59.9Y-24.083
X59.9Y-24.917
X59.9Y-25.75
X59.9Y-39.25
X59.9Y-40.083
X59.9Y-40.917
X59.9Y-41.75
X59.9Y-42.583
X59.9Y-43.417
X59.9Y-44.25
X59.9Y-57.75
X59.9Y-58.583
X59.9Y-59.417
X59.9Y-60.25
X59.9Y-61.083
X59.9Y-61.917
X59.9Y-62.75
X59.9Y-76.25
X59.9Y-77.083
X59.9Y-77.917
X59.9Y-78.75
X59.9Y-79.583
X59.9Y-80.417
X59.9Y-81.25
X59.9Y-94.75
X59.9Y-95.583
X59.9Y-96.417
X59.9Y-97.25
X59.9Y-98.083
X59.9Y-98.917
X59.9Y-99.75
X62.1Y-20.75
X62.1Y-21.583
X62.1Y-22.417
X62.1Y-23.25
X62.1Y-24.083
X62.1Y-24.917
X62.1Y-25.75
X62.1Y-39.25
X62.1Y-40.083
X62.1Y-40.917
X62.1Y-41.75
X62.1Y-42.583
X62.1Y-43.417
X62.1Y-44.25
X62.1Y-57.75
X62.1Y-58.583
X62.1Y-59.417
X62.1Y-60.25
X62.1Y-61.083
X62.1Y-61.917
X62.1Y-62.75
X62.1Y-76.25
X62.1Y-77.083
X62.1Y-77.917
X62.1Y-78.75
X62.1Y-79.583
X62.1Y-80.417
X62.1Y-81.25
X62.1Y-94.75
X62.1Y-95.583
X62.1Y-96.417
X62.1Y-97.25
X62.1Y-98.083
X62.1Y-98.917
X62.1Y-99.75
X79.9Y-20.75
X79.9Y-21.583
X79.9Y-22.417
X79.9Y-23.25
X79.9Y-24.083
X79.9Y-24.917
X79.9Y-25.75
X79.9Y-39.25
X79.9Y-40.083
X79.9Y-40.917
X79.9Y-41.75
X79.9Y-42.583
X79.9Y-43.417
X79.9Y-44.25
X79.9Y-57.75
X79.9Y-58.583
X79.9Y-59.417
X79.9Y-60.25
X79.9Y-61.083
X79.9Y-61.917
X79.9Y-62.75
X79.9Y-76.25
X79.9Y-77.083
X79.9Y-77.917
X79.9Y-78.75
X79.9Y-79.583
X79.9Y-80.417
X79.9Y-81.25
X79.9Y-94.75
X79.9Y-95.583
X79.9Y-96.417
X79.9Y-97.25
X79.9Y-98.083
X79.9Y-98.917
X79.9Y-99.75
X82.1Y-20.75
X82.1Y-21.583
X82.1Y-22.417
X82.1Y-23.25
X82.1Y-24.083
X82.1Y-24.917
X82.1Y-25.75
X82.1Y-39.25
X82.1Y-40.083
X82.1Y-40.917
X82.1Y-41.75
X82.1Y-42.583
X82.1Y-43.417
X82.1Y-44.25
X82.1Y-57.75
X82.1Y-58.583
X82.1Y-59.417
X82.1Y-60.25
X82.1Y-61.083
X82.1Y-61.917
X82.1Y-62.75
X82.1Y-76.25
X82.1Y-77.083
X82.1Y-77.917
X82.1Y-78.75
X82.1Y-79.583
X82.1Y-80.417
X82.1Y-81.25
X82.1Y-94.75
X82.1Y-95.583
X82.1Y-96.417
X82.1Y-97.25
X82.1Y-98.083
X82.1Y-98.917
X82.1Y-99.75
X99.9Y-20.75
X99.9Y-21.583
X99.9Y-22.417
X99.9Y-23.25
X99.9Y-24.083
X99.9Y-24.917
X99.9Y-25.75
X99.9Y-39.25
X99.9Y-40.083
X99.9Y-40.917
X99.9Y-41.75
X99.9Y-42.583
X99.9Y-43.417
X99.9Y-44.25
X99.9Y-57.75
X99.9Y-58.583
X99.9Y-59.417
X99.9Y-60.25
X99.9Y-61.083
X99.9Y-61.917
X99.9Y-62.75
X99.9Y-76.25
X99.9Y-77.083
X99.9Y-77.917
X99.9Y-78.75
X99.9Y-79.583
X99.9Y-80.417
X99.9Y-81.25
X99.9Y-94.75
X99.9Y-95.583
X99.9Y-96.417
X99.9Y-97.25
X99.9Y-98.083
X99.9Y-98.917
X99.9Y-99.75
X102.1Y-20.75
X102.1Y-21.583
X102.1Y-22.417
X102.1Y-23.25
X102.1Y-24.083
X102.1Y-24.917
X102.1Y-25.75
X102.1Y-39.25
X102.1Y-40.083
X102.1Y-40.917
X102.1Y-41.75
X102.1Y-42.583
X102.1Y-43.417
X102.1Y-44.25
X102.1Y-57.75
X102.1Y-58.583
X102.1Y-59.417
X102.1Y-60.25
X102.1Y-61.083
X102.1Y-61.917
X102.1Y-62.75
X102.1Y-76.25
X102.1Y-77.083
X102.1Y-77.917
X102.1Y-78.75
X102.1Y-79.583
X102.1Y-80.417
X102.1Y-81.25
X102.1Y-94.75
X102.1Y-95.583
X102.1Y-96.417
X102.1Y-97.25
X102.1Y-98.083
X102.1Y-98.917
X102.1Y-99.75
X119.9Y-20.75
X119.9Y-21.583
X119.9Y-22.417
X119.9Y-23.25
X119.9Y-24.083
X119.9Y-24.917
X119.9Y-25.75
X119.9Y-39.25
X119.9Y-40.083
X119.9Y-40.917
X119.9Y-41.75
X119.9Y-42.583
X119.9Y-43.417
X119.9Y-44.25
X119.9Y-57.75
X119.9Y-58.583
X119.9Y-59.417
X119.9Y-60.25
X119.9Y-61.083
X119.9Y-61.917
X119.9Y-62.75
X119.9Y-76.25
X119.9Y-77.083
X119.9Y-77.917
X119.9Y-78.75
X119.9Y-79.583
X119.9Y-80.417
X119.9Y-81.25
X119.9Y-94.75
X119.9Y-95.583
X119.9Y-96.417
X119.9Y-97.25
X119.9Y-98.083
X119.9Y-98.917
X119.9Y-99.75
T2
X28.11Y-21.3
X28.11Y-39.8
X28.11Y-58.3
X28.11Y-76.8
X28.11Y-95.3
X33.89Y-21.3
X33.89Y-39.8
X33.89Y-58.3
X33.89Y-76.8
X33.89Y-95.3
X48.11Y-21.3
X48.11Y-39.8
X48.11Y-58.3
X48.11Y-76.8
X48.11Y-95.3
X53.89Y-21.3
X53.89Y-39.8
X53.89Y-58.3
X53.89Y-76.8
X53.89Y-95.3
X68.11Y-21.3
X68.11Y-39.8
X68.11Y-58.3
X68.11Y-76.8
X68.11Y-95.3
X73.89Y-21.3
X73.89Y-39.8
X73.89Y-58.3
X73.89Y-76.8
X73.89Y-95.3
X88.11Y-21.3
X88.11Y-39.8
X88.11Y-58.3
X88.11Y-76.8
X88.11Y-95.3
X93.89Y-21.3
X93.89Y-39.8
X93.89Y-58.3
X93.89Y-76.8
X93.89Y-95.3
X108.11Y-21.3
X108.11Y-39.8
X108.11Y-58.3
X108.11Y-76.8
X108.11Y-95.3
X113.89Y-21.3
X113.89Y-39.8
X113.89Y-58.3
X113.89Y-76.8
X113.89Y-95.3
T3
X17.5Y-17.5
X17.5Y-103.0
X124.5Y-17.5
X124.5Y-103.0
T0
M30
