M48
; DRILL file {KiCad (6.0.5)} date Tue Aug 23 21:33:36 2022
; FORMAT={-:-/ absolute / metric / decimal}
; #@! TF.CreationDate,2022-08-23T21:33:36+08:00
; #@! TF.GenerationSoftware,Kicad,Pcbnew,(6.0.5)
; #@! TF.FileFunction,Plated,1,2,PTH
FMAT,2
METRIC
; #@! TA.AperFunction,Plated,PTH,ViaDrill
T1C0.350
; #@! TA.AperFunction,Plated,PTH,ComponentDrill
T2C0.600
; #@! TA.AperFunction,Plated,PTH,ComponentDrill
T3C2.100
%
G90
G05
T1
X29.56Y-20.88
X29.56Y-39.38
X29.56Y-57.88
X29.56Y-76.38
X29.56Y-94.88
X30.66Y-19.78
X30.66Y-38.28
X30.66Y-56.78
X30.66Y-75.28
X30.66Y-93.78
X49.56Y-20.88
X49.56Y-39.38
X49.56Y-57.88
X49.56Y-76.38
X49.56Y-94.88
X50.66Y-19.78
X50.66Y-38.28
X50.66Y-56.78
X50.66Y-75.28
X50.66Y-93.78
X69.56Y-20.88
X69.56Y-39.38
X69.56Y-57.88
X69.56Y-76.38
X69.56Y-94.88
X70.66Y-19.78
X70.66Y-38.28
X70.66Y-56.78
X70.66Y-75.28
X70.66Y-93.78
X89.56Y-20.88
X89.56Y-39.38
X89.56Y-57.88
X89.56Y-76.38
X89.56Y-94.88
X90.66Y-19.78
X90.66Y-38.28
X90.66Y-56.78
X90.66Y-75.28
X90.66Y-93.78
X109.56Y-20.88
X109.56Y-39.38
X109.56Y-57.88
X109.56Y-76.38
X109.56Y-94.88
X110.66Y-19.78
X110.66Y-38.28
X110.66Y-56.78
X110.66Y-75.28
X110.66Y-93.78
T3
X24.0Y-17.0
X24.0Y-29.5
X24.0Y-35.5
X24.0Y-48.0
X24.0Y-54.0
X24.0Y-66.5
X24.0Y-72.5
X24.0Y-85.0
X24.0Y-91.0
X24.0Y-103.5
X38.0Y-17.0
X38.0Y-29.5
X38.0Y-35.5
X38.0Y-48.0
X38.0Y-54.0
X38.0Y-66.5
X38.0Y-72.5
X38.0Y-85.0
X38.0Y-91.0
X38.0Y-103.5
X44.0Y-17.0
X44.0Y-29.5
X44.0Y-35.5
X44.0Y-48.0
X44.0Y-54.0
X44.0Y-66.5
X44.0Y-72.5
X44.0Y-85.0
X44.0Y-91.0
X44.0Y-103.5
X58.0Y-17.0
X58.0Y-29.5
X58.0Y-35.5
X58.0Y-48.0
X58.0Y-54.0
X58.0Y-66.5
X58.0Y-72.5
X58.0Y-85.0
X58.0Y-91.0
X58.0Y-103.5
X64.0Y-17.0
X64.0Y-29.5
X64.0Y-35.5
X64.0Y-48.0
X64.0Y-54.0
X64.0Y-66.5
X64.0Y-72.5
X64.0Y-85.0
X64.0Y-91.0
X64.0Y-103.5
X78.0Y-17.0
X78.0Y-29.5
X78.0Y-35.5
X78.0Y-48.0
X78.0Y-54.0
X78.0Y-66.5
X78.0Y-72.5
X78.0Y-85.0
X78.0Y-91.0
X78.0Y-103.5
X84.0Y-17.0
X84.0Y-29.5
X84.0Y-35.5
X84.0Y-48.0
X84.0Y-54.0
X84.0Y-66.5
X84.0Y-72.5
X84.0Y-85.0
X84.0Y-91.0
X84.0Y-103.5
X98.0Y-17.0
X98.0Y-29.5
X98.0Y-35.5
X98.0Y-48.0
X98.0Y-54.0
X98.0Y-66.5
X98.0Y-72.5
X98.0Y-85.0
X98.0Y-91.0
X98.0Y-103.5
X104.0Y-17.0
X104.0Y-29.5
X104.0Y-35.5
X104.0Y-48.0
X104.0Y-54.0
X104.0Y-66.5
X104.0Y-72.5
X104.0Y-85.0
X104.0Y-91.0
X104.0Y-103.5
X118.0Y-17.0
X118.0Y-29.5
X118.0Y-35.5
X118.0Y-48.0
X118.0Y-54.0
X118.0Y-66.5
X118.0Y-72.5
X118.0Y-85.0
X118.0Y-91.0
X118.0Y-103.5
T2
G00X26.68Y-17.95
M15
G01X26.68Y-17.35
M16
G05
G00X26.68Y-22.38
M15
G01X26.68Y-21.28
M16
G05
G00X26.68Y-36.45
M15
G01X26.68Y-35.85
M16
G05
G00X26.68Y-40.88
M15
G01X26.68Y-39.78
M16
G05
G00X26.68Y-54.95
M15
G01X26.68Y-54.35
M16
G05
G00X26.68Y-59.38
M15
G01X26.68Y-58.28
M16
G05
G00X26.68Y-73.45
M15
G01X26.68Y-72.85
M16
G05
G00X26.68Y-77.88
M15
G01X26.68Y-76.78
M16
G05
G00X26.68Y-91.95
M15
G01X26.68Y-91.35
M16
G05
G00X26.68Y-96.38
M15
G01X26.68Y-95.28
M16
G05
G00X35.32Y-17.95
M15
G01X35.32Y-17.35
M16
G05
G00X35.32Y-22.38
M15
G01X35.32Y-21.28
M16
G05
G00X35.32Y-36.45
M15
G01X35.32Y-35.85
M16
G05
G00X35.32Y-40.88
M15
G01X35.32Y-39.78
M16
G05
G00X35.32Y-54.95
M15
G01X35.32Y-54.35
M16
G05
G00X35.32Y-59.38
M15
G01X35.32Y-58.28
M16
G05
G00X35.32Y-73.45
M15
G01X35.32Y-72.85
M16
G05
G00X35.32Y-77.88
M15
G01X35.32Y-76.78
M16
G05
G00X35.32Y-91.95
M15
G01X35.32Y-91.35
M16
G05
G00X35.32Y-96.38
M15
G01X35.32Y-95.28
M16
G05
G00X46.68Y-17.95
M15
G01X46.68Y-17.35
M16
G05
G00X46.68Y-22.38
M15
G01X46.68Y-21.28
M16
G05
G00X46.68Y-36.45
M15
G01X46.68Y-35.85
M16
G05
G00X46.68Y-40.88
M15
G01X46.68Y-39.78
M16
G05
G00X46.68Y-54.95
M15
G01X46.68Y-54.35
M16
G05
G00X46.68Y-59.38
M15
G01X46.68Y-58.28
M16
G05
G00X46.68Y-73.45
M15
G01X46.68Y-72.85
M16
G05
G00X46.68Y-77.88
M15
G01X46.68Y-76.78
M16
G05
G00X46.68Y-91.95
M15
G01X46.68Y-91.35
M16
G05
G00X46.68Y-96.38
M15
G01X46.68Y-95.28
M16
G05
G00X55.32Y-17.95
M15
G01X55.32Y-17.35
M16
G05
G00X55.32Y-22.38
M15
G01X55.32Y-21.28
M16
G05
G00X55.32Y-36.45
M15
G01X55.32Y-35.85
M16
G05
G00X55.32Y-40.88
M15
G01X55.32Y-39.78
M16
G05
G00X55.32Y-54.95
M15
G01X55.32Y-54.35
M16
G05
G00X55.32Y-59.38
M15
G01X55.32Y-58.28
M16
G05
G00X55.32Y-73.45
M15
G01X55.32Y-72.85
M16
G05
G00X55.32Y-77.88
M15
G01X55.32Y-76.78
M16
G05
G00X55.32Y-91.95
M15
G01X55.32Y-91.35
M16
G05
G00X55.32Y-96.38
M15
G01X55.32Y-95.28
M16
G05
G00X66.68Y-17.95
M15
G01X66.68Y-17.35
M16
G05
G00X66.68Y-22.38
M15
G01X66.68Y-21.28
M16
G05
G00X66.68Y-36.45
M15
G01X66.68Y-35.85
M16
G05
G00X66.68Y-40.88
M15
G01X66.68Y-39.78
M16
G05
G00X66.68Y-54.95
M15
G01X66.68Y-54.35
M16
G05
G00X66.68Y-59.38
M15
G01X66.68Y-58.28
M16
G05
G00X66.68Y-73.45
M15
G01X66.68Y-72.85
M16
G05
G00X66.68Y-77.88
M15
G01X66.68Y-76.78
M16
G05
G00X66.68Y-91.95
M15
G01X66.68Y-91.35
M16
G05
G00X66.68Y-96.38
M15
G01X66.68Y-95.28
M16
G05
G00X75.32Y-17.95
M15
G01X75.32Y-17.35
M16
G05
G00X75.32Y-22.38
M15
G01X75.32Y-21.28
M16
G05
G00X75.32Y-36.45
M15
G01X75.32Y-35.85
M16
G05
G00X75.32Y-40.88
M15
G01X75.32Y-39.78
M16
G05
G00X75.32Y-54.95
M15
G01X75.32Y-54.35
M16
G05
G00X75.32Y-59.38
M15
G01X75.32Y-58.28
M16
G05
G00X75.32Y-73.45
M15
G01X75.32Y-72.85
M16
G05
G00X75.32Y-77.88
M15
G01X75.32Y-76.78
M16
G05
G00X75.32Y-91.95
M15
G01X75.32Y-91.35
M16
G05
G00X75.32Y-96.38
M15
G01X75.32Y-95.28
M16
G05
G00X86.68Y-17.95
M15
G01X86.68Y-17.35
M16
G05
G00X86.68Y-22.38
M15
G01X86.68Y-21.28
M16
G05
G00X86.68Y-36.45
M15
G01X86.68Y-35.85
M16
G05
G00X86.68Y-40.88
M15
G01X86.68Y-39.78
M16
G05
G00X86.68Y-54.95
M15
G01X86.68Y-54.35
M16
G05
G00X86.68Y-59.38
M15
G01X86.68Y-58.28
M16
G05
G00X86.68Y-73.45
M15
G01X86.68Y-72.85
M16
G05
G00X86.68Y-77.88
M15
G01X86.68Y-76.78
M16
G05
G00X86.68Y-91.95
M15
G01X86.68Y-91.35
M16
G05
G00X86.68Y-96.38
M15
G01X86.68Y-95.28
M16
G05
G00X95.32Y-17.95
M15
G01X95.32Y-17.35
M16
G05
G00X95.32Y-22.38
M15
G01X95.32Y-21.28
M16
G05
G00X95.32Y-36.45
M15
G01X95.32Y-35.85
M16
G05
G00X95.32Y-40.88
M15
G01X95.32Y-39.78
M16
G05
G00X95.32Y-54.95
M15
G01X95.32Y-54.35
M16
G05
G00X95.32Y-59.38
M15
G01X95.32Y-58.28
M16
G05
G00X95.32Y-73.45
M15
G01X95.32Y-72.85
M16
G05
G00X95.32Y-77.88
M15
G01X95.32Y-76.78
M16
G05
G00X95.32Y-91.95
M15
G01X95.32Y-91.35
M16
G05
G00X95.32Y-96.38
M15
G01X95.32Y-95.28
M16
G05
G00X106.68Y-17.95
M15
G01X106.68Y-17.35
M16
G05
G00X106.68Y-22.38
M15
G01X106.68Y-21.28
M16
G05
G00X106.68Y-36.45
M15
G01X106.68Y-35.85
M16
G05
G00X106.68Y-40.88
M15
G01X106.68Y-39.78
M16
G05
G00X106.68Y-54.95
M15
G01X106.68Y-54.35
M16
G05
G00X106.68Y-59.38
M15
G01X106.68Y-58.28
M16
G05
G00X106.68Y-73.45
M15
G01X106.68Y-72.85
M16
G05
G00X106.68Y-77.88
M15
G01X106.68Y-76.78
M16
G05
G00X106.68Y-91.95
M15
G01X106.68Y-91.35
M16
G05
G00X106.68Y-96.38
M15
G01X106.68Y-95.28
M16
G05
G00X115.32Y-17.95
M15
G01X115.32Y-17.35
M16
G05
G00X115.32Y-22.38
M15
G01X115.32Y-21.28
M16
G05
G00X115.32Y-36.45
M15
G01X115.32Y-35.85
M16
G05
G00X115.32Y-40.88
M15
G01X115.32Y-39.78
M16
G05
G00X115.32Y-54.95
M15
G01X115.32Y-54.35
M16
G05
G00X115.32Y-59.38
M15
G01X115.32Y-58.28
M16
G05
G00X115.32Y-73.45
M15
G01X115.32Y-72.85
M16
G05
G00X115.32Y-77.88
M15
G01X115.32Y-76.78
M16
G05
G00X115.32Y-91.95
M15
G01X115.32Y-91.35
M16
G05
G00X115.32Y-96.38
M15
G01X115.32Y-95.28
M16
G05
T0
M30
