M48
; DRILL file {KiCad 8.0.4} date 2024-09-08T15:35:44+0800
; FORMAT={-:-/ absolute / metric / decimal}
; #@! TF.CreationDate,2024-09-08T15:35:44+08:00
; #@! TF.GenerationSoftware,Kicad,Pcbnew,8.0.4
; #@! TF.FileFunction,Plated,1,2,PTH
FMAT,2
METRIC
; #@! TA.AperFunction,Plated,PTH,ViaDrill
T1C0.350
; #@! TA.AperFunction,Plated,PTH,ComponentDrill
T2C0.600
; #@! TA.AperFunction,Plated,PTH,ComponentDrill
T3C2.100
%
G90
G05
T1
X14.561Y-5.88
X14.561Y-24.38
X14.561Y-42.88
X14.561Y-61.38
X14.561Y-79.88
X15.661Y-4.78
X15.661Y-23.28
X15.661Y-41.78
X15.661Y-60.28
X15.661Y-78.78
X34.561Y-5.88
X34.561Y-24.38
X34.561Y-42.88
X34.561Y-61.38
X34.561Y-79.88
X35.661Y-4.78
X35.661Y-23.28
X35.661Y-41.78
X35.661Y-60.28
X35.661Y-78.78
X54.561Y-5.88
X54.561Y-24.38
X54.561Y-42.88
X54.561Y-61.38
X54.561Y-79.88
X55.661Y-4.78
X55.661Y-23.28
X55.661Y-41.78
X55.661Y-60.28
X55.661Y-78.78
X74.561Y-5.88
X74.561Y-24.38
X74.561Y-42.88
X74.561Y-61.38
X74.561Y-79.88
X75.661Y-4.78
X75.661Y-23.28
X75.661Y-41.78
X75.661Y-60.28
X75.661Y-78.78
X94.561Y-5.88
X94.561Y-24.38
X94.561Y-42.88
X94.561Y-61.38
X94.561Y-79.88
X95.661Y-4.78
X95.661Y-23.28
X95.661Y-41.78
X95.661Y-60.28
X95.661Y-78.78
T3
X9.001Y-2.0
X9.001Y-14.5
X9.001Y-20.5
X9.001Y-33.0
X9.001Y-39.0
X9.001Y-51.5
X9.001Y-57.5
X9.001Y-70.0
X9.001Y-76.0
X9.001Y-88.5
X23.001Y-2.0
X23.001Y-14.5
X23.001Y-20.5
X23.001Y-33.0
X23.001Y-39.0
X23.001Y-51.5
X23.001Y-57.5
X23.001Y-70.0
X23.001Y-76.0
X23.001Y-88.5
X29.001Y-2.0
X29.001Y-14.5
X29.001Y-20.5
X29.001Y-33.0
X29.001Y-39.0
X29.001Y-51.5
X29.001Y-57.5
X29.001Y-70.0
X29.001Y-76.0
X29.001Y-88.5
X43.001Y-2.0
X43.001Y-14.5
X43.001Y-20.5
X43.001Y-33.0
X43.001Y-39.0
X43.001Y-51.5
X43.001Y-57.5
X43.001Y-70.0
X43.001Y-76.0
X43.001Y-88.5
X49.001Y-2.0
X49.001Y-14.5
X49.001Y-20.5
X49.001Y-33.0
X49.001Y-39.0
X49.001Y-51.5
X49.001Y-57.5
X49.001Y-70.0
X49.001Y-76.0
X49.001Y-88.5
X63.001Y-2.0
X63.001Y-14.5
X63.001Y-20.5
X63.001Y-33.0
X63.001Y-39.0
X63.001Y-51.5
X63.001Y-57.5
X63.001Y-70.0
X63.001Y-76.0
X63.001Y-88.5
X69.001Y-2.0
X69.001Y-14.5
X69.001Y-20.5
X69.001Y-33.0
X69.001Y-39.0
X69.001Y-51.5
X69.001Y-57.5
X69.001Y-70.0
X69.001Y-76.0
X69.001Y-88.5
X83.001Y-2.0
X83.001Y-14.5
X83.001Y-20.5
X83.001Y-33.0
X83.001Y-39.0
X83.001Y-51.5
X83.001Y-57.5
X83.001Y-70.0
X83.001Y-76.0
X83.001Y-88.5
X89.001Y-2.0
X89.001Y-14.5
X89.001Y-20.5
X89.001Y-33.0
X89.001Y-39.0
X89.001Y-51.5
X89.001Y-57.5
X89.001Y-70.0
X89.001Y-76.0
X89.001Y-88.5
X103.001Y-2.0
X103.001Y-14.5
X103.001Y-20.5
X103.001Y-33.0
X103.001Y-39.0
X103.001Y-51.5
X103.001Y-57.5
X103.001Y-70.0
X103.001Y-76.0
X103.001Y-88.5
T2
G00X11.681Y-2.95
M15
G01X11.681Y-2.35
M16
G05
G00X11.681Y-7.13
M15
G01X11.681Y-6.53
M16
G05
G00X11.681Y-21.45
M15
G01X11.681Y-20.85
M16
G05
G00X11.681Y-25.63
M15
G01X11.681Y-25.03
M16
G05
G00X11.681Y-39.95
M15
G01X11.681Y-39.35
M16
G05
G00X11.681Y-44.13
M15
G01X11.681Y-43.53
M16
G05
G00X11.681Y-58.45
M15
G01X11.681Y-57.85
M16
G05
G00X11.681Y-62.63
M15
G01X11.681Y-62.03
M16
G05
G00X11.681Y-76.95
M15
G01X11.681Y-76.35
M16
G05
G00X11.681Y-81.13
M15
G01X11.681Y-80.53
M16
G05
G00X20.321Y-2.95
M15
G01X20.321Y-2.35
M16
G05
G00X20.321Y-7.13
M15
G01X20.321Y-6.53
M16
G05
G00X20.321Y-21.45
M15
G01X20.321Y-20.85
M16
G05
G00X20.321Y-25.63
M15
G01X20.321Y-25.03
M16
G05
G00X20.321Y-39.95
M15
G01X20.321Y-39.35
M16
G05
G00X20.321Y-44.13
M15
G01X20.321Y-43.53
M16
G05
G00X20.321Y-58.45
M15
G01X20.321Y-57.85
M16
G05
G00X20.321Y-62.63
M15
G01X20.321Y-62.03
M16
G05
G00X20.321Y-76.95
M15
G01X20.321Y-76.35
M16
G05
G00X20.321Y-81.13
M15
G01X20.321Y-80.53
M16
G05
G00X31.681Y-2.95
M15
G01X31.681Y-2.35
M16
G05
G00X31.681Y-7.13
M15
G01X31.681Y-6.53
M16
G05
G00X31.681Y-21.45
M15
G01X31.681Y-20.85
M16
G05
G00X31.681Y-25.63
M15
G01X31.681Y-25.03
M16
G05
G00X31.681Y-39.95
M15
G01X31.681Y-39.35
M16
G05
G00X31.681Y-44.13
M15
G01X31.681Y-43.53
M16
G05
G00X31.681Y-58.45
M15
G01X31.681Y-57.85
M16
G05
G00X31.681Y-62.63
M15
G01X31.681Y-62.03
M16
G05
G00X31.681Y-76.95
M15
G01X31.681Y-76.35
M16
G05
G00X31.681Y-81.13
M15
G01X31.681Y-80.53
M16
G05
G00X40.321Y-2.95
M15
G01X40.321Y-2.35
M16
G05
G00X40.321Y-7.13
M15
G01X40.321Y-6.53
M16
G05
G00X40.321Y-21.45
M15
G01X40.321Y-20.85
M16
G05
G00X40.321Y-25.63
M15
G01X40.321Y-25.03
M16
G05
G00X40.321Y-39.95
M15
G01X40.321Y-39.35
M16
G05
G00X40.321Y-44.13
M15
G01X40.321Y-43.53
M16
G05
G00X40.321Y-58.45
M15
G01X40.321Y-57.85
M16
G05
G00X40.321Y-62.63
M15
G01X40.321Y-62.03
M16
G05
G00X40.321Y-76.95
M15
G01X40.321Y-76.35
M16
G05
G00X40.321Y-81.13
M15
G01X40.321Y-80.53
M16
G05
G00X51.681Y-2.95
M15
G01X51.681Y-2.35
M16
G05
G00X51.681Y-7.13
M15
G01X51.681Y-6.53
M16
G05
G00X51.681Y-21.45
M15
G01X51.681Y-20.85
M16
G05
G00X51.681Y-25.63
M15
G01X51.681Y-25.03
M16
G05
G00X51.681Y-39.95
M15
G01X51.681Y-39.35
M16
G05
G00X51.681Y-44.13
M15
G01X51.681Y-43.53
M16
G05
G00X51.681Y-58.45
M15
G01X51.681Y-57.85
M16
G05
G00X51.681Y-62.63
M15
G01X51.681Y-62.03
M16
G05
G00X51.681Y-76.95
M15
G01X51.681Y-76.35
M16
G05
G00X51.681Y-81.13
M15
G01X51.681Y-80.53
M16
G05
G00X60.321Y-2.95
M15
G01X60.321Y-2.35
M16
G05
G00X60.321Y-7.13
M15
G01X60.321Y-6.53
M16
G05
G00X60.321Y-21.45
M15
G01X60.321Y-20.85
M16
G05
G00X60.321Y-25.63
M15
G01X60.321Y-25.03
M16
G05
G00X60.321Y-39.95
M15
G01X60.321Y-39.35
M16
G05
G00X60.321Y-44.13
M15
G01X60.321Y-43.53
M16
G05
G00X60.321Y-58.45
M15
G01X60.321Y-57.85
M16
G05
G00X60.321Y-62.63
M15
G01X60.321Y-62.03
M16
G05
G00X60.321Y-76.95
M15
G01X60.321Y-76.35
M16
G05
G00X60.321Y-81.13
M15
G01X60.321Y-80.53
M16
G05
G00X71.681Y-2.95
M15
G01X71.681Y-2.35
M16
G05
G00X71.681Y-7.13
M15
G01X71.681Y-6.53
M16
G05
G00X71.681Y-21.45
M15
G01X71.681Y-20.85
M16
G05
G00X71.681Y-25.63
M15
G01X71.681Y-25.03
M16
G05
G00X71.681Y-39.95
M15
G01X71.681Y-39.35
M16
G05
G00X71.681Y-44.13
M15
G01X71.681Y-43.53
M16
G05
G00X71.681Y-58.45
M15
G01X71.681Y-57.85
M16
G05
G00X71.681Y-62.63
M15
G01X71.681Y-62.03
M16
G05
G00X71.681Y-76.95
M15
G01X71.681Y-76.35
M16
G05
G00X71.681Y-81.13
M15
G01X71.681Y-80.53
M16
G05
G00X80.321Y-2.95
M15
G01X80.321Y-2.35
M16
G05
G00X80.321Y-7.13
M15
G01X80.321Y-6.53
M16
G05
G00X80.321Y-21.45
M15
G01X80.321Y-20.85
M16
G05
G00X80.321Y-25.63
M15
G01X80.321Y-25.03
M16
G05
G00X80.321Y-39.95
M15
G01X80.321Y-39.35
M16
G05
G00X80.321Y-44.13
M15
G01X80.321Y-43.53
M16
G05
G00X80.321Y-58.45
M15
G01X80.321Y-57.85
M16
G05
G00X80.321Y-62.63
M15
G01X80.321Y-62.03
M16
G05
G00X80.321Y-76.95
M15
G01X80.321Y-76.35
M16
G05
G00X80.321Y-81.13
M15
G01X80.321Y-80.53
M16
G05
G00X91.681Y-2.95
M15
G01X91.681Y-2.35
M16
G05
G00X91.681Y-7.13
M15
G01X91.681Y-6.53
M16
G05
G00X91.681Y-21.45
M15
G01X91.681Y-20.85
M16
G05
G00X91.681Y-25.63
M15
G01X91.681Y-25.03
M16
G05
G00X91.681Y-39.95
M15
G01X91.681Y-39.35
M16
G05
G00X91.681Y-44.13
M15
G01X91.681Y-43.53
M16
G05
G00X91.681Y-58.45
M15
G01X91.681Y-57.85
M16
G05
G00X91.681Y-62.63
M15
G01X91.681Y-62.03
M16
G05
G00X91.681Y-76.95
M15
G01X91.681Y-76.35
M16
G05
G00X91.681Y-81.13
M15
G01X91.681Y-80.53
M16
G05
G00X100.321Y-2.95
M15
G01X100.321Y-2.35
M16
G05
G00X100.321Y-7.13
M15
G01X100.321Y-6.53
M16
G05
G00X100.321Y-21.45
M15
G01X100.321Y-20.85
M16
G05
G00X100.321Y-25.63
M15
G01X100.321Y-25.03
M16
G05
G00X100.321Y-39.95
M15
G01X100.321Y-39.35
M16
G05
G00X100.321Y-44.13
M15
G01X100.321Y-43.53
M16
G05
G00X100.321Y-58.45
M15
G01X100.321Y-57.85
M16
G05
G00X100.321Y-62.63
M15
G01X100.321Y-62.03
M16
G05
G00X100.321Y-76.95
M15
G01X100.321Y-76.35
M16
G05
G00X100.321Y-81.13
M15
G01X100.321Y-80.53
M16
G05
M30
