%TF.GenerationSoftware,KiCad,Pcbnew,8.0.4*%
%TF.CreationDate,2024-09-08T15:35:45+08:00*%
%TF.ProjectId,c3-fpc-panelized_output,63332d66-7063-42d7-9061-6e656c697a65,rev?*%
%TF.SameCoordinates,PX5836c38PY1312d00*%
%TF.FileFunction,Profile,NP*%
%FSLAX46Y46*%
G04 Gerber Fmt 4.6, Leading zero omitted, Abs format (unit mm)*
G04 Created by KiCad (PCBNEW 8.0.4) date 2024-09-08 15:35:45*
%MOMM*%
%LPD*%
G01*
G04 APERTURE LIST*
%TA.AperFunction,Profile*%
%ADD10C,0.100000*%
%TD*%
G04 APERTURE END LIST*
D10*
X47205390Y-89380788D02*
X47252306Y-89470603D01*
X67483483Y-19197255D02*
X67419448Y-19275788D01*
X85001000Y-14500000D02*
X85001000Y-10250000D01*
X47252306Y-70970603D02*
X47303711Y-71057928D01*
X84909278Y-70598726D02*
X84937154Y-70501305D01*
X47551414Y-19122066D02*
X47483483Y-19197255D01*
X28402273Y-71908278D02*
X28499694Y-71936154D01*
X43599726Y-55591721D02*
X43502305Y-55563845D01*
X104582551Y-71224211D02*
X104642526Y-71142536D01*
X103203336Y-34989738D02*
X103303855Y-34976936D01*
X84909278Y-15098726D02*
X84937154Y-15001305D01*
X84838915Y-89288711D02*
X84876504Y-89194610D01*
X68598402Y-74040940D02*
X68499694Y-74063845D01*
X65001000Y-84250000D02*
X66000000Y-84250000D01*
X43789711Y-16337915D02*
X43881788Y-16295609D01*
X44998433Y-1898701D02*
X44990738Y-1797663D01*
X64303744Y-37482483D02*
X64225211Y-37418448D01*
X27003566Y-88601298D02*
X27011261Y-88702336D01*
X68402273Y-91721D02*
X68306389Y-124495D01*
X104796609Y-75119211D02*
X104749693Y-75029396D01*
X44876504Y-1305389D02*
X44838915Y-1211288D01*
X104796609Y-33880788D02*
X104838915Y-33788711D01*
X44225211Y-37418448D02*
X44143536Y-37358473D01*
X44998433Y-57398701D02*
X44990738Y-57297663D01*
X27003566Y-57398701D02*
X27001000Y-57500000D01*
X43203336Y-18510261D02*
X43102298Y-18502566D01*
X7205390Y-19619211D02*
X7163084Y-19711288D01*
X8120211Y-18704390D02*
X8030396Y-18751306D01*
X64698288Y-15557928D02*
X64749693Y-15470603D01*
X84582551Y-89724211D02*
X84642526Y-89642536D01*
X67698255Y-18982483D02*
X67623066Y-19050414D01*
X44796609Y-70880788D02*
X44838915Y-70788711D01*
X7419448Y-19275788D02*
X7359473Y-19357463D01*
X87419448Y-52724211D02*
X87483483Y-52802744D01*
X104582551Y-56275788D02*
X104518516Y-56197255D01*
X63502305Y-71936154D02*
X63599726Y-71908278D01*
X84749693Y-89470603D02*
X84796609Y-89380788D01*
X69001000Y-18500000D02*
X68899701Y-18502566D01*
X104998433Y-20398701D02*
X104990738Y-20297663D01*
X47943071Y-90197288D02*
X48030396Y-90248693D01*
X44796609Y-1119211D02*
X44749693Y-1029396D01*
X104642526Y-74857463D02*
X104582551Y-74775788D01*
X84990738Y-1797663D02*
X84977936Y-1697144D01*
X27092721Y-33598726D02*
X27125495Y-33694610D01*
X27024063Y-33302855D02*
X27041940Y-33402597D01*
X104909278Y-15098726D02*
X104937154Y-15001305D01*
X87698255Y-37482483D02*
X87623066Y-37550414D01*
X24998433Y-57398701D02*
X24990738Y-57297663D01*
X47698255Y-34517516D02*
X47776788Y-34581551D01*
X27064845Y-70501305D02*
X27092721Y-70598726D01*
X25001000Y-57500000D02*
X24998433Y-57398701D01*
X104450585Y-71377933D02*
X104518516Y-71302744D01*
X27551414Y-15877933D02*
X27623066Y-15949585D01*
X27943071Y-16197288D02*
X28030396Y-16248693D01*
X48899701Y-18502566D02*
X48798663Y-18510261D01*
X7205390Y-70880788D02*
X7252306Y-70970603D01*
X9001000Y-35000000D02*
X23001000Y-35000000D01*
X64838915Y-15288711D02*
X64876504Y-15194610D01*
X47125495Y-52194610D02*
X47163084Y-52288711D01*
X44937154Y-38498694D02*
X44909278Y-38401273D01*
X84582551Y-34224211D02*
X84642526Y-34142536D01*
X104698288Y-74942071D02*
X104642526Y-74857463D01*
X88306389Y-74124495D02*
X88212288Y-74162084D01*
X64796609Y-1119211D02*
X64749693Y-1029396D01*
X23203336Y-74010261D02*
X23102298Y-74002566D01*
X46002000Y-61750000D02*
X46000000Y-61750000D01*
X24960059Y-33402597D02*
X24977936Y-33302855D01*
X64518516Y-19197255D02*
X64450585Y-19122066D01*
X88698144Y-23063D02*
X88598402Y-40940D01*
X84058928Y-53197288D02*
X84143536Y-53141526D01*
X24378933Y-89949585D02*
X24450585Y-89877933D01*
X44378933Y-56050414D02*
X44303744Y-55982483D01*
X87551414Y-71377933D02*
X87623066Y-71449585D01*
X24937154Y-75498694D02*
X24909278Y-75401273D01*
X84642526Y-857463D02*
X84582551Y-775788D01*
X87303711Y-19442071D02*
X87252306Y-19529396D01*
X8212288Y-71837915D02*
X8306389Y-71875504D01*
X84876504Y-1305389D02*
X84838915Y-1211288D01*
X43599726Y-90408278D02*
X43695610Y-90375504D01*
X84937154Y-15001305D02*
X84960059Y-14902597D01*
X87943071Y-71697288D02*
X88030396Y-71748693D01*
X8698144Y-23063D02*
X8598402Y-40940D01*
X44698288Y-15557928D02*
X44749693Y-15470603D01*
X83789711Y-16337915D02*
X83881788Y-16295609D01*
X63971603Y-37251306D02*
X63881788Y-37204390D01*
X67303711Y-71057928D02*
X67359473Y-71142536D01*
X23971603Y-90248693D02*
X24058928Y-90197288D01*
X8899701Y-53497433D02*
X9001000Y-53500000D01*
X43102298Y-18502566D02*
X43001000Y-18500000D01*
X44225211Y-71581551D02*
X44303744Y-71517516D01*
X84998433Y-33101298D02*
X85001000Y-33000000D01*
X68899701Y-16497433D02*
X69001000Y-16500000D01*
X63881788Y-34795609D02*
X63971603Y-34748693D01*
X87252306Y-56529396D02*
X87205390Y-56619211D01*
X83971603Y-53248693D02*
X84058928Y-53197288D01*
X5000000Y-90500000D02*
X5000000Y-84250000D01*
X87001000Y-57500000D02*
X87001000Y-61750000D01*
X104909278Y-56901273D02*
X104876504Y-56805389D01*
X68402273Y-37091721D02*
X68306389Y-37124495D01*
X104749693Y-15470603D02*
X104796609Y-15380788D01*
X44143536Y-53141526D02*
X44225211Y-53081551D01*
X28306389Y-71875504D02*
X28402273Y-71908278D01*
X67303711Y-52557928D02*
X67359473Y-52642536D01*
X44838915Y-38211288D02*
X44796609Y-38119211D01*
X47003566Y-33101298D02*
X47011261Y-33202336D01*
X68306389Y-74124495D02*
X68212288Y-74162084D01*
X87001000Y-20500000D02*
X87001000Y-24750000D01*
X23001000Y-16500000D02*
X23102298Y-16497433D01*
X27163084Y-89288711D02*
X27205390Y-89380788D01*
X88598402Y-71959059D02*
X88698144Y-71976936D01*
X67551414Y-56122066D02*
X67483483Y-56197255D01*
X43695610Y-71875504D02*
X43789711Y-71837915D01*
X87359473Y-71142536D02*
X87419448Y-71224211D01*
X43203336Y-53489738D02*
X43303855Y-53476936D01*
X8598402Y-55540940D02*
X8499694Y-55563845D01*
X27024063Y-51802855D02*
X27041940Y-51902597D01*
X64450585Y-52877933D02*
X64518516Y-52802744D01*
X104303744Y-482483D02*
X104225211Y-418448D01*
X27303711Y-89557928D02*
X27359473Y-89642536D01*
X67359473Y-857463D02*
X67303711Y-942071D01*
X67698255Y-55982483D02*
X67623066Y-56050414D01*
X28798663Y-90489738D02*
X28899701Y-90497433D01*
X87551414Y-19122066D02*
X87483483Y-19197255D01*
X48798663Y-55510261D02*
X48698144Y-55523063D01*
X87483483Y-52802744D02*
X87551414Y-52877933D01*
X84977936Y-33302855D02*
X84990738Y-33202336D01*
X47698255Y-71517516D02*
X47776788Y-71581551D01*
X8120211Y-74204390D02*
X8030396Y-74251306D01*
X63789711Y-71837915D02*
X63881788Y-71795609D01*
X27483483Y-74697255D02*
X27419448Y-74775788D01*
X84143536Y-53141526D02*
X84225211Y-53081551D01*
X23102298Y-71997433D02*
X23203336Y-71989738D01*
X103695610Y-18624495D02*
X103599726Y-18591721D01*
X27943071Y-18802711D02*
X27858463Y-18858473D01*
X87163084Y-1211288D02*
X87125495Y-1305389D01*
X44698288Y-19442071D02*
X44642526Y-19357463D01*
X104990738Y-70202336D02*
X104998433Y-70101298D01*
X107002000Y-24750000D02*
X105001000Y-24750000D01*
X47011261Y-20297663D02*
X47003566Y-20398701D01*
X27163084Y-75211288D02*
X27125495Y-75305389D01*
X27001000Y-2000000D02*
X27001000Y-6250000D01*
X104998433Y-70101298D02*
X105001000Y-70000000D01*
X27092721Y-52098726D02*
X27125495Y-52194610D01*
X47041940Y-38597402D02*
X47024063Y-38697144D01*
X83102298Y-90497433D02*
X83203336Y-90489738D01*
X7419448Y-89724211D02*
X7483483Y-89802744D01*
X26000000Y-24750000D02*
X25001000Y-24750000D01*
X8120211Y-16295609D02*
X8212288Y-16337915D01*
X83001000Y-74000000D02*
X69001000Y-74000000D01*
X25001000Y-20500000D02*
X24998433Y-20398701D01*
X8306389Y-37124495D02*
X8212288Y-37162084D01*
X103403597Y-55540940D02*
X103303855Y-55523063D01*
X24909278Y-70598726D02*
X24937154Y-70501305D01*
X7205390Y-52380788D02*
X7252306Y-52470603D01*
X87011261Y-20297663D02*
X87003566Y-20398701D01*
X27041940Y-1597402D02*
X27024063Y-1697144D01*
X47776788Y-55918448D02*
X47698255Y-55982483D01*
X7698255Y-74482483D02*
X7623066Y-74550414D01*
X27125495Y-70694610D02*
X27163084Y-70788711D01*
X64909278Y-89098726D02*
X64937154Y-89001305D01*
X48798663Y-71989738D02*
X48899701Y-71997433D01*
X47024063Y-75697144D02*
X47011261Y-75797663D01*
X27551414Y-71377933D02*
X27623066Y-71449585D01*
X103695610Y-53375504D02*
X103789711Y-53337915D01*
X88698144Y-71976936D02*
X88798663Y-71989738D01*
X8798663Y-34989738D02*
X8899701Y-34997433D01*
X63203336Y-90489738D02*
X63303855Y-90476936D01*
X23971603Y-71748693D02*
X24058928Y-71697288D01*
X7483483Y-71302744D02*
X7551414Y-71377933D01*
X63502305Y-53436154D02*
X63599726Y-53408278D01*
X64990738Y-38797663D02*
X64977936Y-38697144D01*
X26000000Y-80250000D02*
X25001000Y-80250000D01*
X44143536Y-358473D02*
X44058928Y-302711D01*
X48598402Y-18540940D02*
X48499694Y-18563845D01*
X69001000Y-16500000D02*
X83001000Y-16500000D01*
X63599726Y-18591721D02*
X63502305Y-18563845D01*
X104143536Y-37358473D02*
X104058928Y-37302711D01*
X44058928Y-37302711D02*
X43971603Y-37251306D01*
X67419448Y-775788D02*
X67359473Y-857463D01*
X64876504Y-19805389D02*
X64838915Y-19711288D01*
X67943071Y-55802711D02*
X67858463Y-55858473D01*
X44998433Y-38898701D02*
X44990738Y-38797663D01*
X7092721Y-19901273D02*
X7064845Y-19998694D01*
X103789711Y-53337915D02*
X103881788Y-53295609D01*
X69001000Y-55500000D02*
X68899701Y-55502566D01*
X84960059Y-20097402D02*
X84937154Y-19998694D01*
X43102298Y-71997433D02*
X43203336Y-71989738D01*
X43502305Y-16436154D02*
X43599726Y-16408278D01*
X7858463Y-18858473D02*
X7776788Y-18918448D01*
X67419448Y-89724211D02*
X67483483Y-89802744D01*
X67551414Y-19122066D02*
X67483483Y-19197255D01*
X27001000Y-88500000D02*
X27003566Y-88601298D01*
X63102298Y-2566D02*
X63001000Y0D01*
X64990738Y-51702336D02*
X64998433Y-51601298D01*
X48402273Y-90408278D02*
X48499694Y-90436154D01*
X87303711Y-942071D02*
X87252306Y-1029396D01*
X88598402Y-18540940D02*
X88499694Y-18563845D01*
X27359473Y-19357463D02*
X27303711Y-19442071D01*
X63203336Y-34989738D02*
X63303855Y-34976936D01*
X47303711Y-71057928D02*
X47359473Y-71142536D01*
X104378933Y-56050414D02*
X104303744Y-55982483D01*
X67011261Y-38797663D02*
X67003566Y-38898701D01*
X47024063Y-57197144D02*
X47011261Y-57297663D01*
X43303855Y-34976936D02*
X43403597Y-34959059D01*
X104937154Y-38498694D02*
X104909278Y-38401273D01*
X85001000Y-39000000D02*
X84998433Y-38898701D01*
X23789711Y-90337915D02*
X23881788Y-90295609D01*
X84518516Y-19197255D02*
X84450585Y-19122066D01*
X23403597Y-16459059D02*
X23502305Y-16436154D01*
X7163084Y-1211288D02*
X7125495Y-1305389D01*
X83001000Y-37000000D02*
X69001000Y-37000000D01*
X88698144Y-90476936D02*
X88798663Y-90489738D01*
X24378933Y-34449585D02*
X24450585Y-34377933D01*
X8030396Y-18751306D02*
X7943071Y-18802711D01*
X68120211Y-18704390D02*
X68030396Y-18751306D01*
X67303711Y-74942071D02*
X67252306Y-75029396D01*
X47205390Y-15380788D02*
X47252306Y-15470603D01*
X68120211Y-53295609D02*
X68212288Y-53337915D01*
X47943071Y-302711D02*
X47858463Y-358473D01*
X47205390Y-56619211D02*
X47163084Y-56711288D01*
X48598402Y-37040940D02*
X48499694Y-37063845D01*
X64582551Y-71224211D02*
X64642526Y-71142536D01*
X103203336Y-71989738D02*
X103303855Y-71976936D01*
X23203336Y-37010261D02*
X23102298Y-37002566D01*
X43881788Y-55704390D02*
X43789711Y-55662084D01*
X63203336Y-10261D02*
X63102298Y-2566D01*
X28499694Y-18563845D02*
X28402273Y-18591721D01*
X24698288Y-56442071D02*
X24642526Y-56357463D01*
X68030396Y-251306D02*
X67943071Y-302711D01*
X67858463Y-34641526D02*
X67943071Y-34697288D01*
X104698288Y-15557928D02*
X104749693Y-15470603D01*
X23303855Y-90476936D02*
X23403597Y-90459059D01*
X24796609Y-19619211D02*
X24749693Y-19529396D01*
X27551414Y-37622066D02*
X27483483Y-37697255D01*
X47419448Y-52724211D02*
X47483483Y-52802744D01*
X103303855Y-53476936D02*
X103403597Y-53459059D01*
X7064845Y-70501305D02*
X7092721Y-70598726D01*
X103303855Y-55523063D02*
X103203336Y-55510261D01*
X104518516Y-52802744D02*
X104582551Y-52724211D01*
X24876504Y-70694610D02*
X24909278Y-70598726D01*
X27776788Y-34581551D02*
X27858463Y-34641526D01*
X67483483Y-56197255D02*
X67419448Y-56275788D01*
X24977936Y-51802855D02*
X24990738Y-51702336D01*
X103203336Y-18510261D02*
X103102298Y-18502566D01*
X27303711Y-74942071D02*
X27252306Y-75029396D01*
X7551414Y-19122066D02*
X7483483Y-19197255D01*
X87001000Y-47250000D02*
X87001000Y-51500000D01*
X44698288Y-34057928D02*
X44749693Y-33970603D01*
X64796609Y-89380788D02*
X64838915Y-89288711D01*
X87623066Y-34449585D02*
X87698255Y-34517516D01*
X47024063Y-20197144D02*
X47011261Y-20297663D01*
X24378933Y-19050414D02*
X24303744Y-18982483D01*
X47303711Y-34057928D02*
X47359473Y-34142536D01*
X67205390Y-19619211D02*
X67163084Y-19711288D01*
X64990738Y-20297663D02*
X64977936Y-20197144D01*
X43303855Y-18523063D02*
X43203336Y-18510261D01*
X28306389Y-16375504D02*
X28402273Y-16408278D01*
X47623066Y-15949585D02*
X47698255Y-16017516D01*
X24698288Y-52557928D02*
X24749693Y-52470603D01*
X104937154Y-75498694D02*
X104909278Y-75401273D01*
X8598402Y-90459059D02*
X8698144Y-90476936D01*
X83001000Y-90500000D02*
X83102298Y-90497433D01*
X64876504Y-89194610D02*
X64909278Y-89098726D01*
X27252306Y-70970603D02*
X27303711Y-71057928D01*
X27252306Y-56529396D02*
X27205390Y-56619211D01*
X68598402Y-18540940D02*
X68499694Y-18563845D01*
X84960059Y-1597402D02*
X84937154Y-1498694D01*
X105001000Y-6250000D02*
X105001000Y-2000000D01*
X23599726Y-91721D02*
X23502305Y-63845D01*
X23971603Y-18751306D02*
X23881788Y-18704390D01*
X47776788Y-71581551D02*
X47858463Y-71641526D01*
X64642526Y-71142536D02*
X64698288Y-71057928D01*
X24960059Y-14902597D02*
X24977936Y-14802855D01*
X47205390Y-75119211D02*
X47163084Y-75211288D01*
X84937154Y-75498694D02*
X84909278Y-75401273D01*
X64303744Y-16017516D02*
X64378933Y-15949585D01*
X67092721Y-15098726D02*
X67125495Y-15194610D01*
X103001000Y0D02*
X89001000Y0D01*
X7205390Y-1119211D02*
X7163084Y-1211288D01*
X44378933Y-52949585D02*
X44450585Y-52877933D01*
X8698144Y-16476936D02*
X8798663Y-16489738D01*
X47092721Y-75401273D02*
X47064845Y-75498694D01*
X64378933Y-550414D02*
X64303744Y-482483D01*
X27776788Y-74418448D02*
X27698255Y-74482483D01*
X7359473Y-15642536D02*
X7419448Y-15724211D01*
X27205390Y-1119211D02*
X27163084Y-1211288D01*
X7205390Y-75119211D02*
X7163084Y-75211288D01*
X27011261Y-57297663D02*
X27003566Y-57398701D01*
X47551414Y-71377933D02*
X47623066Y-71449585D01*
X64058928Y-55802711D02*
X63971603Y-55751306D01*
X7205390Y-89380788D02*
X7252306Y-89470603D01*
X67041940Y-1597402D02*
X67024063Y-1697144D01*
X104937154Y-70501305D02*
X104960059Y-70402597D01*
X24642526Y-19357463D02*
X24582551Y-19275788D01*
X63102298Y-71997433D02*
X63203336Y-71989738D01*
X88698144Y-18523063D02*
X88598402Y-18540940D01*
X44303744Y-482483D02*
X44225211Y-418448D01*
X87041940Y-20097402D02*
X87024063Y-20197144D01*
X65001000Y-88500000D02*
X65001000Y-84250000D01*
X63403597Y-53459059D02*
X63502305Y-53436154D01*
X84225211Y-74418448D02*
X84143536Y-74358473D01*
X84909278Y-75401273D02*
X84876504Y-75305389D01*
X45001000Y-10250000D02*
X46000000Y-10250000D01*
X103881788Y-37204390D02*
X103789711Y-37162084D01*
X48499694Y-55563845D02*
X48402273Y-55591721D01*
X87303711Y-34057928D02*
X87359473Y-34142536D01*
X24876504Y-75305389D02*
X24838915Y-75211288D01*
X67064845Y-75498694D02*
X67041940Y-75597402D01*
X27858463Y-71641526D02*
X27943071Y-71697288D01*
X47858463Y-71641526D02*
X47943071Y-71697288D01*
X23502305Y-18563845D02*
X23403597Y-18540940D01*
X87001000Y-76000000D02*
X87001000Y-80250000D01*
X24796609Y-38119211D02*
X24749693Y-38029396D01*
X64977936Y-14802855D02*
X64990738Y-14702336D01*
X28402273Y-37091721D02*
X28306389Y-37124495D01*
X88598402Y-16459059D02*
X88698144Y-16476936D01*
X103695610Y-71875504D02*
X103789711Y-71837915D01*
X7623066Y-74550414D02*
X7551414Y-74622066D01*
X43502305Y-37063845D02*
X43403597Y-37040940D01*
X44909278Y-52098726D02*
X44937154Y-52001305D01*
X27041940Y-75597402D02*
X27024063Y-75697144D01*
X87698255Y-18982483D02*
X87623066Y-19050414D01*
X83303855Y-23063D02*
X83203336Y-10261D01*
X23881788Y-55704390D02*
X23789711Y-55662084D01*
X67125495Y-70694610D02*
X67163084Y-70788711D01*
X87011261Y-70202336D02*
X87024063Y-70302855D01*
X83403597Y-71959059D02*
X83502305Y-71936154D01*
X103502305Y-74063845D02*
X103403597Y-74040940D01*
X43303855Y-74023063D02*
X43203336Y-74010261D01*
X84518516Y-74697255D02*
X84450585Y-74622066D01*
X83403597Y-53459059D02*
X83502305Y-53436154D01*
X103203336Y-16489738D02*
X103303855Y-16476936D01*
X7359473Y-34142536D02*
X7419448Y-34224211D01*
X27125495Y-38305389D02*
X27092721Y-38401273D01*
X7024063Y-88802855D02*
X7041940Y-88902597D01*
X47092721Y-52098726D02*
X47125495Y-52194610D01*
X67024063Y-38697144D02*
X67011261Y-38797663D01*
X84749693Y-52470603D02*
X84796609Y-52380788D01*
X63881788Y-18704390D02*
X63789711Y-18662084D01*
X104937154Y-33501305D02*
X104960059Y-33402597D01*
X24303744Y-16017516D02*
X24378933Y-15949585D01*
X47943071Y-34697288D02*
X48030396Y-34748693D01*
X63303855Y-71976936D02*
X63403597Y-71959059D01*
X5000000Y-28750000D02*
X7001000Y-28750000D01*
X104909278Y-38401273D02*
X104876504Y-38305389D01*
X7011261Y-14702336D02*
X7024063Y-14802855D01*
X47623066Y-550414D02*
X47551414Y-622066D01*
X104582551Y-74775788D02*
X104518516Y-74697255D01*
X7698255Y-53017516D02*
X7776788Y-53081551D01*
X103403597Y-71959059D02*
X103502305Y-71936154D01*
X7092721Y-33598726D02*
X7125495Y-33694610D01*
X7125495Y-33694610D02*
X7163084Y-33788711D01*
X47092721Y-89098726D02*
X47125495Y-89194610D01*
X44909278Y-1401273D02*
X44876504Y-1305389D01*
X87858463Y-16141526D02*
X87943071Y-16197288D01*
X47001000Y-65750000D02*
X47001000Y-70000000D01*
X104058928Y-74302711D02*
X103971603Y-74251306D01*
X68306389Y-53375504D02*
X68402273Y-53408278D01*
X87419448Y-19275788D02*
X87359473Y-19357463D01*
X23502305Y-16436154D02*
X23599726Y-16408278D01*
X27551414Y-622066D02*
X27483483Y-697255D01*
X67125495Y-1305389D02*
X67092721Y-1401273D01*
X104937154Y-15001305D02*
X104960059Y-14902597D01*
X86000000Y-65750000D02*
X86002000Y-65750000D01*
X43695610Y-53375504D02*
X43789711Y-53337915D01*
X67623066Y-34449585D02*
X67698255Y-34517516D01*
X63502305Y-55563845D02*
X63403597Y-55540940D01*
X105001000Y-65750000D02*
X107002000Y-65750000D01*
X44977936Y-1697144D02*
X44960059Y-1597402D01*
X64518516Y-37697255D02*
X64450585Y-37622066D01*
X24450585Y-71377933D02*
X24518516Y-71302744D01*
X104796609Y-15380788D02*
X104838915Y-15288711D01*
X87011261Y-88702336D02*
X87024063Y-88802855D01*
X104909278Y-19901273D02*
X104876504Y-19805389D01*
X83303855Y-90476936D02*
X83403597Y-90459059D01*
X7041940Y-33402597D02*
X7064845Y-33501305D01*
X67205390Y-56619211D02*
X67163084Y-56711288D01*
X8798663Y-16489738D02*
X8899701Y-16497433D01*
X44698288Y-89557928D02*
X44749693Y-89470603D01*
X63001000Y-74000000D02*
X49001000Y-74000000D01*
X104378933Y-71449585D02*
X104450585Y-71377933D01*
X7011261Y-88702336D02*
X7024063Y-88802855D01*
X104876504Y-75305389D02*
X104838915Y-75211288D01*
X63881788Y-37204390D02*
X63789711Y-37162084D01*
X23303855Y-74023063D02*
X23203336Y-74010261D01*
X24998433Y-33101298D02*
X25001000Y-33000000D01*
X44977936Y-57197144D02*
X44960059Y-57097402D01*
X24977936Y-1697144D02*
X24960059Y-1597402D01*
X83789711Y-162084D02*
X83695610Y-124495D01*
X87024063Y-1697144D02*
X87011261Y-1797663D01*
X28798663Y-37010261D02*
X28698144Y-37023063D01*
X24518516Y-19197255D02*
X24450585Y-19122066D01*
X26002000Y-47250000D02*
X27001000Y-47250000D01*
X67001000Y-70000000D02*
X67003566Y-70101298D01*
X44960059Y-51902597D02*
X44977936Y-51802855D01*
X63599726Y-71908278D02*
X63695610Y-71875504D01*
X84143536Y-71641526D02*
X84225211Y-71581551D01*
X103303855Y-74023063D02*
X103203336Y-74010261D01*
X45001000Y-65750000D02*
X46000000Y-65750000D01*
X8402273Y-53408278D02*
X8499694Y-53436154D01*
X83881788Y-37204390D02*
X83789711Y-37162084D01*
X27252306Y-52470603D02*
X27303711Y-52557928D01*
X84518516Y-56197255D02*
X84450585Y-56122066D01*
X64642526Y-34142536D02*
X64698288Y-34057928D01*
X24225211Y-74418448D02*
X24143536Y-74358473D01*
X68306389Y-34875504D02*
X68402273Y-34908278D01*
X27483483Y-89802744D02*
X27551414Y-89877933D01*
X23001000Y0D02*
X9001000Y0D01*
X84518516Y-34302744D02*
X84582551Y-34224211D01*
X64977936Y-1697144D02*
X64960059Y-1597402D01*
X28598402Y-71959059D02*
X28698144Y-71976936D01*
X104937154Y-56998694D02*
X104909278Y-56901273D01*
X64796609Y-56619211D02*
X64749693Y-56529396D01*
X104698288Y-942071D02*
X104642526Y-857463D01*
X87064845Y-15001305D02*
X87092721Y-15098726D01*
X25001000Y-47250000D02*
X26000000Y-47250000D01*
X44058928Y-302711D02*
X43971603Y-251306D01*
X86000000Y-80250000D02*
X85001000Y-80250000D01*
X44582551Y-37775788D02*
X44518516Y-37697255D01*
X43203336Y-55510261D02*
X43102298Y-55502566D01*
X104642526Y-34142536D02*
X104698288Y-34057928D01*
X68402273Y-16408278D02*
X68499694Y-16436154D01*
X7252306Y-33970603D02*
X7303711Y-34057928D01*
X64225211Y-74418448D02*
X64143536Y-74358473D01*
X64582551Y-74775788D02*
X64518516Y-74697255D01*
X47623066Y-52949585D02*
X47698255Y-53017516D01*
X87163084Y-52288711D02*
X87205390Y-52380788D01*
X24058928Y-55802711D02*
X23971603Y-55751306D01*
X44977936Y-51802855D02*
X44990738Y-51702336D01*
X25001000Y-28750000D02*
X26000000Y-28750000D01*
X48306389Y-53375504D02*
X48402273Y-53408278D01*
X104225211Y-74418448D02*
X104143536Y-74358473D01*
X24977936Y-57197144D02*
X24960059Y-57097402D01*
X64937154Y-52001305D02*
X64960059Y-51902597D01*
X69001000Y-37000000D02*
X68899701Y-37002566D01*
X84749693Y-75029396D02*
X84698288Y-74942071D01*
X64998433Y-51601298D02*
X65001000Y-51500000D01*
X87419448Y-71224211D02*
X87483483Y-71302744D01*
X46000000Y-43250000D02*
X45001000Y-43250000D01*
X23001000Y-90500000D02*
X23102298Y-90497433D01*
X24909278Y-33598726D02*
X24937154Y-33501305D01*
X84960059Y-75597402D02*
X84937154Y-75498694D01*
X64303744Y-34517516D02*
X64378933Y-34449585D01*
X63971603Y-18751306D02*
X63881788Y-18704390D01*
X23502305Y-90436154D02*
X23599726Y-90408278D01*
X68030396Y-71748693D02*
X68120211Y-71795609D01*
X84450585Y-71377933D02*
X84518516Y-71302744D01*
X7252306Y-38029396D02*
X7205390Y-38119211D01*
X43403597Y-40940D02*
X43303855Y-23063D01*
X88499694Y-37063845D02*
X88402273Y-37091721D01*
X68120211Y-55704390D02*
X68030396Y-55751306D01*
X24838915Y-15288711D02*
X24876504Y-15194610D01*
X28030396Y-34748693D02*
X28120211Y-34795609D01*
X8698144Y-74023063D02*
X8598402Y-74040940D01*
X27064845Y-75498694D02*
X27041940Y-75597402D01*
X63502305Y-18563845D02*
X63403597Y-18540940D01*
X67001000Y-57500000D02*
X67001000Y-61750000D01*
X87001000Y-70000000D02*
X87003566Y-70101298D01*
X27001000Y-33000000D02*
X27003566Y-33101298D01*
X87092721Y-75401273D02*
X87064845Y-75498694D01*
X67551414Y-37622066D02*
X67483483Y-37697255D01*
X88798663Y-90489738D02*
X88899701Y-90497433D01*
X103102298Y-18502566D02*
X103001000Y-18500000D01*
X64303744Y-71517516D02*
X64378933Y-71449585D01*
X28698144Y-55523063D02*
X28598402Y-55540940D01*
X104518516Y-56197255D02*
X104450585Y-56122066D01*
X44990738Y-1797663D02*
X44977936Y-1697144D01*
X27623066Y-34449585D02*
X27698255Y-34517516D01*
X64698288Y-34057928D02*
X64749693Y-33970603D01*
X84582551Y-71224211D02*
X84642526Y-71142536D01*
X88598402Y-90459059D02*
X88698144Y-90476936D01*
X88402273Y-90408278D02*
X88499694Y-90436154D01*
X47483483Y-52802744D02*
X47551414Y-52877933D01*
X44909278Y-56901273D02*
X44876504Y-56805389D01*
X67163084Y-33788711D02*
X67205390Y-33880788D01*
X63695610Y-124495D02*
X63599726Y-91721D01*
X5000000Y-10250000D02*
X7001000Y-10250000D01*
X84642526Y-74857463D02*
X84582551Y-74775788D01*
X44058928Y-53197288D02*
X44143536Y-53141526D01*
X105001000Y-57500000D02*
X104998433Y-57398701D01*
X84698288Y-89557928D02*
X84749693Y-89470603D01*
X7776788Y-53081551D02*
X7858463Y-53141526D01*
X24058928Y-71697288D02*
X24143536Y-71641526D01*
X83203336Y-18510261D02*
X83102298Y-18502566D01*
X47064845Y-52001305D02*
X47092721Y-52098726D01*
X43881788Y-34795609D02*
X43971603Y-34748693D01*
X7943071Y-53197288D02*
X8030396Y-53248693D01*
X47011261Y-14702336D02*
X47024063Y-14802855D01*
X8402273Y-90408278D02*
X8499694Y-90436154D01*
X28899701Y-34997433D02*
X29001000Y-35000000D01*
X43881788Y-18704390D02*
X43789711Y-18662084D01*
X23203336Y-71989738D02*
X23303855Y-71976936D01*
X64998433Y-14601298D02*
X65001000Y-14500000D01*
X7024063Y-1697144D02*
X7011261Y-1797663D01*
X87064845Y-52001305D02*
X87092721Y-52098726D01*
X68212288Y-53337915D02*
X68306389Y-53375504D01*
X67001000Y-61750000D02*
X66002000Y-61750000D01*
X84909278Y-19901273D02*
X84876504Y-19805389D01*
X64698288Y-52557928D02*
X64749693Y-52470603D01*
X63001000Y0D02*
X49001000Y0D01*
X84796609Y-70880788D02*
X84838915Y-70788711D01*
X104303744Y-18982483D02*
X104225211Y-18918448D01*
X103303855Y-34976936D02*
X103403597Y-34959059D01*
X83303855Y-37023063D02*
X83203336Y-37010261D01*
X68899701Y-55502566D02*
X68798663Y-55510261D01*
X104749693Y-19529396D02*
X104698288Y-19442071D01*
X28030396Y-37251306D02*
X27943071Y-37302711D01*
X47483483Y-56197255D02*
X47419448Y-56275788D01*
X28120211Y-53295609D02*
X28212288Y-53337915D01*
X27092721Y-38401273D02*
X27064845Y-38498694D01*
X23203336Y-16489738D02*
X23303855Y-16476936D01*
X83203336Y-53489738D02*
X83303855Y-53476936D01*
X27125495Y-89194610D02*
X27163084Y-89288711D01*
X87041940Y-14902597D02*
X87064845Y-15001305D01*
X44058928Y-16197288D02*
X44143536Y-16141526D01*
X24518516Y-34302744D02*
X24582551Y-34224211D01*
X7483483Y-56197255D02*
X7419448Y-56275788D01*
X87623066Y-19050414D02*
X87551414Y-19122066D01*
X7483483Y-74697255D02*
X7419448Y-74775788D01*
X47205390Y-52380788D02*
X47252306Y-52470603D01*
X27205390Y-38119211D02*
X27163084Y-38211288D01*
X87163084Y-75211288D02*
X87125495Y-75305389D01*
X104518516Y-71302744D02*
X104582551Y-71224211D01*
X44796609Y-15380788D02*
X44838915Y-15288711D01*
X27943071Y-74302711D02*
X27858463Y-74358473D01*
X87698255Y-482483D02*
X87623066Y-550414D01*
X47858463Y-37358473D02*
X47776788Y-37418448D01*
X105001000Y-28750000D02*
X107002000Y-28750000D01*
X83001000Y-35000000D02*
X83102298Y-34997433D01*
X47623066Y-89949585D02*
X47698255Y-90017516D01*
X27125495Y-15194610D02*
X27163084Y-15288711D01*
X44450585Y-622066D02*
X44378933Y-550414D01*
X8499694Y-71936154D02*
X8598402Y-71959059D01*
X8499694Y-16436154D02*
X8598402Y-16459059D01*
X7698255Y-71517516D02*
X7776788Y-71581551D01*
X88212288Y-18662084D02*
X88120211Y-18704390D01*
X7623066Y-71449585D02*
X7698255Y-71517516D01*
X67623066Y-74550414D02*
X67551414Y-74622066D01*
X48698144Y-23063D02*
X48598402Y-40940D01*
X104977936Y-51802855D02*
X104990738Y-51702336D01*
X27303711Y-15557928D02*
X27359473Y-15642536D01*
X68499694Y-16436154D02*
X68598402Y-16459059D01*
X64378933Y-15949585D02*
X64450585Y-15877933D01*
X85001000Y-61750000D02*
X85001000Y-57500000D01*
X87858463Y-55858473D02*
X87776788Y-55918448D01*
X87858463Y-71641526D02*
X87943071Y-71697288D01*
X68306389Y-124495D02*
X68212288Y-162084D01*
X67064845Y-70501305D02*
X67092721Y-70598726D01*
X23789711Y-162084D02*
X23695610Y-124495D01*
X47125495Y-38305389D02*
X47092721Y-38401273D01*
X8212288Y-34837915D02*
X8306389Y-34875504D01*
X64796609Y-75119211D02*
X64749693Y-75029396D01*
X83971603Y-71748693D02*
X84058928Y-71697288D01*
X68899701Y-2566D02*
X68798663Y-10261D01*
X27359473Y-15642536D02*
X27419448Y-15724211D01*
X7252306Y-52470603D02*
X7303711Y-52557928D01*
X64977936Y-70302855D02*
X64990738Y-70202336D01*
X84378933Y-19050414D02*
X84303744Y-18982483D01*
X84518516Y-697255D02*
X84450585Y-622066D01*
X24937154Y-15001305D02*
X24960059Y-14902597D01*
X67003566Y-38898701D02*
X67001000Y-39000000D01*
X23001000Y-35000000D02*
X23102298Y-34997433D01*
X88899701Y-90497433D02*
X89001000Y-90500000D01*
X28402273Y-34908278D02*
X28499694Y-34936154D01*
X67483483Y-71302744D02*
X67551414Y-71377933D01*
X104749693Y-56529396D02*
X104698288Y-56442071D01*
X64990738Y-88702336D02*
X64998433Y-88601298D01*
X83102298Y-55502566D02*
X83001000Y-55500000D01*
X104450585Y-37622066D02*
X104378933Y-37550414D01*
X105001000Y-84250000D02*
X107002000Y-84250000D01*
X23695610Y-55624495D02*
X23599726Y-55591721D01*
X47041940Y-33402597D02*
X47064845Y-33501305D01*
X46000000Y-61750000D02*
X45001000Y-61750000D01*
X88212288Y-37162084D02*
X88120211Y-37204390D01*
X24977936Y-88802855D02*
X24990738Y-88702336D01*
X67001000Y-76000000D02*
X67001000Y-80250000D01*
X65001000Y-76000000D02*
X64998433Y-75898701D01*
X7011261Y-57297663D02*
X7003566Y-57398701D01*
X47001000Y-6250000D02*
X46002000Y-6250000D01*
X104960059Y-51902597D02*
X104977936Y-51802855D01*
X64838915Y-56711288D02*
X64796609Y-56619211D01*
X103599726Y-37091721D02*
X103502305Y-37063845D01*
X87551414Y-622066D02*
X87483483Y-697255D01*
X68212288Y-16337915D02*
X68306389Y-16375504D01*
X47303711Y-19442071D02*
X47252306Y-19529396D01*
X48402273Y-34908278D02*
X48499694Y-34936154D01*
X48598402Y-74040940D02*
X48499694Y-74063845D01*
X28499694Y-71936154D02*
X28598402Y-71959059D01*
X84143536Y-34641526D02*
X84225211Y-34581551D01*
X67776788Y-418448D02*
X67698255Y-482483D01*
X43789711Y-162084D02*
X43695610Y-124495D01*
X64225211Y-18918448D02*
X64143536Y-18858473D01*
X67623066Y-89949585D02*
X67698255Y-90017516D01*
X24937154Y-38498694D02*
X24909278Y-38401273D01*
X63303855Y-18523063D02*
X63203336Y-18510261D01*
X64960059Y-20097402D02*
X64937154Y-19998694D01*
X112002000Y0D02*
X107002000Y0D01*
X88030396Y-53248693D02*
X88120211Y-53295609D01*
X46000000Y-84250000D02*
X46002000Y-84250000D01*
X48499694Y-18563845D02*
X48402273Y-18591721D01*
X24937154Y-33501305D02*
X24960059Y-33402597D01*
X28306389Y-18624495D02*
X28212288Y-18662084D01*
X89001000Y0D02*
X88899701Y-2566D01*
X48598402Y-16459059D02*
X48698144Y-16476936D01*
X8798663Y-55510261D02*
X8698144Y-55523063D01*
X47064845Y-15001305D02*
X47092721Y-15098726D01*
X83102298Y-2566D02*
X83001000Y0D01*
X9001000Y-72000000D02*
X23001000Y-72000000D01*
X47205390Y-33880788D02*
X47252306Y-33970603D01*
X48798663Y-74010261D02*
X48698144Y-74023063D01*
X64909278Y-70598726D02*
X64937154Y-70501305D01*
X48499694Y-37063845D02*
X48402273Y-37091721D01*
X84838915Y-19711288D02*
X84796609Y-19619211D01*
X104642526Y-19357463D02*
X104582551Y-19275788D01*
X23303855Y-71976936D02*
X23403597Y-71959059D01*
X43001000Y-53500000D02*
X43102298Y-53497433D01*
X103102298Y-71997433D02*
X103203336Y-71989738D01*
X27303711Y-56442071D02*
X27252306Y-56529396D01*
X7041940Y-14902597D02*
X7064845Y-15001305D01*
X45001000Y-6250000D02*
X45001000Y-2000000D01*
X83789711Y-18662084D02*
X83695610Y-18624495D01*
X44838915Y-56711288D02*
X44796609Y-56619211D01*
X103102298Y-16497433D02*
X103203336Y-16489738D01*
X28212288Y-74162084D02*
X28120211Y-74204390D01*
X27252306Y-33970603D02*
X27303711Y-34057928D01*
X47041940Y-20097402D02*
X47024063Y-20197144D01*
X104937154Y-52001305D02*
X104960059Y-51902597D01*
X83789711Y-74162084D02*
X83695610Y-74124495D01*
X0Y-90500000D02*
X5000000Y-90500000D01*
X67011261Y-57297663D02*
X67003566Y-57398701D01*
X25001000Y-33000000D02*
X25001000Y-28750000D01*
X27483483Y-19197255D02*
X27419448Y-19275788D01*
X24582551Y-775788D02*
X24518516Y-697255D01*
X8598402Y-74040940D02*
X8499694Y-74063845D01*
X89001000Y-35000000D02*
X103001000Y-35000000D01*
X7943071Y-34697288D02*
X8030396Y-34748693D01*
X63502305Y-34936154D02*
X63599726Y-34908278D01*
X47024063Y-1697144D02*
X47011261Y-1797663D01*
X64977936Y-20197144D02*
X64960059Y-20097402D01*
X7003566Y-75898701D02*
X7001000Y-76000000D01*
X64937154Y-19998694D02*
X64909278Y-19901273D01*
X7024063Y-57197144D02*
X7011261Y-57297663D01*
X8402273Y-55591721D02*
X8306389Y-55624495D01*
X84303744Y-482483D02*
X84225211Y-418448D01*
X83695610Y-34875504D02*
X83789711Y-34837915D01*
X43881788Y-90295609D02*
X43971603Y-90248693D01*
X84450585Y-52877933D02*
X84518516Y-52802744D01*
X23695610Y-74124495D02*
X23599726Y-74091721D01*
X107002000Y-43250000D02*
X105001000Y-43250000D01*
X46002000Y-10250000D02*
X47001000Y-10250000D01*
X47125495Y-1305389D02*
X47092721Y-1401273D01*
X67776788Y-16081551D02*
X67858463Y-16141526D01*
X105001000Y-2000000D02*
X104998433Y-1898701D01*
X27252306Y-89470603D02*
X27303711Y-89557928D01*
X7003566Y-1898701D02*
X7001000Y-2000000D01*
X24838915Y-56711288D02*
X24796609Y-56619211D01*
X24518516Y-74697255D02*
X24450585Y-74622066D01*
X43403597Y-71959059D02*
X43502305Y-71936154D01*
X24998433Y-75898701D02*
X24990738Y-75797663D01*
X47303711Y-56442071D02*
X47252306Y-56529396D01*
X64909278Y-38401273D02*
X64876504Y-38305389D01*
X27623066Y-56050414D02*
X27551414Y-56122066D01*
X44749693Y-38029396D02*
X44698288Y-37942071D01*
X27163084Y-33788711D02*
X27205390Y-33880788D01*
X24937154Y-56998694D02*
X24909278Y-56901273D01*
X103599726Y-34908278D02*
X103695610Y-34875504D01*
X24450585Y-19122066D02*
X24378933Y-19050414D01*
X47943071Y-71697288D02*
X48030396Y-71748693D01*
X104909278Y-33598726D02*
X104937154Y-33501305D01*
X86002000Y-43250000D02*
X86000000Y-43250000D01*
X85001000Y-76000000D02*
X84998433Y-75898701D01*
X63599726Y-53408278D02*
X63695610Y-53375504D01*
X83789711Y-90337915D02*
X83881788Y-90295609D01*
X45001000Y-51500000D02*
X45001000Y-47250000D01*
X84909278Y-1401273D02*
X84876504Y-1305389D01*
X44909278Y-15098726D02*
X44937154Y-15001305D01*
X47359473Y-19357463D02*
X47303711Y-19442071D01*
X84698288Y-15557928D02*
X84749693Y-15470603D01*
X67776788Y-53081551D02*
X67858463Y-53141526D01*
X43789711Y-37162084D02*
X43695610Y-37124495D01*
X48499694Y-90436154D02*
X48598402Y-90459059D01*
X43102298Y-55502566D02*
X43001000Y-55500000D01*
X44518516Y-37697255D02*
X44450585Y-37622066D01*
X69001000Y-72000000D02*
X83001000Y-72000000D01*
X47163084Y-89288711D02*
X47205390Y-89380788D01*
X47003566Y-20398701D02*
X47001000Y-20500000D01*
X24749693Y-19529396D02*
X24698288Y-19442071D01*
X7698255Y-90017516D02*
X7776788Y-90081551D01*
X104582551Y-19275788D02*
X104518516Y-19197255D01*
X68402273Y-71908278D02*
X68499694Y-71936154D01*
X7252306Y-15470603D02*
X7303711Y-15557928D01*
X87483483Y-74697255D02*
X87419448Y-74775788D01*
X48402273Y-16408278D02*
X48499694Y-16436154D01*
X27003566Y-14601298D02*
X27011261Y-14702336D01*
X24990738Y-70202336D02*
X24998433Y-70101298D01*
X104303744Y-90017516D02*
X104378933Y-89949585D01*
X25001000Y-39000000D02*
X24998433Y-38898701D01*
X47064845Y-56998694D02*
X47041940Y-57097402D01*
X88598402Y-37040940D02*
X88499694Y-37063845D01*
X84698288Y-942071D02*
X84642526Y-857463D01*
X23881788Y-204390D02*
X23789711Y-162084D01*
X89001000Y-18500000D02*
X88899701Y-18502566D01*
X7623066Y-15949585D02*
X7698255Y-16017516D01*
X87776788Y-90081551D02*
X87858463Y-90141526D01*
X104450585Y-74622066D02*
X104378933Y-74550414D01*
X43971603Y-53248693D02*
X44058928Y-53197288D01*
X47001000Y-84250000D02*
X47001000Y-88500000D01*
X105001000Y-47250000D02*
X107002000Y-47250000D01*
X23971603Y-251306D02*
X23881788Y-204390D01*
X87041940Y-51902597D02*
X87064845Y-52001305D01*
X63971603Y-90248693D02*
X64058928Y-90197288D01*
X105001000Y-61750000D02*
X105001000Y-57500000D01*
X87419448Y-37775788D02*
X87359473Y-37857463D01*
X64450585Y-15877933D02*
X64518516Y-15802744D01*
X8798663Y-18510261D02*
X8698144Y-18523063D01*
X64990738Y-70202336D02*
X64998433Y-70101298D01*
X84058928Y-37302711D02*
X83971603Y-37251306D01*
X9001000Y-16500000D02*
X23001000Y-16500000D01*
X48598402Y-34959059D02*
X48698144Y-34976936D01*
X87483483Y-89802744D02*
X87551414Y-89877933D01*
X64058928Y-34697288D02*
X64143536Y-34641526D01*
X63001000Y-53500000D02*
X63102298Y-53497433D01*
X44303744Y-34517516D02*
X44378933Y-34449585D01*
X8120211Y-71795609D02*
X8212288Y-71837915D01*
X43599726Y-18591721D02*
X43502305Y-18563845D01*
X47419448Y-775788D02*
X47359473Y-857463D01*
X83789711Y-34837915D02*
X83881788Y-34795609D01*
X7001000Y-61750000D02*
X5000000Y-61750000D01*
X84998433Y-14601298D02*
X85001000Y-14500000D01*
X64058928Y-37302711D02*
X63971603Y-37251306D01*
X47776788Y-90081551D02*
X47858463Y-90141526D01*
X104303744Y-53017516D02*
X104378933Y-52949585D01*
X67001000Y-39000000D02*
X67001000Y-43250000D01*
X67001000Y-14500000D02*
X67003566Y-14601298D01*
X63001000Y-90500000D02*
X63102298Y-90497433D01*
X43203336Y-16489738D02*
X43303855Y-16476936D01*
X89001000Y-55500000D02*
X88899701Y-55502566D01*
X83403597Y-37040940D02*
X83303855Y-37023063D01*
X44518516Y-697255D02*
X44450585Y-622066D01*
X48598402Y-90459059D02*
X48698144Y-90476936D01*
X104977936Y-20197144D02*
X104960059Y-20097402D01*
X44937154Y-33501305D02*
X44960059Y-33402597D01*
X27943071Y-302711D02*
X27858463Y-358473D01*
X43303855Y-23063D02*
X43203336Y-10261D01*
X67359473Y-52642536D02*
X67419448Y-52724211D01*
X63599726Y-90408278D02*
X63695610Y-90375504D01*
X43971603Y-55751306D02*
X43881788Y-55704390D01*
X47776788Y-74418448D02*
X47698255Y-74482483D01*
X26000000Y-84250000D02*
X26002000Y-84250000D01*
X104378933Y-34449585D02*
X104450585Y-34377933D01*
X88798663Y-74010261D02*
X88698144Y-74023063D01*
X7698255Y-482483D02*
X7623066Y-550414D01*
X67003566Y-70101298D02*
X67011261Y-70202336D01*
X65001000Y-2000000D02*
X64998433Y-1898701D01*
X27205390Y-33880788D02*
X27252306Y-33970603D01*
X87064845Y-89001305D02*
X87092721Y-89098726D01*
X24698288Y-74942071D02*
X24642526Y-74857463D01*
X47001000Y-24750000D02*
X46002000Y-24750000D01*
X103971603Y-37251306D02*
X103881788Y-37204390D01*
X63303855Y-90476936D02*
X63403597Y-90459059D01*
X87003566Y-57398701D02*
X87001000Y-57500000D01*
X26002000Y-84250000D02*
X27001000Y-84250000D01*
X27064845Y-19998694D02*
X27041940Y-20097402D01*
X24143536Y-18858473D02*
X24058928Y-18802711D01*
X68499694Y-53436154D02*
X68598402Y-53459059D01*
X48120211Y-74204390D02*
X48030396Y-74251306D01*
X44058928Y-71697288D02*
X44143536Y-71641526D01*
X47125495Y-89194610D02*
X47163084Y-89288711D01*
X63303855Y-16476936D02*
X63403597Y-16459059D01*
X45001000Y-70000000D02*
X45001000Y-65750000D01*
X43599726Y-34908278D02*
X43695610Y-34875504D01*
X47252306Y-75029396D02*
X47205390Y-75119211D01*
X103881788Y-74204390D02*
X103789711Y-74162084D01*
X87205390Y-1119211D02*
X87163084Y-1211288D01*
X103001000Y-53500000D02*
X103102298Y-53497433D01*
X28030396Y-90248693D02*
X28120211Y-90295609D01*
X64450585Y-34377933D02*
X64518516Y-34302744D01*
X44378933Y-15949585D02*
X44450585Y-15877933D01*
X103403597Y-53459059D02*
X103502305Y-53436154D01*
X27001000Y-20500000D02*
X27001000Y-24750000D01*
X66000000Y-6250000D02*
X65001000Y-6250000D01*
X47064845Y-89001305D02*
X47092721Y-89098726D01*
X7011261Y-75797663D02*
X7003566Y-75898701D01*
X66002000Y-65750000D02*
X67001000Y-65750000D01*
X104977936Y-75697144D02*
X104960059Y-75597402D01*
X7001000Y-10250000D02*
X7001000Y-14500000D01*
X47092721Y-19901273D02*
X47064845Y-19998694D01*
X27001000Y-24750000D02*
X26002000Y-24750000D01*
X104909278Y-70598726D02*
X104937154Y-70501305D01*
X103502305Y-55563845D02*
X103403597Y-55540940D01*
X28120211Y-71795609D02*
X28212288Y-71837915D01*
X48212288Y-71837915D02*
X48306389Y-71875504D01*
X43303855Y-71976936D02*
X43403597Y-71959059D01*
X63599726Y-91721D02*
X63502305Y-63845D01*
X67623066Y-52949585D02*
X67698255Y-53017516D01*
X45001000Y-24750000D02*
X45001000Y-20500000D01*
X83789711Y-37162084D02*
X83695610Y-37124495D01*
X67359473Y-89642536D02*
X67419448Y-89724211D01*
X84977936Y-14802855D02*
X84990738Y-14702336D01*
X84998433Y-70101298D02*
X85001000Y-70000000D01*
X104143536Y-71641526D02*
X104225211Y-71581551D01*
X64876504Y-70694610D02*
X64909278Y-70598726D01*
X67001000Y-51500000D02*
X67003566Y-51601298D01*
X8798663Y-71989738D02*
X8899701Y-71997433D01*
X43502305Y-71936154D02*
X43599726Y-71908278D01*
X84058928Y-302711D02*
X83971603Y-251306D01*
X27776788Y-16081551D02*
X27858463Y-16141526D01*
X47698255Y-55982483D02*
X47623066Y-56050414D01*
X23695610Y-16375504D02*
X23789711Y-16337915D01*
X43599726Y-91721D02*
X43502305Y-63845D01*
X47943071Y-16197288D02*
X48030396Y-16248693D01*
X87125495Y-15194610D02*
X87163084Y-15288711D01*
X8402273Y-16408278D02*
X8499694Y-16436154D01*
X7011261Y-33202336D02*
X7024063Y-33302855D01*
X24058928Y-302711D02*
X23971603Y-251306D01*
X68499694Y-90436154D02*
X68598402Y-90459059D01*
X43599726Y-74091721D02*
X43502305Y-74063845D01*
X69001000Y0D02*
X68899701Y-2566D01*
X103695610Y-90375504D02*
X103789711Y-90337915D01*
X28212288Y-16337915D02*
X28306389Y-16375504D01*
X63599726Y-55591721D02*
X63502305Y-55563845D01*
X87205390Y-33880788D02*
X87252306Y-33970603D01*
X23102298Y-53497433D02*
X23203336Y-53489738D01*
X64937154Y-38498694D02*
X64909278Y-38401273D01*
X67359473Y-74857463D02*
X67303711Y-74942071D01*
X83599726Y-53408278D02*
X83695610Y-53375504D01*
X28598402Y-55540940D02*
X28499694Y-55563845D01*
X63001000Y-55500000D02*
X49001000Y-55500000D01*
X43502305Y-90436154D02*
X43599726Y-90408278D01*
X24909278Y-89098726D02*
X24937154Y-89001305D01*
X44796609Y-19619211D02*
X44749693Y-19529396D01*
X48030396Y-90248693D02*
X48120211Y-90295609D01*
X7551414Y-37622066D02*
X7483483Y-37697255D01*
X103303855Y-16476936D02*
X103403597Y-16459059D01*
X87551414Y-34377933D02*
X87623066Y-34449585D01*
X84937154Y-70501305D02*
X84960059Y-70402597D01*
X63303855Y-53476936D02*
X63403597Y-53459059D01*
X68212288Y-71837915D02*
X68306389Y-71875504D01*
X67064845Y-56998694D02*
X67041940Y-57097402D01*
X64909278Y-75401273D02*
X64876504Y-75305389D01*
X27064845Y-56998694D02*
X27041940Y-57097402D01*
X7551414Y-71377933D02*
X7623066Y-71449585D01*
X47551414Y-52877933D02*
X47623066Y-52949585D01*
X68120211Y-37204390D02*
X68030396Y-37251306D01*
X87064845Y-1498694D02*
X87041940Y-1597402D01*
X87011261Y-38797663D02*
X87003566Y-38898701D01*
X105001000Y-20500000D02*
X104998433Y-20398701D01*
X7303711Y-37942071D02*
X7252306Y-38029396D01*
X7024063Y-51802855D02*
X7041940Y-51902597D01*
X67252306Y-70970603D02*
X67303711Y-71057928D01*
X87092721Y-38401273D02*
X87064845Y-38498694D01*
X7303711Y-34057928D02*
X7359473Y-34142536D01*
X104225211Y-37418448D02*
X104143536Y-37358473D01*
X84876504Y-15194610D02*
X84909278Y-15098726D01*
X47041940Y-88902597D02*
X47064845Y-89001305D01*
X83502305Y-16436154D02*
X83599726Y-16408278D01*
X24796609Y-89380788D02*
X24838915Y-89288711D01*
X27001000Y-51500000D02*
X27003566Y-51601298D01*
X48899701Y-34997433D02*
X49001000Y-35000000D01*
X63403597Y-34959059D02*
X63502305Y-34936154D01*
X84225211Y-418448D02*
X84143536Y-358473D01*
X84749693Y-33970603D02*
X84796609Y-33880788D01*
X84937154Y-38498694D02*
X84909278Y-38401273D01*
X83001000Y-18500000D02*
X69001000Y-18500000D01*
X84749693Y-1029396D02*
X84698288Y-942071D01*
X103971603Y-18751306D02*
X103881788Y-18704390D01*
X44582551Y-71224211D02*
X44642526Y-71142536D01*
X68030396Y-90248693D02*
X68120211Y-90295609D01*
X67252306Y-15470603D02*
X67303711Y-15557928D01*
X103502305Y-34936154D02*
X103599726Y-34908278D01*
X43881788Y-53295609D02*
X43971603Y-53248693D01*
X28402273Y-16408278D02*
X28499694Y-16436154D01*
X43881788Y-16295609D02*
X43971603Y-16248693D01*
X103403597Y-37040940D02*
X103303855Y-37023063D01*
X27698255Y-55982483D02*
X27623066Y-56050414D01*
X28212288Y-55662084D02*
X28120211Y-55704390D01*
X65001000Y-80250000D02*
X65001000Y-76000000D01*
X7776788Y-37418448D02*
X7698255Y-37482483D01*
X47041940Y-57097402D02*
X47024063Y-57197144D01*
X87776788Y-418448D02*
X87698255Y-482483D01*
X83789711Y-55662084D02*
X83695610Y-55624495D01*
X27776788Y-71581551D02*
X27858463Y-71641526D01*
X48212288Y-37162084D02*
X48120211Y-37204390D01*
X67125495Y-33694610D02*
X67163084Y-33788711D01*
X47252306Y-38029396D02*
X47205390Y-38119211D01*
X44977936Y-33302855D02*
X44990738Y-33202336D01*
X43303855Y-37023063D02*
X43203336Y-37010261D01*
X64960059Y-70402597D02*
X64977936Y-70302855D01*
X84977936Y-88802855D02*
X84990738Y-88702336D01*
X28698144Y-34976936D02*
X28798663Y-34989738D01*
X88212288Y-16337915D02*
X88306389Y-16375504D01*
X7858463Y-74358473D02*
X7776788Y-74418448D01*
X104838915Y-75211288D02*
X104796609Y-75119211D01*
X84796609Y-38119211D02*
X84749693Y-38029396D01*
X87776788Y-37418448D02*
X87698255Y-37482483D01*
X28899701Y-53497433D02*
X29001000Y-53500000D01*
X87943071Y-55802711D02*
X87858463Y-55858473D01*
X86000000Y-10250000D02*
X86002000Y-10250000D01*
X44225211Y-74418448D02*
X44143536Y-74358473D01*
X87623066Y-52949585D02*
X87698255Y-53017516D01*
X64998433Y-38898701D02*
X64990738Y-38797663D01*
X24977936Y-20197144D02*
X24960059Y-20097402D01*
X64225211Y-34581551D02*
X64303744Y-34517516D01*
X84937154Y-1498694D02*
X84909278Y-1401273D01*
X9001000Y-18500000D02*
X8899701Y-18502566D01*
X87011261Y-14702336D02*
X87024063Y-14802855D01*
X24998433Y-51601298D02*
X25001000Y-51500000D01*
X103789711Y-18662084D02*
X103695610Y-18624495D01*
X49001000Y-16500000D02*
X63001000Y-16500000D01*
X27011261Y-20297663D02*
X27003566Y-20398701D01*
X104378933Y-19050414D02*
X104303744Y-18982483D01*
X24876504Y-33694610D02*
X24909278Y-33598726D01*
X47001000Y-57500000D02*
X47001000Y-61750000D01*
X63203336Y-18510261D02*
X63102298Y-18502566D01*
X83695610Y-71875504D02*
X83789711Y-71837915D01*
X64303744Y-18982483D02*
X64225211Y-18918448D01*
X24518516Y-15802744D02*
X24582551Y-15724211D01*
X104876504Y-70694610D02*
X104909278Y-70598726D01*
X44450585Y-34377933D02*
X44518516Y-34302744D01*
X67698255Y-71517516D02*
X67776788Y-71581551D01*
X27163084Y-15288711D02*
X27205390Y-15380788D01*
X44909278Y-89098726D02*
X44937154Y-89001305D01*
X84838915Y-38211288D02*
X84796609Y-38119211D01*
X64378933Y-89949585D02*
X64450585Y-89877933D01*
X87003566Y-33101298D02*
X87011261Y-33202336D01*
X45001000Y-39000000D02*
X44998433Y-38898701D01*
X47001000Y-61750000D02*
X46002000Y-61750000D01*
X67205390Y-33880788D02*
X67252306Y-33970603D01*
X84876504Y-89194610D02*
X84909278Y-89098726D01*
X87359473Y-89642536D02*
X87419448Y-89724211D01*
X68120211Y-16295609D02*
X68212288Y-16337915D01*
X84450585Y-622066D02*
X84378933Y-550414D01*
X88798663Y-16489738D02*
X88899701Y-16497433D01*
X27551414Y-56122066D02*
X27483483Y-56197255D01*
X84303744Y-16017516D02*
X84378933Y-15949585D01*
X8499694Y-74063845D02*
X8402273Y-74091721D01*
X84998433Y-57398701D02*
X84990738Y-57297663D01*
X87092721Y-70598726D02*
X87125495Y-70694610D01*
X84642526Y-71142536D02*
X84698288Y-71057928D01*
X104225211Y-18918448D02*
X104143536Y-18858473D01*
X68499694Y-71936154D02*
X68598402Y-71959059D01*
X24960059Y-38597402D02*
X24937154Y-38498694D01*
X44303744Y-55982483D02*
X44225211Y-55918448D01*
X103502305Y-71936154D02*
X103599726Y-71908278D01*
X47092721Y-33598726D02*
X47125495Y-33694610D01*
X103502305Y-37063845D02*
X103403597Y-37040940D01*
X27858463Y-16141526D02*
X27943071Y-16197288D01*
X7003566Y-51601298D02*
X7011261Y-51702336D01*
X104303744Y-55982483D02*
X104225211Y-55918448D01*
X67252306Y-33970603D02*
X67303711Y-34057928D01*
X104143536Y-55858473D02*
X104058928Y-55802711D01*
X103502305Y-90436154D02*
X103599726Y-90408278D01*
X28598402Y-18540940D02*
X28499694Y-18563845D01*
X47125495Y-70694610D02*
X47163084Y-70788711D01*
X24143536Y-71641526D02*
X24225211Y-71581551D01*
X28598402Y-34959059D02*
X28698144Y-34976936D01*
X64990738Y-14702336D02*
X64998433Y-14601298D01*
X47041940Y-70402597D02*
X47064845Y-70501305D01*
X87776788Y-16081551D02*
X87858463Y-16141526D01*
X28402273Y-53408278D02*
X28499694Y-53436154D01*
X29001000Y0D02*
X28899701Y-2566D01*
X87024063Y-14802855D02*
X87041940Y-14902597D01*
X84796609Y-89380788D02*
X84838915Y-89288711D01*
X103599726Y-90408278D02*
X103695610Y-90375504D01*
X83203336Y-90489738D02*
X83303855Y-90476936D01*
X24796609Y-33880788D02*
X24838915Y-33788711D01*
X68798663Y-37010261D02*
X68698144Y-37023063D01*
X44998433Y-70101298D02*
X45001000Y-70000000D01*
X43502305Y-18563845D02*
X43403597Y-18540940D01*
X24796609Y-70880788D02*
X24838915Y-70788711D01*
X87001000Y-6250000D02*
X86002000Y-6250000D01*
X64998433Y-20398701D02*
X64990738Y-20297663D01*
X43695610Y-37124495D02*
X43599726Y-37091721D01*
X47092721Y-15098726D02*
X47125495Y-15194610D01*
X7858463Y-358473D02*
X7776788Y-418448D01*
X24796609Y-56619211D02*
X24749693Y-56529396D01*
X83203336Y-74010261D02*
X83102298Y-74002566D01*
X7252306Y-70970603D02*
X7303711Y-71057928D01*
X84796609Y-15380788D02*
X84838915Y-15288711D01*
X88899701Y-16497433D02*
X89001000Y-16500000D01*
X47163084Y-52288711D02*
X47205390Y-52380788D01*
X84909278Y-52098726D02*
X84937154Y-52001305D01*
X88120211Y-90295609D02*
X88212288Y-90337915D01*
X103203336Y-74010261D02*
X103102298Y-74002566D01*
X24450585Y-15877933D02*
X24518516Y-15802744D01*
X87303711Y-74942071D02*
X87252306Y-75029396D01*
X44225211Y-418448D02*
X44143536Y-358473D01*
X44303744Y-90017516D02*
X44378933Y-89949585D01*
X7001000Y-80250000D02*
X5000000Y-80250000D01*
X7011261Y-70202336D02*
X7024063Y-70302855D01*
X68120211Y-204390D02*
X68030396Y-251306D01*
X87419448Y-775788D02*
X87359473Y-857463D01*
X48499694Y-63845D02*
X48402273Y-91721D01*
X44450585Y-15877933D02*
X44518516Y-15802744D01*
X88798663Y-53489738D02*
X88899701Y-53497433D01*
X27125495Y-75305389D02*
X27092721Y-75401273D01*
X88120211Y-53295609D02*
X88212288Y-53337915D01*
X84838915Y-1211288D02*
X84796609Y-1119211D01*
X104977936Y-70302855D02*
X104990738Y-70202336D01*
X87125495Y-33694610D02*
X87163084Y-33788711D01*
X43203336Y-37010261D02*
X43102298Y-37002566D01*
X84450585Y-34377933D02*
X84518516Y-34302744D01*
X63502305Y-63845D02*
X63403597Y-40940D01*
X88306389Y-37124495D02*
X88212288Y-37162084D01*
X48306389Y-74124495D02*
X48212288Y-74162084D01*
X23971603Y-74251306D02*
X23881788Y-74204390D01*
X87359473Y-19357463D02*
X87303711Y-19442071D01*
X67858463Y-53141526D02*
X67943071Y-53197288D01*
X23102298Y-90497433D02*
X23203336Y-90489738D01*
X45001000Y-2000000D02*
X44998433Y-1898701D01*
X64876504Y-56805389D02*
X64838915Y-56711288D01*
X27163084Y-56711288D02*
X27125495Y-56805389D01*
X67041940Y-70402597D02*
X67064845Y-70501305D01*
X64698288Y-19442071D02*
X64642526Y-19357463D01*
X84960059Y-88902597D02*
X84977936Y-88802855D01*
X63001000Y-37000000D02*
X49001000Y-37000000D01*
X27359473Y-34142536D02*
X27419448Y-34224211D01*
X44058928Y-74302711D02*
X43971603Y-74251306D01*
X88598402Y-40940D02*
X88499694Y-63845D01*
X24582551Y-52724211D02*
X24642526Y-52642536D01*
X43001000Y-74000000D02*
X29001000Y-74000000D01*
X27001000Y-28750000D02*
X27001000Y-33000000D01*
X24796609Y-75119211D02*
X24749693Y-75029396D01*
X84582551Y-775788D02*
X84518516Y-697255D01*
X23789711Y-18662084D02*
X23695610Y-18624495D01*
X63789711Y-55662084D02*
X63695610Y-55624495D01*
X87303711Y-71057928D02*
X87359473Y-71142536D01*
X7419448Y-775788D02*
X7359473Y-857463D01*
X24876504Y-56805389D02*
X24838915Y-56711288D01*
X66002000Y-61750000D02*
X66000000Y-61750000D01*
X67064845Y-15001305D02*
X67092721Y-15098726D01*
X83599726Y-55591721D02*
X83502305Y-55563845D01*
X7125495Y-52194610D02*
X7163084Y-52288711D01*
X68306389Y-37124495D02*
X68212288Y-37162084D01*
X66000000Y-47250000D02*
X66002000Y-47250000D01*
X23001000Y-74000000D02*
X9001000Y-74000000D01*
X47041940Y-14902597D02*
X47064845Y-15001305D01*
X87252306Y-70970603D02*
X87303711Y-71057928D01*
X83102298Y-34997433D02*
X83203336Y-34989738D01*
X24450585Y-56122066D02*
X24378933Y-56050414D01*
X5000000Y-84250000D02*
X7001000Y-84250000D01*
X86002000Y-65750000D02*
X87001000Y-65750000D01*
X64450585Y-89877933D02*
X64518516Y-89802744D01*
X24582551Y-71224211D02*
X24642526Y-71142536D01*
X7943071Y-16197288D02*
X8030396Y-16248693D01*
X23789711Y-53337915D02*
X23881788Y-53295609D01*
X7252306Y-75029396D02*
X7205390Y-75119211D01*
X47024063Y-38697144D02*
X47011261Y-38797663D01*
X27858463Y-55858473D02*
X27776788Y-55918448D01*
X8598402Y-40940D02*
X8499694Y-63845D01*
X48212288Y-55662084D02*
X48120211Y-55704390D01*
X67003566Y-20398701D02*
X67001000Y-20500000D01*
X43599726Y-53408278D02*
X43695610Y-53375504D01*
X103881788Y-34795609D02*
X103971603Y-34748693D01*
X43789711Y-34837915D02*
X43881788Y-34795609D01*
X63789711Y-90337915D02*
X63881788Y-90295609D01*
X88306389Y-124495D02*
X88212288Y-162084D01*
X87483483Y-56197255D02*
X87419448Y-56275788D01*
X104960059Y-75597402D02*
X104937154Y-75498694D01*
X7092721Y-70598726D02*
X7125495Y-70694610D01*
X88030396Y-16248693D02*
X88120211Y-16295609D01*
X67359473Y-19357463D02*
X67303711Y-19442071D01*
X87163084Y-89288711D02*
X87205390Y-89380788D01*
X83001000Y-16500000D02*
X83102298Y-16497433D01*
X66002000Y-84250000D02*
X67001000Y-84250000D01*
X23102298Y-34997433D02*
X23203336Y-34989738D01*
X8598402Y-37040940D02*
X8499694Y-37063845D01*
X67858463Y-358473D02*
X67776788Y-418448D01*
X67359473Y-71142536D02*
X67419448Y-71224211D01*
X44749693Y-70970603D02*
X44796609Y-70880788D01*
X27041940Y-33402597D02*
X27064845Y-33501305D01*
X67163084Y-70788711D02*
X67205390Y-70880788D01*
X47125495Y-33694610D02*
X47163084Y-33788711D01*
X88899701Y-37002566D02*
X88798663Y-37010261D01*
X47858463Y-34641526D02*
X47943071Y-34697288D01*
X63599726Y-16408278D02*
X63695610Y-16375504D01*
X44990738Y-57297663D02*
X44977936Y-57197144D01*
X65001000Y-43250000D02*
X65001000Y-39000000D01*
X67419448Y-52724211D02*
X67483483Y-52802744D01*
X24749693Y-89470603D02*
X24796609Y-89380788D01*
X27419448Y-34224211D02*
X27483483Y-34302744D01*
X47483483Y-15802744D02*
X47551414Y-15877933D01*
X44960059Y-14902597D02*
X44977936Y-14802855D01*
X7252306Y-56529396D02*
X7205390Y-56619211D01*
X84990738Y-20297663D02*
X84977936Y-20197144D01*
X24378933Y-15949585D02*
X24450585Y-15877933D01*
X83881788Y-18704390D02*
X83789711Y-18662084D01*
X8798663Y-53489738D02*
X8899701Y-53497433D01*
X28212288Y-34837915D02*
X28306389Y-34875504D01*
X64960059Y-51902597D02*
X64977936Y-51802855D01*
X44749693Y-15470603D02*
X44796609Y-15380788D01*
X84642526Y-19357463D02*
X84582551Y-19275788D01*
X64749693Y-89470603D02*
X64796609Y-89380788D01*
X27776788Y-37418448D02*
X27698255Y-37482483D01*
X64225211Y-90081551D02*
X64303744Y-90017516D01*
X23303855Y-18523063D02*
X23203336Y-18510261D01*
X87041940Y-57097402D02*
X87024063Y-57197144D01*
X44998433Y-14601298D02*
X45001000Y-14500000D01*
X84876504Y-33694610D02*
X84909278Y-33598726D01*
X64143536Y-74358473D02*
X64058928Y-74302711D01*
X84450585Y-89877933D02*
X84518516Y-89802744D01*
X63881788Y-16295609D02*
X63971603Y-16248693D01*
X103695610Y-124495D02*
X103599726Y-91721D01*
X27483483Y-34302744D02*
X27551414Y-34377933D01*
X64698288Y-942071D02*
X64642526Y-857463D01*
X43001000Y-37000000D02*
X29001000Y-37000000D01*
X44143536Y-18858473D02*
X44058928Y-18802711D01*
X43695610Y-55624495D02*
X43599726Y-55591721D01*
X104838915Y-56711288D02*
X104796609Y-56619211D01*
X44642526Y-15642536D02*
X44698288Y-15557928D01*
X64518516Y-89802744D02*
X64582551Y-89724211D01*
X83789711Y-71837915D02*
X83881788Y-71795609D01*
X67858463Y-74358473D02*
X67776788Y-74418448D01*
X64876504Y-15194610D02*
X64909278Y-15098726D01*
X43403597Y-53459059D02*
X43502305Y-53436154D01*
X87003566Y-38898701D02*
X87001000Y-39000000D01*
X64143536Y-18858473D02*
X64058928Y-18802711D01*
X84876504Y-52194610D02*
X84909278Y-52098726D01*
X87125495Y-56805389D02*
X87092721Y-56901273D01*
X27092721Y-15098726D02*
X27125495Y-15194610D01*
X64796609Y-33880788D02*
X64838915Y-33788711D01*
X23203336Y-53489738D02*
X23303855Y-53476936D01*
X104749693Y-1029396D02*
X104698288Y-942071D01*
X103789711Y-74162084D02*
X103695610Y-74124495D01*
X47003566Y-70101298D02*
X47011261Y-70202336D01*
X87205390Y-75119211D02*
X87163084Y-75211288D01*
X47001000Y-76000000D02*
X47001000Y-80250000D01*
X68499694Y-55563845D02*
X68402273Y-55591721D01*
X68698144Y-18523063D02*
X68598402Y-18540940D01*
X47003566Y-14601298D02*
X47011261Y-14702336D01*
X28698144Y-23063D02*
X28598402Y-40940D01*
X66002000Y-80250000D02*
X66000000Y-80250000D01*
X67041940Y-88902597D02*
X67064845Y-89001305D01*
X87252306Y-38029396D02*
X87205390Y-38119211D01*
X8899701Y-74002566D02*
X8798663Y-74010261D01*
X68899701Y-18502566D02*
X68798663Y-18510261D01*
X67001000Y-24750000D02*
X66002000Y-24750000D01*
X103403597Y-74040940D02*
X103303855Y-74023063D01*
X63971603Y-55751306D02*
X63881788Y-55704390D01*
X7003566Y-88601298D02*
X7011261Y-88702336D01*
X87551414Y-15877933D02*
X87623066Y-15949585D01*
X88499694Y-16436154D02*
X88598402Y-16459059D01*
X23789711Y-37162084D02*
X23695610Y-37124495D01*
X87001000Y-61750000D02*
X86002000Y-61750000D01*
X47163084Y-56711288D02*
X47125495Y-56805389D01*
X44642526Y-37857463D02*
X44582551Y-37775788D01*
X7776788Y-34581551D02*
X7858463Y-34641526D01*
X104998433Y-57398701D02*
X104990738Y-57297663D01*
X24303744Y-18982483D02*
X24225211Y-18918448D01*
X27001000Y-61750000D02*
X26002000Y-61750000D01*
X64642526Y-37857463D02*
X64582551Y-37775788D01*
X24796609Y-15380788D02*
X24838915Y-15288711D01*
X67483483Y-697255D02*
X67419448Y-775788D01*
X87024063Y-20197144D02*
X87011261Y-20297663D01*
X8899701Y-37002566D02*
X8798663Y-37010261D01*
X88402273Y-18591721D02*
X88306389Y-18624495D01*
X67011261Y-51702336D02*
X67024063Y-51802855D01*
X47092721Y-56901273D02*
X47064845Y-56998694D01*
X103789711Y-37162084D02*
X103695610Y-37124495D01*
X87623066Y-37550414D02*
X87551414Y-37622066D01*
X87698255Y-53017516D02*
X87776788Y-53081551D01*
X44977936Y-38697144D02*
X44960059Y-38597402D01*
X44303744Y-16017516D02*
X44378933Y-15949585D01*
X67303711Y-19442071D02*
X67252306Y-19529396D01*
X24058928Y-37302711D02*
X23971603Y-37251306D01*
X88306389Y-71875504D02*
X88402273Y-71908278D01*
X24642526Y-56357463D02*
X24582551Y-56275788D01*
X84642526Y-15642536D02*
X84698288Y-15557928D01*
X67011261Y-20297663D02*
X67003566Y-20398701D01*
X104058928Y-16197288D02*
X104143536Y-16141526D01*
X47551414Y-15877933D02*
X47623066Y-15949585D01*
X28030396Y-71748693D02*
X28120211Y-71795609D01*
X64960059Y-33402597D02*
X64977936Y-33302855D01*
X27419448Y-56275788D02*
X27359473Y-56357463D01*
X84450585Y-37622066D02*
X84378933Y-37550414D01*
X7303711Y-56442071D02*
X7252306Y-56529396D01*
X7003566Y-57398701D02*
X7001000Y-57500000D01*
X67776788Y-18918448D02*
X67698255Y-18982483D01*
X104876504Y-52194610D02*
X104909278Y-52098726D01*
X8212288Y-18662084D02*
X8120211Y-18704390D01*
X67001000Y-80250000D02*
X66002000Y-80250000D01*
X48306389Y-55624495D02*
X48212288Y-55662084D01*
X68030396Y-37251306D02*
X67943071Y-37302711D01*
X64796609Y-15380788D02*
X64838915Y-15288711D01*
X27551414Y-19122066D02*
X27483483Y-19197255D01*
X104058928Y-53197288D02*
X104143536Y-53141526D01*
X44303744Y-74482483D02*
X44225211Y-74418448D01*
X23971603Y-34748693D02*
X24058928Y-34697288D01*
X44998433Y-88601298D02*
X45001000Y-88500000D01*
X84582551Y-15724211D02*
X84642526Y-15642536D01*
X7001000Y-39000000D02*
X7001000Y-43250000D01*
X87024063Y-33302855D02*
X87041940Y-33402597D01*
X8499694Y-55563845D02*
X8402273Y-55591721D01*
X7041940Y-20097402D02*
X7024063Y-20197144D01*
X104977936Y-57197144D02*
X104960059Y-57097402D01*
X84642526Y-37857463D02*
X84582551Y-37775788D01*
X86000000Y-28750000D02*
X86002000Y-28750000D01*
X28499694Y-63845D02*
X28402273Y-91721D01*
X87011261Y-33202336D02*
X87024063Y-33302855D01*
X23102298Y-55502566D02*
X23001000Y-55500000D01*
X67064845Y-33501305D02*
X67092721Y-33598726D01*
X27003566Y-20398701D02*
X27001000Y-20500000D01*
X87483483Y-697255D02*
X87419448Y-775788D01*
X107002000Y-10250000D02*
X107002000Y-24750000D01*
X28499694Y-34936154D02*
X28598402Y-34959059D01*
X5000000Y-80250000D02*
X5000000Y-65750000D01*
X47163084Y-33788711D02*
X47205390Y-33880788D01*
X67303711Y-56442071D02*
X67252306Y-56529396D01*
X84977936Y-38697144D02*
X84960059Y-38597402D01*
X87252306Y-52470603D02*
X87303711Y-52557928D01*
X8598402Y-53459059D02*
X8698144Y-53476936D01*
X47858463Y-74358473D02*
X47776788Y-74418448D01*
X104990738Y-33202336D02*
X104998433Y-33101298D01*
X67041940Y-51902597D02*
X67064845Y-52001305D01*
X63971603Y-74251306D02*
X63881788Y-74204390D01*
X67776788Y-34581551D02*
X67858463Y-34641526D01*
X7359473Y-56357463D02*
X7303711Y-56442071D01*
X44225211Y-16081551D02*
X44303744Y-16017516D01*
X104796609Y-38119211D02*
X104749693Y-38029396D01*
X28598402Y-16459059D02*
X28698144Y-16476936D01*
X104450585Y-34377933D02*
X104518516Y-34302744D01*
X87001000Y-80250000D02*
X86002000Y-80250000D01*
X67092721Y-19901273D02*
X67064845Y-19998694D01*
X67303711Y-89557928D02*
X67359473Y-89642536D01*
X63789711Y-34837915D02*
X63881788Y-34795609D01*
X8030396Y-37251306D02*
X7943071Y-37302711D01*
X43881788Y-204390D02*
X43789711Y-162084D01*
X7419448Y-74775788D02*
X7359473Y-74857463D01*
X47623066Y-74550414D02*
X47551414Y-74622066D01*
X104058928Y-34697288D02*
X104143536Y-34641526D01*
X104058928Y-18802711D02*
X103971603Y-18751306D01*
X27024063Y-88802855D02*
X27041940Y-88902597D01*
X7303711Y-942071D02*
X7252306Y-1029396D01*
X47064845Y-70501305D02*
X47092721Y-70598726D01*
X64518516Y-15802744D02*
X64582551Y-15724211D01*
X8798663Y-90489738D02*
X8899701Y-90497433D01*
X24977936Y-75697144D02*
X24960059Y-75597402D01*
X7858463Y-16141526D02*
X7943071Y-16197288D01*
X7001000Y-20500000D02*
X7001000Y-24750000D01*
X46000000Y-10250000D02*
X46002000Y-10250000D01*
X48030396Y-34748693D02*
X48120211Y-34795609D01*
X63599726Y-74091721D02*
X63502305Y-74063845D01*
X83599726Y-16408278D02*
X83695610Y-16375504D01*
X23303855Y-23063D02*
X23203336Y-10261D01*
X23403597Y-71959059D02*
X23502305Y-71936154D01*
X8120211Y-90295609D02*
X8212288Y-90337915D01*
X68598402Y-90459059D02*
X68698144Y-90476936D01*
X47698255Y-16017516D02*
X47776788Y-16081551D01*
X87483483Y-71302744D02*
X87551414Y-71377933D01*
X64990738Y-33202336D02*
X64998433Y-33101298D01*
X28899701Y-18502566D02*
X28798663Y-18510261D01*
X84378933Y-550414D02*
X84303744Y-482483D01*
X24876504Y-38305389D02*
X24838915Y-38211288D01*
X69001000Y-53500000D02*
X83001000Y-53500000D01*
X64960059Y-1597402D02*
X64937154Y-1498694D01*
X44225211Y-55918448D02*
X44143536Y-55858473D01*
X44990738Y-33202336D02*
X44998433Y-33101298D01*
X105001000Y-51500000D02*
X105001000Y-47250000D01*
X49001000Y-90500000D02*
X63001000Y-90500000D01*
X103881788Y-16295609D02*
X103971603Y-16248693D01*
X64378933Y-74550414D02*
X64303744Y-74482483D01*
X68598402Y-37040940D02*
X68499694Y-37063845D01*
X64977936Y-57197144D02*
X64960059Y-57097402D01*
X87776788Y-34581551D02*
X87858463Y-34641526D01*
X44909278Y-75401273D02*
X44876504Y-75305389D01*
X49001000Y-55500000D02*
X48899701Y-55502566D01*
X103403597Y-16459059D02*
X103502305Y-16436154D01*
X44698288Y-74942071D02*
X44642526Y-74857463D01*
X67943071Y-71697288D02*
X68030396Y-71748693D01*
X48306389Y-34875504D02*
X48402273Y-34908278D01*
X68306389Y-55624495D02*
X68212288Y-55662084D01*
X7419448Y-71224211D02*
X7483483Y-71302744D01*
X23789711Y-34837915D02*
X23881788Y-34795609D01*
X84796609Y-19619211D02*
X84749693Y-19529396D01*
X24838915Y-70788711D02*
X24876504Y-70694610D01*
X27041940Y-20097402D02*
X27024063Y-20197144D01*
X67623066Y-71449585D02*
X67698255Y-71517516D01*
X24960059Y-57097402D02*
X24937154Y-56998694D01*
X83695610Y-37124495D02*
X83599726Y-37091721D01*
X44303744Y-18982483D02*
X44225211Y-18918448D01*
X87776788Y-53081551D02*
X87858463Y-53141526D01*
X47483483Y-19197255D02*
X47419448Y-19275788D01*
X103695610Y-74124495D02*
X103599726Y-74091721D01*
X8306389Y-16375504D02*
X8402273Y-16408278D01*
X68698144Y-16476936D02*
X68798663Y-16489738D01*
X104990738Y-51702336D02*
X104998433Y-51601298D01*
X67858463Y-71641526D02*
X67943071Y-71697288D01*
X87205390Y-56619211D02*
X87163084Y-56711288D01*
X84143536Y-74358473D02*
X84058928Y-74302711D01*
X7003566Y-14601298D02*
X7011261Y-14702336D01*
X27303711Y-942071D02*
X27252306Y-1029396D01*
X83695610Y-74124495D02*
X83599726Y-74091721D01*
X47024063Y-33302855D02*
X47041940Y-33402597D01*
X85001000Y-51500000D02*
X85001000Y-47250000D01*
X27001000Y-80250000D02*
X26002000Y-80250000D01*
X24378933Y-56050414D02*
X24303744Y-55982483D01*
X48698144Y-74023063D02*
X48598402Y-74040940D01*
X29001000Y-90500000D02*
X43001000Y-90500000D01*
X44582551Y-19275788D02*
X44518516Y-19197255D01*
X64749693Y-70970603D02*
X64796609Y-70880788D01*
X68698144Y-71976936D02*
X68798663Y-71989738D01*
X68120211Y-90295609D02*
X68212288Y-90337915D01*
X47252306Y-15470603D02*
X47303711Y-15557928D01*
X87943071Y-302711D02*
X87858463Y-358473D01*
X43971603Y-18751306D02*
X43881788Y-18704390D01*
X64450585Y-37622066D02*
X64378933Y-37550414D01*
X83403597Y-34959059D02*
X83502305Y-34936154D01*
X47483483Y-697255D02*
X47419448Y-775788D01*
X84990738Y-38797663D02*
X84977936Y-38697144D01*
X46002000Y-47250000D02*
X47001000Y-47250000D01*
X87858463Y-74358473D02*
X87776788Y-74418448D01*
X86002000Y-6250000D02*
X86000000Y-6250000D01*
X63102298Y-16497433D02*
X63203336Y-16489738D01*
X68798663Y-34989738D02*
X68899701Y-34997433D01*
X103971603Y-74251306D02*
X103881788Y-74204390D01*
X84796609Y-56619211D02*
X84749693Y-56529396D01*
X28698144Y-16476936D02*
X28798663Y-16489738D01*
X47011261Y-88702336D02*
X47024063Y-88802855D01*
X87252306Y-19529396D02*
X87205390Y-19619211D01*
X89001000Y-72000000D02*
X103001000Y-72000000D01*
X103881788Y-18704390D02*
X103789711Y-18662084D01*
X8306389Y-74124495D02*
X8212288Y-74162084D01*
X67001000Y-84250000D02*
X67001000Y-88500000D01*
X87943071Y-16197288D02*
X88030396Y-16248693D01*
X48698144Y-18523063D02*
X48598402Y-18540940D01*
X64143536Y-71641526D02*
X64225211Y-71581551D01*
X7205390Y-33880788D02*
X7252306Y-33970603D01*
X28499694Y-16436154D02*
X28598402Y-16459059D01*
X48402273Y-37091721D02*
X48306389Y-37124495D01*
X88402273Y-74091721D02*
X88306389Y-74124495D01*
X28899701Y-74002566D02*
X28798663Y-74010261D01*
X67011261Y-70202336D02*
X67024063Y-70302855D01*
X48798663Y-34989738D02*
X48899701Y-34997433D01*
X47163084Y-15288711D02*
X47205390Y-15380788D01*
X84937154Y-89001305D02*
X84960059Y-88902597D01*
X64143536Y-16141526D02*
X64225211Y-16081551D01*
X43599726Y-71908278D02*
X43695610Y-71875504D01*
X8698144Y-34976936D02*
X8798663Y-34989738D01*
X28899701Y-90497433D02*
X29001000Y-90500000D01*
X23001000Y-72000000D02*
X23102298Y-71997433D01*
X86000000Y-47250000D02*
X86002000Y-47250000D01*
X44303744Y-37482483D02*
X44225211Y-37418448D01*
X87419448Y-74775788D02*
X87359473Y-74857463D01*
X7419448Y-34224211D02*
X7483483Y-34302744D01*
X67001000Y-10250000D02*
X67001000Y-14500000D01*
X63203336Y-37010261D02*
X63102298Y-37002566D01*
X67943071Y-37302711D02*
X67858463Y-37358473D01*
X28212288Y-162084D02*
X28120211Y-204390D01*
X86002000Y-47250000D02*
X87001000Y-47250000D01*
X68798663Y-10261D02*
X68698144Y-23063D01*
X104058928Y-302711D02*
X103971603Y-251306D01*
X27092721Y-1401273D02*
X27064845Y-1498694D01*
X44698288Y-942071D02*
X44642526Y-857463D01*
X27943071Y-37302711D02*
X27858463Y-37358473D01*
X68306389Y-90375504D02*
X68402273Y-90408278D01*
X85001000Y-6250000D02*
X85001000Y-2000000D01*
X8798663Y-37010261D02*
X8698144Y-37023063D01*
X28698144Y-37023063D02*
X28598402Y-37040940D01*
X27419448Y-52724211D02*
X27483483Y-52802744D01*
X63001000Y-16500000D02*
X63102298Y-16497433D01*
X47419448Y-19275788D02*
X47359473Y-19357463D01*
X8899701Y-2566D02*
X8798663Y-10261D01*
X87024063Y-75697144D02*
X87011261Y-75797663D01*
X7125495Y-70694610D02*
X7163084Y-70788711D01*
X84698288Y-56442071D02*
X84642526Y-56357463D01*
X27623066Y-71449585D02*
X27698255Y-71517516D01*
X26002000Y-65750000D02*
X27001000Y-65750000D01*
X27001000Y-84250000D02*
X27001000Y-88500000D01*
X65001000Y-47250000D02*
X66000000Y-47250000D01*
X88030396Y-34748693D02*
X88120211Y-34795609D01*
X7419448Y-15724211D02*
X7483483Y-15802744D01*
X104998433Y-75898701D02*
X104990738Y-75797663D01*
X24749693Y-15470603D02*
X24796609Y-15380788D01*
X107002000Y-61750000D02*
X105001000Y-61750000D01*
X67024063Y-14802855D02*
X67041940Y-14902597D01*
X87001000Y-88500000D02*
X87003566Y-88601298D01*
X84303744Y-37482483D02*
X84225211Y-37418448D01*
X104378933Y-74550414D02*
X104303744Y-74482483D01*
X86000000Y-61750000D02*
X85001000Y-61750000D01*
X44518516Y-19197255D02*
X44450585Y-19122066D01*
X47419448Y-15724211D02*
X47483483Y-15802744D01*
X68698144Y-55523063D02*
X68598402Y-55540940D01*
X23403597Y-18540940D02*
X23303855Y-18523063D01*
X7623066Y-34449585D02*
X7698255Y-34517516D01*
X27011261Y-33202336D02*
X27024063Y-33302855D01*
X83102298Y-16497433D02*
X83203336Y-16489738D01*
X24998433Y-14601298D02*
X25001000Y-14500000D01*
X48212288Y-162084D02*
X48120211Y-204390D01*
X67125495Y-19805389D02*
X67092721Y-19901273D01*
X7092721Y-75401273D02*
X7064845Y-75498694D01*
X7041940Y-70402597D02*
X7064845Y-70501305D01*
X83695610Y-16375504D02*
X83789711Y-16337915D01*
X28306389Y-53375504D02*
X28402273Y-53408278D01*
X68798663Y-90489738D02*
X68899701Y-90497433D01*
X83599726Y-71908278D02*
X83695610Y-71875504D01*
X87943071Y-90197288D02*
X88030396Y-90248693D01*
X104450585Y-622066D02*
X104378933Y-550414D01*
X43502305Y-34936154D02*
X43599726Y-34908278D01*
X45001000Y-88500000D02*
X45001000Y-84250000D01*
X7858463Y-53141526D02*
X7943071Y-53197288D01*
X83102298Y-18502566D02*
X83001000Y-18500000D01*
X67205390Y-89380788D02*
X67252306Y-89470603D01*
X87024063Y-57197144D02*
X87011261Y-57297663D01*
X67064845Y-1498694D02*
X67041940Y-1597402D01*
X84518516Y-15802744D02*
X84582551Y-15724211D01*
X84960059Y-51902597D02*
X84977936Y-51802855D01*
X44642526Y-56357463D02*
X44582551Y-56275788D01*
X103789711Y-71837915D02*
X103881788Y-71795609D01*
X45001000Y-20500000D02*
X44998433Y-20398701D01*
X67125495Y-75305389D02*
X67092721Y-75401273D01*
X28306389Y-55624495D02*
X28212288Y-55662084D01*
X43881788Y-37204390D02*
X43789711Y-37162084D01*
X104698288Y-89557928D02*
X104749693Y-89470603D01*
X67064845Y-19998694D02*
X67041940Y-20097402D01*
X23403597Y-34959059D02*
X23502305Y-34936154D01*
X48306389Y-16375504D02*
X48402273Y-16408278D01*
X64749693Y-15470603D02*
X64796609Y-15380788D01*
X24143536Y-53141526D02*
X24225211Y-53081551D01*
X83881788Y-16295609D02*
X83971603Y-16248693D01*
X24990738Y-1797663D02*
X24977936Y-1697144D01*
X87943071Y-37302711D02*
X87858463Y-37358473D01*
X64998433Y-33101298D02*
X65001000Y-33000000D01*
X64937154Y-70501305D02*
X64960059Y-70402597D01*
X105001000Y-39000000D02*
X104998433Y-38898701D01*
X7003566Y-20398701D02*
X7001000Y-20500000D01*
X7011261Y-51702336D02*
X7024063Y-51802855D01*
X64960059Y-75597402D02*
X64937154Y-75498694D01*
X44749693Y-33970603D02*
X44796609Y-33880788D01*
X67551414Y-622066D02*
X67483483Y-697255D01*
X87698255Y-55982483D02*
X87623066Y-56050414D01*
X7205390Y-56619211D02*
X7163084Y-56711288D01*
X63001000Y-72000000D02*
X63102298Y-71997433D01*
X7125495Y-38305389D02*
X7092721Y-38401273D01*
X87303711Y-89557928D02*
X87359473Y-89642536D01*
X68899701Y-53497433D02*
X69001000Y-53500000D01*
X87419448Y-56275788D02*
X87359473Y-56357463D01*
X64876504Y-75305389D02*
X64838915Y-75211288D01*
X7303711Y-15557928D02*
X7359473Y-15642536D01*
X87001000Y-28750000D02*
X87001000Y-33000000D01*
X23502305Y-63845D02*
X23403597Y-40940D01*
X24225211Y-53081551D02*
X24303744Y-53017516D01*
X85001000Y-43250000D02*
X85001000Y-39000000D01*
X64378933Y-37550414D02*
X64303744Y-37482483D01*
X44876504Y-56805389D02*
X44838915Y-56711288D01*
X87092721Y-56901273D02*
X87064845Y-56998694D01*
X7698255Y-18982483D02*
X7623066Y-19050414D01*
X67483483Y-89802744D02*
X67551414Y-89877933D01*
X84838915Y-75211288D02*
X84796609Y-75119211D01*
X83971603Y-18751306D02*
X83881788Y-18704390D01*
X47698255Y-18982483D02*
X47623066Y-19050414D01*
X44838915Y-1211288D02*
X44796609Y-1119211D01*
X64225211Y-55918448D02*
X64143536Y-55858473D01*
X47024063Y-88802855D02*
X47041940Y-88902597D01*
X83971603Y-251306D02*
X83881788Y-204390D01*
X28899701Y-16497433D02*
X29001000Y-16500000D01*
X63203336Y-74010261D02*
X63102298Y-74002566D01*
X68212288Y-162084D02*
X68120211Y-204390D01*
X7303711Y-52557928D02*
X7359473Y-52642536D01*
X27024063Y-57197144D02*
X27011261Y-57297663D01*
X84225211Y-71581551D02*
X84303744Y-71517516D01*
X27698255Y-53017516D02*
X27776788Y-53081551D01*
X63203336Y-53489738D02*
X63303855Y-53476936D01*
X63881788Y-55704390D02*
X63789711Y-55662084D01*
X48899701Y-16497433D02*
X49001000Y-16500000D01*
X43403597Y-55540940D02*
X43303855Y-55523063D01*
X24143536Y-90141526D02*
X24225211Y-90081551D01*
X64838915Y-75211288D02*
X64796609Y-75119211D01*
X47943071Y-37302711D02*
X47858463Y-37358473D01*
X103001000Y-90500000D02*
X103102298Y-90497433D01*
X27092721Y-75401273D02*
X27064845Y-75498694D01*
X87252306Y-75029396D02*
X87205390Y-75119211D01*
X84058928Y-34697288D02*
X84143536Y-34641526D01*
X67698255Y-90017516D02*
X67776788Y-90081551D01*
X67551414Y-89877933D02*
X67623066Y-89949585D01*
X88120211Y-18704390D02*
X88030396Y-18751306D01*
X63971603Y-53248693D02*
X64058928Y-53197288D01*
X88306389Y-34875504D02*
X88402273Y-34908278D01*
X7064845Y-89001305D02*
X7092721Y-89098726D01*
X66002000Y-28750000D02*
X67001000Y-28750000D01*
X84058928Y-18802711D02*
X83971603Y-18751306D01*
X67024063Y-70302855D02*
X67041940Y-70402597D01*
X46002000Y-28750000D02*
X47001000Y-28750000D01*
X65001000Y-70000000D02*
X65001000Y-65750000D01*
X24378933Y-550414D02*
X24303744Y-482483D01*
X103001000Y-55500000D02*
X89001000Y-55500000D01*
X24960059Y-70402597D02*
X24977936Y-70302855D01*
X28899701Y-37002566D02*
X28798663Y-37010261D01*
X83203336Y-10261D02*
X83102298Y-2566D01*
X48402273Y-71908278D02*
X48499694Y-71936154D01*
X27011261Y-51702336D02*
X27024063Y-51802855D01*
X64582551Y-56275788D02*
X64518516Y-56197255D01*
X85001000Y-24750000D02*
X85001000Y-20500000D01*
X43789711Y-90337915D02*
X43881788Y-90295609D01*
X28499694Y-90436154D02*
X28598402Y-90459059D01*
X28798663Y-10261D02*
X28698144Y-23063D01*
X24998433Y-20398701D02*
X24990738Y-20297663D01*
X28306389Y-90375504D02*
X28402273Y-90408278D01*
X64378933Y-34449585D02*
X64450585Y-34377933D01*
X63102298Y-18502566D02*
X63001000Y-18500000D01*
X83502305Y-55563845D02*
X83403597Y-55540940D01*
X23203336Y-34989738D02*
X23303855Y-34976936D01*
X88798663Y-71989738D02*
X88899701Y-71997433D01*
X87623066Y-71449585D02*
X87698255Y-71517516D01*
X44937154Y-52001305D02*
X44960059Y-51902597D01*
X63502305Y-16436154D02*
X63599726Y-16408278D01*
X85001000Y-33000000D02*
X85001000Y-28750000D01*
X65001000Y-65750000D02*
X66000000Y-65750000D01*
X84838915Y-33788711D02*
X84876504Y-33694610D01*
X68698144Y-34976936D02*
X68798663Y-34989738D01*
X45001000Y-80250000D02*
X45001000Y-76000000D01*
X44960059Y-1597402D02*
X44937154Y-1498694D01*
X84378933Y-71449585D02*
X84450585Y-71377933D01*
X103971603Y-53248693D02*
X104058928Y-53197288D01*
X103203336Y-53489738D02*
X103303855Y-53476936D01*
X86000000Y-24750000D02*
X85001000Y-24750000D01*
X23881788Y-37204390D02*
X23789711Y-37162084D01*
X67001000Y-47250000D02*
X67001000Y-51500000D01*
X24225211Y-37418448D02*
X24143536Y-37358473D01*
X87858463Y-37358473D02*
X87776788Y-37418448D01*
X48402273Y-91721D02*
X48306389Y-124495D01*
X64977936Y-75697144D02*
X64960059Y-75597402D01*
X44378933Y-74550414D02*
X44303744Y-74482483D01*
X67001000Y-20500000D02*
X67001000Y-24750000D01*
X64450585Y-74622066D02*
X64378933Y-74550414D01*
X27858463Y-358473D02*
X27776788Y-418448D01*
X104225211Y-34581551D02*
X104303744Y-34517516D01*
X87551414Y-56122066D02*
X87483483Y-56197255D01*
X7001000Y-43250000D02*
X5000000Y-43250000D01*
X48798663Y-37010261D02*
X48698144Y-37023063D01*
X47483483Y-37697255D02*
X47419448Y-37775788D01*
X47001000Y-47250000D02*
X47001000Y-51500000D01*
X88030396Y-18751306D02*
X87943071Y-18802711D01*
X84998433Y-75898701D02*
X84990738Y-75797663D01*
X7359473Y-71142536D02*
X7419448Y-71224211D01*
X67092721Y-38401273D02*
X67064845Y-38498694D01*
X104378933Y-37550414D02*
X104303744Y-37482483D01*
X64642526Y-56357463D02*
X64582551Y-56275788D01*
X67024063Y-1697144D02*
X67011261Y-1797663D01*
X83403597Y-90459059D02*
X83502305Y-90436154D01*
X47551414Y-34377933D02*
X47623066Y-34449585D01*
X48798663Y-16489738D02*
X48899701Y-16497433D01*
X64977936Y-51802855D02*
X64990738Y-51702336D01*
X103001000Y-37000000D02*
X89001000Y-37000000D01*
X48120211Y-16295609D02*
X48212288Y-16337915D01*
X84749693Y-70970603D02*
X84796609Y-70880788D01*
X24749693Y-33970603D02*
X24796609Y-33880788D01*
X68402273Y-34908278D02*
X68499694Y-34936154D01*
X47205390Y-19619211D02*
X47163084Y-19711288D01*
X87359473Y-15642536D02*
X87419448Y-15724211D01*
X84582551Y-19275788D02*
X84518516Y-19197255D01*
X64225211Y-418448D02*
X64143536Y-358473D01*
X104698288Y-34057928D02*
X104749693Y-33970603D01*
X24960059Y-75597402D02*
X24937154Y-75498694D01*
X87205390Y-38119211D02*
X87163084Y-38211288D01*
X43303855Y-53476936D02*
X43403597Y-53459059D01*
X68598402Y-34959059D02*
X68698144Y-34976936D01*
X88402273Y-34908278D02*
X88499694Y-34936154D01*
X88499694Y-71936154D02*
X88598402Y-71959059D01*
X27776788Y-18918448D02*
X27698255Y-18982483D01*
X45001000Y-57500000D02*
X44998433Y-57398701D01*
X23599726Y-34908278D02*
X23695610Y-34875504D01*
X48698144Y-90476936D02*
X48798663Y-90489738D01*
X44838915Y-15288711D02*
X44876504Y-15194610D01*
X23403597Y-90459059D02*
X23502305Y-90436154D01*
X48306389Y-18624495D02*
X48212288Y-18662084D01*
X104998433Y-14601298D02*
X105001000Y-14500000D01*
X43881788Y-71795609D02*
X43971603Y-71748693D01*
X47858463Y-90141526D02*
X47943071Y-90197288D01*
X87776788Y-18918448D02*
X87698255Y-18982483D01*
X48212288Y-18662084D02*
X48120211Y-18704390D01*
X47011261Y-1797663D02*
X47003566Y-1898701D01*
X7041940Y-88902597D02*
X7064845Y-89001305D01*
X27623066Y-15949585D02*
X27698255Y-16017516D01*
X84937154Y-19998694D02*
X84909278Y-19901273D01*
X84378933Y-56050414D02*
X84303744Y-55982483D01*
X27698255Y-71517516D02*
X27776788Y-71581551D01*
X7858463Y-37358473D02*
X7776788Y-37418448D01*
X67024063Y-51802855D02*
X67041940Y-51902597D01*
X85001000Y-65750000D02*
X86000000Y-65750000D01*
X29001000Y-18500000D02*
X28899701Y-18502566D01*
X64143536Y-55858473D02*
X64058928Y-55802711D01*
X27041940Y-14902597D02*
X27064845Y-15001305D01*
X27698255Y-18982483D02*
X27623066Y-19050414D01*
X7943071Y-55802711D02*
X7858463Y-55858473D01*
X28698144Y-18523063D02*
X28598402Y-18540940D01*
X8598402Y-71959059D02*
X8698144Y-71976936D01*
X28120211Y-18704390D02*
X28030396Y-18751306D01*
X47001000Y-88500000D02*
X47003566Y-88601298D01*
X27205390Y-75119211D02*
X27163084Y-75211288D01*
X67064845Y-89001305D02*
X67092721Y-89098726D01*
X44225211Y-34581551D02*
X44303744Y-34517516D01*
X83303855Y-16476936D02*
X83403597Y-16459059D01*
X103971603Y-16248693D02*
X104058928Y-16197288D01*
X24998433Y-1898701D02*
X24990738Y-1797663D01*
X64378933Y-71449585D02*
X64450585Y-71377933D01*
X104977936Y-33302855D02*
X104990738Y-33202336D01*
X24749693Y-56529396D02*
X24698288Y-56442071D01*
X48798663Y-53489738D02*
X48899701Y-53497433D01*
X9001000Y-90500000D02*
X23001000Y-90500000D01*
X44909278Y-33598726D02*
X44937154Y-33501305D01*
X48698144Y-37023063D02*
X48598402Y-37040940D01*
X47252306Y-19529396D02*
X47205390Y-19619211D01*
X64518516Y-71302744D02*
X64582551Y-71224211D01*
X48899701Y-74002566D02*
X48798663Y-74010261D01*
X27092721Y-70598726D02*
X27125495Y-70694610D01*
X64378933Y-56050414D02*
X64303744Y-55982483D01*
X84960059Y-38597402D02*
X84937154Y-38498694D01*
X8899701Y-55502566D02*
X8798663Y-55510261D01*
X24225211Y-16081551D02*
X24303744Y-16017516D01*
X87163084Y-15288711D02*
X87205390Y-15380788D01*
X44796609Y-75119211D02*
X44749693Y-75029396D01*
X64838915Y-52288711D02*
X64876504Y-52194610D01*
X87064845Y-70501305D02*
X87092721Y-70598726D01*
X104796609Y-56619211D02*
X104749693Y-56529396D01*
X63203336Y-55510261D02*
X63102298Y-55502566D01*
X69001000Y-90500000D02*
X83001000Y-90500000D01*
X87359473Y-56357463D02*
X87303711Y-56442071D01*
X7858463Y-34641526D02*
X7943071Y-34697288D01*
X67551414Y-74622066D02*
X67483483Y-74697255D01*
X8306389Y-34875504D02*
X8402273Y-34908278D01*
X84909278Y-38401273D02*
X84876504Y-38305389D01*
X27303711Y-34057928D02*
X27359473Y-34142536D01*
X43695610Y-18624495D02*
X43599726Y-18591721D01*
X104909278Y-89098726D02*
X104937154Y-89001305D01*
X64909278Y-19901273D02*
X64876504Y-19805389D01*
X65001000Y-33000000D02*
X65001000Y-28750000D01*
X87551414Y-74622066D02*
X87483483Y-74697255D01*
X67858463Y-90141526D02*
X67943071Y-90197288D01*
X27623066Y-550414D02*
X27551414Y-622066D01*
X104303744Y-34517516D02*
X104378933Y-34449585D01*
X103789711Y-16337915D02*
X103881788Y-16295609D01*
X46000000Y-80250000D02*
X45001000Y-80250000D01*
X8306389Y-124495D02*
X8212288Y-162084D01*
X47776788Y-53081551D02*
X47858463Y-53141526D01*
X83001000Y0D02*
X69001000Y0D01*
X89001000Y-53500000D02*
X103001000Y-53500000D01*
X47001000Y-51500000D02*
X47003566Y-51601298D01*
X64796609Y-19619211D02*
X64749693Y-19529396D01*
X44642526Y-19357463D02*
X44582551Y-19275788D01*
X24749693Y-70970603D02*
X24796609Y-70880788D01*
X67943071Y-34697288D02*
X68030396Y-34748693D01*
X47359473Y-34142536D02*
X47419448Y-34224211D01*
X63303855Y-74023063D02*
X63203336Y-74010261D01*
X28212288Y-71837915D02*
X28306389Y-71875504D01*
X88499694Y-63845D02*
X88402273Y-91721D01*
X88212288Y-71837915D02*
X88306389Y-71875504D01*
X27205390Y-52380788D02*
X27252306Y-52470603D01*
X68798663Y-53489738D02*
X68899701Y-53497433D01*
X47858463Y-55858473D02*
X47776788Y-55918448D01*
X88120211Y-204390D02*
X88030396Y-251306D01*
X67419448Y-34224211D02*
X67483483Y-34302744D01*
X47943071Y-53197288D02*
X48030396Y-53248693D01*
X27419448Y-37775788D02*
X27359473Y-37857463D01*
X7776788Y-55918448D02*
X7698255Y-55982483D01*
X64749693Y-75029396D02*
X64698288Y-74942071D01*
X103403597Y-40940D02*
X103303855Y-23063D01*
X104749693Y-38029396D02*
X104698288Y-37942071D01*
X44977936Y-75697144D02*
X44960059Y-75597402D01*
X83001000Y-53500000D02*
X83102298Y-53497433D01*
X107002000Y-90500000D02*
X112002000Y-90500000D01*
X84990738Y-70202336D02*
X84998433Y-70101298D01*
X87163084Y-33788711D02*
X87205390Y-33880788D01*
X44838915Y-33788711D02*
X44876504Y-33694610D01*
X67359473Y-34142536D02*
X67419448Y-34224211D01*
X24838915Y-75211288D02*
X24796609Y-75119211D01*
X47064845Y-19998694D02*
X47041940Y-20097402D01*
X104909278Y-52098726D02*
X104937154Y-52001305D01*
X64582551Y-89724211D02*
X64642526Y-89642536D01*
X23695610Y-90375504D02*
X23789711Y-90337915D01*
X67623066Y-56050414D02*
X67551414Y-56122066D01*
X23102298Y-16497433D02*
X23203336Y-16489738D01*
X24058928Y-16197288D02*
X24143536Y-16141526D01*
X43403597Y-18540940D02*
X43303855Y-18523063D01*
X27163084Y-38211288D02*
X27125495Y-38305389D01*
X28212288Y-53337915D02*
X28306389Y-53375504D01*
X87483483Y-19197255D02*
X87419448Y-19275788D01*
X104749693Y-75029396D02*
X104698288Y-74942071D01*
X103881788Y-53295609D02*
X103971603Y-53248693D01*
X104378933Y-52949585D02*
X104450585Y-52877933D01*
X29001000Y-16500000D02*
X43001000Y-16500000D01*
X48306389Y-90375504D02*
X48402273Y-90408278D01*
X103102298Y-53497433D02*
X103203336Y-53489738D01*
X27623066Y-37550414D02*
X27551414Y-37622066D01*
X27776788Y-90081551D02*
X27858463Y-90141526D01*
X87303711Y-52557928D02*
X87359473Y-52642536D01*
X8212288Y-74162084D02*
X8120211Y-74204390D01*
X24582551Y-89724211D02*
X24642526Y-89642536D01*
X68698144Y-37023063D02*
X68598402Y-37040940D01*
X8120211Y-34795609D02*
X8212288Y-34837915D01*
X84698288Y-34057928D02*
X84749693Y-33970603D01*
X64058928Y-16197288D02*
X64143536Y-16141526D01*
X44698288Y-56442071D02*
X44642526Y-56357463D01*
X103403597Y-34959059D02*
X103502305Y-34936154D01*
X105001000Y-14500000D02*
X105001000Y-10250000D01*
X87303711Y-56442071D02*
X87252306Y-56529396D01*
X64909278Y-52098726D02*
X64937154Y-52001305D01*
X67024063Y-88802855D02*
X67041940Y-88902597D01*
X27125495Y-19805389D02*
X27092721Y-19901273D01*
X8899701Y-90497433D02*
X9001000Y-90500000D01*
X67205390Y-1119211D02*
X67163084Y-1211288D01*
X66000000Y-84250000D02*
X66002000Y-84250000D01*
X66000000Y-65750000D02*
X66002000Y-65750000D01*
X48120211Y-90295609D02*
X48212288Y-90337915D01*
X103971603Y-34748693D02*
X104058928Y-34697288D01*
X64642526Y-857463D02*
X64582551Y-775788D01*
X88798663Y-37010261D02*
X88698144Y-37023063D01*
X104582551Y-34224211D02*
X104642526Y-34142536D01*
X29001000Y-72000000D02*
X43001000Y-72000000D01*
X7698255Y-55982483D02*
X7623066Y-56050414D01*
X7001000Y-14500000D02*
X7003566Y-14601298D01*
X8306389Y-55624495D02*
X8212288Y-55662084D01*
X87092721Y-1401273D02*
X87064845Y-1498694D01*
X68499694Y-37063845D02*
X68402273Y-37091721D01*
X87359473Y-34142536D02*
X87419448Y-34224211D01*
X45001000Y-76000000D02*
X44998433Y-75898701D01*
X24518516Y-52802744D02*
X24582551Y-52724211D01*
X47011261Y-57297663D02*
X47003566Y-57398701D01*
X87252306Y-33970603D02*
X87303711Y-34057928D01*
X23695610Y-37124495D02*
X23599726Y-37091721D01*
X83971603Y-34748693D02*
X84058928Y-34697288D01*
X44960059Y-70402597D02*
X44977936Y-70302855D01*
X44642526Y-71142536D02*
X44698288Y-71057928D01*
X103971603Y-90248693D02*
X104058928Y-90197288D01*
X67483483Y-15802744D02*
X67551414Y-15877933D01*
X107002000Y-6250000D02*
X105001000Y-6250000D01*
X24909278Y-19901273D02*
X24876504Y-19805389D01*
X7776788Y-16081551D02*
X7858463Y-16141526D01*
X83303855Y-71976936D02*
X83403597Y-71959059D01*
X8402273Y-71908278D02*
X8499694Y-71936154D01*
X23971603Y-55751306D02*
X23881788Y-55704390D01*
X87003566Y-70101298D02*
X87011261Y-70202336D01*
X44937154Y-19998694D02*
X44909278Y-19901273D01*
X67252306Y-56529396D02*
X67205390Y-56619211D01*
X7551414Y-89877933D02*
X7623066Y-89949585D01*
X28598402Y-74040940D02*
X28499694Y-74063845D01*
X64450585Y-622066D02*
X64378933Y-550414D01*
X7125495Y-19805389D02*
X7092721Y-19901273D01*
X87623066Y-56050414D02*
X87551414Y-56122066D01*
X43102298Y-74002566D02*
X43001000Y-74000000D01*
X104642526Y-52642536D02*
X104698288Y-52557928D01*
X43789711Y-74162084D02*
X43695610Y-74124495D01*
X68598402Y-40940D02*
X68499694Y-63845D01*
X44225211Y-90081551D02*
X44303744Y-90017516D01*
X63203336Y-71989738D02*
X63303855Y-71976936D01*
X64960059Y-14902597D02*
X64977936Y-14802855D01*
X64749693Y-19529396D02*
X64698288Y-19442071D01*
X47359473Y-37857463D02*
X47303711Y-37942071D01*
X47001000Y-43250000D02*
X46002000Y-43250000D01*
X27419448Y-15724211D02*
X27483483Y-15802744D01*
X48402273Y-74091721D02*
X48306389Y-74124495D01*
X7001000Y-57500000D02*
X7001000Y-61750000D01*
X68899701Y-71997433D02*
X69001000Y-72000000D01*
X7001000Y-84250000D02*
X7001000Y-88500000D01*
X67001000Y-6250000D02*
X66002000Y-6250000D01*
X23695610Y-18624495D02*
X23599726Y-18591721D01*
X89001000Y-74000000D02*
X88899701Y-74002566D01*
X47551414Y-622066D02*
X47483483Y-697255D01*
X103789711Y-34837915D02*
X103881788Y-34795609D01*
X104937154Y-1498694D02*
X104909278Y-1401273D01*
X103502305Y-18563845D02*
X103403597Y-18540940D01*
X24698288Y-19442071D02*
X24642526Y-19357463D01*
X84909278Y-56901273D02*
X84876504Y-56805389D01*
X48899701Y-90497433D02*
X49001000Y-90500000D01*
X63303855Y-34976936D02*
X63403597Y-34959059D01*
X44749693Y-75029396D02*
X44698288Y-74942071D01*
X24796609Y-1119211D02*
X24749693Y-1029396D01*
X47419448Y-71224211D02*
X47483483Y-71302744D01*
X83695610Y-55624495D02*
X83599726Y-55591721D01*
X7041940Y-38597402D02*
X7024063Y-38697144D01*
X27419448Y-19275788D02*
X27359473Y-19357463D01*
X8120211Y-204390D02*
X8030396Y-251306D01*
X87943071Y-34697288D02*
X88030396Y-34748693D01*
X23303855Y-55523063D02*
X23203336Y-55510261D01*
X8212288Y-90337915D02*
X8306389Y-90375504D01*
X63303855Y-23063D02*
X63203336Y-10261D01*
X48212288Y-16337915D02*
X48306389Y-16375504D01*
X8899701Y-71997433D02*
X9001000Y-72000000D01*
X103695610Y-34875504D02*
X103789711Y-34837915D01*
X23881788Y-53295609D02*
X23971603Y-53248693D01*
X64450585Y-19122066D02*
X64378933Y-19050414D01*
X88698144Y-55523063D02*
X88598402Y-55540940D01*
X64143536Y-37358473D02*
X64058928Y-37302711D01*
X28030396Y-55751306D02*
X27943071Y-55802711D01*
X43203336Y-71989738D02*
X43303855Y-71976936D01*
X27551414Y-52877933D02*
X27623066Y-52949585D01*
X27024063Y-20197144D02*
X27011261Y-20297663D01*
X67776788Y-90081551D02*
X67858463Y-90141526D01*
X104990738Y-88702336D02*
X104998433Y-88601298D01*
X28212288Y-18662084D02*
X28120211Y-18704390D01*
X63789711Y-162084D02*
X63695610Y-124495D01*
X68030396Y-18751306D02*
X67943071Y-18802711D01*
X88120211Y-71795609D02*
X88212288Y-71837915D01*
X104143536Y-74358473D02*
X104058928Y-74302711D01*
X104977936Y-38697144D02*
X104960059Y-38597402D01*
X44642526Y-89642536D02*
X44698288Y-89557928D01*
X24450585Y-89877933D02*
X24518516Y-89802744D01*
X88402273Y-91721D02*
X88306389Y-124495D01*
X88030396Y-55751306D02*
X87943071Y-55802711D01*
X48030396Y-37251306D02*
X47943071Y-37302711D01*
X104518516Y-89802744D02*
X104582551Y-89724211D01*
X43502305Y-53436154D02*
X43599726Y-53408278D01*
X63502305Y-37063845D02*
X63403597Y-37040940D01*
X64698288Y-74942071D02*
X64642526Y-74857463D01*
X67419448Y-19275788D02*
X67359473Y-19357463D01*
X88899701Y-18502566D02*
X88798663Y-18510261D01*
X67163084Y-19711288D02*
X67125495Y-19805389D01*
X28306389Y-74124495D02*
X28212288Y-74162084D01*
X63971603Y-71748693D02*
X64058928Y-71697288D01*
X29001000Y-37000000D02*
X28899701Y-37002566D01*
X46002000Y-6250000D02*
X46000000Y-6250000D01*
X27205390Y-70880788D02*
X27252306Y-70970603D01*
X47092721Y-1401273D02*
X47064845Y-1498694D01*
X84303744Y-34517516D02*
X84378933Y-34449585D01*
X48030396Y-251306D02*
X47943071Y-302711D01*
X84990738Y-88702336D02*
X84998433Y-88601298D01*
X27551414Y-89877933D02*
X27623066Y-89949585D01*
X87205390Y-15380788D02*
X87252306Y-15470603D01*
X44796609Y-52380788D02*
X44838915Y-52288711D01*
X8120211Y-55704390D02*
X8030396Y-55751306D01*
X24450585Y-34377933D02*
X24518516Y-34302744D01*
X48598402Y-55540940D02*
X48499694Y-55563845D01*
X84225211Y-16081551D02*
X84303744Y-16017516D01*
X23695610Y-71875504D02*
X23789711Y-71837915D01*
X23502305Y-37063845D02*
X23403597Y-37040940D01*
X84998433Y-88601298D02*
X85001000Y-88500000D01*
X103502305Y-63845D02*
X103403597Y-40940D01*
X83303855Y-55523063D02*
X83203336Y-55510261D01*
X67419448Y-74775788D02*
X67359473Y-74857463D01*
X44143536Y-55858473D02*
X44058928Y-55802711D01*
X83001000Y-72000000D02*
X83102298Y-71997433D01*
X83203336Y-16489738D02*
X83303855Y-16476936D01*
X67163084Y-52288711D02*
X67205390Y-52380788D01*
X27001000Y-65750000D02*
X27001000Y-70000000D01*
X86002000Y-84250000D02*
X87001000Y-84250000D01*
X44582551Y-15724211D02*
X44642526Y-15642536D01*
X23971603Y-16248693D02*
X24058928Y-16197288D01*
X47698255Y-482483D02*
X47623066Y-550414D01*
X67092721Y-52098726D02*
X67125495Y-52194610D01*
X48499694Y-74063845D02*
X48402273Y-74091721D01*
X49001000Y-53500000D02*
X63001000Y-53500000D01*
X104143536Y-90141526D02*
X104225211Y-90081551D01*
X44642526Y-52642536D02*
X44698288Y-52557928D01*
X65001000Y-14500000D02*
X65001000Y-10250000D01*
X24450585Y-37622066D02*
X24378933Y-37550414D01*
X87551414Y-89877933D02*
X87623066Y-89949585D01*
X47001000Y-70000000D02*
X47003566Y-70101298D01*
X87092721Y-33598726D02*
X87125495Y-33694610D01*
X87001000Y-10250000D02*
X87001000Y-14500000D01*
X48120211Y-37204390D02*
X48030396Y-37251306D01*
X63599726Y-34908278D02*
X63695610Y-34875504D01*
X87776788Y-55918448D02*
X87698255Y-55982483D01*
X64998433Y-88601298D02*
X65001000Y-88500000D01*
X24909278Y-75401273D02*
X24876504Y-75305389D01*
X44518516Y-74697255D02*
X44450585Y-74622066D01*
X87064845Y-75498694D02*
X87041940Y-75597402D01*
X24749693Y-1029396D02*
X24698288Y-942071D01*
X5000000Y-6250000D02*
X5000000Y0D01*
X66002000Y-6250000D02*
X66000000Y-6250000D01*
X87419448Y-34224211D02*
X87483483Y-34302744D01*
X87698255Y-71517516D02*
X87776788Y-71581551D01*
X24990738Y-14702336D02*
X24998433Y-14601298D01*
X63695610Y-71875504D02*
X63789711Y-71837915D01*
X67858463Y-55858473D02*
X67776788Y-55918448D01*
X104960059Y-88902597D02*
X104977936Y-88802855D01*
X27483483Y-71302744D02*
X27551414Y-71377933D01*
X64698288Y-56442071D02*
X64642526Y-56357463D01*
X43303855Y-16476936D02*
X43403597Y-16459059D01*
X24058928Y-53197288D02*
X24143536Y-53141526D01*
X87943071Y-74302711D02*
X87858463Y-74358473D01*
X63695610Y-90375504D02*
X63789711Y-90337915D01*
X43403597Y-74040940D02*
X43303855Y-74023063D01*
X7623066Y-37550414D02*
X7551414Y-37622066D01*
X23203336Y-55510261D02*
X23102298Y-55502566D01*
X103001000Y-72000000D02*
X103102298Y-71997433D01*
X103203336Y-10261D02*
X103102298Y-2566D01*
X23001000Y-18500000D02*
X9001000Y-18500000D01*
X86002000Y-24750000D02*
X86000000Y-24750000D01*
X7623066Y-52949585D02*
X7698255Y-53017516D01*
X84960059Y-14902597D02*
X84977936Y-14802855D01*
X103102298Y-90497433D02*
X103203336Y-90489738D01*
X64450585Y-56122066D02*
X64378933Y-56050414D01*
X7623066Y-89949585D02*
X7698255Y-90017516D01*
X104642526Y-857463D02*
X104582551Y-775788D01*
X104225211Y-53081551D02*
X104303744Y-53017516D01*
X87041940Y-38597402D02*
X87024063Y-38697144D01*
X23502305Y-55563845D02*
X23403597Y-55540940D01*
X87041940Y-88902597D02*
X87064845Y-89001305D01*
X28698144Y-53476936D02*
X28798663Y-53489738D01*
X8499694Y-37063845D02*
X8402273Y-37091721D01*
X44937154Y-15001305D02*
X44960059Y-14902597D01*
X64698288Y-71057928D02*
X64749693Y-70970603D01*
X47125495Y-19805389D02*
X47092721Y-19901273D01*
X47003566Y-57398701D02*
X47001000Y-57500000D01*
X63971603Y-251306D02*
X63881788Y-204390D01*
X7419448Y-52724211D02*
X7483483Y-52802744D01*
X48030396Y-16248693D02*
X48120211Y-16295609D01*
X63303855Y-37023063D02*
X63203336Y-37010261D01*
X84378933Y-15949585D02*
X84450585Y-15877933D01*
X23303855Y-16476936D02*
X23403597Y-16459059D01*
X68899701Y-74002566D02*
X68798663Y-74010261D01*
X104838915Y-38211288D02*
X104796609Y-38119211D01*
X84698288Y-74942071D02*
X84642526Y-74857463D01*
X83203336Y-34989738D02*
X83303855Y-34976936D01*
X44977936Y-20197144D02*
X44960059Y-20097402D01*
X28402273Y-74091721D02*
X28306389Y-74124495D01*
X7303711Y-89557928D02*
X7359473Y-89642536D01*
X87698255Y-16017516D02*
X87776788Y-16081551D01*
X88030396Y-90248693D02*
X88120211Y-90295609D01*
X103599726Y-91721D02*
X103502305Y-63845D01*
X68798663Y-16489738D02*
X68899701Y-16497433D01*
X7064845Y-38498694D02*
X7041940Y-38597402D01*
X45001000Y-28750000D02*
X46000000Y-28750000D01*
X104909278Y-75401273D02*
X104876504Y-75305389D01*
X103789711Y-162084D02*
X103695610Y-124495D01*
X86000000Y-6250000D02*
X85001000Y-6250000D01*
X64998433Y-1898701D02*
X64990738Y-1797663D01*
X84450585Y-19122066D02*
X84378933Y-19050414D01*
X104698288Y-37942071D02*
X104642526Y-37857463D01*
X44518516Y-56197255D02*
X44450585Y-56122066D01*
X47125495Y-75305389D02*
X47092721Y-75401273D01*
X23303855Y-37023063D02*
X23203336Y-37010261D01*
X88598402Y-34959059D02*
X88698144Y-34976936D01*
X67303711Y-37942071D02*
X67252306Y-38029396D01*
X83403597Y-40940D02*
X83303855Y-23063D01*
X44909278Y-70598726D02*
X44937154Y-70501305D01*
X84143536Y-90141526D02*
X84225211Y-90081551D01*
X104990738Y-1797663D02*
X104977936Y-1697144D01*
X24058928Y-18802711D02*
X23971603Y-18751306D01*
X7125495Y-15194610D02*
X7163084Y-15288711D01*
X47252306Y-56529396D02*
X47205390Y-56619211D01*
X87064845Y-33501305D02*
X87092721Y-33598726D01*
X48212288Y-53337915D02*
X48306389Y-53375504D01*
X43001000Y-16500000D02*
X43102298Y-16497433D01*
X8120211Y-53295609D02*
X8212288Y-53337915D01*
X84796609Y-33880788D02*
X84838915Y-33788711D01*
X44796609Y-33880788D02*
X44838915Y-33788711D01*
X7024063Y-33302855D02*
X7041940Y-33402597D01*
X7551414Y-15877933D02*
X7623066Y-15949585D01*
X7623066Y-19050414D02*
X7551414Y-19122066D01*
X64303744Y-55982483D02*
X64225211Y-55918448D01*
X24960059Y-88902597D02*
X24977936Y-88802855D01*
X88402273Y-53408278D02*
X88499694Y-53436154D01*
X87041940Y-1597402D02*
X87024063Y-1697144D01*
X104378933Y-550414D02*
X104303744Y-482483D01*
X23203336Y-10261D02*
X23102298Y-2566D01*
X27041940Y-70402597D02*
X27064845Y-70501305D01*
X43403597Y-16459059D02*
X43502305Y-16436154D01*
X7003566Y-33101298D02*
X7011261Y-33202336D01*
X46000000Y-6250000D02*
X45001000Y-6250000D01*
X48499694Y-16436154D02*
X48598402Y-16459059D01*
X24225211Y-18918448D02*
X24143536Y-18858473D01*
X46000000Y-24750000D02*
X45001000Y-24750000D01*
X103102298Y-55502566D02*
X103001000Y-55500000D01*
X24518516Y-71302744D02*
X24582551Y-71224211D01*
X85001000Y-84250000D02*
X86000000Y-84250000D01*
X84977936Y-20197144D02*
X84960059Y-20097402D01*
X67483483Y-37697255D02*
X67419448Y-37775788D01*
X44876504Y-70694610D02*
X44909278Y-70598726D01*
X26002000Y-24750000D02*
X26000000Y-24750000D01*
X24303744Y-71517516D02*
X24378933Y-71449585D01*
X7858463Y-71641526D02*
X7943071Y-71697288D01*
X7698255Y-37482483D02*
X7623066Y-37550414D01*
X88698144Y-34976936D02*
X88798663Y-34989738D01*
X103403597Y-18540940D02*
X103303855Y-18523063D01*
X63403597Y-37040940D02*
X63303855Y-37023063D01*
X68698144Y-53476936D02*
X68798663Y-53489738D01*
X88306389Y-55624495D02*
X88212288Y-55662084D01*
X67092721Y-89098726D02*
X67125495Y-89194610D01*
X84378933Y-89949585D02*
X84450585Y-89877933D01*
X28120211Y-34795609D02*
X28212288Y-34837915D01*
X104990738Y-57297663D02*
X104977936Y-57197144D01*
X83881788Y-74204390D02*
X83789711Y-74162084D01*
X104143536Y-358473D02*
X104058928Y-302711D01*
X26002000Y-43250000D02*
X26000000Y-43250000D01*
X8212288Y-53337915D02*
X8306389Y-53375504D01*
X24642526Y-857463D02*
X24582551Y-775788D01*
X44582551Y-34224211D02*
X44642526Y-34142536D01*
X88598402Y-55540940D02*
X88499694Y-55563845D01*
X104698288Y-19442071D02*
X104642526Y-19357463D01*
X8030396Y-74251306D02*
X7943071Y-74302711D01*
X24960059Y-51902597D02*
X24977936Y-51802855D01*
X104990738Y-20297663D02*
X104977936Y-20197144D01*
X8212288Y-162084D02*
X8120211Y-204390D01*
X63695610Y-16375504D02*
X63789711Y-16337915D01*
X67623066Y-15949585D02*
X67698255Y-16017516D01*
X24518516Y-697255D02*
X24450585Y-622066D01*
X65001000Y-39000000D02*
X64998433Y-38898701D01*
X47303711Y-15557928D02*
X47359473Y-15642536D01*
X8698144Y-55523063D02*
X8598402Y-55540940D01*
X64303744Y-53017516D02*
X64378933Y-52949585D01*
X67858463Y-16141526D02*
X67943071Y-16197288D01*
X47092721Y-38401273D02*
X47064845Y-38498694D01*
X46000000Y-47250000D02*
X46002000Y-47250000D01*
X47001000Y-28750000D02*
X47001000Y-33000000D01*
X64749693Y-38029396D02*
X64698288Y-37942071D01*
X25001000Y-14500000D02*
X25001000Y-10250000D01*
X84937154Y-56998694D02*
X84909278Y-56901273D01*
X47011261Y-33202336D02*
X47024063Y-33302855D01*
X44378933Y-71449585D02*
X44450585Y-71377933D01*
X43881788Y-74204390D02*
X43789711Y-74162084D01*
X68306389Y-16375504D02*
X68402273Y-16408278D01*
X47003566Y-75898701D02*
X47001000Y-76000000D01*
X47252306Y-89470603D02*
X47303711Y-89557928D01*
X7001000Y-24750000D02*
X5000000Y-24750000D01*
X64749693Y-1029396D02*
X64698288Y-942071D01*
X24977936Y-70302855D02*
X24990738Y-70202336D01*
X67858463Y-18858473D02*
X67776788Y-18918448D01*
X27064845Y-38498694D02*
X27041940Y-38597402D01*
X67205390Y-70880788D02*
X67252306Y-70970603D01*
X27092721Y-19901273D02*
X27064845Y-19998694D01*
X7943071Y-90197288D02*
X8030396Y-90248693D01*
X63102298Y-37002566D02*
X63001000Y-37000000D01*
X27623066Y-19050414D02*
X27551414Y-19122066D01*
X65001000Y-51500000D02*
X65001000Y-47250000D01*
X28899701Y-2566D02*
X28798663Y-10261D01*
X64796609Y-52380788D02*
X64838915Y-52288711D01*
X105001000Y-10250000D02*
X107002000Y-10250000D01*
X23881788Y-16295609D02*
X23971603Y-16248693D01*
X27943071Y-53197288D02*
X28030396Y-53248693D01*
X43203336Y-10261D02*
X43102298Y-2566D01*
X88212288Y-90337915D02*
X88306389Y-90375504D01*
X8798663Y-10261D02*
X8698144Y-23063D01*
X24998433Y-38898701D02*
X24990738Y-38797663D01*
X47001000Y-10250000D02*
X47001000Y-14500000D01*
X63695610Y-74124495D02*
X63599726Y-74091721D01*
X67163084Y-38211288D02*
X67125495Y-38305389D01*
X83695610Y-90375504D02*
X83789711Y-90337915D01*
X7092721Y-1401273D02*
X7064845Y-1498694D01*
X64960059Y-88902597D02*
X64977936Y-88802855D01*
X104518516Y-19197255D02*
X104450585Y-19122066D01*
X84582551Y-37775788D02*
X84518516Y-37697255D01*
X64058928Y-90197288D02*
X64143536Y-90141526D01*
X63695610Y-37124495D02*
X63599726Y-37091721D01*
X84642526Y-89642536D02*
X84698288Y-89557928D01*
X23695610Y-124495D02*
X23599726Y-91721D01*
X87205390Y-89380788D02*
X87252306Y-89470603D01*
X47011261Y-75797663D02*
X47003566Y-75898701D01*
X104838915Y-33788711D02*
X104876504Y-33694610D01*
X64518516Y-52802744D02*
X64582551Y-52724211D01*
X27698255Y-482483D02*
X27623066Y-550414D01*
X48120211Y-204390D02*
X48030396Y-251306D01*
X27125495Y-52194610D02*
X27163084Y-52288711D01*
X103102298Y-74002566D02*
X103001000Y-74000000D01*
X44518516Y-52802744D02*
X44582551Y-52724211D01*
X43971603Y-90248693D02*
X44058928Y-90197288D01*
X43502305Y-55563845D02*
X43403597Y-55540940D01*
X64838915Y-89288711D02*
X64876504Y-89194610D01*
X24582551Y-15724211D02*
X24642526Y-15642536D01*
X64518516Y-74697255D02*
X64450585Y-74622066D01*
X24937154Y-1498694D02*
X24909278Y-1401273D01*
X44876504Y-33694610D02*
X44909278Y-33598726D01*
X46000000Y-65750000D02*
X46002000Y-65750000D01*
X24838915Y-33788711D02*
X24876504Y-33694610D01*
X44749693Y-89470603D02*
X44796609Y-89380788D01*
X7163084Y-89288711D02*
X7205390Y-89380788D01*
X43599726Y-16408278D02*
X43695610Y-16375504D01*
X67064845Y-52001305D02*
X67092721Y-52098726D01*
X48798663Y-10261D02*
X48698144Y-23063D01*
X24876504Y-19805389D02*
X24838915Y-19711288D01*
X88798663Y-55510261D02*
X88698144Y-55523063D01*
X44450585Y-52877933D02*
X44518516Y-52802744D01*
X83881788Y-71795609D02*
X83971603Y-71748693D01*
X104838915Y-89288711D02*
X104876504Y-89194610D01*
X64796609Y-38119211D02*
X64749693Y-38029396D01*
X47359473Y-857463D02*
X47303711Y-942071D01*
X27776788Y-53081551D02*
X27858463Y-53141526D01*
X48212288Y-34837915D02*
X48306389Y-34875504D01*
X44937154Y-70501305D02*
X44960059Y-70402597D01*
X7943071Y-71697288D02*
X8030396Y-71748693D01*
X7064845Y-19998694D02*
X7041940Y-20097402D01*
X27001000Y-57500000D02*
X27001000Y-61750000D01*
X27064845Y-33501305D02*
X27092721Y-33598726D01*
X48030396Y-18751306D02*
X47943071Y-18802711D01*
X104698288Y-52557928D02*
X104749693Y-52470603D01*
X64990738Y-75797663D02*
X64977936Y-75697144D01*
X68598402Y-16459059D02*
X68698144Y-16476936D01*
X7092721Y-52098726D02*
X7125495Y-52194610D01*
X9001000Y-53500000D02*
X23001000Y-53500000D01*
X27092721Y-89098726D02*
X27125495Y-89194610D01*
X44876504Y-19805389D02*
X44838915Y-19711288D01*
X67943071Y-302711D02*
X67858463Y-358473D01*
X104749693Y-89470603D02*
X104796609Y-89380788D01*
X87125495Y-70694610D02*
X87163084Y-70788711D01*
X45001000Y-43250000D02*
X45001000Y-39000000D01*
X85001000Y-10250000D02*
X86000000Y-10250000D01*
X24749693Y-75029396D02*
X24698288Y-74942071D01*
X104642526Y-89642536D02*
X104698288Y-89557928D01*
X103599726Y-18591721D02*
X103502305Y-18563845D01*
X84642526Y-34142536D02*
X84698288Y-34057928D01*
X87698255Y-34517516D02*
X87776788Y-34581551D01*
X44450585Y-19122066D02*
X44378933Y-19050414D01*
X67041940Y-33402597D02*
X67064845Y-33501305D01*
X48212288Y-74162084D02*
X48120211Y-74204390D01*
X48120211Y-34795609D02*
X48212288Y-34837915D01*
X87623066Y-74550414D02*
X87551414Y-74622066D01*
X48899701Y-2566D02*
X48798663Y-10261D01*
X67698255Y-53017516D02*
X67776788Y-53081551D01*
X43789711Y-53337915D02*
X43881788Y-53295609D01*
X8899701Y-18502566D02*
X8798663Y-18510261D01*
X8120211Y-37204390D02*
X8030396Y-37251306D01*
X7776788Y-418448D02*
X7698255Y-482483D01*
X28598402Y-53459059D02*
X28698144Y-53476936D01*
X28402273Y-55591721D02*
X28306389Y-55624495D01*
X25001000Y-2000000D02*
X24998433Y-1898701D01*
X85001000Y-57500000D02*
X84998433Y-57398701D01*
X5000000Y0D02*
X0Y0D01*
X7163084Y-70788711D02*
X7205390Y-70880788D01*
X28402273Y-90408278D02*
X28499694Y-90436154D01*
X84143536Y-55858473D02*
X84058928Y-55802711D01*
X88698144Y-74023063D02*
X88598402Y-74040940D01*
X44698288Y-37942071D02*
X44642526Y-37857463D01*
X67205390Y-75119211D02*
X67163084Y-75211288D01*
X48899701Y-71997433D02*
X49001000Y-72000000D01*
X104303744Y-71517516D02*
X104378933Y-71449585D01*
X48798663Y-90489738D02*
X48899701Y-90497433D01*
X87003566Y-14601298D02*
X87011261Y-14702336D01*
X103001000Y-16500000D02*
X103102298Y-16497433D01*
X103303855Y-90476936D02*
X103403597Y-90459059D01*
X87001000Y-43250000D02*
X86002000Y-43250000D01*
X87011261Y-51702336D02*
X87024063Y-51802855D01*
X84990738Y-75797663D02*
X84977936Y-75697144D01*
X28212288Y-37162084D02*
X28120211Y-37204390D01*
X64642526Y-15642536D02*
X64698288Y-15557928D01*
X23599726Y-90408278D02*
X23695610Y-90375504D01*
X103303855Y-23063D02*
X103203336Y-10261D01*
X23881788Y-71795609D02*
X23971603Y-71748693D01*
X84582551Y-56275788D02*
X84518516Y-56197255D01*
X7163084Y-75211288D02*
X7125495Y-75305389D01*
X107002000Y-47250000D02*
X107002000Y-61750000D01*
X68402273Y-74091721D02*
X68306389Y-74124495D01*
X69001000Y-74000000D02*
X68899701Y-74002566D01*
X24143536Y-16141526D02*
X24225211Y-16081551D01*
X88306389Y-90375504D02*
X88402273Y-90408278D01*
X66000000Y-28750000D02*
X66002000Y-28750000D01*
X47303711Y-52557928D02*
X47359473Y-52642536D01*
X27698255Y-90017516D02*
X27776788Y-90081551D01*
X64225211Y-37418448D02*
X64143536Y-37358473D01*
X83502305Y-74063845D02*
X83403597Y-74040940D01*
X27623066Y-89949585D02*
X27698255Y-90017516D01*
X104749693Y-33970603D02*
X104796609Y-33880788D01*
X64303744Y-74482483D02*
X64225211Y-74418448D01*
X48402273Y-55591721D02*
X48306389Y-55624495D01*
X24378933Y-37550414D02*
X24303744Y-37482483D01*
X88030396Y-74251306D02*
X87943071Y-74302711D01*
X104960059Y-38597402D02*
X104937154Y-38498694D01*
X27623066Y-52949585D02*
X27698255Y-53017516D01*
X27359473Y-74857463D02*
X27303711Y-74942071D01*
X104937154Y-89001305D02*
X104960059Y-88902597D01*
X88899701Y-55502566D02*
X88798663Y-55510261D01*
X64838915Y-38211288D02*
X64796609Y-38119211D01*
X44303744Y-53017516D02*
X44378933Y-52949585D01*
X24303744Y-37482483D02*
X24225211Y-37418448D01*
X67024063Y-57197144D02*
X67011261Y-57297663D01*
X104990738Y-75797663D02*
X104977936Y-75697144D01*
X84058928Y-55802711D02*
X83971603Y-55751306D01*
X67303711Y-15557928D02*
X67359473Y-15642536D01*
X68598402Y-55540940D02*
X68499694Y-55563845D01*
X63599726Y-37091721D02*
X63502305Y-37063845D01*
X83971603Y-16248693D02*
X84058928Y-16197288D01*
X28120211Y-90295609D02*
X28212288Y-90337915D01*
X84977936Y-70302855D02*
X84990738Y-70202336D01*
X87024063Y-88802855D02*
X87041940Y-88902597D01*
X104749693Y-52470603D02*
X104796609Y-52380788D01*
X104642526Y-56357463D02*
X104582551Y-56275788D01*
X87001000Y-14500000D02*
X87003566Y-14601298D01*
X47024063Y-14802855D02*
X47041940Y-14902597D01*
X83203336Y-55510261D02*
X83102298Y-55502566D01*
X24518516Y-37697255D02*
X24450585Y-37622066D01*
X8030396Y-71748693D02*
X8120211Y-71795609D01*
X84058928Y-74302711D02*
X83971603Y-74251306D01*
X44143536Y-34641526D02*
X44225211Y-34581551D01*
X7698255Y-16017516D02*
X7776788Y-16081551D01*
X103203336Y-55510261D02*
X103102298Y-55502566D01*
X44960059Y-38597402D02*
X44937154Y-38498694D01*
X64937154Y-1498694D02*
X64909278Y-1401273D01*
X69001000Y-35000000D02*
X83001000Y-35000000D01*
X83881788Y-34795609D02*
X83971603Y-34748693D01*
X63789711Y-18662084D02*
X63695610Y-18624495D01*
X87001000Y-65750000D02*
X87001000Y-70000000D01*
X63403597Y-74040940D02*
X63303855Y-74023063D01*
X84998433Y-38898701D02*
X84990738Y-38797663D01*
X68798663Y-74010261D02*
X68698144Y-74023063D01*
X63403597Y-90459059D02*
X63502305Y-90436154D01*
X67003566Y-14601298D02*
X67011261Y-14702336D01*
X47483483Y-34302744D02*
X47551414Y-34377933D01*
X24990738Y-20297663D02*
X24977936Y-20197144D01*
X87001000Y-39000000D02*
X87001000Y-43250000D01*
X67003566Y-33101298D02*
X67011261Y-33202336D01*
X44838915Y-89288711D02*
X44876504Y-89194610D01*
X44698288Y-71057928D02*
X44749693Y-70970603D01*
X24225211Y-418448D02*
X24143536Y-358473D01*
X27551414Y-34377933D02*
X27623066Y-34449585D01*
X64990738Y-1797663D02*
X64977936Y-1697144D01*
X87092721Y-52098726D02*
X87125495Y-52194610D01*
X47623066Y-71449585D02*
X47698255Y-71517516D01*
X87359473Y-74857463D02*
X87303711Y-74942071D01*
X24582551Y-37775788D02*
X24518516Y-37697255D01*
X66000000Y-43250000D02*
X65001000Y-43250000D01*
X64143536Y-53141526D02*
X64225211Y-53081551D01*
X27041940Y-38597402D02*
X27024063Y-38697144D01*
X43695610Y-74124495D02*
X43599726Y-74091721D01*
X84977936Y-51802855D02*
X84990738Y-51702336D01*
X27359473Y-71142536D02*
X27419448Y-71224211D01*
X84960059Y-33402597D02*
X84977936Y-33302855D01*
X29001000Y-53500000D02*
X43001000Y-53500000D01*
X26000000Y-47250000D02*
X26002000Y-47250000D01*
X44990738Y-88702336D02*
X44998433Y-88601298D01*
X27001000Y-47250000D02*
X27001000Y-51500000D01*
X47205390Y-1119211D02*
X47163084Y-1211288D01*
X44450585Y-71377933D02*
X44518516Y-71302744D01*
X44058928Y-55802711D02*
X43971603Y-55751306D01*
X68212288Y-18662084D02*
X68120211Y-18704390D01*
X7776788Y-90081551D02*
X7858463Y-90141526D01*
X44143536Y-37358473D02*
X44058928Y-37302711D01*
X67483483Y-34302744D02*
X67551414Y-34377933D01*
X88499694Y-18563845D02*
X88402273Y-18591721D01*
X46002000Y-24750000D02*
X46000000Y-24750000D01*
X8499694Y-63845D02*
X8402273Y-91721D01*
X27125495Y-56805389D02*
X27092721Y-56901273D01*
X104518516Y-34302744D02*
X104582551Y-34224211D01*
X8499694Y-90436154D02*
X8598402Y-90459059D01*
X67205390Y-15380788D02*
X67252306Y-15470603D01*
X47858463Y-358473D02*
X47776788Y-418448D01*
X67419448Y-37775788D02*
X67359473Y-37857463D01*
X8030396Y-16248693D02*
X8120211Y-16295609D01*
X23403597Y-74040940D02*
X23303855Y-74023063D01*
X104058928Y-55802711D02*
X103971603Y-55751306D01*
X28798663Y-55510261D02*
X28698144Y-55523063D01*
X87041940Y-70402597D02*
X87064845Y-70501305D01*
X26002000Y-10250000D02*
X27001000Y-10250000D01*
X89001000Y-37000000D02*
X88899701Y-37002566D01*
X83599726Y-37091721D02*
X83502305Y-37063845D01*
X47001000Y-20500000D02*
X47001000Y-24750000D01*
X47943071Y-18802711D02*
X47858463Y-18858473D01*
X104998433Y-88601298D02*
X105001000Y-88500000D01*
X88212288Y-74162084D02*
X88120211Y-74204390D01*
X26000000Y-6250000D02*
X25001000Y-6250000D01*
X64998433Y-57398701D02*
X64990738Y-57297663D01*
X23599726Y-71908278D02*
X23695610Y-71875504D01*
X47623066Y-37550414D02*
X47551414Y-37622066D01*
X103502305Y-16436154D02*
X103599726Y-16408278D01*
X84990738Y-57297663D02*
X84977936Y-57197144D01*
X67092721Y-1401273D02*
X67064845Y-1498694D01*
X88899701Y-71997433D02*
X89001000Y-72000000D01*
X64518516Y-56197255D02*
X64450585Y-56122066D01*
X87024063Y-51802855D02*
X87041940Y-51902597D01*
X64642526Y-89642536D02*
X64698288Y-89557928D01*
X48698144Y-71976936D02*
X48798663Y-71989738D01*
X27003566Y-33101298D02*
X27011261Y-33202336D01*
X47303711Y-37942071D02*
X47252306Y-38029396D01*
X88598402Y-74040940D02*
X88499694Y-74063845D01*
X67943071Y-16197288D02*
X68030396Y-16248693D01*
X44143536Y-74358473D02*
X44058928Y-74302711D01*
X83695610Y-124495D02*
X83599726Y-91721D01*
X104143536Y-53141526D02*
X104225211Y-53081551D01*
X23001000Y-53500000D02*
X23102298Y-53497433D01*
X47359473Y-15642536D02*
X47419448Y-15724211D01*
X103102298Y-37002566D02*
X103001000Y-37000000D01*
X88306389Y-53375504D02*
X88402273Y-53408278D01*
X83102298Y-53497433D02*
X83203336Y-53489738D01*
X47041940Y-51902597D02*
X47064845Y-52001305D01*
X25001000Y-6250000D02*
X25001000Y-2000000D01*
X8030396Y-55751306D02*
X7943071Y-55802711D01*
X5000000Y-61750000D02*
X5000000Y-47250000D01*
X24225211Y-71581551D02*
X24303744Y-71517516D01*
X87011261Y-1797663D02*
X87003566Y-1898701D01*
X47359473Y-71142536D02*
X47419448Y-71224211D01*
X44143536Y-16141526D02*
X44225211Y-16081551D01*
X107002000Y0D02*
X107002000Y-6250000D01*
X9001000Y0D02*
X8899701Y-2566D01*
X68798663Y-55510261D02*
X68698144Y-55523063D01*
X27858463Y-90141526D02*
X27943071Y-90197288D01*
X67698255Y-16017516D02*
X67776788Y-16081551D01*
X28120211Y-16295609D02*
X28212288Y-16337915D01*
X63971603Y-34748693D02*
X64058928Y-34697288D01*
X87125495Y-52194610D02*
X87163084Y-52288711D01*
X66002000Y-24750000D02*
X66000000Y-24750000D01*
X44749693Y-19529396D02*
X44698288Y-19442071D01*
X7943071Y-37302711D02*
X7858463Y-37358473D01*
X24303744Y-53017516D02*
X24378933Y-52949585D01*
X83203336Y-71989738D02*
X83303855Y-71976936D01*
X48120211Y-53295609D02*
X48212288Y-53337915D01*
X85001000Y-80250000D02*
X85001000Y-76000000D01*
X28798663Y-16489738D02*
X28899701Y-16497433D01*
X23599726Y-53408278D02*
X23695610Y-53375504D01*
X68499694Y-34936154D02*
X68598402Y-34959059D01*
X87163084Y-70788711D02*
X87205390Y-70880788D01*
X8212288Y-16337915D02*
X8306389Y-16375504D01*
X48030396Y-74251306D02*
X47943071Y-74302711D01*
X47419448Y-37775788D02*
X47359473Y-37857463D01*
X87359473Y-37857463D02*
X87303711Y-37942071D01*
X103695610Y-16375504D02*
X103789711Y-16337915D01*
X27011261Y-14702336D02*
X27024063Y-14802855D01*
X7419448Y-37775788D02*
X7359473Y-37857463D01*
X104450585Y-19122066D02*
X104378933Y-19050414D01*
X103303855Y-37023063D02*
X103203336Y-37010261D01*
X67252306Y-19529396D02*
X67205390Y-19619211D01*
X84378933Y-37550414D02*
X84303744Y-37482483D01*
X87041940Y-75597402D02*
X87024063Y-75697144D01*
X83971603Y-90248693D02*
X84058928Y-90197288D01*
X87001000Y-24750000D02*
X86002000Y-24750000D01*
X26002000Y-61750000D02*
X26000000Y-61750000D01*
X67041940Y-57097402D02*
X67024063Y-57197144D01*
X27205390Y-89380788D02*
X27252306Y-89470603D01*
X7359473Y-74857463D02*
X7303711Y-74942071D01*
X87001000Y-84250000D02*
X87001000Y-88500000D01*
X88120211Y-34795609D02*
X88212288Y-34837915D01*
X24876504Y-89194610D02*
X24909278Y-89098726D01*
X104998433Y-33101298D02*
X105001000Y-33000000D01*
X104838915Y-19711288D02*
X104796609Y-19619211D01*
X24058928Y-74302711D02*
X23971603Y-74251306D01*
X47359473Y-74857463D02*
X47303711Y-74942071D01*
X44225211Y-18918448D02*
X44143536Y-18858473D01*
X24143536Y-55858473D02*
X24058928Y-55802711D01*
X105001000Y-88500000D02*
X105001000Y-84250000D01*
X27125495Y-1305389D02*
X27092721Y-1401273D01*
X27003566Y-70101298D02*
X27011261Y-70202336D01*
X67623066Y-550414D02*
X67551414Y-622066D01*
X103695610Y-55624495D02*
X103599726Y-55591721D01*
X84378933Y-74550414D02*
X84303744Y-74482483D01*
X66000000Y-24750000D02*
X65001000Y-24750000D01*
X44378933Y-550414D02*
X44303744Y-482483D01*
X24937154Y-52001305D02*
X24960059Y-51902597D01*
X67483483Y-74697255D02*
X67419448Y-74775788D01*
X44143536Y-90141526D02*
X44225211Y-90081551D01*
X65001000Y-6250000D02*
X65001000Y-2000000D01*
X47776788Y-34581551D02*
X47858463Y-34641526D01*
X87003566Y-88601298D02*
X87011261Y-88702336D01*
X87125495Y-19805389D02*
X87092721Y-19901273D01*
X44642526Y-34142536D02*
X44698288Y-34057928D01*
X44960059Y-75597402D02*
X44937154Y-75498694D01*
X104838915Y-52288711D02*
X104876504Y-52194610D01*
X104909278Y-1401273D02*
X104876504Y-1305389D01*
X28030396Y-16248693D02*
X28120211Y-16295609D01*
X27359473Y-857463D02*
X27303711Y-942071D01*
X86002000Y-61750000D02*
X86000000Y-61750000D01*
X7001000Y-70000000D02*
X7003566Y-70101298D01*
X49001000Y-74000000D02*
X48899701Y-74002566D01*
X27064845Y-15001305D02*
X27092721Y-15098726D01*
X47776788Y-18918448D02*
X47698255Y-18982483D01*
X28030396Y-74251306D02*
X27943071Y-74302711D01*
X67163084Y-15288711D02*
X67205390Y-15380788D01*
X47359473Y-52642536D02*
X47419448Y-52724211D01*
X24960059Y-20097402D02*
X24937154Y-19998694D01*
X64749693Y-33970603D02*
X64796609Y-33880788D01*
X24998433Y-88601298D02*
X25001000Y-88500000D01*
X88030396Y-71748693D02*
X88120211Y-71795609D01*
X104450585Y-56122066D02*
X104378933Y-56050414D01*
X8598402Y-16459059D02*
X8698144Y-16476936D01*
X104876504Y-89194610D02*
X104909278Y-89098726D01*
X44450585Y-56122066D02*
X44378933Y-56050414D01*
X8030396Y-34748693D02*
X8120211Y-34795609D01*
X24582551Y-56275788D02*
X24518516Y-56197255D01*
X68499694Y-74063845D02*
X68402273Y-74091721D01*
X27698255Y-74482483D02*
X27623066Y-74550414D01*
X8402273Y-34908278D02*
X8499694Y-34936154D01*
X43001000Y-72000000D02*
X43102298Y-71997433D01*
X25001000Y-61750000D02*
X25001000Y-57500000D01*
X83789711Y-53337915D02*
X83881788Y-53295609D01*
X87125495Y-89194610D02*
X87163084Y-89288711D01*
X47698255Y-37482483D02*
X47623066Y-37550414D01*
X28306389Y-37124495D02*
X28212288Y-37162084D01*
X88598402Y-53459059D02*
X88698144Y-53476936D01*
X103881788Y-90295609D02*
X103971603Y-90248693D01*
X44582551Y-52724211D02*
X44642526Y-52642536D01*
X83599726Y-34908278D02*
X83695610Y-34875504D01*
X87483483Y-34302744D02*
X87551414Y-34377933D01*
X7041940Y-57097402D02*
X7024063Y-57197144D01*
X27419448Y-89724211D02*
X27483483Y-89802744D01*
X84838915Y-52288711D02*
X84876504Y-52194610D01*
X7092721Y-38401273D02*
X7064845Y-38498694D01*
X24990738Y-38797663D02*
X24977936Y-38697144D01*
X28120211Y-204390D02*
X28030396Y-251306D01*
X27163084Y-70788711D02*
X27205390Y-70880788D01*
X44838915Y-70788711D02*
X44876504Y-70694610D01*
X47001000Y-14500000D02*
X47003566Y-14601298D01*
X67776788Y-37418448D02*
X67698255Y-37482483D01*
X47943071Y-55802711D02*
X47858463Y-55858473D01*
X28798663Y-71989738D02*
X28899701Y-71997433D01*
X27858463Y-53141526D02*
X27943071Y-53197288D01*
X47419448Y-56275788D02*
X47359473Y-56357463D01*
X27359473Y-52642536D02*
X27419448Y-52724211D01*
X24698288Y-37942071D02*
X24642526Y-37857463D01*
X64838915Y-70788711D02*
X64876504Y-70694610D01*
X8402273Y-37091721D02*
X8306389Y-37124495D01*
X47623066Y-34449585D02*
X47698255Y-34517516D01*
X67205390Y-52380788D02*
X67252306Y-52470603D01*
X43789711Y-71837915D02*
X43881788Y-71795609D01*
X7064845Y-33501305D02*
X7092721Y-33598726D01*
X46002000Y-65750000D02*
X47001000Y-65750000D01*
X28402273Y-18591721D02*
X28306389Y-18624495D01*
X24582551Y-74775788D02*
X24518516Y-74697255D01*
X44998433Y-33101298D02*
X45001000Y-33000000D01*
X27001000Y-43250000D02*
X26002000Y-43250000D01*
X27001000Y-14500000D02*
X27003566Y-14601298D01*
X44998433Y-51601298D02*
X45001000Y-51500000D01*
X7551414Y-622066D02*
X7483483Y-697255D01*
X27858463Y-34641526D02*
X27943071Y-34697288D01*
X47252306Y-1029396D02*
X47205390Y-1119211D01*
X23001000Y-37000000D02*
X9001000Y-37000000D01*
X63971603Y-16248693D02*
X64058928Y-16197288D01*
X24582551Y-19275788D02*
X24518516Y-19197255D01*
X24977936Y-38697144D02*
X24960059Y-38597402D01*
X27483483Y-15802744D02*
X27551414Y-15877933D01*
X28798663Y-53489738D02*
X28899701Y-53497433D01*
X24838915Y-38211288D02*
X24796609Y-38119211D01*
X7064845Y-56998694D02*
X7041940Y-57097402D01*
X23102298Y-2566D02*
X23001000Y0D01*
X87064845Y-38498694D02*
X87041940Y-38597402D01*
X27001000Y-39000000D02*
X27001000Y-43250000D01*
X67623066Y-37550414D02*
X67551414Y-37622066D01*
X44909278Y-19901273D02*
X44876504Y-19805389D01*
X47011261Y-38797663D02*
X47003566Y-38898701D01*
X24749693Y-38029396D02*
X24698288Y-37942071D01*
X49001000Y-37000000D02*
X48899701Y-37002566D01*
X68030396Y-16248693D02*
X68120211Y-16295609D01*
X44838915Y-19711288D02*
X44796609Y-19619211D01*
X7483483Y-37697255D02*
X7419448Y-37775788D01*
X104796609Y-70880788D02*
X104838915Y-70788711D01*
X47024063Y-51802855D02*
X47041940Y-51902597D01*
X48598402Y-40940D02*
X48499694Y-63845D01*
X46000000Y-28750000D02*
X46002000Y-28750000D01*
X7943071Y-302711D02*
X7858463Y-358473D01*
X87303711Y-37942071D02*
X87252306Y-38029396D01*
X47483483Y-74697255D02*
X47419448Y-74775788D01*
X67858463Y-37358473D02*
X67776788Y-37418448D01*
X104796609Y-52380788D02*
X104838915Y-52288711D01*
X103971603Y-55751306D02*
X103881788Y-55704390D01*
X67011261Y-1797663D02*
X67003566Y-1898701D01*
X44058928Y-18802711D02*
X43971603Y-18751306D01*
X87092721Y-19901273D02*
X87064845Y-19998694D01*
X83502305Y-90436154D02*
X83599726Y-90408278D01*
X8598402Y-34959059D02*
X8698144Y-34976936D01*
X27011261Y-88702336D02*
X27024063Y-88802855D01*
X104838915Y-70788711D02*
X104876504Y-70694610D01*
X88798663Y-34989738D02*
X88899701Y-34997433D01*
X88499694Y-90436154D02*
X88598402Y-90459059D01*
X24642526Y-89642536D02*
X24698288Y-89557928D01*
X8899701Y-34997433D02*
X9001000Y-35000000D01*
X8402273Y-74091721D02*
X8306389Y-74124495D01*
X64143536Y-358473D02*
X64058928Y-302711D01*
X44378933Y-37550414D02*
X44303744Y-37482483D01*
X48306389Y-71875504D02*
X48402273Y-71908278D01*
X88030396Y-251306D02*
X87943071Y-302711D01*
X64225211Y-16081551D02*
X64303744Y-16017516D01*
X8402273Y-18591721D02*
X8306389Y-18624495D01*
X7483483Y-15802744D02*
X7551414Y-15877933D01*
X103102298Y-34997433D02*
X103203336Y-34989738D01*
X63881788Y-71795609D02*
X63971603Y-71748693D01*
X7776788Y-18918448D02*
X7698255Y-18982483D01*
X48698144Y-16476936D02*
X48798663Y-16489738D01*
X105001000Y-76000000D02*
X104998433Y-75898701D01*
X9001000Y-55500000D02*
X8899701Y-55502566D01*
X5000000Y-47250000D02*
X7001000Y-47250000D01*
X87064845Y-56998694D02*
X87041940Y-57097402D01*
X68212288Y-34837915D02*
X68306389Y-34875504D01*
X84378933Y-52949585D02*
X84450585Y-52877933D01*
X48598402Y-71959059D02*
X48698144Y-71976936D01*
X24937154Y-89001305D02*
X24960059Y-88902597D01*
X67041940Y-38597402D02*
X67024063Y-38697144D01*
X47252306Y-33970603D02*
X47303711Y-34057928D01*
X83502305Y-63845D02*
X83403597Y-40940D01*
X104518516Y-37697255D02*
X104450585Y-37622066D01*
X63102298Y-34997433D02*
X63203336Y-34989738D01*
X44225211Y-53081551D02*
X44303744Y-53017516D01*
X43695610Y-124495D02*
X43599726Y-91721D01*
X67125495Y-56805389D02*
X67092721Y-56901273D01*
X7041940Y-75597402D02*
X7024063Y-75697144D01*
X47359473Y-89642536D02*
X47419448Y-89724211D01*
X43001000Y-35000000D02*
X43102298Y-34997433D01*
X87623066Y-89949585D02*
X87698255Y-90017516D01*
X67163084Y-75211288D02*
X67125495Y-75305389D01*
X23695610Y-53375504D02*
X23789711Y-53337915D01*
X48798663Y-18510261D02*
X48698144Y-18523063D01*
X103001000Y-18500000D02*
X89001000Y-18500000D01*
X43001000Y-90500000D02*
X43102298Y-90497433D01*
X104450585Y-15877933D02*
X104518516Y-15802744D01*
X63881788Y-74204390D02*
X63789711Y-74162084D01*
X27483483Y-52802744D02*
X27551414Y-52877933D01*
X87205390Y-70880788D02*
X87252306Y-70970603D01*
X63403597Y-71959059D02*
X63502305Y-71936154D01*
X104990738Y-38797663D02*
X104977936Y-38697144D01*
X7943071Y-18802711D02*
X7858463Y-18858473D01*
X7092721Y-89098726D02*
X7125495Y-89194610D01*
X67163084Y-56711288D02*
X67125495Y-56805389D01*
X27858463Y-74358473D02*
X27776788Y-74418448D01*
X28030396Y-18751306D02*
X27943071Y-18802711D01*
X7125495Y-56805389D02*
X7092721Y-56901273D01*
X7698255Y-34517516D02*
X7776788Y-34581551D01*
X67163084Y-1211288D02*
X67125495Y-1305389D01*
X103881788Y-71795609D02*
X103971603Y-71748693D01*
X8698144Y-53476936D02*
X8798663Y-53489738D01*
X83599726Y-91721D02*
X83502305Y-63845D01*
X64058928Y-71697288D02*
X64143536Y-71641526D01*
X64143536Y-90141526D02*
X64225211Y-90081551D01*
X43502305Y-74063845D02*
X43403597Y-74040940D01*
X24876504Y-1305389D02*
X24838915Y-1211288D01*
X47698255Y-90017516D02*
X47776788Y-90081551D01*
X7858463Y-90141526D02*
X7943071Y-90197288D01*
X27041940Y-51902597D02*
X27064845Y-52001305D01*
X84990738Y-51702336D02*
X84998433Y-51601298D01*
X104960059Y-14902597D02*
X104977936Y-14802855D01*
X88499694Y-55563845D02*
X88402273Y-55591721D01*
X7125495Y-89194610D02*
X7163084Y-89288711D01*
X28598402Y-90459059D02*
X28698144Y-90476936D01*
X87011261Y-57297663D02*
X87003566Y-57398701D01*
X63789711Y-74162084D02*
X63695610Y-74124495D01*
X104582551Y-89724211D02*
X104642526Y-89642536D01*
X44876504Y-52194610D02*
X44909278Y-52098726D01*
X48899701Y-55502566D02*
X48798663Y-55510261D01*
X67011261Y-75797663D02*
X67003566Y-75898701D01*
X68212288Y-55662084D02*
X68120211Y-55704390D01*
X63001000Y-18500000D02*
X49001000Y-18500000D01*
X83502305Y-37063845D02*
X83403597Y-37040940D01*
X68212288Y-90337915D02*
X68306389Y-90375504D01*
X112002000Y-90500000D02*
X112002000Y0D01*
X63881788Y-90295609D02*
X63971603Y-90248693D01*
X7252306Y-89470603D02*
X7303711Y-89557928D01*
X83403597Y-16459059D02*
X83502305Y-16436154D01*
X43102298Y-34997433D02*
X43203336Y-34989738D01*
X67003566Y-75898701D02*
X67001000Y-76000000D01*
X8899701Y-16497433D02*
X9001000Y-16500000D01*
X84698288Y-37942071D02*
X84642526Y-37857463D01*
X44518516Y-71302744D02*
X44582551Y-71224211D01*
X67252306Y-38029396D02*
X67205390Y-38119211D01*
X67551414Y-71377933D02*
X67623066Y-71449585D01*
X29001000Y-55500000D02*
X28899701Y-55502566D01*
X8306389Y-53375504D02*
X8402273Y-53408278D01*
X84998433Y-20398701D02*
X84990738Y-20297663D01*
X7303711Y-71057928D02*
X7359473Y-71142536D01*
X104960059Y-20097402D02*
X104937154Y-19998694D01*
X87858463Y-34641526D02*
X87943071Y-34697288D01*
X88798663Y-10261D02*
X88698144Y-23063D01*
X64977936Y-88802855D02*
X64990738Y-88702336D01*
X84960059Y-57097402D02*
X84937154Y-56998694D01*
X23881788Y-90295609D02*
X23971603Y-90248693D01*
X104977936Y-14802855D02*
X104990738Y-14702336D01*
X47064845Y-75498694D02*
X47041940Y-75597402D01*
X84225211Y-37418448D02*
X84143536Y-37358473D01*
X24058928Y-90197288D02*
X24143536Y-90141526D01*
X7943071Y-74302711D02*
X7858463Y-74358473D01*
X84225211Y-34581551D02*
X84303744Y-34517516D01*
X24909278Y-56901273D02*
X24876504Y-56805389D01*
X84518516Y-52802744D02*
X84582551Y-52724211D01*
X27041940Y-88902597D02*
X27064845Y-89001305D01*
X7001000Y-76000000D02*
X7001000Y-80250000D01*
X103001000Y-35000000D02*
X103102298Y-34997433D01*
X84058928Y-90197288D02*
X84143536Y-90141526D01*
X44796609Y-89380788D02*
X44838915Y-89288711D01*
X47551414Y-37622066D02*
X47483483Y-37697255D01*
X84698288Y-71057928D02*
X84749693Y-70970603D01*
X87041940Y-33402597D02*
X87064845Y-33501305D01*
X83971603Y-37251306D02*
X83881788Y-37204390D01*
X47011261Y-70202336D02*
X47024063Y-70302855D01*
X88120211Y-74204390D02*
X88030396Y-74251306D01*
X87003566Y-20398701D02*
X87001000Y-20500000D01*
X8306389Y-90375504D02*
X8402273Y-90408278D01*
X67419448Y-56275788D02*
X67359473Y-56357463D01*
X63102298Y-90497433D02*
X63203336Y-90489738D01*
X47303711Y-89557928D02*
X47359473Y-89642536D01*
X43102298Y-2566D02*
X43001000Y0D01*
X7359473Y-37857463D02*
X7303711Y-37942071D01*
X7551414Y-34377933D02*
X7623066Y-34449585D01*
X43001000Y0D02*
X29001000Y0D01*
X47419448Y-34224211D02*
X47483483Y-34302744D01*
X47003566Y-51601298D02*
X47011261Y-51702336D01*
X44990738Y-20297663D02*
X44977936Y-20197144D01*
X24642526Y-71142536D02*
X24698288Y-71057928D01*
X103102298Y-2566D02*
X103001000Y0D01*
X47776788Y-16081551D02*
X47858463Y-16141526D01*
X88120211Y-55704390D02*
X88030396Y-55751306D01*
X44838915Y-52288711D02*
X44876504Y-52194610D01*
X104977936Y-88802855D02*
X104990738Y-88702336D01*
X28499694Y-55563845D02*
X28402273Y-55591721D01*
X87623066Y-15949585D02*
X87698255Y-16017516D01*
X67041940Y-75597402D02*
X67024063Y-75697144D01*
X103695610Y-37124495D02*
X103599726Y-37091721D01*
X104998433Y-51601298D02*
X105001000Y-51500000D01*
X64977936Y-38697144D02*
X64960059Y-38597402D01*
X7003566Y-38898701D02*
X7001000Y-39000000D01*
X48402273Y-53408278D02*
X48499694Y-53436154D01*
X67303711Y-34057928D02*
X67359473Y-34142536D01*
X87858463Y-53141526D02*
X87943071Y-53197288D01*
X64937154Y-89001305D02*
X64960059Y-88902597D01*
X88899701Y-2566D02*
X88798663Y-10261D01*
X5000000Y-65750000D02*
X7001000Y-65750000D01*
X8499694Y-53436154D02*
X8598402Y-53459059D01*
X44876504Y-89194610D02*
X44909278Y-89098726D01*
X47041940Y-75597402D02*
X47024063Y-75697144D01*
X27205390Y-56619211D02*
X27163084Y-56711288D01*
X64876504Y-1305389D02*
X64838915Y-1211288D01*
X104143536Y-34641526D02*
X104225211Y-34581551D01*
X87125495Y-75305389D02*
X87092721Y-75401273D01*
X47003566Y-38898701D02*
X47001000Y-39000000D01*
X68402273Y-55591721D02*
X68306389Y-55624495D01*
X44450585Y-74622066D02*
X44378933Y-74550414D01*
X63102298Y-74002566D02*
X63001000Y-74000000D01*
X87205390Y-19619211D02*
X87163084Y-19711288D01*
X67943071Y-90197288D02*
X68030396Y-90248693D01*
X67003566Y-1898701D02*
X67001000Y-2000000D01*
X87483483Y-37697255D02*
X87419448Y-37775788D01*
X104518516Y-15802744D02*
X104582551Y-15724211D01*
X67551414Y-34377933D02*
X67623066Y-34449585D01*
X84303744Y-90017516D02*
X84378933Y-89949585D01*
X7551414Y-52877933D02*
X7623066Y-52949585D01*
X27125495Y-33694610D02*
X27163084Y-33788711D01*
X24876504Y-15194610D02*
X24909278Y-15098726D01*
X67092721Y-33598726D02*
X67125495Y-33694610D01*
X23599726Y-74091721D02*
X23502305Y-74063845D01*
X24838915Y-19711288D02*
X24796609Y-19619211D01*
X48030396Y-55751306D02*
X47943071Y-55802711D01*
X83102298Y-71997433D02*
X83203336Y-71989738D01*
X64378933Y-19050414D02*
X64303744Y-18982483D01*
X84303744Y-18982483D02*
X84225211Y-18918448D01*
X87163084Y-56711288D02*
X87125495Y-56805389D01*
X47092721Y-70598726D02*
X47125495Y-70694610D01*
X104378933Y-89949585D02*
X104450585Y-89877933D01*
X25001000Y-65750000D02*
X26000000Y-65750000D01*
X67252306Y-1029396D02*
X67205390Y-1119211D01*
X84937154Y-33501305D02*
X84960059Y-33402597D01*
X27359473Y-56357463D02*
X27303711Y-56442071D01*
X43599726Y-37091721D02*
X43502305Y-37063845D01*
X48499694Y-71936154D02*
X48598402Y-71959059D01*
X103789711Y-55662084D02*
X103695610Y-55624495D01*
X44937154Y-1498694D02*
X44909278Y-1401273D01*
X25001000Y-24750000D02*
X25001000Y-20500000D01*
X43789711Y-55662084D02*
X43695610Y-55624495D01*
X103502305Y-53436154D02*
X103599726Y-53408278D01*
X104960059Y-70402597D02*
X104977936Y-70302855D01*
X23303855Y-34976936D02*
X23403597Y-34959059D01*
X24960059Y-1597402D02*
X24937154Y-1498694D01*
X64582551Y-15724211D02*
X64642526Y-15642536D01*
X0Y0D02*
X0Y-90500000D01*
X67003566Y-57398701D02*
X67001000Y-57500000D01*
X43403597Y-37040940D02*
X43303855Y-37023063D01*
X104698288Y-56442071D02*
X104642526Y-56357463D01*
X63695610Y-55624495D02*
X63599726Y-55591721D01*
X47776788Y-37418448D02*
X47698255Y-37482483D01*
X7359473Y-52642536D02*
X7419448Y-52724211D01*
X64303744Y-90017516D02*
X64378933Y-89949585D01*
X64225211Y-53081551D02*
X64303744Y-53017516D01*
X47551414Y-89877933D02*
X47623066Y-89949585D01*
X7041940Y-1597402D02*
X7024063Y-1697144D01*
X25001000Y-10250000D02*
X26000000Y-10250000D01*
X43971603Y-71748693D02*
X44058928Y-71697288D01*
X27776788Y-418448D02*
X27698255Y-482483D01*
X104582551Y-775788D02*
X104518516Y-697255D01*
X63102298Y-53497433D02*
X63203336Y-53489738D01*
X84450585Y-15877933D02*
X84518516Y-15802744D01*
X24518516Y-89802744D02*
X24582551Y-89724211D01*
X47623066Y-19050414D02*
X47551414Y-19122066D01*
X84225211Y-55918448D02*
X84143536Y-55858473D01*
X67698255Y-74482483D02*
X67623066Y-74550414D01*
X7623066Y-550414D02*
X7551414Y-622066D01*
X25001000Y-84250000D02*
X26000000Y-84250000D01*
X27252306Y-15470603D02*
X27303711Y-15557928D01*
X67092721Y-70598726D02*
X67125495Y-70694610D01*
X7064845Y-15001305D02*
X7092721Y-15098726D01*
X24698288Y-15557928D02*
X24749693Y-15470603D01*
X27359473Y-89642536D02*
X27419448Y-89724211D01*
X44642526Y-74857463D02*
X44582551Y-74775788D01*
X63695610Y-34875504D02*
X63789711Y-34837915D01*
X104225211Y-71581551D02*
X104303744Y-71517516D01*
X27943071Y-90197288D02*
X28030396Y-90248693D01*
X7303711Y-19442071D02*
X7252306Y-19529396D01*
X67359473Y-15642536D02*
X67419448Y-15724211D01*
X84998433Y-1898701D02*
X84990738Y-1797663D01*
X104058928Y-90197288D02*
X104143536Y-90141526D01*
X64450585Y-71377933D02*
X64518516Y-71302744D01*
X23502305Y-53436154D02*
X23599726Y-53408278D01*
X27024063Y-70302855D02*
X27041940Y-70402597D01*
X68798663Y-71989738D02*
X68899701Y-71997433D01*
X66002000Y-43250000D02*
X66000000Y-43250000D01*
X24303744Y-74482483D02*
X24225211Y-74418448D01*
X24937154Y-70501305D02*
X24960059Y-70402597D01*
X44518516Y-34302744D02*
X44582551Y-34224211D01*
X87858463Y-358473D02*
X87776788Y-418448D01*
X7064845Y-75498694D02*
X7041940Y-75597402D01*
X67943071Y-18802711D02*
X67858463Y-18858473D01*
X64796609Y-70880788D02*
X64838915Y-70788711D01*
X24698288Y-34057928D02*
X24749693Y-33970603D01*
X25001000Y-80250000D02*
X25001000Y-76000000D01*
X103403597Y-90459059D02*
X103502305Y-90436154D01*
X28120211Y-37204390D02*
X28030396Y-37251306D01*
X63403597Y-40940D02*
X63303855Y-23063D01*
X9001000Y-37000000D02*
X8899701Y-37002566D01*
X8698144Y-18523063D02*
X8598402Y-18540940D01*
X44796609Y-38119211D02*
X44749693Y-38029396D01*
X24990738Y-51702336D02*
X24998433Y-51601298D01*
X27064845Y-1498694D02*
X27041940Y-1597402D01*
X24143536Y-358473D02*
X24058928Y-302711D01*
X23599726Y-55591721D02*
X23502305Y-55563845D01*
X24998433Y-70101298D02*
X25001000Y-70000000D01*
X47125495Y-56805389D02*
X47092721Y-56901273D01*
X63502305Y-90436154D02*
X63599726Y-90408278D01*
X7551414Y-74622066D02*
X7483483Y-74697255D01*
X67003566Y-88601298D02*
X67011261Y-88702336D01*
X7024063Y-75697144D02*
X7011261Y-75797663D01*
X84225211Y-53081551D02*
X84303744Y-53017516D01*
X27698255Y-16017516D02*
X27776788Y-16081551D01*
X27359473Y-37857463D02*
X27303711Y-37942071D01*
X24698288Y-942071D02*
X24642526Y-857463D01*
X65001000Y-61750000D02*
X65001000Y-57500000D01*
X104749693Y-70970603D02*
X104796609Y-70880788D01*
X63789711Y-53337915D02*
X63881788Y-53295609D01*
X8306389Y-18624495D02*
X8212288Y-18662084D01*
X24642526Y-34142536D02*
X24698288Y-34057928D01*
X63403597Y-16459059D02*
X63502305Y-16436154D01*
X68899701Y-34997433D02*
X69001000Y-35000000D01*
X64642526Y-52642536D02*
X64698288Y-52557928D01*
X7001000Y-33000000D02*
X7003566Y-33101298D01*
X7551414Y-56122066D02*
X7483483Y-56197255D01*
X27483483Y-56197255D02*
X27419448Y-56275788D01*
X104960059Y-33402597D02*
X104977936Y-33302855D01*
X87252306Y-89470603D02*
X87303711Y-89557928D01*
X47303711Y-942071D02*
X47252306Y-1029396D01*
X67205390Y-38119211D02*
X67163084Y-38211288D01*
X83881788Y-90295609D02*
X83971603Y-90248693D01*
X27011261Y-38797663D02*
X27003566Y-38898701D01*
X68402273Y-90408278D02*
X68499694Y-90436154D01*
X47011261Y-51702336D02*
X47024063Y-51802855D01*
X88402273Y-37091721D02*
X88306389Y-37124495D01*
X8798663Y-74010261D02*
X8698144Y-74023063D01*
X64582551Y-52724211D02*
X64642526Y-52642536D01*
X45001000Y-47250000D02*
X46000000Y-47250000D01*
X84749693Y-38029396D02*
X84698288Y-37942071D01*
X43695610Y-34875504D02*
X43789711Y-34837915D01*
X68030396Y-55751306D02*
X67943071Y-55802711D01*
X46002000Y-84250000D02*
X47001000Y-84250000D01*
X103203336Y-90489738D02*
X103303855Y-90476936D01*
X66000000Y-10250000D02*
X66002000Y-10250000D01*
X24225211Y-55918448D02*
X24143536Y-55858473D01*
X104937154Y-19998694D02*
X104909278Y-19901273D01*
X23203336Y-18510261D02*
X23102298Y-18502566D01*
X83303855Y-74023063D02*
X83203336Y-74010261D01*
X44876504Y-15194610D02*
X44909278Y-15098726D01*
X24838915Y-1211288D02*
X24796609Y-1119211D01*
X88030396Y-37251306D02*
X87943071Y-37302711D01*
X68499694Y-18563845D02*
X68402273Y-18591721D01*
X46002000Y-43250000D02*
X46000000Y-43250000D01*
X27024063Y-38697144D02*
X27011261Y-38797663D01*
X24876504Y-52194610D02*
X24909278Y-52098726D01*
X85001000Y-70000000D02*
X85001000Y-65750000D01*
X104876504Y-38305389D02*
X104838915Y-38211288D01*
X7483483Y-19197255D02*
X7419448Y-19275788D01*
X47698255Y-53017516D02*
X47776788Y-53081551D01*
X104876504Y-15194610D02*
X104909278Y-15098726D01*
X104058928Y-71697288D02*
X104143536Y-71641526D01*
X68120211Y-34795609D02*
X68212288Y-34837915D01*
X64909278Y-1401273D02*
X64876504Y-1305389D01*
X28798663Y-34989738D02*
X28899701Y-34997433D01*
X47205390Y-38119211D02*
X47163084Y-38211288D01*
X63502305Y-74063845D02*
X63403597Y-74040940D01*
X27419448Y-71224211D02*
X27483483Y-71302744D01*
X64058928Y-302711D02*
X63971603Y-251306D01*
X88698144Y-53476936D02*
X88798663Y-53489738D01*
X44303744Y-71517516D02*
X44378933Y-71449585D01*
X104796609Y-1119211D02*
X104749693Y-1029396D01*
X84225211Y-90081551D02*
X84303744Y-90017516D01*
X7001000Y-88500000D02*
X7003566Y-88601298D01*
X47163084Y-75211288D02*
X47125495Y-75305389D01*
X67041940Y-20097402D02*
X67024063Y-20197144D01*
X27419448Y-74775788D02*
X27359473Y-74857463D01*
X7011261Y-38797663D02*
X7003566Y-38898701D01*
X67163084Y-89288711D02*
X67205390Y-89380788D01*
X27776788Y-55918448D02*
X27698255Y-55982483D01*
X45001000Y-14500000D02*
X45001000Y-10250000D01*
X27092721Y-56901273D02*
X27064845Y-56998694D01*
X27943071Y-55802711D02*
X27858463Y-55858473D01*
X88306389Y-16375504D02*
X88402273Y-16408278D01*
X63403597Y-18540940D02*
X63303855Y-18523063D01*
X104582551Y-15724211D02*
X104642526Y-15642536D01*
X47041940Y-1597402D02*
X47024063Y-1697144D01*
X104960059Y-57097402D02*
X104937154Y-56998694D01*
X87125495Y-38305389D02*
X87092721Y-38401273D01*
X28120211Y-55704390D02*
X28030396Y-55751306D01*
X23599726Y-16408278D02*
X23695610Y-16375504D01*
X63695610Y-18624495D02*
X63599726Y-18591721D01*
X44450585Y-89877933D02*
X44518516Y-89802744D01*
X67024063Y-20197144D02*
X67011261Y-20297663D01*
X27943071Y-71697288D02*
X28030396Y-71748693D01*
X23502305Y-71936154D02*
X23599726Y-71908278D01*
X88899701Y-53497433D02*
X89001000Y-53500000D01*
X8212288Y-55662084D02*
X8120211Y-55704390D01*
X65001000Y-24750000D02*
X65001000Y-20500000D01*
X47623066Y-56050414D02*
X47551414Y-56122066D01*
X84450585Y-74622066D02*
X84378933Y-74550414D01*
X84303744Y-55982483D02*
X84225211Y-55918448D01*
X63403597Y-55540940D02*
X63303855Y-55523063D01*
X7001000Y-6250000D02*
X5000000Y-6250000D01*
X104450585Y-52877933D02*
X104518516Y-52802744D01*
X28030396Y-53248693D02*
X28120211Y-53295609D01*
X9001000Y-74000000D02*
X8899701Y-74002566D01*
X28306389Y-124495D02*
X28212288Y-162084D01*
X87092721Y-89098726D02*
X87125495Y-89194610D01*
X46002000Y-80250000D02*
X46000000Y-80250000D01*
X27303711Y-71057928D02*
X27359473Y-71142536D01*
X24990738Y-33202336D02*
X24998433Y-33101298D01*
X64582551Y-775788D02*
X64518516Y-697255D01*
X7858463Y-55858473D02*
X7776788Y-55918448D01*
X23599726Y-18591721D02*
X23502305Y-18563845D01*
X67001000Y-2000000D02*
X67001000Y-6250000D01*
X86000000Y-43250000D02*
X85001000Y-43250000D01*
X84876504Y-56805389D02*
X84838915Y-56711288D01*
X24642526Y-74857463D02*
X24582551Y-74775788D01*
X103971603Y-71748693D02*
X104058928Y-71697288D01*
X28499694Y-74063845D02*
X28402273Y-74091721D01*
X7001000Y-47250000D02*
X7001000Y-51500000D01*
X47698255Y-74482483D02*
X47623066Y-74550414D01*
X103599726Y-71908278D02*
X103695610Y-71875504D01*
X67011261Y-33202336D02*
X67024063Y-33302855D01*
X65001000Y-57500000D02*
X64998433Y-57398701D01*
X47003566Y-1898701D02*
X47001000Y-2000000D01*
X48499694Y-34936154D02*
X48598402Y-34959059D01*
X47064845Y-33501305D02*
X47092721Y-33598726D01*
X67092721Y-56901273D02*
X67064845Y-56998694D01*
X47163084Y-1211288D02*
X47125495Y-1305389D01*
X24642526Y-52642536D02*
X24698288Y-52557928D01*
X64642526Y-19357463D02*
X64582551Y-19275788D01*
X7483483Y-34302744D02*
X7551414Y-34377933D01*
X43001000Y-18500000D02*
X29001000Y-18500000D01*
X87163084Y-38211288D02*
X87125495Y-38305389D01*
X68499694Y-63845D02*
X68402273Y-91721D01*
X67011261Y-88702336D02*
X67024063Y-88802855D01*
X24838915Y-89288711D02*
X24876504Y-89194610D01*
X64518516Y-34302744D02*
X64582551Y-34224211D01*
X26000000Y-43250000D02*
X25001000Y-43250000D01*
X47858463Y-18858473D02*
X47776788Y-18918448D01*
X44058928Y-34697288D02*
X44143536Y-34641526D01*
X64225211Y-71581551D02*
X64303744Y-71517516D01*
X67698255Y-37482483D02*
X67623066Y-37550414D01*
X83695610Y-18624495D02*
X83599726Y-18591721D01*
X7483483Y-697255D02*
X7419448Y-775788D01*
X83203336Y-37010261D02*
X83102298Y-37002566D01*
X44749693Y-56529396D02*
X44698288Y-56442071D01*
X8698144Y-71976936D02*
X8798663Y-71989738D01*
X7001000Y-28750000D02*
X7001000Y-33000000D01*
X23403597Y-37040940D02*
X23303855Y-37023063D01*
X67419448Y-15724211D02*
X67483483Y-15802744D01*
X68120211Y-74204390D02*
X68030396Y-74251306D01*
X27041940Y-57097402D02*
X27024063Y-57197144D01*
X47303711Y-74942071D02*
X47252306Y-75029396D01*
X105001000Y-33000000D02*
X105001000Y-28750000D01*
X7011261Y-1797663D02*
X7003566Y-1898701D01*
X44582551Y-89724211D02*
X44642526Y-89642536D01*
X23881788Y-18704390D02*
X23789711Y-18662084D01*
X87698255Y-90017516D02*
X87776788Y-90081551D01*
X87163084Y-19711288D02*
X87125495Y-19805389D01*
X103001000Y-74000000D02*
X89001000Y-74000000D01*
X87483483Y-15802744D02*
X87551414Y-15877933D01*
X104450585Y-89877933D02*
X104518516Y-89802744D01*
X104058928Y-37302711D02*
X103971603Y-37251306D01*
X66000000Y-80250000D02*
X65001000Y-80250000D01*
X24909278Y-52098726D02*
X24937154Y-52001305D01*
X64518516Y-697255D02*
X64450585Y-622066D01*
X63102298Y-55502566D02*
X63001000Y-55500000D01*
X47064845Y-38498694D02*
X47041940Y-38597402D01*
X83303855Y-18523063D02*
X83203336Y-18510261D01*
X48698144Y-53476936D02*
X48798663Y-53489738D01*
X64698288Y-89557928D02*
X64749693Y-89470603D01*
X84838915Y-70788711D02*
X84876504Y-70694610D01*
X24977936Y-33302855D02*
X24990738Y-33202336D01*
X27011261Y-75797663D02*
X27003566Y-75898701D01*
X26000000Y-28750000D02*
X26002000Y-28750000D01*
X85001000Y-20500000D02*
X84998433Y-20398701D01*
X27001000Y-6250000D02*
X26002000Y-6250000D01*
X47125495Y-15194610D02*
X47163084Y-15288711D01*
X23102298Y-18502566D02*
X23001000Y-18500000D01*
X29001000Y-74000000D02*
X28899701Y-74002566D01*
X24378933Y-74550414D02*
X24303744Y-74482483D01*
X47001000Y-2000000D02*
X47001000Y-6250000D01*
X23789711Y-71837915D02*
X23881788Y-71795609D01*
X7776788Y-74418448D02*
X7698255Y-74482483D01*
X8499694Y-34936154D02*
X8598402Y-34959059D01*
X67125495Y-38305389D02*
X67092721Y-38401273D01*
X67125495Y-89194610D02*
X67163084Y-89288711D01*
X64698288Y-37942071D02*
X64642526Y-37857463D01*
X24378933Y-52949585D02*
X24450585Y-52877933D01*
X84796609Y-52380788D02*
X84838915Y-52288711D01*
X27003566Y-1898701D02*
X27001000Y-2000000D01*
X27252306Y-38029396D02*
X27205390Y-38119211D01*
X44143536Y-71641526D02*
X44225211Y-71581551D01*
X64143536Y-34641526D02*
X64225211Y-34581551D01*
X24303744Y-55982483D02*
X24225211Y-55918448D01*
X48120211Y-55704390D02*
X48030396Y-55751306D01*
X8030396Y-53248693D02*
X8120211Y-53295609D01*
X104998433Y-38898701D02*
X104990738Y-38797663D01*
X28698144Y-90476936D02*
X28798663Y-90489738D01*
X23502305Y-34936154D02*
X23599726Y-34908278D01*
X87858463Y-18858473D02*
X87776788Y-18918448D01*
X83599726Y-18591721D02*
X83502305Y-18563845D01*
X44698288Y-52557928D02*
X44749693Y-52470603D01*
X67003566Y-51601298D02*
X67011261Y-51702336D01*
X83599726Y-90408278D02*
X83695610Y-90375504D01*
X104876504Y-33694610D02*
X104909278Y-33598726D01*
X8030396Y-90248693D02*
X8120211Y-90295609D01*
X43303855Y-90476936D02*
X43403597Y-90459059D01*
X87303711Y-15557928D02*
X87359473Y-15642536D01*
X43102298Y-90497433D02*
X43203336Y-90489738D01*
X104518516Y-74697255D02*
X104450585Y-74622066D01*
X104143536Y-18858473D02*
X104058928Y-18802711D01*
X7623066Y-56050414D02*
X7551414Y-56122066D01*
X64838915Y-19711288D02*
X64796609Y-19619211D01*
X87252306Y-15470603D02*
X87303711Y-15557928D01*
X63203336Y-16489738D02*
X63303855Y-16476936D01*
X27483483Y-37697255D02*
X27419448Y-37775788D01*
X27551414Y-74622066D02*
X27483483Y-74697255D01*
X28598402Y-40940D02*
X28499694Y-63845D01*
X44518516Y-15802744D02*
X44582551Y-15724211D01*
X64876504Y-52194610D02*
X64909278Y-52098726D01*
X28499694Y-53436154D02*
X28598402Y-53459059D01*
X104838915Y-1211288D02*
X104796609Y-1119211D01*
X64838915Y-33788711D02*
X64876504Y-33694610D01*
X107002000Y-65750000D02*
X107002000Y-80250000D01*
X27024063Y-14802855D02*
X27041940Y-14902597D01*
X87698255Y-74482483D02*
X87623066Y-74550414D01*
X24642526Y-37857463D02*
X24582551Y-37775788D01*
X88499694Y-74063845D02*
X88402273Y-74091721D01*
X103599726Y-74091721D02*
X103502305Y-74063845D01*
X84582551Y-52724211D02*
X84642526Y-52642536D01*
X43971603Y-251306D02*
X43881788Y-204390D01*
X28030396Y-251306D02*
X27943071Y-302711D01*
X88212288Y-162084D02*
X88120211Y-204390D01*
X83403597Y-74040940D02*
X83303855Y-74023063D01*
X43502305Y-63845D02*
X43403597Y-40940D01*
X83599726Y-74091721D02*
X83502305Y-74063845D01*
X48120211Y-18704390D02*
X48030396Y-18751306D01*
X7003566Y-70101298D02*
X7011261Y-70202336D01*
X43403597Y-34959059D02*
X43502305Y-34936154D01*
X47483483Y-71302744D02*
X47551414Y-71377933D01*
X24642526Y-15642536D02*
X24698288Y-15557928D01*
X24143536Y-37358473D02*
X24058928Y-37302711D01*
X44990738Y-51702336D02*
X44998433Y-51601298D01*
X43971603Y-74251306D02*
X43881788Y-74204390D01*
X44378933Y-34449585D02*
X44450585Y-34377933D01*
X7125495Y-1305389D02*
X7092721Y-1401273D01*
X5000000Y-24750000D02*
X5000000Y-10250000D01*
X87003566Y-75898701D02*
X87001000Y-76000000D01*
X48212288Y-90337915D02*
X48306389Y-90375504D01*
X107002000Y-28750000D02*
X107002000Y-43250000D01*
X27698255Y-37482483D02*
X27623066Y-37550414D01*
X88698144Y-37023063D02*
X88598402Y-37040940D01*
X83971603Y-55751306D02*
X83881788Y-55704390D01*
X48402273Y-18591721D02*
X48306389Y-18624495D01*
X24378933Y-71449585D02*
X24450585Y-71377933D01*
X68598402Y-53459059D02*
X68698144Y-53476936D01*
X45001000Y-84250000D02*
X46000000Y-84250000D01*
X87205390Y-52380788D02*
X87252306Y-52470603D01*
X83102298Y-37002566D02*
X83001000Y-37000000D01*
X64303744Y-482483D02*
X64225211Y-418448D01*
X67125495Y-52194610D02*
X67163084Y-52288711D01*
X84518516Y-71302744D02*
X84582551Y-71224211D01*
X64582551Y-19275788D02*
X64518516Y-19197255D01*
X27303711Y-19442071D02*
X27252306Y-19529396D01*
X87419448Y-89724211D02*
X87483483Y-89802744D01*
X44838915Y-75211288D02*
X44796609Y-75119211D01*
X47943071Y-74302711D02*
X47858463Y-74358473D01*
X49001000Y-35000000D02*
X63001000Y-35000000D01*
X83695610Y-53375504D02*
X83789711Y-53337915D01*
X64909278Y-33598726D02*
X64937154Y-33501305D01*
X68698144Y-90476936D02*
X68798663Y-90489738D01*
X43001000Y-55500000D02*
X29001000Y-55500000D01*
X63695610Y-53375504D02*
X63789711Y-53337915D01*
X64642526Y-74857463D02*
X64582551Y-74775788D01*
X104977936Y-1697144D02*
X104960059Y-1597402D01*
X63881788Y-204390D02*
X63789711Y-162084D01*
X7163084Y-19711288D02*
X7125495Y-19805389D01*
X89001000Y-16500000D02*
X103001000Y-16500000D01*
X26002000Y-80250000D02*
X26000000Y-80250000D01*
X68899701Y-90497433D02*
X69001000Y-90500000D01*
X104998433Y-1898701D02*
X104990738Y-1797663D01*
X84876504Y-38305389D02*
X84838915Y-38211288D01*
X24143536Y-34641526D02*
X24225211Y-34581551D01*
X23881788Y-34795609D02*
X23971603Y-34748693D01*
X84876504Y-75305389D02*
X84838915Y-75211288D01*
X83403597Y-55540940D02*
X83303855Y-55523063D01*
X67698255Y-34517516D02*
X67776788Y-34581551D01*
X24450585Y-74622066D02*
X24378933Y-74550414D01*
X104960059Y-1597402D02*
X104937154Y-1498694D01*
X84143536Y-37358473D02*
X84058928Y-37302711D01*
X68212288Y-37162084D02*
X68120211Y-37204390D01*
X28499694Y-37063845D02*
X28402273Y-37091721D01*
X27303711Y-37942071D02*
X27252306Y-38029396D01*
X44518516Y-89802744D02*
X44582551Y-89724211D01*
X88402273Y-55591721D02*
X88306389Y-55624495D01*
X103971603Y-251306D02*
X103881788Y-204390D01*
X27001000Y-76000000D02*
X27001000Y-80250000D01*
X8212288Y-37162084D02*
X8120211Y-37204390D01*
X26000000Y-65750000D02*
X26002000Y-65750000D01*
X67252306Y-52470603D02*
X67303711Y-52557928D01*
X27024063Y-75697144D02*
X27011261Y-75797663D01*
X44990738Y-14702336D02*
X44998433Y-14601298D01*
X5000000Y-43250000D02*
X5000000Y-28750000D01*
X25001000Y-51500000D02*
X25001000Y-47250000D01*
X87024063Y-70302855D02*
X87041940Y-70402597D01*
X7064845Y-1498694D02*
X7041940Y-1597402D01*
X45001000Y-33000000D02*
X45001000Y-28750000D01*
X28899701Y-55502566D02*
X28798663Y-55510261D01*
X28402273Y-91721D02*
X28306389Y-124495D01*
X64749693Y-56529396D02*
X64698288Y-56442071D01*
X88120211Y-16295609D02*
X88212288Y-16337915D01*
X7064845Y-52001305D02*
X7092721Y-52098726D01*
X83502305Y-34936154D02*
X83599726Y-34908278D01*
X27064845Y-89001305D02*
X27092721Y-89098726D01*
X64990738Y-57297663D02*
X64977936Y-57197144D01*
X64998433Y-75898701D02*
X64990738Y-75797663D01*
X68212288Y-74162084D02*
X68120211Y-74204390D01*
X47359473Y-56357463D02*
X47303711Y-56442071D01*
X23789711Y-74162084D02*
X23695610Y-74124495D01*
X25001000Y-88500000D02*
X25001000Y-84250000D01*
X28899701Y-71997433D02*
X29001000Y-72000000D01*
X27483483Y-697255D02*
X27419448Y-775788D01*
X63881788Y-53295609D02*
X63971603Y-53248693D01*
X7024063Y-70302855D02*
X7041940Y-70402597D01*
X87623066Y-550414D02*
X87551414Y-622066D01*
X87001000Y-51500000D02*
X87003566Y-51601298D01*
X47001000Y-33000000D02*
X47003566Y-33101298D01*
X68306389Y-18624495D02*
X68212288Y-18662084D01*
X104582551Y-37775788D02*
X104518516Y-37697255D01*
X84143536Y-18858473D02*
X84058928Y-18802711D01*
X64582551Y-34224211D02*
X64642526Y-34142536D01*
X84642526Y-52642536D02*
X84698288Y-52557928D01*
X23789711Y-55662084D02*
X23695610Y-55624495D01*
X7205390Y-38119211D02*
X7163084Y-38211288D01*
X23971603Y-37251306D02*
X23881788Y-37204390D01*
X64749693Y-52470603D02*
X64796609Y-52380788D01*
X84909278Y-89098726D02*
X84937154Y-89001305D01*
X105001000Y-80250000D02*
X105001000Y-76000000D01*
X84450585Y-56122066D02*
X84378933Y-56050414D01*
X68306389Y-71875504D02*
X68402273Y-71908278D01*
X104518516Y-697255D02*
X104450585Y-622066D01*
X87359473Y-857463D02*
X87303711Y-942071D01*
X23102298Y-74002566D02*
X23001000Y-74000000D01*
X68798663Y-18510261D02*
X68698144Y-18523063D01*
X7024063Y-38697144D02*
X7011261Y-38797663D01*
X84749693Y-15470603D02*
X84796609Y-15380788D01*
X43102298Y-53497433D02*
X43203336Y-53489738D01*
X24225211Y-90081551D02*
X24303744Y-90017516D01*
X67252306Y-75029396D02*
X67205390Y-75119211D01*
X64937154Y-15001305D02*
X64960059Y-14902597D01*
X67024063Y-75697144D02*
X67011261Y-75797663D01*
X86002000Y-10250000D02*
X87001000Y-10250000D01*
X24303744Y-482483D02*
X24225211Y-418448D01*
X27252306Y-1029396D02*
X27205390Y-1119211D01*
X64876504Y-38305389D02*
X64838915Y-38211288D01*
X26002000Y-6250000D02*
X26000000Y-6250000D01*
X67064845Y-38498694D02*
X67041940Y-38597402D01*
X25001000Y-76000000D02*
X24998433Y-75898701D01*
X104990738Y-14702336D02*
X104998433Y-14601298D01*
X89001000Y-90500000D02*
X103001000Y-90500000D01*
X84518516Y-89802744D02*
X84582551Y-89724211D01*
X67303711Y-942071D02*
X67252306Y-1029396D01*
X84225211Y-18918448D02*
X84143536Y-18858473D01*
X104225211Y-418448D02*
X104143536Y-358473D01*
X49001000Y-72000000D02*
X63001000Y-72000000D01*
X84698288Y-19442071D02*
X84642526Y-19357463D01*
X87011261Y-75797663D02*
X87003566Y-75898701D01*
X44582551Y-56275788D02*
X44518516Y-56197255D01*
X64960059Y-57097402D02*
X64937154Y-56998694D01*
X7041940Y-51902597D02*
X7064845Y-52001305D01*
X23403597Y-53459059D02*
X23502305Y-53436154D01*
X27205390Y-15380788D02*
X27252306Y-15470603D01*
X104642526Y-71142536D02*
X104698288Y-71057928D01*
X64998433Y-70101298D02*
X65001000Y-70000000D01*
X87359473Y-52642536D02*
X87419448Y-52724211D01*
X65001000Y-20500000D02*
X64998433Y-20398701D01*
X28212288Y-90337915D02*
X28306389Y-90375504D01*
X63001000Y-35000000D02*
X63102298Y-34997433D01*
X44876504Y-38305389D02*
X44838915Y-38211288D01*
X67551414Y-15877933D02*
X67623066Y-15949585D01*
X8402273Y-91721D02*
X8306389Y-124495D01*
X67943071Y-53197288D02*
X68030396Y-53248693D01*
X107002000Y-80250000D02*
X105001000Y-80250000D01*
X7001000Y-51500000D02*
X7003566Y-51601298D01*
X103789711Y-90337915D02*
X103881788Y-90295609D01*
X104876504Y-56805389D02*
X104838915Y-56711288D01*
X87064845Y-19998694D02*
X87041940Y-20097402D01*
X27252306Y-19529396D02*
X27205390Y-19619211D01*
X7303711Y-74942071D02*
X7252306Y-75029396D01*
X44909278Y-38401273D02*
X44876504Y-38305389D01*
X49001000Y-18500000D02*
X48899701Y-18502566D01*
X23203336Y-90489738D02*
X23303855Y-90476936D01*
X87001000Y-33000000D02*
X87003566Y-33101298D01*
X24749693Y-52470603D02*
X24796609Y-52380788D01*
X84876504Y-70694610D02*
X84909278Y-70598726D01*
X7092721Y-56901273D02*
X7064845Y-56998694D01*
X65001000Y-28750000D02*
X66000000Y-28750000D01*
X44960059Y-33402597D02*
X44977936Y-33302855D01*
X27003566Y-51601298D02*
X27011261Y-51702336D01*
X104303744Y-16017516D02*
X104378933Y-15949585D01*
X23881788Y-74204390D02*
X23789711Y-74162084D01*
X24698288Y-89557928D02*
X24749693Y-89470603D01*
X87125495Y-1305389D02*
X87092721Y-1401273D01*
X44642526Y-857463D02*
X44582551Y-775788D01*
X67024063Y-33302855D02*
X67041940Y-33402597D01*
X87776788Y-71581551D02*
X87858463Y-71641526D01*
X24990738Y-88702336D02*
X24998433Y-88601298D01*
X84838915Y-56711288D02*
X84796609Y-56619211D01*
X87551414Y-37622066D02*
X87483483Y-37697255D01*
X7011261Y-20297663D02*
X7003566Y-20398701D01*
X25001000Y-70000000D02*
X25001000Y-65750000D01*
X43695610Y-16375504D02*
X43789711Y-16337915D01*
X24909278Y-15098726D02*
X24937154Y-15001305D01*
X44937154Y-75498694D02*
X44909278Y-75401273D01*
X83303855Y-34976936D02*
X83403597Y-34959059D01*
X44998433Y-75898701D02*
X44990738Y-75797663D01*
X7163084Y-38211288D02*
X7125495Y-38305389D01*
X67125495Y-15194610D02*
X67163084Y-15288711D01*
X23971603Y-53248693D02*
X24058928Y-53197288D01*
X43203336Y-34989738D02*
X43303855Y-34976936D01*
X104876504Y-19805389D02*
X104838915Y-19711288D01*
X27205390Y-19619211D02*
X27163084Y-19711288D01*
X23001000Y-55500000D02*
X9001000Y-55500000D01*
X83502305Y-53436154D02*
X83599726Y-53408278D01*
X83881788Y-53295609D02*
X83971603Y-53248693D01*
X87776788Y-74418448D02*
X87698255Y-74482483D01*
X43102298Y-16497433D02*
X43203336Y-16489738D01*
X67776788Y-55918448D02*
X67698255Y-55982483D01*
X48030396Y-53248693D02*
X48120211Y-53295609D01*
X44876504Y-75305389D02*
X44838915Y-75211288D01*
X24977936Y-14802855D02*
X24990738Y-14702336D01*
X103303855Y-18523063D02*
X103203336Y-18510261D01*
X64909278Y-15098726D02*
X64937154Y-15001305D01*
X107002000Y-84250000D02*
X107002000Y-90500000D01*
X87943071Y-18802711D02*
X87858463Y-18858473D01*
X27858463Y-37358473D02*
X27776788Y-37418448D01*
X23695610Y-34875504D02*
X23789711Y-34837915D01*
X68120211Y-71795609D02*
X68212288Y-71837915D01*
X67001000Y-33000000D02*
X67003566Y-33101298D01*
X43203336Y-74010261D02*
X43102298Y-74002566D01*
X27064845Y-52001305D02*
X27092721Y-52098726D01*
X84642526Y-56357463D02*
X84582551Y-56275788D01*
X8499694Y-18563845D02*
X8402273Y-18591721D01*
X7163084Y-52288711D02*
X7205390Y-52380788D01*
X104796609Y-89380788D02*
X104838915Y-89288711D01*
X84876504Y-19805389D02*
X84838915Y-19711288D01*
X84998433Y-51601298D02*
X85001000Y-51500000D01*
X23502305Y-74063845D02*
X23403597Y-74040940D01*
X47483483Y-89802744D02*
X47551414Y-89877933D01*
X64838915Y-1211288D02*
X64796609Y-1119211D01*
X7125495Y-75305389D02*
X7092721Y-75401273D01*
X64058928Y-74302711D02*
X63971603Y-74251306D01*
X24225211Y-34581551D02*
X24303744Y-34517516D01*
X8030396Y-251306D02*
X7943071Y-302711D01*
X63303855Y-55523063D02*
X63203336Y-55510261D01*
X103599726Y-16408278D02*
X103695610Y-16375504D01*
X68402273Y-18591721D02*
X68306389Y-18624495D01*
X7163084Y-15288711D02*
X7205390Y-15380788D01*
X24909278Y-38401273D02*
X24876504Y-38305389D01*
X103881788Y-204390D02*
X103789711Y-162084D01*
X27623066Y-74550414D02*
X27551414Y-74622066D01*
X27163084Y-1211288D02*
X27125495Y-1305389D01*
X85001000Y-28750000D02*
X86000000Y-28750000D01*
X8698144Y-90476936D02*
X8798663Y-90489738D01*
X103881788Y-55704390D02*
X103789711Y-55662084D01*
X86000000Y-84250000D02*
X86002000Y-84250000D01*
X24909278Y-1401273D02*
X24876504Y-1305389D01*
X67551414Y-52877933D02*
X67623066Y-52949585D01*
X7419448Y-56275788D02*
X7359473Y-56357463D01*
X85001000Y-88500000D02*
X85001000Y-84250000D01*
X87001000Y-2000000D02*
X87001000Y-6250000D01*
X104698288Y-71057928D02*
X104749693Y-70970603D01*
X24698288Y-71057928D02*
X24749693Y-70970603D01*
X47419448Y-89724211D02*
X47483483Y-89802744D01*
X83971603Y-74251306D02*
X83881788Y-74204390D01*
X87419448Y-15724211D02*
X87483483Y-15802744D01*
X24303744Y-34517516D02*
X24378933Y-34449585D01*
X68698144Y-74023063D02*
X68598402Y-74040940D01*
X23403597Y-55540940D02*
X23303855Y-55523063D01*
X64378933Y-52949585D02*
X64450585Y-52877933D01*
X83102298Y-74002566D02*
X83001000Y-74000000D01*
X48306389Y-124495D02*
X48212288Y-162084D01*
X27698255Y-34517516D02*
X27776788Y-34581551D01*
X28798663Y-18510261D02*
X28698144Y-18523063D01*
X67041940Y-14902597D02*
X67064845Y-15001305D01*
X83881788Y-204390D02*
X83789711Y-162084D01*
X47858463Y-53141526D02*
X47943071Y-53197288D01*
X67001000Y-88500000D02*
X67003566Y-88601298D01*
X63789711Y-37162084D02*
X63695610Y-37124495D01*
X43403597Y-90459059D02*
X43502305Y-90436154D01*
X48899701Y-37002566D02*
X48798663Y-37010261D01*
X24582551Y-34224211D02*
X24642526Y-34142536D01*
X103599726Y-53408278D02*
X103695610Y-53375504D01*
X104642526Y-37857463D02*
X104582551Y-37775788D01*
X7252306Y-1029396D02*
X7205390Y-1119211D01*
X88698144Y-16476936D02*
X88798663Y-16489738D01*
X104303744Y-74482483D02*
X104225211Y-74418448D01*
X64058928Y-53197288D02*
X64143536Y-53141526D01*
X68030396Y-34748693D02*
X68120211Y-34795609D01*
X47163084Y-70788711D02*
X47205390Y-70880788D01*
X7163084Y-33788711D02*
X7205390Y-33880788D01*
X44960059Y-88902597D02*
X44977936Y-88802855D01*
X44378933Y-19050414D02*
X44303744Y-18982483D01*
X63789711Y-16337915D02*
X63881788Y-16295609D01*
X67001000Y-65750000D02*
X67001000Y-70000000D01*
X87092721Y-15098726D02*
X87125495Y-15194610D01*
X84749693Y-19529396D02*
X84698288Y-19442071D01*
X47551414Y-74622066D02*
X47483483Y-74697255D01*
X25001000Y-43250000D02*
X25001000Y-39000000D01*
X23599726Y-37091721D02*
X23502305Y-37063845D01*
X28598402Y-37040940D02*
X28499694Y-37063845D01*
X87252306Y-1029396D02*
X87205390Y-1119211D01*
X48598402Y-53459059D02*
X48698144Y-53476936D01*
X86002000Y-28750000D02*
X87001000Y-28750000D01*
X48499694Y-53436154D02*
X48598402Y-53459059D01*
X27011261Y-1797663D02*
X27003566Y-1898701D01*
X44582551Y-74775788D02*
X44518516Y-74697255D01*
X28698144Y-71976936D02*
X28798663Y-71989738D01*
X43971603Y-34748693D02*
X44058928Y-34697288D01*
X104303744Y-37482483D02*
X104225211Y-37418448D01*
X84909278Y-33598726D02*
X84937154Y-33501305D01*
X68030396Y-53248693D02*
X68120211Y-53295609D01*
X67092721Y-75401273D02*
X67064845Y-75498694D01*
X24990738Y-75797663D02*
X24977936Y-75697144D01*
X84378933Y-34449585D02*
X84450585Y-34377933D01*
X65001000Y-10250000D02*
X66000000Y-10250000D01*
X47024063Y-70302855D02*
X47041940Y-70402597D01*
X27858463Y-18858473D02*
X27776788Y-18918448D01*
X84143536Y-16141526D02*
X84225211Y-16081551D01*
X66002000Y-10250000D02*
X67001000Y-10250000D01*
X84960059Y-70402597D02*
X84977936Y-70302855D01*
X24058928Y-34697288D02*
X24143536Y-34641526D01*
X23303855Y-53476936D02*
X23403597Y-53459059D01*
X24518516Y-56197255D02*
X24450585Y-56122066D01*
X84990738Y-33202336D02*
X84998433Y-33101298D01*
X88499694Y-53436154D02*
X88598402Y-53459059D01*
X67776788Y-74418448D02*
X67698255Y-74482483D01*
X47163084Y-19711288D02*
X47125495Y-19805389D01*
X44749693Y-1029396D02*
X44698288Y-942071D01*
X43102298Y-37002566D02*
X43001000Y-37000000D01*
X7205390Y-15380788D02*
X7252306Y-15470603D01*
X48120211Y-71795609D02*
X48212288Y-71837915D01*
X44937154Y-56998694D02*
X44909278Y-56901273D01*
X88212288Y-53337915D02*
X88306389Y-53375504D01*
X7776788Y-71581551D02*
X7858463Y-71641526D01*
X44977936Y-14802855D02*
X44990738Y-14702336D01*
X64937154Y-56998694D02*
X64909278Y-56901273D01*
X105001000Y-70000000D02*
X105001000Y-65750000D01*
X24450585Y-622066D02*
X24378933Y-550414D01*
X68030396Y-74251306D02*
X67943071Y-74302711D01*
X27252306Y-75029396D02*
X27205390Y-75119211D01*
X43971603Y-16248693D02*
X44058928Y-16197288D01*
X84990738Y-14702336D02*
X84998433Y-14601298D01*
X44990738Y-70202336D02*
X44998433Y-70101298D01*
X44749693Y-52470603D02*
X44796609Y-52380788D01*
X28120211Y-74204390D02*
X28030396Y-74251306D01*
X23789711Y-16337915D02*
X23881788Y-16295609D01*
X49001000Y0D02*
X48899701Y-2566D01*
X67483483Y-52802744D02*
X67551414Y-52877933D01*
X7359473Y-19357463D02*
X7303711Y-19442071D01*
X24143536Y-74358473D02*
X24058928Y-74302711D01*
X67776788Y-71581551D02*
X67858463Y-71641526D01*
X67359473Y-37857463D02*
X67303711Y-37942071D01*
X48306389Y-37124495D02*
X48212288Y-37162084D01*
X7163084Y-56711288D02*
X7125495Y-56805389D01*
X88402273Y-71908278D02*
X88499694Y-71936154D01*
X8598402Y-18540940D02*
X8499694Y-18563845D01*
X24450585Y-52877933D02*
X24518516Y-52802744D01*
X84058928Y-71697288D02*
X84143536Y-71641526D01*
X28306389Y-34875504D02*
X28402273Y-34908278D01*
X44450585Y-37622066D02*
X44378933Y-37550414D01*
X67359473Y-56357463D02*
X67303711Y-56442071D01*
X104225211Y-16081551D02*
X104303744Y-16017516D01*
X104582551Y-52724211D02*
X104642526Y-52642536D01*
X84518516Y-37697255D02*
X84450585Y-37622066D01*
X84303744Y-71517516D02*
X84378933Y-71449585D01*
X67001000Y-28750000D02*
X67001000Y-33000000D01*
X43789711Y-18662084D02*
X43695610Y-18624495D01*
X104642526Y-15642536D02*
X104698288Y-15557928D01*
X47001000Y-39000000D02*
X47001000Y-43250000D01*
X8698144Y-37023063D02*
X8598402Y-37040940D01*
X68899701Y-37002566D02*
X68798663Y-37010261D01*
X67001000Y-43250000D02*
X66002000Y-43250000D01*
X27163084Y-19711288D02*
X27125495Y-19805389D01*
X44582551Y-775788D02*
X44518516Y-697255D01*
X84698288Y-52557928D02*
X84749693Y-52470603D01*
X85001000Y-47250000D02*
X86000000Y-47250000D01*
X88306389Y-18624495D02*
X88212288Y-18662084D01*
X47163084Y-38211288D02*
X47125495Y-38305389D01*
X64937154Y-75498694D02*
X64909278Y-75401273D01*
X7024063Y-14802855D02*
X7041940Y-14902597D01*
X104838915Y-15288711D02*
X104876504Y-15194610D01*
X48698144Y-55523063D02*
X48598402Y-55540940D01*
X44998433Y-20398701D02*
X44990738Y-20297663D01*
X44378933Y-89949585D02*
X44450585Y-89877933D01*
X83502305Y-18563845D02*
X83403597Y-18540940D01*
X67419448Y-71224211D02*
X67483483Y-71302744D01*
X7001000Y-65750000D02*
X7001000Y-70000000D01*
X83001000Y-55500000D02*
X69001000Y-55500000D01*
X7092721Y-15098726D02*
X7125495Y-15194610D01*
X28798663Y-74010261D02*
X28698144Y-74023063D01*
X43971603Y-37251306D02*
X43881788Y-37204390D01*
X64582551Y-37775788D02*
X64518516Y-37697255D01*
X47419448Y-74775788D02*
X47359473Y-74857463D01*
X44977936Y-88802855D02*
X44990738Y-88702336D01*
X67623066Y-19050414D02*
X67551414Y-19122066D01*
X104378933Y-15949585D02*
X104450585Y-15877933D01*
X87858463Y-90141526D02*
X87943071Y-90197288D01*
X26000000Y-61750000D02*
X25001000Y-61750000D01*
X24838915Y-52288711D02*
X24876504Y-52194610D01*
X68598402Y-71959059D02*
X68698144Y-71976936D01*
X66000000Y-61750000D02*
X65001000Y-61750000D01*
X8306389Y-71875504D02*
X8402273Y-71908278D01*
X88120211Y-37204390D02*
X88030396Y-37251306D01*
X88899701Y-74002566D02*
X88798663Y-74010261D01*
X84749693Y-56529396D02*
X84698288Y-56442071D01*
X45001000Y-61750000D02*
X45001000Y-57500000D01*
X43695610Y-90375504D02*
X43789711Y-90337915D01*
X29001000Y-35000000D02*
X43001000Y-35000000D01*
X47252306Y-52470603D02*
X47303711Y-52557928D01*
X87943071Y-53197288D02*
X88030396Y-53248693D01*
X44058928Y-90197288D02*
X44143536Y-90141526D01*
X44960059Y-20097402D02*
X44937154Y-19998694D01*
X88212288Y-55662084D02*
X88120211Y-55704390D01*
X27419448Y-775788D02*
X27359473Y-857463D01*
X87551414Y-52877933D02*
X87623066Y-52949585D01*
X66002000Y-47250000D02*
X67001000Y-47250000D01*
X105001000Y-43250000D02*
X105001000Y-39000000D01*
X64058928Y-18802711D02*
X63971603Y-18751306D01*
X27011261Y-70202336D02*
X27024063Y-70302855D01*
X47551414Y-56122066D02*
X47483483Y-56197255D01*
X64960059Y-38597402D02*
X64937154Y-38498694D01*
X7359473Y-89642536D02*
X7419448Y-89724211D01*
X47776788Y-418448D02*
X47698255Y-482483D01*
X47003566Y-88601298D02*
X47011261Y-88702336D01*
X27003566Y-75898701D02*
X27001000Y-76000000D01*
X47064845Y-1498694D02*
X47041940Y-1597402D01*
X24796609Y-52380788D02*
X24838915Y-52288711D01*
X83881788Y-55704390D02*
X83789711Y-55662084D01*
X48030396Y-71748693D02*
X48120211Y-71795609D01*
X87024063Y-38697144D02*
X87011261Y-38797663D01*
X7483483Y-89802744D02*
X7551414Y-89877933D01*
X44990738Y-38797663D02*
X44977936Y-38697144D01*
X103303855Y-71976936D02*
X103403597Y-71959059D01*
X7483483Y-52802744D02*
X7551414Y-52877933D01*
X24937154Y-19998694D02*
X24909278Y-19901273D01*
X27163084Y-52288711D02*
X27205390Y-52380788D01*
X27003566Y-38898701D02*
X27001000Y-39000000D01*
X7024063Y-20197144D02*
X7011261Y-20297663D01*
X67698255Y-482483D02*
X67623066Y-550414D01*
X67252306Y-89470603D02*
X67303711Y-89557928D01*
X84977936Y-75697144D02*
X84960059Y-75597402D01*
X83403597Y-18540940D02*
X83303855Y-18523063D01*
X83502305Y-71936154D02*
X83599726Y-71908278D01*
X67943071Y-74302711D02*
X67858463Y-74358473D01*
X27303711Y-52557928D02*
X27359473Y-52642536D01*
X27001000Y-10250000D02*
X27001000Y-14500000D01*
X24990738Y-57297663D02*
X24977936Y-57197144D01*
X7001000Y-2000000D02*
X7001000Y-6250000D01*
X104796609Y-19619211D02*
X104749693Y-19529396D01*
X87003566Y-51601298D02*
X87011261Y-51702336D01*
X84582551Y-74775788D02*
X84518516Y-74697255D01*
X24303744Y-90017516D02*
X24378933Y-89949585D01*
X27001000Y-70000000D02*
X27003566Y-70101298D01*
X43203336Y-90489738D02*
X43303855Y-90476936D01*
X44937154Y-89001305D02*
X44960059Y-88902597D01*
X67011261Y-14702336D02*
X67024063Y-14802855D01*
X88899701Y-34997433D02*
X89001000Y-35000000D01*
X44960059Y-57097402D02*
X44937154Y-56998694D01*
X26000000Y-10250000D02*
X26002000Y-10250000D01*
X88212288Y-34837915D02*
X88306389Y-34875504D01*
X48698144Y-34976936D02*
X48798663Y-34989738D01*
X86002000Y-80250000D02*
X86000000Y-80250000D01*
X43303855Y-55523063D02*
X43203336Y-55510261D01*
X44990738Y-75797663D02*
X44977936Y-75697144D01*
X84796609Y-75119211D02*
X84749693Y-75029396D01*
X64876504Y-33694610D02*
X64909278Y-33598726D01*
X103599726Y-55591721D02*
X103502305Y-55563845D01*
X23102298Y-37002566D02*
X23001000Y-37000000D01*
X104225211Y-55918448D02*
X104143536Y-55858473D01*
X84937154Y-52001305D02*
X84960059Y-51902597D01*
X83303855Y-53476936D02*
X83403597Y-53459059D01*
X7359473Y-857463D02*
X7303711Y-942071D01*
X68402273Y-53408278D02*
X68499694Y-53436154D01*
X84303744Y-53017516D02*
X84378933Y-52949585D01*
X84977936Y-1697144D02*
X84960059Y-1597402D01*
X47001000Y-80250000D02*
X46002000Y-80250000D01*
X84303744Y-74482483D02*
X84225211Y-74418448D01*
X84838915Y-15288711D02*
X84876504Y-15194610D01*
X28698144Y-74023063D02*
X28598402Y-74040940D01*
X105001000Y-24750000D02*
X105001000Y-20500000D01*
X88402273Y-16408278D02*
X88499694Y-16436154D01*
X47858463Y-16141526D02*
X47943071Y-16197288D01*
X84143536Y-358473D02*
X84058928Y-302711D01*
X64937154Y-33501305D02*
X64960059Y-33402597D01*
X88499694Y-34936154D02*
X88598402Y-34959059D01*
X64909278Y-56901273D02*
X64876504Y-56805389D01*
X44977936Y-70302855D02*
X44990738Y-70202336D01*
X104143536Y-16141526D02*
X104225211Y-16081551D01*
X64977936Y-33302855D02*
X64990738Y-33202336D01*
X84796609Y-1119211D02*
X84749693Y-1029396D01*
X27943071Y-34697288D02*
X28030396Y-34748693D01*
X48899701Y-53497433D02*
X49001000Y-53500000D01*
X87003566Y-1898701D02*
X87001000Y-2000000D01*
X68698144Y-23063D02*
X68598402Y-40940D01*
X23403597Y-40940D02*
X23303855Y-23063D01*
X7252306Y-19529396D02*
X7205390Y-19619211D01*
X104225211Y-90081551D02*
X104303744Y-90017516D01*
X47205390Y-70880788D02*
X47252306Y-70970603D01*
X88798663Y-18510261D02*
X88698144Y-18523063D01*
X84058928Y-16197288D02*
X84143536Y-16141526D01*
X85001000Y-2000000D02*
X84998433Y-1898701D01*
X84977936Y-57197144D02*
X84960059Y-57097402D01*
X104876504Y-1305389D02*
X104838915Y-1211288D01*
X27024063Y-1697144D02*
X27011261Y-1797663D01*
X103203336Y-37010261D02*
X103102298Y-37002566D01*
X44796609Y-56619211D02*
X44749693Y-56529396D01*
X26002000Y-28750000D02*
X27001000Y-28750000D01*
M02*
