M48
; DRILL file {KiCad 8.0.4} date 2024-09-08T15:35:44+0800
; FORMAT={-:-/ absolute / metric / decimal}
; #@! TF.CreationDate,2024-09-08T15:35:44+08:00
; #@! TF.GenerationSoftware,Kicad,Pcbnew,8.0.4
; #@! TF.FileFunction,NonPlated,1,2,NPTH
FMAT,2
METRIC
; #@! TA.AperFunction,NonPlated,NPTH,ComponentDrill
T1C0.500
; #@! TA.AperFunction,NonPlated,NPTH,ComponentDrill
T2C0.650
; #@! TA.AperFunction,NonPlated,NPTH,ComponentDrill
T3C2.100
%
G90
G05
T1
X6.901Y-6.25
X6.901Y-7.05
X6.901Y-7.85
X6.901Y-8.65
X6.901Y-9.45
X6.901Y-10.25
X6.901Y-24.75
X6.901Y-25.55
X6.901Y-26.35
X6.901Y-27.15
X6.901Y-27.95
X6.901Y-28.75
X6.901Y-43.25
X6.901Y-44.05
X6.901Y-44.85
X6.901Y-45.65
X6.901Y-46.45
X6.901Y-47.25
X6.901Y-61.75
X6.901Y-62.55
X6.901Y-63.35
X6.901Y-64.15
X6.901Y-64.95
X6.901Y-65.75
X6.901Y-80.25
X6.901Y-81.05
X6.901Y-81.85
X6.901Y-82.65
X6.901Y-83.45
X6.901Y-84.25
X25.101Y-6.25
X25.101Y-7.05
X25.101Y-7.85
X25.101Y-8.65
X25.101Y-9.45
X25.101Y-10.25
X25.101Y-24.75
X25.101Y-25.55
X25.101Y-26.35
X25.101Y-27.15
X25.101Y-27.95
X25.101Y-28.75
X25.101Y-43.25
X25.101Y-44.05
X25.101Y-44.85
X25.101Y-45.65
X25.101Y-46.45
X25.101Y-47.25
X25.101Y-61.75
X25.101Y-62.55
X25.101Y-63.35
X25.101Y-64.15
X25.101Y-64.95
X25.101Y-65.75
X25.101Y-80.25
X25.101Y-81.05
X25.101Y-81.85
X25.101Y-82.65
X25.101Y-83.45
X25.101Y-84.25
X26.901Y-6.25
X26.901Y-7.05
X26.901Y-7.85
X26.901Y-8.65
X26.901Y-9.45
X26.901Y-10.25
X26.901Y-24.75
X26.901Y-25.55
X26.901Y-26.35
X26.901Y-27.15
X26.901Y-27.95
X26.901Y-28.75
X26.901Y-43.25
X26.901Y-44.05
X26.901Y-44.85
X26.901Y-45.65
X26.901Y-46.45
X26.901Y-47.25
X26.901Y-61.75
X26.901Y-62.55
X26.901Y-63.35
X26.901Y-64.15
X26.901Y-64.95
X26.901Y-65.75
X26.901Y-80.25
X26.901Y-81.05
X26.901Y-81.85
X26.901Y-82.65
X26.901Y-83.45
X26.901Y-84.25
X45.101Y-6.25
X45.101Y-7.05
X45.101Y-7.85
X45.101Y-8.65
X45.101Y-9.45
X45.101Y-10.25
X45.101Y-24.75
X45.101Y-25.55
X45.101Y-26.35
X45.101Y-27.15
X45.101Y-27.95
X45.101Y-28.75
X45.101Y-43.25
X45.101Y-44.05
X45.101Y-44.85
X45.101Y-45.65
X45.101Y-46.45
X45.101Y-47.25
X45.101Y-61.75
X45.101Y-62.55
X45.101Y-63.35
X45.101Y-64.15
X45.101Y-64.95
X45.101Y-65.75
X45.101Y-80.25
X45.101Y-81.05
X45.101Y-81.85
X45.101Y-82.65
X45.101Y-83.45
X45.101Y-84.25
X46.901Y-6.25
X46.901Y-7.05
X46.901Y-7.85
X46.901Y-8.65
X46.901Y-9.45
X46.901Y-10.25
X46.901Y-24.75
X46.901Y-25.55
X46.901Y-26.35
X46.901Y-27.15
X46.901Y-27.95
X46.901Y-28.75
X46.901Y-43.25
X46.901Y-44.05
X46.901Y-44.85
X46.901Y-45.65
X46.901Y-46.45
X46.901Y-47.25
X46.901Y-61.75
X46.901Y-62.55
X46.901Y-63.35
X46.901Y-64.15
X46.901Y-64.95
X46.901Y-65.75
X46.901Y-80.25
X46.901Y-81.05
X46.901Y-81.85
X46.901Y-82.65
X46.901Y-83.45
X46.901Y-84.25
X65.101Y-6.25
X65.101Y-7.05
X65.101Y-7.85
X65.101Y-8.65
X65.101Y-9.45
X65.101Y-10.25
X65.101Y-24.75
X65.101Y-25.55
X65.101Y-26.35
X65.101Y-27.15
X65.101Y-27.95
X65.101Y-28.75
X65.101Y-43.25
X65.101Y-44.05
X65.101Y-44.85
X65.101Y-45.65
X65.101Y-46.45
X65.101Y-47.25
X65.101Y-61.75
X65.101Y-62.55
X65.101Y-63.35
X65.101Y-64.15
X65.101Y-64.95
X65.101Y-65.75
X65.101Y-80.25
X65.101Y-81.05
X65.101Y-81.85
X65.101Y-82.65
X65.101Y-83.45
X65.101Y-84.25
X66.901Y-6.25
X66.901Y-7.05
X66.901Y-7.85
X66.901Y-8.65
X66.901Y-9.45
X66.901Y-10.25
X66.901Y-24.75
X66.901Y-25.55
X66.901Y-26.35
X66.901Y-27.15
X66.901Y-27.95
X66.901Y-28.75
X66.901Y-43.25
X66.901Y-44.05
X66.901Y-44.85
X66.901Y-45.65
X66.901Y-46.45
X66.901Y-47.25
X66.901Y-61.75
X66.901Y-62.55
X66.901Y-63.35
X66.901Y-64.15
X66.901Y-64.95
X66.901Y-65.75
X66.901Y-80.25
X66.901Y-81.05
X66.901Y-81.85
X66.901Y-82.65
X66.901Y-83.45
X66.901Y-84.25
X85.101Y-6.25
X85.101Y-7.05
X85.101Y-7.85
X85.101Y-8.65
X85.101Y-9.45
X85.101Y-10.25
X85.101Y-24.75
X85.101Y-25.55
X85.101Y-26.35
X85.101Y-27.15
X85.101Y-27.95
X85.101Y-28.75
X85.101Y-43.25
X85.101Y-44.05
X85.101Y-44.85
X85.101Y-45.65
X85.101Y-46.45
X85.101Y-47.25
X85.101Y-61.75
X85.101Y-62.55
X85.101Y-63.35
X85.101Y-64.15
X85.101Y-64.95
X85.101Y-65.75
X85.101Y-80.25
X85.101Y-81.05
X85.101Y-81.85
X85.101Y-82.65
X85.101Y-83.45
X85.101Y-84.25
X86.901Y-6.25
X86.901Y-7.05
X86.901Y-7.85
X86.901Y-8.65
X86.901Y-9.45
X86.901Y-10.25
X86.901Y-24.75
X86.901Y-25.55
X86.901Y-26.35
X86.901Y-27.15
X86.901Y-27.95
X86.901Y-28.75
X86.901Y-43.25
X86.901Y-44.05
X86.901Y-44.85
X86.901Y-45.65
X86.901Y-46.45
X86.901Y-47.25
X86.901Y-61.75
X86.901Y-62.55
X86.901Y-63.35
X86.901Y-64.15
X86.901Y-64.95
X86.901Y-65.75
X86.901Y-80.25
X86.901Y-81.05
X86.901Y-81.85
X86.901Y-82.65
X86.901Y-83.45
X86.901Y-84.25
X105.101Y-6.25
X105.101Y-7.05
X105.101Y-7.85
X105.101Y-8.65
X105.101Y-9.45
X105.101Y-10.25
X105.101Y-24.75
X105.101Y-25.55
X105.101Y-26.35
X105.101Y-27.15
X105.101Y-27.95
X105.101Y-28.75
X105.101Y-43.25
X105.101Y-44.05
X105.101Y-44.85
X105.101Y-45.65
X105.101Y-46.45
X105.101Y-47.25
X105.101Y-61.75
X105.101Y-62.55
X105.101Y-63.35
X105.101Y-64.15
X105.101Y-64.95
X105.101Y-65.75
X105.101Y-80.25
X105.101Y-81.05
X105.101Y-81.85
X105.101Y-82.65
X105.101Y-83.45
X105.101Y-84.25
T2
X13.111Y-6.3
X13.111Y-24.8
X13.111Y-43.3
X13.111Y-61.8
X13.111Y-80.3
X18.891Y-6.3
X18.891Y-24.8
X18.891Y-43.3
X18.891Y-61.8
X18.891Y-80.3
X33.111Y-6.3
X33.111Y-24.8
X33.111Y-43.3
X33.111Y-61.8
X33.111Y-80.3
X38.891Y-6.3
X38.891Y-24.8
X38.891Y-43.3
X38.891Y-61.8
X38.891Y-80.3
X53.111Y-6.3
X53.111Y-24.8
X53.111Y-43.3
X53.111Y-61.8
X53.111Y-80.3
X58.891Y-6.3
X58.891Y-24.8
X58.891Y-43.3
X58.891Y-61.8
X58.891Y-80.3
X73.111Y-6.3
X73.111Y-24.8
X73.111Y-43.3
X73.111Y-61.8
X73.111Y-80.3
X78.891Y-6.3
X78.891Y-24.8
X78.891Y-43.3
X78.891Y-61.8
X78.891Y-80.3
X93.111Y-6.3
X93.111Y-24.8
X93.111Y-43.3
X93.111Y-61.8
X93.111Y-80.3
X98.891Y-6.3
X98.891Y-24.8
X98.891Y-43.3
X98.891Y-61.8
X98.891Y-80.3
T3
X2.5Y-2.5
X2.5Y-88.0
X109.502Y-2.5
X109.502Y-88.0
M30
