%TF.GenerationSoftware,KiCad,Pcbnew,(6.0.9)*%
%TF.CreationDate,2022-12-08T00:33:12+08:00*%
%TF.ProjectId,without-power-switch-panelized,77697468-6f75-4742-9d70-6f7765722d73,rev?*%
%TF.SameCoordinates,PXe4e1c0PYe4e1c0*%
%TF.FileFunction,Soldermask,Top*%
%TF.FilePolarity,Negative*%
%FSLAX46Y46*%
G04 Gerber Fmt 4.6, Leading zero omitted, Abs format (unit mm)*
G04 Created by KiCad (PCBNEW (6.0.9)) date 2022-12-08 00:33:12*
%MOMM*%
%LPD*%
G01*
G04 APERTURE LIST*
G04 Aperture macros list*
%AMRoundRect*
0 Rectangle with rounded corners*
0 $1 Rounding radius*
0 $2 $3 $4 $5 $6 $7 $8 $9 X,Y pos of 4 corners*
0 Add a 4 corners polygon primitive as box body*
4,1,4,$2,$3,$4,$5,$6,$7,$8,$9,$2,$3,0*
0 Add four circle primitives for the rounded corners*
1,1,$1+$1,$2,$3*
1,1,$1+$1,$4,$5*
1,1,$1+$1,$6,$7*
1,1,$1+$1,$8,$9*
0 Add four rect primitives between the rounded corners*
20,1,$1+$1,$2,$3,$4,$5,0*
20,1,$1+$1,$4,$5,$6,$7,0*
20,1,$1+$1,$6,$7,$8,$9,0*
20,1,$1+$1,$8,$9,$2,$3,0*%
G04 Aperture macros list end*
%ADD10C,0.500000*%
%ADD11C,3.500000*%
%ADD12R,0.375000X0.500000*%
%ADD13R,0.300000X0.650000*%
%ADD14RoundRect,0.200000X0.275000X-0.200000X0.275000X0.200000X-0.275000X0.200000X-0.275000X-0.200000X0*%
%ADD15C,0.650000*%
%ADD16R,0.600000X1.450000*%
%ADD17R,0.300000X1.450000*%
%ADD18O,1.100000X1.800000*%
%ADD19O,1.200000X2.300000*%
%ADD20C,2.100000*%
%ADD21RoundRect,0.200000X-0.275000X0.200000X-0.275000X-0.200000X0.275000X-0.200000X0.275000X0.200000X0*%
%ADD22C,2.540000*%
%ADD23RoundRect,0.150000X-0.150000X-0.625000X0.150000X-0.625000X0.150000X0.625000X-0.150000X0.625000X0*%
%ADD24RoundRect,0.249999X-0.350001X-0.650001X0.350001X-0.650001X0.350001X0.650001X-0.350001X0.650001X0*%
G04 APERTURE END LIST*
D10*
%TO.C,REF\u002A\u002A*%
X85098726Y-26750020D03*
%TD*%
D11*
%TO.C,REF\u002A\u002A*%
X83000000Y-76000000D03*
%TD*%
D10*
%TO.C,REF\u002A\u002A*%
X25098557Y-64583353D03*
%TD*%
%TO.C,REF\u002A\u002A*%
X26900933Y-9916646D03*
%TD*%
%TO.C,REF\u002A\u002A*%
X26901442Y-7416646D03*
%TD*%
D11*
%TO.C,REF\u002A\u002A*%
X49000000Y-70000000D03*
%TD*%
D10*
%TO.C,REF\u002A\u002A*%
X65098896Y-7416687D03*
%TD*%
D11*
%TO.C,REF\u002A\u002A*%
X29000000Y-20500000D03*
%TD*%
D12*
%TO.C,U1*%
X90137500Y-8750000D03*
D13*
X89600000Y-8675000D03*
D12*
X89062500Y-8750000D03*
X89062500Y-10450000D03*
D13*
X89600000Y-10525000D03*
D12*
X90137500Y-10450000D03*
%TD*%
D10*
%TO.C,REF\u002A\u002A*%
X45098217Y-29250020D03*
%TD*%
%TO.C,REF\u002A\u002A*%
X105098387Y-46916687D03*
%TD*%
D14*
%TO.C,R2*%
X82900000Y-47425000D03*
X82900000Y-45775000D03*
%TD*%
D15*
%TO.C,J1*%
X98890000Y-24800000D03*
X93110000Y-24800000D03*
D16*
X99250000Y-26245000D03*
X98450000Y-26245000D03*
D17*
X97250000Y-26245000D03*
X96250000Y-26245000D03*
X95750000Y-26245000D03*
X94750000Y-26245000D03*
D16*
X93550000Y-26245000D03*
X92750000Y-26245000D03*
X92750000Y-26245000D03*
X93550000Y-26245000D03*
D17*
X94250000Y-26245000D03*
X95250000Y-26245000D03*
X96750000Y-26245000D03*
X97750000Y-26245000D03*
D16*
X98450000Y-26245000D03*
X99250000Y-26245000D03*
D18*
X91680000Y-21150000D03*
D19*
X100320000Y-25330000D03*
D18*
X100320000Y-21150000D03*
D19*
X91680000Y-25330000D03*
%TD*%
D11*
%TO.C,REF\u002A\u002A*%
X23000000Y-39000000D03*
%TD*%
D10*
%TO.C,REF\u002A\u002A*%
X66900933Y-83916646D03*
%TD*%
%TO.C,REF\u002A\u002A*%
X25098896Y-7416687D03*
%TD*%
%TO.C,REF\u002A\u002A*%
X65098896Y-62916687D03*
%TD*%
%TO.C,REF\u002A\u002A*%
X66900933Y-65416646D03*
%TD*%
D11*
%TO.C,REF\u002A\u002A*%
X23000000Y-88500000D03*
%TD*%
%TO.C,REF\u002A\u002A*%
X29000000Y-33000000D03*
%TD*%
D14*
%TO.C,R2*%
X22900000Y-10425000D03*
X22900000Y-8775000D03*
%TD*%
D10*
%TO.C,REF\u002A\u002A*%
X65098557Y-64583353D03*
%TD*%
D20*
%TO.C,REF\u002A\u002A*%
X109500000Y-88000000D03*
%TD*%
D11*
%TO.C,REF\u002A\u002A*%
X29000000Y-51500000D03*
%TD*%
%TO.C,REF\u002A\u002A*%
X89000000Y-39000000D03*
%TD*%
D10*
%TO.C,REF\u002A\u002A*%
X46901103Y-46083312D03*
%TD*%
D11*
%TO.C,REF\u002A\u002A*%
X103000000Y-57500000D03*
%TD*%
D10*
%TO.C,REF\u002A\u002A*%
X66901782Y-79749979D03*
%TD*%
%TO.C,REF\u002A\u002A*%
X105098726Y-8250020D03*
%TD*%
D11*
%TO.C,REF\u002A\u002A*%
X23000000Y-57500000D03*
%TD*%
D10*
%TO.C,REF\u002A\u002A*%
X6900934Y-28416646D03*
%TD*%
%TO.C,REF\u002A\u002A*%
X66901273Y-8249979D03*
%TD*%
D15*
%TO.C,J1*%
X53110000Y-24800000D03*
X58890000Y-24800000D03*
D16*
X59250000Y-26245000D03*
X58450000Y-26245000D03*
D17*
X57250000Y-26245000D03*
X56250000Y-26245000D03*
X55750000Y-26245000D03*
X54750000Y-26245000D03*
D16*
X53550000Y-26245000D03*
X52750000Y-26245000D03*
X52750000Y-26245000D03*
X53550000Y-26245000D03*
D17*
X54250000Y-26245000D03*
X55250000Y-26245000D03*
X56750000Y-26245000D03*
X57750000Y-26245000D03*
D16*
X58450000Y-26245000D03*
X59250000Y-26245000D03*
D19*
X60320000Y-25330000D03*
D18*
X51680000Y-21150000D03*
D19*
X51680000Y-25330000D03*
D18*
X60320000Y-21150000D03*
%TD*%
D10*
%TO.C,REF\u002A\u002A*%
X105099236Y-61250020D03*
%TD*%
D12*
%TO.C,U1*%
X70137500Y-64250000D03*
D13*
X69600000Y-64175000D03*
D12*
X69062500Y-64250000D03*
X69062500Y-65950000D03*
D13*
X69600000Y-66025000D03*
D12*
X70137500Y-65950000D03*
%TD*%
D10*
%TO.C,REF\u002A\u002A*%
X26901612Y-80583312D03*
%TD*%
%TO.C,REF\u002A\u002A*%
X6901274Y-82249979D03*
%TD*%
%TO.C,REF\u002A\u002A*%
X46900763Y-10749979D03*
%TD*%
%TO.C,REF\u002A\u002A*%
X46900933Y-65416646D03*
%TD*%
%TO.C,REF\u002A\u002A*%
X25099066Y-62083353D03*
%TD*%
D11*
%TO.C,REF\u002A\u002A*%
X23000000Y-20500000D03*
%TD*%
D10*
%TO.C,REF\u002A\u002A*%
X65098217Y-66250020D03*
%TD*%
%TO.C,REF\u002A\u002A*%
X66901782Y-61249979D03*
%TD*%
%TO.C,REF\u002A\u002A*%
X66900763Y-66249979D03*
%TD*%
D14*
%TO.C,R2*%
X102900000Y-28925000D03*
X102900000Y-27275000D03*
%TD*%
D10*
%TO.C,REF\u002A\u002A*%
X105099236Y-79750020D03*
%TD*%
D14*
%TO.C,R2*%
X22900000Y-28925000D03*
X22900000Y-27275000D03*
%TD*%
D10*
%TO.C,REF\u002A\u002A*%
X85098387Y-28416687D03*
%TD*%
D21*
%TO.C,R1*%
X81500000Y-8775000D03*
X81500000Y-10425000D03*
%TD*%
D10*
%TO.C,REF\u002A\u002A*%
X85098387Y-65416687D03*
%TD*%
%TO.C,REF\u002A\u002A*%
X65098896Y-25916687D03*
%TD*%
%TO.C,REF\u002A\u002A*%
X6900934Y-9916646D03*
%TD*%
%TO.C,REF\u002A\u002A*%
X26900933Y-46916646D03*
%TD*%
D11*
%TO.C,REF\u002A\u002A*%
X63000000Y-20500000D03*
%TD*%
%TO.C,REF\u002A\u002A*%
X49000000Y-57500000D03*
%TD*%
D10*
%TO.C,REF\u002A\u002A*%
X66901103Y-27583312D03*
%TD*%
D22*
%TO.C,REF\u002A\u002A*%
X109500000Y-7500000D03*
%TD*%
D12*
%TO.C,U1*%
X90137500Y-64250000D03*
D13*
X89600000Y-64175000D03*
D12*
X89062500Y-64250000D03*
X89062500Y-65950000D03*
D13*
X89600000Y-66025000D03*
D12*
X90137500Y-65950000D03*
%TD*%
D10*
%TO.C,REF\u002A\u002A*%
X25098217Y-47750020D03*
%TD*%
%TO.C,REF\u002A\u002A*%
X105098217Y-66250020D03*
%TD*%
%TO.C,REF\u002A\u002A*%
X25098217Y-66250020D03*
%TD*%
D12*
%TO.C,U1*%
X10137500Y-27250000D03*
D13*
X9600000Y-27175000D03*
D12*
X9062500Y-27250000D03*
X9062500Y-28950000D03*
D13*
X9600000Y-29025000D03*
D12*
X10137500Y-28950000D03*
%TD*%
D10*
%TO.C,REF\u002A\u002A*%
X66900763Y-47749979D03*
%TD*%
D21*
%TO.C,R1*%
X101500000Y-27275000D03*
X101500000Y-28925000D03*
%TD*%
D10*
%TO.C,REF\u002A\u002A*%
X65099236Y-5750021D03*
%TD*%
D20*
%TO.C,REF\u002A\u002A*%
X2500000Y-88000000D03*
%TD*%
D10*
%TO.C,REF\u002A\u002A*%
X65098217Y-29250020D03*
%TD*%
%TO.C,REF\u002A\u002A*%
X45098557Y-9083353D03*
%TD*%
D11*
%TO.C,REF\u002A\u002A*%
X83000000Y-20500000D03*
%TD*%
D10*
%TO.C,REF\u002A\u002A*%
X65099066Y-62083353D03*
%TD*%
%TO.C,REF\u002A\u002A*%
X105098217Y-84750020D03*
%TD*%
D21*
%TO.C,R1*%
X21500000Y-27275000D03*
X21500000Y-28925000D03*
%TD*%
%TO.C,R1*%
X101500000Y-8775000D03*
X101500000Y-10425000D03*
%TD*%
D11*
%TO.C,REF\u002A\u002A*%
X89000000Y-14500000D03*
%TD*%
D10*
%TO.C,REF\u002A\u002A*%
X6901613Y-62083312D03*
%TD*%
%TO.C,REF\u002A\u002A*%
X105098217Y-29250020D03*
%TD*%
D15*
%TO.C,J1*%
X98890000Y-43300000D03*
X93110000Y-43300000D03*
D16*
X99250000Y-44745000D03*
X98450000Y-44745000D03*
D17*
X97250000Y-44745000D03*
X96250000Y-44745000D03*
X95750000Y-44745000D03*
X94750000Y-44745000D03*
D16*
X93550000Y-44745000D03*
X92750000Y-44745000D03*
X92750000Y-44745000D03*
X93550000Y-44745000D03*
D17*
X94250000Y-44745000D03*
X95250000Y-44745000D03*
X96750000Y-44745000D03*
X97750000Y-44745000D03*
D16*
X98450000Y-44745000D03*
X99250000Y-44745000D03*
D19*
X100320000Y-43830000D03*
D18*
X91680000Y-39650000D03*
D19*
X91680000Y-43830000D03*
D18*
X100320000Y-39650000D03*
%TD*%
D12*
%TO.C,U1*%
X90137500Y-45750000D03*
D13*
X89600000Y-45675000D03*
D12*
X89062500Y-45750000D03*
X89062500Y-47450000D03*
D13*
X89600000Y-47525000D03*
D12*
X90137500Y-47450000D03*
%TD*%
D10*
%TO.C,REF\u002A\u002A*%
X65098387Y-83916687D03*
%TD*%
D11*
%TO.C,REF\u002A\u002A*%
X23000000Y-70000000D03*
%TD*%
D23*
%TO.C,J2*%
X74500000Y-48500000D03*
X75500000Y-48500000D03*
X76500000Y-48500000D03*
X77500000Y-48500000D03*
D24*
X73200000Y-52375000D03*
X78800000Y-52375000D03*
%TD*%
D10*
%TO.C,REF\u002A\u002A*%
X46901273Y-45249979D03*
%TD*%
%TO.C,REF\u002A\u002A*%
X65098557Y-46083353D03*
%TD*%
%TO.C,REF\u002A\u002A*%
X46901442Y-81416646D03*
%TD*%
%TO.C,REF\u002A\u002A*%
X66901442Y-25916646D03*
%TD*%
D11*
%TO.C,REF\u002A\u002A*%
X43000000Y-14500000D03*
%TD*%
D10*
%TO.C,REF\u002A\u002A*%
X46901442Y-62916646D03*
%TD*%
D11*
%TO.C,REF\u002A\u002A*%
X23000000Y-76000000D03*
%TD*%
%TO.C,REF\u002A\u002A*%
X49000000Y-76000000D03*
%TD*%
D10*
%TO.C,REF\u002A\u002A*%
X85098217Y-66250020D03*
%TD*%
%TO.C,REF\u002A\u002A*%
X105098726Y-45250020D03*
%TD*%
%TO.C,REF\u002A\u002A*%
X105098387Y-9916687D03*
%TD*%
%TO.C,REF\u002A\u002A*%
X26901612Y-25083312D03*
%TD*%
%TO.C,REF\u002A\u002A*%
X66901612Y-25083312D03*
%TD*%
%TO.C,REF\u002A\u002A*%
X25098217Y-84750020D03*
%TD*%
%TO.C,REF\u002A\u002A*%
X6900764Y-10749979D03*
%TD*%
%TO.C,REF\u002A\u002A*%
X45098387Y-65416687D03*
%TD*%
%TO.C,REF\u002A\u002A*%
X85098557Y-27583353D03*
%TD*%
D15*
%TO.C,J1*%
X58890000Y-6300000D03*
X53110000Y-6300000D03*
D16*
X59250000Y-7745000D03*
X58450000Y-7745000D03*
D17*
X57250000Y-7745000D03*
X56250000Y-7745000D03*
X55750000Y-7745000D03*
X54750000Y-7745000D03*
D16*
X53550000Y-7745000D03*
X52750000Y-7745000D03*
X52750000Y-7745000D03*
X53550000Y-7745000D03*
D17*
X54250000Y-7745000D03*
X55250000Y-7745000D03*
X56750000Y-7745000D03*
X57750000Y-7745000D03*
D16*
X58450000Y-7745000D03*
X59250000Y-7745000D03*
D18*
X60320000Y-2650000D03*
D19*
X51680000Y-6830000D03*
X60320000Y-6830000D03*
D18*
X51680000Y-2650000D03*
%TD*%
D11*
%TO.C,REF\u002A\u002A*%
X89000000Y-88500000D03*
%TD*%
D10*
%TO.C,REF\u002A\u002A*%
X6901443Y-44416646D03*
%TD*%
%TO.C,REF\u002A\u002A*%
X105098896Y-7416687D03*
%TD*%
%TO.C,REF\u002A\u002A*%
X25098557Y-27583353D03*
%TD*%
%TO.C,REF\u002A\u002A*%
X46901612Y-80583312D03*
%TD*%
%TO.C,REF\u002A\u002A*%
X105098896Y-25916687D03*
%TD*%
%TO.C,REF\u002A\u002A*%
X26901103Y-64583312D03*
%TD*%
%TO.C,REF\u002A\u002A*%
X105098557Y-64583353D03*
%TD*%
%TO.C,REF\u002A\u002A*%
X6901783Y-79749979D03*
%TD*%
%TO.C,REF\u002A\u002A*%
X26901103Y-27583312D03*
%TD*%
D22*
%TO.C,REF\u002A\u002A*%
X2500000Y-83000000D03*
%TD*%
D10*
%TO.C,REF\u002A\u002A*%
X85098217Y-84750020D03*
%TD*%
D15*
%TO.C,J1*%
X33110000Y-43300000D03*
X38890000Y-43300000D03*
D16*
X39250000Y-44745000D03*
X38450000Y-44745000D03*
D17*
X37250000Y-44745000D03*
X36250000Y-44745000D03*
X35750000Y-44745000D03*
X34750000Y-44745000D03*
D16*
X33550000Y-44745000D03*
X32750000Y-44745000D03*
X32750000Y-44745000D03*
X33550000Y-44745000D03*
D17*
X34250000Y-44745000D03*
X35250000Y-44745000D03*
X36750000Y-44745000D03*
X37750000Y-44745000D03*
D16*
X38450000Y-44745000D03*
X39250000Y-44745000D03*
D18*
X31680000Y-39650000D03*
X40320000Y-39650000D03*
D19*
X31680000Y-43830000D03*
X40320000Y-43830000D03*
%TD*%
D11*
%TO.C,REF\u002A\u002A*%
X49000000Y-88500000D03*
%TD*%
D15*
%TO.C,J1*%
X73110000Y-80300000D03*
X78890000Y-80300000D03*
D16*
X79250000Y-81745000D03*
X78450000Y-81745000D03*
D17*
X77250000Y-81745000D03*
X76250000Y-81745000D03*
X75750000Y-81745000D03*
X74750000Y-81745000D03*
D16*
X73550000Y-81745000D03*
X72750000Y-81745000D03*
X72750000Y-81745000D03*
X73550000Y-81745000D03*
D17*
X74250000Y-81745000D03*
X75250000Y-81745000D03*
X76750000Y-81745000D03*
X77750000Y-81745000D03*
D16*
X78450000Y-81745000D03*
X79250000Y-81745000D03*
D19*
X71680000Y-80830000D03*
D18*
X80320000Y-76650000D03*
D19*
X80320000Y-80830000D03*
D18*
X71680000Y-76650000D03*
%TD*%
D10*
%TO.C,REF\u002A\u002A*%
X26901273Y-45249979D03*
%TD*%
D23*
%TO.C,J2*%
X54500000Y-85500000D03*
X55500000Y-85500000D03*
X56500000Y-85500000D03*
X57500000Y-85500000D03*
D24*
X53200000Y-89375000D03*
X58800000Y-89375000D03*
%TD*%
D11*
%TO.C,REF\u002A\u002A*%
X9000000Y-14500000D03*
%TD*%
D21*
%TO.C,R1*%
X41500000Y-8775000D03*
X41500000Y-10425000D03*
%TD*%
D10*
%TO.C,REF\u002A\u002A*%
X105098726Y-26750020D03*
%TD*%
D14*
%TO.C,R2*%
X42900000Y-47425000D03*
X42900000Y-45775000D03*
%TD*%
D15*
%TO.C,J1*%
X38890000Y-61800000D03*
X33110000Y-61800000D03*
D16*
X39250000Y-63245000D03*
X38450000Y-63245000D03*
D17*
X37250000Y-63245000D03*
X36250000Y-63245000D03*
X35750000Y-63245000D03*
X34750000Y-63245000D03*
D16*
X33550000Y-63245000D03*
X32750000Y-63245000D03*
X32750000Y-63245000D03*
X33550000Y-63245000D03*
D17*
X34250000Y-63245000D03*
X35250000Y-63245000D03*
X36750000Y-63245000D03*
X37750000Y-63245000D03*
D16*
X38450000Y-63245000D03*
X39250000Y-63245000D03*
D19*
X31680000Y-62330000D03*
D18*
X40320000Y-58150000D03*
X31680000Y-58150000D03*
D19*
X40320000Y-62330000D03*
%TD*%
D10*
%TO.C,REF\u002A\u002A*%
X6901783Y-42749979D03*
%TD*%
%TO.C,REF\u002A\u002A*%
X26901782Y-79749979D03*
%TD*%
D11*
%TO.C,REF\u002A\u002A*%
X63000000Y-70000000D03*
%TD*%
D10*
%TO.C,REF\u002A\u002A*%
X105098557Y-27583353D03*
%TD*%
%TO.C,REF\u002A\u002A*%
X26901273Y-63749979D03*
%TD*%
D14*
%TO.C,R2*%
X22900000Y-65925000D03*
X22900000Y-64275000D03*
%TD*%
D10*
%TO.C,REF\u002A\u002A*%
X66901103Y-64583312D03*
%TD*%
D15*
%TO.C,J1*%
X18890000Y-80300000D03*
X13110000Y-80300000D03*
D16*
X19250000Y-81745000D03*
X18450000Y-81745000D03*
D17*
X17250000Y-81745000D03*
X16250000Y-81745000D03*
X15750000Y-81745000D03*
X14750000Y-81745000D03*
D16*
X13550000Y-81745000D03*
X12750000Y-81745000D03*
X12750000Y-81745000D03*
X13550000Y-81745000D03*
D17*
X14250000Y-81745000D03*
X15250000Y-81745000D03*
X16750000Y-81745000D03*
X17750000Y-81745000D03*
D16*
X18450000Y-81745000D03*
X19250000Y-81745000D03*
D19*
X11680000Y-80830000D03*
X20320000Y-80830000D03*
D18*
X11680000Y-76650000D03*
X20320000Y-76650000D03*
%TD*%
D10*
%TO.C,REF\u002A\u002A*%
X86901442Y-62916646D03*
%TD*%
%TO.C,REF\u002A\u002A*%
X86901273Y-26749979D03*
%TD*%
%TO.C,REF\u002A\u002A*%
X85098557Y-46083353D03*
%TD*%
D15*
%TO.C,J1*%
X98890000Y-80300000D03*
X93110000Y-80300000D03*
D16*
X99250000Y-81745000D03*
X98450000Y-81745000D03*
D17*
X97250000Y-81745000D03*
X96250000Y-81745000D03*
X95750000Y-81745000D03*
X94750000Y-81745000D03*
D16*
X93550000Y-81745000D03*
X92750000Y-81745000D03*
X92750000Y-81745000D03*
X93550000Y-81745000D03*
D17*
X94250000Y-81745000D03*
X95250000Y-81745000D03*
X96750000Y-81745000D03*
X97750000Y-81745000D03*
D16*
X98450000Y-81745000D03*
X99250000Y-81745000D03*
D19*
X91680000Y-80830000D03*
X100320000Y-80830000D03*
D18*
X91680000Y-76650000D03*
X100320000Y-76650000D03*
%TD*%
D12*
%TO.C,U1*%
X50137500Y-8750000D03*
D13*
X49600000Y-8675000D03*
D12*
X49062500Y-8750000D03*
X49062500Y-10450000D03*
D13*
X49600000Y-10525000D03*
D12*
X50137500Y-10450000D03*
%TD*%
D11*
%TO.C,REF\u002A\u002A*%
X29000000Y-76000000D03*
%TD*%
D10*
%TO.C,REF\u002A\u002A*%
X86901612Y-6583313D03*
%TD*%
%TO.C,REF\u002A\u002A*%
X6901613Y-25083312D03*
%TD*%
%TO.C,REF\u002A\u002A*%
X86901442Y-44416646D03*
%TD*%
D11*
%TO.C,REF\u002A\u002A*%
X89000000Y-33000000D03*
%TD*%
D10*
%TO.C,REF\u002A\u002A*%
X85098896Y-81416687D03*
%TD*%
D11*
%TO.C,REF\u002A\u002A*%
X43000000Y-2000000D03*
%TD*%
D10*
%TO.C,REF\u002A\u002A*%
X46900933Y-83916646D03*
%TD*%
D11*
%TO.C,REF\u002A\u002A*%
X43000000Y-57500000D03*
%TD*%
D10*
%TO.C,REF\u002A\u002A*%
X105098726Y-63750020D03*
%TD*%
D14*
%TO.C,R2*%
X42900000Y-84425000D03*
X42900000Y-82775000D03*
%TD*%
D10*
%TO.C,REF\u002A\u002A*%
X86901273Y-63749979D03*
%TD*%
%TO.C,REF\u002A\u002A*%
X86901103Y-9083312D03*
%TD*%
D12*
%TO.C,U1*%
X50137500Y-82750000D03*
D13*
X49600000Y-82675000D03*
D12*
X49062500Y-82750000D03*
X49062500Y-84450000D03*
D13*
X49600000Y-84525000D03*
D12*
X50137500Y-84450000D03*
%TD*%
D10*
%TO.C,REF\u002A\u002A*%
X66901612Y-43583312D03*
%TD*%
%TO.C,REF\u002A\u002A*%
X86901782Y-61249979D03*
%TD*%
%TO.C,REF\u002A\u002A*%
X46900933Y-9916646D03*
%TD*%
%TO.C,REF\u002A\u002A*%
X25099236Y-42750020D03*
%TD*%
%TO.C,REF\u002A\u002A*%
X45099236Y-24250020D03*
%TD*%
D14*
%TO.C,R2*%
X22900000Y-47425000D03*
X22900000Y-45775000D03*
%TD*%
D11*
%TO.C,REF\u002A\u002A*%
X43000000Y-51500000D03*
%TD*%
D23*
%TO.C,J2*%
X74500000Y-85500000D03*
X75500000Y-85500000D03*
X76500000Y-85500000D03*
X77500000Y-85500000D03*
D24*
X78800000Y-89375000D03*
X73200000Y-89375000D03*
%TD*%
D21*
%TO.C,R1*%
X81500000Y-27275000D03*
X81500000Y-28925000D03*
%TD*%
D10*
%TO.C,REF\u002A\u002A*%
X46901442Y-25916646D03*
%TD*%
D11*
%TO.C,REF\u002A\u002A*%
X83000000Y-57500000D03*
%TD*%
D10*
%TO.C,REF\u002A\u002A*%
X86901782Y-24249979D03*
%TD*%
%TO.C,REF\u002A\u002A*%
X85099066Y-62083353D03*
%TD*%
D11*
%TO.C,REF\u002A\u002A*%
X83000000Y-33000000D03*
%TD*%
D10*
%TO.C,REF\u002A\u002A*%
X25098726Y-82250020D03*
%TD*%
%TO.C,REF\u002A\u002A*%
X105098896Y-62916687D03*
%TD*%
D12*
%TO.C,U1*%
X70137500Y-82750000D03*
D13*
X69600000Y-82675000D03*
D12*
X69062500Y-82750000D03*
X69062500Y-84450000D03*
D13*
X69600000Y-84525000D03*
D12*
X70137500Y-84450000D03*
%TD*%
D11*
%TO.C,REF\u002A\u002A*%
X89000000Y-2000000D03*
%TD*%
D10*
%TO.C,REF\u002A\u002A*%
X26901442Y-25916646D03*
%TD*%
%TO.C,REF\u002A\u002A*%
X86901782Y-5749980D03*
%TD*%
%TO.C,REF\u002A\u002A*%
X86900763Y-84749979D03*
%TD*%
D23*
%TO.C,J2*%
X74500000Y-11500000D03*
X75500000Y-11500000D03*
X76500000Y-11500000D03*
X77500000Y-11500000D03*
D24*
X73200000Y-15375000D03*
X78800000Y-15375000D03*
%TD*%
D23*
%TO.C,J2*%
X94500000Y-67000000D03*
X95500000Y-67000000D03*
X96500000Y-67000000D03*
X97500000Y-67000000D03*
D24*
X98800000Y-70875000D03*
X93200000Y-70875000D03*
%TD*%
D10*
%TO.C,REF\u002A\u002A*%
X25098896Y-25916687D03*
%TD*%
D11*
%TO.C,REF\u002A\u002A*%
X63000000Y-33000000D03*
%TD*%
D12*
%TO.C,U1*%
X90137500Y-27250000D03*
D13*
X89600000Y-27175000D03*
D12*
X89062500Y-27250000D03*
X89062500Y-28950000D03*
D13*
X89600000Y-29025000D03*
D12*
X90137500Y-28950000D03*
%TD*%
D15*
%TO.C,J1*%
X93110000Y-61800000D03*
X98890000Y-61800000D03*
D16*
X99250000Y-63245000D03*
X98450000Y-63245000D03*
D17*
X97250000Y-63245000D03*
X96250000Y-63245000D03*
X95750000Y-63245000D03*
X94750000Y-63245000D03*
D16*
X93550000Y-63245000D03*
X92750000Y-63245000D03*
X92750000Y-63245000D03*
X93550000Y-63245000D03*
D17*
X94250000Y-63245000D03*
X95250000Y-63245000D03*
X96750000Y-63245000D03*
X97750000Y-63245000D03*
D16*
X98450000Y-63245000D03*
X99250000Y-63245000D03*
D19*
X100320000Y-62330000D03*
D18*
X100320000Y-58150000D03*
X91680000Y-58150000D03*
D19*
X91680000Y-62330000D03*
%TD*%
D10*
%TO.C,REF\u002A\u002A*%
X65098726Y-45250020D03*
%TD*%
%TO.C,REF\u002A\u002A*%
X65098557Y-83083353D03*
%TD*%
D11*
%TO.C,REF\u002A\u002A*%
X83000000Y-70000000D03*
%TD*%
D10*
%TO.C,REF\u002A\u002A*%
X65098726Y-82250020D03*
%TD*%
%TO.C,REF\u002A\u002A*%
X25099066Y-43583353D03*
%TD*%
%TO.C,REF\u002A\u002A*%
X26901103Y-83083312D03*
%TD*%
D15*
%TO.C,J1*%
X18890000Y-61800000D03*
X13110000Y-61800000D03*
D16*
X19250000Y-63245000D03*
X18450000Y-63245000D03*
D17*
X17250000Y-63245000D03*
X16250000Y-63245000D03*
X15750000Y-63245000D03*
X14750000Y-63245000D03*
D16*
X13550000Y-63245000D03*
X12750000Y-63245000D03*
X12750000Y-63245000D03*
X13550000Y-63245000D03*
D17*
X14250000Y-63245000D03*
X15250000Y-63245000D03*
X16750000Y-63245000D03*
X17750000Y-63245000D03*
D16*
X18450000Y-63245000D03*
X19250000Y-63245000D03*
D19*
X20320000Y-62330000D03*
D18*
X11680000Y-58150000D03*
X20320000Y-58150000D03*
D19*
X11680000Y-62330000D03*
%TD*%
D11*
%TO.C,REF\u002A\u002A*%
X69000000Y-2000000D03*
%TD*%
D10*
%TO.C,REF\u002A\u002A*%
X25098557Y-83083353D03*
%TD*%
%TO.C,REF\u002A\u002A*%
X46901782Y-79749979D03*
%TD*%
D11*
%TO.C,REF\u002A\u002A*%
X83000000Y-14500000D03*
%TD*%
D10*
%TO.C,REF\u002A\u002A*%
X66901273Y-63749979D03*
%TD*%
D12*
%TO.C,U1*%
X50137500Y-27250000D03*
D13*
X49600000Y-27175000D03*
D12*
X49062500Y-27250000D03*
X49062500Y-28950000D03*
D13*
X49600000Y-29025000D03*
D12*
X50137500Y-28950000D03*
%TD*%
D11*
%TO.C,REF\u002A\u002A*%
X63000000Y-39000000D03*
%TD*%
D10*
%TO.C,REF\u002A\u002A*%
X25098217Y-10750020D03*
%TD*%
D14*
%TO.C,R2*%
X42900000Y-28925000D03*
X42900000Y-27275000D03*
%TD*%
D11*
%TO.C,REF\u002A\u002A*%
X9000000Y-70000000D03*
%TD*%
D14*
%TO.C,R2*%
X42900000Y-65925000D03*
X42900000Y-64275000D03*
%TD*%
D10*
%TO.C,REF\u002A\u002A*%
X46901612Y-25083312D03*
%TD*%
D14*
%TO.C,R2*%
X102900000Y-47425000D03*
X102900000Y-45775000D03*
%TD*%
D10*
%TO.C,REF\u002A\u002A*%
X86900763Y-29249979D03*
%TD*%
D11*
%TO.C,REF\u002A\u002A*%
X103000000Y-14500000D03*
%TD*%
D15*
%TO.C,J1*%
X73110000Y-61800000D03*
X78890000Y-61800000D03*
D16*
X79250000Y-63245000D03*
X78450000Y-63245000D03*
D17*
X77250000Y-63245000D03*
X76250000Y-63245000D03*
X75750000Y-63245000D03*
X74750000Y-63245000D03*
D16*
X73550000Y-63245000D03*
X72750000Y-63245000D03*
X72750000Y-63245000D03*
X73550000Y-63245000D03*
D17*
X74250000Y-63245000D03*
X75250000Y-63245000D03*
X76750000Y-63245000D03*
X77750000Y-63245000D03*
D16*
X78450000Y-63245000D03*
X79250000Y-63245000D03*
D18*
X71680000Y-58150000D03*
D19*
X80320000Y-62330000D03*
X71680000Y-62330000D03*
D18*
X80320000Y-58150000D03*
%TD*%
D14*
%TO.C,R2*%
X62900000Y-28925000D03*
X62900000Y-27275000D03*
%TD*%
D10*
%TO.C,REF\u002A\u002A*%
X66900933Y-46916646D03*
%TD*%
D23*
%TO.C,J2*%
X14500000Y-67000000D03*
X15500000Y-67000000D03*
X16500000Y-67000000D03*
X17500000Y-67000000D03*
D24*
X13200000Y-70875000D03*
X18800000Y-70875000D03*
%TD*%
D10*
%TO.C,REF\u002A\u002A*%
X25098896Y-81416687D03*
%TD*%
%TO.C,REF\u002A\u002A*%
X86901782Y-42749979D03*
%TD*%
D11*
%TO.C,REF\u002A\u002A*%
X9000000Y-88500000D03*
%TD*%
D10*
%TO.C,REF\u002A\u002A*%
X85098726Y-45250020D03*
%TD*%
%TO.C,REF\u002A\u002A*%
X45098387Y-9916687D03*
%TD*%
%TO.C,REF\u002A\u002A*%
X85099236Y-79750020D03*
%TD*%
%TO.C,REF\u002A\u002A*%
X45099236Y-79750020D03*
%TD*%
%TO.C,REF\u002A\u002A*%
X86901103Y-64583312D03*
%TD*%
%TO.C,REF\u002A\u002A*%
X26901612Y-62083312D03*
%TD*%
%TO.C,REF\u002A\u002A*%
X46900763Y-29249979D03*
%TD*%
%TO.C,REF\u002A\u002A*%
X46901612Y-43583312D03*
%TD*%
%TO.C,REF\u002A\u002A*%
X6900764Y-66249979D03*
%TD*%
%TO.C,REF\u002A\u002A*%
X65099066Y-6583354D03*
%TD*%
D15*
%TO.C,J1*%
X13110000Y-24800000D03*
X18890000Y-24800000D03*
D16*
X19250000Y-26245000D03*
X18450000Y-26245000D03*
D17*
X17250000Y-26245000D03*
X16250000Y-26245000D03*
X15750000Y-26245000D03*
X14750000Y-26245000D03*
D16*
X13550000Y-26245000D03*
X12750000Y-26245000D03*
X12750000Y-26245000D03*
X13550000Y-26245000D03*
D17*
X14250000Y-26245000D03*
X15250000Y-26245000D03*
X16750000Y-26245000D03*
X17750000Y-26245000D03*
D16*
X18450000Y-26245000D03*
X19250000Y-26245000D03*
D18*
X11680000Y-21150000D03*
D19*
X20320000Y-25330000D03*
X11680000Y-25330000D03*
D18*
X20320000Y-21150000D03*
%TD*%
D10*
%TO.C,REF\u002A\u002A*%
X105099236Y-24250020D03*
%TD*%
%TO.C,REF\u002A\u002A*%
X85098557Y-9083353D03*
%TD*%
%TO.C,REF\u002A\u002A*%
X65098387Y-9916687D03*
%TD*%
%TO.C,REF\u002A\u002A*%
X6900764Y-84749979D03*
%TD*%
D11*
%TO.C,REF\u002A\u002A*%
X89000000Y-76000000D03*
%TD*%
D10*
%TO.C,REF\u002A\u002A*%
X65098387Y-46916687D03*
%TD*%
%TO.C,REF\u002A\u002A*%
X45098387Y-28416687D03*
%TD*%
D15*
%TO.C,J1*%
X33110000Y-80300000D03*
X38890000Y-80300000D03*
D16*
X39250000Y-81745000D03*
X38450000Y-81745000D03*
D17*
X37250000Y-81745000D03*
X36250000Y-81745000D03*
X35750000Y-81745000D03*
X34750000Y-81745000D03*
D16*
X33550000Y-81745000D03*
X32750000Y-81745000D03*
X32750000Y-81745000D03*
X33550000Y-81745000D03*
D17*
X34250000Y-81745000D03*
X35250000Y-81745000D03*
X36750000Y-81745000D03*
X37750000Y-81745000D03*
D16*
X38450000Y-81745000D03*
X39250000Y-81745000D03*
D18*
X40320000Y-76650000D03*
D19*
X31680000Y-80830000D03*
D18*
X31680000Y-76650000D03*
D19*
X40320000Y-80830000D03*
%TD*%
D11*
%TO.C,REF\u002A\u002A*%
X49000000Y-14500000D03*
%TD*%
D10*
%TO.C,REF\u002A\u002A*%
X26900763Y-10749979D03*
%TD*%
D23*
%TO.C,J2*%
X54500000Y-67000000D03*
X55500000Y-67000000D03*
X56500000Y-67000000D03*
X57500000Y-67000000D03*
D24*
X53200000Y-70875000D03*
X58800000Y-70875000D03*
%TD*%
D12*
%TO.C,U1*%
X70137500Y-8750000D03*
D13*
X69600000Y-8675000D03*
D12*
X69062500Y-8750000D03*
X69062500Y-10450000D03*
D13*
X69600000Y-10525000D03*
D12*
X70137500Y-10450000D03*
%TD*%
D10*
%TO.C,REF\u002A\u002A*%
X25099066Y-25083353D03*
%TD*%
D21*
%TO.C,R1*%
X61500000Y-45775000D03*
X61500000Y-47425000D03*
%TD*%
D10*
%TO.C,REF\u002A\u002A*%
X26901782Y-61249979D03*
%TD*%
%TO.C,REF\u002A\u002A*%
X105098896Y-44416687D03*
%TD*%
%TO.C,REF\u002A\u002A*%
X86900933Y-28416646D03*
%TD*%
%TO.C,REF\u002A\u002A*%
X65098387Y-28416687D03*
%TD*%
%TO.C,REF\u002A\u002A*%
X46901103Y-64583312D03*
%TD*%
D23*
%TO.C,J2*%
X34500000Y-48500000D03*
X35500000Y-48500000D03*
X36500000Y-48500000D03*
X37500000Y-48500000D03*
D24*
X38800000Y-52375000D03*
X33200000Y-52375000D03*
%TD*%
D11*
%TO.C,REF\u002A\u002A*%
X63000000Y-51500000D03*
%TD*%
D12*
%TO.C,U1*%
X10137500Y-64250000D03*
D13*
X9600000Y-64175000D03*
D12*
X9062500Y-64250000D03*
X9062500Y-65950000D03*
D13*
X9600000Y-66025000D03*
D12*
X10137500Y-65950000D03*
%TD*%
D10*
%TO.C,REF\u002A\u002A*%
X25098896Y-44416687D03*
%TD*%
%TO.C,REF\u002A\u002A*%
X66901442Y-44416646D03*
%TD*%
%TO.C,REF\u002A\u002A*%
X105098557Y-46083353D03*
%TD*%
%TO.C,REF\u002A\u002A*%
X46900933Y-46916646D03*
%TD*%
D11*
%TO.C,REF\u002A\u002A*%
X9000000Y-2000000D03*
%TD*%
D10*
%TO.C,REF\u002A\u002A*%
X105099236Y-42750020D03*
%TD*%
D14*
%TO.C,R2*%
X42900000Y-10425000D03*
X42900000Y-8775000D03*
%TD*%
D10*
%TO.C,REF\u002A\u002A*%
X45098726Y-26750020D03*
%TD*%
%TO.C,REF\u002A\u002A*%
X25099236Y-79750020D03*
%TD*%
%TO.C,REF\u002A\u002A*%
X105098557Y-83083353D03*
%TD*%
D20*
%TO.C,REF\u002A\u002A*%
X2500000Y-2500000D03*
%TD*%
D14*
%TO.C,R2*%
X102900000Y-84425000D03*
X102900000Y-82775000D03*
%TD*%
D11*
%TO.C,REF\u002A\u002A*%
X23000000Y-33000000D03*
%TD*%
D10*
%TO.C,REF\u002A\u002A*%
X66900763Y-84749979D03*
%TD*%
D15*
%TO.C,J1*%
X13110000Y-43300000D03*
X18890000Y-43300000D03*
D16*
X19250000Y-44745000D03*
X18450000Y-44745000D03*
D17*
X17250000Y-44745000D03*
X16250000Y-44745000D03*
X15750000Y-44745000D03*
X14750000Y-44745000D03*
D16*
X13550000Y-44745000D03*
X12750000Y-44745000D03*
X12750000Y-44745000D03*
X13550000Y-44745000D03*
D17*
X14250000Y-44745000D03*
X15250000Y-44745000D03*
X16750000Y-44745000D03*
X17750000Y-44745000D03*
D16*
X18450000Y-44745000D03*
X19250000Y-44745000D03*
D18*
X20320000Y-39650000D03*
D19*
X11680000Y-43830000D03*
D18*
X11680000Y-39650000D03*
D19*
X20320000Y-43830000D03*
%TD*%
D10*
%TO.C,REF\u002A\u002A*%
X6901274Y-45249979D03*
%TD*%
%TO.C,REF\u002A\u002A*%
X105098387Y-83916687D03*
%TD*%
%TO.C,REF\u002A\u002A*%
X85099236Y-24250020D03*
%TD*%
%TO.C,REF\u002A\u002A*%
X85098896Y-25916687D03*
%TD*%
%TO.C,REF\u002A\u002A*%
X65098896Y-81416687D03*
%TD*%
D21*
%TO.C,R1*%
X41500000Y-27275000D03*
X41500000Y-28925000D03*
%TD*%
D10*
%TO.C,REF\u002A\u002A*%
X25099236Y-24250020D03*
%TD*%
D11*
%TO.C,REF\u002A\u002A*%
X103000000Y-2000000D03*
%TD*%
D14*
%TO.C,R2*%
X102900000Y-10425000D03*
X102900000Y-8775000D03*
%TD*%
D21*
%TO.C,R1*%
X101500000Y-82775000D03*
X101500000Y-84425000D03*
%TD*%
D10*
%TO.C,REF\u002A\u002A*%
X25098387Y-46916687D03*
%TD*%
D23*
%TO.C,J2*%
X14500000Y-30000000D03*
X15500000Y-30000000D03*
X16500000Y-30000000D03*
X17500000Y-30000000D03*
D24*
X18800000Y-33875000D03*
X13200000Y-33875000D03*
%TD*%
D10*
%TO.C,REF\u002A\u002A*%
X46901782Y-61249979D03*
%TD*%
D12*
%TO.C,U1*%
X10137500Y-82750000D03*
D13*
X9600000Y-82675000D03*
D12*
X9062500Y-82750000D03*
X9062500Y-84450000D03*
D13*
X9600000Y-84525000D03*
D12*
X10137500Y-84450000D03*
%TD*%
D10*
%TO.C,REF\u002A\u002A*%
X45098896Y-44416687D03*
%TD*%
%TO.C,REF\u002A\u002A*%
X85099066Y-6583354D03*
%TD*%
%TO.C,REF\u002A\u002A*%
X45098726Y-63750020D03*
%TD*%
%TO.C,REF\u002A\u002A*%
X25098726Y-63750020D03*
%TD*%
D21*
%TO.C,R1*%
X101500000Y-45775000D03*
X101500000Y-47425000D03*
%TD*%
D11*
%TO.C,REF\u002A\u002A*%
X69000000Y-70000000D03*
%TD*%
D23*
%TO.C,J2*%
X34500000Y-30000000D03*
X35500000Y-30000000D03*
X36500000Y-30000000D03*
X37500000Y-30000000D03*
D24*
X38800000Y-33875000D03*
X33200000Y-33875000D03*
%TD*%
D10*
%TO.C,REF\u002A\u002A*%
X45098896Y-62916687D03*
%TD*%
%TO.C,REF\u002A\u002A*%
X66901782Y-42749979D03*
%TD*%
D11*
%TO.C,REF\u002A\u002A*%
X103000000Y-33000000D03*
%TD*%
D14*
%TO.C,R2*%
X62900000Y-10425000D03*
X62900000Y-8775000D03*
%TD*%
D10*
%TO.C,REF\u002A\u002A*%
X46901782Y-5749980D03*
%TD*%
%TO.C,REF\u002A\u002A*%
X86901103Y-46083312D03*
%TD*%
D11*
%TO.C,REF\u002A\u002A*%
X83000000Y-88500000D03*
%TD*%
D10*
%TO.C,REF\u002A\u002A*%
X86901612Y-43583312D03*
%TD*%
D21*
%TO.C,R1*%
X61500000Y-64275000D03*
X61500000Y-65925000D03*
%TD*%
D10*
%TO.C,REF\u002A\u002A*%
X86901442Y-25916646D03*
%TD*%
D14*
%TO.C,R2*%
X82900000Y-28925000D03*
X82900000Y-27275000D03*
%TD*%
D11*
%TO.C,REF\u002A\u002A*%
X89000000Y-70000000D03*
%TD*%
D10*
%TO.C,REF\u002A\u002A*%
X6900934Y-83916646D03*
%TD*%
%TO.C,REF\u002A\u002A*%
X45099066Y-6583354D03*
%TD*%
D11*
%TO.C,REF\u002A\u002A*%
X43000000Y-33000000D03*
%TD*%
%TO.C,REF\u002A\u002A*%
X103000000Y-51500000D03*
%TD*%
D12*
%TO.C,U1*%
X50137500Y-45750000D03*
D13*
X49600000Y-45675000D03*
D12*
X49062500Y-45750000D03*
X49062500Y-47450000D03*
D13*
X49600000Y-47525000D03*
D12*
X50137500Y-47450000D03*
%TD*%
D10*
%TO.C,REF\u002A\u002A*%
X65098726Y-26750020D03*
%TD*%
%TO.C,REF\u002A\u002A*%
X26900933Y-65416646D03*
%TD*%
%TO.C,REF\u002A\u002A*%
X66901103Y-46083312D03*
%TD*%
%TO.C,REF\u002A\u002A*%
X26900763Y-66249979D03*
%TD*%
D11*
%TO.C,REF\u002A\u002A*%
X69000000Y-57500000D03*
%TD*%
D10*
%TO.C,REF\u002A\u002A*%
X105099066Y-43583353D03*
%TD*%
%TO.C,REF\u002A\u002A*%
X26901273Y-8249979D03*
%TD*%
%TO.C,REF\u002A\u002A*%
X46901103Y-9083312D03*
%TD*%
%TO.C,REF\u002A\u002A*%
X65098217Y-10750020D03*
%TD*%
%TO.C,REF\u002A\u002A*%
X86901273Y-8249979D03*
%TD*%
%TO.C,REF\u002A\u002A*%
X46901612Y-6583313D03*
%TD*%
%TO.C,REF\u002A\u002A*%
X25098896Y-62916687D03*
%TD*%
%TO.C,REF\u002A\u002A*%
X105098726Y-82250020D03*
%TD*%
%TO.C,REF\u002A\u002A*%
X105098217Y-47750020D03*
%TD*%
%TO.C,REF\u002A\u002A*%
X46901782Y-42749979D03*
%TD*%
%TO.C,REF\u002A\u002A*%
X6901104Y-64583312D03*
%TD*%
D11*
%TO.C,REF\u002A\u002A*%
X63000000Y-88500000D03*
%TD*%
D22*
%TO.C,REF\u002A\u002A*%
X2500000Y-7500000D03*
%TD*%
D10*
%TO.C,REF\u002A\u002A*%
X85098896Y-44416687D03*
%TD*%
%TO.C,REF\u002A\u002A*%
X46901442Y-7416646D03*
%TD*%
D11*
%TO.C,REF\u002A\u002A*%
X29000000Y-70000000D03*
%TD*%
D10*
%TO.C,REF\u002A\u002A*%
X86900933Y-46916646D03*
%TD*%
%TO.C,REF\u002A\u002A*%
X85098557Y-83083353D03*
%TD*%
D12*
%TO.C,U1*%
X30137500Y-45750000D03*
D13*
X29600000Y-45675000D03*
D12*
X29062500Y-45750000D03*
X29062500Y-47450000D03*
D13*
X29600000Y-47525000D03*
D12*
X30137500Y-47450000D03*
%TD*%
D20*
%TO.C,REF\u002A\u002A*%
X109500000Y-2500000D03*
%TD*%
D10*
%TO.C,REF\u002A\u002A*%
X85098726Y-63750020D03*
%TD*%
%TO.C,REF\u002A\u002A*%
X66901782Y-24249979D03*
%TD*%
%TO.C,REF\u002A\u002A*%
X25098387Y-9916687D03*
%TD*%
%TO.C,REF\u002A\u002A*%
X26901273Y-82249979D03*
%TD*%
D21*
%TO.C,R1*%
X41500000Y-64275000D03*
X41500000Y-65925000D03*
%TD*%
D10*
%TO.C,REF\u002A\u002A*%
X45098217Y-10750020D03*
%TD*%
%TO.C,REF\u002A\u002A*%
X86901442Y-81416646D03*
%TD*%
D11*
%TO.C,REF\u002A\u002A*%
X43000000Y-39000000D03*
%TD*%
D23*
%TO.C,J2*%
X74500000Y-67000000D03*
X75500000Y-67000000D03*
X76500000Y-67000000D03*
X77500000Y-67000000D03*
D24*
X73200000Y-70875000D03*
X78800000Y-70875000D03*
%TD*%
D11*
%TO.C,REF\u002A\u002A*%
X69000000Y-20500000D03*
%TD*%
D12*
%TO.C,U1*%
X30137500Y-27250000D03*
D13*
X29600000Y-27175000D03*
D12*
X29062500Y-27250000D03*
X29062500Y-28950000D03*
D13*
X29600000Y-29025000D03*
D12*
X30137500Y-28950000D03*
%TD*%
D10*
%TO.C,REF\u002A\u002A*%
X105099066Y-80583353D03*
%TD*%
%TO.C,REF\u002A\u002A*%
X85098387Y-46916687D03*
%TD*%
D11*
%TO.C,REF\u002A\u002A*%
X43000000Y-76000000D03*
%TD*%
D10*
%TO.C,REF\u002A\u002A*%
X26900933Y-28416646D03*
%TD*%
D23*
%TO.C,J2*%
X54500000Y-11500000D03*
X55500000Y-11500000D03*
X56500000Y-11500000D03*
X57500000Y-11500000D03*
D24*
X58800000Y-15375000D03*
X53200000Y-15375000D03*
%TD*%
D10*
%TO.C,REF\u002A\u002A*%
X86901612Y-62083312D03*
%TD*%
%TO.C,REF\u002A\u002A*%
X45098896Y-81416687D03*
%TD*%
D11*
%TO.C,REF\u002A\u002A*%
X83000000Y-51500000D03*
%TD*%
D10*
%TO.C,REF\u002A\u002A*%
X26901442Y-44416646D03*
%TD*%
%TO.C,REF\u002A\u002A*%
X26901782Y-5749980D03*
%TD*%
D23*
%TO.C,J2*%
X74500000Y-30000000D03*
X75500000Y-30000000D03*
X76500000Y-30000000D03*
X77500000Y-30000000D03*
D24*
X73200000Y-33875000D03*
X78800000Y-33875000D03*
%TD*%
D10*
%TO.C,REF\u002A\u002A*%
X65098896Y-44416687D03*
%TD*%
D12*
%TO.C,U1*%
X90137500Y-82750000D03*
D13*
X89600000Y-82675000D03*
D12*
X89062500Y-82750000D03*
X89062500Y-84450000D03*
D13*
X89600000Y-84525000D03*
D12*
X90137500Y-84450000D03*
%TD*%
D10*
%TO.C,REF\u002A\u002A*%
X6901613Y-80583312D03*
%TD*%
D11*
%TO.C,REF\u002A\u002A*%
X49000000Y-51500000D03*
%TD*%
%TO.C,REF\u002A\u002A*%
X23000000Y-2000000D03*
%TD*%
D10*
%TO.C,REF\u002A\u002A*%
X86901103Y-27583312D03*
%TD*%
D11*
%TO.C,REF\u002A\u002A*%
X69000000Y-51500000D03*
%TD*%
D10*
%TO.C,REF\u002A\u002A*%
X85098217Y-10750020D03*
%TD*%
%TO.C,REF\u002A\u002A*%
X46901273Y-63749979D03*
%TD*%
%TO.C,REF\u002A\u002A*%
X45098557Y-64583353D03*
%TD*%
%TO.C,REF\u002A\u002A*%
X26900933Y-83916646D03*
%TD*%
D11*
%TO.C,REF\u002A\u002A*%
X103000000Y-76000000D03*
%TD*%
D10*
%TO.C,REF\u002A\u002A*%
X45098557Y-83083353D03*
%TD*%
D11*
%TO.C,REF\u002A\u002A*%
X43000000Y-70000000D03*
%TD*%
D21*
%TO.C,R1*%
X101500000Y-64275000D03*
X101500000Y-65925000D03*
%TD*%
D10*
%TO.C,REF\u002A\u002A*%
X25099066Y-6583354D03*
%TD*%
%TO.C,REF\u002A\u002A*%
X85098726Y-8250020D03*
%TD*%
%TO.C,REF\u002A\u002A*%
X66900763Y-29249979D03*
%TD*%
%TO.C,REF\u002A\u002A*%
X85098217Y-47750020D03*
%TD*%
%TO.C,REF\u002A\u002A*%
X6900934Y-46916646D03*
%TD*%
%TO.C,REF\u002A\u002A*%
X65098217Y-47750020D03*
%TD*%
D11*
%TO.C,REF\u002A\u002A*%
X89000000Y-51500000D03*
%TD*%
D14*
%TO.C,R2*%
X62900000Y-47425000D03*
X62900000Y-45775000D03*
%TD*%
D10*
%TO.C,REF\u002A\u002A*%
X85099236Y-42750020D03*
%TD*%
D14*
%TO.C,R2*%
X62900000Y-84425000D03*
X62900000Y-82775000D03*
%TD*%
D10*
%TO.C,REF\u002A\u002A*%
X45098387Y-46916687D03*
%TD*%
%TO.C,REF\u002A\u002A*%
X85099236Y-61250020D03*
%TD*%
%TO.C,REF\u002A\u002A*%
X46901273Y-82249979D03*
%TD*%
%TO.C,REF\u002A\u002A*%
X85098896Y-7416687D03*
%TD*%
%TO.C,REF\u002A\u002A*%
X105099066Y-62083353D03*
%TD*%
D15*
%TO.C,J1*%
X13110000Y-6300000D03*
X18890000Y-6300000D03*
D16*
X19250000Y-7745000D03*
X18450000Y-7745000D03*
D17*
X17250000Y-7745000D03*
X16250000Y-7745000D03*
X15750000Y-7745000D03*
X14750000Y-7745000D03*
D16*
X13550000Y-7745000D03*
X12750000Y-7745000D03*
X12750000Y-7745000D03*
X13550000Y-7745000D03*
D17*
X14250000Y-7745000D03*
X15250000Y-7745000D03*
X16750000Y-7745000D03*
X17750000Y-7745000D03*
D16*
X18450000Y-7745000D03*
X19250000Y-7745000D03*
D18*
X11680000Y-2650000D03*
D19*
X20320000Y-6830000D03*
D18*
X20320000Y-2650000D03*
D19*
X11680000Y-6830000D03*
%TD*%
D23*
%TO.C,J2*%
X94500000Y-85500000D03*
X95500000Y-85500000D03*
X96500000Y-85500000D03*
X97500000Y-85500000D03*
D24*
X93200000Y-89375000D03*
X98800000Y-89375000D03*
%TD*%
D23*
%TO.C,J2*%
X94500000Y-11500000D03*
X95500000Y-11500000D03*
X96500000Y-11500000D03*
X97500000Y-11500000D03*
D24*
X98800000Y-15375000D03*
X93200000Y-15375000D03*
%TD*%
D10*
%TO.C,REF\u002A\u002A*%
X45098557Y-27583353D03*
%TD*%
%TO.C,REF\u002A\u002A*%
X86900933Y-65416646D03*
%TD*%
%TO.C,REF\u002A\u002A*%
X85099066Y-25083353D03*
%TD*%
D21*
%TO.C,R1*%
X21500000Y-82775000D03*
X21500000Y-84425000D03*
%TD*%
D15*
%TO.C,J1*%
X73110000Y-6300000D03*
X78890000Y-6300000D03*
D16*
X79250000Y-7745000D03*
X78450000Y-7745000D03*
D17*
X77250000Y-7745000D03*
X76250000Y-7745000D03*
X75750000Y-7745000D03*
X74750000Y-7745000D03*
D16*
X73550000Y-7745000D03*
X72750000Y-7745000D03*
X72750000Y-7745000D03*
X73550000Y-7745000D03*
D17*
X74250000Y-7745000D03*
X75250000Y-7745000D03*
X76750000Y-7745000D03*
X77750000Y-7745000D03*
D16*
X78450000Y-7745000D03*
X79250000Y-7745000D03*
D18*
X71680000Y-2650000D03*
D19*
X71680000Y-6830000D03*
D18*
X80320000Y-2650000D03*
D19*
X80320000Y-6830000D03*
%TD*%
D10*
%TO.C,REF\u002A\u002A*%
X46901273Y-8249979D03*
%TD*%
%TO.C,REF\u002A\u002A*%
X66901273Y-26749979D03*
%TD*%
%TO.C,REF\u002A\u002A*%
X66901612Y-6583313D03*
%TD*%
D21*
%TO.C,R1*%
X81500000Y-45775000D03*
X81500000Y-47425000D03*
%TD*%
D10*
%TO.C,REF\u002A\u002A*%
X66900763Y-10749979D03*
%TD*%
%TO.C,REF\u002A\u002A*%
X6901104Y-9083312D03*
%TD*%
%TO.C,REF\u002A\u002A*%
X26900763Y-84749979D03*
%TD*%
%TO.C,REF\u002A\u002A*%
X45098726Y-82250020D03*
%TD*%
%TO.C,REF\u002A\u002A*%
X85098387Y-83916687D03*
%TD*%
D11*
%TO.C,REF\u002A\u002A*%
X9000000Y-57500000D03*
%TD*%
D10*
%TO.C,REF\u002A\u002A*%
X46900763Y-66249979D03*
%TD*%
%TO.C,REF\u002A\u002A*%
X45098896Y-7416687D03*
%TD*%
%TO.C,REF\u002A\u002A*%
X65099066Y-43583353D03*
%TD*%
%TO.C,REF\u002A\u002A*%
X6901613Y-6583313D03*
%TD*%
D11*
%TO.C,REF\u002A\u002A*%
X83000000Y-39000000D03*
%TD*%
D10*
%TO.C,REF\u002A\u002A*%
X25098387Y-28416687D03*
%TD*%
%TO.C,REF\u002A\u002A*%
X65098217Y-84750020D03*
%TD*%
D11*
%TO.C,REF\u002A\u002A*%
X63000000Y-14500000D03*
%TD*%
D10*
%TO.C,REF\u002A\u002A*%
X6901274Y-8249979D03*
%TD*%
%TO.C,REF\u002A\u002A*%
X45099236Y-42750020D03*
%TD*%
%TO.C,REF\u002A\u002A*%
X66901442Y-7416646D03*
%TD*%
%TO.C,REF\u002A\u002A*%
X65099066Y-25083353D03*
%TD*%
D11*
%TO.C,REF\u002A\u002A*%
X103000000Y-20500000D03*
%TD*%
D10*
%TO.C,REF\u002A\u002A*%
X66901103Y-9083312D03*
%TD*%
D11*
%TO.C,REF\u002A\u002A*%
X69000000Y-39000000D03*
%TD*%
D10*
%TO.C,REF\u002A\u002A*%
X86901273Y-82249979D03*
%TD*%
%TO.C,REF\u002A\u002A*%
X46900933Y-28416646D03*
%TD*%
%TO.C,REF\u002A\u002A*%
X86901442Y-7416646D03*
%TD*%
%TO.C,REF\u002A\u002A*%
X26901442Y-62916646D03*
%TD*%
%TO.C,REF\u002A\u002A*%
X65099066Y-80583353D03*
%TD*%
%TO.C,REF\u002A\u002A*%
X65098387Y-65416687D03*
%TD*%
D21*
%TO.C,R1*%
X81500000Y-82775000D03*
X81500000Y-84425000D03*
%TD*%
D10*
%TO.C,REF\u002A\u002A*%
X45099236Y-61250020D03*
%TD*%
%TO.C,REF\u002A\u002A*%
X6901443Y-81416646D03*
%TD*%
%TO.C,REF\u002A\u002A*%
X25098387Y-65416687D03*
%TD*%
%TO.C,REF\u002A\u002A*%
X6901274Y-26749979D03*
%TD*%
D21*
%TO.C,R1*%
X61500000Y-8775000D03*
X61500000Y-10425000D03*
%TD*%
D10*
%TO.C,REF\u002A\u002A*%
X86900763Y-10749979D03*
%TD*%
%TO.C,REF\u002A\u002A*%
X45099066Y-80583353D03*
%TD*%
D15*
%TO.C,J1*%
X53110000Y-61800000D03*
X58890000Y-61800000D03*
D16*
X59250000Y-63245000D03*
X58450000Y-63245000D03*
D17*
X57250000Y-63245000D03*
X56250000Y-63245000D03*
X55750000Y-63245000D03*
X54750000Y-63245000D03*
D16*
X53550000Y-63245000D03*
X52750000Y-63245000D03*
X52750000Y-63245000D03*
X53550000Y-63245000D03*
D17*
X54250000Y-63245000D03*
X55250000Y-63245000D03*
X56750000Y-63245000D03*
X57750000Y-63245000D03*
D16*
X58450000Y-63245000D03*
X59250000Y-63245000D03*
D19*
X51680000Y-62330000D03*
X60320000Y-62330000D03*
D18*
X51680000Y-58150000D03*
X60320000Y-58150000D03*
%TD*%
D10*
%TO.C,REF\u002A\u002A*%
X45098217Y-84750020D03*
%TD*%
%TO.C,REF\u002A\u002A*%
X46901782Y-24249979D03*
%TD*%
%TO.C,REF\u002A\u002A*%
X45098217Y-47750020D03*
%TD*%
%TO.C,REF\u002A\u002A*%
X66901273Y-45249979D03*
%TD*%
%TO.C,REF\u002A\u002A*%
X85098217Y-29250020D03*
%TD*%
D11*
%TO.C,REF\u002A\u002A*%
X49000000Y-20500000D03*
%TD*%
D10*
%TO.C,REF\u002A\u002A*%
X86900933Y-9916646D03*
%TD*%
%TO.C,REF\u002A\u002A*%
X105099066Y-6583354D03*
%TD*%
D23*
%TO.C,J2*%
X14500000Y-48500000D03*
X15500000Y-48500000D03*
X16500000Y-48500000D03*
X17500000Y-48500000D03*
D24*
X18800000Y-52375000D03*
X13200000Y-52375000D03*
%TD*%
D10*
%TO.C,REF\u002A\u002A*%
X85099236Y-5750021D03*
%TD*%
D23*
%TO.C,J2*%
X14500000Y-85500000D03*
X15500000Y-85500000D03*
X16500000Y-85500000D03*
X17500000Y-85500000D03*
D24*
X18800000Y-89375000D03*
X13200000Y-89375000D03*
%TD*%
D10*
%TO.C,REF\u002A\u002A*%
X85098557Y-64583353D03*
%TD*%
D11*
%TO.C,REF\u002A\u002A*%
X9000000Y-33000000D03*
%TD*%
D10*
%TO.C,REF\u002A\u002A*%
X45099236Y-5750021D03*
%TD*%
D14*
%TO.C,R2*%
X62900000Y-65925000D03*
X62900000Y-64275000D03*
%TD*%
D10*
%TO.C,REF\u002A\u002A*%
X65098726Y-8250020D03*
%TD*%
%TO.C,REF\u002A\u002A*%
X46901273Y-26749979D03*
%TD*%
%TO.C,REF\u002A\u002A*%
X65099236Y-61250020D03*
%TD*%
%TO.C,REF\u002A\u002A*%
X65098557Y-9083353D03*
%TD*%
%TO.C,REF\u002A\u002A*%
X26900763Y-29249979D03*
%TD*%
%TO.C,REF\u002A\u002A*%
X45098557Y-46083353D03*
%TD*%
D11*
%TO.C,REF\u002A\u002A*%
X9000000Y-76000000D03*
%TD*%
D10*
%TO.C,REF\u002A\u002A*%
X105099236Y-5750021D03*
%TD*%
D12*
%TO.C,U1*%
X30137500Y-82750000D03*
D13*
X29600000Y-82675000D03*
D12*
X29062500Y-82750000D03*
X29062500Y-84450000D03*
D13*
X29600000Y-84525000D03*
D12*
X30137500Y-84450000D03*
%TD*%
D10*
%TO.C,REF\u002A\u002A*%
X66901612Y-62083312D03*
%TD*%
D11*
%TO.C,REF\u002A\u002A*%
X49000000Y-39000000D03*
%TD*%
D10*
%TO.C,REF\u002A\u002A*%
X6900934Y-65416646D03*
%TD*%
%TO.C,REF\u002A\u002A*%
X45099066Y-25083353D03*
%TD*%
%TO.C,REF\u002A\u002A*%
X86900763Y-66249979D03*
%TD*%
D12*
%TO.C,U1*%
X10137500Y-45750000D03*
D13*
X9600000Y-45675000D03*
D12*
X9062500Y-45750000D03*
X9062500Y-47450000D03*
D13*
X9600000Y-47525000D03*
D12*
X10137500Y-47450000D03*
%TD*%
D10*
%TO.C,REF\u002A\u002A*%
X66901442Y-81416646D03*
%TD*%
%TO.C,REF\u002A\u002A*%
X105098217Y-10750020D03*
%TD*%
D23*
%TO.C,J2*%
X34500000Y-11500000D03*
X35500000Y-11500000D03*
X36500000Y-11500000D03*
X37500000Y-11500000D03*
D24*
X33200000Y-15375000D03*
X38800000Y-15375000D03*
%TD*%
D23*
%TO.C,J2*%
X34500000Y-67000000D03*
X35500000Y-67000000D03*
X36500000Y-67000000D03*
X37500000Y-67000000D03*
D24*
X33200000Y-70875000D03*
X38800000Y-70875000D03*
%TD*%
D10*
%TO.C,REF\u002A\u002A*%
X6901104Y-83083312D03*
%TD*%
D23*
%TO.C,J2*%
X14500000Y-11500000D03*
X15500000Y-11500000D03*
X16500000Y-11500000D03*
X17500000Y-11500000D03*
D24*
X13200000Y-15375000D03*
X18800000Y-15375000D03*
%TD*%
D10*
%TO.C,REF\u002A\u002A*%
X25098726Y-26750020D03*
%TD*%
%TO.C,REF\u002A\u002A*%
X85099066Y-43583353D03*
%TD*%
D12*
%TO.C,U1*%
X30137500Y-8750000D03*
D13*
X29600000Y-8675000D03*
D12*
X29062500Y-8750000D03*
X29062500Y-10450000D03*
D13*
X29600000Y-10525000D03*
D12*
X30137500Y-10450000D03*
%TD*%
D11*
%TO.C,REF\u002A\u002A*%
X89000000Y-20500000D03*
%TD*%
D21*
%TO.C,R1*%
X21500000Y-45775000D03*
X21500000Y-47425000D03*
%TD*%
D10*
%TO.C,REF\u002A\u002A*%
X86900763Y-47749979D03*
%TD*%
%TO.C,REF\u002A\u002A*%
X26901612Y-43583312D03*
%TD*%
D15*
%TO.C,J1*%
X78890000Y-24800000D03*
X73110000Y-24800000D03*
D16*
X79250000Y-26245000D03*
X78450000Y-26245000D03*
D17*
X77250000Y-26245000D03*
X76250000Y-26245000D03*
X75750000Y-26245000D03*
X74750000Y-26245000D03*
D16*
X73550000Y-26245000D03*
X72750000Y-26245000D03*
X72750000Y-26245000D03*
X73550000Y-26245000D03*
D17*
X74250000Y-26245000D03*
X75250000Y-26245000D03*
X76750000Y-26245000D03*
X77750000Y-26245000D03*
D16*
X78450000Y-26245000D03*
X79250000Y-26245000D03*
D19*
X80320000Y-25330000D03*
X71680000Y-25330000D03*
D18*
X71680000Y-21150000D03*
X80320000Y-21150000D03*
%TD*%
D11*
%TO.C,REF\u002A\u002A*%
X89000000Y-57500000D03*
%TD*%
D23*
%TO.C,J2*%
X54500000Y-48500000D03*
X55500000Y-48500000D03*
X56500000Y-48500000D03*
X57500000Y-48500000D03*
D24*
X53200000Y-52375000D03*
X58800000Y-52375000D03*
%TD*%
D11*
%TO.C,REF\u002A\u002A*%
X63000000Y-57500000D03*
%TD*%
D21*
%TO.C,R1*%
X81500000Y-64275000D03*
X81500000Y-65925000D03*
%TD*%
D10*
%TO.C,REF\u002A\u002A*%
X66901612Y-80583312D03*
%TD*%
D11*
%TO.C,REF\u002A\u002A*%
X9000000Y-39000000D03*
%TD*%
D10*
%TO.C,REF\u002A\u002A*%
X85098387Y-9916687D03*
%TD*%
%TO.C,REF\u002A\u002A*%
X25099236Y-61250020D03*
%TD*%
D14*
%TO.C,R2*%
X82900000Y-65925000D03*
X82900000Y-64275000D03*
%TD*%
D11*
%TO.C,REF\u002A\u002A*%
X9000000Y-20500000D03*
%TD*%
D10*
%TO.C,REF\u002A\u002A*%
X86901782Y-79749979D03*
%TD*%
%TO.C,REF\u002A\u002A*%
X26901782Y-24249979D03*
%TD*%
D11*
%TO.C,REF\u002A\u002A*%
X23000000Y-51500000D03*
%TD*%
%TO.C,REF\u002A\u002A*%
X83000000Y-2000000D03*
%TD*%
D10*
%TO.C,REF\u002A\u002A*%
X65098557Y-27583353D03*
%TD*%
D21*
%TO.C,R1*%
X61500000Y-82775000D03*
X61500000Y-84425000D03*
%TD*%
D11*
%TO.C,REF\u002A\u002A*%
X69000000Y-76000000D03*
%TD*%
D15*
%TO.C,J1*%
X38890000Y-24800000D03*
X33110000Y-24800000D03*
D16*
X39250000Y-26245000D03*
X38450000Y-26245000D03*
D17*
X37250000Y-26245000D03*
X36250000Y-26245000D03*
X35750000Y-26245000D03*
X34750000Y-26245000D03*
D16*
X33550000Y-26245000D03*
X32750000Y-26245000D03*
X32750000Y-26245000D03*
X33550000Y-26245000D03*
D17*
X34250000Y-26245000D03*
X35250000Y-26245000D03*
X36750000Y-26245000D03*
X37750000Y-26245000D03*
D16*
X38450000Y-26245000D03*
X39250000Y-26245000D03*
D19*
X40320000Y-25330000D03*
D18*
X31680000Y-21150000D03*
D19*
X31680000Y-25330000D03*
D18*
X40320000Y-21150000D03*
%TD*%
D23*
%TO.C,J2*%
X94500000Y-48500000D03*
X95500000Y-48500000D03*
X96500000Y-48500000D03*
X97500000Y-48500000D03*
D24*
X93200000Y-52375000D03*
X98800000Y-52375000D03*
%TD*%
D10*
%TO.C,REF\u002A\u002A*%
X26901103Y-9083312D03*
%TD*%
%TO.C,REF\u002A\u002A*%
X45098726Y-8250020D03*
%TD*%
D14*
%TO.C,R2*%
X82900000Y-84425000D03*
X82900000Y-82775000D03*
%TD*%
D11*
%TO.C,REF\u002A\u002A*%
X29000000Y-39000000D03*
%TD*%
D10*
%TO.C,REF\u002A\u002A*%
X25098726Y-45250020D03*
%TD*%
%TO.C,REF\u002A\u002A*%
X45099066Y-62083353D03*
%TD*%
%TO.C,REF\u002A\u002A*%
X6901104Y-27583312D03*
%TD*%
%TO.C,REF\u002A\u002A*%
X105098557Y-9083353D03*
%TD*%
D15*
%TO.C,J1*%
X73110000Y-43300000D03*
X78890000Y-43300000D03*
D16*
X79250000Y-44745000D03*
X78450000Y-44745000D03*
D17*
X77250000Y-44745000D03*
X76250000Y-44745000D03*
X75750000Y-44745000D03*
X74750000Y-44745000D03*
D16*
X73550000Y-44745000D03*
X72750000Y-44745000D03*
X72750000Y-44745000D03*
X73550000Y-44745000D03*
D17*
X74250000Y-44745000D03*
X75250000Y-44745000D03*
X76750000Y-44745000D03*
X77750000Y-44745000D03*
D16*
X78450000Y-44745000D03*
X79250000Y-44745000D03*
D19*
X80320000Y-43830000D03*
D18*
X71680000Y-39650000D03*
D19*
X71680000Y-43830000D03*
D18*
X80320000Y-39650000D03*
%TD*%
D10*
%TO.C,REF\u002A\u002A*%
X46901442Y-44416646D03*
%TD*%
%TO.C,REF\u002A\u002A*%
X105098387Y-28416687D03*
%TD*%
D12*
%TO.C,U1*%
X10137500Y-8750000D03*
D13*
X9600000Y-8675000D03*
D12*
X9062500Y-8750000D03*
X9062500Y-10450000D03*
D13*
X9600000Y-10525000D03*
D12*
X10137500Y-10450000D03*
%TD*%
D10*
%TO.C,REF\u002A\u002A*%
X25099066Y-80583353D03*
%TD*%
%TO.C,REF\u002A\u002A*%
X45098896Y-25916687D03*
%TD*%
D11*
%TO.C,REF\u002A\u002A*%
X29000000Y-14500000D03*
%TD*%
D10*
%TO.C,REF\u002A\u002A*%
X25098217Y-29250020D03*
%TD*%
%TO.C,REF\u002A\u002A*%
X65099236Y-79750020D03*
%TD*%
%TO.C,REF\u002A\u002A*%
X85098896Y-62916687D03*
%TD*%
%TO.C,REF\u002A\u002A*%
X46901103Y-27583312D03*
%TD*%
D12*
%TO.C,U1*%
X30137500Y-64250000D03*
D13*
X29600000Y-64175000D03*
D12*
X29062500Y-64250000D03*
X29062500Y-65950000D03*
D13*
X29600000Y-66025000D03*
D12*
X30137500Y-65950000D03*
%TD*%
D11*
%TO.C,REF\u002A\u002A*%
X29000000Y-57500000D03*
%TD*%
%TO.C,REF\u002A\u002A*%
X9000000Y-51500000D03*
%TD*%
D10*
%TO.C,REF\u002A\u002A*%
X65099236Y-24250020D03*
%TD*%
%TO.C,REF\u002A\u002A*%
X25098387Y-83916687D03*
%TD*%
D11*
%TO.C,REF\u002A\u002A*%
X69000000Y-33000000D03*
%TD*%
D21*
%TO.C,R1*%
X61500000Y-27275000D03*
X61500000Y-28925000D03*
%TD*%
D11*
%TO.C,REF\u002A\u002A*%
X103000000Y-70000000D03*
%TD*%
D10*
%TO.C,REF\u002A\u002A*%
X46901612Y-62083312D03*
%TD*%
D11*
%TO.C,REF\u002A\u002A*%
X69000000Y-88500000D03*
%TD*%
D10*
%TO.C,REF\u002A\u002A*%
X45098387Y-83916687D03*
%TD*%
D21*
%TO.C,R1*%
X41500000Y-45775000D03*
X41500000Y-47425000D03*
%TD*%
D10*
%TO.C,REF\u002A\u002A*%
X46901103Y-83083312D03*
%TD*%
%TO.C,REF\u002A\u002A*%
X25098557Y-46083353D03*
%TD*%
%TO.C,REF\u002A\u002A*%
X26901442Y-81416646D03*
%TD*%
D14*
%TO.C,R2*%
X82900000Y-10425000D03*
X82900000Y-8775000D03*
%TD*%
D15*
%TO.C,J1*%
X53110000Y-43300000D03*
X58890000Y-43300000D03*
D16*
X59250000Y-44745000D03*
X58450000Y-44745000D03*
D17*
X57250000Y-44745000D03*
X56250000Y-44745000D03*
X55750000Y-44745000D03*
X54750000Y-44745000D03*
D16*
X53550000Y-44745000D03*
X52750000Y-44745000D03*
X52750000Y-44745000D03*
X53550000Y-44745000D03*
D17*
X54250000Y-44745000D03*
X55250000Y-44745000D03*
X56750000Y-44745000D03*
X57750000Y-44745000D03*
D16*
X58450000Y-44745000D03*
X59250000Y-44745000D03*
D18*
X51680000Y-39650000D03*
D19*
X51680000Y-43830000D03*
D18*
X60320000Y-39650000D03*
D19*
X60320000Y-43830000D03*
%TD*%
D10*
%TO.C,REF\u002A\u002A*%
X105098387Y-65416687D03*
%TD*%
%TO.C,REF\u002A\u002A*%
X66901273Y-82249979D03*
%TD*%
%TO.C,REF\u002A\u002A*%
X6901274Y-63749979D03*
%TD*%
D14*
%TO.C,R2*%
X102900000Y-65925000D03*
X102900000Y-64275000D03*
%TD*%
D10*
%TO.C,REF\u002A\u002A*%
X46900763Y-84749979D03*
%TD*%
D14*
%TO.C,R2*%
X22900000Y-84425000D03*
X22900000Y-82775000D03*
%TD*%
D23*
%TO.C,J2*%
X34500000Y-85500000D03*
X35500000Y-85500000D03*
X36500000Y-85500000D03*
X37500000Y-85500000D03*
D24*
X33200000Y-89375000D03*
X38800000Y-89375000D03*
%TD*%
D11*
%TO.C,REF\u002A\u002A*%
X103000000Y-88500000D03*
%TD*%
D10*
%TO.C,REF\u002A\u002A*%
X6901443Y-62916646D03*
%TD*%
%TO.C,REF\u002A\u002A*%
X26901612Y-6583313D03*
%TD*%
%TO.C,REF\u002A\u002A*%
X26901273Y-26749979D03*
%TD*%
%TO.C,REF\u002A\u002A*%
X85099066Y-80583353D03*
%TD*%
D11*
%TO.C,REF\u002A\u002A*%
X29000000Y-2000000D03*
%TD*%
D10*
%TO.C,REF\u002A\u002A*%
X86901612Y-25083312D03*
%TD*%
%TO.C,REF\u002A\u002A*%
X45098726Y-45250020D03*
%TD*%
%TO.C,REF\u002A\u002A*%
X6901443Y-25916646D03*
%TD*%
D23*
%TO.C,J2*%
X94500000Y-30000000D03*
X95500000Y-30000000D03*
X96500000Y-30000000D03*
X97500000Y-30000000D03*
D24*
X93200000Y-33875000D03*
X98800000Y-33875000D03*
%TD*%
D10*
%TO.C,REF\u002A\u002A*%
X66901442Y-62916646D03*
%TD*%
%TO.C,REF\u002A\u002A*%
X45099066Y-43583353D03*
%TD*%
D11*
%TO.C,REF\u002A\u002A*%
X49000000Y-2000000D03*
%TD*%
D10*
%TO.C,REF\u002A\u002A*%
X105098896Y-81416687D03*
%TD*%
%TO.C,REF\u002A\u002A*%
X6901104Y-46083312D03*
%TD*%
%TO.C,REF\u002A\u002A*%
X6901783Y-24249979D03*
%TD*%
%TO.C,REF\u002A\u002A*%
X65098726Y-63750020D03*
%TD*%
D11*
%TO.C,REF\u002A\u002A*%
X49000000Y-33000000D03*
%TD*%
%TO.C,REF\u002A\u002A*%
X23000000Y-14500000D03*
%TD*%
D10*
%TO.C,REF\u002A\u002A*%
X86901612Y-80583312D03*
%TD*%
%TO.C,REF\u002A\u002A*%
X86900933Y-83916646D03*
%TD*%
D11*
%TO.C,REF\u002A\u002A*%
X63000000Y-76000000D03*
%TD*%
D10*
%TO.C,REF\u002A\u002A*%
X6901783Y-5749980D03*
%TD*%
%TO.C,REF\u002A\u002A*%
X25099236Y-5750021D03*
%TD*%
D21*
%TO.C,R1*%
X41500000Y-82775000D03*
X41500000Y-84425000D03*
%TD*%
D10*
%TO.C,REF\u002A\u002A*%
X45098217Y-66250020D03*
%TD*%
%TO.C,REF\u002A\u002A*%
X6900764Y-47749979D03*
%TD*%
D11*
%TO.C,REF\u002A\u002A*%
X69000000Y-14500000D03*
%TD*%
D12*
%TO.C,U1*%
X70137500Y-27250000D03*
D13*
X69600000Y-27175000D03*
D12*
X69062500Y-27250000D03*
X69062500Y-28950000D03*
D13*
X69600000Y-29025000D03*
D12*
X70137500Y-28950000D03*
%TD*%
D10*
%TO.C,REF\u002A\u002A*%
X6901443Y-7416646D03*
%TD*%
%TO.C,REF\u002A\u002A*%
X86901273Y-45249979D03*
%TD*%
%TO.C,REF\u002A\u002A*%
X66900933Y-9916646D03*
%TD*%
D11*
%TO.C,REF\u002A\u002A*%
X43000000Y-20500000D03*
%TD*%
D10*
%TO.C,REF\u002A\u002A*%
X66901782Y-5749980D03*
%TD*%
D15*
%TO.C,J1*%
X58890000Y-80300000D03*
X53110000Y-80300000D03*
D16*
X59250000Y-81745000D03*
X58450000Y-81745000D03*
D17*
X57250000Y-81745000D03*
X56250000Y-81745000D03*
X55750000Y-81745000D03*
X54750000Y-81745000D03*
D16*
X53550000Y-81745000D03*
X52750000Y-81745000D03*
X52750000Y-81745000D03*
X53550000Y-81745000D03*
D17*
X54250000Y-81745000D03*
X55250000Y-81745000D03*
X56750000Y-81745000D03*
X57750000Y-81745000D03*
D16*
X58450000Y-81745000D03*
X59250000Y-81745000D03*
D19*
X60320000Y-80830000D03*
D18*
X51680000Y-76650000D03*
X60320000Y-76650000D03*
D19*
X51680000Y-80830000D03*
%TD*%
D10*
%TO.C,REF\u002A\u002A*%
X46900763Y-47749979D03*
%TD*%
%TO.C,REF\u002A\u002A*%
X25098557Y-9083353D03*
%TD*%
D15*
%TO.C,J1*%
X38890000Y-6300000D03*
X33110000Y-6300000D03*
D16*
X39250000Y-7745000D03*
X38450000Y-7745000D03*
D17*
X37250000Y-7745000D03*
X36250000Y-7745000D03*
X35750000Y-7745000D03*
X34750000Y-7745000D03*
D16*
X33550000Y-7745000D03*
X32750000Y-7745000D03*
X32750000Y-7745000D03*
X33550000Y-7745000D03*
D17*
X34250000Y-7745000D03*
X35250000Y-7745000D03*
X36750000Y-7745000D03*
X37750000Y-7745000D03*
D16*
X38450000Y-7745000D03*
X39250000Y-7745000D03*
D18*
X31680000Y-2650000D03*
X40320000Y-2650000D03*
D19*
X31680000Y-6830000D03*
X40320000Y-6830000D03*
%TD*%
D10*
%TO.C,REF\u002A\u002A*%
X6901783Y-61249979D03*
%TD*%
%TO.C,REF\u002A\u002A*%
X105099066Y-25083353D03*
%TD*%
%TO.C,REF\u002A\u002A*%
X66900933Y-28416646D03*
%TD*%
D11*
%TO.C,REF\u002A\u002A*%
X43000000Y-88500000D03*
%TD*%
D10*
%TO.C,REF\u002A\u002A*%
X85098726Y-82250020D03*
%TD*%
D15*
%TO.C,J1*%
X98890000Y-6300000D03*
X93110000Y-6300000D03*
D16*
X99250000Y-7745000D03*
X98450000Y-7745000D03*
D17*
X97250000Y-7745000D03*
X96250000Y-7745000D03*
X95750000Y-7745000D03*
X94750000Y-7745000D03*
D16*
X93550000Y-7745000D03*
X92750000Y-7745000D03*
X92750000Y-7745000D03*
X93550000Y-7745000D03*
D17*
X94250000Y-7745000D03*
X95250000Y-7745000D03*
X96750000Y-7745000D03*
X97750000Y-7745000D03*
D16*
X98450000Y-7745000D03*
X99250000Y-7745000D03*
D19*
X91680000Y-6830000D03*
D18*
X91680000Y-2650000D03*
X100320000Y-2650000D03*
D19*
X100320000Y-6830000D03*
%TD*%
D10*
%TO.C,REF\u002A\u002A*%
X66901103Y-83083312D03*
%TD*%
%TO.C,REF\u002A\u002A*%
X25098726Y-8250020D03*
%TD*%
D21*
%TO.C,R1*%
X21500000Y-8775000D03*
X21500000Y-10425000D03*
%TD*%
D10*
%TO.C,REF\u002A\u002A*%
X6901613Y-43583312D03*
%TD*%
%TO.C,REF\u002A\u002A*%
X26900763Y-47749979D03*
%TD*%
%TO.C,REF\u002A\u002A*%
X65099236Y-42750020D03*
%TD*%
D12*
%TO.C,U1*%
X50137500Y-64250000D03*
D13*
X49600000Y-64175000D03*
D12*
X49062500Y-64250000D03*
X49062500Y-65950000D03*
D13*
X49600000Y-66025000D03*
D12*
X50137500Y-65950000D03*
%TD*%
%TO.C,U1*%
X70137500Y-45750000D03*
D13*
X69600000Y-45675000D03*
D12*
X69062500Y-45750000D03*
X69062500Y-47450000D03*
D13*
X69600000Y-47525000D03*
D12*
X70137500Y-47450000D03*
%TD*%
D11*
%TO.C,REF\u002A\u002A*%
X63000000Y-2000000D03*
%TD*%
D23*
%TO.C,J2*%
X54500000Y-30000000D03*
X55500000Y-30000000D03*
X56500000Y-30000000D03*
X57500000Y-30000000D03*
D24*
X53200000Y-33875000D03*
X58800000Y-33875000D03*
%TD*%
D10*
%TO.C,REF\u002A\u002A*%
X26901103Y-46083312D03*
%TD*%
D11*
%TO.C,REF\u002A\u002A*%
X29000000Y-88500000D03*
%TD*%
D10*
%TO.C,REF\u002A\u002A*%
X26901782Y-42749979D03*
%TD*%
%TO.C,REF\u002A\u002A*%
X86901103Y-83083312D03*
%TD*%
%TO.C,REF\u002A\u002A*%
X6900764Y-29249979D03*
%TD*%
D21*
%TO.C,R1*%
X21500000Y-64275000D03*
X21500000Y-65925000D03*
%TD*%
D11*
%TO.C,REF\u002A\u002A*%
X103000000Y-39000000D03*
%TD*%
M02*
