M48
; DRILL file {KiCad (6.0.9)} date Thu Dec  8 00:33:02 2022
; FORMAT={-:-/ absolute / metric / decimal}
; #@! TF.CreationDate,2022-12-08T00:33:02+08:00
; #@! TF.GenerationSoftware,Kicad,Pcbnew,(6.0.9)
; #@! TF.FileFunction,Plated,1,2,PTH
FMAT,2
METRIC
; #@! TA.AperFunction,Plated,PTH,ViaDrill
T1C0.350
; #@! TA.AperFunction,Plated,PTH,ComponentDrill
T2C0.600
; #@! TA.AperFunction,Plated,PTH,ComponentDrill
T3C2.100
%
G90
G05
T1
X14.56Y-5.88
X14.56Y-24.38
X14.56Y-42.88
X14.56Y-61.38
X14.56Y-79.88
X15.66Y-4.78
X15.66Y-23.28
X15.66Y-41.78
X15.66Y-60.28
X15.66Y-78.78
X34.56Y-5.88
X34.56Y-24.38
X34.56Y-42.88
X34.56Y-61.38
X34.56Y-79.88
X35.66Y-4.78
X35.66Y-23.28
X35.66Y-41.78
X35.66Y-60.28
X35.66Y-78.78
X54.56Y-5.88
X54.56Y-24.38
X54.56Y-42.88
X54.56Y-61.38
X54.56Y-79.88
X55.66Y-4.78
X55.66Y-23.28
X55.66Y-41.78
X55.66Y-60.28
X55.66Y-78.78
X74.56Y-5.88
X74.56Y-24.38
X74.56Y-42.88
X74.56Y-61.38
X74.56Y-79.88
X75.66Y-4.78
X75.66Y-23.28
X75.66Y-41.78
X75.66Y-60.28
X75.66Y-78.78
X94.56Y-5.88
X94.56Y-24.38
X94.56Y-42.88
X94.56Y-61.38
X94.56Y-79.88
X95.66Y-4.78
X95.66Y-23.28
X95.66Y-41.78
X95.66Y-60.28
X95.66Y-78.78
T3
X9.0Y-2.0
X9.0Y-14.5
X9.0Y-20.5
X9.0Y-33.0
X9.0Y-39.0
X9.0Y-51.5
X9.0Y-57.5
X9.0Y-70.0
X9.0Y-76.0
X9.0Y-88.5
X23.0Y-2.0
X23.0Y-14.5
X23.0Y-20.5
X23.0Y-33.0
X23.0Y-39.0
X23.0Y-51.5
X23.0Y-57.5
X23.0Y-70.0
X23.0Y-76.0
X23.0Y-88.5
X29.0Y-2.0
X29.0Y-14.5
X29.0Y-20.5
X29.0Y-33.0
X29.0Y-39.0
X29.0Y-51.5
X29.0Y-57.5
X29.0Y-70.0
X29.0Y-76.0
X29.0Y-88.5
X43.0Y-2.0
X43.0Y-14.5
X43.0Y-20.5
X43.0Y-33.0
X43.0Y-39.0
X43.0Y-51.5
X43.0Y-57.5
X43.0Y-70.0
X43.0Y-76.0
X43.0Y-88.5
X49.0Y-2.0
X49.0Y-14.5
X49.0Y-20.5
X49.0Y-33.0
X49.0Y-39.0
X49.0Y-51.5
X49.0Y-57.5
X49.0Y-70.0
X49.0Y-76.0
X49.0Y-88.5
X63.0Y-2.0
X63.0Y-14.5
X63.0Y-20.5
X63.0Y-33.0
X63.0Y-39.0
X63.0Y-51.5
X63.0Y-57.5
X63.0Y-70.0
X63.0Y-76.0
X63.0Y-88.5
X69.0Y-2.0
X69.0Y-14.5
X69.0Y-20.5
X69.0Y-33.0
X69.0Y-39.0
X69.0Y-51.5
X69.0Y-57.5
X69.0Y-70.0
X69.0Y-76.0
X69.0Y-88.5
X83.0Y-2.0
X83.0Y-14.5
X83.0Y-20.5
X83.0Y-33.0
X83.0Y-39.0
X83.0Y-51.5
X83.0Y-57.5
X83.0Y-70.0
X83.0Y-76.0
X83.0Y-88.5
X89.0Y-2.0
X89.0Y-14.5
X89.0Y-20.5
X89.0Y-33.0
X89.0Y-39.0
X89.0Y-51.5
X89.0Y-57.5
X89.0Y-70.0
X89.0Y-76.0
X89.0Y-88.5
X103.0Y-2.0
X103.0Y-14.5
X103.0Y-20.5
X103.0Y-33.0
X103.0Y-39.0
X103.0Y-51.5
X103.0Y-57.5
X103.0Y-70.0
X103.0Y-76.0
X103.0Y-88.5
T2
G00X11.68Y-2.95
M15
G01X11.68Y-2.35
M16
G05
G00X11.68Y-7.38
M15
G01X11.68Y-6.28
M16
G05
G00X11.68Y-21.45
M15
G01X11.68Y-20.85
M16
G05
G00X11.68Y-25.88
M15
G01X11.68Y-24.78
M16
G05
G00X11.68Y-39.95
M15
G01X11.68Y-39.35
M16
G05
G00X11.68Y-44.38
M15
G01X11.68Y-43.28
M16
G05
G00X11.68Y-58.45
M15
G01X11.68Y-57.85
M16
G05
G00X11.68Y-62.88
M15
G01X11.68Y-61.78
M16
G05
G00X11.68Y-76.95
M15
G01X11.68Y-76.35
M16
G05
G00X11.68Y-81.38
M15
G01X11.68Y-80.28
M16
G05
G00X20.32Y-2.95
M15
G01X20.32Y-2.35
M16
G05
G00X20.32Y-7.38
M15
G01X20.32Y-6.28
M16
G05
G00X20.32Y-21.45
M15
G01X20.32Y-20.85
M16
G05
G00X20.32Y-25.88
M15
G01X20.32Y-24.78
M16
G05
G00X20.32Y-39.95
M15
G01X20.32Y-39.35
M16
G05
G00X20.32Y-44.38
M15
G01X20.32Y-43.28
M16
G05
G00X20.32Y-58.45
M15
G01X20.32Y-57.85
M16
G05
G00X20.32Y-62.88
M15
G01X20.32Y-61.78
M16
G05
G00X20.32Y-76.95
M15
G01X20.32Y-76.35
M16
G05
G00X20.32Y-81.38
M15
G01X20.32Y-80.28
M16
G05
G00X31.68Y-2.95
M15
G01X31.68Y-2.35
M16
G05
G00X31.68Y-7.38
M15
G01X31.68Y-6.28
M16
G05
G00X31.68Y-21.45
M15
G01X31.68Y-20.85
M16
G05
G00X31.68Y-25.88
M15
G01X31.68Y-24.78
M16
G05
G00X31.68Y-39.95
M15
G01X31.68Y-39.35
M16
G05
G00X31.68Y-44.38
M15
G01X31.68Y-43.28
M16
G05
G00X31.68Y-58.45
M15
G01X31.68Y-57.85
M16
G05
G00X31.68Y-62.88
M15
G01X31.68Y-61.78
M16
G05
G00X31.68Y-76.95
M15
G01X31.68Y-76.35
M16
G05
G00X31.68Y-81.38
M15
G01X31.68Y-80.28
M16
G05
G00X40.32Y-2.95
M15
G01X40.32Y-2.35
M16
G05
G00X40.32Y-7.38
M15
G01X40.32Y-6.28
M16
G05
G00X40.32Y-21.45
M15
G01X40.32Y-20.85
M16
G05
G00X40.32Y-25.88
M15
G01X40.32Y-24.78
M16
G05
G00X40.32Y-39.95
M15
G01X40.32Y-39.35
M16
G05
G00X40.32Y-44.38
M15
G01X40.32Y-43.28
M16
G05
G00X40.32Y-58.45
M15
G01X40.32Y-57.85
M16
G05
G00X40.32Y-62.88
M15
G01X40.32Y-61.78
M16
G05
G00X40.32Y-76.95
M15
G01X40.32Y-76.35
M16
G05
G00X40.32Y-81.38
M15
G01X40.32Y-80.28
M16
G05
G00X51.68Y-2.95
M15
G01X51.68Y-2.35
M16
G05
G00X51.68Y-7.38
M15
G01X51.68Y-6.28
M16
G05
G00X51.68Y-21.45
M15
G01X51.68Y-20.85
M16
G05
G00X51.68Y-25.88
M15
G01X51.68Y-24.78
M16
G05
G00X51.68Y-39.95
M15
G01X51.68Y-39.35
M16
G05
G00X51.68Y-44.38
M15
G01X51.68Y-43.28
M16
G05
G00X51.68Y-58.45
M15
G01X51.68Y-57.85
M16
G05
G00X51.68Y-62.88
M15
G01X51.68Y-61.78
M16
G05
G00X51.68Y-76.95
M15
G01X51.68Y-76.35
M16
G05
G00X51.68Y-81.38
M15
G01X51.68Y-80.28
M16
G05
G00X60.32Y-2.95
M15
G01X60.32Y-2.35
M16
G05
G00X60.32Y-7.38
M15
G01X60.32Y-6.28
M16
G05
G00X60.32Y-21.45
M15
G01X60.32Y-20.85
M16
G05
G00X60.32Y-25.88
M15
G01X60.32Y-24.78
M16
G05
G00X60.32Y-39.95
M15
G01X60.32Y-39.35
M16
G05
G00X60.32Y-44.38
M15
G01X60.32Y-43.28
M16
G05
G00X60.32Y-58.45
M15
G01X60.32Y-57.85
M16
G05
G00X60.32Y-62.88
M15
G01X60.32Y-61.78
M16
G05
G00X60.32Y-76.95
M15
G01X60.32Y-76.35
M16
G05
G00X60.32Y-81.38
M15
G01X60.32Y-80.28
M16
G05
G00X71.68Y-2.95
M15
G01X71.68Y-2.35
M16
G05
G00X71.68Y-7.38
M15
G01X71.68Y-6.28
M16
G05
G00X71.68Y-21.45
M15
G01X71.68Y-20.85
M16
G05
G00X71.68Y-25.88
M15
G01X71.68Y-24.78
M16
G05
G00X71.68Y-39.95
M15
G01X71.68Y-39.35
M16
G05
G00X71.68Y-44.38
M15
G01X71.68Y-43.28
M16
G05
G00X71.68Y-58.45
M15
G01X71.68Y-57.85
M16
G05
G00X71.68Y-62.88
M15
G01X71.68Y-61.78
M16
G05
G00X71.68Y-76.95
M15
G01X71.68Y-76.35
M16
G05
G00X71.68Y-81.38
M15
G01X71.68Y-80.28
M16
G05
G00X80.32Y-2.95
M15
G01X80.32Y-2.35
M16
G05
G00X80.32Y-7.38
M15
G01X80.32Y-6.28
M16
G05
G00X80.32Y-21.45
M15
G01X80.32Y-20.85
M16
G05
G00X80.32Y-25.88
M15
G01X80.32Y-24.78
M16
G05
G00X80.32Y-39.95
M15
G01X80.32Y-39.35
M16
G05
G00X80.32Y-44.38
M15
G01X80.32Y-43.28
M16
G05
G00X80.32Y-58.45
M15
G01X80.32Y-57.85
M16
G05
G00X80.32Y-62.88
M15
G01X80.32Y-61.78
M16
G05
G00X80.32Y-76.95
M15
G01X80.32Y-76.35
M16
G05
G00X80.32Y-81.38
M15
G01X80.32Y-80.28
M16
G05
G00X91.68Y-2.95
M15
G01X91.68Y-2.35
M16
G05
G00X91.68Y-7.38
M15
G01X91.68Y-6.28
M16
G05
G00X91.68Y-21.45
M15
G01X91.68Y-20.85
M16
G05
G00X91.68Y-25.88
M15
G01X91.68Y-24.78
M16
G05
G00X91.68Y-39.95
M15
G01X91.68Y-39.35
M16
G05
G00X91.68Y-44.38
M15
G01X91.68Y-43.28
M16
G05
G00X91.68Y-58.45
M15
G01X91.68Y-57.85
M16
G05
G00X91.68Y-62.88
M15
G01X91.68Y-61.78
M16
G05
G00X91.68Y-76.95
M15
G01X91.68Y-76.35
M16
G05
G00X91.68Y-81.38
M15
G01X91.68Y-80.28
M16
G05
G00X100.32Y-2.95
M15
G01X100.32Y-2.35
M16
G05
G00X100.32Y-7.38
M15
G01X100.32Y-6.28
M16
G05
G00X100.32Y-21.45
M15
G01X100.32Y-20.85
M16
G05
G00X100.32Y-25.88
M15
G01X100.32Y-24.78
M16
G05
G00X100.32Y-39.95
M15
G01X100.32Y-39.35
M16
G05
G00X100.32Y-44.38
M15
G01X100.32Y-43.28
M16
G05
G00X100.32Y-58.45
M15
G01X100.32Y-57.85
M16
G05
G00X100.32Y-62.88
M15
G01X100.32Y-61.78
M16
G05
G00X100.32Y-76.95
M15
G01X100.32Y-76.35
M16
G05
G00X100.32Y-81.38
M15
G01X100.32Y-80.28
M16
G05
T0
M30
