M48
; DRILL file {KiCad (6.0.9)} date Thu Dec  8 00:33:02 2022
; FORMAT={-:-/ absolute / metric / decimal}
; #@! TF.CreationDate,2022-12-08T00:33:02+08:00
; #@! TF.GenerationSoftware,Kicad,Pcbnew,(6.0.9)
; #@! TF.FileFunction,NonPlated,1,2,NPTH
FMAT,2
METRIC
; #@! TA.AperFunction,NonPlated,NPTH,ComponentDrill
T1C0.500
; #@! TA.AperFunction,NonPlated,NPTH,ComponentDrill
T2C0.650
; #@! TA.AperFunction,NonPlated,NPTH,ComponentDrill
T3C2.100
%
G90
G05
T1
X6.901Y-10.75
X6.901Y-29.25
X6.901Y-47.75
X6.901Y-66.25
X6.901Y-84.75
X6.901Y-9.917
X6.901Y-28.417
X6.901Y-46.917
X6.901Y-65.417
X6.901Y-83.917
X6.901Y-9.083
X6.901Y-27.583
X6.901Y-46.083
X6.901Y-64.583
X6.901Y-83.083
X6.901Y-8.25
X6.901Y-26.75
X6.901Y-45.25
X6.901Y-63.75
X6.901Y-82.25
X6.901Y-7.417
X6.901Y-25.917
X6.901Y-44.417
X6.901Y-62.917
X6.901Y-81.417
X6.902Y-6.583
X6.902Y-25.083
X6.902Y-43.583
X6.902Y-62.083
X6.902Y-80.583
X6.902Y-5.75
X6.902Y-24.25
X6.902Y-42.75
X6.902Y-61.25
X6.902Y-79.75
X25.098Y-10.75
X25.098Y-29.25
X25.098Y-47.75
X25.098Y-66.25
X25.098Y-84.75
X25.098Y-9.917
X25.098Y-28.417
X25.098Y-46.917
X25.098Y-65.417
X25.098Y-83.917
X25.099Y-9.083
X25.099Y-27.583
X25.099Y-46.083
X25.099Y-64.583
X25.099Y-83.083
X25.099Y-8.25
X25.099Y-26.75
X25.099Y-45.25
X25.099Y-63.75
X25.099Y-82.25
X25.099Y-7.417
X25.099Y-25.917
X25.099Y-44.417
X25.099Y-62.917
X25.099Y-81.417
X25.099Y-6.583
X25.099Y-25.083
X25.099Y-43.583
X25.099Y-62.083
X25.099Y-80.583
X25.099Y-5.75
X25.099Y-24.25
X25.099Y-42.75
X25.099Y-61.25
X25.099Y-79.75
X26.901Y-10.75
X26.901Y-29.25
X26.901Y-47.75
X26.901Y-66.25
X26.901Y-84.75
X26.901Y-9.917
X26.901Y-28.417
X26.901Y-46.917
X26.901Y-65.417
X26.901Y-83.917
X26.901Y-9.083
X26.901Y-27.583
X26.901Y-46.083
X26.901Y-64.583
X26.901Y-83.083
X26.901Y-8.25
X26.901Y-26.75
X26.901Y-45.25
X26.901Y-63.75
X26.901Y-82.25
X26.901Y-7.417
X26.901Y-25.917
X26.901Y-44.417
X26.901Y-62.917
X26.901Y-81.417
X26.902Y-6.583
X26.902Y-25.083
X26.902Y-43.583
X26.902Y-62.083
X26.902Y-80.583
X26.902Y-5.75
X26.902Y-24.25
X26.902Y-42.75
X26.902Y-61.25
X26.902Y-79.75
X45.098Y-10.75
X45.098Y-29.25
X45.098Y-47.75
X45.098Y-66.25
X45.098Y-84.75
X45.098Y-9.917
X45.098Y-28.417
X45.098Y-46.917
X45.098Y-65.417
X45.098Y-83.917
X45.099Y-9.083
X45.099Y-27.583
X45.099Y-46.083
X45.099Y-64.583
X45.099Y-83.083
X45.099Y-8.25
X45.099Y-26.75
X45.099Y-45.25
X45.099Y-63.75
X45.099Y-82.25
X45.099Y-7.417
X45.099Y-25.917
X45.099Y-44.417
X45.099Y-62.917
X45.099Y-81.417
X45.099Y-6.583
X45.099Y-25.083
X45.099Y-43.583
X45.099Y-62.083
X45.099Y-80.583
X45.099Y-5.75
X45.099Y-24.25
X45.099Y-42.75
X45.099Y-61.25
X45.099Y-79.75
X46.901Y-10.75
X46.901Y-29.25
X46.901Y-47.75
X46.901Y-66.25
X46.901Y-84.75
X46.901Y-9.917
X46.901Y-28.417
X46.901Y-46.917
X46.901Y-65.417
X46.901Y-83.917
X46.901Y-9.083
X46.901Y-27.583
X46.901Y-46.083
X46.901Y-64.583
X46.901Y-83.083
X46.901Y-8.25
X46.901Y-26.75
X46.901Y-45.25
X46.901Y-63.75
X46.901Y-82.25
X46.901Y-7.417
X46.901Y-25.917
X46.901Y-44.417
X46.901Y-62.917
X46.901Y-81.417
X46.902Y-6.583
X46.902Y-25.083
X46.902Y-43.583
X46.902Y-62.083
X46.902Y-80.583
X46.902Y-5.75
X46.902Y-24.25
X46.902Y-42.75
X46.902Y-61.25
X46.902Y-79.75
X65.098Y-10.75
X65.098Y-29.25
X65.098Y-47.75
X65.098Y-66.25
X65.098Y-84.75
X65.098Y-9.917
X65.098Y-28.417
X65.098Y-46.917
X65.098Y-65.417
X65.098Y-83.917
X65.099Y-9.083
X65.099Y-27.583
X65.099Y-46.083
X65.099Y-64.583
X65.099Y-83.083
X65.099Y-8.25
X65.099Y-26.75
X65.099Y-45.25
X65.099Y-63.75
X65.099Y-82.25
X65.099Y-7.417
X65.099Y-25.917
X65.099Y-44.417
X65.099Y-62.917
X65.099Y-81.417
X65.099Y-6.583
X65.099Y-25.083
X65.099Y-43.583
X65.099Y-62.083
X65.099Y-80.583
X65.099Y-5.75
X65.099Y-24.25
X65.099Y-42.75
X65.099Y-61.25
X65.099Y-79.75
X66.901Y-10.75
X66.901Y-29.25
X66.901Y-47.75
X66.901Y-66.25
X66.901Y-84.75
X66.901Y-9.917
X66.901Y-28.417
X66.901Y-46.917
X66.901Y-65.417
X66.901Y-83.917
X66.901Y-9.083
X66.901Y-27.583
X66.901Y-46.083
X66.901Y-64.583
X66.901Y-83.083
X66.901Y-8.25
X66.901Y-26.75
X66.901Y-45.25
X66.901Y-63.75
X66.901Y-82.25
X66.901Y-7.417
X66.901Y-25.917
X66.901Y-44.417
X66.901Y-62.917
X66.901Y-81.417
X66.902Y-6.583
X66.902Y-25.083
X66.902Y-43.583
X66.902Y-62.083
X66.902Y-80.583
X66.902Y-5.75
X66.902Y-24.25
X66.902Y-42.75
X66.902Y-61.25
X66.902Y-79.75
X85.098Y-10.75
X85.098Y-29.25
X85.098Y-47.75
X85.098Y-66.25
X85.098Y-84.75
X85.098Y-9.917
X85.098Y-28.417
X85.098Y-46.917
X85.098Y-65.417
X85.098Y-83.917
X85.099Y-9.083
X85.099Y-27.583
X85.099Y-46.083
X85.099Y-64.583
X85.099Y-83.083
X85.099Y-8.25
X85.099Y-26.75
X85.099Y-45.25
X85.099Y-63.75
X85.099Y-82.25
X85.099Y-7.417
X85.099Y-25.917
X85.099Y-44.417
X85.099Y-62.917
X85.099Y-81.417
X85.099Y-6.583
X85.099Y-25.083
X85.099Y-43.583
X85.099Y-62.083
X85.099Y-80.583
X85.099Y-5.75
X85.099Y-24.25
X85.099Y-42.75
X85.099Y-61.25
X85.099Y-79.75
X86.901Y-10.75
X86.901Y-29.25
X86.901Y-47.75
X86.901Y-66.25
X86.901Y-84.75
X86.901Y-9.917
X86.901Y-28.417
X86.901Y-46.917
X86.901Y-65.417
X86.901Y-83.917
X86.901Y-9.083
X86.901Y-27.583
X86.901Y-46.083
X86.901Y-64.583
X86.901Y-83.083
X86.901Y-8.25
X86.901Y-26.75
X86.901Y-45.25
X86.901Y-63.75
X86.901Y-82.25
X86.901Y-7.417
X86.901Y-25.917
X86.901Y-44.417
X86.901Y-62.917
X86.901Y-81.417
X86.902Y-6.583
X86.902Y-25.083
X86.902Y-43.583
X86.902Y-62.083
X86.902Y-80.583
X86.902Y-5.75
X86.902Y-24.25
X86.902Y-42.75
X86.902Y-61.25
X86.902Y-79.75
X105.098Y-10.75
X105.098Y-29.25
X105.098Y-47.75
X105.098Y-66.25
X105.098Y-84.75
X105.098Y-9.917
X105.098Y-28.417
X105.098Y-46.917
X105.098Y-65.417
X105.098Y-83.917
X105.099Y-9.083
X105.099Y-27.583
X105.099Y-46.083
X105.099Y-64.583
X105.099Y-83.083
X105.099Y-8.25
X105.099Y-26.75
X105.099Y-45.25
X105.099Y-63.75
X105.099Y-82.25
X105.099Y-7.417
X105.099Y-25.917
X105.099Y-44.417
X105.099Y-62.917
X105.099Y-81.417
X105.099Y-6.583
X105.099Y-25.083
X105.099Y-43.583
X105.099Y-62.083
X105.099Y-80.583
X105.099Y-5.75
X105.099Y-24.25
X105.099Y-42.75
X105.099Y-61.25
X105.099Y-79.75
T2
X13.11Y-6.3
X13.11Y-24.8
X13.11Y-43.3
X13.11Y-61.8
X13.11Y-80.3
X18.89Y-6.3
X18.89Y-24.8
X18.89Y-43.3
X18.89Y-61.8
X18.89Y-80.3
X33.11Y-6.3
X33.11Y-24.8
X33.11Y-43.3
X33.11Y-61.8
X33.11Y-80.3
X38.89Y-6.3
X38.89Y-24.8
X38.89Y-43.3
X38.89Y-61.8
X38.89Y-80.3
X53.11Y-6.3
X53.11Y-24.8
X53.11Y-43.3
X53.11Y-61.8
X53.11Y-80.3
X58.89Y-6.3
X58.89Y-24.8
X58.89Y-43.3
X58.89Y-61.8
X58.89Y-80.3
X73.11Y-6.3
X73.11Y-24.8
X73.11Y-43.3
X73.11Y-61.8
X73.11Y-80.3
X78.89Y-6.3
X78.89Y-24.8
X78.89Y-43.3
X78.89Y-61.8
X78.89Y-80.3
X93.11Y-6.3
X93.11Y-24.8
X93.11Y-43.3
X93.11Y-61.8
X93.11Y-80.3
X98.89Y-6.3
X98.89Y-24.8
X98.89Y-43.3
X98.89Y-61.8
X98.89Y-80.3
T3
X2.5Y-2.5
X2.5Y-88.0
X109.5Y-2.5
X109.5Y-88.0
T0
M30
