%TF.GenerationSoftware,KiCad,Pcbnew,(5.1.10)-1*%
%TF.CreationDate,2021-07-01T01:20:02+08:00*%
%TF.ProjectId,u1,75312e6b-6963-4616-945f-706362585858,rev?*%
%TF.SameCoordinates,Original*%
%TF.FileFunction,Soldermask,Bot*%
%TF.FilePolarity,Negative*%
%FSLAX46Y46*%
G04 Gerber Fmt 4.6, Leading zero omitted, Abs format (unit mm)*
G04 Created by KiCad (PCBNEW (5.1.10)-1) date 2021-07-01 01:20:02*
%MOMM*%
%LPD*%
G01*
G04 APERTURE LIST*
%ADD10C,0.010000*%
%ADD11O,1.200000X2.300000*%
%ADD12C,0.650000*%
%ADD13O,1.100000X1.800000*%
%ADD14C,3.800000*%
G04 APERTURE END LIST*
D10*
%TO.C,G\u002A\u002A\u002A*%
G36*
X111011067Y-99766681D02*
G01*
X110826497Y-99792614D01*
X110648454Y-99835541D01*
X110481125Y-99894248D01*
X110339273Y-99961679D01*
X110292174Y-99987874D01*
X110248848Y-100013327D01*
X110207549Y-100039538D01*
X110166531Y-100068010D01*
X110124049Y-100100244D01*
X110078357Y-100137742D01*
X110027709Y-100182006D01*
X109970360Y-100234537D01*
X109904564Y-100296838D01*
X109828576Y-100370410D01*
X109740649Y-100456754D01*
X109639039Y-100557372D01*
X109588819Y-100607277D01*
X109121228Y-101072261D01*
X109274064Y-101225321D01*
X109426899Y-101378381D01*
X109874427Y-100932965D01*
X109960999Y-100847207D01*
X110044834Y-100764935D01*
X110124116Y-100687878D01*
X110197029Y-100617765D01*
X110261758Y-100556329D01*
X110316487Y-100505297D01*
X110359400Y-100466401D01*
X110388682Y-100441369D01*
X110397000Y-100435039D01*
X110547628Y-100342609D01*
X110703625Y-100272560D01*
X110865793Y-100224636D01*
X111034934Y-100198584D01*
X111159001Y-100193225D01*
X111332645Y-100204438D01*
X111500555Y-100237558D01*
X111661105Y-100291806D01*
X111812669Y-100366402D01*
X111953621Y-100460567D01*
X112082336Y-100573521D01*
X112180046Y-100682648D01*
X112239446Y-100766101D01*
X112297731Y-100865006D01*
X112351130Y-100971876D01*
X112395875Y-101079225D01*
X112425877Y-101170954D01*
X112437311Y-101214154D01*
X112445627Y-101251497D01*
X112451316Y-101288071D01*
X112454870Y-101328959D01*
X112456779Y-101379247D01*
X112457534Y-101444019D01*
X112457639Y-101500000D01*
X112457395Y-101577774D01*
X112456337Y-101637544D01*
X112453974Y-101684395D01*
X112449815Y-101723413D01*
X112443369Y-101759682D01*
X112434145Y-101798287D01*
X112425877Y-101829045D01*
X112392274Y-101930330D01*
X112346589Y-102037944D01*
X112292592Y-102144400D01*
X112234051Y-102242213D01*
X112180046Y-102317351D01*
X112067233Y-102441859D01*
X111942570Y-102547753D01*
X111802837Y-102637638D01*
X111749129Y-102666125D01*
X111600007Y-102731434D01*
X111451408Y-102775746D01*
X111297867Y-102800363D01*
X111159000Y-102806774D01*
X110984564Y-102796031D01*
X110817673Y-102763623D01*
X110657471Y-102709276D01*
X110503101Y-102632719D01*
X110397000Y-102565034D01*
X110378301Y-102549484D01*
X110343951Y-102518144D01*
X110294563Y-102471616D01*
X110230751Y-102410501D01*
X110153130Y-102335399D01*
X110062312Y-102246911D01*
X109958913Y-102145639D01*
X109843544Y-102032183D01*
X109716821Y-101907144D01*
X109579357Y-101771123D01*
X109431765Y-101624722D01*
X109274660Y-101468540D01*
X109132773Y-101327223D01*
X108966016Y-101161007D01*
X108814714Y-101010252D01*
X108677965Y-100874121D01*
X108554865Y-100751777D01*
X108444513Y-100642382D01*
X108346006Y-100545100D01*
X108258442Y-100459094D01*
X108180918Y-100383525D01*
X108112532Y-100317558D01*
X108052382Y-100260354D01*
X107999564Y-100211077D01*
X107953177Y-100168890D01*
X107912318Y-100132956D01*
X107876085Y-100102437D01*
X107843576Y-100076496D01*
X107813887Y-100054296D01*
X107786116Y-100035000D01*
X107759362Y-100017772D01*
X107732721Y-100001772D01*
X107705292Y-99986166D01*
X107676171Y-99970115D01*
X107660728Y-99961679D01*
X107504602Y-99888295D01*
X107335550Y-99830447D01*
X107158604Y-99789160D01*
X106978801Y-99765459D01*
X106801174Y-99760371D01*
X106701509Y-99766316D01*
X106542504Y-99786479D01*
X106398586Y-99816273D01*
X106263094Y-99857578D01*
X106129364Y-99912272D01*
X106053338Y-99949157D01*
X105901806Y-100035450D01*
X105764497Y-100133561D01*
X105634318Y-100248659D01*
X105611753Y-100270919D01*
X105479221Y-100418387D01*
X105367344Y-100575175D01*
X105274868Y-100743317D01*
X105200538Y-100924845D01*
X105191279Y-100952135D01*
X105155021Y-101072802D01*
X105129666Y-101185713D01*
X105113898Y-101299253D01*
X105106402Y-101421807D01*
X105105325Y-101500000D01*
X105108643Y-101631583D01*
X105119472Y-101749308D01*
X105139127Y-101861559D01*
X105168926Y-101976722D01*
X105191279Y-102047864D01*
X105263106Y-102231482D01*
X105352899Y-102401421D01*
X105461912Y-102559715D01*
X105591401Y-102708396D01*
X105611753Y-102729080D01*
X105760002Y-102861720D01*
X105920332Y-102975550D01*
X106091012Y-103069934D01*
X106270310Y-103144239D01*
X106456495Y-103197831D01*
X106647836Y-103230076D01*
X106842600Y-103240340D01*
X106988934Y-103233318D01*
X107173504Y-103207385D01*
X107351547Y-103164458D01*
X107518876Y-103105751D01*
X107660728Y-103038320D01*
X107707827Y-103012125D01*
X107751153Y-102986673D01*
X107792452Y-102960461D01*
X107833470Y-102931989D01*
X107875952Y-102899755D01*
X107921644Y-102862257D01*
X107972292Y-102817993D01*
X108029641Y-102765462D01*
X108095437Y-102703161D01*
X108171425Y-102629590D01*
X108259352Y-102543245D01*
X108360962Y-102442627D01*
X108411182Y-102392723D01*
X108878773Y-101927738D01*
X108725935Y-101774676D01*
X108573097Y-101621615D01*
X108119799Y-102073375D01*
X108013035Y-102179545D01*
X107920744Y-102270676D01*
X107841243Y-102348224D01*
X107772847Y-102413647D01*
X107713871Y-102468400D01*
X107662631Y-102513940D01*
X107617442Y-102551724D01*
X107576620Y-102583207D01*
X107538480Y-102609847D01*
X107501337Y-102633099D01*
X107463507Y-102654420D01*
X107424046Y-102674894D01*
X107281647Y-102734369D01*
X107128297Y-102776208D01*
X106968286Y-102800122D01*
X106805904Y-102805822D01*
X106645443Y-102793017D01*
X106491193Y-102761417D01*
X106428312Y-102742139D01*
X106267486Y-102675526D01*
X106117630Y-102589286D01*
X105980694Y-102484777D01*
X105858622Y-102363359D01*
X105819955Y-102317351D01*
X105760555Y-102233898D01*
X105702270Y-102134993D01*
X105648871Y-102028123D01*
X105604126Y-101920774D01*
X105574124Y-101829045D01*
X105562690Y-101785846D01*
X105554374Y-101748502D01*
X105548685Y-101711928D01*
X105545131Y-101671040D01*
X105543222Y-101620752D01*
X105542467Y-101555980D01*
X105542362Y-101500000D01*
X105542606Y-101422226D01*
X105543664Y-101362455D01*
X105546027Y-101315604D01*
X105550186Y-101276586D01*
X105556632Y-101240317D01*
X105565856Y-101201712D01*
X105574124Y-101170954D01*
X105607727Y-101069669D01*
X105653412Y-100962055D01*
X105707409Y-100855599D01*
X105765950Y-100757786D01*
X105819955Y-100682648D01*
X105932768Y-100558140D01*
X106057431Y-100452246D01*
X106197164Y-100362361D01*
X106250872Y-100333875D01*
X106399994Y-100268565D01*
X106548593Y-100224253D01*
X106702134Y-100199637D01*
X106841000Y-100193225D01*
X107015471Y-100203973D01*
X107182398Y-100236396D01*
X107342622Y-100290759D01*
X107496982Y-100367330D01*
X107603000Y-100434988D01*
X107621672Y-100450520D01*
X107655989Y-100481833D01*
X107705332Y-100528320D01*
X107769079Y-100589374D01*
X107846611Y-100664386D01*
X107937307Y-100752750D01*
X108040546Y-100853857D01*
X108155708Y-100967101D01*
X108282172Y-101091873D01*
X108419318Y-101227567D01*
X108566525Y-101373574D01*
X108723173Y-101529288D01*
X108867228Y-101672753D01*
X109034006Y-101838981D01*
X109185329Y-101989747D01*
X109322099Y-102125890D01*
X109445219Y-102248245D01*
X109555590Y-102357651D01*
X109654116Y-102454945D01*
X109741697Y-102540962D01*
X109819238Y-102616542D01*
X109887640Y-102682519D01*
X109947805Y-102739732D01*
X110000635Y-102789017D01*
X110047034Y-102831212D01*
X110087903Y-102867154D01*
X110124144Y-102897679D01*
X110156661Y-102923625D01*
X110186354Y-102945829D01*
X110214127Y-102965128D01*
X110240882Y-102982358D01*
X110267522Y-102998357D01*
X110294947Y-103013963D01*
X110324062Y-103030011D01*
X110339273Y-103038320D01*
X110498138Y-103112906D01*
X110669802Y-103171167D01*
X110849940Y-103212268D01*
X111034224Y-103235373D01*
X111218330Y-103239647D01*
X111339664Y-103231534D01*
X111536558Y-103199364D01*
X111726752Y-103145393D01*
X111908832Y-103070300D01*
X112081384Y-102974760D01*
X112242996Y-102859453D01*
X112388248Y-102729080D01*
X112520780Y-102581612D01*
X112632657Y-102424824D01*
X112725133Y-102256683D01*
X112799463Y-102075154D01*
X112808722Y-102047864D01*
X112844980Y-101927197D01*
X112870335Y-101814286D01*
X112886103Y-101700747D01*
X112893599Y-101578193D01*
X112894676Y-101500000D01*
X112891358Y-101368416D01*
X112880529Y-101250692D01*
X112860874Y-101138440D01*
X112831075Y-101023277D01*
X112808722Y-100952135D01*
X112736895Y-100768517D01*
X112647102Y-100598578D01*
X112538089Y-100440284D01*
X112408600Y-100291603D01*
X112388248Y-100270919D01*
X112239999Y-100138279D01*
X112079669Y-100024449D01*
X111908989Y-99930065D01*
X111729691Y-99855760D01*
X111543506Y-99802168D01*
X111352165Y-99769923D01*
X111157401Y-99759659D01*
X111011067Y-99766681D01*
G37*
X111011067Y-99766681D02*
X110826497Y-99792614D01*
X110648454Y-99835541D01*
X110481125Y-99894248D01*
X110339273Y-99961679D01*
X110292174Y-99987874D01*
X110248848Y-100013327D01*
X110207549Y-100039538D01*
X110166531Y-100068010D01*
X110124049Y-100100244D01*
X110078357Y-100137742D01*
X110027709Y-100182006D01*
X109970360Y-100234537D01*
X109904564Y-100296838D01*
X109828576Y-100370410D01*
X109740649Y-100456754D01*
X109639039Y-100557372D01*
X109588819Y-100607277D01*
X109121228Y-101072261D01*
X109274064Y-101225321D01*
X109426899Y-101378381D01*
X109874427Y-100932965D01*
X109960999Y-100847207D01*
X110044834Y-100764935D01*
X110124116Y-100687878D01*
X110197029Y-100617765D01*
X110261758Y-100556329D01*
X110316487Y-100505297D01*
X110359400Y-100466401D01*
X110388682Y-100441369D01*
X110397000Y-100435039D01*
X110547628Y-100342609D01*
X110703625Y-100272560D01*
X110865793Y-100224636D01*
X111034934Y-100198584D01*
X111159001Y-100193225D01*
X111332645Y-100204438D01*
X111500555Y-100237558D01*
X111661105Y-100291806D01*
X111812669Y-100366402D01*
X111953621Y-100460567D01*
X112082336Y-100573521D01*
X112180046Y-100682648D01*
X112239446Y-100766101D01*
X112297731Y-100865006D01*
X112351130Y-100971876D01*
X112395875Y-101079225D01*
X112425877Y-101170954D01*
X112437311Y-101214154D01*
X112445627Y-101251497D01*
X112451316Y-101288071D01*
X112454870Y-101328959D01*
X112456779Y-101379247D01*
X112457534Y-101444019D01*
X112457639Y-101500000D01*
X112457395Y-101577774D01*
X112456337Y-101637544D01*
X112453974Y-101684395D01*
X112449815Y-101723413D01*
X112443369Y-101759682D01*
X112434145Y-101798287D01*
X112425877Y-101829045D01*
X112392274Y-101930330D01*
X112346589Y-102037944D01*
X112292592Y-102144400D01*
X112234051Y-102242213D01*
X112180046Y-102317351D01*
X112067233Y-102441859D01*
X111942570Y-102547753D01*
X111802837Y-102637638D01*
X111749129Y-102666125D01*
X111600007Y-102731434D01*
X111451408Y-102775746D01*
X111297867Y-102800363D01*
X111159000Y-102806774D01*
X110984564Y-102796031D01*
X110817673Y-102763623D01*
X110657471Y-102709276D01*
X110503101Y-102632719D01*
X110397000Y-102565034D01*
X110378301Y-102549484D01*
X110343951Y-102518144D01*
X110294563Y-102471616D01*
X110230751Y-102410501D01*
X110153130Y-102335399D01*
X110062312Y-102246911D01*
X109958913Y-102145639D01*
X109843544Y-102032183D01*
X109716821Y-101907144D01*
X109579357Y-101771123D01*
X109431765Y-101624722D01*
X109274660Y-101468540D01*
X109132773Y-101327223D01*
X108966016Y-101161007D01*
X108814714Y-101010252D01*
X108677965Y-100874121D01*
X108554865Y-100751777D01*
X108444513Y-100642382D01*
X108346006Y-100545100D01*
X108258442Y-100459094D01*
X108180918Y-100383525D01*
X108112532Y-100317558D01*
X108052382Y-100260354D01*
X107999564Y-100211077D01*
X107953177Y-100168890D01*
X107912318Y-100132956D01*
X107876085Y-100102437D01*
X107843576Y-100076496D01*
X107813887Y-100054296D01*
X107786116Y-100035000D01*
X107759362Y-100017772D01*
X107732721Y-100001772D01*
X107705292Y-99986166D01*
X107676171Y-99970115D01*
X107660728Y-99961679D01*
X107504602Y-99888295D01*
X107335550Y-99830447D01*
X107158604Y-99789160D01*
X106978801Y-99765459D01*
X106801174Y-99760371D01*
X106701509Y-99766316D01*
X106542504Y-99786479D01*
X106398586Y-99816273D01*
X106263094Y-99857578D01*
X106129364Y-99912272D01*
X106053338Y-99949157D01*
X105901806Y-100035450D01*
X105764497Y-100133561D01*
X105634318Y-100248659D01*
X105611753Y-100270919D01*
X105479221Y-100418387D01*
X105367344Y-100575175D01*
X105274868Y-100743317D01*
X105200538Y-100924845D01*
X105191279Y-100952135D01*
X105155021Y-101072802D01*
X105129666Y-101185713D01*
X105113898Y-101299253D01*
X105106402Y-101421807D01*
X105105325Y-101500000D01*
X105108643Y-101631583D01*
X105119472Y-101749308D01*
X105139127Y-101861559D01*
X105168926Y-101976722D01*
X105191279Y-102047864D01*
X105263106Y-102231482D01*
X105352899Y-102401421D01*
X105461912Y-102559715D01*
X105591401Y-102708396D01*
X105611753Y-102729080D01*
X105760002Y-102861720D01*
X105920332Y-102975550D01*
X106091012Y-103069934D01*
X106270310Y-103144239D01*
X106456495Y-103197831D01*
X106647836Y-103230076D01*
X106842600Y-103240340D01*
X106988934Y-103233318D01*
X107173504Y-103207385D01*
X107351547Y-103164458D01*
X107518876Y-103105751D01*
X107660728Y-103038320D01*
X107707827Y-103012125D01*
X107751153Y-102986673D01*
X107792452Y-102960461D01*
X107833470Y-102931989D01*
X107875952Y-102899755D01*
X107921644Y-102862257D01*
X107972292Y-102817993D01*
X108029641Y-102765462D01*
X108095437Y-102703161D01*
X108171425Y-102629590D01*
X108259352Y-102543245D01*
X108360962Y-102442627D01*
X108411182Y-102392723D01*
X108878773Y-101927738D01*
X108725935Y-101774676D01*
X108573097Y-101621615D01*
X108119799Y-102073375D01*
X108013035Y-102179545D01*
X107920744Y-102270676D01*
X107841243Y-102348224D01*
X107772847Y-102413647D01*
X107713871Y-102468400D01*
X107662631Y-102513940D01*
X107617442Y-102551724D01*
X107576620Y-102583207D01*
X107538480Y-102609847D01*
X107501337Y-102633099D01*
X107463507Y-102654420D01*
X107424046Y-102674894D01*
X107281647Y-102734369D01*
X107128297Y-102776208D01*
X106968286Y-102800122D01*
X106805904Y-102805822D01*
X106645443Y-102793017D01*
X106491193Y-102761417D01*
X106428312Y-102742139D01*
X106267486Y-102675526D01*
X106117630Y-102589286D01*
X105980694Y-102484777D01*
X105858622Y-102363359D01*
X105819955Y-102317351D01*
X105760555Y-102233898D01*
X105702270Y-102134993D01*
X105648871Y-102028123D01*
X105604126Y-101920774D01*
X105574124Y-101829045D01*
X105562690Y-101785846D01*
X105554374Y-101748502D01*
X105548685Y-101711928D01*
X105545131Y-101671040D01*
X105543222Y-101620752D01*
X105542467Y-101555980D01*
X105542362Y-101500000D01*
X105542606Y-101422226D01*
X105543664Y-101362455D01*
X105546027Y-101315604D01*
X105550186Y-101276586D01*
X105556632Y-101240317D01*
X105565856Y-101201712D01*
X105574124Y-101170954D01*
X105607727Y-101069669D01*
X105653412Y-100962055D01*
X105707409Y-100855599D01*
X105765950Y-100757786D01*
X105819955Y-100682648D01*
X105932768Y-100558140D01*
X106057431Y-100452246D01*
X106197164Y-100362361D01*
X106250872Y-100333875D01*
X106399994Y-100268565D01*
X106548593Y-100224253D01*
X106702134Y-100199637D01*
X106841000Y-100193225D01*
X107015471Y-100203973D01*
X107182398Y-100236396D01*
X107342622Y-100290759D01*
X107496982Y-100367330D01*
X107603000Y-100434988D01*
X107621672Y-100450520D01*
X107655989Y-100481833D01*
X107705332Y-100528320D01*
X107769079Y-100589374D01*
X107846611Y-100664386D01*
X107937307Y-100752750D01*
X108040546Y-100853857D01*
X108155708Y-100967101D01*
X108282172Y-101091873D01*
X108419318Y-101227567D01*
X108566525Y-101373574D01*
X108723173Y-101529288D01*
X108867228Y-101672753D01*
X109034006Y-101838981D01*
X109185329Y-101989747D01*
X109322099Y-102125890D01*
X109445219Y-102248245D01*
X109555590Y-102357651D01*
X109654116Y-102454945D01*
X109741697Y-102540962D01*
X109819238Y-102616542D01*
X109887640Y-102682519D01*
X109947805Y-102739732D01*
X110000635Y-102789017D01*
X110047034Y-102831212D01*
X110087903Y-102867154D01*
X110124144Y-102897679D01*
X110156661Y-102923625D01*
X110186354Y-102945829D01*
X110214127Y-102965128D01*
X110240882Y-102982358D01*
X110267522Y-102998357D01*
X110294947Y-103013963D01*
X110324062Y-103030011D01*
X110339273Y-103038320D01*
X110498138Y-103112906D01*
X110669802Y-103171167D01*
X110849940Y-103212268D01*
X111034224Y-103235373D01*
X111218330Y-103239647D01*
X111339664Y-103231534D01*
X111536558Y-103199364D01*
X111726752Y-103145393D01*
X111908832Y-103070300D01*
X112081384Y-102974760D01*
X112242996Y-102859453D01*
X112388248Y-102729080D01*
X112520780Y-102581612D01*
X112632657Y-102424824D01*
X112725133Y-102256683D01*
X112799463Y-102075154D01*
X112808722Y-102047864D01*
X112844980Y-101927197D01*
X112870335Y-101814286D01*
X112886103Y-101700747D01*
X112893599Y-101578193D01*
X112894676Y-101500000D01*
X112891358Y-101368416D01*
X112880529Y-101250692D01*
X112860874Y-101138440D01*
X112831075Y-101023277D01*
X112808722Y-100952135D01*
X112736895Y-100768517D01*
X112647102Y-100598578D01*
X112538089Y-100440284D01*
X112408600Y-100291603D01*
X112388248Y-100270919D01*
X112239999Y-100138279D01*
X112079669Y-100024449D01*
X111908989Y-99930065D01*
X111729691Y-99855760D01*
X111543506Y-99802168D01*
X111352165Y-99769923D01*
X111157401Y-99759659D01*
X111011067Y-99766681D01*
G36*
X110939637Y-102365909D02*
G01*
X111378364Y-102365909D01*
X111378364Y-100634091D01*
X110939637Y-100634091D01*
X110939637Y-102365909D01*
G37*
X110939637Y-102365909D02*
X111378364Y-102365909D01*
X111378364Y-100634091D01*
X110939637Y-100634091D01*
X110939637Y-102365909D01*
G36*
X106725344Y-100637122D02*
G01*
X106623673Y-100649320D01*
X106526958Y-100675134D01*
X106431137Y-100714291D01*
X106306755Y-100784833D01*
X106197823Y-100872105D01*
X106105448Y-100974813D01*
X106030739Y-101091660D01*
X105974802Y-101221351D01*
X105961481Y-101263838D01*
X105942931Y-101354400D01*
X105934132Y-101457180D01*
X105935086Y-101563464D01*
X105945791Y-101664540D01*
X105961481Y-101736161D01*
X106010392Y-101866124D01*
X106078386Y-101985340D01*
X106163432Y-102091888D01*
X106263501Y-102183843D01*
X106376562Y-102259282D01*
X106500585Y-102316282D01*
X106606598Y-102347372D01*
X106678517Y-102358489D01*
X106762949Y-102363898D01*
X106850644Y-102363563D01*
X106932358Y-102357450D01*
X106985319Y-102348797D01*
X107115786Y-102308520D01*
X107237617Y-102248220D01*
X107348594Y-102170021D01*
X107446502Y-102076043D01*
X107529125Y-101968410D01*
X107594247Y-101849244D01*
X107639122Y-101722674D01*
X107656134Y-101631464D01*
X107663530Y-101528514D01*
X107662930Y-101500000D01*
X107227773Y-101500000D01*
X107226906Y-101555525D01*
X107223312Y-101596127D01*
X107215505Y-101629939D01*
X107201997Y-101665096D01*
X107194590Y-101681522D01*
X107147699Y-101758236D01*
X107083994Y-101826388D01*
X107008721Y-101881583D01*
X106927124Y-101919427D01*
X106901793Y-101926842D01*
X106867692Y-101931923D01*
X106821001Y-101934541D01*
X106774563Y-101934202D01*
X106723853Y-101930007D01*
X106680964Y-101920448D01*
X106635286Y-101902646D01*
X106604892Y-101888181D01*
X106521677Y-101835598D01*
X106455714Y-101770545D01*
X106406993Y-101695890D01*
X106375507Y-101614502D01*
X106361245Y-101529249D01*
X106364201Y-101442999D01*
X106384364Y-101358621D01*
X106421726Y-101278983D01*
X106476278Y-101206954D01*
X106548012Y-101145402D01*
X106607269Y-101110663D01*
X106651839Y-101089488D01*
X106686332Y-101076578D01*
X106719666Y-101069928D01*
X106760757Y-101067531D01*
X106800032Y-101067314D01*
X106855710Y-101068565D01*
X106896821Y-101073009D01*
X106931827Y-101082187D01*
X106969193Y-101097640D01*
X106970917Y-101098439D01*
X107046852Y-101144113D01*
X107115528Y-101205090D01*
X107170826Y-101275347D01*
X107194590Y-101318478D01*
X107210820Y-101356483D01*
X107220750Y-101389860D01*
X107225866Y-101426741D01*
X107227656Y-101475261D01*
X107227773Y-101500000D01*
X107662930Y-101500000D01*
X107661309Y-101423073D01*
X107649473Y-101324395D01*
X107639122Y-101277326D01*
X107600148Y-101162022D01*
X107546305Y-101058066D01*
X107474586Y-100960355D01*
X107412849Y-100893655D01*
X107314307Y-100804909D01*
X107215720Y-100736988D01*
X107112873Y-100688006D01*
X107001554Y-100656078D01*
X106877549Y-100639317D01*
X106839729Y-100637073D01*
X106725344Y-100637122D01*
G37*
X106725344Y-100637122D02*
X106623673Y-100649320D01*
X106526958Y-100675134D01*
X106431137Y-100714291D01*
X106306755Y-100784833D01*
X106197823Y-100872105D01*
X106105448Y-100974813D01*
X106030739Y-101091660D01*
X105974802Y-101221351D01*
X105961481Y-101263838D01*
X105942931Y-101354400D01*
X105934132Y-101457180D01*
X105935086Y-101563464D01*
X105945791Y-101664540D01*
X105961481Y-101736161D01*
X106010392Y-101866124D01*
X106078386Y-101985340D01*
X106163432Y-102091888D01*
X106263501Y-102183843D01*
X106376562Y-102259282D01*
X106500585Y-102316282D01*
X106606598Y-102347372D01*
X106678517Y-102358489D01*
X106762949Y-102363898D01*
X106850644Y-102363563D01*
X106932358Y-102357450D01*
X106985319Y-102348797D01*
X107115786Y-102308520D01*
X107237617Y-102248220D01*
X107348594Y-102170021D01*
X107446502Y-102076043D01*
X107529125Y-101968410D01*
X107594247Y-101849244D01*
X107639122Y-101722674D01*
X107656134Y-101631464D01*
X107663530Y-101528514D01*
X107662930Y-101500000D01*
X107227773Y-101500000D01*
X107226906Y-101555525D01*
X107223312Y-101596127D01*
X107215505Y-101629939D01*
X107201997Y-101665096D01*
X107194590Y-101681522D01*
X107147699Y-101758236D01*
X107083994Y-101826388D01*
X107008721Y-101881583D01*
X106927124Y-101919427D01*
X106901793Y-101926842D01*
X106867692Y-101931923D01*
X106821001Y-101934541D01*
X106774563Y-101934202D01*
X106723853Y-101930007D01*
X106680964Y-101920448D01*
X106635286Y-101902646D01*
X106604892Y-101888181D01*
X106521677Y-101835598D01*
X106455714Y-101770545D01*
X106406993Y-101695890D01*
X106375507Y-101614502D01*
X106361245Y-101529249D01*
X106364201Y-101442999D01*
X106384364Y-101358621D01*
X106421726Y-101278983D01*
X106476278Y-101206954D01*
X106548012Y-101145402D01*
X106607269Y-101110663D01*
X106651839Y-101089488D01*
X106686332Y-101076578D01*
X106719666Y-101069928D01*
X106760757Y-101067531D01*
X106800032Y-101067314D01*
X106855710Y-101068565D01*
X106896821Y-101073009D01*
X106931827Y-101082187D01*
X106969193Y-101097640D01*
X106970917Y-101098439D01*
X107046852Y-101144113D01*
X107115528Y-101205090D01*
X107170826Y-101275347D01*
X107194590Y-101318478D01*
X107210820Y-101356483D01*
X107220750Y-101389860D01*
X107225866Y-101426741D01*
X107227656Y-101475261D01*
X107227773Y-101500000D01*
X107662930Y-101500000D01*
X107661309Y-101423073D01*
X107649473Y-101324395D01*
X107639122Y-101277326D01*
X107600148Y-101162022D01*
X107546305Y-101058066D01*
X107474586Y-100960355D01*
X107412849Y-100893655D01*
X107314307Y-100804909D01*
X107215720Y-100736988D01*
X107112873Y-100688006D01*
X107001554Y-100656078D01*
X106877549Y-100639317D01*
X106839729Y-100637073D01*
X106725344Y-100637122D01*
%TD*%
D11*
%TO.C,J1*%
X104680000Y-96830000D03*
X113320000Y-96830000D03*
D12*
X111890000Y-96300000D03*
D13*
X113320000Y-92650000D03*
D12*
X106110000Y-96300000D03*
D13*
X104680000Y-92650000D03*
%TD*%
D14*
%TO.C,REF\u002A\u002A*%
X116000000Y-104500000D03*
%TD*%
%TO.C,REF\u002A\u002A*%
X102000000Y-104500000D03*
%TD*%
%TO.C,REF\u002A\u002A*%
X116000000Y-92000000D03*
%TD*%
%TO.C,REF\u002A\u002A*%
X102000000Y-92000000D03*
%TD*%
M02*
