M48
; DRILL file {KiCad 8.0.4} date 2024-12-20T12:35:38+0800
; FORMAT={-:-/ absolute / metric / decimal}
; #@! TF.CreationDate,2024-12-20T12:35:38+08:00
; #@! TF.GenerationSoftware,Kicad,Pcbnew,8.0.4
; #@! TF.FileFunction,Plated,1,2,PTH
FMAT,2
METRIC
; #@! TA.AperFunction,Plated,PTH,ViaDrill
T1C0.350
; #@! TA.AperFunction,Plated,PTH,ComponentDrill
T2C0.600
; #@! TA.AperFunction,Plated,PTH,ComponentDrill
T3C2.100
%
G90
G05
T1
X14.561Y-4.63
X14.561Y-27.13
X14.561Y-49.63
X14.561Y-72.13
X15.661Y-3.53
X15.661Y-26.03
X15.661Y-48.53
X15.661Y-71.03
X34.561Y-4.63
X34.561Y-27.13
X34.561Y-49.63
X34.561Y-72.13
X35.661Y-3.53
X35.661Y-26.03
X35.661Y-48.53
X35.661Y-71.03
X54.561Y-4.63
X54.561Y-27.13
X54.561Y-49.63
X54.561Y-72.13
X55.661Y-3.53
X55.661Y-26.03
X55.661Y-48.53
X55.661Y-71.03
X74.561Y-4.63
X74.561Y-27.13
X74.561Y-49.63
X74.561Y-72.13
X75.661Y-3.53
X75.661Y-26.03
X75.661Y-48.53
X75.661Y-71.03
X94.561Y-4.63
X94.561Y-27.13
X94.561Y-49.63
X94.561Y-72.13
X95.661Y-3.53
X95.661Y-26.03
X95.661Y-48.53
X95.661Y-71.03
T3
X9.001Y-2.0
X9.001Y-14.5
X9.001Y-24.5
X9.001Y-37.0
X9.001Y-47.0
X9.001Y-59.5
X9.001Y-69.5
X9.001Y-82.0
X23.001Y-2.0
X23.001Y-14.5
X23.001Y-24.5
X23.001Y-37.0
X23.001Y-47.0
X23.001Y-59.5
X23.001Y-69.5
X23.001Y-82.0
X29.001Y-2.0
X29.001Y-14.5
X29.001Y-24.5
X29.001Y-37.0
X29.001Y-47.0
X29.001Y-59.5
X29.001Y-69.5
X29.001Y-82.0
X43.001Y-2.0
X43.001Y-14.5
X43.001Y-24.5
X43.001Y-37.0
X43.001Y-47.0
X43.001Y-59.5
X43.001Y-69.5
X43.001Y-82.0
X49.001Y-2.0
X49.001Y-14.5
X49.001Y-24.5
X49.001Y-37.0
X49.001Y-47.0
X49.001Y-59.5
X49.001Y-69.5
X49.001Y-82.0
X63.001Y-2.0
X63.001Y-14.5
X63.001Y-24.5
X63.001Y-37.0
X63.001Y-47.0
X63.001Y-59.5
X63.001Y-69.5
X63.001Y-82.0
X69.001Y-2.0
X69.001Y-14.5
X69.001Y-24.5
X69.001Y-37.0
X69.001Y-47.0
X69.001Y-59.5
X69.001Y-69.5
X69.001Y-82.0
X83.001Y-2.0
X83.001Y-14.5
X83.001Y-24.5
X83.001Y-37.0
X83.001Y-47.0
X83.001Y-59.5
X83.001Y-69.5
X83.001Y-82.0
X89.001Y-2.0
X89.001Y-14.5
X89.001Y-24.5
X89.001Y-37.0
X89.001Y-47.0
X89.001Y-59.5
X89.001Y-69.5
X89.001Y-82.0
X103.001Y-2.0
X103.001Y-14.5
X103.001Y-24.5
X103.001Y-37.0
X103.001Y-47.0
X103.001Y-59.5
X103.001Y-69.5
X103.001Y-82.0
T2
G00X11.681Y-1.7
M15
G01X11.681Y-1.1
M16
G05
G00X11.681Y-6.13
M15
G01X11.681Y-5.03
M16
G05
G00X11.681Y-24.2
M15
G01X11.681Y-23.6
M16
G05
G00X11.681Y-28.63
M15
G01X11.681Y-27.53
M16
G05
G00X11.681Y-46.7
M15
G01X11.681Y-46.1
M16
G05
G00X11.681Y-51.13
M15
G01X11.681Y-50.03
M16
G05
G00X11.681Y-69.2
M15
G01X11.681Y-68.6
M16
G05
G00X11.681Y-73.63
M15
G01X11.681Y-72.53
M16
G05
G00X20.321Y-1.7
M15
G01X20.321Y-1.1
M16
G05
G00X20.321Y-6.13
M15
G01X20.321Y-5.03
M16
G05
G00X20.321Y-24.2
M15
G01X20.321Y-23.6
M16
G05
G00X20.321Y-28.63
M15
G01X20.321Y-27.53
M16
G05
G00X20.321Y-46.7
M15
G01X20.321Y-46.1
M16
G05
G00X20.321Y-51.13
M15
G01X20.321Y-50.03
M16
G05
G00X20.321Y-69.2
M15
G01X20.321Y-68.6
M16
G05
G00X20.321Y-73.63
M15
G01X20.321Y-72.53
M16
G05
G00X31.681Y-1.7
M15
G01X31.681Y-1.1
M16
G05
G00X31.681Y-6.13
M15
G01X31.681Y-5.03
M16
G05
G00X31.681Y-24.2
M15
G01X31.681Y-23.6
M16
G05
G00X31.681Y-28.63
M15
G01X31.681Y-27.53
M16
G05
G00X31.681Y-46.7
M15
G01X31.681Y-46.1
M16
G05
G00X31.681Y-51.13
M15
G01X31.681Y-50.03
M16
G05
G00X31.681Y-69.2
M15
G01X31.681Y-68.6
M16
G05
G00X31.681Y-73.63
M15
G01X31.681Y-72.53
M16
G05
G00X40.321Y-1.7
M15
G01X40.321Y-1.1
M16
G05
G00X40.321Y-6.13
M15
G01X40.321Y-5.03
M16
G05
G00X40.321Y-24.2
M15
G01X40.321Y-23.6
M16
G05
G00X40.321Y-28.63
M15
G01X40.321Y-27.53
M16
G05
G00X40.321Y-46.7
M15
G01X40.321Y-46.1
M16
G05
G00X40.321Y-51.13
M15
G01X40.321Y-50.03
M16
G05
G00X40.321Y-69.2
M15
G01X40.321Y-68.6
M16
G05
G00X40.321Y-73.63
M15
G01X40.321Y-72.53
M16
G05
G00X51.681Y-1.7
M15
G01X51.681Y-1.1
M16
G05
G00X51.681Y-6.13
M15
G01X51.681Y-5.03
M16
G05
G00X51.681Y-24.2
M15
G01X51.681Y-23.6
M16
G05
G00X51.681Y-28.63
M15
G01X51.681Y-27.53
M16
G05
G00X51.681Y-46.7
M15
G01X51.681Y-46.1
M16
G05
G00X51.681Y-51.13
M15
G01X51.681Y-50.03
M16
G05
G00X51.681Y-69.2
M15
G01X51.681Y-68.6
M16
G05
G00X51.681Y-73.63
M15
G01X51.681Y-72.53
M16
G05
G00X60.321Y-1.7
M15
G01X60.321Y-1.1
M16
G05
G00X60.321Y-6.13
M15
G01X60.321Y-5.03
M16
G05
G00X60.321Y-24.2
M15
G01X60.321Y-23.6
M16
G05
G00X60.321Y-28.63
M15
G01X60.321Y-27.53
M16
G05
G00X60.321Y-46.7
M15
G01X60.321Y-46.1
M16
G05
G00X60.321Y-51.13
M15
G01X60.321Y-50.03
M16
G05
G00X60.321Y-69.2
M15
G01X60.321Y-68.6
M16
G05
G00X60.321Y-73.63
M15
G01X60.321Y-72.53
M16
G05
G00X71.681Y-1.7
M15
G01X71.681Y-1.1
M16
G05
G00X71.681Y-6.13
M15
G01X71.681Y-5.03
M16
G05
G00X71.681Y-24.2
M15
G01X71.681Y-23.6
M16
G05
G00X71.681Y-28.63
M15
G01X71.681Y-27.53
M16
G05
G00X71.681Y-46.7
M15
G01X71.681Y-46.1
M16
G05
G00X71.681Y-51.13
M15
G01X71.681Y-50.03
M16
G05
G00X71.681Y-69.2
M15
G01X71.681Y-68.6
M16
G05
G00X71.681Y-73.63
M15
G01X71.681Y-72.53
M16
G05
G00X80.321Y-1.7
M15
G01X80.321Y-1.1
M16
G05
G00X80.321Y-6.13
M15
G01X80.321Y-5.03
M16
G05
G00X80.321Y-24.2
M15
G01X80.321Y-23.6
M16
G05
G00X80.321Y-28.63
M15
G01X80.321Y-27.53
M16
G05
G00X80.321Y-46.7
M15
G01X80.321Y-46.1
M16
G05
G00X80.321Y-51.13
M15
G01X80.321Y-50.03
M16
G05
G00X80.321Y-69.2
M15
G01X80.321Y-68.6
M16
G05
G00X80.321Y-73.63
M15
G01X80.321Y-72.53
M16
G05
G00X91.681Y-1.7
M15
G01X91.681Y-1.1
M16
G05
G00X91.681Y-6.13
M15
G01X91.681Y-5.03
M16
G05
G00X91.681Y-24.2
M15
G01X91.681Y-23.6
M16
G05
G00X91.681Y-28.63
M15
G01X91.681Y-27.53
M16
G05
G00X91.681Y-46.7
M15
G01X91.681Y-46.1
M16
G05
G00X91.681Y-51.13
M15
G01X91.681Y-50.03
M16
G05
G00X91.681Y-69.2
M15
G01X91.681Y-68.6
M16
G05
G00X91.681Y-73.63
M15
G01X91.681Y-72.53
M16
G05
G00X100.321Y-1.7
M15
G01X100.321Y-1.1
M16
G05
G00X100.321Y-6.13
M15
G01X100.321Y-5.03
M16
G05
G00X100.321Y-24.2
M15
G01X100.321Y-23.6
M16
G05
G00X100.321Y-28.63
M15
G01X100.321Y-27.53
M16
G05
G00X100.321Y-46.7
M15
G01X100.321Y-46.1
M16
G05
G00X100.321Y-51.13
M15
G01X100.321Y-50.03
M16
G05
G00X100.321Y-69.2
M15
G01X100.321Y-68.6
M16
G05
G00X100.321Y-73.63
M15
G01X100.321Y-72.53
M16
G05
M30
