%TF.GenerationSoftware,KiCad,Pcbnew,8.0.4*%
%TF.CreationDate,2024-12-20T12:35:40+08:00*%
%TF.ProjectId,c3-type-c-out-panelized-output,63332d74-7970-4652-9d63-2d6f75742d70,rev?*%
%TF.SameCoordinates,PX5836c38PY1312d00*%
%TF.FileFunction,Soldermask,Top*%
%TF.FilePolarity,Negative*%
%FSLAX46Y46*%
G04 Gerber Fmt 4.6, Leading zero omitted, Abs format (unit mm)*
G04 Created by KiCad (PCBNEW 8.0.4) date 2024-12-20 12:35:40*
%MOMM*%
%LPD*%
G01*
G04 APERTURE LIST*
G04 Aperture macros list*
%AMRoundRect*
0 Rectangle with rounded corners*
0 $1 Rounding radius*
0 $2 $3 $4 $5 $6 $7 $8 $9 X,Y pos of 4 corners*
0 Add a 4 corners polygon primitive as box body*
4,1,4,$2,$3,$4,$5,$6,$7,$8,$9,$2,$3,0*
0 Add four circle primitives for the rounded corners*
1,1,$1+$1,$2,$3*
1,1,$1+$1,$4,$5*
1,1,$1+$1,$6,$7*
1,1,$1+$1,$8,$9*
0 Add four rect primitives between the rounded corners*
20,1,$1+$1,$2,$3,$4,$5,0*
20,1,$1+$1,$4,$5,$6,$7,0*
20,1,$1+$1,$6,$7,$8,$9,0*
20,1,$1+$1,$8,$9,$2,$3,0*%
G04 Aperture macros list end*
%ADD10C,3.500000*%
%ADD11C,0.500000*%
%ADD12C,0.650000*%
%ADD13R,0.600000X1.450000*%
%ADD14R,0.300000X1.450000*%
%ADD15O,1.200000X2.300000*%
%ADD16O,1.100000X1.800000*%
%ADD17R,0.375000X0.500000*%
%ADD18R,0.300000X0.650000*%
%ADD19RoundRect,0.200000X-0.275000X0.200000X-0.275000X-0.200000X0.275000X-0.200000X0.275000X0.200000X0*%
%ADD20C,2.100000*%
%ADD21RoundRect,0.200000X0.275000X-0.200000X0.275000X0.200000X-0.275000X0.200000X-0.275000X-0.200000X0*%
%ADD22R,0.500000X1.400000*%
%ADD23R,2.000000X2.500000*%
%ADD24C,2.540000*%
G04 APERTURE END LIST*
D10*
%TO.C,REF\u002A\u002A*%
X49001000Y-37000000D03*
%TD*%
D11*
%TO.C,KiKit_MB_10_1*%
X105101000Y-6250000D03*
%TD*%
D12*
%TO.C,J1*%
X98891000Y-50050000D03*
X93111000Y-50050000D03*
D13*
X99251000Y-51495000D03*
X98451000Y-51495000D03*
D14*
X97251000Y-51495000D03*
X96251000Y-51495000D03*
X95751000Y-51495000D03*
X94751000Y-51495000D03*
D13*
X93551000Y-51495000D03*
X92751000Y-51495000D03*
X92751000Y-51495000D03*
X93551000Y-51495000D03*
D14*
X94251000Y-51495000D03*
X95251000Y-51495000D03*
X96751000Y-51495000D03*
X97751000Y-51495000D03*
D13*
X98451000Y-51495000D03*
X99251000Y-51495000D03*
D15*
X100321000Y-50580000D03*
D16*
X100321000Y-46400000D03*
D15*
X91681000Y-50580000D03*
D16*
X91681000Y-46400000D03*
%TD*%
D10*
%TO.C,REF\u002A\u002A*%
X83001000Y-14500000D03*
%TD*%
D11*
%TO.C,KiKit_MB_39_3*%
X86901000Y-76150000D03*
%TD*%
%TO.C,KiKit_MB_1_3*%
X6901000Y-8650000D03*
%TD*%
%TO.C,KiKit_MB_37_3*%
X66901000Y-76150000D03*
%TD*%
D10*
%TO.C,REF\u002A\u002A*%
X9001000Y-2000000D03*
%TD*%
D12*
%TO.C,J1*%
X38891000Y-5050000D03*
X33111000Y-5050000D03*
D13*
X39251000Y-6495000D03*
X38451000Y-6495000D03*
D14*
X37251000Y-6495000D03*
X36251000Y-6495000D03*
X35751000Y-6495000D03*
X34751000Y-6495000D03*
D13*
X33551000Y-6495000D03*
X32751000Y-6495000D03*
X32751000Y-6495000D03*
X33551000Y-6495000D03*
D14*
X34251000Y-6495000D03*
X35251000Y-6495000D03*
X36751000Y-6495000D03*
X37751000Y-6495000D03*
D13*
X38451000Y-6495000D03*
X39251000Y-6495000D03*
D15*
X40321000Y-5580000D03*
D16*
X40321000Y-1400000D03*
D15*
X31681000Y-5580000D03*
D16*
X31681000Y-1400000D03*
%TD*%
D11*
%TO.C,KiKit_MB_10_3*%
X105101000Y-7850000D03*
%TD*%
%TO.C,KiKit_MB_19_5*%
X86901000Y-29550000D03*
%TD*%
%TO.C,KiKit_MB_31_2*%
X6901000Y-76950000D03*
%TD*%
%TO.C,KiKit_MB_26_1*%
X65101000Y-51250000D03*
%TD*%
%TO.C,KiKit_MB_20_3*%
X105101000Y-30350000D03*
%TD*%
D17*
%TO.C,U1*%
X70138500Y-76250000D03*
D18*
X69601000Y-76175000D03*
D17*
X69063500Y-76250000D03*
X69063500Y-77950000D03*
D18*
X69601000Y-78025000D03*
D17*
X70138500Y-77950000D03*
%TD*%
D10*
%TO.C,REF\u002A\u002A*%
X63001000Y-47000000D03*
%TD*%
D17*
%TO.C,U1*%
X50138500Y-53750000D03*
D18*
X49601000Y-53675000D03*
D17*
X49063500Y-53750000D03*
X49063500Y-55450000D03*
D18*
X49601000Y-55525000D03*
D17*
X50138500Y-55450000D03*
%TD*%
D10*
%TO.C,REF\u002A\u002A*%
X29001000Y-37000000D03*
%TD*%
D12*
%TO.C,J1*%
X78891000Y-5050000D03*
X73111000Y-5050000D03*
D13*
X79251000Y-6495000D03*
X78451000Y-6495000D03*
D14*
X77251000Y-6495000D03*
X76251000Y-6495000D03*
X75751000Y-6495000D03*
X74751000Y-6495000D03*
D13*
X73551000Y-6495000D03*
X72751000Y-6495000D03*
X72751000Y-6495000D03*
X73551000Y-6495000D03*
D14*
X74251000Y-6495000D03*
X75251000Y-6495000D03*
X76751000Y-6495000D03*
X77751000Y-6495000D03*
D13*
X78451000Y-6495000D03*
X79251000Y-6495000D03*
D15*
X80321000Y-5580000D03*
D16*
X80321000Y-1400000D03*
D15*
X71681000Y-5580000D03*
D16*
X71681000Y-1400000D03*
%TD*%
D11*
%TO.C,KiKit_MB_37_6*%
X66901000Y-73750000D03*
%TD*%
%TO.C,KiKit_MB_22_2*%
X25101000Y-52050000D03*
%TD*%
D17*
%TO.C,U1*%
X10138500Y-53750000D03*
D18*
X9601000Y-53675000D03*
D17*
X9063500Y-53750000D03*
X9063500Y-55450000D03*
D18*
X9601000Y-55525000D03*
D17*
X10138500Y-55450000D03*
%TD*%
D10*
%TO.C,REF\u002A\u002A*%
X69001000Y-59500000D03*
%TD*%
D11*
%TO.C,KiKit_MB_3_1*%
X26901000Y-10250000D03*
%TD*%
D12*
%TO.C,J1*%
X18891000Y-27550000D03*
X13111000Y-27550000D03*
D13*
X19251000Y-28995000D03*
X18451000Y-28995000D03*
D14*
X17251000Y-28995000D03*
X16251000Y-28995000D03*
X15751000Y-28995000D03*
X14751000Y-28995000D03*
D13*
X13551000Y-28995000D03*
X12751000Y-28995000D03*
X12751000Y-28995000D03*
X13551000Y-28995000D03*
D14*
X14251000Y-28995000D03*
X15251000Y-28995000D03*
X16751000Y-28995000D03*
X17751000Y-28995000D03*
D13*
X18451000Y-28995000D03*
X19251000Y-28995000D03*
D15*
X20321000Y-28080000D03*
D16*
X20321000Y-23900000D03*
D15*
X11681000Y-28080000D03*
D16*
X11681000Y-23900000D03*
%TD*%
D11*
%TO.C,KiKit_MB_38_6*%
X85101000Y-77750000D03*
%TD*%
%TO.C,KiKit_MB_38_2*%
X85101000Y-74550000D03*
%TD*%
%TO.C,KiKit_MB_10_5*%
X105101000Y-9450000D03*
%TD*%
D10*
%TO.C,REF\u002A\u002A*%
X9001000Y-47000000D03*
%TD*%
D11*
%TO.C,KiKit_MB_23_1*%
X26901000Y-55250000D03*
%TD*%
%TO.C,KiKit_MB_22_1*%
X25101000Y-51250000D03*
%TD*%
D17*
%TO.C,U1*%
X70138500Y-53750000D03*
D18*
X69601000Y-53675000D03*
D17*
X69063500Y-53750000D03*
X69063500Y-55450000D03*
D18*
X69601000Y-55525000D03*
D17*
X70138500Y-55450000D03*
%TD*%
D11*
%TO.C,KiKit_MB_31_5*%
X6901000Y-74550000D03*
%TD*%
D12*
%TO.C,J1*%
X58891000Y-72550000D03*
X53111000Y-72550000D03*
D13*
X59251000Y-73995000D03*
X58451000Y-73995000D03*
D14*
X57251000Y-73995000D03*
X56251000Y-73995000D03*
X55751000Y-73995000D03*
X54751000Y-73995000D03*
D13*
X53551000Y-73995000D03*
X52751000Y-73995000D03*
X52751000Y-73995000D03*
X53551000Y-73995000D03*
D14*
X54251000Y-73995000D03*
X55251000Y-73995000D03*
X56751000Y-73995000D03*
X57751000Y-73995000D03*
D13*
X58451000Y-73995000D03*
X59251000Y-73995000D03*
D15*
X60321000Y-73080000D03*
D16*
X60321000Y-68900000D03*
D15*
X51681000Y-73080000D03*
D16*
X51681000Y-68900000D03*
%TD*%
D19*
%TO.C,R2*%
X81501000Y-8775000D03*
X81501000Y-10425000D03*
%TD*%
D11*
%TO.C,KiKit_MB_12_4*%
X25101000Y-31150000D03*
%TD*%
%TO.C,KiKit_MB_33_4*%
X26901000Y-75350000D03*
%TD*%
D10*
%TO.C,REF\u002A\u002A*%
X23001000Y-2000000D03*
%TD*%
D11*
%TO.C,KiKit_MB_32_6*%
X25101000Y-77750000D03*
%TD*%
D10*
%TO.C,REF\u002A\u002A*%
X43001000Y-47000000D03*
%TD*%
D11*
%TO.C,KiKit_MB_20_6*%
X105101000Y-32750000D03*
%TD*%
D10*
%TO.C,REF\u002A\u002A*%
X89001000Y-82000000D03*
%TD*%
D12*
%TO.C,J1*%
X18891000Y-72550000D03*
X13111000Y-72550000D03*
D13*
X19251000Y-73995000D03*
X18451000Y-73995000D03*
D14*
X17251000Y-73995000D03*
X16251000Y-73995000D03*
X15751000Y-73995000D03*
X14751000Y-73995000D03*
D13*
X13551000Y-73995000D03*
X12751000Y-73995000D03*
X12751000Y-73995000D03*
X13551000Y-73995000D03*
D14*
X14251000Y-73995000D03*
X15251000Y-73995000D03*
X16751000Y-73995000D03*
X17751000Y-73995000D03*
D13*
X18451000Y-73995000D03*
X19251000Y-73995000D03*
D15*
X20321000Y-73080000D03*
D16*
X20321000Y-68900000D03*
D15*
X11681000Y-73080000D03*
D16*
X11681000Y-68900000D03*
%TD*%
D11*
%TO.C,KiKit_MB_11_6*%
X6901000Y-28750000D03*
%TD*%
D20*
%TO.C,KiKit_TO_3*%
X2500000Y-81500000D03*
%TD*%
D10*
%TO.C,REF\u002A\u002A*%
X63001000Y-37000000D03*
%TD*%
D12*
%TO.C,J1*%
X38891000Y-50050000D03*
X33111000Y-50050000D03*
D13*
X39251000Y-51495000D03*
X38451000Y-51495000D03*
D14*
X37251000Y-51495000D03*
X36251000Y-51495000D03*
X35751000Y-51495000D03*
X34751000Y-51495000D03*
D13*
X33551000Y-51495000D03*
X32751000Y-51495000D03*
X32751000Y-51495000D03*
X33551000Y-51495000D03*
D14*
X34251000Y-51495000D03*
X35251000Y-51495000D03*
X36751000Y-51495000D03*
X37751000Y-51495000D03*
D13*
X38451000Y-51495000D03*
X39251000Y-51495000D03*
D15*
X40321000Y-50580000D03*
D16*
X40321000Y-46400000D03*
D15*
X31681000Y-50580000D03*
D16*
X31681000Y-46400000D03*
%TD*%
D20*
%TO.C,KiKit_TO_4*%
X109502000Y-81500000D03*
%TD*%
D21*
%TO.C,R1*%
X102901000Y-77925000D03*
X102901000Y-76275000D03*
%TD*%
D10*
%TO.C,REF\u002A\u002A*%
X63001000Y-24500000D03*
%TD*%
%TO.C,REF\u002A\u002A*%
X23001000Y-59500000D03*
%TD*%
D11*
%TO.C,KiKit_MB_38_1*%
X85101000Y-73750000D03*
%TD*%
D10*
%TO.C,REF\u002A\u002A*%
X63001000Y-69500000D03*
%TD*%
%TO.C,REF\u002A\u002A*%
X103001000Y-59500000D03*
%TD*%
D21*
%TO.C,R1*%
X82901000Y-55425000D03*
X82901000Y-53775000D03*
%TD*%
D11*
%TO.C,KiKit_MB_34_2*%
X45101000Y-74550000D03*
%TD*%
%TO.C,KiKit_MB_16_6*%
X65101000Y-32750000D03*
%TD*%
%TO.C,KiKit_MB_33_6*%
X26901000Y-73750000D03*
%TD*%
%TO.C,KiKit_MB_31_4*%
X6901000Y-75350000D03*
%TD*%
%TO.C,KiKit_MB_36_5*%
X65101000Y-76950000D03*
%TD*%
%TO.C,KiKit_MB_22_4*%
X25101000Y-53650000D03*
%TD*%
%TO.C,KiKit_MB_1_5*%
X6901000Y-7050000D03*
%TD*%
%TO.C,KiKit_MB_6_6*%
X65101000Y-10250000D03*
%TD*%
D10*
%TO.C,REF\u002A\u002A*%
X103001000Y-37000000D03*
%TD*%
D11*
%TO.C,KiKit_MB_32_4*%
X25101000Y-76150000D03*
%TD*%
D22*
%TO.C,J2*%
X14501000Y-33850000D03*
X15501000Y-33850000D03*
X16501000Y-33850000D03*
X17501000Y-33850000D03*
D23*
X12101000Y-36375000D03*
X19901000Y-36375000D03*
%TD*%
D11*
%TO.C,KiKit_MB_26_2*%
X65101000Y-52050000D03*
%TD*%
D17*
%TO.C,U1*%
X10138500Y-31250000D03*
D18*
X9601000Y-31175000D03*
D17*
X9063500Y-31250000D03*
X9063500Y-32950000D03*
D18*
X9601000Y-33025000D03*
D17*
X10138500Y-32950000D03*
%TD*%
D11*
%TO.C,KiKit_MB_4_6*%
X45101000Y-10250000D03*
%TD*%
%TO.C,KiKit_MB_2_5*%
X25101000Y-9450000D03*
%TD*%
%TO.C,KiKit_MB_35_2*%
X46901000Y-76950000D03*
%TD*%
%TO.C,KiKit_MB_35_6*%
X46901000Y-73750000D03*
%TD*%
%TO.C,KiKit_MB_39_5*%
X86901000Y-74550000D03*
%TD*%
%TO.C,KiKit_MB_19_1*%
X86901000Y-32750000D03*
%TD*%
D19*
%TO.C,R2*%
X101501000Y-53775000D03*
X101501000Y-55425000D03*
%TD*%
D11*
%TO.C,KiKit_MB_14_6*%
X45101000Y-32750000D03*
%TD*%
D10*
%TO.C,REF\u002A\u002A*%
X43001000Y-69500000D03*
%TD*%
D11*
%TO.C,KiKit_MB_18_2*%
X85101000Y-29550000D03*
%TD*%
%TO.C,KiKit_MB_21_3*%
X6901000Y-53650000D03*
%TD*%
%TO.C,KiKit_MB_33_1*%
X26901000Y-77750000D03*
%TD*%
D19*
%TO.C,R2*%
X21501000Y-76275000D03*
X21501000Y-77925000D03*
%TD*%
D11*
%TO.C,KiKit_MB_13_6*%
X26901000Y-28750000D03*
%TD*%
%TO.C,KiKit_MB_3_3*%
X26901000Y-8650000D03*
%TD*%
D10*
%TO.C,REF\u002A\u002A*%
X63001000Y-14500000D03*
%TD*%
D11*
%TO.C,KiKit_MB_30_2*%
X105101000Y-52050000D03*
%TD*%
%TO.C,KiKit_MB_23_2*%
X26901000Y-54450000D03*
%TD*%
%TO.C,KiKit_MB_1_6*%
X6901000Y-6250000D03*
%TD*%
%TO.C,KiKit_MB_27_1*%
X66901000Y-55250000D03*
%TD*%
%TO.C,KiKit_MB_1_4*%
X6901000Y-7850000D03*
%TD*%
%TO.C,KiKit_MB_38_3*%
X85101000Y-75350000D03*
%TD*%
D10*
%TO.C,REF\u002A\u002A*%
X89001000Y-24500000D03*
%TD*%
D11*
%TO.C,KiKit_MB_39_2*%
X86901000Y-76950000D03*
%TD*%
%TO.C,KiKit_MB_4_5*%
X45101000Y-9450000D03*
%TD*%
%TO.C,KiKit_MB_14_3*%
X45101000Y-30350000D03*
%TD*%
%TO.C,KiKit_MB_20_5*%
X105101000Y-31950000D03*
%TD*%
%TO.C,KiKit_MB_9_2*%
X86901000Y-9450000D03*
%TD*%
%TO.C,KiKit_MB_30_3*%
X105101000Y-52850000D03*
%TD*%
%TO.C,KiKit_MB_2_1*%
X25101000Y-6250000D03*
%TD*%
%TO.C,KiKit_MB_18_6*%
X85101000Y-32750000D03*
%TD*%
%TO.C,KiKit_MB_28_4*%
X85101000Y-53650000D03*
%TD*%
%TO.C,KiKit_MB_15_1*%
X46901000Y-32750000D03*
%TD*%
%TO.C,KiKit_MB_40_5*%
X105101000Y-76950000D03*
%TD*%
%TO.C,KiKit_MB_21_5*%
X6901000Y-52050000D03*
%TD*%
%TO.C,KiKit_MB_15_2*%
X46901000Y-31950000D03*
%TD*%
%TO.C,KiKit_MB_9_3*%
X86901000Y-8650000D03*
%TD*%
%TO.C,KiKit_MB_19_2*%
X86901000Y-31950000D03*
%TD*%
%TO.C,KiKit_MB_17_1*%
X66901000Y-32750000D03*
%TD*%
D22*
%TO.C,J2*%
X34501000Y-33850000D03*
X35501000Y-33850000D03*
X36501000Y-33850000D03*
X37501000Y-33850000D03*
D23*
X32101000Y-36375000D03*
X39901000Y-36375000D03*
%TD*%
D10*
%TO.C,REF\u002A\u002A*%
X83001000Y-69500000D03*
%TD*%
%TO.C,REF\u002A\u002A*%
X29001000Y-82000000D03*
%TD*%
%TO.C,REF\u002A\u002A*%
X43001000Y-59500000D03*
%TD*%
D11*
%TO.C,KiKit_MB_24_6*%
X45101000Y-55250000D03*
%TD*%
D19*
%TO.C,R2*%
X61501000Y-31275000D03*
X61501000Y-32925000D03*
%TD*%
D11*
%TO.C,KiKit_MB_30_1*%
X105101000Y-51250000D03*
%TD*%
D10*
%TO.C,REF\u002A\u002A*%
X89001000Y-14500000D03*
%TD*%
D11*
%TO.C,KiKit_MB_21_4*%
X6901000Y-52850000D03*
%TD*%
%TO.C,KiKit_MB_6_1*%
X65101000Y-6250000D03*
%TD*%
D21*
%TO.C,R1*%
X42901000Y-55425000D03*
X42901000Y-53775000D03*
%TD*%
D17*
%TO.C,U1*%
X90138500Y-76250000D03*
D18*
X89601000Y-76175000D03*
D17*
X89063500Y-76250000D03*
X89063500Y-77950000D03*
D18*
X89601000Y-78025000D03*
D17*
X90138500Y-77950000D03*
%TD*%
D21*
%TO.C,R1*%
X102901000Y-10425000D03*
X102901000Y-8775000D03*
%TD*%
D11*
%TO.C,KiKit_MB_9_1*%
X86901000Y-10250000D03*
%TD*%
D21*
%TO.C,R1*%
X62901000Y-55425000D03*
X62901000Y-53775000D03*
%TD*%
D11*
%TO.C,KiKit_MB_23_3*%
X26901000Y-53650000D03*
%TD*%
%TO.C,KiKit_MB_8_6*%
X85101000Y-10250000D03*
%TD*%
%TO.C,KiKit_MB_16_2*%
X65101000Y-29550000D03*
%TD*%
%TO.C,KiKit_MB_11_1*%
X6901000Y-32750000D03*
%TD*%
D10*
%TO.C,REF\u002A\u002A*%
X49001000Y-2000000D03*
%TD*%
D20*
%TO.C,KiKit_TO_2*%
X109502000Y-2500000D03*
%TD*%
D21*
%TO.C,R1*%
X22901000Y-55425000D03*
X22901000Y-53775000D03*
%TD*%
D11*
%TO.C,KiKit_MB_21_1*%
X6901000Y-55250000D03*
%TD*%
D10*
%TO.C,REF\u002A\u002A*%
X9001000Y-69500000D03*
%TD*%
D11*
%TO.C,KiKit_MB_13_4*%
X26901000Y-30350000D03*
%TD*%
D17*
%TO.C,U1*%
X10138500Y-76250000D03*
D18*
X9601000Y-76175000D03*
D17*
X9063500Y-76250000D03*
X9063500Y-77950000D03*
D18*
X9601000Y-78025000D03*
D17*
X10138500Y-77950000D03*
%TD*%
D10*
%TO.C,REF\u002A\u002A*%
X83001000Y-82000000D03*
%TD*%
D19*
%TO.C,R2*%
X41501000Y-76275000D03*
X41501000Y-77925000D03*
%TD*%
D11*
%TO.C,KiKit_MB_14_5*%
X45101000Y-31950000D03*
%TD*%
%TO.C,KiKit_MB_15_4*%
X46901000Y-30350000D03*
%TD*%
%TO.C,KiKit_MB_21_2*%
X6901000Y-54450000D03*
%TD*%
%TO.C,KiKit_MB_27_4*%
X66901000Y-52850000D03*
%TD*%
D10*
%TO.C,REF\u002A\u002A*%
X29001000Y-2000000D03*
%TD*%
D22*
%TO.C,J2*%
X74501000Y-78850000D03*
X75501000Y-78850000D03*
X76501000Y-78850000D03*
X77501000Y-78850000D03*
D23*
X72101000Y-81375000D03*
X79901000Y-81375000D03*
%TD*%
D10*
%TO.C,REF\u002A\u002A*%
X89001000Y-59500000D03*
%TD*%
%TO.C,REF\u002A\u002A*%
X83001000Y-2000000D03*
%TD*%
D11*
%TO.C,KiKit_MB_25_5*%
X46901000Y-52050000D03*
%TD*%
%TO.C,KiKit_MB_30_6*%
X105101000Y-55250000D03*
%TD*%
D10*
%TO.C,REF\u002A\u002A*%
X23001000Y-37000000D03*
%TD*%
D11*
%TO.C,KiKit_MB_17_4*%
X66901000Y-30350000D03*
%TD*%
%TO.C,KiKit_MB_12_5*%
X25101000Y-31950000D03*
%TD*%
%TO.C,KiKit_MB_10_6*%
X105101000Y-10250000D03*
%TD*%
%TO.C,KiKit_MB_38_5*%
X85101000Y-76950000D03*
%TD*%
%TO.C,KiKit_MB_5_2*%
X46901000Y-9450000D03*
%TD*%
D10*
%TO.C,REF\u002A\u002A*%
X23001000Y-14500000D03*
%TD*%
D22*
%TO.C,J2*%
X34501000Y-11350000D03*
X35501000Y-11350000D03*
X36501000Y-11350000D03*
X37501000Y-11350000D03*
D23*
X32101000Y-13875000D03*
X39901000Y-13875000D03*
%TD*%
D11*
%TO.C,KiKit_MB_28_6*%
X85101000Y-55250000D03*
%TD*%
D10*
%TO.C,REF\u002A\u002A*%
X43001000Y-2000000D03*
%TD*%
D17*
%TO.C,U1*%
X30138500Y-53750000D03*
D18*
X29601000Y-53675000D03*
D17*
X29063500Y-53750000D03*
X29063500Y-55450000D03*
D18*
X29601000Y-55525000D03*
D17*
X30138500Y-55450000D03*
%TD*%
D10*
%TO.C,REF\u002A\u002A*%
X9001000Y-37000000D03*
%TD*%
D12*
%TO.C,J1*%
X58891000Y-27550000D03*
X53111000Y-27550000D03*
D13*
X59251000Y-28995000D03*
X58451000Y-28995000D03*
D14*
X57251000Y-28995000D03*
X56251000Y-28995000D03*
X55751000Y-28995000D03*
X54751000Y-28995000D03*
D13*
X53551000Y-28995000D03*
X52751000Y-28995000D03*
X52751000Y-28995000D03*
X53551000Y-28995000D03*
D14*
X54251000Y-28995000D03*
X55251000Y-28995000D03*
X56751000Y-28995000D03*
X57751000Y-28995000D03*
D13*
X58451000Y-28995000D03*
X59251000Y-28995000D03*
D15*
X60321000Y-28080000D03*
D16*
X60321000Y-23900000D03*
D15*
X51681000Y-28080000D03*
D16*
X51681000Y-23900000D03*
%TD*%
D11*
%TO.C,KiKit_MB_8_4*%
X85101000Y-8650000D03*
%TD*%
%TO.C,KiKit_MB_35_3*%
X46901000Y-76150000D03*
%TD*%
D21*
%TO.C,R1*%
X42901000Y-10425000D03*
X42901000Y-8775000D03*
%TD*%
D11*
%TO.C,KiKit_MB_37_5*%
X66901000Y-74550000D03*
%TD*%
D22*
%TO.C,J2*%
X54501000Y-33850000D03*
X55501000Y-33850000D03*
X56501000Y-33850000D03*
X57501000Y-33850000D03*
D23*
X52101000Y-36375000D03*
X59901000Y-36375000D03*
%TD*%
D11*
%TO.C,KiKit_MB_39_6*%
X86901000Y-73750000D03*
%TD*%
D21*
%TO.C,R1*%
X102901000Y-55425000D03*
X102901000Y-53775000D03*
%TD*%
D11*
%TO.C,KiKit_MB_1_1*%
X6901000Y-10250000D03*
%TD*%
D10*
%TO.C,REF\u002A\u002A*%
X103001000Y-2000000D03*
%TD*%
D11*
%TO.C,KiKit_MB_16_1*%
X65101000Y-28750000D03*
%TD*%
D19*
%TO.C,R2*%
X101501000Y-8775000D03*
X101501000Y-10425000D03*
%TD*%
D11*
%TO.C,KiKit_MB_11_5*%
X6901000Y-29550000D03*
%TD*%
%TO.C,KiKit_MB_33_3*%
X26901000Y-76150000D03*
%TD*%
%TO.C,KiKit_MB_39_1*%
X86901000Y-77750000D03*
%TD*%
%TO.C,KiKit_MB_12_3*%
X25101000Y-30350000D03*
%TD*%
%TO.C,KiKit_MB_24_3*%
X45101000Y-52850000D03*
%TD*%
%TO.C,KiKit_MB_10_4*%
X105101000Y-8650000D03*
%TD*%
D10*
%TO.C,REF\u002A\u002A*%
X103001000Y-24500000D03*
%TD*%
D22*
%TO.C,J2*%
X74501000Y-56350000D03*
X75501000Y-56350000D03*
X76501000Y-56350000D03*
X77501000Y-56350000D03*
D23*
X72101000Y-58875000D03*
X79901000Y-58875000D03*
%TD*%
D11*
%TO.C,KiKit_MB_30_5*%
X105101000Y-54450000D03*
%TD*%
D19*
%TO.C,R2*%
X81501000Y-31275000D03*
X81501000Y-32925000D03*
%TD*%
D11*
%TO.C,KiKit_MB_12_6*%
X25101000Y-32750000D03*
%TD*%
%TO.C,KiKit_MB_8_5*%
X85101000Y-9450000D03*
%TD*%
%TO.C,KiKit_MB_40_6*%
X105101000Y-77750000D03*
%TD*%
D10*
%TO.C,REF\u002A\u002A*%
X49001000Y-69500000D03*
%TD*%
D11*
%TO.C,KiKit_MB_32_2*%
X25101000Y-74550000D03*
%TD*%
%TO.C,KiKit_MB_24_1*%
X45101000Y-51250000D03*
%TD*%
D10*
%TO.C,REF\u002A\u002A*%
X103001000Y-14500000D03*
%TD*%
D11*
%TO.C,KiKit_MB_5_5*%
X46901000Y-7050000D03*
%TD*%
%TO.C,KiKit_MB_5_4*%
X46901000Y-7850000D03*
%TD*%
D22*
%TO.C,J2*%
X74501000Y-33850000D03*
X75501000Y-33850000D03*
X76501000Y-33850000D03*
X77501000Y-33850000D03*
D23*
X72101000Y-36375000D03*
X79901000Y-36375000D03*
%TD*%
D11*
%TO.C,KiKit_MB_23_4*%
X26901000Y-52850000D03*
%TD*%
%TO.C,KiKit_MB_35_1*%
X46901000Y-77750000D03*
%TD*%
%TO.C,KiKit_MB_28_1*%
X85101000Y-51250000D03*
%TD*%
D10*
%TO.C,REF\u002A\u002A*%
X29001000Y-47000000D03*
%TD*%
D21*
%TO.C,R1*%
X62901000Y-77925000D03*
X62901000Y-76275000D03*
%TD*%
D11*
%TO.C,KiKit_MB_17_2*%
X66901000Y-31950000D03*
%TD*%
%TO.C,KiKit_MB_24_2*%
X45101000Y-52050000D03*
%TD*%
D19*
%TO.C,R2*%
X21501000Y-8775000D03*
X21501000Y-10425000D03*
%TD*%
D11*
%TO.C,KiKit_MB_32_3*%
X25101000Y-75350000D03*
%TD*%
D12*
%TO.C,J1*%
X78891000Y-50050000D03*
X73111000Y-50050000D03*
D13*
X79251000Y-51495000D03*
X78451000Y-51495000D03*
D14*
X77251000Y-51495000D03*
X76251000Y-51495000D03*
X75751000Y-51495000D03*
X74751000Y-51495000D03*
D13*
X73551000Y-51495000D03*
X72751000Y-51495000D03*
X72751000Y-51495000D03*
X73551000Y-51495000D03*
D14*
X74251000Y-51495000D03*
X75251000Y-51495000D03*
X76751000Y-51495000D03*
X77751000Y-51495000D03*
D13*
X78451000Y-51495000D03*
X79251000Y-51495000D03*
D15*
X80321000Y-50580000D03*
D16*
X80321000Y-46400000D03*
D15*
X71681000Y-50580000D03*
D16*
X71681000Y-46400000D03*
%TD*%
D10*
%TO.C,REF\u002A\u002A*%
X63001000Y-2000000D03*
%TD*%
D22*
%TO.C,J2*%
X94501000Y-33850000D03*
X95501000Y-33850000D03*
X96501000Y-33850000D03*
X97501000Y-33850000D03*
D23*
X92101000Y-36375000D03*
X99901000Y-36375000D03*
%TD*%
D11*
%TO.C,KiKit_MB_2_3*%
X25101000Y-7850000D03*
%TD*%
D17*
%TO.C,U1*%
X50138500Y-31250000D03*
D18*
X49601000Y-31175000D03*
D17*
X49063500Y-31250000D03*
X49063500Y-32950000D03*
D18*
X49601000Y-33025000D03*
D17*
X50138500Y-32950000D03*
%TD*%
D10*
%TO.C,REF\u002A\u002A*%
X89001000Y-69500000D03*
%TD*%
D11*
%TO.C,KiKit_MB_26_3*%
X65101000Y-52850000D03*
%TD*%
%TO.C,KiKit_MB_7_2*%
X66901000Y-9450000D03*
%TD*%
D21*
%TO.C,R1*%
X42901000Y-77925000D03*
X42901000Y-76275000D03*
%TD*%
D10*
%TO.C,REF\u002A\u002A*%
X49001000Y-14500000D03*
%TD*%
D11*
%TO.C,KiKit_MB_11_2*%
X6901000Y-31950000D03*
%TD*%
%TO.C,KiKit_MB_9_4*%
X86901000Y-7850000D03*
%TD*%
D10*
%TO.C,REF\u002A\u002A*%
X89001000Y-2000000D03*
%TD*%
D11*
%TO.C,KiKit_MB_17_5*%
X66901000Y-29550000D03*
%TD*%
D24*
%TO.C,KiKit_FID_T_1*%
X2500000Y-7500000D03*
%TD*%
D11*
%TO.C,KiKit_MB_6_3*%
X65101000Y-7850000D03*
%TD*%
D22*
%TO.C,J2*%
X94501000Y-78850000D03*
X95501000Y-78850000D03*
X96501000Y-78850000D03*
X97501000Y-78850000D03*
D23*
X92101000Y-81375000D03*
X99901000Y-81375000D03*
%TD*%
D11*
%TO.C,KiKit_MB_25_3*%
X46901000Y-53650000D03*
%TD*%
D21*
%TO.C,R1*%
X82901000Y-32925000D03*
X82901000Y-31275000D03*
%TD*%
D11*
%TO.C,KiKit_MB_36_2*%
X65101000Y-74550000D03*
%TD*%
%TO.C,KiKit_MB_19_6*%
X86901000Y-28750000D03*
%TD*%
D17*
%TO.C,U1*%
X90138500Y-8750000D03*
D18*
X89601000Y-8675000D03*
D17*
X89063500Y-8750000D03*
X89063500Y-10450000D03*
D18*
X89601000Y-10525000D03*
D17*
X90138500Y-10450000D03*
%TD*%
D24*
%TO.C,KiKit_FID_T_2*%
X109502000Y-7500000D03*
%TD*%
D19*
%TO.C,R2*%
X61501000Y-76275000D03*
X61501000Y-77925000D03*
%TD*%
D11*
%TO.C,KiKit_MB_4_3*%
X45101000Y-7850000D03*
%TD*%
D10*
%TO.C,REF\u002A\u002A*%
X43001000Y-37000000D03*
%TD*%
D11*
%TO.C,KiKit_MB_4_2*%
X45101000Y-7050000D03*
%TD*%
D22*
%TO.C,J2*%
X54501000Y-78850000D03*
X55501000Y-78850000D03*
X56501000Y-78850000D03*
X57501000Y-78850000D03*
D23*
X52101000Y-81375000D03*
X59901000Y-81375000D03*
%TD*%
D10*
%TO.C,REF\u002A\u002A*%
X69001000Y-14500000D03*
%TD*%
D11*
%TO.C,KiKit_MB_7_4*%
X66901000Y-7850000D03*
%TD*%
%TO.C,KiKit_MB_25_1*%
X46901000Y-55250000D03*
%TD*%
D19*
%TO.C,R2*%
X41501000Y-31275000D03*
X41501000Y-32925000D03*
%TD*%
D10*
%TO.C,REF\u002A\u002A*%
X9001000Y-82000000D03*
%TD*%
D21*
%TO.C,R1*%
X102901000Y-32925000D03*
X102901000Y-31275000D03*
%TD*%
D11*
%TO.C,KiKit_MB_25_2*%
X46901000Y-54450000D03*
%TD*%
%TO.C,KiKit_MB_25_6*%
X46901000Y-51250000D03*
%TD*%
D17*
%TO.C,U1*%
X30138500Y-8750000D03*
D18*
X29601000Y-8675000D03*
D17*
X29063500Y-8750000D03*
X29063500Y-10450000D03*
D18*
X29601000Y-10525000D03*
D17*
X30138500Y-10450000D03*
%TD*%
D11*
%TO.C,KiKit_MB_8_1*%
X85101000Y-6250000D03*
%TD*%
D19*
%TO.C,R2*%
X41501000Y-8775000D03*
X41501000Y-10425000D03*
%TD*%
D21*
%TO.C,R1*%
X22901000Y-10425000D03*
X22901000Y-8775000D03*
%TD*%
D11*
%TO.C,KiKit_MB_27_5*%
X66901000Y-52050000D03*
%TD*%
%TO.C,KiKit_MB_40_2*%
X105101000Y-74550000D03*
%TD*%
%TO.C,KiKit_MB_29_5*%
X86901000Y-52050000D03*
%TD*%
%TO.C,KiKit_MB_34_5*%
X45101000Y-76950000D03*
%TD*%
%TO.C,KiKit_MB_19_3*%
X86901000Y-31150000D03*
%TD*%
%TO.C,KiKit_MB_5_1*%
X46901000Y-10250000D03*
%TD*%
%TO.C,KiKit_MB_18_3*%
X85101000Y-30350000D03*
%TD*%
%TO.C,KiKit_MB_11_4*%
X6901000Y-30350000D03*
%TD*%
D10*
%TO.C,REF\u002A\u002A*%
X43001000Y-24500000D03*
%TD*%
D22*
%TO.C,J2*%
X14501000Y-56350000D03*
X15501000Y-56350000D03*
X16501000Y-56350000D03*
X17501000Y-56350000D03*
D23*
X12101000Y-58875000D03*
X19901000Y-58875000D03*
%TD*%
D11*
%TO.C,KiKit_MB_10_2*%
X105101000Y-7050000D03*
%TD*%
%TO.C,KiKit_MB_35_5*%
X46901000Y-74550000D03*
%TD*%
%TO.C,KiKit_MB_6_4*%
X65101000Y-8650000D03*
%TD*%
D10*
%TO.C,REF\u002A\u002A*%
X83001000Y-37000000D03*
%TD*%
D11*
%TO.C,KiKit_MB_31_6*%
X6901000Y-73750000D03*
%TD*%
%TO.C,KiKit_MB_27_6*%
X66901000Y-51250000D03*
%TD*%
%TO.C,KiKit_MB_6_5*%
X65101000Y-9450000D03*
%TD*%
D10*
%TO.C,REF\u002A\u002A*%
X63001000Y-59500000D03*
%TD*%
D11*
%TO.C,KiKit_MB_3_4*%
X26901000Y-7850000D03*
%TD*%
D10*
%TO.C,REF\u002A\u002A*%
X43001000Y-82000000D03*
%TD*%
D11*
%TO.C,KiKit_MB_13_5*%
X26901000Y-29550000D03*
%TD*%
D21*
%TO.C,R1*%
X62901000Y-32925000D03*
X62901000Y-31275000D03*
%TD*%
D22*
%TO.C,J2*%
X74501000Y-11350000D03*
X75501000Y-11350000D03*
X76501000Y-11350000D03*
X77501000Y-11350000D03*
D23*
X72101000Y-13875000D03*
X79901000Y-13875000D03*
%TD*%
D17*
%TO.C,U1*%
X50138500Y-8750000D03*
D18*
X49601000Y-8675000D03*
D17*
X49063500Y-8750000D03*
X49063500Y-10450000D03*
D18*
X49601000Y-10525000D03*
D17*
X50138500Y-10450000D03*
%TD*%
D12*
%TO.C,J1*%
X18891000Y-50050000D03*
X13111000Y-50050000D03*
D13*
X19251000Y-51495000D03*
X18451000Y-51495000D03*
D14*
X17251000Y-51495000D03*
X16251000Y-51495000D03*
X15751000Y-51495000D03*
X14751000Y-51495000D03*
D13*
X13551000Y-51495000D03*
X12751000Y-51495000D03*
X12751000Y-51495000D03*
X13551000Y-51495000D03*
D14*
X14251000Y-51495000D03*
X15251000Y-51495000D03*
X16751000Y-51495000D03*
X17751000Y-51495000D03*
D13*
X18451000Y-51495000D03*
X19251000Y-51495000D03*
D15*
X20321000Y-50580000D03*
D16*
X20321000Y-46400000D03*
D15*
X11681000Y-50580000D03*
D16*
X11681000Y-46400000D03*
%TD*%
D11*
%TO.C,KiKit_MB_38_4*%
X85101000Y-76150000D03*
%TD*%
D19*
%TO.C,R2*%
X101501000Y-31275000D03*
X101501000Y-32925000D03*
%TD*%
D11*
%TO.C,KiKit_MB_2_4*%
X25101000Y-8650000D03*
%TD*%
%TO.C,KiKit_MB_36_4*%
X65101000Y-76150000D03*
%TD*%
%TO.C,KiKit_MB_32_5*%
X25101000Y-76950000D03*
%TD*%
D21*
%TO.C,R1*%
X62901000Y-10425000D03*
X62901000Y-8775000D03*
%TD*%
D10*
%TO.C,REF\u002A\u002A*%
X49001000Y-24500000D03*
%TD*%
%TO.C,REF\u002A\u002A*%
X69001000Y-37000000D03*
%TD*%
D22*
%TO.C,J2*%
X54501000Y-56350000D03*
X55501000Y-56350000D03*
X56501000Y-56350000D03*
X57501000Y-56350000D03*
D23*
X52101000Y-58875000D03*
X59901000Y-58875000D03*
%TD*%
D11*
%TO.C,KiKit_MB_18_5*%
X85101000Y-31950000D03*
%TD*%
%TO.C,KiKit_MB_15_3*%
X46901000Y-31150000D03*
%TD*%
%TO.C,KiKit_MB_29_3*%
X86901000Y-53650000D03*
%TD*%
D10*
%TO.C,REF\u002A\u002A*%
X23001000Y-69500000D03*
%TD*%
%TO.C,REF\u002A\u002A*%
X29001000Y-69500000D03*
%TD*%
D11*
%TO.C,KiKit_MB_31_1*%
X6901000Y-77750000D03*
%TD*%
%TO.C,KiKit_MB_22_3*%
X25101000Y-52850000D03*
%TD*%
D17*
%TO.C,U1*%
X10138500Y-8750000D03*
D18*
X9601000Y-8675000D03*
D17*
X9063500Y-8750000D03*
X9063500Y-10450000D03*
D18*
X9601000Y-10525000D03*
D17*
X10138500Y-10450000D03*
%TD*%
D11*
%TO.C,KiKit_MB_28_2*%
X85101000Y-52050000D03*
%TD*%
%TO.C,KiKit_MB_16_3*%
X65101000Y-30350000D03*
%TD*%
D12*
%TO.C,J1*%
X78891000Y-72550000D03*
X73111000Y-72550000D03*
D13*
X79251000Y-73995000D03*
X78451000Y-73995000D03*
D14*
X77251000Y-73995000D03*
X76251000Y-73995000D03*
X75751000Y-73995000D03*
X74751000Y-73995000D03*
D13*
X73551000Y-73995000D03*
X72751000Y-73995000D03*
X72751000Y-73995000D03*
X73551000Y-73995000D03*
D14*
X74251000Y-73995000D03*
X75251000Y-73995000D03*
X76751000Y-73995000D03*
X77751000Y-73995000D03*
D13*
X78451000Y-73995000D03*
X79251000Y-73995000D03*
D15*
X80321000Y-73080000D03*
D16*
X80321000Y-68900000D03*
D15*
X71681000Y-73080000D03*
D16*
X71681000Y-68900000D03*
%TD*%
D22*
%TO.C,J2*%
X34501000Y-78850000D03*
X35501000Y-78850000D03*
X36501000Y-78850000D03*
X37501000Y-78850000D03*
D23*
X32101000Y-81375000D03*
X39901000Y-81375000D03*
%TD*%
D11*
%TO.C,KiKit_MB_4_1*%
X45101000Y-6250000D03*
%TD*%
D12*
%TO.C,J1*%
X38891000Y-72550000D03*
X33111000Y-72550000D03*
D13*
X39251000Y-73995000D03*
X38451000Y-73995000D03*
D14*
X37251000Y-73995000D03*
X36251000Y-73995000D03*
X35751000Y-73995000D03*
X34751000Y-73995000D03*
D13*
X33551000Y-73995000D03*
X32751000Y-73995000D03*
X32751000Y-73995000D03*
X33551000Y-73995000D03*
D14*
X34251000Y-73995000D03*
X35251000Y-73995000D03*
X36751000Y-73995000D03*
X37751000Y-73995000D03*
D13*
X38451000Y-73995000D03*
X39251000Y-73995000D03*
D15*
X40321000Y-73080000D03*
D16*
X40321000Y-68900000D03*
D15*
X31681000Y-73080000D03*
D16*
X31681000Y-68900000D03*
%TD*%
D11*
%TO.C,KiKit_MB_19_4*%
X86901000Y-30350000D03*
%TD*%
%TO.C,KiKit_MB_9_5*%
X86901000Y-7050000D03*
%TD*%
%TO.C,KiKit_MB_8_3*%
X85101000Y-7850000D03*
%TD*%
%TO.C,KiKit_MB_9_6*%
X86901000Y-6250000D03*
%TD*%
%TO.C,KiKit_MB_37_2*%
X66901000Y-76950000D03*
%TD*%
%TO.C,KiKit_MB_29_4*%
X86901000Y-52850000D03*
%TD*%
D17*
%TO.C,U1*%
X90138500Y-53750000D03*
D18*
X89601000Y-53675000D03*
D17*
X89063500Y-53750000D03*
X89063500Y-55450000D03*
D18*
X89601000Y-55525000D03*
D17*
X90138500Y-55450000D03*
%TD*%
D11*
%TO.C,KiKit_MB_33_2*%
X26901000Y-76950000D03*
%TD*%
%TO.C,KiKit_MB_39_4*%
X86901000Y-75350000D03*
%TD*%
D19*
%TO.C,R2*%
X81501000Y-76275000D03*
X81501000Y-77925000D03*
%TD*%
D11*
%TO.C,KiKit_MB_36_1*%
X65101000Y-73750000D03*
%TD*%
%TO.C,KiKit_MB_20_2*%
X105101000Y-29550000D03*
%TD*%
D10*
%TO.C,REF\u002A\u002A*%
X23001000Y-24500000D03*
%TD*%
D11*
%TO.C,KiKit_MB_25_4*%
X46901000Y-52850000D03*
%TD*%
D21*
%TO.C,R1*%
X82901000Y-77925000D03*
X82901000Y-76275000D03*
%TD*%
D12*
%TO.C,J1*%
X18891000Y-5050000D03*
X13111000Y-5050000D03*
D13*
X19251000Y-6495000D03*
X18451000Y-6495000D03*
D14*
X17251000Y-6495000D03*
X16251000Y-6495000D03*
X15751000Y-6495000D03*
X14751000Y-6495000D03*
D13*
X13551000Y-6495000D03*
X12751000Y-6495000D03*
X12751000Y-6495000D03*
X13551000Y-6495000D03*
D14*
X14251000Y-6495000D03*
X15251000Y-6495000D03*
X16751000Y-6495000D03*
X17751000Y-6495000D03*
D13*
X18451000Y-6495000D03*
X19251000Y-6495000D03*
D15*
X20321000Y-5580000D03*
D16*
X20321000Y-1400000D03*
D15*
X11681000Y-5580000D03*
D16*
X11681000Y-1400000D03*
%TD*%
D10*
%TO.C,REF\u002A\u002A*%
X29001000Y-59500000D03*
%TD*%
D11*
%TO.C,KiKit_MB_18_1*%
X85101000Y-28750000D03*
%TD*%
%TO.C,KiKit_MB_35_4*%
X46901000Y-75350000D03*
%TD*%
D19*
%TO.C,R2*%
X61501000Y-8775000D03*
X61501000Y-10425000D03*
%TD*%
D11*
%TO.C,KiKit_MB_6_2*%
X65101000Y-7050000D03*
%TD*%
%TO.C,KiKit_MB_33_5*%
X26901000Y-74550000D03*
%TD*%
%TO.C,KiKit_MB_23_6*%
X26901000Y-51250000D03*
%TD*%
D22*
%TO.C,J2*%
X34501000Y-56350000D03*
X35501000Y-56350000D03*
X36501000Y-56350000D03*
X37501000Y-56350000D03*
D23*
X32101000Y-58875000D03*
X39901000Y-58875000D03*
%TD*%
D11*
%TO.C,KiKit_MB_7_5*%
X66901000Y-7050000D03*
%TD*%
%TO.C,KiKit_MB_14_4*%
X45101000Y-31150000D03*
%TD*%
%TO.C,KiKit_MB_5_6*%
X46901000Y-6250000D03*
%TD*%
%TO.C,KiKit_MB_29_1*%
X86901000Y-55250000D03*
%TD*%
%TO.C,KiKit_MB_13_3*%
X26901000Y-31150000D03*
%TD*%
D22*
%TO.C,J2*%
X14501000Y-11350000D03*
X15501000Y-11350000D03*
X16501000Y-11350000D03*
X17501000Y-11350000D03*
D23*
X12101000Y-13875000D03*
X19901000Y-13875000D03*
%TD*%
D11*
%TO.C,KiKit_MB_14_2*%
X45101000Y-29550000D03*
%TD*%
D21*
%TO.C,R1*%
X22901000Y-77925000D03*
X22901000Y-76275000D03*
%TD*%
D11*
%TO.C,KiKit_MB_28_3*%
X85101000Y-52850000D03*
%TD*%
%TO.C,KiKit_MB_4_4*%
X45101000Y-8650000D03*
%TD*%
%TO.C,KiKit_MB_20_1*%
X105101000Y-28750000D03*
%TD*%
D17*
%TO.C,U1*%
X70138500Y-31250000D03*
D18*
X69601000Y-31175000D03*
D17*
X69063500Y-31250000D03*
X69063500Y-32950000D03*
D18*
X69601000Y-33025000D03*
D17*
X70138500Y-32950000D03*
%TD*%
D11*
%TO.C,KiKit_MB_40_3*%
X105101000Y-75350000D03*
%TD*%
%TO.C,KiKit_MB_15_5*%
X46901000Y-29550000D03*
%TD*%
%TO.C,KiKit_MB_23_5*%
X26901000Y-52050000D03*
%TD*%
D22*
%TO.C,J2*%
X54501000Y-11350000D03*
X55501000Y-11350000D03*
X56501000Y-11350000D03*
X57501000Y-11350000D03*
D23*
X52101000Y-13875000D03*
X59901000Y-13875000D03*
%TD*%
D11*
%TO.C,KiKit_MB_32_1*%
X25101000Y-73750000D03*
%TD*%
%TO.C,KiKit_MB_26_6*%
X65101000Y-55250000D03*
%TD*%
%TO.C,KiKit_MB_1_2*%
X6901000Y-9450000D03*
%TD*%
%TO.C,KiKit_MB_11_3*%
X6901000Y-31150000D03*
%TD*%
%TO.C,KiKit_MB_24_4*%
X45101000Y-53650000D03*
%TD*%
D17*
%TO.C,U1*%
X70138500Y-8750000D03*
D18*
X69601000Y-8675000D03*
D17*
X69063500Y-8750000D03*
X69063500Y-10450000D03*
D18*
X69601000Y-10525000D03*
D17*
X70138500Y-10450000D03*
%TD*%
D11*
%TO.C,KiKit_MB_3_6*%
X26901000Y-6250000D03*
%TD*%
D12*
%TO.C,J1*%
X58891000Y-50050000D03*
X53111000Y-50050000D03*
D13*
X59251000Y-51495000D03*
X58451000Y-51495000D03*
D14*
X57251000Y-51495000D03*
X56251000Y-51495000D03*
X55751000Y-51495000D03*
X54751000Y-51495000D03*
D13*
X53551000Y-51495000D03*
X52751000Y-51495000D03*
X52751000Y-51495000D03*
X53551000Y-51495000D03*
D14*
X54251000Y-51495000D03*
X55251000Y-51495000D03*
X56751000Y-51495000D03*
X57751000Y-51495000D03*
D13*
X58451000Y-51495000D03*
X59251000Y-51495000D03*
D15*
X60321000Y-50580000D03*
D16*
X60321000Y-46400000D03*
D15*
X51681000Y-50580000D03*
D16*
X51681000Y-46400000D03*
%TD*%
D12*
%TO.C,J1*%
X78891000Y-27550000D03*
X73111000Y-27550000D03*
D13*
X79251000Y-28995000D03*
X78451000Y-28995000D03*
D14*
X77251000Y-28995000D03*
X76251000Y-28995000D03*
X75751000Y-28995000D03*
X74751000Y-28995000D03*
D13*
X73551000Y-28995000D03*
X72751000Y-28995000D03*
X72751000Y-28995000D03*
X73551000Y-28995000D03*
D14*
X74251000Y-28995000D03*
X75251000Y-28995000D03*
X76751000Y-28995000D03*
X77751000Y-28995000D03*
D13*
X78451000Y-28995000D03*
X79251000Y-28995000D03*
D15*
X80321000Y-28080000D03*
D16*
X80321000Y-23900000D03*
D15*
X71681000Y-28080000D03*
D16*
X71681000Y-23900000D03*
%TD*%
D10*
%TO.C,REF\u002A\u002A*%
X23001000Y-82000000D03*
%TD*%
D11*
%TO.C,KiKit_MB_34_3*%
X45101000Y-75350000D03*
%TD*%
D24*
%TO.C,KiKit_FID_T_3*%
X2500000Y-76500000D03*
%TD*%
D10*
%TO.C,REF\u002A\u002A*%
X103001000Y-82000000D03*
%TD*%
D11*
%TO.C,KiKit_MB_7_6*%
X66901000Y-6250000D03*
%TD*%
D12*
%TO.C,J1*%
X58891000Y-5050000D03*
X53111000Y-5050000D03*
D13*
X59251000Y-6495000D03*
X58451000Y-6495000D03*
D14*
X57251000Y-6495000D03*
X56251000Y-6495000D03*
X55751000Y-6495000D03*
X54751000Y-6495000D03*
D13*
X53551000Y-6495000D03*
X52751000Y-6495000D03*
X52751000Y-6495000D03*
X53551000Y-6495000D03*
D14*
X54251000Y-6495000D03*
X55251000Y-6495000D03*
X56751000Y-6495000D03*
X57751000Y-6495000D03*
D13*
X58451000Y-6495000D03*
X59251000Y-6495000D03*
D15*
X60321000Y-5580000D03*
D16*
X60321000Y-1400000D03*
D15*
X51681000Y-5580000D03*
D16*
X51681000Y-1400000D03*
%TD*%
D11*
%TO.C,KiKit_MB_16_4*%
X65101000Y-31150000D03*
%TD*%
D12*
%TO.C,J1*%
X38891000Y-27550000D03*
X33111000Y-27550000D03*
D13*
X39251000Y-28995000D03*
X38451000Y-28995000D03*
D14*
X37251000Y-28995000D03*
X36251000Y-28995000D03*
X35751000Y-28995000D03*
X34751000Y-28995000D03*
D13*
X33551000Y-28995000D03*
X32751000Y-28995000D03*
X32751000Y-28995000D03*
X33551000Y-28995000D03*
D14*
X34251000Y-28995000D03*
X35251000Y-28995000D03*
X36751000Y-28995000D03*
X37751000Y-28995000D03*
D13*
X38451000Y-28995000D03*
X39251000Y-28995000D03*
D15*
X40321000Y-28080000D03*
D16*
X40321000Y-23900000D03*
D15*
X31681000Y-28080000D03*
D16*
X31681000Y-23900000D03*
%TD*%
D11*
%TO.C,KiKit_MB_40_1*%
X105101000Y-73750000D03*
%TD*%
%TO.C,KiKit_MB_37_4*%
X66901000Y-75350000D03*
%TD*%
%TO.C,KiKit_MB_21_6*%
X6901000Y-51250000D03*
%TD*%
D22*
%TO.C,J2*%
X94501000Y-56350000D03*
X95501000Y-56350000D03*
X96501000Y-56350000D03*
X97501000Y-56350000D03*
D23*
X92101000Y-58875000D03*
X99901000Y-58875000D03*
%TD*%
D11*
%TO.C,KiKit_MB_12_1*%
X25101000Y-28750000D03*
%TD*%
D22*
%TO.C,J2*%
X14501000Y-78850000D03*
X15501000Y-78850000D03*
X16501000Y-78850000D03*
X17501000Y-78850000D03*
D23*
X12101000Y-81375000D03*
X19901000Y-81375000D03*
%TD*%
D10*
%TO.C,REF\u002A\u002A*%
X69001000Y-47000000D03*
%TD*%
D11*
%TO.C,KiKit_MB_29_6*%
X86901000Y-51250000D03*
%TD*%
D10*
%TO.C,REF\u002A\u002A*%
X29001000Y-24500000D03*
%TD*%
D11*
%TO.C,KiKit_MB_13_1*%
X26901000Y-32750000D03*
%TD*%
D10*
%TO.C,REF\u002A\u002A*%
X69001000Y-24500000D03*
%TD*%
%TO.C,REF\u002A\u002A*%
X69001000Y-82000000D03*
%TD*%
D17*
%TO.C,U1*%
X30138500Y-31250000D03*
D18*
X29601000Y-31175000D03*
D17*
X29063500Y-31250000D03*
X29063500Y-32950000D03*
D18*
X29601000Y-33025000D03*
D17*
X30138500Y-32950000D03*
%TD*%
D10*
%TO.C,REF\u002A\u002A*%
X49001000Y-47000000D03*
%TD*%
D11*
%TO.C,KiKit_MB_34_4*%
X45101000Y-76150000D03*
%TD*%
D21*
%TO.C,R1*%
X22901000Y-32925000D03*
X22901000Y-31275000D03*
%TD*%
D10*
%TO.C,REF\u002A\u002A*%
X83001000Y-47000000D03*
%TD*%
D11*
%TO.C,KiKit_MB_27_2*%
X66901000Y-54450000D03*
%TD*%
%TO.C,KiKit_MB_3_2*%
X26901000Y-9450000D03*
%TD*%
D19*
%TO.C,R2*%
X81501000Y-53775000D03*
X81501000Y-55425000D03*
%TD*%
D10*
%TO.C,REF\u002A\u002A*%
X29001000Y-14500000D03*
%TD*%
D19*
%TO.C,R2*%
X101501000Y-76275000D03*
X101501000Y-77925000D03*
%TD*%
D11*
%TO.C,KiKit_MB_15_6*%
X46901000Y-28750000D03*
%TD*%
D10*
%TO.C,REF\u002A\u002A*%
X9001000Y-14500000D03*
%TD*%
%TO.C,REF\u002A\u002A*%
X89001000Y-47000000D03*
%TD*%
D11*
%TO.C,KiKit_MB_14_1*%
X45101000Y-28750000D03*
%TD*%
%TO.C,KiKit_MB_34_1*%
X45101000Y-73750000D03*
%TD*%
%TO.C,KiKit_MB_22_6*%
X25101000Y-55250000D03*
%TD*%
%TO.C,KiKit_MB_22_5*%
X25101000Y-54450000D03*
%TD*%
%TO.C,KiKit_MB_12_2*%
X25101000Y-29550000D03*
%TD*%
D10*
%TO.C,REF\u002A\u002A*%
X43001000Y-14500000D03*
%TD*%
D19*
%TO.C,R2*%
X41501000Y-53775000D03*
X41501000Y-55425000D03*
%TD*%
D10*
%TO.C,REF\u002A\u002A*%
X9001000Y-24500000D03*
%TD*%
D12*
%TO.C,J1*%
X98891000Y-72550000D03*
X93111000Y-72550000D03*
D13*
X99251000Y-73995000D03*
X98451000Y-73995000D03*
D14*
X97251000Y-73995000D03*
X96251000Y-73995000D03*
X95751000Y-73995000D03*
X94751000Y-73995000D03*
D13*
X93551000Y-73995000D03*
X92751000Y-73995000D03*
X92751000Y-73995000D03*
X93551000Y-73995000D03*
D14*
X94251000Y-73995000D03*
X95251000Y-73995000D03*
X96751000Y-73995000D03*
X97751000Y-73995000D03*
D13*
X98451000Y-73995000D03*
X99251000Y-73995000D03*
D15*
X100321000Y-73080000D03*
D16*
X100321000Y-68900000D03*
D15*
X91681000Y-73080000D03*
D16*
X91681000Y-68900000D03*
%TD*%
D20*
%TO.C,KiKit_TO_1*%
X2500000Y-2500000D03*
%TD*%
D11*
%TO.C,KiKit_MB_5_3*%
X46901000Y-8650000D03*
%TD*%
%TO.C,KiKit_MB_20_4*%
X105101000Y-31150000D03*
%TD*%
%TO.C,KiKit_MB_36_6*%
X65101000Y-77750000D03*
%TD*%
%TO.C,KiKit_MB_17_6*%
X66901000Y-28750000D03*
%TD*%
%TO.C,KiKit_MB_26_4*%
X65101000Y-53650000D03*
%TD*%
%TO.C,KiKit_MB_2_2*%
X25101000Y-7050000D03*
%TD*%
D22*
%TO.C,J2*%
X94501000Y-11350000D03*
X95501000Y-11350000D03*
X96501000Y-11350000D03*
X97501000Y-11350000D03*
D23*
X92101000Y-13875000D03*
X99901000Y-13875000D03*
%TD*%
D19*
%TO.C,R2*%
X61501000Y-53775000D03*
X61501000Y-55425000D03*
%TD*%
D10*
%TO.C,REF\u002A\u002A*%
X83001000Y-59500000D03*
%TD*%
%TO.C,REF\u002A\u002A*%
X69001000Y-2000000D03*
%TD*%
D11*
%TO.C,KiKit_MB_17_3*%
X66901000Y-31150000D03*
%TD*%
%TO.C,KiKit_MB_13_2*%
X26901000Y-31950000D03*
%TD*%
D10*
%TO.C,REF\u002A\u002A*%
X49001000Y-59500000D03*
%TD*%
%TO.C,REF\u002A\u002A*%
X9001000Y-59500000D03*
%TD*%
D12*
%TO.C,J1*%
X98891000Y-27550000D03*
X93111000Y-27550000D03*
D13*
X99251000Y-28995000D03*
X98451000Y-28995000D03*
D14*
X97251000Y-28995000D03*
X96251000Y-28995000D03*
X95751000Y-28995000D03*
X94751000Y-28995000D03*
D13*
X93551000Y-28995000D03*
X92751000Y-28995000D03*
X92751000Y-28995000D03*
X93551000Y-28995000D03*
D14*
X94251000Y-28995000D03*
X95251000Y-28995000D03*
X96751000Y-28995000D03*
X97751000Y-28995000D03*
D13*
X98451000Y-28995000D03*
X99251000Y-28995000D03*
D15*
X100321000Y-28080000D03*
D16*
X100321000Y-23900000D03*
D15*
X91681000Y-28080000D03*
D16*
X91681000Y-23900000D03*
%TD*%
D11*
%TO.C,KiKit_MB_8_2*%
X85101000Y-7050000D03*
%TD*%
D10*
%TO.C,REF\u002A\u002A*%
X103001000Y-47000000D03*
%TD*%
D11*
%TO.C,KiKit_MB_24_5*%
X45101000Y-54450000D03*
%TD*%
D10*
%TO.C,REF\u002A\u002A*%
X103001000Y-69500000D03*
%TD*%
D11*
%TO.C,KiKit_MB_28_5*%
X85101000Y-54450000D03*
%TD*%
%TO.C,KiKit_MB_29_2*%
X86901000Y-54450000D03*
%TD*%
%TO.C,KiKit_MB_30_4*%
X105101000Y-53650000D03*
%TD*%
%TO.C,KiKit_MB_7_3*%
X66901000Y-8650000D03*
%TD*%
%TO.C,KiKit_MB_18_4*%
X85101000Y-31150000D03*
%TD*%
D21*
%TO.C,R1*%
X42901000Y-32925000D03*
X42901000Y-31275000D03*
%TD*%
D10*
%TO.C,REF\u002A\u002A*%
X69001000Y-69500000D03*
%TD*%
D11*
%TO.C,KiKit_MB_3_5*%
X26901000Y-7050000D03*
%TD*%
D17*
%TO.C,U1*%
X30138500Y-76250000D03*
D18*
X29601000Y-76175000D03*
D17*
X29063500Y-76250000D03*
X29063500Y-77950000D03*
D18*
X29601000Y-78025000D03*
D17*
X30138500Y-77950000D03*
%TD*%
%TO.C,U1*%
X90138500Y-31250000D03*
D18*
X89601000Y-31175000D03*
D17*
X89063500Y-31250000D03*
X89063500Y-32950000D03*
D18*
X89601000Y-33025000D03*
D17*
X90138500Y-32950000D03*
%TD*%
D19*
%TO.C,R2*%
X21501000Y-53775000D03*
X21501000Y-55425000D03*
%TD*%
D10*
%TO.C,REF\u002A\u002A*%
X83001000Y-24500000D03*
%TD*%
D11*
%TO.C,KiKit_MB_26_5*%
X65101000Y-54450000D03*
%TD*%
%TO.C,KiKit_MB_37_1*%
X66901000Y-77750000D03*
%TD*%
D10*
%TO.C,REF\u002A\u002A*%
X89001000Y-37000000D03*
%TD*%
D11*
%TO.C,KiKit_MB_40_4*%
X105101000Y-76150000D03*
%TD*%
D10*
%TO.C,REF\u002A\u002A*%
X63001000Y-82000000D03*
%TD*%
D11*
%TO.C,KiKit_MB_27_3*%
X66901000Y-53650000D03*
%TD*%
%TO.C,KiKit_MB_34_6*%
X45101000Y-77750000D03*
%TD*%
D21*
%TO.C,R1*%
X82901000Y-10425000D03*
X82901000Y-8775000D03*
%TD*%
D10*
%TO.C,REF\u002A\u002A*%
X49001000Y-82000000D03*
%TD*%
D11*
%TO.C,KiKit_MB_36_3*%
X65101000Y-75350000D03*
%TD*%
%TO.C,KiKit_MB_31_3*%
X6901000Y-76150000D03*
%TD*%
D10*
%TO.C,REF\u002A\u002A*%
X23001000Y-47000000D03*
%TD*%
D11*
%TO.C,KiKit_MB_2_6*%
X25101000Y-10250000D03*
%TD*%
D12*
%TO.C,J1*%
X98891000Y-5050000D03*
X93111000Y-5050000D03*
D13*
X99251000Y-6495000D03*
X98451000Y-6495000D03*
D14*
X97251000Y-6495000D03*
X96251000Y-6495000D03*
X95751000Y-6495000D03*
X94751000Y-6495000D03*
D13*
X93551000Y-6495000D03*
X92751000Y-6495000D03*
X92751000Y-6495000D03*
X93551000Y-6495000D03*
D14*
X94251000Y-6495000D03*
X95251000Y-6495000D03*
X96751000Y-6495000D03*
X97751000Y-6495000D03*
D13*
X98451000Y-6495000D03*
X99251000Y-6495000D03*
D15*
X100321000Y-5580000D03*
D16*
X100321000Y-1400000D03*
D15*
X91681000Y-5580000D03*
D16*
X91681000Y-1400000D03*
%TD*%
D17*
%TO.C,U1*%
X50138500Y-76250000D03*
D18*
X49601000Y-76175000D03*
D17*
X49063500Y-76250000D03*
X49063500Y-77950000D03*
D18*
X49601000Y-78025000D03*
D17*
X50138500Y-77950000D03*
%TD*%
D19*
%TO.C,R2*%
X21501000Y-31275000D03*
X21501000Y-32925000D03*
%TD*%
D11*
%TO.C,KiKit_MB_16_5*%
X65101000Y-31950000D03*
%TD*%
%TO.C,KiKit_MB_7_1*%
X66901000Y-10250000D03*
%TD*%
M02*
