%TF.GenerationSoftware,KiCad,Pcbnew,8.0.4*%
%TF.CreationDate,2024-12-20T12:35:40+08:00*%
%TF.ProjectId,c3-type-c-out-panelized-output,63332d74-7970-4652-9d63-2d6f75742d70,rev?*%
%TF.SameCoordinates,PX5836c38PY1312d00*%
%TF.FileFunction,Legend,Top*%
%TF.FilePolarity,Positive*%
%FSLAX46Y46*%
G04 Gerber Fmt 4.6, Leading zero omitted, Abs format (unit mm)*
G04 Created by KiCad (PCBNEW 8.0.4) date 2024-12-20 12:35:40*
%MOMM*%
%LPD*%
G01*
G04 APERTURE LIST*
%ADD10C,0.160000*%
%ADD11C,0.200000*%
%ADD12C,0.120000*%
%ADD13C,0.150000*%
G04 APERTURE END LIST*
D10*
X90981000Y-76100000D02*
G75*
G02*
X90821000Y-76100000I-80000J0D01*
G01*
X90821000Y-76100000D02*
G75*
G02*
X90981000Y-76100000I80000J0D01*
G01*
X30981000Y-31100000D02*
G75*
G02*
X30821000Y-31100000I-80000J0D01*
G01*
X30821000Y-31100000D02*
G75*
G02*
X30981000Y-31100000I80000J0D01*
G01*
X10981000Y-53600000D02*
G75*
G02*
X10821000Y-53600000I-80000J0D01*
G01*
X10821000Y-53600000D02*
G75*
G02*
X10981000Y-53600000I80000J0D01*
G01*
X70981000Y-53600000D02*
G75*
G02*
X70821000Y-53600000I-80000J0D01*
G01*
X70821000Y-53600000D02*
G75*
G02*
X70981000Y-53600000I80000J0D01*
G01*
X30981000Y-76100000D02*
G75*
G02*
X30821000Y-76100000I-80000J0D01*
G01*
X30821000Y-76100000D02*
G75*
G02*
X30981000Y-76100000I80000J0D01*
G01*
X90981000Y-53600000D02*
G75*
G02*
X90821000Y-53600000I-80000J0D01*
G01*
X90821000Y-53600000D02*
G75*
G02*
X90981000Y-53600000I80000J0D01*
G01*
X90981000Y-31100000D02*
G75*
G02*
X90821000Y-31100000I-80000J0D01*
G01*
X90821000Y-31100000D02*
G75*
G02*
X90981000Y-31100000I80000J0D01*
G01*
X50981000Y-76100000D02*
G75*
G02*
X50821000Y-76100000I-80000J0D01*
G01*
X50821000Y-76100000D02*
G75*
G02*
X50981000Y-76100000I80000J0D01*
G01*
X50981000Y-53600000D02*
G75*
G02*
X50821000Y-53600000I-80000J0D01*
G01*
X50821000Y-53600000D02*
G75*
G02*
X50981000Y-53600000I80000J0D01*
G01*
X30981000Y-53600000D02*
G75*
G02*
X30821000Y-53600000I-80000J0D01*
G01*
X30821000Y-53600000D02*
G75*
G02*
X30981000Y-53600000I80000J0D01*
G01*
X70981000Y-76100000D02*
G75*
G02*
X70821000Y-76100000I-80000J0D01*
G01*
X70821000Y-76100000D02*
G75*
G02*
X70981000Y-76100000I80000J0D01*
G01*
X50981000Y-8600000D02*
G75*
G02*
X50821000Y-8600000I-80000J0D01*
G01*
X50821000Y-8600000D02*
G75*
G02*
X50981000Y-8600000I80000J0D01*
G01*
X10981000Y-8600000D02*
G75*
G02*
X10821000Y-8600000I-80000J0D01*
G01*
X10821000Y-8600000D02*
G75*
G02*
X10981000Y-8600000I80000J0D01*
G01*
X70981000Y-31100000D02*
G75*
G02*
X70821000Y-31100000I-80000J0D01*
G01*
X70821000Y-31100000D02*
G75*
G02*
X70981000Y-31100000I80000J0D01*
G01*
X30981000Y-8600000D02*
G75*
G02*
X30821000Y-8600000I-80000J0D01*
G01*
X30821000Y-8600000D02*
G75*
G02*
X30981000Y-8600000I80000J0D01*
G01*
X70981000Y-8600000D02*
G75*
G02*
X70821000Y-8600000I-80000J0D01*
G01*
X70821000Y-8600000D02*
G75*
G02*
X70981000Y-8600000I80000J0D01*
G01*
X50981000Y-31100000D02*
G75*
G02*
X50821000Y-31100000I-80000J0D01*
G01*
X50821000Y-31100000D02*
G75*
G02*
X50981000Y-31100000I80000J0D01*
G01*
X10981000Y-31100000D02*
G75*
G02*
X10821000Y-31100000I-80000J0D01*
G01*
X10821000Y-31100000D02*
G75*
G02*
X10981000Y-31100000I80000J0D01*
G01*
X10981000Y-76100000D02*
G75*
G02*
X10821000Y-76100000I-80000J0D01*
G01*
X10821000Y-76100000D02*
G75*
G02*
X10981000Y-76100000I80000J0D01*
G01*
X90981000Y-8600000D02*
G75*
G02*
X90821000Y-8600000I-80000J0D01*
G01*
X90821000Y-8600000D02*
G75*
G02*
X90981000Y-8600000I80000J0D01*
G01*
D11*
G36*
X58605760Y-55190590D02*
G01*
X53282737Y-55190590D01*
X53282737Y-54944750D01*
X53416070Y-54944750D01*
X53418836Y-54983670D01*
X53436286Y-55018569D01*
X53465762Y-55044134D01*
X53502778Y-55056472D01*
X53541698Y-55053706D01*
X53576597Y-55036256D01*
X53602162Y-55006780D01*
X53610153Y-54988880D01*
X53915285Y-54073484D01*
X54220417Y-54988880D01*
X54228408Y-55006780D01*
X54253973Y-55036256D01*
X54288872Y-55053706D01*
X54327792Y-55056472D01*
X54364808Y-55044134D01*
X54394284Y-55018568D01*
X54411734Y-54983670D01*
X54414500Y-54944749D01*
X54410153Y-54925634D01*
X54166572Y-54194891D01*
X54617206Y-54194891D01*
X54617206Y-54233909D01*
X54632138Y-54269957D01*
X54659728Y-54297547D01*
X54695776Y-54312479D01*
X54715285Y-54314400D01*
X55629570Y-54314400D01*
X55649079Y-54312479D01*
X55685127Y-54297547D01*
X55712717Y-54269957D01*
X55727649Y-54233909D01*
X55727649Y-54194891D01*
X56102920Y-54194891D01*
X56102920Y-54233909D01*
X56117852Y-54269957D01*
X56145442Y-54297547D01*
X56181490Y-54312479D01*
X56200999Y-54314400D01*
X56558141Y-54314400D01*
X56558141Y-54671542D01*
X56560062Y-54691051D01*
X56574994Y-54727099D01*
X56602584Y-54754689D01*
X56638632Y-54769621D01*
X56677650Y-54769621D01*
X56713698Y-54754689D01*
X56741288Y-54727099D01*
X56756220Y-54691051D01*
X56758141Y-54671542D01*
X56758141Y-54314400D01*
X57115284Y-54314400D01*
X57134793Y-54312479D01*
X57170841Y-54297547D01*
X57198431Y-54269957D01*
X57213363Y-54233909D01*
X57213363Y-54194891D01*
X57198431Y-54158843D01*
X57170841Y-54131253D01*
X57134793Y-54116321D01*
X57115284Y-54114400D01*
X56758141Y-54114400D01*
X56758141Y-53871542D01*
X57529570Y-53871542D01*
X57529570Y-54271542D01*
X57531491Y-54291051D01*
X57546423Y-54327099D01*
X57574013Y-54354689D01*
X57610061Y-54369621D01*
X57629570Y-54371542D01*
X57858141Y-54371542D01*
X57877650Y-54369621D01*
X57913698Y-54354689D01*
X57941288Y-54327099D01*
X57956220Y-54291051D01*
X57956220Y-54252033D01*
X57941288Y-54215985D01*
X57913698Y-54188395D01*
X57877650Y-54173463D01*
X57858141Y-54171542D01*
X57729570Y-54171542D01*
X57729570Y-53912963D01*
X57740730Y-53901803D01*
X57874368Y-53857257D01*
X57956200Y-53857257D01*
X58089836Y-53901802D01*
X58175954Y-53987920D01*
X58220932Y-54077876D01*
X58272427Y-54283852D01*
X58272427Y-54430660D01*
X58220932Y-54636636D01*
X58175954Y-54726593D01*
X58089837Y-54812711D01*
X57956200Y-54857257D01*
X57824607Y-54857257D01*
X57731434Y-54810671D01*
X57713126Y-54803665D01*
X57674206Y-54800899D01*
X57637190Y-54813238D01*
X57607713Y-54838802D01*
X57590264Y-54873701D01*
X57587498Y-54912621D01*
X57599837Y-54949637D01*
X57625401Y-54979114D01*
X57641992Y-54989557D01*
X57756278Y-55046700D01*
X57774586Y-55053706D01*
X57778169Y-55053960D01*
X57781490Y-55055336D01*
X57800999Y-55057257D01*
X57972427Y-55057257D01*
X57982300Y-55056284D01*
X57984934Y-55056472D01*
X57988397Y-55055684D01*
X57991936Y-55055336D01*
X57994378Y-55054324D01*
X58004050Y-55052125D01*
X58175479Y-54994982D01*
X58193379Y-54986991D01*
X58196094Y-54984636D01*
X58199414Y-54983261D01*
X58214567Y-54970824D01*
X58328852Y-54856538D01*
X58335142Y-54848873D01*
X58337141Y-54847140D01*
X58339036Y-54844127D01*
X58341288Y-54841385D01*
X58342297Y-54838947D01*
X58347584Y-54830549D01*
X58404727Y-54716263D01*
X58405272Y-54714836D01*
X58405703Y-54714256D01*
X58408626Y-54706073D01*
X58411733Y-54697955D01*
X58411784Y-54697234D01*
X58412298Y-54695796D01*
X58469441Y-54467224D01*
X58469940Y-54463844D01*
X58470506Y-54462480D01*
X58471229Y-54455128D01*
X58472309Y-54447832D01*
X58472091Y-54446373D01*
X58472427Y-54442971D01*
X58472427Y-54271542D01*
X58472091Y-54268139D01*
X58472309Y-54266681D01*
X58471229Y-54259384D01*
X58470506Y-54252033D01*
X58469940Y-54250668D01*
X58469441Y-54247289D01*
X58412298Y-54018717D01*
X58411784Y-54017278D01*
X58411733Y-54016558D01*
X58408626Y-54008439D01*
X58405703Y-54000257D01*
X58405272Y-53999676D01*
X58404727Y-53998250D01*
X58347584Y-53883964D01*
X58342298Y-53875567D01*
X58341288Y-53873127D01*
X58339034Y-53870381D01*
X58337141Y-53867373D01*
X58335143Y-53865640D01*
X58328851Y-53857974D01*
X58214567Y-53743689D01*
X58199413Y-53731253D01*
X58196094Y-53729878D01*
X58193379Y-53727523D01*
X58175479Y-53719532D01*
X58004050Y-53662389D01*
X57994378Y-53660189D01*
X57991936Y-53659178D01*
X57988397Y-53658829D01*
X57984934Y-53658042D01*
X57982300Y-53658229D01*
X57972427Y-53657257D01*
X57858141Y-53657257D01*
X57848267Y-53658229D01*
X57845633Y-53658042D01*
X57842169Y-53658829D01*
X57838632Y-53659178D01*
X57836190Y-53660189D01*
X57826518Y-53662389D01*
X57655090Y-53719532D01*
X57637190Y-53727523D01*
X57634475Y-53729877D01*
X57631157Y-53731252D01*
X57616003Y-53743688D01*
X57558860Y-53800831D01*
X57546423Y-53815984D01*
X57541899Y-53826907D01*
X57531491Y-53852033D01*
X57529570Y-53871542D01*
X56758141Y-53871542D01*
X56758141Y-53757257D01*
X56756220Y-53737748D01*
X56741288Y-53701700D01*
X56713698Y-53674110D01*
X56677650Y-53659178D01*
X56638632Y-53659178D01*
X56602584Y-53674110D01*
X56574994Y-53701700D01*
X56560062Y-53737748D01*
X56558141Y-53757257D01*
X56558141Y-54114400D01*
X56200999Y-54114400D01*
X56181490Y-54116321D01*
X56145442Y-54131253D01*
X56117852Y-54158843D01*
X56102920Y-54194891D01*
X55727649Y-54194891D01*
X55712717Y-54158843D01*
X55685127Y-54131253D01*
X55649079Y-54116321D01*
X55629570Y-54114400D01*
X54715285Y-54114400D01*
X54695776Y-54116321D01*
X54659728Y-54131253D01*
X54632138Y-54158843D01*
X54617206Y-54194891D01*
X54166572Y-54194891D01*
X54010153Y-53725634D01*
X54002162Y-53707734D01*
X53997477Y-53702333D01*
X53994284Y-53695946D01*
X53984814Y-53687732D01*
X53976597Y-53678258D01*
X53970207Y-53675063D01*
X53964808Y-53670380D01*
X53952910Y-53666414D01*
X53941698Y-53660808D01*
X53934570Y-53660301D01*
X53927792Y-53658042D01*
X53915285Y-53658930D01*
X53902778Y-53658042D01*
X53895999Y-53660301D01*
X53888872Y-53660808D01*
X53877659Y-53666414D01*
X53865762Y-53670380D01*
X53860362Y-53675063D01*
X53853973Y-53678258D01*
X53845757Y-53687729D01*
X53836286Y-53695945D01*
X53833091Y-53702334D01*
X53828408Y-53707734D01*
X53820417Y-53725634D01*
X53420417Y-54925634D01*
X53416070Y-54944750D01*
X53282737Y-54944750D01*
X53282737Y-53523924D01*
X58605760Y-53523924D01*
X58605760Y-55190590D01*
G37*
G36*
X98605760Y-55190590D02*
G01*
X93282737Y-55190590D01*
X93282737Y-54944750D01*
X93416070Y-54944750D01*
X93418836Y-54983670D01*
X93436286Y-55018569D01*
X93465762Y-55044134D01*
X93502778Y-55056472D01*
X93541698Y-55053706D01*
X93576597Y-55036256D01*
X93602162Y-55006780D01*
X93610153Y-54988880D01*
X93915285Y-54073484D01*
X94220417Y-54988880D01*
X94228408Y-55006780D01*
X94253973Y-55036256D01*
X94288872Y-55053706D01*
X94327792Y-55056472D01*
X94364808Y-55044134D01*
X94394284Y-55018568D01*
X94411734Y-54983670D01*
X94414500Y-54944749D01*
X94410153Y-54925634D01*
X94166572Y-54194891D01*
X94617206Y-54194891D01*
X94617206Y-54233909D01*
X94632138Y-54269957D01*
X94659728Y-54297547D01*
X94695776Y-54312479D01*
X94715285Y-54314400D01*
X95629570Y-54314400D01*
X95649079Y-54312479D01*
X95685127Y-54297547D01*
X95712717Y-54269957D01*
X95727649Y-54233909D01*
X95727649Y-54194891D01*
X96102920Y-54194891D01*
X96102920Y-54233909D01*
X96117852Y-54269957D01*
X96145442Y-54297547D01*
X96181490Y-54312479D01*
X96200999Y-54314400D01*
X96558141Y-54314400D01*
X96558141Y-54671542D01*
X96560062Y-54691051D01*
X96574994Y-54727099D01*
X96602584Y-54754689D01*
X96638632Y-54769621D01*
X96677650Y-54769621D01*
X96713698Y-54754689D01*
X96741288Y-54727099D01*
X96756220Y-54691051D01*
X96758141Y-54671542D01*
X96758141Y-54314400D01*
X97115284Y-54314400D01*
X97134793Y-54312479D01*
X97170841Y-54297547D01*
X97198431Y-54269957D01*
X97213363Y-54233909D01*
X97213363Y-54194891D01*
X97198431Y-54158843D01*
X97170841Y-54131253D01*
X97134793Y-54116321D01*
X97115284Y-54114400D01*
X96758141Y-54114400D01*
X96758141Y-53871542D01*
X97529570Y-53871542D01*
X97529570Y-54271542D01*
X97531491Y-54291051D01*
X97546423Y-54327099D01*
X97574013Y-54354689D01*
X97610061Y-54369621D01*
X97629570Y-54371542D01*
X97858141Y-54371542D01*
X97877650Y-54369621D01*
X97913698Y-54354689D01*
X97941288Y-54327099D01*
X97956220Y-54291051D01*
X97956220Y-54252033D01*
X97941288Y-54215985D01*
X97913698Y-54188395D01*
X97877650Y-54173463D01*
X97858141Y-54171542D01*
X97729570Y-54171542D01*
X97729570Y-53912963D01*
X97740730Y-53901803D01*
X97874368Y-53857257D01*
X97956200Y-53857257D01*
X98089836Y-53901802D01*
X98175954Y-53987920D01*
X98220932Y-54077876D01*
X98272427Y-54283852D01*
X98272427Y-54430660D01*
X98220932Y-54636636D01*
X98175954Y-54726593D01*
X98089837Y-54812711D01*
X97956200Y-54857257D01*
X97824607Y-54857257D01*
X97731434Y-54810671D01*
X97713126Y-54803665D01*
X97674206Y-54800899D01*
X97637190Y-54813238D01*
X97607713Y-54838802D01*
X97590264Y-54873701D01*
X97587498Y-54912621D01*
X97599837Y-54949637D01*
X97625401Y-54979114D01*
X97641992Y-54989557D01*
X97756278Y-55046700D01*
X97774586Y-55053706D01*
X97778169Y-55053960D01*
X97781490Y-55055336D01*
X97800999Y-55057257D01*
X97972427Y-55057257D01*
X97982300Y-55056284D01*
X97984934Y-55056472D01*
X97988397Y-55055684D01*
X97991936Y-55055336D01*
X97994378Y-55054324D01*
X98004050Y-55052125D01*
X98175479Y-54994982D01*
X98193379Y-54986991D01*
X98196094Y-54984636D01*
X98199414Y-54983261D01*
X98214567Y-54970824D01*
X98328852Y-54856538D01*
X98335142Y-54848873D01*
X98337141Y-54847140D01*
X98339036Y-54844127D01*
X98341288Y-54841385D01*
X98342297Y-54838947D01*
X98347584Y-54830549D01*
X98404727Y-54716263D01*
X98405272Y-54714836D01*
X98405703Y-54714256D01*
X98408626Y-54706073D01*
X98411733Y-54697955D01*
X98411784Y-54697234D01*
X98412298Y-54695796D01*
X98469441Y-54467224D01*
X98469940Y-54463844D01*
X98470506Y-54462480D01*
X98471229Y-54455128D01*
X98472309Y-54447832D01*
X98472091Y-54446373D01*
X98472427Y-54442971D01*
X98472427Y-54271542D01*
X98472091Y-54268139D01*
X98472309Y-54266681D01*
X98471229Y-54259384D01*
X98470506Y-54252033D01*
X98469940Y-54250668D01*
X98469441Y-54247289D01*
X98412298Y-54018717D01*
X98411784Y-54017278D01*
X98411733Y-54016558D01*
X98408626Y-54008439D01*
X98405703Y-54000257D01*
X98405272Y-53999676D01*
X98404727Y-53998250D01*
X98347584Y-53883964D01*
X98342298Y-53875567D01*
X98341288Y-53873127D01*
X98339034Y-53870381D01*
X98337141Y-53867373D01*
X98335143Y-53865640D01*
X98328851Y-53857974D01*
X98214567Y-53743689D01*
X98199413Y-53731253D01*
X98196094Y-53729878D01*
X98193379Y-53727523D01*
X98175479Y-53719532D01*
X98004050Y-53662389D01*
X97994378Y-53660189D01*
X97991936Y-53659178D01*
X97988397Y-53658829D01*
X97984934Y-53658042D01*
X97982300Y-53658229D01*
X97972427Y-53657257D01*
X97858141Y-53657257D01*
X97848267Y-53658229D01*
X97845633Y-53658042D01*
X97842169Y-53658829D01*
X97838632Y-53659178D01*
X97836190Y-53660189D01*
X97826518Y-53662389D01*
X97655090Y-53719532D01*
X97637190Y-53727523D01*
X97634475Y-53729877D01*
X97631157Y-53731252D01*
X97616003Y-53743688D01*
X97558860Y-53800831D01*
X97546423Y-53815984D01*
X97541899Y-53826907D01*
X97531491Y-53852033D01*
X97529570Y-53871542D01*
X96758141Y-53871542D01*
X96758141Y-53757257D01*
X96756220Y-53737748D01*
X96741288Y-53701700D01*
X96713698Y-53674110D01*
X96677650Y-53659178D01*
X96638632Y-53659178D01*
X96602584Y-53674110D01*
X96574994Y-53701700D01*
X96560062Y-53737748D01*
X96558141Y-53757257D01*
X96558141Y-54114400D01*
X96200999Y-54114400D01*
X96181490Y-54116321D01*
X96145442Y-54131253D01*
X96117852Y-54158843D01*
X96102920Y-54194891D01*
X95727649Y-54194891D01*
X95712717Y-54158843D01*
X95685127Y-54131253D01*
X95649079Y-54116321D01*
X95629570Y-54114400D01*
X94715285Y-54114400D01*
X94695776Y-54116321D01*
X94659728Y-54131253D01*
X94632138Y-54158843D01*
X94617206Y-54194891D01*
X94166572Y-54194891D01*
X94010153Y-53725634D01*
X94002162Y-53707734D01*
X93997477Y-53702333D01*
X93994284Y-53695946D01*
X93984814Y-53687732D01*
X93976597Y-53678258D01*
X93970207Y-53675063D01*
X93964808Y-53670380D01*
X93952910Y-53666414D01*
X93941698Y-53660808D01*
X93934570Y-53660301D01*
X93927792Y-53658042D01*
X93915285Y-53658930D01*
X93902778Y-53658042D01*
X93895999Y-53660301D01*
X93888872Y-53660808D01*
X93877659Y-53666414D01*
X93865762Y-53670380D01*
X93860362Y-53675063D01*
X93853973Y-53678258D01*
X93845757Y-53687729D01*
X93836286Y-53695945D01*
X93833091Y-53702334D01*
X93828408Y-53707734D01*
X93820417Y-53725634D01*
X93420417Y-54925634D01*
X93416070Y-54944750D01*
X93282737Y-54944750D01*
X93282737Y-53523924D01*
X98605760Y-53523924D01*
X98605760Y-55190590D01*
G37*
G36*
X78605760Y-77690590D02*
G01*
X73282737Y-77690590D01*
X73282737Y-77444750D01*
X73416070Y-77444750D01*
X73418836Y-77483670D01*
X73436286Y-77518569D01*
X73465762Y-77544134D01*
X73502778Y-77556472D01*
X73541698Y-77553706D01*
X73576597Y-77536256D01*
X73602162Y-77506780D01*
X73610153Y-77488880D01*
X73915285Y-76573484D01*
X74220417Y-77488880D01*
X74228408Y-77506780D01*
X74253973Y-77536256D01*
X74288872Y-77553706D01*
X74327792Y-77556472D01*
X74364808Y-77544134D01*
X74394284Y-77518568D01*
X74411734Y-77483670D01*
X74414500Y-77444749D01*
X74410153Y-77425634D01*
X74166572Y-76694891D01*
X74617206Y-76694891D01*
X74617206Y-76733909D01*
X74632138Y-76769957D01*
X74659728Y-76797547D01*
X74695776Y-76812479D01*
X74715285Y-76814400D01*
X75629570Y-76814400D01*
X75649079Y-76812479D01*
X75685127Y-76797547D01*
X75712717Y-76769957D01*
X75727649Y-76733909D01*
X75727649Y-76694891D01*
X76102920Y-76694891D01*
X76102920Y-76733909D01*
X76117852Y-76769957D01*
X76145442Y-76797547D01*
X76181490Y-76812479D01*
X76200999Y-76814400D01*
X76558141Y-76814400D01*
X76558141Y-77171542D01*
X76560062Y-77191051D01*
X76574994Y-77227099D01*
X76602584Y-77254689D01*
X76638632Y-77269621D01*
X76677650Y-77269621D01*
X76713698Y-77254689D01*
X76741288Y-77227099D01*
X76756220Y-77191051D01*
X76758141Y-77171542D01*
X76758141Y-76814400D01*
X77115284Y-76814400D01*
X77134793Y-76812479D01*
X77170841Y-76797547D01*
X77198431Y-76769957D01*
X77213363Y-76733909D01*
X77213363Y-76694891D01*
X77198431Y-76658843D01*
X77170841Y-76631253D01*
X77134793Y-76616321D01*
X77115284Y-76614400D01*
X76758141Y-76614400D01*
X76758141Y-76371542D01*
X77529570Y-76371542D01*
X77529570Y-76771542D01*
X77531491Y-76791051D01*
X77546423Y-76827099D01*
X77574013Y-76854689D01*
X77610061Y-76869621D01*
X77629570Y-76871542D01*
X77858141Y-76871542D01*
X77877650Y-76869621D01*
X77913698Y-76854689D01*
X77941288Y-76827099D01*
X77956220Y-76791051D01*
X77956220Y-76752033D01*
X77941288Y-76715985D01*
X77913698Y-76688395D01*
X77877650Y-76673463D01*
X77858141Y-76671542D01*
X77729570Y-76671542D01*
X77729570Y-76412963D01*
X77740730Y-76401803D01*
X77874368Y-76357257D01*
X77956200Y-76357257D01*
X78089836Y-76401802D01*
X78175954Y-76487920D01*
X78220932Y-76577876D01*
X78272427Y-76783852D01*
X78272427Y-76930660D01*
X78220932Y-77136636D01*
X78175954Y-77226593D01*
X78089837Y-77312711D01*
X77956200Y-77357257D01*
X77824607Y-77357257D01*
X77731434Y-77310671D01*
X77713126Y-77303665D01*
X77674206Y-77300899D01*
X77637190Y-77313238D01*
X77607713Y-77338802D01*
X77590264Y-77373701D01*
X77587498Y-77412621D01*
X77599837Y-77449637D01*
X77625401Y-77479114D01*
X77641992Y-77489557D01*
X77756278Y-77546700D01*
X77774586Y-77553706D01*
X77778169Y-77553960D01*
X77781490Y-77555336D01*
X77800999Y-77557257D01*
X77972427Y-77557257D01*
X77982300Y-77556284D01*
X77984934Y-77556472D01*
X77988397Y-77555684D01*
X77991936Y-77555336D01*
X77994378Y-77554324D01*
X78004050Y-77552125D01*
X78175479Y-77494982D01*
X78193379Y-77486991D01*
X78196094Y-77484636D01*
X78199414Y-77483261D01*
X78214567Y-77470824D01*
X78328852Y-77356538D01*
X78335142Y-77348873D01*
X78337141Y-77347140D01*
X78339036Y-77344127D01*
X78341288Y-77341385D01*
X78342297Y-77338947D01*
X78347584Y-77330549D01*
X78404727Y-77216263D01*
X78405272Y-77214836D01*
X78405703Y-77214256D01*
X78408626Y-77206073D01*
X78411733Y-77197955D01*
X78411784Y-77197234D01*
X78412298Y-77195796D01*
X78469441Y-76967224D01*
X78469940Y-76963844D01*
X78470506Y-76962480D01*
X78471229Y-76955128D01*
X78472309Y-76947832D01*
X78472091Y-76946373D01*
X78472427Y-76942971D01*
X78472427Y-76771542D01*
X78472091Y-76768139D01*
X78472309Y-76766681D01*
X78471229Y-76759384D01*
X78470506Y-76752033D01*
X78469940Y-76750668D01*
X78469441Y-76747289D01*
X78412298Y-76518717D01*
X78411784Y-76517278D01*
X78411733Y-76516558D01*
X78408626Y-76508439D01*
X78405703Y-76500257D01*
X78405272Y-76499676D01*
X78404727Y-76498250D01*
X78347584Y-76383964D01*
X78342298Y-76375567D01*
X78341288Y-76373127D01*
X78339034Y-76370381D01*
X78337141Y-76367373D01*
X78335143Y-76365640D01*
X78328851Y-76357974D01*
X78214567Y-76243689D01*
X78199413Y-76231253D01*
X78196094Y-76229878D01*
X78193379Y-76227523D01*
X78175479Y-76219532D01*
X78004050Y-76162389D01*
X77994378Y-76160189D01*
X77991936Y-76159178D01*
X77988397Y-76158829D01*
X77984934Y-76158042D01*
X77982300Y-76158229D01*
X77972427Y-76157257D01*
X77858141Y-76157257D01*
X77848267Y-76158229D01*
X77845633Y-76158042D01*
X77842169Y-76158829D01*
X77838632Y-76159178D01*
X77836190Y-76160189D01*
X77826518Y-76162389D01*
X77655090Y-76219532D01*
X77637190Y-76227523D01*
X77634475Y-76229877D01*
X77631157Y-76231252D01*
X77616003Y-76243688D01*
X77558860Y-76300831D01*
X77546423Y-76315984D01*
X77541899Y-76326907D01*
X77531491Y-76352033D01*
X77529570Y-76371542D01*
X76758141Y-76371542D01*
X76758141Y-76257257D01*
X76756220Y-76237748D01*
X76741288Y-76201700D01*
X76713698Y-76174110D01*
X76677650Y-76159178D01*
X76638632Y-76159178D01*
X76602584Y-76174110D01*
X76574994Y-76201700D01*
X76560062Y-76237748D01*
X76558141Y-76257257D01*
X76558141Y-76614400D01*
X76200999Y-76614400D01*
X76181490Y-76616321D01*
X76145442Y-76631253D01*
X76117852Y-76658843D01*
X76102920Y-76694891D01*
X75727649Y-76694891D01*
X75712717Y-76658843D01*
X75685127Y-76631253D01*
X75649079Y-76616321D01*
X75629570Y-76614400D01*
X74715285Y-76614400D01*
X74695776Y-76616321D01*
X74659728Y-76631253D01*
X74632138Y-76658843D01*
X74617206Y-76694891D01*
X74166572Y-76694891D01*
X74010153Y-76225634D01*
X74002162Y-76207734D01*
X73997477Y-76202333D01*
X73994284Y-76195946D01*
X73984814Y-76187732D01*
X73976597Y-76178258D01*
X73970207Y-76175063D01*
X73964808Y-76170380D01*
X73952910Y-76166414D01*
X73941698Y-76160808D01*
X73934570Y-76160301D01*
X73927792Y-76158042D01*
X73915285Y-76158930D01*
X73902778Y-76158042D01*
X73895999Y-76160301D01*
X73888872Y-76160808D01*
X73877659Y-76166414D01*
X73865762Y-76170380D01*
X73860362Y-76175063D01*
X73853973Y-76178258D01*
X73845757Y-76187729D01*
X73836286Y-76195945D01*
X73833091Y-76202334D01*
X73828408Y-76207734D01*
X73820417Y-76225634D01*
X73420417Y-77425634D01*
X73416070Y-77444750D01*
X73282737Y-77444750D01*
X73282737Y-76023924D01*
X78605760Y-76023924D01*
X78605760Y-77690590D01*
G37*
G36*
X78605760Y-32690590D02*
G01*
X73282737Y-32690590D01*
X73282737Y-32444750D01*
X73416070Y-32444750D01*
X73418836Y-32483670D01*
X73436286Y-32518569D01*
X73465762Y-32544134D01*
X73502778Y-32556472D01*
X73541698Y-32553706D01*
X73576597Y-32536256D01*
X73602162Y-32506780D01*
X73610153Y-32488880D01*
X73915285Y-31573484D01*
X74220417Y-32488880D01*
X74228408Y-32506780D01*
X74253973Y-32536256D01*
X74288872Y-32553706D01*
X74327792Y-32556472D01*
X74364808Y-32544134D01*
X74394284Y-32518568D01*
X74411734Y-32483670D01*
X74414500Y-32444749D01*
X74410153Y-32425634D01*
X74166572Y-31694891D01*
X74617206Y-31694891D01*
X74617206Y-31733909D01*
X74632138Y-31769957D01*
X74659728Y-31797547D01*
X74695776Y-31812479D01*
X74715285Y-31814400D01*
X75629570Y-31814400D01*
X75649079Y-31812479D01*
X75685127Y-31797547D01*
X75712717Y-31769957D01*
X75727649Y-31733909D01*
X75727649Y-31694891D01*
X76102920Y-31694891D01*
X76102920Y-31733909D01*
X76117852Y-31769957D01*
X76145442Y-31797547D01*
X76181490Y-31812479D01*
X76200999Y-31814400D01*
X76558141Y-31814400D01*
X76558141Y-32171542D01*
X76560062Y-32191051D01*
X76574994Y-32227099D01*
X76602584Y-32254689D01*
X76638632Y-32269621D01*
X76677650Y-32269621D01*
X76713698Y-32254689D01*
X76741288Y-32227099D01*
X76756220Y-32191051D01*
X76758141Y-32171542D01*
X76758141Y-31814400D01*
X77115284Y-31814400D01*
X77134793Y-31812479D01*
X77170841Y-31797547D01*
X77198431Y-31769957D01*
X77213363Y-31733909D01*
X77213363Y-31694891D01*
X77198431Y-31658843D01*
X77170841Y-31631253D01*
X77134793Y-31616321D01*
X77115284Y-31614400D01*
X76758141Y-31614400D01*
X76758141Y-31371542D01*
X77529570Y-31371542D01*
X77529570Y-31771542D01*
X77531491Y-31791051D01*
X77546423Y-31827099D01*
X77574013Y-31854689D01*
X77610061Y-31869621D01*
X77629570Y-31871542D01*
X77858141Y-31871542D01*
X77877650Y-31869621D01*
X77913698Y-31854689D01*
X77941288Y-31827099D01*
X77956220Y-31791051D01*
X77956220Y-31752033D01*
X77941288Y-31715985D01*
X77913698Y-31688395D01*
X77877650Y-31673463D01*
X77858141Y-31671542D01*
X77729570Y-31671542D01*
X77729570Y-31412963D01*
X77740730Y-31401803D01*
X77874368Y-31357257D01*
X77956200Y-31357257D01*
X78089836Y-31401802D01*
X78175954Y-31487920D01*
X78220932Y-31577876D01*
X78272427Y-31783852D01*
X78272427Y-31930660D01*
X78220932Y-32136636D01*
X78175954Y-32226593D01*
X78089837Y-32312711D01*
X77956200Y-32357257D01*
X77824607Y-32357257D01*
X77731434Y-32310671D01*
X77713126Y-32303665D01*
X77674206Y-32300899D01*
X77637190Y-32313238D01*
X77607713Y-32338802D01*
X77590264Y-32373701D01*
X77587498Y-32412621D01*
X77599837Y-32449637D01*
X77625401Y-32479114D01*
X77641992Y-32489557D01*
X77756278Y-32546700D01*
X77774586Y-32553706D01*
X77778169Y-32553960D01*
X77781490Y-32555336D01*
X77800999Y-32557257D01*
X77972427Y-32557257D01*
X77982300Y-32556284D01*
X77984934Y-32556472D01*
X77988397Y-32555684D01*
X77991936Y-32555336D01*
X77994378Y-32554324D01*
X78004050Y-32552125D01*
X78175479Y-32494982D01*
X78193379Y-32486991D01*
X78196094Y-32484636D01*
X78199414Y-32483261D01*
X78214567Y-32470824D01*
X78328852Y-32356538D01*
X78335142Y-32348873D01*
X78337141Y-32347140D01*
X78339036Y-32344127D01*
X78341288Y-32341385D01*
X78342297Y-32338947D01*
X78347584Y-32330549D01*
X78404727Y-32216263D01*
X78405272Y-32214836D01*
X78405703Y-32214256D01*
X78408626Y-32206073D01*
X78411733Y-32197955D01*
X78411784Y-32197234D01*
X78412298Y-32195796D01*
X78469441Y-31967224D01*
X78469940Y-31963844D01*
X78470506Y-31962480D01*
X78471229Y-31955128D01*
X78472309Y-31947832D01*
X78472091Y-31946373D01*
X78472427Y-31942971D01*
X78472427Y-31771542D01*
X78472091Y-31768139D01*
X78472309Y-31766681D01*
X78471229Y-31759384D01*
X78470506Y-31752033D01*
X78469940Y-31750668D01*
X78469441Y-31747289D01*
X78412298Y-31518717D01*
X78411784Y-31517278D01*
X78411733Y-31516558D01*
X78408626Y-31508439D01*
X78405703Y-31500257D01*
X78405272Y-31499676D01*
X78404727Y-31498250D01*
X78347584Y-31383964D01*
X78342298Y-31375567D01*
X78341288Y-31373127D01*
X78339034Y-31370381D01*
X78337141Y-31367373D01*
X78335143Y-31365640D01*
X78328851Y-31357974D01*
X78214567Y-31243689D01*
X78199413Y-31231253D01*
X78196094Y-31229878D01*
X78193379Y-31227523D01*
X78175479Y-31219532D01*
X78004050Y-31162389D01*
X77994378Y-31160189D01*
X77991936Y-31159178D01*
X77988397Y-31158829D01*
X77984934Y-31158042D01*
X77982300Y-31158229D01*
X77972427Y-31157257D01*
X77858141Y-31157257D01*
X77848267Y-31158229D01*
X77845633Y-31158042D01*
X77842169Y-31158829D01*
X77838632Y-31159178D01*
X77836190Y-31160189D01*
X77826518Y-31162389D01*
X77655090Y-31219532D01*
X77637190Y-31227523D01*
X77634475Y-31229877D01*
X77631157Y-31231252D01*
X77616003Y-31243688D01*
X77558860Y-31300831D01*
X77546423Y-31315984D01*
X77541899Y-31326907D01*
X77531491Y-31352033D01*
X77529570Y-31371542D01*
X76758141Y-31371542D01*
X76758141Y-31257257D01*
X76756220Y-31237748D01*
X76741288Y-31201700D01*
X76713698Y-31174110D01*
X76677650Y-31159178D01*
X76638632Y-31159178D01*
X76602584Y-31174110D01*
X76574994Y-31201700D01*
X76560062Y-31237748D01*
X76558141Y-31257257D01*
X76558141Y-31614400D01*
X76200999Y-31614400D01*
X76181490Y-31616321D01*
X76145442Y-31631253D01*
X76117852Y-31658843D01*
X76102920Y-31694891D01*
X75727649Y-31694891D01*
X75712717Y-31658843D01*
X75685127Y-31631253D01*
X75649079Y-31616321D01*
X75629570Y-31614400D01*
X74715285Y-31614400D01*
X74695776Y-31616321D01*
X74659728Y-31631253D01*
X74632138Y-31658843D01*
X74617206Y-31694891D01*
X74166572Y-31694891D01*
X74010153Y-31225634D01*
X74002162Y-31207734D01*
X73997477Y-31202333D01*
X73994284Y-31195946D01*
X73984814Y-31187732D01*
X73976597Y-31178258D01*
X73970207Y-31175063D01*
X73964808Y-31170380D01*
X73952910Y-31166414D01*
X73941698Y-31160808D01*
X73934570Y-31160301D01*
X73927792Y-31158042D01*
X73915285Y-31158930D01*
X73902778Y-31158042D01*
X73895999Y-31160301D01*
X73888872Y-31160808D01*
X73877659Y-31166414D01*
X73865762Y-31170380D01*
X73860362Y-31175063D01*
X73853973Y-31178258D01*
X73845757Y-31187729D01*
X73836286Y-31195945D01*
X73833091Y-31202334D01*
X73828408Y-31207734D01*
X73820417Y-31225634D01*
X73420417Y-32425634D01*
X73416070Y-32444750D01*
X73282737Y-32444750D01*
X73282737Y-31023924D01*
X78605760Y-31023924D01*
X78605760Y-32690590D01*
G37*
G36*
X98605760Y-77690590D02*
G01*
X93282737Y-77690590D01*
X93282737Y-77444750D01*
X93416070Y-77444750D01*
X93418836Y-77483670D01*
X93436286Y-77518569D01*
X93465762Y-77544134D01*
X93502778Y-77556472D01*
X93541698Y-77553706D01*
X93576597Y-77536256D01*
X93602162Y-77506780D01*
X93610153Y-77488880D01*
X93915285Y-76573484D01*
X94220417Y-77488880D01*
X94228408Y-77506780D01*
X94253973Y-77536256D01*
X94288872Y-77553706D01*
X94327792Y-77556472D01*
X94364808Y-77544134D01*
X94394284Y-77518568D01*
X94411734Y-77483670D01*
X94414500Y-77444749D01*
X94410153Y-77425634D01*
X94166572Y-76694891D01*
X94617206Y-76694891D01*
X94617206Y-76733909D01*
X94632138Y-76769957D01*
X94659728Y-76797547D01*
X94695776Y-76812479D01*
X94715285Y-76814400D01*
X95629570Y-76814400D01*
X95649079Y-76812479D01*
X95685127Y-76797547D01*
X95712717Y-76769957D01*
X95727649Y-76733909D01*
X95727649Y-76694891D01*
X96102920Y-76694891D01*
X96102920Y-76733909D01*
X96117852Y-76769957D01*
X96145442Y-76797547D01*
X96181490Y-76812479D01*
X96200999Y-76814400D01*
X96558141Y-76814400D01*
X96558141Y-77171542D01*
X96560062Y-77191051D01*
X96574994Y-77227099D01*
X96602584Y-77254689D01*
X96638632Y-77269621D01*
X96677650Y-77269621D01*
X96713698Y-77254689D01*
X96741288Y-77227099D01*
X96756220Y-77191051D01*
X96758141Y-77171542D01*
X96758141Y-76814400D01*
X97115284Y-76814400D01*
X97134793Y-76812479D01*
X97170841Y-76797547D01*
X97198431Y-76769957D01*
X97213363Y-76733909D01*
X97213363Y-76694891D01*
X97198431Y-76658843D01*
X97170841Y-76631253D01*
X97134793Y-76616321D01*
X97115284Y-76614400D01*
X96758141Y-76614400D01*
X96758141Y-76371542D01*
X97529570Y-76371542D01*
X97529570Y-76771542D01*
X97531491Y-76791051D01*
X97546423Y-76827099D01*
X97574013Y-76854689D01*
X97610061Y-76869621D01*
X97629570Y-76871542D01*
X97858141Y-76871542D01*
X97877650Y-76869621D01*
X97913698Y-76854689D01*
X97941288Y-76827099D01*
X97956220Y-76791051D01*
X97956220Y-76752033D01*
X97941288Y-76715985D01*
X97913698Y-76688395D01*
X97877650Y-76673463D01*
X97858141Y-76671542D01*
X97729570Y-76671542D01*
X97729570Y-76412963D01*
X97740730Y-76401803D01*
X97874368Y-76357257D01*
X97956200Y-76357257D01*
X98089836Y-76401802D01*
X98175954Y-76487920D01*
X98220932Y-76577876D01*
X98272427Y-76783852D01*
X98272427Y-76930660D01*
X98220932Y-77136636D01*
X98175954Y-77226593D01*
X98089837Y-77312711D01*
X97956200Y-77357257D01*
X97824607Y-77357257D01*
X97731434Y-77310671D01*
X97713126Y-77303665D01*
X97674206Y-77300899D01*
X97637190Y-77313238D01*
X97607713Y-77338802D01*
X97590264Y-77373701D01*
X97587498Y-77412621D01*
X97599837Y-77449637D01*
X97625401Y-77479114D01*
X97641992Y-77489557D01*
X97756278Y-77546700D01*
X97774586Y-77553706D01*
X97778169Y-77553960D01*
X97781490Y-77555336D01*
X97800999Y-77557257D01*
X97972427Y-77557257D01*
X97982300Y-77556284D01*
X97984934Y-77556472D01*
X97988397Y-77555684D01*
X97991936Y-77555336D01*
X97994378Y-77554324D01*
X98004050Y-77552125D01*
X98175479Y-77494982D01*
X98193379Y-77486991D01*
X98196094Y-77484636D01*
X98199414Y-77483261D01*
X98214567Y-77470824D01*
X98328852Y-77356538D01*
X98335142Y-77348873D01*
X98337141Y-77347140D01*
X98339036Y-77344127D01*
X98341288Y-77341385D01*
X98342297Y-77338947D01*
X98347584Y-77330549D01*
X98404727Y-77216263D01*
X98405272Y-77214836D01*
X98405703Y-77214256D01*
X98408626Y-77206073D01*
X98411733Y-77197955D01*
X98411784Y-77197234D01*
X98412298Y-77195796D01*
X98469441Y-76967224D01*
X98469940Y-76963844D01*
X98470506Y-76962480D01*
X98471229Y-76955128D01*
X98472309Y-76947832D01*
X98472091Y-76946373D01*
X98472427Y-76942971D01*
X98472427Y-76771542D01*
X98472091Y-76768139D01*
X98472309Y-76766681D01*
X98471229Y-76759384D01*
X98470506Y-76752033D01*
X98469940Y-76750668D01*
X98469441Y-76747289D01*
X98412298Y-76518717D01*
X98411784Y-76517278D01*
X98411733Y-76516558D01*
X98408626Y-76508439D01*
X98405703Y-76500257D01*
X98405272Y-76499676D01*
X98404727Y-76498250D01*
X98347584Y-76383964D01*
X98342298Y-76375567D01*
X98341288Y-76373127D01*
X98339034Y-76370381D01*
X98337141Y-76367373D01*
X98335143Y-76365640D01*
X98328851Y-76357974D01*
X98214567Y-76243689D01*
X98199413Y-76231253D01*
X98196094Y-76229878D01*
X98193379Y-76227523D01*
X98175479Y-76219532D01*
X98004050Y-76162389D01*
X97994378Y-76160189D01*
X97991936Y-76159178D01*
X97988397Y-76158829D01*
X97984934Y-76158042D01*
X97982300Y-76158229D01*
X97972427Y-76157257D01*
X97858141Y-76157257D01*
X97848267Y-76158229D01*
X97845633Y-76158042D01*
X97842169Y-76158829D01*
X97838632Y-76159178D01*
X97836190Y-76160189D01*
X97826518Y-76162389D01*
X97655090Y-76219532D01*
X97637190Y-76227523D01*
X97634475Y-76229877D01*
X97631157Y-76231252D01*
X97616003Y-76243688D01*
X97558860Y-76300831D01*
X97546423Y-76315984D01*
X97541899Y-76326907D01*
X97531491Y-76352033D01*
X97529570Y-76371542D01*
X96758141Y-76371542D01*
X96758141Y-76257257D01*
X96756220Y-76237748D01*
X96741288Y-76201700D01*
X96713698Y-76174110D01*
X96677650Y-76159178D01*
X96638632Y-76159178D01*
X96602584Y-76174110D01*
X96574994Y-76201700D01*
X96560062Y-76237748D01*
X96558141Y-76257257D01*
X96558141Y-76614400D01*
X96200999Y-76614400D01*
X96181490Y-76616321D01*
X96145442Y-76631253D01*
X96117852Y-76658843D01*
X96102920Y-76694891D01*
X95727649Y-76694891D01*
X95712717Y-76658843D01*
X95685127Y-76631253D01*
X95649079Y-76616321D01*
X95629570Y-76614400D01*
X94715285Y-76614400D01*
X94695776Y-76616321D01*
X94659728Y-76631253D01*
X94632138Y-76658843D01*
X94617206Y-76694891D01*
X94166572Y-76694891D01*
X94010153Y-76225634D01*
X94002162Y-76207734D01*
X93997477Y-76202333D01*
X93994284Y-76195946D01*
X93984814Y-76187732D01*
X93976597Y-76178258D01*
X93970207Y-76175063D01*
X93964808Y-76170380D01*
X93952910Y-76166414D01*
X93941698Y-76160808D01*
X93934570Y-76160301D01*
X93927792Y-76158042D01*
X93915285Y-76158930D01*
X93902778Y-76158042D01*
X93895999Y-76160301D01*
X93888872Y-76160808D01*
X93877659Y-76166414D01*
X93865762Y-76170380D01*
X93860362Y-76175063D01*
X93853973Y-76178258D01*
X93845757Y-76187729D01*
X93836286Y-76195945D01*
X93833091Y-76202334D01*
X93828408Y-76207734D01*
X93820417Y-76225634D01*
X93420417Y-77425634D01*
X93416070Y-77444750D01*
X93282737Y-77444750D01*
X93282737Y-76023924D01*
X98605760Y-76023924D01*
X98605760Y-77690590D01*
G37*
G36*
X38605760Y-77690590D02*
G01*
X33282737Y-77690590D01*
X33282737Y-77444750D01*
X33416070Y-77444750D01*
X33418836Y-77483670D01*
X33436286Y-77518569D01*
X33465762Y-77544134D01*
X33502778Y-77556472D01*
X33541698Y-77553706D01*
X33576597Y-77536256D01*
X33602162Y-77506780D01*
X33610153Y-77488880D01*
X33915285Y-76573484D01*
X34220417Y-77488880D01*
X34228408Y-77506780D01*
X34253973Y-77536256D01*
X34288872Y-77553706D01*
X34327792Y-77556472D01*
X34364808Y-77544134D01*
X34394284Y-77518568D01*
X34411734Y-77483670D01*
X34414500Y-77444749D01*
X34410153Y-77425634D01*
X34166572Y-76694891D01*
X34617206Y-76694891D01*
X34617206Y-76733909D01*
X34632138Y-76769957D01*
X34659728Y-76797547D01*
X34695776Y-76812479D01*
X34715285Y-76814400D01*
X35629570Y-76814400D01*
X35649079Y-76812479D01*
X35685127Y-76797547D01*
X35712717Y-76769957D01*
X35727649Y-76733909D01*
X35727649Y-76694891D01*
X36102920Y-76694891D01*
X36102920Y-76733909D01*
X36117852Y-76769957D01*
X36145442Y-76797547D01*
X36181490Y-76812479D01*
X36200999Y-76814400D01*
X36558141Y-76814400D01*
X36558141Y-77171542D01*
X36560062Y-77191051D01*
X36574994Y-77227099D01*
X36602584Y-77254689D01*
X36638632Y-77269621D01*
X36677650Y-77269621D01*
X36713698Y-77254689D01*
X36741288Y-77227099D01*
X36756220Y-77191051D01*
X36758141Y-77171542D01*
X36758141Y-76814400D01*
X37115284Y-76814400D01*
X37134793Y-76812479D01*
X37170841Y-76797547D01*
X37198431Y-76769957D01*
X37213363Y-76733909D01*
X37213363Y-76694891D01*
X37198431Y-76658843D01*
X37170841Y-76631253D01*
X37134793Y-76616321D01*
X37115284Y-76614400D01*
X36758141Y-76614400D01*
X36758141Y-76371542D01*
X37529570Y-76371542D01*
X37529570Y-76771542D01*
X37531491Y-76791051D01*
X37546423Y-76827099D01*
X37574013Y-76854689D01*
X37610061Y-76869621D01*
X37629570Y-76871542D01*
X37858141Y-76871542D01*
X37877650Y-76869621D01*
X37913698Y-76854689D01*
X37941288Y-76827099D01*
X37956220Y-76791051D01*
X37956220Y-76752033D01*
X37941288Y-76715985D01*
X37913698Y-76688395D01*
X37877650Y-76673463D01*
X37858141Y-76671542D01*
X37729570Y-76671542D01*
X37729570Y-76412963D01*
X37740730Y-76401803D01*
X37874368Y-76357257D01*
X37956200Y-76357257D01*
X38089836Y-76401802D01*
X38175954Y-76487920D01*
X38220932Y-76577876D01*
X38272427Y-76783852D01*
X38272427Y-76930660D01*
X38220932Y-77136636D01*
X38175954Y-77226593D01*
X38089837Y-77312711D01*
X37956200Y-77357257D01*
X37824607Y-77357257D01*
X37731434Y-77310671D01*
X37713126Y-77303665D01*
X37674206Y-77300899D01*
X37637190Y-77313238D01*
X37607713Y-77338802D01*
X37590264Y-77373701D01*
X37587498Y-77412621D01*
X37599837Y-77449637D01*
X37625401Y-77479114D01*
X37641992Y-77489557D01*
X37756278Y-77546700D01*
X37774586Y-77553706D01*
X37778169Y-77553960D01*
X37781490Y-77555336D01*
X37800999Y-77557257D01*
X37972427Y-77557257D01*
X37982300Y-77556284D01*
X37984934Y-77556472D01*
X37988397Y-77555684D01*
X37991936Y-77555336D01*
X37994378Y-77554324D01*
X38004050Y-77552125D01*
X38175479Y-77494982D01*
X38193379Y-77486991D01*
X38196094Y-77484636D01*
X38199414Y-77483261D01*
X38214567Y-77470824D01*
X38328852Y-77356538D01*
X38335142Y-77348873D01*
X38337141Y-77347140D01*
X38339036Y-77344127D01*
X38341288Y-77341385D01*
X38342297Y-77338947D01*
X38347584Y-77330549D01*
X38404727Y-77216263D01*
X38405272Y-77214836D01*
X38405703Y-77214256D01*
X38408626Y-77206073D01*
X38411733Y-77197955D01*
X38411784Y-77197234D01*
X38412298Y-77195796D01*
X38469441Y-76967224D01*
X38469940Y-76963844D01*
X38470506Y-76962480D01*
X38471229Y-76955128D01*
X38472309Y-76947832D01*
X38472091Y-76946373D01*
X38472427Y-76942971D01*
X38472427Y-76771542D01*
X38472091Y-76768139D01*
X38472309Y-76766681D01*
X38471229Y-76759384D01*
X38470506Y-76752033D01*
X38469940Y-76750668D01*
X38469441Y-76747289D01*
X38412298Y-76518717D01*
X38411784Y-76517278D01*
X38411733Y-76516558D01*
X38408626Y-76508439D01*
X38405703Y-76500257D01*
X38405272Y-76499676D01*
X38404727Y-76498250D01*
X38347584Y-76383964D01*
X38342298Y-76375567D01*
X38341288Y-76373127D01*
X38339034Y-76370381D01*
X38337141Y-76367373D01*
X38335143Y-76365640D01*
X38328851Y-76357974D01*
X38214567Y-76243689D01*
X38199413Y-76231253D01*
X38196094Y-76229878D01*
X38193379Y-76227523D01*
X38175479Y-76219532D01*
X38004050Y-76162389D01*
X37994378Y-76160189D01*
X37991936Y-76159178D01*
X37988397Y-76158829D01*
X37984934Y-76158042D01*
X37982300Y-76158229D01*
X37972427Y-76157257D01*
X37858141Y-76157257D01*
X37848267Y-76158229D01*
X37845633Y-76158042D01*
X37842169Y-76158829D01*
X37838632Y-76159178D01*
X37836190Y-76160189D01*
X37826518Y-76162389D01*
X37655090Y-76219532D01*
X37637190Y-76227523D01*
X37634475Y-76229877D01*
X37631157Y-76231252D01*
X37616003Y-76243688D01*
X37558860Y-76300831D01*
X37546423Y-76315984D01*
X37541899Y-76326907D01*
X37531491Y-76352033D01*
X37529570Y-76371542D01*
X36758141Y-76371542D01*
X36758141Y-76257257D01*
X36756220Y-76237748D01*
X36741288Y-76201700D01*
X36713698Y-76174110D01*
X36677650Y-76159178D01*
X36638632Y-76159178D01*
X36602584Y-76174110D01*
X36574994Y-76201700D01*
X36560062Y-76237748D01*
X36558141Y-76257257D01*
X36558141Y-76614400D01*
X36200999Y-76614400D01*
X36181490Y-76616321D01*
X36145442Y-76631253D01*
X36117852Y-76658843D01*
X36102920Y-76694891D01*
X35727649Y-76694891D01*
X35712717Y-76658843D01*
X35685127Y-76631253D01*
X35649079Y-76616321D01*
X35629570Y-76614400D01*
X34715285Y-76614400D01*
X34695776Y-76616321D01*
X34659728Y-76631253D01*
X34632138Y-76658843D01*
X34617206Y-76694891D01*
X34166572Y-76694891D01*
X34010153Y-76225634D01*
X34002162Y-76207734D01*
X33997477Y-76202333D01*
X33994284Y-76195946D01*
X33984814Y-76187732D01*
X33976597Y-76178258D01*
X33970207Y-76175063D01*
X33964808Y-76170380D01*
X33952910Y-76166414D01*
X33941698Y-76160808D01*
X33934570Y-76160301D01*
X33927792Y-76158042D01*
X33915285Y-76158930D01*
X33902778Y-76158042D01*
X33895999Y-76160301D01*
X33888872Y-76160808D01*
X33877659Y-76166414D01*
X33865762Y-76170380D01*
X33860362Y-76175063D01*
X33853973Y-76178258D01*
X33845757Y-76187729D01*
X33836286Y-76195945D01*
X33833091Y-76202334D01*
X33828408Y-76207734D01*
X33820417Y-76225634D01*
X33420417Y-77425634D01*
X33416070Y-77444750D01*
X33282737Y-77444750D01*
X33282737Y-76023924D01*
X38605760Y-76023924D01*
X38605760Y-77690590D01*
G37*
G36*
X98605760Y-10190590D02*
G01*
X93282737Y-10190590D01*
X93282737Y-9944750D01*
X93416070Y-9944750D01*
X93418836Y-9983670D01*
X93436286Y-10018569D01*
X93465762Y-10044134D01*
X93502778Y-10056472D01*
X93541698Y-10053706D01*
X93576597Y-10036256D01*
X93602162Y-10006780D01*
X93610153Y-9988880D01*
X93915285Y-9073484D01*
X94220417Y-9988880D01*
X94228408Y-10006780D01*
X94253973Y-10036256D01*
X94288872Y-10053706D01*
X94327792Y-10056472D01*
X94364808Y-10044134D01*
X94394284Y-10018568D01*
X94411734Y-9983670D01*
X94414500Y-9944749D01*
X94410153Y-9925634D01*
X94166572Y-9194891D01*
X94617206Y-9194891D01*
X94617206Y-9233909D01*
X94632138Y-9269957D01*
X94659728Y-9297547D01*
X94695776Y-9312479D01*
X94715285Y-9314400D01*
X95629570Y-9314400D01*
X95649079Y-9312479D01*
X95685127Y-9297547D01*
X95712717Y-9269957D01*
X95727649Y-9233909D01*
X95727649Y-9194891D01*
X96102920Y-9194891D01*
X96102920Y-9233909D01*
X96117852Y-9269957D01*
X96145442Y-9297547D01*
X96181490Y-9312479D01*
X96200999Y-9314400D01*
X96558141Y-9314400D01*
X96558141Y-9671542D01*
X96560062Y-9691051D01*
X96574994Y-9727099D01*
X96602584Y-9754689D01*
X96638632Y-9769621D01*
X96677650Y-9769621D01*
X96713698Y-9754689D01*
X96741288Y-9727099D01*
X96756220Y-9691051D01*
X96758141Y-9671542D01*
X96758141Y-9314400D01*
X97115284Y-9314400D01*
X97134793Y-9312479D01*
X97170841Y-9297547D01*
X97198431Y-9269957D01*
X97213363Y-9233909D01*
X97213363Y-9194891D01*
X97198431Y-9158843D01*
X97170841Y-9131253D01*
X97134793Y-9116321D01*
X97115284Y-9114400D01*
X96758141Y-9114400D01*
X96758141Y-8871542D01*
X97529570Y-8871542D01*
X97529570Y-9271542D01*
X97531491Y-9291051D01*
X97546423Y-9327099D01*
X97574013Y-9354689D01*
X97610061Y-9369621D01*
X97629570Y-9371542D01*
X97858141Y-9371542D01*
X97877650Y-9369621D01*
X97913698Y-9354689D01*
X97941288Y-9327099D01*
X97956220Y-9291051D01*
X97956220Y-9252033D01*
X97941288Y-9215985D01*
X97913698Y-9188395D01*
X97877650Y-9173463D01*
X97858141Y-9171542D01*
X97729570Y-9171542D01*
X97729570Y-8912963D01*
X97740730Y-8901803D01*
X97874368Y-8857257D01*
X97956200Y-8857257D01*
X98089836Y-8901802D01*
X98175954Y-8987920D01*
X98220932Y-9077876D01*
X98272427Y-9283852D01*
X98272427Y-9430660D01*
X98220932Y-9636636D01*
X98175954Y-9726593D01*
X98089837Y-9812711D01*
X97956200Y-9857257D01*
X97824607Y-9857257D01*
X97731434Y-9810671D01*
X97713126Y-9803665D01*
X97674206Y-9800899D01*
X97637190Y-9813238D01*
X97607713Y-9838802D01*
X97590264Y-9873701D01*
X97587498Y-9912621D01*
X97599837Y-9949637D01*
X97625401Y-9979114D01*
X97641992Y-9989557D01*
X97756278Y-10046700D01*
X97774586Y-10053706D01*
X97778169Y-10053960D01*
X97781490Y-10055336D01*
X97800999Y-10057257D01*
X97972427Y-10057257D01*
X97982300Y-10056284D01*
X97984934Y-10056472D01*
X97988397Y-10055684D01*
X97991936Y-10055336D01*
X97994378Y-10054324D01*
X98004050Y-10052125D01*
X98175479Y-9994982D01*
X98193379Y-9986991D01*
X98196094Y-9984636D01*
X98199414Y-9983261D01*
X98214567Y-9970824D01*
X98328852Y-9856538D01*
X98335142Y-9848873D01*
X98337141Y-9847140D01*
X98339036Y-9844127D01*
X98341288Y-9841385D01*
X98342297Y-9838947D01*
X98347584Y-9830549D01*
X98404727Y-9716263D01*
X98405272Y-9714836D01*
X98405703Y-9714256D01*
X98408626Y-9706073D01*
X98411733Y-9697955D01*
X98411784Y-9697234D01*
X98412298Y-9695796D01*
X98469441Y-9467224D01*
X98469940Y-9463844D01*
X98470506Y-9462480D01*
X98471229Y-9455128D01*
X98472309Y-9447832D01*
X98472091Y-9446373D01*
X98472427Y-9442971D01*
X98472427Y-9271542D01*
X98472091Y-9268139D01*
X98472309Y-9266681D01*
X98471229Y-9259384D01*
X98470506Y-9252033D01*
X98469940Y-9250668D01*
X98469441Y-9247289D01*
X98412298Y-9018717D01*
X98411784Y-9017278D01*
X98411733Y-9016558D01*
X98408626Y-9008439D01*
X98405703Y-9000257D01*
X98405272Y-8999676D01*
X98404727Y-8998250D01*
X98347584Y-8883964D01*
X98342298Y-8875567D01*
X98341288Y-8873127D01*
X98339034Y-8870381D01*
X98337141Y-8867373D01*
X98335143Y-8865640D01*
X98328851Y-8857974D01*
X98214567Y-8743689D01*
X98199413Y-8731253D01*
X98196094Y-8729878D01*
X98193379Y-8727523D01*
X98175479Y-8719532D01*
X98004050Y-8662389D01*
X97994378Y-8660189D01*
X97991936Y-8659178D01*
X97988397Y-8658829D01*
X97984934Y-8658042D01*
X97982300Y-8658229D01*
X97972427Y-8657257D01*
X97858141Y-8657257D01*
X97848267Y-8658229D01*
X97845633Y-8658042D01*
X97842169Y-8658829D01*
X97838632Y-8659178D01*
X97836190Y-8660189D01*
X97826518Y-8662389D01*
X97655090Y-8719532D01*
X97637190Y-8727523D01*
X97634475Y-8729877D01*
X97631157Y-8731252D01*
X97616003Y-8743688D01*
X97558860Y-8800831D01*
X97546423Y-8815984D01*
X97541899Y-8826907D01*
X97531491Y-8852033D01*
X97529570Y-8871542D01*
X96758141Y-8871542D01*
X96758141Y-8757257D01*
X96756220Y-8737748D01*
X96741288Y-8701700D01*
X96713698Y-8674110D01*
X96677650Y-8659178D01*
X96638632Y-8659178D01*
X96602584Y-8674110D01*
X96574994Y-8701700D01*
X96560062Y-8737748D01*
X96558141Y-8757257D01*
X96558141Y-9114400D01*
X96200999Y-9114400D01*
X96181490Y-9116321D01*
X96145442Y-9131253D01*
X96117852Y-9158843D01*
X96102920Y-9194891D01*
X95727649Y-9194891D01*
X95712717Y-9158843D01*
X95685127Y-9131253D01*
X95649079Y-9116321D01*
X95629570Y-9114400D01*
X94715285Y-9114400D01*
X94695776Y-9116321D01*
X94659728Y-9131253D01*
X94632138Y-9158843D01*
X94617206Y-9194891D01*
X94166572Y-9194891D01*
X94010153Y-8725634D01*
X94002162Y-8707734D01*
X93997477Y-8702333D01*
X93994284Y-8695946D01*
X93984814Y-8687732D01*
X93976597Y-8678258D01*
X93970207Y-8675063D01*
X93964808Y-8670380D01*
X93952910Y-8666414D01*
X93941698Y-8660808D01*
X93934570Y-8660301D01*
X93927792Y-8658042D01*
X93915285Y-8658930D01*
X93902778Y-8658042D01*
X93895999Y-8660301D01*
X93888872Y-8660808D01*
X93877659Y-8666414D01*
X93865762Y-8670380D01*
X93860362Y-8675063D01*
X93853973Y-8678258D01*
X93845757Y-8687729D01*
X93836286Y-8695945D01*
X93833091Y-8702334D01*
X93828408Y-8707734D01*
X93820417Y-8725634D01*
X93420417Y-9925634D01*
X93416070Y-9944750D01*
X93282737Y-9944750D01*
X93282737Y-8523924D01*
X98605760Y-8523924D01*
X98605760Y-10190590D01*
G37*
G36*
X98605760Y-32690590D02*
G01*
X93282737Y-32690590D01*
X93282737Y-32444750D01*
X93416070Y-32444750D01*
X93418836Y-32483670D01*
X93436286Y-32518569D01*
X93465762Y-32544134D01*
X93502778Y-32556472D01*
X93541698Y-32553706D01*
X93576597Y-32536256D01*
X93602162Y-32506780D01*
X93610153Y-32488880D01*
X93915285Y-31573484D01*
X94220417Y-32488880D01*
X94228408Y-32506780D01*
X94253973Y-32536256D01*
X94288872Y-32553706D01*
X94327792Y-32556472D01*
X94364808Y-32544134D01*
X94394284Y-32518568D01*
X94411734Y-32483670D01*
X94414500Y-32444749D01*
X94410153Y-32425634D01*
X94166572Y-31694891D01*
X94617206Y-31694891D01*
X94617206Y-31733909D01*
X94632138Y-31769957D01*
X94659728Y-31797547D01*
X94695776Y-31812479D01*
X94715285Y-31814400D01*
X95629570Y-31814400D01*
X95649079Y-31812479D01*
X95685127Y-31797547D01*
X95712717Y-31769957D01*
X95727649Y-31733909D01*
X95727649Y-31694891D01*
X96102920Y-31694891D01*
X96102920Y-31733909D01*
X96117852Y-31769957D01*
X96145442Y-31797547D01*
X96181490Y-31812479D01*
X96200999Y-31814400D01*
X96558141Y-31814400D01*
X96558141Y-32171542D01*
X96560062Y-32191051D01*
X96574994Y-32227099D01*
X96602584Y-32254689D01*
X96638632Y-32269621D01*
X96677650Y-32269621D01*
X96713698Y-32254689D01*
X96741288Y-32227099D01*
X96756220Y-32191051D01*
X96758141Y-32171542D01*
X96758141Y-31814400D01*
X97115284Y-31814400D01*
X97134793Y-31812479D01*
X97170841Y-31797547D01*
X97198431Y-31769957D01*
X97213363Y-31733909D01*
X97213363Y-31694891D01*
X97198431Y-31658843D01*
X97170841Y-31631253D01*
X97134793Y-31616321D01*
X97115284Y-31614400D01*
X96758141Y-31614400D01*
X96758141Y-31371542D01*
X97529570Y-31371542D01*
X97529570Y-31771542D01*
X97531491Y-31791051D01*
X97546423Y-31827099D01*
X97574013Y-31854689D01*
X97610061Y-31869621D01*
X97629570Y-31871542D01*
X97858141Y-31871542D01*
X97877650Y-31869621D01*
X97913698Y-31854689D01*
X97941288Y-31827099D01*
X97956220Y-31791051D01*
X97956220Y-31752033D01*
X97941288Y-31715985D01*
X97913698Y-31688395D01*
X97877650Y-31673463D01*
X97858141Y-31671542D01*
X97729570Y-31671542D01*
X97729570Y-31412963D01*
X97740730Y-31401803D01*
X97874368Y-31357257D01*
X97956200Y-31357257D01*
X98089836Y-31401802D01*
X98175954Y-31487920D01*
X98220932Y-31577876D01*
X98272427Y-31783852D01*
X98272427Y-31930660D01*
X98220932Y-32136636D01*
X98175954Y-32226593D01*
X98089837Y-32312711D01*
X97956200Y-32357257D01*
X97824607Y-32357257D01*
X97731434Y-32310671D01*
X97713126Y-32303665D01*
X97674206Y-32300899D01*
X97637190Y-32313238D01*
X97607713Y-32338802D01*
X97590264Y-32373701D01*
X97587498Y-32412621D01*
X97599837Y-32449637D01*
X97625401Y-32479114D01*
X97641992Y-32489557D01*
X97756278Y-32546700D01*
X97774586Y-32553706D01*
X97778169Y-32553960D01*
X97781490Y-32555336D01*
X97800999Y-32557257D01*
X97972427Y-32557257D01*
X97982300Y-32556284D01*
X97984934Y-32556472D01*
X97988397Y-32555684D01*
X97991936Y-32555336D01*
X97994378Y-32554324D01*
X98004050Y-32552125D01*
X98175479Y-32494982D01*
X98193379Y-32486991D01*
X98196094Y-32484636D01*
X98199414Y-32483261D01*
X98214567Y-32470824D01*
X98328852Y-32356538D01*
X98335142Y-32348873D01*
X98337141Y-32347140D01*
X98339036Y-32344127D01*
X98341288Y-32341385D01*
X98342297Y-32338947D01*
X98347584Y-32330549D01*
X98404727Y-32216263D01*
X98405272Y-32214836D01*
X98405703Y-32214256D01*
X98408626Y-32206073D01*
X98411733Y-32197955D01*
X98411784Y-32197234D01*
X98412298Y-32195796D01*
X98469441Y-31967224D01*
X98469940Y-31963844D01*
X98470506Y-31962480D01*
X98471229Y-31955128D01*
X98472309Y-31947832D01*
X98472091Y-31946373D01*
X98472427Y-31942971D01*
X98472427Y-31771542D01*
X98472091Y-31768139D01*
X98472309Y-31766681D01*
X98471229Y-31759384D01*
X98470506Y-31752033D01*
X98469940Y-31750668D01*
X98469441Y-31747289D01*
X98412298Y-31518717D01*
X98411784Y-31517278D01*
X98411733Y-31516558D01*
X98408626Y-31508439D01*
X98405703Y-31500257D01*
X98405272Y-31499676D01*
X98404727Y-31498250D01*
X98347584Y-31383964D01*
X98342298Y-31375567D01*
X98341288Y-31373127D01*
X98339034Y-31370381D01*
X98337141Y-31367373D01*
X98335143Y-31365640D01*
X98328851Y-31357974D01*
X98214567Y-31243689D01*
X98199413Y-31231253D01*
X98196094Y-31229878D01*
X98193379Y-31227523D01*
X98175479Y-31219532D01*
X98004050Y-31162389D01*
X97994378Y-31160189D01*
X97991936Y-31159178D01*
X97988397Y-31158829D01*
X97984934Y-31158042D01*
X97982300Y-31158229D01*
X97972427Y-31157257D01*
X97858141Y-31157257D01*
X97848267Y-31158229D01*
X97845633Y-31158042D01*
X97842169Y-31158829D01*
X97838632Y-31159178D01*
X97836190Y-31160189D01*
X97826518Y-31162389D01*
X97655090Y-31219532D01*
X97637190Y-31227523D01*
X97634475Y-31229877D01*
X97631157Y-31231252D01*
X97616003Y-31243688D01*
X97558860Y-31300831D01*
X97546423Y-31315984D01*
X97541899Y-31326907D01*
X97531491Y-31352033D01*
X97529570Y-31371542D01*
X96758141Y-31371542D01*
X96758141Y-31257257D01*
X96756220Y-31237748D01*
X96741288Y-31201700D01*
X96713698Y-31174110D01*
X96677650Y-31159178D01*
X96638632Y-31159178D01*
X96602584Y-31174110D01*
X96574994Y-31201700D01*
X96560062Y-31237748D01*
X96558141Y-31257257D01*
X96558141Y-31614400D01*
X96200999Y-31614400D01*
X96181490Y-31616321D01*
X96145442Y-31631253D01*
X96117852Y-31658843D01*
X96102920Y-31694891D01*
X95727649Y-31694891D01*
X95712717Y-31658843D01*
X95685127Y-31631253D01*
X95649079Y-31616321D01*
X95629570Y-31614400D01*
X94715285Y-31614400D01*
X94695776Y-31616321D01*
X94659728Y-31631253D01*
X94632138Y-31658843D01*
X94617206Y-31694891D01*
X94166572Y-31694891D01*
X94010153Y-31225634D01*
X94002162Y-31207734D01*
X93997477Y-31202333D01*
X93994284Y-31195946D01*
X93984814Y-31187732D01*
X93976597Y-31178258D01*
X93970207Y-31175063D01*
X93964808Y-31170380D01*
X93952910Y-31166414D01*
X93941698Y-31160808D01*
X93934570Y-31160301D01*
X93927792Y-31158042D01*
X93915285Y-31158930D01*
X93902778Y-31158042D01*
X93895999Y-31160301D01*
X93888872Y-31160808D01*
X93877659Y-31166414D01*
X93865762Y-31170380D01*
X93860362Y-31175063D01*
X93853973Y-31178258D01*
X93845757Y-31187729D01*
X93836286Y-31195945D01*
X93833091Y-31202334D01*
X93828408Y-31207734D01*
X93820417Y-31225634D01*
X93420417Y-32425634D01*
X93416070Y-32444750D01*
X93282737Y-32444750D01*
X93282737Y-31023924D01*
X98605760Y-31023924D01*
X98605760Y-32690590D01*
G37*
G36*
X18605760Y-32690590D02*
G01*
X13282737Y-32690590D01*
X13282737Y-32444750D01*
X13416070Y-32444750D01*
X13418836Y-32483670D01*
X13436286Y-32518569D01*
X13465762Y-32544134D01*
X13502778Y-32556472D01*
X13541698Y-32553706D01*
X13576597Y-32536256D01*
X13602162Y-32506780D01*
X13610153Y-32488880D01*
X13915285Y-31573484D01*
X14220417Y-32488880D01*
X14228408Y-32506780D01*
X14253973Y-32536256D01*
X14288872Y-32553706D01*
X14327792Y-32556472D01*
X14364808Y-32544134D01*
X14394284Y-32518568D01*
X14411734Y-32483670D01*
X14414500Y-32444749D01*
X14410153Y-32425634D01*
X14166572Y-31694891D01*
X14617206Y-31694891D01*
X14617206Y-31733909D01*
X14632138Y-31769957D01*
X14659728Y-31797547D01*
X14695776Y-31812479D01*
X14715285Y-31814400D01*
X15629570Y-31814400D01*
X15649079Y-31812479D01*
X15685127Y-31797547D01*
X15712717Y-31769957D01*
X15727649Y-31733909D01*
X15727649Y-31694891D01*
X16102920Y-31694891D01*
X16102920Y-31733909D01*
X16117852Y-31769957D01*
X16145442Y-31797547D01*
X16181490Y-31812479D01*
X16200999Y-31814400D01*
X16558141Y-31814400D01*
X16558141Y-32171542D01*
X16560062Y-32191051D01*
X16574994Y-32227099D01*
X16602584Y-32254689D01*
X16638632Y-32269621D01*
X16677650Y-32269621D01*
X16713698Y-32254689D01*
X16741288Y-32227099D01*
X16756220Y-32191051D01*
X16758141Y-32171542D01*
X16758141Y-31814400D01*
X17115284Y-31814400D01*
X17134793Y-31812479D01*
X17170841Y-31797547D01*
X17198431Y-31769957D01*
X17213363Y-31733909D01*
X17213363Y-31694891D01*
X17198431Y-31658843D01*
X17170841Y-31631253D01*
X17134793Y-31616321D01*
X17115284Y-31614400D01*
X16758141Y-31614400D01*
X16758141Y-31371542D01*
X17529570Y-31371542D01*
X17529570Y-31771542D01*
X17531491Y-31791051D01*
X17546423Y-31827099D01*
X17574013Y-31854689D01*
X17610061Y-31869621D01*
X17629570Y-31871542D01*
X17858141Y-31871542D01*
X17877650Y-31869621D01*
X17913698Y-31854689D01*
X17941288Y-31827099D01*
X17956220Y-31791051D01*
X17956220Y-31752033D01*
X17941288Y-31715985D01*
X17913698Y-31688395D01*
X17877650Y-31673463D01*
X17858141Y-31671542D01*
X17729570Y-31671542D01*
X17729570Y-31412963D01*
X17740730Y-31401803D01*
X17874368Y-31357257D01*
X17956200Y-31357257D01*
X18089836Y-31401802D01*
X18175954Y-31487920D01*
X18220932Y-31577876D01*
X18272427Y-31783852D01*
X18272427Y-31930660D01*
X18220932Y-32136636D01*
X18175954Y-32226593D01*
X18089837Y-32312711D01*
X17956200Y-32357257D01*
X17824607Y-32357257D01*
X17731434Y-32310671D01*
X17713126Y-32303665D01*
X17674206Y-32300899D01*
X17637190Y-32313238D01*
X17607713Y-32338802D01*
X17590264Y-32373701D01*
X17587498Y-32412621D01*
X17599837Y-32449637D01*
X17625401Y-32479114D01*
X17641992Y-32489557D01*
X17756278Y-32546700D01*
X17774586Y-32553706D01*
X17778169Y-32553960D01*
X17781490Y-32555336D01*
X17800999Y-32557257D01*
X17972427Y-32557257D01*
X17982300Y-32556284D01*
X17984934Y-32556472D01*
X17988397Y-32555684D01*
X17991936Y-32555336D01*
X17994378Y-32554324D01*
X18004050Y-32552125D01*
X18175479Y-32494982D01*
X18193379Y-32486991D01*
X18196094Y-32484636D01*
X18199414Y-32483261D01*
X18214567Y-32470824D01*
X18328852Y-32356538D01*
X18335142Y-32348873D01*
X18337141Y-32347140D01*
X18339036Y-32344127D01*
X18341288Y-32341385D01*
X18342297Y-32338947D01*
X18347584Y-32330549D01*
X18404727Y-32216263D01*
X18405272Y-32214836D01*
X18405703Y-32214256D01*
X18408626Y-32206073D01*
X18411733Y-32197955D01*
X18411784Y-32197234D01*
X18412298Y-32195796D01*
X18469441Y-31967224D01*
X18469940Y-31963844D01*
X18470506Y-31962480D01*
X18471229Y-31955128D01*
X18472309Y-31947832D01*
X18472091Y-31946373D01*
X18472427Y-31942971D01*
X18472427Y-31771542D01*
X18472091Y-31768139D01*
X18472309Y-31766681D01*
X18471229Y-31759384D01*
X18470506Y-31752033D01*
X18469940Y-31750668D01*
X18469441Y-31747289D01*
X18412298Y-31518717D01*
X18411784Y-31517278D01*
X18411733Y-31516558D01*
X18408626Y-31508439D01*
X18405703Y-31500257D01*
X18405272Y-31499676D01*
X18404727Y-31498250D01*
X18347584Y-31383964D01*
X18342298Y-31375567D01*
X18341288Y-31373127D01*
X18339034Y-31370381D01*
X18337141Y-31367373D01*
X18335143Y-31365640D01*
X18328851Y-31357974D01*
X18214567Y-31243689D01*
X18199413Y-31231253D01*
X18196094Y-31229878D01*
X18193379Y-31227523D01*
X18175479Y-31219532D01*
X18004050Y-31162389D01*
X17994378Y-31160189D01*
X17991936Y-31159178D01*
X17988397Y-31158829D01*
X17984934Y-31158042D01*
X17982300Y-31158229D01*
X17972427Y-31157257D01*
X17858141Y-31157257D01*
X17848267Y-31158229D01*
X17845633Y-31158042D01*
X17842169Y-31158829D01*
X17838632Y-31159178D01*
X17836190Y-31160189D01*
X17826518Y-31162389D01*
X17655090Y-31219532D01*
X17637190Y-31227523D01*
X17634475Y-31229877D01*
X17631157Y-31231252D01*
X17616003Y-31243688D01*
X17558860Y-31300831D01*
X17546423Y-31315984D01*
X17541899Y-31326907D01*
X17531491Y-31352033D01*
X17529570Y-31371542D01*
X16758141Y-31371542D01*
X16758141Y-31257257D01*
X16756220Y-31237748D01*
X16741288Y-31201700D01*
X16713698Y-31174110D01*
X16677650Y-31159178D01*
X16638632Y-31159178D01*
X16602584Y-31174110D01*
X16574994Y-31201700D01*
X16560062Y-31237748D01*
X16558141Y-31257257D01*
X16558141Y-31614400D01*
X16200999Y-31614400D01*
X16181490Y-31616321D01*
X16145442Y-31631253D01*
X16117852Y-31658843D01*
X16102920Y-31694891D01*
X15727649Y-31694891D01*
X15712717Y-31658843D01*
X15685127Y-31631253D01*
X15649079Y-31616321D01*
X15629570Y-31614400D01*
X14715285Y-31614400D01*
X14695776Y-31616321D01*
X14659728Y-31631253D01*
X14632138Y-31658843D01*
X14617206Y-31694891D01*
X14166572Y-31694891D01*
X14010153Y-31225634D01*
X14002162Y-31207734D01*
X13997477Y-31202333D01*
X13994284Y-31195946D01*
X13984814Y-31187732D01*
X13976597Y-31178258D01*
X13970207Y-31175063D01*
X13964808Y-31170380D01*
X13952910Y-31166414D01*
X13941698Y-31160808D01*
X13934570Y-31160301D01*
X13927792Y-31158042D01*
X13915285Y-31158930D01*
X13902778Y-31158042D01*
X13895999Y-31160301D01*
X13888872Y-31160808D01*
X13877659Y-31166414D01*
X13865762Y-31170380D01*
X13860362Y-31175063D01*
X13853973Y-31178258D01*
X13845757Y-31187729D01*
X13836286Y-31195945D01*
X13833091Y-31202334D01*
X13828408Y-31207734D01*
X13820417Y-31225634D01*
X13420417Y-32425634D01*
X13416070Y-32444750D01*
X13282737Y-32444750D01*
X13282737Y-31023924D01*
X18605760Y-31023924D01*
X18605760Y-32690590D01*
G37*
G36*
X18605760Y-77690590D02*
G01*
X13282737Y-77690590D01*
X13282737Y-77444750D01*
X13416070Y-77444750D01*
X13418836Y-77483670D01*
X13436286Y-77518569D01*
X13465762Y-77544134D01*
X13502778Y-77556472D01*
X13541698Y-77553706D01*
X13576597Y-77536256D01*
X13602162Y-77506780D01*
X13610153Y-77488880D01*
X13915285Y-76573484D01*
X14220417Y-77488880D01*
X14228408Y-77506780D01*
X14253973Y-77536256D01*
X14288872Y-77553706D01*
X14327792Y-77556472D01*
X14364808Y-77544134D01*
X14394284Y-77518568D01*
X14411734Y-77483670D01*
X14414500Y-77444749D01*
X14410153Y-77425634D01*
X14166572Y-76694891D01*
X14617206Y-76694891D01*
X14617206Y-76733909D01*
X14632138Y-76769957D01*
X14659728Y-76797547D01*
X14695776Y-76812479D01*
X14715285Y-76814400D01*
X15629570Y-76814400D01*
X15649079Y-76812479D01*
X15685127Y-76797547D01*
X15712717Y-76769957D01*
X15727649Y-76733909D01*
X15727649Y-76694891D01*
X16102920Y-76694891D01*
X16102920Y-76733909D01*
X16117852Y-76769957D01*
X16145442Y-76797547D01*
X16181490Y-76812479D01*
X16200999Y-76814400D01*
X16558141Y-76814400D01*
X16558141Y-77171542D01*
X16560062Y-77191051D01*
X16574994Y-77227099D01*
X16602584Y-77254689D01*
X16638632Y-77269621D01*
X16677650Y-77269621D01*
X16713698Y-77254689D01*
X16741288Y-77227099D01*
X16756220Y-77191051D01*
X16758141Y-77171542D01*
X16758141Y-76814400D01*
X17115284Y-76814400D01*
X17134793Y-76812479D01*
X17170841Y-76797547D01*
X17198431Y-76769957D01*
X17213363Y-76733909D01*
X17213363Y-76694891D01*
X17198431Y-76658843D01*
X17170841Y-76631253D01*
X17134793Y-76616321D01*
X17115284Y-76614400D01*
X16758141Y-76614400D01*
X16758141Y-76371542D01*
X17529570Y-76371542D01*
X17529570Y-76771542D01*
X17531491Y-76791051D01*
X17546423Y-76827099D01*
X17574013Y-76854689D01*
X17610061Y-76869621D01*
X17629570Y-76871542D01*
X17858141Y-76871542D01*
X17877650Y-76869621D01*
X17913698Y-76854689D01*
X17941288Y-76827099D01*
X17956220Y-76791051D01*
X17956220Y-76752033D01*
X17941288Y-76715985D01*
X17913698Y-76688395D01*
X17877650Y-76673463D01*
X17858141Y-76671542D01*
X17729570Y-76671542D01*
X17729570Y-76412963D01*
X17740730Y-76401803D01*
X17874368Y-76357257D01*
X17956200Y-76357257D01*
X18089836Y-76401802D01*
X18175954Y-76487920D01*
X18220932Y-76577876D01*
X18272427Y-76783852D01*
X18272427Y-76930660D01*
X18220932Y-77136636D01*
X18175954Y-77226593D01*
X18089837Y-77312711D01*
X17956200Y-77357257D01*
X17824607Y-77357257D01*
X17731434Y-77310671D01*
X17713126Y-77303665D01*
X17674206Y-77300899D01*
X17637190Y-77313238D01*
X17607713Y-77338802D01*
X17590264Y-77373701D01*
X17587498Y-77412621D01*
X17599837Y-77449637D01*
X17625401Y-77479114D01*
X17641992Y-77489557D01*
X17756278Y-77546700D01*
X17774586Y-77553706D01*
X17778169Y-77553960D01*
X17781490Y-77555336D01*
X17800999Y-77557257D01*
X17972427Y-77557257D01*
X17982300Y-77556284D01*
X17984934Y-77556472D01*
X17988397Y-77555684D01*
X17991936Y-77555336D01*
X17994378Y-77554324D01*
X18004050Y-77552125D01*
X18175479Y-77494982D01*
X18193379Y-77486991D01*
X18196094Y-77484636D01*
X18199414Y-77483261D01*
X18214567Y-77470824D01*
X18328852Y-77356538D01*
X18335142Y-77348873D01*
X18337141Y-77347140D01*
X18339036Y-77344127D01*
X18341288Y-77341385D01*
X18342297Y-77338947D01*
X18347584Y-77330549D01*
X18404727Y-77216263D01*
X18405272Y-77214836D01*
X18405703Y-77214256D01*
X18408626Y-77206073D01*
X18411733Y-77197955D01*
X18411784Y-77197234D01*
X18412298Y-77195796D01*
X18469441Y-76967224D01*
X18469940Y-76963844D01*
X18470506Y-76962480D01*
X18471229Y-76955128D01*
X18472309Y-76947832D01*
X18472091Y-76946373D01*
X18472427Y-76942971D01*
X18472427Y-76771542D01*
X18472091Y-76768139D01*
X18472309Y-76766681D01*
X18471229Y-76759384D01*
X18470506Y-76752033D01*
X18469940Y-76750668D01*
X18469441Y-76747289D01*
X18412298Y-76518717D01*
X18411784Y-76517278D01*
X18411733Y-76516558D01*
X18408626Y-76508439D01*
X18405703Y-76500257D01*
X18405272Y-76499676D01*
X18404727Y-76498250D01*
X18347584Y-76383964D01*
X18342298Y-76375567D01*
X18341288Y-76373127D01*
X18339034Y-76370381D01*
X18337141Y-76367373D01*
X18335143Y-76365640D01*
X18328851Y-76357974D01*
X18214567Y-76243689D01*
X18199413Y-76231253D01*
X18196094Y-76229878D01*
X18193379Y-76227523D01*
X18175479Y-76219532D01*
X18004050Y-76162389D01*
X17994378Y-76160189D01*
X17991936Y-76159178D01*
X17988397Y-76158829D01*
X17984934Y-76158042D01*
X17982300Y-76158229D01*
X17972427Y-76157257D01*
X17858141Y-76157257D01*
X17848267Y-76158229D01*
X17845633Y-76158042D01*
X17842169Y-76158829D01*
X17838632Y-76159178D01*
X17836190Y-76160189D01*
X17826518Y-76162389D01*
X17655090Y-76219532D01*
X17637190Y-76227523D01*
X17634475Y-76229877D01*
X17631157Y-76231252D01*
X17616003Y-76243688D01*
X17558860Y-76300831D01*
X17546423Y-76315984D01*
X17541899Y-76326907D01*
X17531491Y-76352033D01*
X17529570Y-76371542D01*
X16758141Y-76371542D01*
X16758141Y-76257257D01*
X16756220Y-76237748D01*
X16741288Y-76201700D01*
X16713698Y-76174110D01*
X16677650Y-76159178D01*
X16638632Y-76159178D01*
X16602584Y-76174110D01*
X16574994Y-76201700D01*
X16560062Y-76237748D01*
X16558141Y-76257257D01*
X16558141Y-76614400D01*
X16200999Y-76614400D01*
X16181490Y-76616321D01*
X16145442Y-76631253D01*
X16117852Y-76658843D01*
X16102920Y-76694891D01*
X15727649Y-76694891D01*
X15712717Y-76658843D01*
X15685127Y-76631253D01*
X15649079Y-76616321D01*
X15629570Y-76614400D01*
X14715285Y-76614400D01*
X14695776Y-76616321D01*
X14659728Y-76631253D01*
X14632138Y-76658843D01*
X14617206Y-76694891D01*
X14166572Y-76694891D01*
X14010153Y-76225634D01*
X14002162Y-76207734D01*
X13997477Y-76202333D01*
X13994284Y-76195946D01*
X13984814Y-76187732D01*
X13976597Y-76178258D01*
X13970207Y-76175063D01*
X13964808Y-76170380D01*
X13952910Y-76166414D01*
X13941698Y-76160808D01*
X13934570Y-76160301D01*
X13927792Y-76158042D01*
X13915285Y-76158930D01*
X13902778Y-76158042D01*
X13895999Y-76160301D01*
X13888872Y-76160808D01*
X13877659Y-76166414D01*
X13865762Y-76170380D01*
X13860362Y-76175063D01*
X13853973Y-76178258D01*
X13845757Y-76187729D01*
X13836286Y-76195945D01*
X13833091Y-76202334D01*
X13828408Y-76207734D01*
X13820417Y-76225634D01*
X13420417Y-77425634D01*
X13416070Y-77444750D01*
X13282737Y-77444750D01*
X13282737Y-76023924D01*
X18605760Y-76023924D01*
X18605760Y-77690590D01*
G37*
G36*
X78605760Y-10190590D02*
G01*
X73282737Y-10190590D01*
X73282737Y-9944750D01*
X73416070Y-9944750D01*
X73418836Y-9983670D01*
X73436286Y-10018569D01*
X73465762Y-10044134D01*
X73502778Y-10056472D01*
X73541698Y-10053706D01*
X73576597Y-10036256D01*
X73602162Y-10006780D01*
X73610153Y-9988880D01*
X73915285Y-9073484D01*
X74220417Y-9988880D01*
X74228408Y-10006780D01*
X74253973Y-10036256D01*
X74288872Y-10053706D01*
X74327792Y-10056472D01*
X74364808Y-10044134D01*
X74394284Y-10018568D01*
X74411734Y-9983670D01*
X74414500Y-9944749D01*
X74410153Y-9925634D01*
X74166572Y-9194891D01*
X74617206Y-9194891D01*
X74617206Y-9233909D01*
X74632138Y-9269957D01*
X74659728Y-9297547D01*
X74695776Y-9312479D01*
X74715285Y-9314400D01*
X75629570Y-9314400D01*
X75649079Y-9312479D01*
X75685127Y-9297547D01*
X75712717Y-9269957D01*
X75727649Y-9233909D01*
X75727649Y-9194891D01*
X76102920Y-9194891D01*
X76102920Y-9233909D01*
X76117852Y-9269957D01*
X76145442Y-9297547D01*
X76181490Y-9312479D01*
X76200999Y-9314400D01*
X76558141Y-9314400D01*
X76558141Y-9671542D01*
X76560062Y-9691051D01*
X76574994Y-9727099D01*
X76602584Y-9754689D01*
X76638632Y-9769621D01*
X76677650Y-9769621D01*
X76713698Y-9754689D01*
X76741288Y-9727099D01*
X76756220Y-9691051D01*
X76758141Y-9671542D01*
X76758141Y-9314400D01*
X77115284Y-9314400D01*
X77134793Y-9312479D01*
X77170841Y-9297547D01*
X77198431Y-9269957D01*
X77213363Y-9233909D01*
X77213363Y-9194891D01*
X77198431Y-9158843D01*
X77170841Y-9131253D01*
X77134793Y-9116321D01*
X77115284Y-9114400D01*
X76758141Y-9114400D01*
X76758141Y-8871542D01*
X77529570Y-8871542D01*
X77529570Y-9271542D01*
X77531491Y-9291051D01*
X77546423Y-9327099D01*
X77574013Y-9354689D01*
X77610061Y-9369621D01*
X77629570Y-9371542D01*
X77858141Y-9371542D01*
X77877650Y-9369621D01*
X77913698Y-9354689D01*
X77941288Y-9327099D01*
X77956220Y-9291051D01*
X77956220Y-9252033D01*
X77941288Y-9215985D01*
X77913698Y-9188395D01*
X77877650Y-9173463D01*
X77858141Y-9171542D01*
X77729570Y-9171542D01*
X77729570Y-8912963D01*
X77740730Y-8901803D01*
X77874368Y-8857257D01*
X77956200Y-8857257D01*
X78089836Y-8901802D01*
X78175954Y-8987920D01*
X78220932Y-9077876D01*
X78272427Y-9283852D01*
X78272427Y-9430660D01*
X78220932Y-9636636D01*
X78175954Y-9726593D01*
X78089837Y-9812711D01*
X77956200Y-9857257D01*
X77824607Y-9857257D01*
X77731434Y-9810671D01*
X77713126Y-9803665D01*
X77674206Y-9800899D01*
X77637190Y-9813238D01*
X77607713Y-9838802D01*
X77590264Y-9873701D01*
X77587498Y-9912621D01*
X77599837Y-9949637D01*
X77625401Y-9979114D01*
X77641992Y-9989557D01*
X77756278Y-10046700D01*
X77774586Y-10053706D01*
X77778169Y-10053960D01*
X77781490Y-10055336D01*
X77800999Y-10057257D01*
X77972427Y-10057257D01*
X77982300Y-10056284D01*
X77984934Y-10056472D01*
X77988397Y-10055684D01*
X77991936Y-10055336D01*
X77994378Y-10054324D01*
X78004050Y-10052125D01*
X78175479Y-9994982D01*
X78193379Y-9986991D01*
X78196094Y-9984636D01*
X78199414Y-9983261D01*
X78214567Y-9970824D01*
X78328852Y-9856538D01*
X78335142Y-9848873D01*
X78337141Y-9847140D01*
X78339036Y-9844127D01*
X78341288Y-9841385D01*
X78342297Y-9838947D01*
X78347584Y-9830549D01*
X78404727Y-9716263D01*
X78405272Y-9714836D01*
X78405703Y-9714256D01*
X78408626Y-9706073D01*
X78411733Y-9697955D01*
X78411784Y-9697234D01*
X78412298Y-9695796D01*
X78469441Y-9467224D01*
X78469940Y-9463844D01*
X78470506Y-9462480D01*
X78471229Y-9455128D01*
X78472309Y-9447832D01*
X78472091Y-9446373D01*
X78472427Y-9442971D01*
X78472427Y-9271542D01*
X78472091Y-9268139D01*
X78472309Y-9266681D01*
X78471229Y-9259384D01*
X78470506Y-9252033D01*
X78469940Y-9250668D01*
X78469441Y-9247289D01*
X78412298Y-9018717D01*
X78411784Y-9017278D01*
X78411733Y-9016558D01*
X78408626Y-9008439D01*
X78405703Y-9000257D01*
X78405272Y-8999676D01*
X78404727Y-8998250D01*
X78347584Y-8883964D01*
X78342298Y-8875567D01*
X78341288Y-8873127D01*
X78339034Y-8870381D01*
X78337141Y-8867373D01*
X78335143Y-8865640D01*
X78328851Y-8857974D01*
X78214567Y-8743689D01*
X78199413Y-8731253D01*
X78196094Y-8729878D01*
X78193379Y-8727523D01*
X78175479Y-8719532D01*
X78004050Y-8662389D01*
X77994378Y-8660189D01*
X77991936Y-8659178D01*
X77988397Y-8658829D01*
X77984934Y-8658042D01*
X77982300Y-8658229D01*
X77972427Y-8657257D01*
X77858141Y-8657257D01*
X77848267Y-8658229D01*
X77845633Y-8658042D01*
X77842169Y-8658829D01*
X77838632Y-8659178D01*
X77836190Y-8660189D01*
X77826518Y-8662389D01*
X77655090Y-8719532D01*
X77637190Y-8727523D01*
X77634475Y-8729877D01*
X77631157Y-8731252D01*
X77616003Y-8743688D01*
X77558860Y-8800831D01*
X77546423Y-8815984D01*
X77541899Y-8826907D01*
X77531491Y-8852033D01*
X77529570Y-8871542D01*
X76758141Y-8871542D01*
X76758141Y-8757257D01*
X76756220Y-8737748D01*
X76741288Y-8701700D01*
X76713698Y-8674110D01*
X76677650Y-8659178D01*
X76638632Y-8659178D01*
X76602584Y-8674110D01*
X76574994Y-8701700D01*
X76560062Y-8737748D01*
X76558141Y-8757257D01*
X76558141Y-9114400D01*
X76200999Y-9114400D01*
X76181490Y-9116321D01*
X76145442Y-9131253D01*
X76117852Y-9158843D01*
X76102920Y-9194891D01*
X75727649Y-9194891D01*
X75712717Y-9158843D01*
X75685127Y-9131253D01*
X75649079Y-9116321D01*
X75629570Y-9114400D01*
X74715285Y-9114400D01*
X74695776Y-9116321D01*
X74659728Y-9131253D01*
X74632138Y-9158843D01*
X74617206Y-9194891D01*
X74166572Y-9194891D01*
X74010153Y-8725634D01*
X74002162Y-8707734D01*
X73997477Y-8702333D01*
X73994284Y-8695946D01*
X73984814Y-8687732D01*
X73976597Y-8678258D01*
X73970207Y-8675063D01*
X73964808Y-8670380D01*
X73952910Y-8666414D01*
X73941698Y-8660808D01*
X73934570Y-8660301D01*
X73927792Y-8658042D01*
X73915285Y-8658930D01*
X73902778Y-8658042D01*
X73895999Y-8660301D01*
X73888872Y-8660808D01*
X73877659Y-8666414D01*
X73865762Y-8670380D01*
X73860362Y-8675063D01*
X73853973Y-8678258D01*
X73845757Y-8687729D01*
X73836286Y-8695945D01*
X73833091Y-8702334D01*
X73828408Y-8707734D01*
X73820417Y-8725634D01*
X73420417Y-9925634D01*
X73416070Y-9944750D01*
X73282737Y-9944750D01*
X73282737Y-8523924D01*
X78605760Y-8523924D01*
X78605760Y-10190590D01*
G37*
G36*
X18605760Y-10190590D02*
G01*
X13282737Y-10190590D01*
X13282737Y-9944750D01*
X13416070Y-9944750D01*
X13418836Y-9983670D01*
X13436286Y-10018569D01*
X13465762Y-10044134D01*
X13502778Y-10056472D01*
X13541698Y-10053706D01*
X13576597Y-10036256D01*
X13602162Y-10006780D01*
X13610153Y-9988880D01*
X13915285Y-9073484D01*
X14220417Y-9988880D01*
X14228408Y-10006780D01*
X14253973Y-10036256D01*
X14288872Y-10053706D01*
X14327792Y-10056472D01*
X14364808Y-10044134D01*
X14394284Y-10018568D01*
X14411734Y-9983670D01*
X14414500Y-9944749D01*
X14410153Y-9925634D01*
X14166572Y-9194891D01*
X14617206Y-9194891D01*
X14617206Y-9233909D01*
X14632138Y-9269957D01*
X14659728Y-9297547D01*
X14695776Y-9312479D01*
X14715285Y-9314400D01*
X15629570Y-9314400D01*
X15649079Y-9312479D01*
X15685127Y-9297547D01*
X15712717Y-9269957D01*
X15727649Y-9233909D01*
X15727649Y-9194891D01*
X16102920Y-9194891D01*
X16102920Y-9233909D01*
X16117852Y-9269957D01*
X16145442Y-9297547D01*
X16181490Y-9312479D01*
X16200999Y-9314400D01*
X16558141Y-9314400D01*
X16558141Y-9671542D01*
X16560062Y-9691051D01*
X16574994Y-9727099D01*
X16602584Y-9754689D01*
X16638632Y-9769621D01*
X16677650Y-9769621D01*
X16713698Y-9754689D01*
X16741288Y-9727099D01*
X16756220Y-9691051D01*
X16758141Y-9671542D01*
X16758141Y-9314400D01*
X17115284Y-9314400D01*
X17134793Y-9312479D01*
X17170841Y-9297547D01*
X17198431Y-9269957D01*
X17213363Y-9233909D01*
X17213363Y-9194891D01*
X17198431Y-9158843D01*
X17170841Y-9131253D01*
X17134793Y-9116321D01*
X17115284Y-9114400D01*
X16758141Y-9114400D01*
X16758141Y-8871542D01*
X17529570Y-8871542D01*
X17529570Y-9271542D01*
X17531491Y-9291051D01*
X17546423Y-9327099D01*
X17574013Y-9354689D01*
X17610061Y-9369621D01*
X17629570Y-9371542D01*
X17858141Y-9371542D01*
X17877650Y-9369621D01*
X17913698Y-9354689D01*
X17941288Y-9327099D01*
X17956220Y-9291051D01*
X17956220Y-9252033D01*
X17941288Y-9215985D01*
X17913698Y-9188395D01*
X17877650Y-9173463D01*
X17858141Y-9171542D01*
X17729570Y-9171542D01*
X17729570Y-8912963D01*
X17740730Y-8901803D01*
X17874368Y-8857257D01*
X17956200Y-8857257D01*
X18089836Y-8901802D01*
X18175954Y-8987920D01*
X18220932Y-9077876D01*
X18272427Y-9283852D01*
X18272427Y-9430660D01*
X18220932Y-9636636D01*
X18175954Y-9726593D01*
X18089837Y-9812711D01*
X17956200Y-9857257D01*
X17824607Y-9857257D01*
X17731434Y-9810671D01*
X17713126Y-9803665D01*
X17674206Y-9800899D01*
X17637190Y-9813238D01*
X17607713Y-9838802D01*
X17590264Y-9873701D01*
X17587498Y-9912621D01*
X17599837Y-9949637D01*
X17625401Y-9979114D01*
X17641992Y-9989557D01*
X17756278Y-10046700D01*
X17774586Y-10053706D01*
X17778169Y-10053960D01*
X17781490Y-10055336D01*
X17800999Y-10057257D01*
X17972427Y-10057257D01*
X17982300Y-10056284D01*
X17984934Y-10056472D01*
X17988397Y-10055684D01*
X17991936Y-10055336D01*
X17994378Y-10054324D01*
X18004050Y-10052125D01*
X18175479Y-9994982D01*
X18193379Y-9986991D01*
X18196094Y-9984636D01*
X18199414Y-9983261D01*
X18214567Y-9970824D01*
X18328852Y-9856538D01*
X18335142Y-9848873D01*
X18337141Y-9847140D01*
X18339036Y-9844127D01*
X18341288Y-9841385D01*
X18342297Y-9838947D01*
X18347584Y-9830549D01*
X18404727Y-9716263D01*
X18405272Y-9714836D01*
X18405703Y-9714256D01*
X18408626Y-9706073D01*
X18411733Y-9697955D01*
X18411784Y-9697234D01*
X18412298Y-9695796D01*
X18469441Y-9467224D01*
X18469940Y-9463844D01*
X18470506Y-9462480D01*
X18471229Y-9455128D01*
X18472309Y-9447832D01*
X18472091Y-9446373D01*
X18472427Y-9442971D01*
X18472427Y-9271542D01*
X18472091Y-9268139D01*
X18472309Y-9266681D01*
X18471229Y-9259384D01*
X18470506Y-9252033D01*
X18469940Y-9250668D01*
X18469441Y-9247289D01*
X18412298Y-9018717D01*
X18411784Y-9017278D01*
X18411733Y-9016558D01*
X18408626Y-9008439D01*
X18405703Y-9000257D01*
X18405272Y-8999676D01*
X18404727Y-8998250D01*
X18347584Y-8883964D01*
X18342298Y-8875567D01*
X18341288Y-8873127D01*
X18339034Y-8870381D01*
X18337141Y-8867373D01*
X18335143Y-8865640D01*
X18328851Y-8857974D01*
X18214567Y-8743689D01*
X18199413Y-8731253D01*
X18196094Y-8729878D01*
X18193379Y-8727523D01*
X18175479Y-8719532D01*
X18004050Y-8662389D01*
X17994378Y-8660189D01*
X17991936Y-8659178D01*
X17988397Y-8658829D01*
X17984934Y-8658042D01*
X17982300Y-8658229D01*
X17972427Y-8657257D01*
X17858141Y-8657257D01*
X17848267Y-8658229D01*
X17845633Y-8658042D01*
X17842169Y-8658829D01*
X17838632Y-8659178D01*
X17836190Y-8660189D01*
X17826518Y-8662389D01*
X17655090Y-8719532D01*
X17637190Y-8727523D01*
X17634475Y-8729877D01*
X17631157Y-8731252D01*
X17616003Y-8743688D01*
X17558860Y-8800831D01*
X17546423Y-8815984D01*
X17541899Y-8826907D01*
X17531491Y-8852033D01*
X17529570Y-8871542D01*
X16758141Y-8871542D01*
X16758141Y-8757257D01*
X16756220Y-8737748D01*
X16741288Y-8701700D01*
X16713698Y-8674110D01*
X16677650Y-8659178D01*
X16638632Y-8659178D01*
X16602584Y-8674110D01*
X16574994Y-8701700D01*
X16560062Y-8737748D01*
X16558141Y-8757257D01*
X16558141Y-9114400D01*
X16200999Y-9114400D01*
X16181490Y-9116321D01*
X16145442Y-9131253D01*
X16117852Y-9158843D01*
X16102920Y-9194891D01*
X15727649Y-9194891D01*
X15712717Y-9158843D01*
X15685127Y-9131253D01*
X15649079Y-9116321D01*
X15629570Y-9114400D01*
X14715285Y-9114400D01*
X14695776Y-9116321D01*
X14659728Y-9131253D01*
X14632138Y-9158843D01*
X14617206Y-9194891D01*
X14166572Y-9194891D01*
X14010153Y-8725634D01*
X14002162Y-8707734D01*
X13997477Y-8702333D01*
X13994284Y-8695946D01*
X13984814Y-8687732D01*
X13976597Y-8678258D01*
X13970207Y-8675063D01*
X13964808Y-8670380D01*
X13952910Y-8666414D01*
X13941698Y-8660808D01*
X13934570Y-8660301D01*
X13927792Y-8658042D01*
X13915285Y-8658930D01*
X13902778Y-8658042D01*
X13895999Y-8660301D01*
X13888872Y-8660808D01*
X13877659Y-8666414D01*
X13865762Y-8670380D01*
X13860362Y-8675063D01*
X13853973Y-8678258D01*
X13845757Y-8687729D01*
X13836286Y-8695945D01*
X13833091Y-8702334D01*
X13828408Y-8707734D01*
X13820417Y-8725634D01*
X13420417Y-9925634D01*
X13416070Y-9944750D01*
X13282737Y-9944750D01*
X13282737Y-8523924D01*
X18605760Y-8523924D01*
X18605760Y-10190590D01*
G37*
G36*
X38605760Y-32690590D02*
G01*
X33282737Y-32690590D01*
X33282737Y-32444750D01*
X33416070Y-32444750D01*
X33418836Y-32483670D01*
X33436286Y-32518569D01*
X33465762Y-32544134D01*
X33502778Y-32556472D01*
X33541698Y-32553706D01*
X33576597Y-32536256D01*
X33602162Y-32506780D01*
X33610153Y-32488880D01*
X33915285Y-31573484D01*
X34220417Y-32488880D01*
X34228408Y-32506780D01*
X34253973Y-32536256D01*
X34288872Y-32553706D01*
X34327792Y-32556472D01*
X34364808Y-32544134D01*
X34394284Y-32518568D01*
X34411734Y-32483670D01*
X34414500Y-32444749D01*
X34410153Y-32425634D01*
X34166572Y-31694891D01*
X34617206Y-31694891D01*
X34617206Y-31733909D01*
X34632138Y-31769957D01*
X34659728Y-31797547D01*
X34695776Y-31812479D01*
X34715285Y-31814400D01*
X35629570Y-31814400D01*
X35649079Y-31812479D01*
X35685127Y-31797547D01*
X35712717Y-31769957D01*
X35727649Y-31733909D01*
X35727649Y-31694891D01*
X36102920Y-31694891D01*
X36102920Y-31733909D01*
X36117852Y-31769957D01*
X36145442Y-31797547D01*
X36181490Y-31812479D01*
X36200999Y-31814400D01*
X36558141Y-31814400D01*
X36558141Y-32171542D01*
X36560062Y-32191051D01*
X36574994Y-32227099D01*
X36602584Y-32254689D01*
X36638632Y-32269621D01*
X36677650Y-32269621D01*
X36713698Y-32254689D01*
X36741288Y-32227099D01*
X36756220Y-32191051D01*
X36758141Y-32171542D01*
X36758141Y-31814400D01*
X37115284Y-31814400D01*
X37134793Y-31812479D01*
X37170841Y-31797547D01*
X37198431Y-31769957D01*
X37213363Y-31733909D01*
X37213363Y-31694891D01*
X37198431Y-31658843D01*
X37170841Y-31631253D01*
X37134793Y-31616321D01*
X37115284Y-31614400D01*
X36758141Y-31614400D01*
X36758141Y-31371542D01*
X37529570Y-31371542D01*
X37529570Y-31771542D01*
X37531491Y-31791051D01*
X37546423Y-31827099D01*
X37574013Y-31854689D01*
X37610061Y-31869621D01*
X37629570Y-31871542D01*
X37858141Y-31871542D01*
X37877650Y-31869621D01*
X37913698Y-31854689D01*
X37941288Y-31827099D01*
X37956220Y-31791051D01*
X37956220Y-31752033D01*
X37941288Y-31715985D01*
X37913698Y-31688395D01*
X37877650Y-31673463D01*
X37858141Y-31671542D01*
X37729570Y-31671542D01*
X37729570Y-31412963D01*
X37740730Y-31401803D01*
X37874368Y-31357257D01*
X37956200Y-31357257D01*
X38089836Y-31401802D01*
X38175954Y-31487920D01*
X38220932Y-31577876D01*
X38272427Y-31783852D01*
X38272427Y-31930660D01*
X38220932Y-32136636D01*
X38175954Y-32226593D01*
X38089837Y-32312711D01*
X37956200Y-32357257D01*
X37824607Y-32357257D01*
X37731434Y-32310671D01*
X37713126Y-32303665D01*
X37674206Y-32300899D01*
X37637190Y-32313238D01*
X37607713Y-32338802D01*
X37590264Y-32373701D01*
X37587498Y-32412621D01*
X37599837Y-32449637D01*
X37625401Y-32479114D01*
X37641992Y-32489557D01*
X37756278Y-32546700D01*
X37774586Y-32553706D01*
X37778169Y-32553960D01*
X37781490Y-32555336D01*
X37800999Y-32557257D01*
X37972427Y-32557257D01*
X37982300Y-32556284D01*
X37984934Y-32556472D01*
X37988397Y-32555684D01*
X37991936Y-32555336D01*
X37994378Y-32554324D01*
X38004050Y-32552125D01*
X38175479Y-32494982D01*
X38193379Y-32486991D01*
X38196094Y-32484636D01*
X38199414Y-32483261D01*
X38214567Y-32470824D01*
X38328852Y-32356538D01*
X38335142Y-32348873D01*
X38337141Y-32347140D01*
X38339036Y-32344127D01*
X38341288Y-32341385D01*
X38342297Y-32338947D01*
X38347584Y-32330549D01*
X38404727Y-32216263D01*
X38405272Y-32214836D01*
X38405703Y-32214256D01*
X38408626Y-32206073D01*
X38411733Y-32197955D01*
X38411784Y-32197234D01*
X38412298Y-32195796D01*
X38469441Y-31967224D01*
X38469940Y-31963844D01*
X38470506Y-31962480D01*
X38471229Y-31955128D01*
X38472309Y-31947832D01*
X38472091Y-31946373D01*
X38472427Y-31942971D01*
X38472427Y-31771542D01*
X38472091Y-31768139D01*
X38472309Y-31766681D01*
X38471229Y-31759384D01*
X38470506Y-31752033D01*
X38469940Y-31750668D01*
X38469441Y-31747289D01*
X38412298Y-31518717D01*
X38411784Y-31517278D01*
X38411733Y-31516558D01*
X38408626Y-31508439D01*
X38405703Y-31500257D01*
X38405272Y-31499676D01*
X38404727Y-31498250D01*
X38347584Y-31383964D01*
X38342298Y-31375567D01*
X38341288Y-31373127D01*
X38339034Y-31370381D01*
X38337141Y-31367373D01*
X38335143Y-31365640D01*
X38328851Y-31357974D01*
X38214567Y-31243689D01*
X38199413Y-31231253D01*
X38196094Y-31229878D01*
X38193379Y-31227523D01*
X38175479Y-31219532D01*
X38004050Y-31162389D01*
X37994378Y-31160189D01*
X37991936Y-31159178D01*
X37988397Y-31158829D01*
X37984934Y-31158042D01*
X37982300Y-31158229D01*
X37972427Y-31157257D01*
X37858141Y-31157257D01*
X37848267Y-31158229D01*
X37845633Y-31158042D01*
X37842169Y-31158829D01*
X37838632Y-31159178D01*
X37836190Y-31160189D01*
X37826518Y-31162389D01*
X37655090Y-31219532D01*
X37637190Y-31227523D01*
X37634475Y-31229877D01*
X37631157Y-31231252D01*
X37616003Y-31243688D01*
X37558860Y-31300831D01*
X37546423Y-31315984D01*
X37541899Y-31326907D01*
X37531491Y-31352033D01*
X37529570Y-31371542D01*
X36758141Y-31371542D01*
X36758141Y-31257257D01*
X36756220Y-31237748D01*
X36741288Y-31201700D01*
X36713698Y-31174110D01*
X36677650Y-31159178D01*
X36638632Y-31159178D01*
X36602584Y-31174110D01*
X36574994Y-31201700D01*
X36560062Y-31237748D01*
X36558141Y-31257257D01*
X36558141Y-31614400D01*
X36200999Y-31614400D01*
X36181490Y-31616321D01*
X36145442Y-31631253D01*
X36117852Y-31658843D01*
X36102920Y-31694891D01*
X35727649Y-31694891D01*
X35712717Y-31658843D01*
X35685127Y-31631253D01*
X35649079Y-31616321D01*
X35629570Y-31614400D01*
X34715285Y-31614400D01*
X34695776Y-31616321D01*
X34659728Y-31631253D01*
X34632138Y-31658843D01*
X34617206Y-31694891D01*
X34166572Y-31694891D01*
X34010153Y-31225634D01*
X34002162Y-31207734D01*
X33997477Y-31202333D01*
X33994284Y-31195946D01*
X33984814Y-31187732D01*
X33976597Y-31178258D01*
X33970207Y-31175063D01*
X33964808Y-31170380D01*
X33952910Y-31166414D01*
X33941698Y-31160808D01*
X33934570Y-31160301D01*
X33927792Y-31158042D01*
X33915285Y-31158930D01*
X33902778Y-31158042D01*
X33895999Y-31160301D01*
X33888872Y-31160808D01*
X33877659Y-31166414D01*
X33865762Y-31170380D01*
X33860362Y-31175063D01*
X33853973Y-31178258D01*
X33845757Y-31187729D01*
X33836286Y-31195945D01*
X33833091Y-31202334D01*
X33828408Y-31207734D01*
X33820417Y-31225634D01*
X33420417Y-32425634D01*
X33416070Y-32444750D01*
X33282737Y-32444750D01*
X33282737Y-31023924D01*
X38605760Y-31023924D01*
X38605760Y-32690590D01*
G37*
G36*
X58605760Y-32690590D02*
G01*
X53282737Y-32690590D01*
X53282737Y-32444750D01*
X53416070Y-32444750D01*
X53418836Y-32483670D01*
X53436286Y-32518569D01*
X53465762Y-32544134D01*
X53502778Y-32556472D01*
X53541698Y-32553706D01*
X53576597Y-32536256D01*
X53602162Y-32506780D01*
X53610153Y-32488880D01*
X53915285Y-31573484D01*
X54220417Y-32488880D01*
X54228408Y-32506780D01*
X54253973Y-32536256D01*
X54288872Y-32553706D01*
X54327792Y-32556472D01*
X54364808Y-32544134D01*
X54394284Y-32518568D01*
X54411734Y-32483670D01*
X54414500Y-32444749D01*
X54410153Y-32425634D01*
X54166572Y-31694891D01*
X54617206Y-31694891D01*
X54617206Y-31733909D01*
X54632138Y-31769957D01*
X54659728Y-31797547D01*
X54695776Y-31812479D01*
X54715285Y-31814400D01*
X55629570Y-31814400D01*
X55649079Y-31812479D01*
X55685127Y-31797547D01*
X55712717Y-31769957D01*
X55727649Y-31733909D01*
X55727649Y-31694891D01*
X56102920Y-31694891D01*
X56102920Y-31733909D01*
X56117852Y-31769957D01*
X56145442Y-31797547D01*
X56181490Y-31812479D01*
X56200999Y-31814400D01*
X56558141Y-31814400D01*
X56558141Y-32171542D01*
X56560062Y-32191051D01*
X56574994Y-32227099D01*
X56602584Y-32254689D01*
X56638632Y-32269621D01*
X56677650Y-32269621D01*
X56713698Y-32254689D01*
X56741288Y-32227099D01*
X56756220Y-32191051D01*
X56758141Y-32171542D01*
X56758141Y-31814400D01*
X57115284Y-31814400D01*
X57134793Y-31812479D01*
X57170841Y-31797547D01*
X57198431Y-31769957D01*
X57213363Y-31733909D01*
X57213363Y-31694891D01*
X57198431Y-31658843D01*
X57170841Y-31631253D01*
X57134793Y-31616321D01*
X57115284Y-31614400D01*
X56758141Y-31614400D01*
X56758141Y-31371542D01*
X57529570Y-31371542D01*
X57529570Y-31771542D01*
X57531491Y-31791051D01*
X57546423Y-31827099D01*
X57574013Y-31854689D01*
X57610061Y-31869621D01*
X57629570Y-31871542D01*
X57858141Y-31871542D01*
X57877650Y-31869621D01*
X57913698Y-31854689D01*
X57941288Y-31827099D01*
X57956220Y-31791051D01*
X57956220Y-31752033D01*
X57941288Y-31715985D01*
X57913698Y-31688395D01*
X57877650Y-31673463D01*
X57858141Y-31671542D01*
X57729570Y-31671542D01*
X57729570Y-31412963D01*
X57740730Y-31401803D01*
X57874368Y-31357257D01*
X57956200Y-31357257D01*
X58089836Y-31401802D01*
X58175954Y-31487920D01*
X58220932Y-31577876D01*
X58272427Y-31783852D01*
X58272427Y-31930660D01*
X58220932Y-32136636D01*
X58175954Y-32226593D01*
X58089837Y-32312711D01*
X57956200Y-32357257D01*
X57824607Y-32357257D01*
X57731434Y-32310671D01*
X57713126Y-32303665D01*
X57674206Y-32300899D01*
X57637190Y-32313238D01*
X57607713Y-32338802D01*
X57590264Y-32373701D01*
X57587498Y-32412621D01*
X57599837Y-32449637D01*
X57625401Y-32479114D01*
X57641992Y-32489557D01*
X57756278Y-32546700D01*
X57774586Y-32553706D01*
X57778169Y-32553960D01*
X57781490Y-32555336D01*
X57800999Y-32557257D01*
X57972427Y-32557257D01*
X57982300Y-32556284D01*
X57984934Y-32556472D01*
X57988397Y-32555684D01*
X57991936Y-32555336D01*
X57994378Y-32554324D01*
X58004050Y-32552125D01*
X58175479Y-32494982D01*
X58193379Y-32486991D01*
X58196094Y-32484636D01*
X58199414Y-32483261D01*
X58214567Y-32470824D01*
X58328852Y-32356538D01*
X58335142Y-32348873D01*
X58337141Y-32347140D01*
X58339036Y-32344127D01*
X58341288Y-32341385D01*
X58342297Y-32338947D01*
X58347584Y-32330549D01*
X58404727Y-32216263D01*
X58405272Y-32214836D01*
X58405703Y-32214256D01*
X58408626Y-32206073D01*
X58411733Y-32197955D01*
X58411784Y-32197234D01*
X58412298Y-32195796D01*
X58469441Y-31967224D01*
X58469940Y-31963844D01*
X58470506Y-31962480D01*
X58471229Y-31955128D01*
X58472309Y-31947832D01*
X58472091Y-31946373D01*
X58472427Y-31942971D01*
X58472427Y-31771542D01*
X58472091Y-31768139D01*
X58472309Y-31766681D01*
X58471229Y-31759384D01*
X58470506Y-31752033D01*
X58469940Y-31750668D01*
X58469441Y-31747289D01*
X58412298Y-31518717D01*
X58411784Y-31517278D01*
X58411733Y-31516558D01*
X58408626Y-31508439D01*
X58405703Y-31500257D01*
X58405272Y-31499676D01*
X58404727Y-31498250D01*
X58347584Y-31383964D01*
X58342298Y-31375567D01*
X58341288Y-31373127D01*
X58339034Y-31370381D01*
X58337141Y-31367373D01*
X58335143Y-31365640D01*
X58328851Y-31357974D01*
X58214567Y-31243689D01*
X58199413Y-31231253D01*
X58196094Y-31229878D01*
X58193379Y-31227523D01*
X58175479Y-31219532D01*
X58004050Y-31162389D01*
X57994378Y-31160189D01*
X57991936Y-31159178D01*
X57988397Y-31158829D01*
X57984934Y-31158042D01*
X57982300Y-31158229D01*
X57972427Y-31157257D01*
X57858141Y-31157257D01*
X57848267Y-31158229D01*
X57845633Y-31158042D01*
X57842169Y-31158829D01*
X57838632Y-31159178D01*
X57836190Y-31160189D01*
X57826518Y-31162389D01*
X57655090Y-31219532D01*
X57637190Y-31227523D01*
X57634475Y-31229877D01*
X57631157Y-31231252D01*
X57616003Y-31243688D01*
X57558860Y-31300831D01*
X57546423Y-31315984D01*
X57541899Y-31326907D01*
X57531491Y-31352033D01*
X57529570Y-31371542D01*
X56758141Y-31371542D01*
X56758141Y-31257257D01*
X56756220Y-31237748D01*
X56741288Y-31201700D01*
X56713698Y-31174110D01*
X56677650Y-31159178D01*
X56638632Y-31159178D01*
X56602584Y-31174110D01*
X56574994Y-31201700D01*
X56560062Y-31237748D01*
X56558141Y-31257257D01*
X56558141Y-31614400D01*
X56200999Y-31614400D01*
X56181490Y-31616321D01*
X56145442Y-31631253D01*
X56117852Y-31658843D01*
X56102920Y-31694891D01*
X55727649Y-31694891D01*
X55712717Y-31658843D01*
X55685127Y-31631253D01*
X55649079Y-31616321D01*
X55629570Y-31614400D01*
X54715285Y-31614400D01*
X54695776Y-31616321D01*
X54659728Y-31631253D01*
X54632138Y-31658843D01*
X54617206Y-31694891D01*
X54166572Y-31694891D01*
X54010153Y-31225634D01*
X54002162Y-31207734D01*
X53997477Y-31202333D01*
X53994284Y-31195946D01*
X53984814Y-31187732D01*
X53976597Y-31178258D01*
X53970207Y-31175063D01*
X53964808Y-31170380D01*
X53952910Y-31166414D01*
X53941698Y-31160808D01*
X53934570Y-31160301D01*
X53927792Y-31158042D01*
X53915285Y-31158930D01*
X53902778Y-31158042D01*
X53895999Y-31160301D01*
X53888872Y-31160808D01*
X53877659Y-31166414D01*
X53865762Y-31170380D01*
X53860362Y-31175063D01*
X53853973Y-31178258D01*
X53845757Y-31187729D01*
X53836286Y-31195945D01*
X53833091Y-31202334D01*
X53828408Y-31207734D01*
X53820417Y-31225634D01*
X53420417Y-32425634D01*
X53416070Y-32444750D01*
X53282737Y-32444750D01*
X53282737Y-31023924D01*
X58605760Y-31023924D01*
X58605760Y-32690590D01*
G37*
G36*
X38605760Y-10190590D02*
G01*
X33282737Y-10190590D01*
X33282737Y-9944750D01*
X33416070Y-9944750D01*
X33418836Y-9983670D01*
X33436286Y-10018569D01*
X33465762Y-10044134D01*
X33502778Y-10056472D01*
X33541698Y-10053706D01*
X33576597Y-10036256D01*
X33602162Y-10006780D01*
X33610153Y-9988880D01*
X33915285Y-9073484D01*
X34220417Y-9988880D01*
X34228408Y-10006780D01*
X34253973Y-10036256D01*
X34288872Y-10053706D01*
X34327792Y-10056472D01*
X34364808Y-10044134D01*
X34394284Y-10018568D01*
X34411734Y-9983670D01*
X34414500Y-9944749D01*
X34410153Y-9925634D01*
X34166572Y-9194891D01*
X34617206Y-9194891D01*
X34617206Y-9233909D01*
X34632138Y-9269957D01*
X34659728Y-9297547D01*
X34695776Y-9312479D01*
X34715285Y-9314400D01*
X35629570Y-9314400D01*
X35649079Y-9312479D01*
X35685127Y-9297547D01*
X35712717Y-9269957D01*
X35727649Y-9233909D01*
X35727649Y-9194891D01*
X36102920Y-9194891D01*
X36102920Y-9233909D01*
X36117852Y-9269957D01*
X36145442Y-9297547D01*
X36181490Y-9312479D01*
X36200999Y-9314400D01*
X36558141Y-9314400D01*
X36558141Y-9671542D01*
X36560062Y-9691051D01*
X36574994Y-9727099D01*
X36602584Y-9754689D01*
X36638632Y-9769621D01*
X36677650Y-9769621D01*
X36713698Y-9754689D01*
X36741288Y-9727099D01*
X36756220Y-9691051D01*
X36758141Y-9671542D01*
X36758141Y-9314400D01*
X37115284Y-9314400D01*
X37134793Y-9312479D01*
X37170841Y-9297547D01*
X37198431Y-9269957D01*
X37213363Y-9233909D01*
X37213363Y-9194891D01*
X37198431Y-9158843D01*
X37170841Y-9131253D01*
X37134793Y-9116321D01*
X37115284Y-9114400D01*
X36758141Y-9114400D01*
X36758141Y-8871542D01*
X37529570Y-8871542D01*
X37529570Y-9271542D01*
X37531491Y-9291051D01*
X37546423Y-9327099D01*
X37574013Y-9354689D01*
X37610061Y-9369621D01*
X37629570Y-9371542D01*
X37858141Y-9371542D01*
X37877650Y-9369621D01*
X37913698Y-9354689D01*
X37941288Y-9327099D01*
X37956220Y-9291051D01*
X37956220Y-9252033D01*
X37941288Y-9215985D01*
X37913698Y-9188395D01*
X37877650Y-9173463D01*
X37858141Y-9171542D01*
X37729570Y-9171542D01*
X37729570Y-8912963D01*
X37740730Y-8901803D01*
X37874368Y-8857257D01*
X37956200Y-8857257D01*
X38089836Y-8901802D01*
X38175954Y-8987920D01*
X38220932Y-9077876D01*
X38272427Y-9283852D01*
X38272427Y-9430660D01*
X38220932Y-9636636D01*
X38175954Y-9726593D01*
X38089837Y-9812711D01*
X37956200Y-9857257D01*
X37824607Y-9857257D01*
X37731434Y-9810671D01*
X37713126Y-9803665D01*
X37674206Y-9800899D01*
X37637190Y-9813238D01*
X37607713Y-9838802D01*
X37590264Y-9873701D01*
X37587498Y-9912621D01*
X37599837Y-9949637D01*
X37625401Y-9979114D01*
X37641992Y-9989557D01*
X37756278Y-10046700D01*
X37774586Y-10053706D01*
X37778169Y-10053960D01*
X37781490Y-10055336D01*
X37800999Y-10057257D01*
X37972427Y-10057257D01*
X37982300Y-10056284D01*
X37984934Y-10056472D01*
X37988397Y-10055684D01*
X37991936Y-10055336D01*
X37994378Y-10054324D01*
X38004050Y-10052125D01*
X38175479Y-9994982D01*
X38193379Y-9986991D01*
X38196094Y-9984636D01*
X38199414Y-9983261D01*
X38214567Y-9970824D01*
X38328852Y-9856538D01*
X38335142Y-9848873D01*
X38337141Y-9847140D01*
X38339036Y-9844127D01*
X38341288Y-9841385D01*
X38342297Y-9838947D01*
X38347584Y-9830549D01*
X38404727Y-9716263D01*
X38405272Y-9714836D01*
X38405703Y-9714256D01*
X38408626Y-9706073D01*
X38411733Y-9697955D01*
X38411784Y-9697234D01*
X38412298Y-9695796D01*
X38469441Y-9467224D01*
X38469940Y-9463844D01*
X38470506Y-9462480D01*
X38471229Y-9455128D01*
X38472309Y-9447832D01*
X38472091Y-9446373D01*
X38472427Y-9442971D01*
X38472427Y-9271542D01*
X38472091Y-9268139D01*
X38472309Y-9266681D01*
X38471229Y-9259384D01*
X38470506Y-9252033D01*
X38469940Y-9250668D01*
X38469441Y-9247289D01*
X38412298Y-9018717D01*
X38411784Y-9017278D01*
X38411733Y-9016558D01*
X38408626Y-9008439D01*
X38405703Y-9000257D01*
X38405272Y-8999676D01*
X38404727Y-8998250D01*
X38347584Y-8883964D01*
X38342298Y-8875567D01*
X38341288Y-8873127D01*
X38339034Y-8870381D01*
X38337141Y-8867373D01*
X38335143Y-8865640D01*
X38328851Y-8857974D01*
X38214567Y-8743689D01*
X38199413Y-8731253D01*
X38196094Y-8729878D01*
X38193379Y-8727523D01*
X38175479Y-8719532D01*
X38004050Y-8662389D01*
X37994378Y-8660189D01*
X37991936Y-8659178D01*
X37988397Y-8658829D01*
X37984934Y-8658042D01*
X37982300Y-8658229D01*
X37972427Y-8657257D01*
X37858141Y-8657257D01*
X37848267Y-8658229D01*
X37845633Y-8658042D01*
X37842169Y-8658829D01*
X37838632Y-8659178D01*
X37836190Y-8660189D01*
X37826518Y-8662389D01*
X37655090Y-8719532D01*
X37637190Y-8727523D01*
X37634475Y-8729877D01*
X37631157Y-8731252D01*
X37616003Y-8743688D01*
X37558860Y-8800831D01*
X37546423Y-8815984D01*
X37541899Y-8826907D01*
X37531491Y-8852033D01*
X37529570Y-8871542D01*
X36758141Y-8871542D01*
X36758141Y-8757257D01*
X36756220Y-8737748D01*
X36741288Y-8701700D01*
X36713698Y-8674110D01*
X36677650Y-8659178D01*
X36638632Y-8659178D01*
X36602584Y-8674110D01*
X36574994Y-8701700D01*
X36560062Y-8737748D01*
X36558141Y-8757257D01*
X36558141Y-9114400D01*
X36200999Y-9114400D01*
X36181490Y-9116321D01*
X36145442Y-9131253D01*
X36117852Y-9158843D01*
X36102920Y-9194891D01*
X35727649Y-9194891D01*
X35712717Y-9158843D01*
X35685127Y-9131253D01*
X35649079Y-9116321D01*
X35629570Y-9114400D01*
X34715285Y-9114400D01*
X34695776Y-9116321D01*
X34659728Y-9131253D01*
X34632138Y-9158843D01*
X34617206Y-9194891D01*
X34166572Y-9194891D01*
X34010153Y-8725634D01*
X34002162Y-8707734D01*
X33997477Y-8702333D01*
X33994284Y-8695946D01*
X33984814Y-8687732D01*
X33976597Y-8678258D01*
X33970207Y-8675063D01*
X33964808Y-8670380D01*
X33952910Y-8666414D01*
X33941698Y-8660808D01*
X33934570Y-8660301D01*
X33927792Y-8658042D01*
X33915285Y-8658930D01*
X33902778Y-8658042D01*
X33895999Y-8660301D01*
X33888872Y-8660808D01*
X33877659Y-8666414D01*
X33865762Y-8670380D01*
X33860362Y-8675063D01*
X33853973Y-8678258D01*
X33845757Y-8687729D01*
X33836286Y-8695945D01*
X33833091Y-8702334D01*
X33828408Y-8707734D01*
X33820417Y-8725634D01*
X33420417Y-9925634D01*
X33416070Y-9944750D01*
X33282737Y-9944750D01*
X33282737Y-8523924D01*
X38605760Y-8523924D01*
X38605760Y-10190590D01*
G37*
G36*
X78605760Y-55190590D02*
G01*
X73282737Y-55190590D01*
X73282737Y-54944750D01*
X73416070Y-54944750D01*
X73418836Y-54983670D01*
X73436286Y-55018569D01*
X73465762Y-55044134D01*
X73502778Y-55056472D01*
X73541698Y-55053706D01*
X73576597Y-55036256D01*
X73602162Y-55006780D01*
X73610153Y-54988880D01*
X73915285Y-54073484D01*
X74220417Y-54988880D01*
X74228408Y-55006780D01*
X74253973Y-55036256D01*
X74288872Y-55053706D01*
X74327792Y-55056472D01*
X74364808Y-55044134D01*
X74394284Y-55018568D01*
X74411734Y-54983670D01*
X74414500Y-54944749D01*
X74410153Y-54925634D01*
X74166572Y-54194891D01*
X74617206Y-54194891D01*
X74617206Y-54233909D01*
X74632138Y-54269957D01*
X74659728Y-54297547D01*
X74695776Y-54312479D01*
X74715285Y-54314400D01*
X75629570Y-54314400D01*
X75649079Y-54312479D01*
X75685127Y-54297547D01*
X75712717Y-54269957D01*
X75727649Y-54233909D01*
X75727649Y-54194891D01*
X76102920Y-54194891D01*
X76102920Y-54233909D01*
X76117852Y-54269957D01*
X76145442Y-54297547D01*
X76181490Y-54312479D01*
X76200999Y-54314400D01*
X76558141Y-54314400D01*
X76558141Y-54671542D01*
X76560062Y-54691051D01*
X76574994Y-54727099D01*
X76602584Y-54754689D01*
X76638632Y-54769621D01*
X76677650Y-54769621D01*
X76713698Y-54754689D01*
X76741288Y-54727099D01*
X76756220Y-54691051D01*
X76758141Y-54671542D01*
X76758141Y-54314400D01*
X77115284Y-54314400D01*
X77134793Y-54312479D01*
X77170841Y-54297547D01*
X77198431Y-54269957D01*
X77213363Y-54233909D01*
X77213363Y-54194891D01*
X77198431Y-54158843D01*
X77170841Y-54131253D01*
X77134793Y-54116321D01*
X77115284Y-54114400D01*
X76758141Y-54114400D01*
X76758141Y-53871542D01*
X77529570Y-53871542D01*
X77529570Y-54271542D01*
X77531491Y-54291051D01*
X77546423Y-54327099D01*
X77574013Y-54354689D01*
X77610061Y-54369621D01*
X77629570Y-54371542D01*
X77858141Y-54371542D01*
X77877650Y-54369621D01*
X77913698Y-54354689D01*
X77941288Y-54327099D01*
X77956220Y-54291051D01*
X77956220Y-54252033D01*
X77941288Y-54215985D01*
X77913698Y-54188395D01*
X77877650Y-54173463D01*
X77858141Y-54171542D01*
X77729570Y-54171542D01*
X77729570Y-53912963D01*
X77740730Y-53901803D01*
X77874368Y-53857257D01*
X77956200Y-53857257D01*
X78089836Y-53901802D01*
X78175954Y-53987920D01*
X78220932Y-54077876D01*
X78272427Y-54283852D01*
X78272427Y-54430660D01*
X78220932Y-54636636D01*
X78175954Y-54726593D01*
X78089837Y-54812711D01*
X77956200Y-54857257D01*
X77824607Y-54857257D01*
X77731434Y-54810671D01*
X77713126Y-54803665D01*
X77674206Y-54800899D01*
X77637190Y-54813238D01*
X77607713Y-54838802D01*
X77590264Y-54873701D01*
X77587498Y-54912621D01*
X77599837Y-54949637D01*
X77625401Y-54979114D01*
X77641992Y-54989557D01*
X77756278Y-55046700D01*
X77774586Y-55053706D01*
X77778169Y-55053960D01*
X77781490Y-55055336D01*
X77800999Y-55057257D01*
X77972427Y-55057257D01*
X77982300Y-55056284D01*
X77984934Y-55056472D01*
X77988397Y-55055684D01*
X77991936Y-55055336D01*
X77994378Y-55054324D01*
X78004050Y-55052125D01*
X78175479Y-54994982D01*
X78193379Y-54986991D01*
X78196094Y-54984636D01*
X78199414Y-54983261D01*
X78214567Y-54970824D01*
X78328852Y-54856538D01*
X78335142Y-54848873D01*
X78337141Y-54847140D01*
X78339036Y-54844127D01*
X78341288Y-54841385D01*
X78342297Y-54838947D01*
X78347584Y-54830549D01*
X78404727Y-54716263D01*
X78405272Y-54714836D01*
X78405703Y-54714256D01*
X78408626Y-54706073D01*
X78411733Y-54697955D01*
X78411784Y-54697234D01*
X78412298Y-54695796D01*
X78469441Y-54467224D01*
X78469940Y-54463844D01*
X78470506Y-54462480D01*
X78471229Y-54455128D01*
X78472309Y-54447832D01*
X78472091Y-54446373D01*
X78472427Y-54442971D01*
X78472427Y-54271542D01*
X78472091Y-54268139D01*
X78472309Y-54266681D01*
X78471229Y-54259384D01*
X78470506Y-54252033D01*
X78469940Y-54250668D01*
X78469441Y-54247289D01*
X78412298Y-54018717D01*
X78411784Y-54017278D01*
X78411733Y-54016558D01*
X78408626Y-54008439D01*
X78405703Y-54000257D01*
X78405272Y-53999676D01*
X78404727Y-53998250D01*
X78347584Y-53883964D01*
X78342298Y-53875567D01*
X78341288Y-53873127D01*
X78339034Y-53870381D01*
X78337141Y-53867373D01*
X78335143Y-53865640D01*
X78328851Y-53857974D01*
X78214567Y-53743689D01*
X78199413Y-53731253D01*
X78196094Y-53729878D01*
X78193379Y-53727523D01*
X78175479Y-53719532D01*
X78004050Y-53662389D01*
X77994378Y-53660189D01*
X77991936Y-53659178D01*
X77988397Y-53658829D01*
X77984934Y-53658042D01*
X77982300Y-53658229D01*
X77972427Y-53657257D01*
X77858141Y-53657257D01*
X77848267Y-53658229D01*
X77845633Y-53658042D01*
X77842169Y-53658829D01*
X77838632Y-53659178D01*
X77836190Y-53660189D01*
X77826518Y-53662389D01*
X77655090Y-53719532D01*
X77637190Y-53727523D01*
X77634475Y-53729877D01*
X77631157Y-53731252D01*
X77616003Y-53743688D01*
X77558860Y-53800831D01*
X77546423Y-53815984D01*
X77541899Y-53826907D01*
X77531491Y-53852033D01*
X77529570Y-53871542D01*
X76758141Y-53871542D01*
X76758141Y-53757257D01*
X76756220Y-53737748D01*
X76741288Y-53701700D01*
X76713698Y-53674110D01*
X76677650Y-53659178D01*
X76638632Y-53659178D01*
X76602584Y-53674110D01*
X76574994Y-53701700D01*
X76560062Y-53737748D01*
X76558141Y-53757257D01*
X76558141Y-54114400D01*
X76200999Y-54114400D01*
X76181490Y-54116321D01*
X76145442Y-54131253D01*
X76117852Y-54158843D01*
X76102920Y-54194891D01*
X75727649Y-54194891D01*
X75712717Y-54158843D01*
X75685127Y-54131253D01*
X75649079Y-54116321D01*
X75629570Y-54114400D01*
X74715285Y-54114400D01*
X74695776Y-54116321D01*
X74659728Y-54131253D01*
X74632138Y-54158843D01*
X74617206Y-54194891D01*
X74166572Y-54194891D01*
X74010153Y-53725634D01*
X74002162Y-53707734D01*
X73997477Y-53702333D01*
X73994284Y-53695946D01*
X73984814Y-53687732D01*
X73976597Y-53678258D01*
X73970207Y-53675063D01*
X73964808Y-53670380D01*
X73952910Y-53666414D01*
X73941698Y-53660808D01*
X73934570Y-53660301D01*
X73927792Y-53658042D01*
X73915285Y-53658930D01*
X73902778Y-53658042D01*
X73895999Y-53660301D01*
X73888872Y-53660808D01*
X73877659Y-53666414D01*
X73865762Y-53670380D01*
X73860362Y-53675063D01*
X73853973Y-53678258D01*
X73845757Y-53687729D01*
X73836286Y-53695945D01*
X73833091Y-53702334D01*
X73828408Y-53707734D01*
X73820417Y-53725634D01*
X73420417Y-54925634D01*
X73416070Y-54944750D01*
X73282737Y-54944750D01*
X73282737Y-53523924D01*
X78605760Y-53523924D01*
X78605760Y-55190590D01*
G37*
G36*
X38605760Y-55190590D02*
G01*
X33282737Y-55190590D01*
X33282737Y-54944750D01*
X33416070Y-54944750D01*
X33418836Y-54983670D01*
X33436286Y-55018569D01*
X33465762Y-55044134D01*
X33502778Y-55056472D01*
X33541698Y-55053706D01*
X33576597Y-55036256D01*
X33602162Y-55006780D01*
X33610153Y-54988880D01*
X33915285Y-54073484D01*
X34220417Y-54988880D01*
X34228408Y-55006780D01*
X34253973Y-55036256D01*
X34288872Y-55053706D01*
X34327792Y-55056472D01*
X34364808Y-55044134D01*
X34394284Y-55018568D01*
X34411734Y-54983670D01*
X34414500Y-54944749D01*
X34410153Y-54925634D01*
X34166572Y-54194891D01*
X34617206Y-54194891D01*
X34617206Y-54233909D01*
X34632138Y-54269957D01*
X34659728Y-54297547D01*
X34695776Y-54312479D01*
X34715285Y-54314400D01*
X35629570Y-54314400D01*
X35649079Y-54312479D01*
X35685127Y-54297547D01*
X35712717Y-54269957D01*
X35727649Y-54233909D01*
X35727649Y-54194891D01*
X36102920Y-54194891D01*
X36102920Y-54233909D01*
X36117852Y-54269957D01*
X36145442Y-54297547D01*
X36181490Y-54312479D01*
X36200999Y-54314400D01*
X36558141Y-54314400D01*
X36558141Y-54671542D01*
X36560062Y-54691051D01*
X36574994Y-54727099D01*
X36602584Y-54754689D01*
X36638632Y-54769621D01*
X36677650Y-54769621D01*
X36713698Y-54754689D01*
X36741288Y-54727099D01*
X36756220Y-54691051D01*
X36758141Y-54671542D01*
X36758141Y-54314400D01*
X37115284Y-54314400D01*
X37134793Y-54312479D01*
X37170841Y-54297547D01*
X37198431Y-54269957D01*
X37213363Y-54233909D01*
X37213363Y-54194891D01*
X37198431Y-54158843D01*
X37170841Y-54131253D01*
X37134793Y-54116321D01*
X37115284Y-54114400D01*
X36758141Y-54114400D01*
X36758141Y-53871542D01*
X37529570Y-53871542D01*
X37529570Y-54271542D01*
X37531491Y-54291051D01*
X37546423Y-54327099D01*
X37574013Y-54354689D01*
X37610061Y-54369621D01*
X37629570Y-54371542D01*
X37858141Y-54371542D01*
X37877650Y-54369621D01*
X37913698Y-54354689D01*
X37941288Y-54327099D01*
X37956220Y-54291051D01*
X37956220Y-54252033D01*
X37941288Y-54215985D01*
X37913698Y-54188395D01*
X37877650Y-54173463D01*
X37858141Y-54171542D01*
X37729570Y-54171542D01*
X37729570Y-53912963D01*
X37740730Y-53901803D01*
X37874368Y-53857257D01*
X37956200Y-53857257D01*
X38089836Y-53901802D01*
X38175954Y-53987920D01*
X38220932Y-54077876D01*
X38272427Y-54283852D01*
X38272427Y-54430660D01*
X38220932Y-54636636D01*
X38175954Y-54726593D01*
X38089837Y-54812711D01*
X37956200Y-54857257D01*
X37824607Y-54857257D01*
X37731434Y-54810671D01*
X37713126Y-54803665D01*
X37674206Y-54800899D01*
X37637190Y-54813238D01*
X37607713Y-54838802D01*
X37590264Y-54873701D01*
X37587498Y-54912621D01*
X37599837Y-54949637D01*
X37625401Y-54979114D01*
X37641992Y-54989557D01*
X37756278Y-55046700D01*
X37774586Y-55053706D01*
X37778169Y-55053960D01*
X37781490Y-55055336D01*
X37800999Y-55057257D01*
X37972427Y-55057257D01*
X37982300Y-55056284D01*
X37984934Y-55056472D01*
X37988397Y-55055684D01*
X37991936Y-55055336D01*
X37994378Y-55054324D01*
X38004050Y-55052125D01*
X38175479Y-54994982D01*
X38193379Y-54986991D01*
X38196094Y-54984636D01*
X38199414Y-54983261D01*
X38214567Y-54970824D01*
X38328852Y-54856538D01*
X38335142Y-54848873D01*
X38337141Y-54847140D01*
X38339036Y-54844127D01*
X38341288Y-54841385D01*
X38342297Y-54838947D01*
X38347584Y-54830549D01*
X38404727Y-54716263D01*
X38405272Y-54714836D01*
X38405703Y-54714256D01*
X38408626Y-54706073D01*
X38411733Y-54697955D01*
X38411784Y-54697234D01*
X38412298Y-54695796D01*
X38469441Y-54467224D01*
X38469940Y-54463844D01*
X38470506Y-54462480D01*
X38471229Y-54455128D01*
X38472309Y-54447832D01*
X38472091Y-54446373D01*
X38472427Y-54442971D01*
X38472427Y-54271542D01*
X38472091Y-54268139D01*
X38472309Y-54266681D01*
X38471229Y-54259384D01*
X38470506Y-54252033D01*
X38469940Y-54250668D01*
X38469441Y-54247289D01*
X38412298Y-54018717D01*
X38411784Y-54017278D01*
X38411733Y-54016558D01*
X38408626Y-54008439D01*
X38405703Y-54000257D01*
X38405272Y-53999676D01*
X38404727Y-53998250D01*
X38347584Y-53883964D01*
X38342298Y-53875567D01*
X38341288Y-53873127D01*
X38339034Y-53870381D01*
X38337141Y-53867373D01*
X38335143Y-53865640D01*
X38328851Y-53857974D01*
X38214567Y-53743689D01*
X38199413Y-53731253D01*
X38196094Y-53729878D01*
X38193379Y-53727523D01*
X38175479Y-53719532D01*
X38004050Y-53662389D01*
X37994378Y-53660189D01*
X37991936Y-53659178D01*
X37988397Y-53658829D01*
X37984934Y-53658042D01*
X37982300Y-53658229D01*
X37972427Y-53657257D01*
X37858141Y-53657257D01*
X37848267Y-53658229D01*
X37845633Y-53658042D01*
X37842169Y-53658829D01*
X37838632Y-53659178D01*
X37836190Y-53660189D01*
X37826518Y-53662389D01*
X37655090Y-53719532D01*
X37637190Y-53727523D01*
X37634475Y-53729877D01*
X37631157Y-53731252D01*
X37616003Y-53743688D01*
X37558860Y-53800831D01*
X37546423Y-53815984D01*
X37541899Y-53826907D01*
X37531491Y-53852033D01*
X37529570Y-53871542D01*
X36758141Y-53871542D01*
X36758141Y-53757257D01*
X36756220Y-53737748D01*
X36741288Y-53701700D01*
X36713698Y-53674110D01*
X36677650Y-53659178D01*
X36638632Y-53659178D01*
X36602584Y-53674110D01*
X36574994Y-53701700D01*
X36560062Y-53737748D01*
X36558141Y-53757257D01*
X36558141Y-54114400D01*
X36200999Y-54114400D01*
X36181490Y-54116321D01*
X36145442Y-54131253D01*
X36117852Y-54158843D01*
X36102920Y-54194891D01*
X35727649Y-54194891D01*
X35712717Y-54158843D01*
X35685127Y-54131253D01*
X35649079Y-54116321D01*
X35629570Y-54114400D01*
X34715285Y-54114400D01*
X34695776Y-54116321D01*
X34659728Y-54131253D01*
X34632138Y-54158843D01*
X34617206Y-54194891D01*
X34166572Y-54194891D01*
X34010153Y-53725634D01*
X34002162Y-53707734D01*
X33997477Y-53702333D01*
X33994284Y-53695946D01*
X33984814Y-53687732D01*
X33976597Y-53678258D01*
X33970207Y-53675063D01*
X33964808Y-53670380D01*
X33952910Y-53666414D01*
X33941698Y-53660808D01*
X33934570Y-53660301D01*
X33927792Y-53658042D01*
X33915285Y-53658930D01*
X33902778Y-53658042D01*
X33895999Y-53660301D01*
X33888872Y-53660808D01*
X33877659Y-53666414D01*
X33865762Y-53670380D01*
X33860362Y-53675063D01*
X33853973Y-53678258D01*
X33845757Y-53687729D01*
X33836286Y-53695945D01*
X33833091Y-53702334D01*
X33828408Y-53707734D01*
X33820417Y-53725634D01*
X33420417Y-54925634D01*
X33416070Y-54944750D01*
X33282737Y-54944750D01*
X33282737Y-53523924D01*
X38605760Y-53523924D01*
X38605760Y-55190590D01*
G37*
G36*
X58605760Y-77690590D02*
G01*
X53282737Y-77690590D01*
X53282737Y-77444750D01*
X53416070Y-77444750D01*
X53418836Y-77483670D01*
X53436286Y-77518569D01*
X53465762Y-77544134D01*
X53502778Y-77556472D01*
X53541698Y-77553706D01*
X53576597Y-77536256D01*
X53602162Y-77506780D01*
X53610153Y-77488880D01*
X53915285Y-76573484D01*
X54220417Y-77488880D01*
X54228408Y-77506780D01*
X54253973Y-77536256D01*
X54288872Y-77553706D01*
X54327792Y-77556472D01*
X54364808Y-77544134D01*
X54394284Y-77518568D01*
X54411734Y-77483670D01*
X54414500Y-77444749D01*
X54410153Y-77425634D01*
X54166572Y-76694891D01*
X54617206Y-76694891D01*
X54617206Y-76733909D01*
X54632138Y-76769957D01*
X54659728Y-76797547D01*
X54695776Y-76812479D01*
X54715285Y-76814400D01*
X55629570Y-76814400D01*
X55649079Y-76812479D01*
X55685127Y-76797547D01*
X55712717Y-76769957D01*
X55727649Y-76733909D01*
X55727649Y-76694891D01*
X56102920Y-76694891D01*
X56102920Y-76733909D01*
X56117852Y-76769957D01*
X56145442Y-76797547D01*
X56181490Y-76812479D01*
X56200999Y-76814400D01*
X56558141Y-76814400D01*
X56558141Y-77171542D01*
X56560062Y-77191051D01*
X56574994Y-77227099D01*
X56602584Y-77254689D01*
X56638632Y-77269621D01*
X56677650Y-77269621D01*
X56713698Y-77254689D01*
X56741288Y-77227099D01*
X56756220Y-77191051D01*
X56758141Y-77171542D01*
X56758141Y-76814400D01*
X57115284Y-76814400D01*
X57134793Y-76812479D01*
X57170841Y-76797547D01*
X57198431Y-76769957D01*
X57213363Y-76733909D01*
X57213363Y-76694891D01*
X57198431Y-76658843D01*
X57170841Y-76631253D01*
X57134793Y-76616321D01*
X57115284Y-76614400D01*
X56758141Y-76614400D01*
X56758141Y-76371542D01*
X57529570Y-76371542D01*
X57529570Y-76771542D01*
X57531491Y-76791051D01*
X57546423Y-76827099D01*
X57574013Y-76854689D01*
X57610061Y-76869621D01*
X57629570Y-76871542D01*
X57858141Y-76871542D01*
X57877650Y-76869621D01*
X57913698Y-76854689D01*
X57941288Y-76827099D01*
X57956220Y-76791051D01*
X57956220Y-76752033D01*
X57941288Y-76715985D01*
X57913698Y-76688395D01*
X57877650Y-76673463D01*
X57858141Y-76671542D01*
X57729570Y-76671542D01*
X57729570Y-76412963D01*
X57740730Y-76401803D01*
X57874368Y-76357257D01*
X57956200Y-76357257D01*
X58089836Y-76401802D01*
X58175954Y-76487920D01*
X58220932Y-76577876D01*
X58272427Y-76783852D01*
X58272427Y-76930660D01*
X58220932Y-77136636D01*
X58175954Y-77226593D01*
X58089837Y-77312711D01*
X57956200Y-77357257D01*
X57824607Y-77357257D01*
X57731434Y-77310671D01*
X57713126Y-77303665D01*
X57674206Y-77300899D01*
X57637190Y-77313238D01*
X57607713Y-77338802D01*
X57590264Y-77373701D01*
X57587498Y-77412621D01*
X57599837Y-77449637D01*
X57625401Y-77479114D01*
X57641992Y-77489557D01*
X57756278Y-77546700D01*
X57774586Y-77553706D01*
X57778169Y-77553960D01*
X57781490Y-77555336D01*
X57800999Y-77557257D01*
X57972427Y-77557257D01*
X57982300Y-77556284D01*
X57984934Y-77556472D01*
X57988397Y-77555684D01*
X57991936Y-77555336D01*
X57994378Y-77554324D01*
X58004050Y-77552125D01*
X58175479Y-77494982D01*
X58193379Y-77486991D01*
X58196094Y-77484636D01*
X58199414Y-77483261D01*
X58214567Y-77470824D01*
X58328852Y-77356538D01*
X58335142Y-77348873D01*
X58337141Y-77347140D01*
X58339036Y-77344127D01*
X58341288Y-77341385D01*
X58342297Y-77338947D01*
X58347584Y-77330549D01*
X58404727Y-77216263D01*
X58405272Y-77214836D01*
X58405703Y-77214256D01*
X58408626Y-77206073D01*
X58411733Y-77197955D01*
X58411784Y-77197234D01*
X58412298Y-77195796D01*
X58469441Y-76967224D01*
X58469940Y-76963844D01*
X58470506Y-76962480D01*
X58471229Y-76955128D01*
X58472309Y-76947832D01*
X58472091Y-76946373D01*
X58472427Y-76942971D01*
X58472427Y-76771542D01*
X58472091Y-76768139D01*
X58472309Y-76766681D01*
X58471229Y-76759384D01*
X58470506Y-76752033D01*
X58469940Y-76750668D01*
X58469441Y-76747289D01*
X58412298Y-76518717D01*
X58411784Y-76517278D01*
X58411733Y-76516558D01*
X58408626Y-76508439D01*
X58405703Y-76500257D01*
X58405272Y-76499676D01*
X58404727Y-76498250D01*
X58347584Y-76383964D01*
X58342298Y-76375567D01*
X58341288Y-76373127D01*
X58339034Y-76370381D01*
X58337141Y-76367373D01*
X58335143Y-76365640D01*
X58328851Y-76357974D01*
X58214567Y-76243689D01*
X58199413Y-76231253D01*
X58196094Y-76229878D01*
X58193379Y-76227523D01*
X58175479Y-76219532D01*
X58004050Y-76162389D01*
X57994378Y-76160189D01*
X57991936Y-76159178D01*
X57988397Y-76158829D01*
X57984934Y-76158042D01*
X57982300Y-76158229D01*
X57972427Y-76157257D01*
X57858141Y-76157257D01*
X57848267Y-76158229D01*
X57845633Y-76158042D01*
X57842169Y-76158829D01*
X57838632Y-76159178D01*
X57836190Y-76160189D01*
X57826518Y-76162389D01*
X57655090Y-76219532D01*
X57637190Y-76227523D01*
X57634475Y-76229877D01*
X57631157Y-76231252D01*
X57616003Y-76243688D01*
X57558860Y-76300831D01*
X57546423Y-76315984D01*
X57541899Y-76326907D01*
X57531491Y-76352033D01*
X57529570Y-76371542D01*
X56758141Y-76371542D01*
X56758141Y-76257257D01*
X56756220Y-76237748D01*
X56741288Y-76201700D01*
X56713698Y-76174110D01*
X56677650Y-76159178D01*
X56638632Y-76159178D01*
X56602584Y-76174110D01*
X56574994Y-76201700D01*
X56560062Y-76237748D01*
X56558141Y-76257257D01*
X56558141Y-76614400D01*
X56200999Y-76614400D01*
X56181490Y-76616321D01*
X56145442Y-76631253D01*
X56117852Y-76658843D01*
X56102920Y-76694891D01*
X55727649Y-76694891D01*
X55712717Y-76658843D01*
X55685127Y-76631253D01*
X55649079Y-76616321D01*
X55629570Y-76614400D01*
X54715285Y-76614400D01*
X54695776Y-76616321D01*
X54659728Y-76631253D01*
X54632138Y-76658843D01*
X54617206Y-76694891D01*
X54166572Y-76694891D01*
X54010153Y-76225634D01*
X54002162Y-76207734D01*
X53997477Y-76202333D01*
X53994284Y-76195946D01*
X53984814Y-76187732D01*
X53976597Y-76178258D01*
X53970207Y-76175063D01*
X53964808Y-76170380D01*
X53952910Y-76166414D01*
X53941698Y-76160808D01*
X53934570Y-76160301D01*
X53927792Y-76158042D01*
X53915285Y-76158930D01*
X53902778Y-76158042D01*
X53895999Y-76160301D01*
X53888872Y-76160808D01*
X53877659Y-76166414D01*
X53865762Y-76170380D01*
X53860362Y-76175063D01*
X53853973Y-76178258D01*
X53845757Y-76187729D01*
X53836286Y-76195945D01*
X53833091Y-76202334D01*
X53828408Y-76207734D01*
X53820417Y-76225634D01*
X53420417Y-77425634D01*
X53416070Y-77444750D01*
X53282737Y-77444750D01*
X53282737Y-76023924D01*
X58605760Y-76023924D01*
X58605760Y-77690590D01*
G37*
G36*
X18605760Y-55190590D02*
G01*
X13282737Y-55190590D01*
X13282737Y-54944750D01*
X13416070Y-54944750D01*
X13418836Y-54983670D01*
X13436286Y-55018569D01*
X13465762Y-55044134D01*
X13502778Y-55056472D01*
X13541698Y-55053706D01*
X13576597Y-55036256D01*
X13602162Y-55006780D01*
X13610153Y-54988880D01*
X13915285Y-54073484D01*
X14220417Y-54988880D01*
X14228408Y-55006780D01*
X14253973Y-55036256D01*
X14288872Y-55053706D01*
X14327792Y-55056472D01*
X14364808Y-55044134D01*
X14394284Y-55018568D01*
X14411734Y-54983670D01*
X14414500Y-54944749D01*
X14410153Y-54925634D01*
X14166572Y-54194891D01*
X14617206Y-54194891D01*
X14617206Y-54233909D01*
X14632138Y-54269957D01*
X14659728Y-54297547D01*
X14695776Y-54312479D01*
X14715285Y-54314400D01*
X15629570Y-54314400D01*
X15649079Y-54312479D01*
X15685127Y-54297547D01*
X15712717Y-54269957D01*
X15727649Y-54233909D01*
X15727649Y-54194891D01*
X16102920Y-54194891D01*
X16102920Y-54233909D01*
X16117852Y-54269957D01*
X16145442Y-54297547D01*
X16181490Y-54312479D01*
X16200999Y-54314400D01*
X16558141Y-54314400D01*
X16558141Y-54671542D01*
X16560062Y-54691051D01*
X16574994Y-54727099D01*
X16602584Y-54754689D01*
X16638632Y-54769621D01*
X16677650Y-54769621D01*
X16713698Y-54754689D01*
X16741288Y-54727099D01*
X16756220Y-54691051D01*
X16758141Y-54671542D01*
X16758141Y-54314400D01*
X17115284Y-54314400D01*
X17134793Y-54312479D01*
X17170841Y-54297547D01*
X17198431Y-54269957D01*
X17213363Y-54233909D01*
X17213363Y-54194891D01*
X17198431Y-54158843D01*
X17170841Y-54131253D01*
X17134793Y-54116321D01*
X17115284Y-54114400D01*
X16758141Y-54114400D01*
X16758141Y-53871542D01*
X17529570Y-53871542D01*
X17529570Y-54271542D01*
X17531491Y-54291051D01*
X17546423Y-54327099D01*
X17574013Y-54354689D01*
X17610061Y-54369621D01*
X17629570Y-54371542D01*
X17858141Y-54371542D01*
X17877650Y-54369621D01*
X17913698Y-54354689D01*
X17941288Y-54327099D01*
X17956220Y-54291051D01*
X17956220Y-54252033D01*
X17941288Y-54215985D01*
X17913698Y-54188395D01*
X17877650Y-54173463D01*
X17858141Y-54171542D01*
X17729570Y-54171542D01*
X17729570Y-53912963D01*
X17740730Y-53901803D01*
X17874368Y-53857257D01*
X17956200Y-53857257D01*
X18089836Y-53901802D01*
X18175954Y-53987920D01*
X18220932Y-54077876D01*
X18272427Y-54283852D01*
X18272427Y-54430660D01*
X18220932Y-54636636D01*
X18175954Y-54726593D01*
X18089837Y-54812711D01*
X17956200Y-54857257D01*
X17824607Y-54857257D01*
X17731434Y-54810671D01*
X17713126Y-54803665D01*
X17674206Y-54800899D01*
X17637190Y-54813238D01*
X17607713Y-54838802D01*
X17590264Y-54873701D01*
X17587498Y-54912621D01*
X17599837Y-54949637D01*
X17625401Y-54979114D01*
X17641992Y-54989557D01*
X17756278Y-55046700D01*
X17774586Y-55053706D01*
X17778169Y-55053960D01*
X17781490Y-55055336D01*
X17800999Y-55057257D01*
X17972427Y-55057257D01*
X17982300Y-55056284D01*
X17984934Y-55056472D01*
X17988397Y-55055684D01*
X17991936Y-55055336D01*
X17994378Y-55054324D01*
X18004050Y-55052125D01*
X18175479Y-54994982D01*
X18193379Y-54986991D01*
X18196094Y-54984636D01*
X18199414Y-54983261D01*
X18214567Y-54970824D01*
X18328852Y-54856538D01*
X18335142Y-54848873D01*
X18337141Y-54847140D01*
X18339036Y-54844127D01*
X18341288Y-54841385D01*
X18342297Y-54838947D01*
X18347584Y-54830549D01*
X18404727Y-54716263D01*
X18405272Y-54714836D01*
X18405703Y-54714256D01*
X18408626Y-54706073D01*
X18411733Y-54697955D01*
X18411784Y-54697234D01*
X18412298Y-54695796D01*
X18469441Y-54467224D01*
X18469940Y-54463844D01*
X18470506Y-54462480D01*
X18471229Y-54455128D01*
X18472309Y-54447832D01*
X18472091Y-54446373D01*
X18472427Y-54442971D01*
X18472427Y-54271542D01*
X18472091Y-54268139D01*
X18472309Y-54266681D01*
X18471229Y-54259384D01*
X18470506Y-54252033D01*
X18469940Y-54250668D01*
X18469441Y-54247289D01*
X18412298Y-54018717D01*
X18411784Y-54017278D01*
X18411733Y-54016558D01*
X18408626Y-54008439D01*
X18405703Y-54000257D01*
X18405272Y-53999676D01*
X18404727Y-53998250D01*
X18347584Y-53883964D01*
X18342298Y-53875567D01*
X18341288Y-53873127D01*
X18339034Y-53870381D01*
X18337141Y-53867373D01*
X18335143Y-53865640D01*
X18328851Y-53857974D01*
X18214567Y-53743689D01*
X18199413Y-53731253D01*
X18196094Y-53729878D01*
X18193379Y-53727523D01*
X18175479Y-53719532D01*
X18004050Y-53662389D01*
X17994378Y-53660189D01*
X17991936Y-53659178D01*
X17988397Y-53658829D01*
X17984934Y-53658042D01*
X17982300Y-53658229D01*
X17972427Y-53657257D01*
X17858141Y-53657257D01*
X17848267Y-53658229D01*
X17845633Y-53658042D01*
X17842169Y-53658829D01*
X17838632Y-53659178D01*
X17836190Y-53660189D01*
X17826518Y-53662389D01*
X17655090Y-53719532D01*
X17637190Y-53727523D01*
X17634475Y-53729877D01*
X17631157Y-53731252D01*
X17616003Y-53743688D01*
X17558860Y-53800831D01*
X17546423Y-53815984D01*
X17541899Y-53826907D01*
X17531491Y-53852033D01*
X17529570Y-53871542D01*
X16758141Y-53871542D01*
X16758141Y-53757257D01*
X16756220Y-53737748D01*
X16741288Y-53701700D01*
X16713698Y-53674110D01*
X16677650Y-53659178D01*
X16638632Y-53659178D01*
X16602584Y-53674110D01*
X16574994Y-53701700D01*
X16560062Y-53737748D01*
X16558141Y-53757257D01*
X16558141Y-54114400D01*
X16200999Y-54114400D01*
X16181490Y-54116321D01*
X16145442Y-54131253D01*
X16117852Y-54158843D01*
X16102920Y-54194891D01*
X15727649Y-54194891D01*
X15712717Y-54158843D01*
X15685127Y-54131253D01*
X15649079Y-54116321D01*
X15629570Y-54114400D01*
X14715285Y-54114400D01*
X14695776Y-54116321D01*
X14659728Y-54131253D01*
X14632138Y-54158843D01*
X14617206Y-54194891D01*
X14166572Y-54194891D01*
X14010153Y-53725634D01*
X14002162Y-53707734D01*
X13997477Y-53702333D01*
X13994284Y-53695946D01*
X13984814Y-53687732D01*
X13976597Y-53678258D01*
X13970207Y-53675063D01*
X13964808Y-53670380D01*
X13952910Y-53666414D01*
X13941698Y-53660808D01*
X13934570Y-53660301D01*
X13927792Y-53658042D01*
X13915285Y-53658930D01*
X13902778Y-53658042D01*
X13895999Y-53660301D01*
X13888872Y-53660808D01*
X13877659Y-53666414D01*
X13865762Y-53670380D01*
X13860362Y-53675063D01*
X13853973Y-53678258D01*
X13845757Y-53687729D01*
X13836286Y-53695945D01*
X13833091Y-53702334D01*
X13828408Y-53707734D01*
X13820417Y-53725634D01*
X13420417Y-54925634D01*
X13416070Y-54944750D01*
X13282737Y-54944750D01*
X13282737Y-53523924D01*
X18605760Y-53523924D01*
X18605760Y-55190590D01*
G37*
G36*
X58605760Y-10190590D02*
G01*
X53282737Y-10190590D01*
X53282737Y-9944750D01*
X53416070Y-9944750D01*
X53418836Y-9983670D01*
X53436286Y-10018569D01*
X53465762Y-10044134D01*
X53502778Y-10056472D01*
X53541698Y-10053706D01*
X53576597Y-10036256D01*
X53602162Y-10006780D01*
X53610153Y-9988880D01*
X53915285Y-9073484D01*
X54220417Y-9988880D01*
X54228408Y-10006780D01*
X54253973Y-10036256D01*
X54288872Y-10053706D01*
X54327792Y-10056472D01*
X54364808Y-10044134D01*
X54394284Y-10018568D01*
X54411734Y-9983670D01*
X54414500Y-9944749D01*
X54410153Y-9925634D01*
X54166572Y-9194891D01*
X54617206Y-9194891D01*
X54617206Y-9233909D01*
X54632138Y-9269957D01*
X54659728Y-9297547D01*
X54695776Y-9312479D01*
X54715285Y-9314400D01*
X55629570Y-9314400D01*
X55649079Y-9312479D01*
X55685127Y-9297547D01*
X55712717Y-9269957D01*
X55727649Y-9233909D01*
X55727649Y-9194891D01*
X56102920Y-9194891D01*
X56102920Y-9233909D01*
X56117852Y-9269957D01*
X56145442Y-9297547D01*
X56181490Y-9312479D01*
X56200999Y-9314400D01*
X56558141Y-9314400D01*
X56558141Y-9671542D01*
X56560062Y-9691051D01*
X56574994Y-9727099D01*
X56602584Y-9754689D01*
X56638632Y-9769621D01*
X56677650Y-9769621D01*
X56713698Y-9754689D01*
X56741288Y-9727099D01*
X56756220Y-9691051D01*
X56758141Y-9671542D01*
X56758141Y-9314400D01*
X57115284Y-9314400D01*
X57134793Y-9312479D01*
X57170841Y-9297547D01*
X57198431Y-9269957D01*
X57213363Y-9233909D01*
X57213363Y-9194891D01*
X57198431Y-9158843D01*
X57170841Y-9131253D01*
X57134793Y-9116321D01*
X57115284Y-9114400D01*
X56758141Y-9114400D01*
X56758141Y-8871542D01*
X57529570Y-8871542D01*
X57529570Y-9271542D01*
X57531491Y-9291051D01*
X57546423Y-9327099D01*
X57574013Y-9354689D01*
X57610061Y-9369621D01*
X57629570Y-9371542D01*
X57858141Y-9371542D01*
X57877650Y-9369621D01*
X57913698Y-9354689D01*
X57941288Y-9327099D01*
X57956220Y-9291051D01*
X57956220Y-9252033D01*
X57941288Y-9215985D01*
X57913698Y-9188395D01*
X57877650Y-9173463D01*
X57858141Y-9171542D01*
X57729570Y-9171542D01*
X57729570Y-8912963D01*
X57740730Y-8901803D01*
X57874368Y-8857257D01*
X57956200Y-8857257D01*
X58089836Y-8901802D01*
X58175954Y-8987920D01*
X58220932Y-9077876D01*
X58272427Y-9283852D01*
X58272427Y-9430660D01*
X58220932Y-9636636D01*
X58175954Y-9726593D01*
X58089837Y-9812711D01*
X57956200Y-9857257D01*
X57824607Y-9857257D01*
X57731434Y-9810671D01*
X57713126Y-9803665D01*
X57674206Y-9800899D01*
X57637190Y-9813238D01*
X57607713Y-9838802D01*
X57590264Y-9873701D01*
X57587498Y-9912621D01*
X57599837Y-9949637D01*
X57625401Y-9979114D01*
X57641992Y-9989557D01*
X57756278Y-10046700D01*
X57774586Y-10053706D01*
X57778169Y-10053960D01*
X57781490Y-10055336D01*
X57800999Y-10057257D01*
X57972427Y-10057257D01*
X57982300Y-10056284D01*
X57984934Y-10056472D01*
X57988397Y-10055684D01*
X57991936Y-10055336D01*
X57994378Y-10054324D01*
X58004050Y-10052125D01*
X58175479Y-9994982D01*
X58193379Y-9986991D01*
X58196094Y-9984636D01*
X58199414Y-9983261D01*
X58214567Y-9970824D01*
X58328852Y-9856538D01*
X58335142Y-9848873D01*
X58337141Y-9847140D01*
X58339036Y-9844127D01*
X58341288Y-9841385D01*
X58342297Y-9838947D01*
X58347584Y-9830549D01*
X58404727Y-9716263D01*
X58405272Y-9714836D01*
X58405703Y-9714256D01*
X58408626Y-9706073D01*
X58411733Y-9697955D01*
X58411784Y-9697234D01*
X58412298Y-9695796D01*
X58469441Y-9467224D01*
X58469940Y-9463844D01*
X58470506Y-9462480D01*
X58471229Y-9455128D01*
X58472309Y-9447832D01*
X58472091Y-9446373D01*
X58472427Y-9442971D01*
X58472427Y-9271542D01*
X58472091Y-9268139D01*
X58472309Y-9266681D01*
X58471229Y-9259384D01*
X58470506Y-9252033D01*
X58469940Y-9250668D01*
X58469441Y-9247289D01*
X58412298Y-9018717D01*
X58411784Y-9017278D01*
X58411733Y-9016558D01*
X58408626Y-9008439D01*
X58405703Y-9000257D01*
X58405272Y-8999676D01*
X58404727Y-8998250D01*
X58347584Y-8883964D01*
X58342298Y-8875567D01*
X58341288Y-8873127D01*
X58339034Y-8870381D01*
X58337141Y-8867373D01*
X58335143Y-8865640D01*
X58328851Y-8857974D01*
X58214567Y-8743689D01*
X58199413Y-8731253D01*
X58196094Y-8729878D01*
X58193379Y-8727523D01*
X58175479Y-8719532D01*
X58004050Y-8662389D01*
X57994378Y-8660189D01*
X57991936Y-8659178D01*
X57988397Y-8658829D01*
X57984934Y-8658042D01*
X57982300Y-8658229D01*
X57972427Y-8657257D01*
X57858141Y-8657257D01*
X57848267Y-8658229D01*
X57845633Y-8658042D01*
X57842169Y-8658829D01*
X57838632Y-8659178D01*
X57836190Y-8660189D01*
X57826518Y-8662389D01*
X57655090Y-8719532D01*
X57637190Y-8727523D01*
X57634475Y-8729877D01*
X57631157Y-8731252D01*
X57616003Y-8743688D01*
X57558860Y-8800831D01*
X57546423Y-8815984D01*
X57541899Y-8826907D01*
X57531491Y-8852033D01*
X57529570Y-8871542D01*
X56758141Y-8871542D01*
X56758141Y-8757257D01*
X56756220Y-8737748D01*
X56741288Y-8701700D01*
X56713698Y-8674110D01*
X56677650Y-8659178D01*
X56638632Y-8659178D01*
X56602584Y-8674110D01*
X56574994Y-8701700D01*
X56560062Y-8737748D01*
X56558141Y-8757257D01*
X56558141Y-9114400D01*
X56200999Y-9114400D01*
X56181490Y-9116321D01*
X56145442Y-9131253D01*
X56117852Y-9158843D01*
X56102920Y-9194891D01*
X55727649Y-9194891D01*
X55712717Y-9158843D01*
X55685127Y-9131253D01*
X55649079Y-9116321D01*
X55629570Y-9114400D01*
X54715285Y-9114400D01*
X54695776Y-9116321D01*
X54659728Y-9131253D01*
X54632138Y-9158843D01*
X54617206Y-9194891D01*
X54166572Y-9194891D01*
X54010153Y-8725634D01*
X54002162Y-8707734D01*
X53997477Y-8702333D01*
X53994284Y-8695946D01*
X53984814Y-8687732D01*
X53976597Y-8678258D01*
X53970207Y-8675063D01*
X53964808Y-8670380D01*
X53952910Y-8666414D01*
X53941698Y-8660808D01*
X53934570Y-8660301D01*
X53927792Y-8658042D01*
X53915285Y-8658930D01*
X53902778Y-8658042D01*
X53895999Y-8660301D01*
X53888872Y-8660808D01*
X53877659Y-8666414D01*
X53865762Y-8670380D01*
X53860362Y-8675063D01*
X53853973Y-8678258D01*
X53845757Y-8687729D01*
X53836286Y-8695945D01*
X53833091Y-8702334D01*
X53828408Y-8707734D01*
X53820417Y-8725634D01*
X53420417Y-9925634D01*
X53416070Y-9944750D01*
X53282737Y-9944750D01*
X53282737Y-8523924D01*
X58605760Y-8523924D01*
X58605760Y-10190590D01*
G37*
D12*
%TO.C,U1*%
X68701000Y-76300000D02*
X68701000Y-77900000D01*
X70501000Y-77900000D02*
X70501000Y-76000000D01*
X48701000Y-53800000D02*
X48701000Y-55400000D01*
X50501000Y-55400000D02*
X50501000Y-53500000D01*
X8701000Y-53800000D02*
X8701000Y-55400000D01*
X10501000Y-55400000D02*
X10501000Y-53500000D01*
X68701000Y-53800000D02*
X68701000Y-55400000D01*
X70501000Y-55400000D02*
X70501000Y-53500000D01*
%TO.C,R2*%
X80978500Y-9362742D02*
X80978500Y-9837258D01*
X82023500Y-9362742D02*
X82023500Y-9837258D01*
%TO.C,R1*%
X102378500Y-77337258D02*
X102378500Y-76862742D01*
X103423500Y-77337258D02*
X103423500Y-76862742D01*
X82378500Y-54837258D02*
X82378500Y-54362742D01*
X83423500Y-54837258D02*
X83423500Y-54362742D01*
D13*
%TO.C,J2*%
X11001000Y-34200000D02*
X14001000Y-34200000D01*
X11001000Y-34900000D02*
X11001000Y-34200000D01*
X11001000Y-38400000D02*
X21001000Y-38400000D01*
X14001000Y-34200000D02*
X14001000Y-33200000D01*
X21001000Y-34200000D02*
X18001000Y-34200000D01*
X21001000Y-34900000D02*
X21001000Y-34200000D01*
D12*
%TO.C,U1*%
X8701000Y-31300000D02*
X8701000Y-32900000D01*
X10501000Y-32900000D02*
X10501000Y-31000000D01*
%TO.C,R2*%
X100978500Y-54362742D02*
X100978500Y-54837258D01*
X102023500Y-54362742D02*
X102023500Y-54837258D01*
X20978500Y-76862742D02*
X20978500Y-77337258D01*
X22023500Y-76862742D02*
X22023500Y-77337258D01*
D13*
%TO.C,J2*%
X31001000Y-34200000D02*
X34001000Y-34200000D01*
X31001000Y-34900000D02*
X31001000Y-34200000D01*
X31001000Y-38400000D02*
X41001000Y-38400000D01*
X34001000Y-34200000D02*
X34001000Y-33200000D01*
X41001000Y-34200000D02*
X38001000Y-34200000D01*
X41001000Y-34900000D02*
X41001000Y-34200000D01*
D12*
%TO.C,R2*%
X60978500Y-31862742D02*
X60978500Y-32337258D01*
X62023500Y-31862742D02*
X62023500Y-32337258D01*
%TO.C,R1*%
X42378500Y-54837258D02*
X42378500Y-54362742D01*
X43423500Y-54837258D02*
X43423500Y-54362742D01*
%TO.C,U1*%
X88701000Y-76300000D02*
X88701000Y-77900000D01*
X90501000Y-77900000D02*
X90501000Y-76000000D01*
%TO.C,R1*%
X102378500Y-9837258D02*
X102378500Y-9362742D01*
X103423500Y-9837258D02*
X103423500Y-9362742D01*
X62378500Y-54837258D02*
X62378500Y-54362742D01*
X63423500Y-54837258D02*
X63423500Y-54362742D01*
X22378500Y-54837258D02*
X22378500Y-54362742D01*
X23423500Y-54837258D02*
X23423500Y-54362742D01*
%TO.C,U1*%
X8701000Y-76300000D02*
X8701000Y-77900000D01*
X10501000Y-77900000D02*
X10501000Y-76000000D01*
%TO.C,R2*%
X40978500Y-76862742D02*
X40978500Y-77337258D01*
X42023500Y-76862742D02*
X42023500Y-77337258D01*
D13*
%TO.C,J2*%
X71001000Y-79200000D02*
X74001000Y-79200000D01*
X71001000Y-79900000D02*
X71001000Y-79200000D01*
X71001000Y-83400000D02*
X81001000Y-83400000D01*
X74001000Y-79200000D02*
X74001000Y-78200000D01*
X81001000Y-79200000D02*
X78001000Y-79200000D01*
X81001000Y-79900000D02*
X81001000Y-79200000D01*
X31001000Y-11700000D02*
X34001000Y-11700000D01*
X31001000Y-12400000D02*
X31001000Y-11700000D01*
X31001000Y-15900000D02*
X41001000Y-15900000D01*
X34001000Y-11700000D02*
X34001000Y-10700000D01*
X41001000Y-11700000D02*
X38001000Y-11700000D01*
X41001000Y-12400000D02*
X41001000Y-11700000D01*
D12*
%TO.C,U1*%
X28701000Y-53800000D02*
X28701000Y-55400000D01*
X30501000Y-55400000D02*
X30501000Y-53500000D01*
%TO.C,R1*%
X42378500Y-9837258D02*
X42378500Y-9362742D01*
X43423500Y-9837258D02*
X43423500Y-9362742D01*
D13*
%TO.C,J2*%
X51001000Y-34200000D02*
X54001000Y-34200000D01*
X51001000Y-34900000D02*
X51001000Y-34200000D01*
X51001000Y-38400000D02*
X61001000Y-38400000D01*
X54001000Y-34200000D02*
X54001000Y-33200000D01*
X61001000Y-34200000D02*
X58001000Y-34200000D01*
X61001000Y-34900000D02*
X61001000Y-34200000D01*
D12*
%TO.C,R1*%
X102378500Y-54837258D02*
X102378500Y-54362742D01*
X103423500Y-54837258D02*
X103423500Y-54362742D01*
%TO.C,R2*%
X100978500Y-9362742D02*
X100978500Y-9837258D01*
X102023500Y-9362742D02*
X102023500Y-9837258D01*
D13*
%TO.C,J2*%
X71001000Y-56700000D02*
X74001000Y-56700000D01*
X71001000Y-57400000D02*
X71001000Y-56700000D01*
X71001000Y-60900000D02*
X81001000Y-60900000D01*
X74001000Y-56700000D02*
X74001000Y-55700000D01*
X81001000Y-56700000D02*
X78001000Y-56700000D01*
X81001000Y-57400000D02*
X81001000Y-56700000D01*
D12*
%TO.C,R2*%
X80978500Y-31862742D02*
X80978500Y-32337258D01*
X82023500Y-31862742D02*
X82023500Y-32337258D01*
D13*
%TO.C,J2*%
X71001000Y-34200000D02*
X74001000Y-34200000D01*
X71001000Y-34900000D02*
X71001000Y-34200000D01*
X71001000Y-38400000D02*
X81001000Y-38400000D01*
X74001000Y-34200000D02*
X74001000Y-33200000D01*
X81001000Y-34200000D02*
X78001000Y-34200000D01*
X81001000Y-34900000D02*
X81001000Y-34200000D01*
D12*
%TO.C,R1*%
X62378500Y-77337258D02*
X62378500Y-76862742D01*
X63423500Y-77337258D02*
X63423500Y-76862742D01*
%TO.C,R2*%
X20978500Y-9362742D02*
X20978500Y-9837258D01*
X22023500Y-9362742D02*
X22023500Y-9837258D01*
D13*
%TO.C,J2*%
X91001000Y-34200000D02*
X94001000Y-34200000D01*
X91001000Y-34900000D02*
X91001000Y-34200000D01*
X91001000Y-38400000D02*
X101001000Y-38400000D01*
X94001000Y-34200000D02*
X94001000Y-33200000D01*
X101001000Y-34200000D02*
X98001000Y-34200000D01*
X101001000Y-34900000D02*
X101001000Y-34200000D01*
D12*
%TO.C,U1*%
X48701000Y-31300000D02*
X48701000Y-32900000D01*
X50501000Y-32900000D02*
X50501000Y-31000000D01*
%TO.C,R1*%
X42378500Y-77337258D02*
X42378500Y-76862742D01*
X43423500Y-77337258D02*
X43423500Y-76862742D01*
D13*
%TO.C,J2*%
X91001000Y-79200000D02*
X94001000Y-79200000D01*
X91001000Y-79900000D02*
X91001000Y-79200000D01*
X91001000Y-83400000D02*
X101001000Y-83400000D01*
X94001000Y-79200000D02*
X94001000Y-78200000D01*
X101001000Y-79200000D02*
X98001000Y-79200000D01*
X101001000Y-79900000D02*
X101001000Y-79200000D01*
D12*
%TO.C,R1*%
X82378500Y-32337258D02*
X82378500Y-31862742D01*
X83423500Y-32337258D02*
X83423500Y-31862742D01*
%TO.C,U1*%
X88701000Y-8800000D02*
X88701000Y-10400000D01*
X90501000Y-10400000D02*
X90501000Y-8500000D01*
%TO.C,R2*%
X60978500Y-76862742D02*
X60978500Y-77337258D01*
X62023500Y-76862742D02*
X62023500Y-77337258D01*
D13*
%TO.C,J2*%
X51001000Y-79200000D02*
X54001000Y-79200000D01*
X51001000Y-79900000D02*
X51001000Y-79200000D01*
X51001000Y-83400000D02*
X61001000Y-83400000D01*
X54001000Y-79200000D02*
X54001000Y-78200000D01*
X61001000Y-79200000D02*
X58001000Y-79200000D01*
X61001000Y-79900000D02*
X61001000Y-79200000D01*
D12*
%TO.C,R2*%
X40978500Y-31862742D02*
X40978500Y-32337258D01*
X42023500Y-31862742D02*
X42023500Y-32337258D01*
%TO.C,R1*%
X102378500Y-32337258D02*
X102378500Y-31862742D01*
X103423500Y-32337258D02*
X103423500Y-31862742D01*
%TO.C,U1*%
X28701000Y-8800000D02*
X28701000Y-10400000D01*
X30501000Y-10400000D02*
X30501000Y-8500000D01*
%TO.C,R2*%
X40978500Y-9362742D02*
X40978500Y-9837258D01*
X42023500Y-9362742D02*
X42023500Y-9837258D01*
%TO.C,R1*%
X22378500Y-9837258D02*
X22378500Y-9362742D01*
X23423500Y-9837258D02*
X23423500Y-9362742D01*
D13*
%TO.C,J2*%
X11001000Y-56700000D02*
X14001000Y-56700000D01*
X11001000Y-57400000D02*
X11001000Y-56700000D01*
X11001000Y-60900000D02*
X21001000Y-60900000D01*
X14001000Y-56700000D02*
X14001000Y-55700000D01*
X21001000Y-56700000D02*
X18001000Y-56700000D01*
X21001000Y-57400000D02*
X21001000Y-56700000D01*
D12*
%TO.C,R1*%
X62378500Y-32337258D02*
X62378500Y-31862742D01*
X63423500Y-32337258D02*
X63423500Y-31862742D01*
D13*
%TO.C,J2*%
X71001000Y-11700000D02*
X74001000Y-11700000D01*
X71001000Y-12400000D02*
X71001000Y-11700000D01*
X71001000Y-15900000D02*
X81001000Y-15900000D01*
X74001000Y-11700000D02*
X74001000Y-10700000D01*
X81001000Y-11700000D02*
X78001000Y-11700000D01*
X81001000Y-12400000D02*
X81001000Y-11700000D01*
D12*
%TO.C,U1*%
X48701000Y-8800000D02*
X48701000Y-10400000D01*
X50501000Y-10400000D02*
X50501000Y-8500000D01*
%TO.C,R2*%
X100978500Y-31862742D02*
X100978500Y-32337258D01*
X102023500Y-31862742D02*
X102023500Y-32337258D01*
%TO.C,R1*%
X62378500Y-9837258D02*
X62378500Y-9362742D01*
X63423500Y-9837258D02*
X63423500Y-9362742D01*
D13*
%TO.C,J2*%
X51001000Y-56700000D02*
X54001000Y-56700000D01*
X51001000Y-57400000D02*
X51001000Y-56700000D01*
X51001000Y-60900000D02*
X61001000Y-60900000D01*
X54001000Y-56700000D02*
X54001000Y-55700000D01*
X61001000Y-56700000D02*
X58001000Y-56700000D01*
X61001000Y-57400000D02*
X61001000Y-56700000D01*
D12*
%TO.C,U1*%
X8701000Y-8800000D02*
X8701000Y-10400000D01*
X10501000Y-10400000D02*
X10501000Y-8500000D01*
D13*
%TO.C,J2*%
X31001000Y-79200000D02*
X34001000Y-79200000D01*
X31001000Y-79900000D02*
X31001000Y-79200000D01*
X31001000Y-83400000D02*
X41001000Y-83400000D01*
X34001000Y-79200000D02*
X34001000Y-78200000D01*
X41001000Y-79200000D02*
X38001000Y-79200000D01*
X41001000Y-79900000D02*
X41001000Y-79200000D01*
D12*
%TO.C,U1*%
X88701000Y-53800000D02*
X88701000Y-55400000D01*
X90501000Y-55400000D02*
X90501000Y-53500000D01*
%TO.C,R2*%
X80978500Y-76862742D02*
X80978500Y-77337258D01*
X82023500Y-76862742D02*
X82023500Y-77337258D01*
%TO.C,R1*%
X82378500Y-77337258D02*
X82378500Y-76862742D01*
X83423500Y-77337258D02*
X83423500Y-76862742D01*
%TO.C,R2*%
X60978500Y-9362742D02*
X60978500Y-9837258D01*
X62023500Y-9362742D02*
X62023500Y-9837258D01*
D13*
%TO.C,J2*%
X31001000Y-56700000D02*
X34001000Y-56700000D01*
X31001000Y-57400000D02*
X31001000Y-56700000D01*
X31001000Y-60900000D02*
X41001000Y-60900000D01*
X34001000Y-56700000D02*
X34001000Y-55700000D01*
X41001000Y-56700000D02*
X38001000Y-56700000D01*
X41001000Y-57400000D02*
X41001000Y-56700000D01*
X11001000Y-11700000D02*
X14001000Y-11700000D01*
X11001000Y-12400000D02*
X11001000Y-11700000D01*
X11001000Y-15900000D02*
X21001000Y-15900000D01*
X14001000Y-11700000D02*
X14001000Y-10700000D01*
X21001000Y-11700000D02*
X18001000Y-11700000D01*
X21001000Y-12400000D02*
X21001000Y-11700000D01*
D12*
%TO.C,R1*%
X22378500Y-77337258D02*
X22378500Y-76862742D01*
X23423500Y-77337258D02*
X23423500Y-76862742D01*
%TO.C,U1*%
X68701000Y-31300000D02*
X68701000Y-32900000D01*
X70501000Y-32900000D02*
X70501000Y-31000000D01*
D13*
%TO.C,J2*%
X51001000Y-11700000D02*
X54001000Y-11700000D01*
X51001000Y-12400000D02*
X51001000Y-11700000D01*
X51001000Y-15900000D02*
X61001000Y-15900000D01*
X54001000Y-11700000D02*
X54001000Y-10700000D01*
X61001000Y-11700000D02*
X58001000Y-11700000D01*
X61001000Y-12400000D02*
X61001000Y-11700000D01*
D12*
%TO.C,U1*%
X68701000Y-8800000D02*
X68701000Y-10400000D01*
X70501000Y-10400000D02*
X70501000Y-8500000D01*
D13*
%TO.C,J2*%
X91001000Y-56700000D02*
X94001000Y-56700000D01*
X91001000Y-57400000D02*
X91001000Y-56700000D01*
X91001000Y-60900000D02*
X101001000Y-60900000D01*
X94001000Y-56700000D02*
X94001000Y-55700000D01*
X101001000Y-56700000D02*
X98001000Y-56700000D01*
X101001000Y-57400000D02*
X101001000Y-56700000D01*
X11001000Y-79200000D02*
X14001000Y-79200000D01*
X11001000Y-79900000D02*
X11001000Y-79200000D01*
X11001000Y-83400000D02*
X21001000Y-83400000D01*
X14001000Y-79200000D02*
X14001000Y-78200000D01*
X21001000Y-79200000D02*
X18001000Y-79200000D01*
X21001000Y-79900000D02*
X21001000Y-79200000D01*
D12*
%TO.C,U1*%
X28701000Y-31300000D02*
X28701000Y-32900000D01*
X30501000Y-32900000D02*
X30501000Y-31000000D01*
%TO.C,R1*%
X22378500Y-32337258D02*
X22378500Y-31862742D01*
X23423500Y-32337258D02*
X23423500Y-31862742D01*
%TO.C,R2*%
X80978500Y-54362742D02*
X80978500Y-54837258D01*
X82023500Y-54362742D02*
X82023500Y-54837258D01*
X100978500Y-76862742D02*
X100978500Y-77337258D01*
X102023500Y-76862742D02*
X102023500Y-77337258D01*
X40978500Y-54362742D02*
X40978500Y-54837258D01*
X42023500Y-54362742D02*
X42023500Y-54837258D01*
D13*
%TO.C,J2*%
X91001000Y-11700000D02*
X94001000Y-11700000D01*
X91001000Y-12400000D02*
X91001000Y-11700000D01*
X91001000Y-15900000D02*
X101001000Y-15900000D01*
X94001000Y-11700000D02*
X94001000Y-10700000D01*
X101001000Y-11700000D02*
X98001000Y-11700000D01*
X101001000Y-12400000D02*
X101001000Y-11700000D01*
D12*
%TO.C,R2*%
X60978500Y-54362742D02*
X60978500Y-54837258D01*
X62023500Y-54362742D02*
X62023500Y-54837258D01*
%TO.C,R1*%
X42378500Y-32337258D02*
X42378500Y-31862742D01*
X43423500Y-32337258D02*
X43423500Y-31862742D01*
%TO.C,U1*%
X28701000Y-76300000D02*
X28701000Y-77900000D01*
X30501000Y-77900000D02*
X30501000Y-76000000D01*
X88701000Y-31300000D02*
X88701000Y-32900000D01*
X90501000Y-32900000D02*
X90501000Y-31000000D01*
%TO.C,R2*%
X20978500Y-54362742D02*
X20978500Y-54837258D01*
X22023500Y-54362742D02*
X22023500Y-54837258D01*
%TO.C,R1*%
X82378500Y-9837258D02*
X82378500Y-9362742D01*
X83423500Y-9837258D02*
X83423500Y-9362742D01*
%TO.C,U1*%
X48701000Y-76300000D02*
X48701000Y-77900000D01*
X50501000Y-77900000D02*
X50501000Y-76000000D01*
%TO.C,R2*%
X20978500Y-31862742D02*
X20978500Y-32337258D01*
X22023500Y-31862742D02*
X22023500Y-32337258D01*
%TD*%
M02*
