M48
; DRILL file {KiCad 8.0.4} date 2024-12-20T12:35:38+0800
; FORMAT={-:-/ absolute / metric / decimal}
; #@! TF.CreationDate,2024-12-20T12:35:38+08:00
; #@! TF.GenerationSoftware,Kicad,Pcbnew,8.0.4
; #@! TF.FileFunction,NonPlated,1,2,NPTH
FMAT,2
METRIC
; #@! TA.AperFunction,NonPlated,NPTH,ComponentDrill
T1C0.500
; #@! TA.AperFunction,NonPlated,NPTH,ComponentDrill
T2C0.650
; #@! TA.AperFunction,NonPlated,NPTH,ComponentDrill
T3C2.100
%
G90
G05
T1
X6.901Y-6.25
X6.901Y-7.05
X6.901Y-7.85
X6.901Y-8.65
X6.901Y-9.45
X6.901Y-10.25
X6.901Y-28.75
X6.901Y-29.55
X6.901Y-30.35
X6.901Y-31.15
X6.901Y-31.95
X6.901Y-32.75
X6.901Y-51.25
X6.901Y-52.05
X6.901Y-52.85
X6.901Y-53.65
X6.901Y-54.45
X6.901Y-55.25
X6.901Y-73.75
X6.901Y-74.55
X6.901Y-75.35
X6.901Y-76.15
X6.901Y-76.95
X6.901Y-77.75
X25.101Y-6.25
X25.101Y-7.05
X25.101Y-7.85
X25.101Y-8.65
X25.101Y-9.45
X25.101Y-10.25
X25.101Y-28.75
X25.101Y-29.55
X25.101Y-30.35
X25.101Y-31.15
X25.101Y-31.95
X25.101Y-32.75
X25.101Y-51.25
X25.101Y-52.05
X25.101Y-52.85
X25.101Y-53.65
X25.101Y-54.45
X25.101Y-55.25
X25.101Y-73.75
X25.101Y-74.55
X25.101Y-75.35
X25.101Y-76.15
X25.101Y-76.95
X25.101Y-77.75
X26.901Y-6.25
X26.901Y-7.05
X26.901Y-7.85
X26.901Y-8.65
X26.901Y-9.45
X26.901Y-10.25
X26.901Y-28.75
X26.901Y-29.55
X26.901Y-30.35
X26.901Y-31.15
X26.901Y-31.95
X26.901Y-32.75
X26.901Y-51.25
X26.901Y-52.05
X26.901Y-52.85
X26.901Y-53.65
X26.901Y-54.45
X26.901Y-55.25
X26.901Y-73.75
X26.901Y-74.55
X26.901Y-75.35
X26.901Y-76.15
X26.901Y-76.95
X26.901Y-77.75
X45.101Y-6.25
X45.101Y-7.05
X45.101Y-7.85
X45.101Y-8.65
X45.101Y-9.45
X45.101Y-10.25
X45.101Y-28.75
X45.101Y-29.55
X45.101Y-30.35
X45.101Y-31.15
X45.101Y-31.95
X45.101Y-32.75
X45.101Y-51.25
X45.101Y-52.05
X45.101Y-52.85
X45.101Y-53.65
X45.101Y-54.45
X45.101Y-55.25
X45.101Y-73.75
X45.101Y-74.55
X45.101Y-75.35
X45.101Y-76.15
X45.101Y-76.95
X45.101Y-77.75
X46.901Y-6.25
X46.901Y-7.05
X46.901Y-7.85
X46.901Y-8.65
X46.901Y-9.45
X46.901Y-10.25
X46.901Y-28.75
X46.901Y-29.55
X46.901Y-30.35
X46.901Y-31.15
X46.901Y-31.95
X46.901Y-32.75
X46.901Y-51.25
X46.901Y-52.05
X46.901Y-52.85
X46.901Y-53.65
X46.901Y-54.45
X46.901Y-55.25
X46.901Y-73.75
X46.901Y-74.55
X46.901Y-75.35
X46.901Y-76.15
X46.901Y-76.95
X46.901Y-77.75
X65.101Y-6.25
X65.101Y-7.05
X65.101Y-7.85
X65.101Y-8.65
X65.101Y-9.45
X65.101Y-10.25
X65.101Y-28.75
X65.101Y-29.55
X65.101Y-30.35
X65.101Y-31.15
X65.101Y-31.95
X65.101Y-32.75
X65.101Y-51.25
X65.101Y-52.05
X65.101Y-52.85
X65.101Y-53.65
X65.101Y-54.45
X65.101Y-55.25
X65.101Y-73.75
X65.101Y-74.55
X65.101Y-75.35
X65.101Y-76.15
X65.101Y-76.95
X65.101Y-77.75
X66.901Y-6.25
X66.901Y-7.05
X66.901Y-7.85
X66.901Y-8.65
X66.901Y-9.45
X66.901Y-10.25
X66.901Y-28.75
X66.901Y-29.55
X66.901Y-30.35
X66.901Y-31.15
X66.901Y-31.95
X66.901Y-32.75
X66.901Y-51.25
X66.901Y-52.05
X66.901Y-52.85
X66.901Y-53.65
X66.901Y-54.45
X66.901Y-55.25
X66.901Y-73.75
X66.901Y-74.55
X66.901Y-75.35
X66.901Y-76.15
X66.901Y-76.95
X66.901Y-77.75
X85.101Y-6.25
X85.101Y-7.05
X85.101Y-7.85
X85.101Y-8.65
X85.101Y-9.45
X85.101Y-10.25
X85.101Y-28.75
X85.101Y-29.55
X85.101Y-30.35
X85.101Y-31.15
X85.101Y-31.95
X85.101Y-32.75
X85.101Y-51.25
X85.101Y-52.05
X85.101Y-52.85
X85.101Y-53.65
X85.101Y-54.45
X85.101Y-55.25
X85.101Y-73.75
X85.101Y-74.55
X85.101Y-75.35
X85.101Y-76.15
X85.101Y-76.95
X85.101Y-77.75
X86.901Y-6.25
X86.901Y-7.05
X86.901Y-7.85
X86.901Y-8.65
X86.901Y-9.45
X86.901Y-10.25
X86.901Y-28.75
X86.901Y-29.55
X86.901Y-30.35
X86.901Y-31.15
X86.901Y-31.95
X86.901Y-32.75
X86.901Y-51.25
X86.901Y-52.05
X86.901Y-52.85
X86.901Y-53.65
X86.901Y-54.45
X86.901Y-55.25
X86.901Y-73.75
X86.901Y-74.55
X86.901Y-75.35
X86.901Y-76.15
X86.901Y-76.95
X86.901Y-77.75
X105.101Y-6.25
X105.101Y-7.05
X105.101Y-7.85
X105.101Y-8.65
X105.101Y-9.45
X105.101Y-10.25
X105.101Y-28.75
X105.101Y-29.55
X105.101Y-30.35
X105.101Y-31.15
X105.101Y-31.95
X105.101Y-32.75
X105.101Y-51.25
X105.101Y-52.05
X105.101Y-52.85
X105.101Y-53.65
X105.101Y-54.45
X105.101Y-55.25
X105.101Y-73.75
X105.101Y-74.55
X105.101Y-75.35
X105.101Y-76.15
X105.101Y-76.95
X105.101Y-77.75
T2
X13.111Y-5.05
X13.111Y-27.55
X13.111Y-50.05
X13.111Y-72.55
X18.891Y-5.05
X18.891Y-27.55
X18.891Y-50.05
X18.891Y-72.55
X33.111Y-5.05
X33.111Y-27.55
X33.111Y-50.05
X33.111Y-72.55
X38.891Y-5.05
X38.891Y-27.55
X38.891Y-50.05
X38.891Y-72.55
X53.111Y-5.05
X53.111Y-27.55
X53.111Y-50.05
X53.111Y-72.55
X58.891Y-5.05
X58.891Y-27.55
X58.891Y-50.05
X58.891Y-72.55
X73.111Y-5.05
X73.111Y-27.55
X73.111Y-50.05
X73.111Y-72.55
X78.891Y-5.05
X78.891Y-27.55
X78.891Y-50.05
X78.891Y-72.55
X93.111Y-5.05
X93.111Y-27.55
X93.111Y-50.05
X93.111Y-72.55
X98.891Y-5.05
X98.891Y-27.55
X98.891Y-50.05
X98.891Y-72.55
T3
X2.5Y-2.5
X2.5Y-81.5
X109.502Y-2.5
X109.502Y-81.5
M30
