%TF.GenerationSoftware,KiCad,Pcbnew,(5.1.10)-1*%
%TF.CreationDate,2021-07-14T16:30:43+08:00*%
%TF.ProjectId,u1_Warped,75315f57-6172-4706-9564-2e6b69636164,rev?*%
%TF.SameCoordinates,Original*%
%TF.FileFunction,Legend,Top*%
%TF.FilePolarity,Positive*%
%FSLAX46Y46*%
G04 Gerber Fmt 4.6, Leading zero omitted, Abs format (unit mm)*
G04 Created by KiCad (PCBNEW (5.1.10)-1) date 2021-07-14 16:30:43*
%MOMM*%
%LPD*%
G01*
G04 APERTURE LIST*
%ADD10C,0.120000*%
G04 APERTURE END LIST*
D10*
%TO.C,R2*%
X140377500Y-118837258D02*
X140377500Y-118362742D01*
X141422500Y-118837258D02*
X141422500Y-118362742D01*
X120377500Y-118837258D02*
X120377500Y-118362742D01*
X121422500Y-118837258D02*
X121422500Y-118362742D01*
X100377500Y-118837258D02*
X100377500Y-118362742D01*
X101422500Y-118837258D02*
X101422500Y-118362742D01*
X80377500Y-118837258D02*
X80377500Y-118362742D01*
X81422500Y-118837258D02*
X81422500Y-118362742D01*
X60377500Y-118837258D02*
X60377500Y-118362742D01*
X61422500Y-118837258D02*
X61422500Y-118362742D01*
X140377500Y-100337258D02*
X140377500Y-99862742D01*
X141422500Y-100337258D02*
X141422500Y-99862742D01*
X120377500Y-100337258D02*
X120377500Y-99862742D01*
X121422500Y-100337258D02*
X121422500Y-99862742D01*
X100377500Y-100337258D02*
X100377500Y-99862742D01*
X101422500Y-100337258D02*
X101422500Y-99862742D01*
X80377500Y-100337258D02*
X80377500Y-99862742D01*
X81422500Y-100337258D02*
X81422500Y-99862742D01*
X60377500Y-100337258D02*
X60377500Y-99862742D01*
X61422500Y-100337258D02*
X61422500Y-99862742D01*
X140377500Y-81837258D02*
X140377500Y-81362742D01*
X141422500Y-81837258D02*
X141422500Y-81362742D01*
X120377500Y-81837258D02*
X120377500Y-81362742D01*
X121422500Y-81837258D02*
X121422500Y-81362742D01*
X100377500Y-81837258D02*
X100377500Y-81362742D01*
X101422500Y-81837258D02*
X101422500Y-81362742D01*
X80377500Y-81837258D02*
X80377500Y-81362742D01*
X81422500Y-81837258D02*
X81422500Y-81362742D01*
X60377500Y-81837258D02*
X60377500Y-81362742D01*
X61422500Y-81837258D02*
X61422500Y-81362742D01*
X140377500Y-63337258D02*
X140377500Y-62862742D01*
X141422500Y-63337258D02*
X141422500Y-62862742D01*
X120377500Y-63337258D02*
X120377500Y-62862742D01*
X121422500Y-63337258D02*
X121422500Y-62862742D01*
X100377500Y-63337258D02*
X100377500Y-62862742D01*
X101422500Y-63337258D02*
X101422500Y-62862742D01*
X80377500Y-63337258D02*
X80377500Y-62862742D01*
X81422500Y-63337258D02*
X81422500Y-62862742D01*
X60377500Y-63337258D02*
X60377500Y-62862742D01*
X61422500Y-63337258D02*
X61422500Y-62862742D01*
X140377500Y-44837258D02*
X140377500Y-44362742D01*
X141422500Y-44837258D02*
X141422500Y-44362742D01*
X120377500Y-44837258D02*
X120377500Y-44362742D01*
X121422500Y-44837258D02*
X121422500Y-44362742D01*
X100377500Y-44837258D02*
X100377500Y-44362742D01*
X101422500Y-44837258D02*
X101422500Y-44362742D01*
X80377500Y-44837258D02*
X80377500Y-44362742D01*
X81422500Y-44837258D02*
X81422500Y-44362742D01*
%TO.C,R1*%
X138977500Y-118362742D02*
X138977500Y-118837258D01*
X140022500Y-118362742D02*
X140022500Y-118837258D01*
X118977500Y-118362742D02*
X118977500Y-118837258D01*
X120022500Y-118362742D02*
X120022500Y-118837258D01*
X98977500Y-118362742D02*
X98977500Y-118837258D01*
X100022500Y-118362742D02*
X100022500Y-118837258D01*
X78977500Y-118362742D02*
X78977500Y-118837258D01*
X80022500Y-118362742D02*
X80022500Y-118837258D01*
X58977500Y-118362742D02*
X58977500Y-118837258D01*
X60022500Y-118362742D02*
X60022500Y-118837258D01*
X138977500Y-99862742D02*
X138977500Y-100337258D01*
X140022500Y-99862742D02*
X140022500Y-100337258D01*
X118977500Y-99862742D02*
X118977500Y-100337258D01*
X120022500Y-99862742D02*
X120022500Y-100337258D01*
X98977500Y-99862742D02*
X98977500Y-100337258D01*
X100022500Y-99862742D02*
X100022500Y-100337258D01*
X78977500Y-99862742D02*
X78977500Y-100337258D01*
X80022500Y-99862742D02*
X80022500Y-100337258D01*
X58977500Y-99862742D02*
X58977500Y-100337258D01*
X60022500Y-99862742D02*
X60022500Y-100337258D01*
X138977500Y-81362742D02*
X138977500Y-81837258D01*
X140022500Y-81362742D02*
X140022500Y-81837258D01*
X118977500Y-81362742D02*
X118977500Y-81837258D01*
X120022500Y-81362742D02*
X120022500Y-81837258D01*
X98977500Y-81362742D02*
X98977500Y-81837258D01*
X100022500Y-81362742D02*
X100022500Y-81837258D01*
X78977500Y-81362742D02*
X78977500Y-81837258D01*
X80022500Y-81362742D02*
X80022500Y-81837258D01*
X58977500Y-81362742D02*
X58977500Y-81837258D01*
X60022500Y-81362742D02*
X60022500Y-81837258D01*
X138977500Y-62862742D02*
X138977500Y-63337258D01*
X140022500Y-62862742D02*
X140022500Y-63337258D01*
X118977500Y-62862742D02*
X118977500Y-63337258D01*
X120022500Y-62862742D02*
X120022500Y-63337258D01*
X98977500Y-62862742D02*
X98977500Y-63337258D01*
X100022500Y-62862742D02*
X100022500Y-63337258D01*
X78977500Y-62862742D02*
X78977500Y-63337258D01*
X80022500Y-62862742D02*
X80022500Y-63337258D01*
X58977500Y-62862742D02*
X58977500Y-63337258D01*
X60022500Y-62862742D02*
X60022500Y-63337258D01*
X138977500Y-44362742D02*
X138977500Y-44837258D01*
X140022500Y-44362742D02*
X140022500Y-44837258D01*
X118977500Y-44362742D02*
X118977500Y-44837258D01*
X120022500Y-44362742D02*
X120022500Y-44837258D01*
X98977500Y-44362742D02*
X98977500Y-44837258D01*
X100022500Y-44362742D02*
X100022500Y-44837258D01*
X78977500Y-44362742D02*
X78977500Y-44837258D01*
X80022500Y-44362742D02*
X80022500Y-44837258D01*
%TO.C,J2*%
X130890000Y-123215000D02*
X130890000Y-120715000D01*
X130890000Y-120715000D02*
X131940000Y-120715000D01*
X131940000Y-120715000D02*
X131940000Y-119725000D01*
X137110000Y-123215000D02*
X137110000Y-120715000D01*
X137110000Y-120715000D02*
X136060000Y-120715000D01*
X132060000Y-125185000D02*
X135940000Y-125185000D01*
X110890000Y-123215000D02*
X110890000Y-120715000D01*
X110890000Y-120715000D02*
X111940000Y-120715000D01*
X111940000Y-120715000D02*
X111940000Y-119725000D01*
X117110000Y-123215000D02*
X117110000Y-120715000D01*
X117110000Y-120715000D02*
X116060000Y-120715000D01*
X112060000Y-125185000D02*
X115940000Y-125185000D01*
X90890000Y-123215000D02*
X90890000Y-120715000D01*
X90890000Y-120715000D02*
X91940000Y-120715000D01*
X91940000Y-120715000D02*
X91940000Y-119725000D01*
X97110000Y-123215000D02*
X97110000Y-120715000D01*
X97110000Y-120715000D02*
X96060000Y-120715000D01*
X92060000Y-125185000D02*
X95940000Y-125185000D01*
X70890000Y-123215000D02*
X70890000Y-120715000D01*
X70890000Y-120715000D02*
X71940000Y-120715000D01*
X71940000Y-120715000D02*
X71940000Y-119725000D01*
X77110000Y-123215000D02*
X77110000Y-120715000D01*
X77110000Y-120715000D02*
X76060000Y-120715000D01*
X72060000Y-125185000D02*
X75940000Y-125185000D01*
X50890000Y-123215000D02*
X50890000Y-120715000D01*
X50890000Y-120715000D02*
X51940000Y-120715000D01*
X51940000Y-120715000D02*
X51940000Y-119725000D01*
X57110000Y-123215000D02*
X57110000Y-120715000D01*
X57110000Y-120715000D02*
X56060000Y-120715000D01*
X52060000Y-125185000D02*
X55940000Y-125185000D01*
X130890000Y-104715000D02*
X130890000Y-102215000D01*
X130890000Y-102215000D02*
X131940000Y-102215000D01*
X131940000Y-102215000D02*
X131940000Y-101225000D01*
X137110000Y-104715000D02*
X137110000Y-102215000D01*
X137110000Y-102215000D02*
X136060000Y-102215000D01*
X132060000Y-106685000D02*
X135940000Y-106685000D01*
X110890000Y-104715000D02*
X110890000Y-102215000D01*
X110890000Y-102215000D02*
X111940000Y-102215000D01*
X111940000Y-102215000D02*
X111940000Y-101225000D01*
X117110000Y-104715000D02*
X117110000Y-102215000D01*
X117110000Y-102215000D02*
X116060000Y-102215000D01*
X112060000Y-106685000D02*
X115940000Y-106685000D01*
X90890000Y-104715000D02*
X90890000Y-102215000D01*
X90890000Y-102215000D02*
X91940000Y-102215000D01*
X91940000Y-102215000D02*
X91940000Y-101225000D01*
X97110000Y-104715000D02*
X97110000Y-102215000D01*
X97110000Y-102215000D02*
X96060000Y-102215000D01*
X92060000Y-106685000D02*
X95940000Y-106685000D01*
X70890000Y-104715000D02*
X70890000Y-102215000D01*
X70890000Y-102215000D02*
X71940000Y-102215000D01*
X71940000Y-102215000D02*
X71940000Y-101225000D01*
X77110000Y-104715000D02*
X77110000Y-102215000D01*
X77110000Y-102215000D02*
X76060000Y-102215000D01*
X72060000Y-106685000D02*
X75940000Y-106685000D01*
X50890000Y-104715000D02*
X50890000Y-102215000D01*
X50890000Y-102215000D02*
X51940000Y-102215000D01*
X51940000Y-102215000D02*
X51940000Y-101225000D01*
X57110000Y-104715000D02*
X57110000Y-102215000D01*
X57110000Y-102215000D02*
X56060000Y-102215000D01*
X52060000Y-106685000D02*
X55940000Y-106685000D01*
X130890000Y-86215000D02*
X130890000Y-83715000D01*
X130890000Y-83715000D02*
X131940000Y-83715000D01*
X131940000Y-83715000D02*
X131940000Y-82725000D01*
X137110000Y-86215000D02*
X137110000Y-83715000D01*
X137110000Y-83715000D02*
X136060000Y-83715000D01*
X132060000Y-88185000D02*
X135940000Y-88185000D01*
X110890000Y-86215000D02*
X110890000Y-83715000D01*
X110890000Y-83715000D02*
X111940000Y-83715000D01*
X111940000Y-83715000D02*
X111940000Y-82725000D01*
X117110000Y-86215000D02*
X117110000Y-83715000D01*
X117110000Y-83715000D02*
X116060000Y-83715000D01*
X112060000Y-88185000D02*
X115940000Y-88185000D01*
X90890000Y-86215000D02*
X90890000Y-83715000D01*
X90890000Y-83715000D02*
X91940000Y-83715000D01*
X91940000Y-83715000D02*
X91940000Y-82725000D01*
X97110000Y-86215000D02*
X97110000Y-83715000D01*
X97110000Y-83715000D02*
X96060000Y-83715000D01*
X92060000Y-88185000D02*
X95940000Y-88185000D01*
X70890000Y-86215000D02*
X70890000Y-83715000D01*
X70890000Y-83715000D02*
X71940000Y-83715000D01*
X71940000Y-83715000D02*
X71940000Y-82725000D01*
X77110000Y-86215000D02*
X77110000Y-83715000D01*
X77110000Y-83715000D02*
X76060000Y-83715000D01*
X72060000Y-88185000D02*
X75940000Y-88185000D01*
X50890000Y-86215000D02*
X50890000Y-83715000D01*
X50890000Y-83715000D02*
X51940000Y-83715000D01*
X51940000Y-83715000D02*
X51940000Y-82725000D01*
X57110000Y-86215000D02*
X57110000Y-83715000D01*
X57110000Y-83715000D02*
X56060000Y-83715000D01*
X52060000Y-88185000D02*
X55940000Y-88185000D01*
X130890000Y-67715000D02*
X130890000Y-65215000D01*
X130890000Y-65215000D02*
X131940000Y-65215000D01*
X131940000Y-65215000D02*
X131940000Y-64225000D01*
X137110000Y-67715000D02*
X137110000Y-65215000D01*
X137110000Y-65215000D02*
X136060000Y-65215000D01*
X132060000Y-69685000D02*
X135940000Y-69685000D01*
X110890000Y-67715000D02*
X110890000Y-65215000D01*
X110890000Y-65215000D02*
X111940000Y-65215000D01*
X111940000Y-65215000D02*
X111940000Y-64225000D01*
X117110000Y-67715000D02*
X117110000Y-65215000D01*
X117110000Y-65215000D02*
X116060000Y-65215000D01*
X112060000Y-69685000D02*
X115940000Y-69685000D01*
X90890000Y-67715000D02*
X90890000Y-65215000D01*
X90890000Y-65215000D02*
X91940000Y-65215000D01*
X91940000Y-65215000D02*
X91940000Y-64225000D01*
X97110000Y-67715000D02*
X97110000Y-65215000D01*
X97110000Y-65215000D02*
X96060000Y-65215000D01*
X92060000Y-69685000D02*
X95940000Y-69685000D01*
X70890000Y-67715000D02*
X70890000Y-65215000D01*
X70890000Y-65215000D02*
X71940000Y-65215000D01*
X71940000Y-65215000D02*
X71940000Y-64225000D01*
X77110000Y-67715000D02*
X77110000Y-65215000D01*
X77110000Y-65215000D02*
X76060000Y-65215000D01*
X72060000Y-69685000D02*
X75940000Y-69685000D01*
X50890000Y-67715000D02*
X50890000Y-65215000D01*
X50890000Y-65215000D02*
X51940000Y-65215000D01*
X51940000Y-65215000D02*
X51940000Y-64225000D01*
X57110000Y-67715000D02*
X57110000Y-65215000D01*
X57110000Y-65215000D02*
X56060000Y-65215000D01*
X52060000Y-69685000D02*
X55940000Y-69685000D01*
X130890000Y-49215000D02*
X130890000Y-46715000D01*
X130890000Y-46715000D02*
X131940000Y-46715000D01*
X131940000Y-46715000D02*
X131940000Y-45725000D01*
X137110000Y-49215000D02*
X137110000Y-46715000D01*
X137110000Y-46715000D02*
X136060000Y-46715000D01*
X132060000Y-51185000D02*
X135940000Y-51185000D01*
X110890000Y-49215000D02*
X110890000Y-46715000D01*
X110890000Y-46715000D02*
X111940000Y-46715000D01*
X111940000Y-46715000D02*
X111940000Y-45725000D01*
X117110000Y-49215000D02*
X117110000Y-46715000D01*
X117110000Y-46715000D02*
X116060000Y-46715000D01*
X112060000Y-51185000D02*
X115940000Y-51185000D01*
X90890000Y-49215000D02*
X90890000Y-46715000D01*
X90890000Y-46715000D02*
X91940000Y-46715000D01*
X91940000Y-46715000D02*
X91940000Y-45725000D01*
X97110000Y-49215000D02*
X97110000Y-46715000D01*
X97110000Y-46715000D02*
X96060000Y-46715000D01*
X92060000Y-51185000D02*
X95940000Y-51185000D01*
X70890000Y-49215000D02*
X70890000Y-46715000D01*
X70890000Y-46715000D02*
X71940000Y-46715000D01*
X71940000Y-46715000D02*
X71940000Y-45725000D01*
X77110000Y-49215000D02*
X77110000Y-46715000D01*
X77110000Y-46715000D02*
X76060000Y-46715000D01*
X72060000Y-51185000D02*
X75940000Y-51185000D01*
%TO.C,U1*%
X126700000Y-117800000D02*
X126700000Y-119400000D01*
X128500000Y-119400000D02*
X128500000Y-117500000D01*
X106700000Y-117800000D02*
X106700000Y-119400000D01*
X108500000Y-119400000D02*
X108500000Y-117500000D01*
X86700000Y-117800000D02*
X86700000Y-119400000D01*
X88500000Y-119400000D02*
X88500000Y-117500000D01*
X66700000Y-117800000D02*
X66700000Y-119400000D01*
X68500000Y-119400000D02*
X68500000Y-117500000D01*
X46700000Y-117800000D02*
X46700000Y-119400000D01*
X48500000Y-119400000D02*
X48500000Y-117500000D01*
X126700000Y-99300000D02*
X126700000Y-100900000D01*
X128500000Y-100900000D02*
X128500000Y-99000000D01*
X106700000Y-99300000D02*
X106700000Y-100900000D01*
X108500000Y-100900000D02*
X108500000Y-99000000D01*
X86700000Y-99300000D02*
X86700000Y-100900000D01*
X88500000Y-100900000D02*
X88500000Y-99000000D01*
X66700000Y-99300000D02*
X66700000Y-100900000D01*
X68500000Y-100900000D02*
X68500000Y-99000000D01*
X46700000Y-99300000D02*
X46700000Y-100900000D01*
X48500000Y-100900000D02*
X48500000Y-99000000D01*
X126700000Y-80800000D02*
X126700000Y-82400000D01*
X128500000Y-82400000D02*
X128500000Y-80500000D01*
X106700000Y-80800000D02*
X106700000Y-82400000D01*
X108500000Y-82400000D02*
X108500000Y-80500000D01*
X86700000Y-80800000D02*
X86700000Y-82400000D01*
X88500000Y-82400000D02*
X88500000Y-80500000D01*
X66700000Y-80800000D02*
X66700000Y-82400000D01*
X68500000Y-82400000D02*
X68500000Y-80500000D01*
X46700000Y-80800000D02*
X46700000Y-82400000D01*
X48500000Y-82400000D02*
X48500000Y-80500000D01*
X126700000Y-62300000D02*
X126700000Y-63900000D01*
X128500000Y-63900000D02*
X128500000Y-62000000D01*
X106700000Y-62300000D02*
X106700000Y-63900000D01*
X108500000Y-63900000D02*
X108500000Y-62000000D01*
X86700000Y-62300000D02*
X86700000Y-63900000D01*
X88500000Y-63900000D02*
X88500000Y-62000000D01*
X66700000Y-62300000D02*
X66700000Y-63900000D01*
X68500000Y-63900000D02*
X68500000Y-62000000D01*
X46700000Y-62300000D02*
X46700000Y-63900000D01*
X48500000Y-63900000D02*
X48500000Y-62000000D01*
X126700000Y-43800000D02*
X126700000Y-45400000D01*
X128500000Y-45400000D02*
X128500000Y-43500000D01*
X106700000Y-43800000D02*
X106700000Y-45400000D01*
X108500000Y-45400000D02*
X108500000Y-43500000D01*
X86700000Y-43800000D02*
X86700000Y-45400000D01*
X88500000Y-45400000D02*
X88500000Y-43500000D01*
X66700000Y-43800000D02*
X66700000Y-45400000D01*
X68500000Y-45400000D02*
X68500000Y-43500000D01*
%TO.C,R1*%
X60022500Y-44362742D02*
X60022500Y-44837258D01*
X58977500Y-44362742D02*
X58977500Y-44837258D01*
%TO.C,R2*%
X61422500Y-44837258D02*
X61422500Y-44362742D01*
X60377500Y-44837258D02*
X60377500Y-44362742D01*
%TO.C,U1*%
X48500000Y-45400000D02*
X48500000Y-43500000D01*
X46700000Y-43800000D02*
X46700000Y-45400000D01*
%TO.C,J2*%
X52060000Y-51185000D02*
X55940000Y-51185000D01*
X57110000Y-46715000D02*
X56060000Y-46715000D01*
X57110000Y-49215000D02*
X57110000Y-46715000D01*
X51940000Y-46715000D02*
X51940000Y-45725000D01*
X50890000Y-46715000D02*
X51940000Y-46715000D01*
X50890000Y-49215000D02*
X50890000Y-46715000D01*
%TD*%
M02*
