M48
; DRILL file {KiCad (5.1.10)-1} date 07/14/21 16:30:41
; FORMAT={-:-/ absolute / metric / decimal}
; #@! TF.CreationDate,2021-07-14T16:30:41+08:00
; #@! TF.GenerationSoftware,Kicad,Pcbnew,(5.1.10)-1
; #@! TF.FileFunction,NonPlated,1,2,NPTH
FMAT,2
METRIC
T1C0.600
T2C0.650
T3C2.100
%
G90
G05
T1
X44.9Y-40.55
X44.9Y-41.45
X44.9Y-42.35
X44.9Y-43.25
X44.9Y-44.15
X44.9Y-45.05
X44.9Y-45.95
X44.9Y-59.05
X44.9Y-59.95
X44.9Y-60.85
X44.9Y-61.75
X44.9Y-62.65
X44.9Y-63.55
X44.9Y-64.45
X44.9Y-77.55
X44.9Y-78.45
X44.9Y-79.35
X44.9Y-80.25
X44.9Y-81.15
X44.9Y-82.05
X44.9Y-82.95
X44.9Y-96.05
X44.9Y-96.95
X44.9Y-97.85
X44.9Y-98.75
X44.9Y-99.65
X44.9Y-100.55
X44.9Y-101.45
X44.9Y-114.55
X44.9Y-115.45
X44.9Y-116.35
X44.9Y-117.25
X44.9Y-118.15
X44.9Y-119.05
X44.9Y-119.95
X63.1Y-40.55
X63.1Y-41.45
X63.1Y-42.35
X63.1Y-43.25
X63.1Y-44.15
X63.1Y-45.05
X63.1Y-45.95
X63.1Y-59.05
X63.1Y-59.95
X63.1Y-60.85
X63.1Y-61.75
X63.1Y-62.65
X63.1Y-63.55
X63.1Y-64.45
X63.1Y-77.55
X63.1Y-78.45
X63.1Y-79.35
X63.1Y-80.25
X63.1Y-81.15
X63.1Y-82.05
X63.1Y-82.95
X63.1Y-96.05
X63.1Y-96.95
X63.1Y-97.85
X63.1Y-98.75
X63.1Y-99.65
X63.1Y-100.55
X63.1Y-101.45
X63.1Y-114.55
X63.1Y-115.45
X63.1Y-116.35
X63.1Y-117.25
X63.1Y-118.15
X63.1Y-119.05
X63.1Y-119.95
X64.9Y-40.55
X64.9Y-41.45
X64.9Y-42.35
X64.9Y-43.25
X64.9Y-44.15
X64.9Y-45.05
X64.9Y-45.95
X64.9Y-59.05
X64.9Y-59.95
X64.9Y-60.85
X64.9Y-61.75
X64.9Y-62.65
X64.9Y-63.55
X64.9Y-64.45
X64.9Y-77.55
X64.9Y-78.45
X64.9Y-79.35
X64.9Y-80.25
X64.9Y-81.15
X64.9Y-82.05
X64.9Y-82.95
X64.9Y-96.05
X64.9Y-96.95
X64.9Y-97.85
X64.9Y-98.75
X64.9Y-99.65
X64.9Y-100.55
X64.9Y-101.45
X64.9Y-114.55
X64.9Y-115.45
X64.9Y-116.35
X64.9Y-117.25
X64.9Y-118.15
X64.9Y-119.05
X64.9Y-119.95
X83.1Y-40.55
X83.1Y-41.45
X83.1Y-42.35
X83.1Y-43.25
X83.1Y-44.15
X83.1Y-45.05
X83.1Y-45.95
X83.1Y-59.05
X83.1Y-59.95
X83.1Y-60.85
X83.1Y-61.75
X83.1Y-62.65
X83.1Y-63.55
X83.1Y-64.45
X83.1Y-77.55
X83.1Y-78.45
X83.1Y-79.35
X83.1Y-80.25
X83.1Y-81.15
X83.1Y-82.05
X83.1Y-82.95
X83.1Y-96.05
X83.1Y-96.95
X83.1Y-97.85
X83.1Y-98.75
X83.1Y-99.65
X83.1Y-100.55
X83.1Y-101.45
X83.1Y-114.55
X83.1Y-115.45
X83.1Y-116.35
X83.1Y-117.25
X83.1Y-118.15
X83.1Y-119.05
X83.1Y-119.95
X84.9Y-40.55
X84.9Y-41.45
X84.9Y-42.35
X84.9Y-43.25
X84.9Y-44.15
X84.9Y-45.05
X84.9Y-45.95
X84.9Y-59.05
X84.9Y-59.95
X84.9Y-60.85
X84.9Y-61.75
X84.9Y-62.65
X84.9Y-63.55
X84.9Y-64.45
X84.9Y-77.55
X84.9Y-78.45
X84.9Y-79.35
X84.9Y-80.25
X84.9Y-81.15
X84.9Y-82.05
X84.9Y-82.95
X84.9Y-96.05
X84.9Y-96.95
X84.9Y-97.85
X84.9Y-98.75
X84.9Y-99.65
X84.9Y-100.55
X84.9Y-101.45
X84.9Y-114.55
X84.9Y-115.45
X84.9Y-116.35
X84.9Y-117.25
X84.9Y-118.15
X84.9Y-119.05
X84.9Y-119.95
X103.1Y-40.55
X103.1Y-41.45
X103.1Y-42.35
X103.1Y-43.25
X103.1Y-44.15
X103.1Y-45.05
X103.1Y-45.95
X103.1Y-59.05
X103.1Y-59.95
X103.1Y-60.85
X103.1Y-61.75
X103.1Y-62.65
X103.1Y-63.55
X103.1Y-64.45
X103.1Y-77.55
X103.1Y-78.45
X103.1Y-79.35
X103.1Y-80.25
X103.1Y-81.15
X103.1Y-82.05
X103.1Y-82.95
X103.1Y-96.05
X103.1Y-96.95
X103.1Y-97.85
X103.1Y-98.75
X103.1Y-99.65
X103.1Y-100.55
X103.1Y-101.45
X103.1Y-114.55
X103.1Y-115.45
X103.1Y-116.35
X103.1Y-117.25
X103.1Y-118.15
X103.1Y-119.05
X103.1Y-119.95
X104.9Y-40.55
X104.9Y-41.45
X104.9Y-42.35
X104.9Y-43.25
X104.9Y-44.15
X104.9Y-45.05
X104.9Y-45.95
X104.9Y-59.05
X104.9Y-59.95
X104.9Y-60.85
X104.9Y-61.75
X104.9Y-62.65
X104.9Y-63.55
X104.9Y-64.45
X104.9Y-77.55
X104.9Y-78.45
X104.9Y-79.35
X104.9Y-80.25
X104.9Y-81.15
X104.9Y-82.05
X104.9Y-82.95
X104.9Y-96.05
X104.9Y-96.95
X104.9Y-97.85
X104.9Y-98.75
X104.9Y-99.65
X104.9Y-100.55
X104.9Y-101.45
X104.9Y-114.55
X104.9Y-115.45
X104.9Y-116.35
X104.9Y-117.25
X104.9Y-118.15
X104.9Y-119.05
X104.9Y-119.95
X123.1Y-40.55
X123.1Y-41.45
X123.1Y-42.35
X123.1Y-43.25
X123.1Y-44.15
X123.1Y-45.05
X123.1Y-45.95
X123.1Y-59.05
X123.1Y-59.95
X123.1Y-60.85
X123.1Y-61.75
X123.1Y-62.65
X123.1Y-63.55
X123.1Y-64.45
X123.1Y-77.55
X123.1Y-78.45
X123.1Y-79.35
X123.1Y-80.25
X123.1Y-81.15
X123.1Y-82.05
X123.1Y-82.95
X123.1Y-96.05
X123.1Y-96.95
X123.1Y-97.85
X123.1Y-98.75
X123.1Y-99.65
X123.1Y-100.55
X123.1Y-101.45
X123.1Y-114.55
X123.1Y-115.45
X123.1Y-116.35
X123.1Y-117.25
X123.1Y-118.15
X123.1Y-119.05
X123.1Y-119.95
X124.9Y-40.55
X124.9Y-41.45
X124.9Y-42.35
X124.9Y-43.25
X124.9Y-44.15
X124.9Y-45.05
X124.9Y-45.95
X124.9Y-59.05
X124.9Y-59.95
X124.9Y-60.85
X124.9Y-61.75
X124.9Y-62.65
X124.9Y-63.55
X124.9Y-64.45
X124.9Y-77.55
X124.9Y-78.45
X124.9Y-79.35
X124.9Y-80.25
X124.9Y-81.15
X124.9Y-82.05
X124.9Y-82.95
X124.9Y-96.05
X124.9Y-96.95
X124.9Y-97.85
X124.9Y-98.75
X124.9Y-99.65
X124.9Y-100.55
X124.9Y-101.45
X124.9Y-114.55
X124.9Y-115.45
X124.9Y-116.35
X124.9Y-117.25
X124.9Y-118.15
X124.9Y-119.05
X124.9Y-119.95
X143.1Y-40.55
X143.1Y-41.45
X143.1Y-42.35
X143.1Y-43.25
X143.1Y-44.15
X143.1Y-45.05
X143.1Y-45.95
X143.1Y-59.05
X143.1Y-59.95
X143.1Y-60.85
X143.1Y-61.75
X143.1Y-62.65
X143.1Y-63.55
X143.1Y-64.45
X143.1Y-77.55
X143.1Y-78.45
X143.1Y-79.35
X143.1Y-80.25
X143.1Y-81.15
X143.1Y-82.05
X143.1Y-82.95
X143.1Y-96.05
X143.1Y-96.95
X143.1Y-97.85
X143.1Y-98.75
X143.1Y-99.65
X143.1Y-100.55
X143.1Y-101.45
X143.1Y-114.55
X143.1Y-115.45
X143.1Y-116.35
X143.1Y-117.25
X143.1Y-118.15
X143.1Y-119.05
X143.1Y-119.95
T2
X51.11Y-41.3
X51.11Y-59.8
X51.11Y-78.3
X51.11Y-96.8
X51.11Y-115.3
X56.89Y-41.3
X56.89Y-59.8
X56.89Y-78.3
X56.89Y-96.8
X56.89Y-115.3
X71.11Y-41.3
X71.11Y-59.8
X71.11Y-78.3
X71.11Y-96.8
X71.11Y-115.3
X76.89Y-41.3
X76.89Y-59.8
X76.89Y-78.3
X76.89Y-96.8
X76.89Y-115.3
X91.11Y-41.3
X91.11Y-59.8
X91.11Y-78.3
X91.11Y-96.8
X91.11Y-115.3
X96.89Y-41.3
X96.89Y-59.8
X96.89Y-78.3
X96.89Y-96.8
X96.89Y-115.3
X111.11Y-41.3
X111.11Y-59.8
X111.11Y-78.3
X111.11Y-96.8
X111.11Y-115.3
X116.89Y-41.3
X116.89Y-59.8
X116.89Y-78.3
X116.89Y-96.8
X116.89Y-115.3
X131.11Y-41.3
X131.11Y-59.8
X131.11Y-78.3
X131.11Y-96.8
X131.11Y-115.3
X136.89Y-41.3
X136.89Y-59.8
X136.89Y-78.3
X136.89Y-96.8
X136.89Y-115.3
T3
X40.5Y-37.5
X40.5Y-123.0
X147.5Y-37.5
X147.5Y-123.0
T0
M30
