%TF.GenerationSoftware,KiCad,Pcbnew,8.0.3*%
%TF.CreationDate,2024-08-04T17:04:02+08:00*%
%TF.ProjectId,u1,75312e6b-6963-4616-945f-706362585858,rev?*%
%TF.SameCoordinates,PX2aea540PY2160ec0*%
%TF.FileFunction,Copper,L1,Top*%
%TF.FilePolarity,Positive*%
%FSLAX46Y46*%
G04 Gerber Fmt 4.6, Leading zero omitted, Abs format (unit mm)*
G04 Created by KiCad (PCBNEW 8.0.3) date 2024-08-04 17:04:02*
%MOMM*%
%LPD*%
G01*
G04 APERTURE LIST*
G04 Aperture macros list*
%AMRoundRect*
0 Rectangle with rounded corners*
0 $1 Rounding radius*
0 $2 $3 $4 $5 $6 $7 $8 $9 X,Y pos of 4 corners*
0 Add a 4 corners polygon primitive as box body*
4,1,4,$2,$3,$4,$5,$6,$7,$8,$9,$2,$3,0*
0 Add four circle primitives for the rounded corners*
1,1,$1+$1,$2,$3*
1,1,$1+$1,$4,$5*
1,1,$1+$1,$6,$7*
1,1,$1+$1,$8,$9*
0 Add four rect primitives between the rounded corners*
20,1,$1+$1,$2,$3,$4,$5,0*
20,1,$1+$1,$4,$5,$6,$7,0*
20,1,$1+$1,$6,$7,$8,$9,0*
20,1,$1+$1,$8,$9,$2,$3,0*%
G04 Aperture macros list end*
%ADD10C,0.100000*%
%ADD11C,0.150000*%
%ADD12C,0.300000*%
%ADD13C,0.400000*%
%TA.AperFunction,SMDPad,CuDef*%
%ADD14R,2.000000X2.500000*%
%TD*%
%TA.AperFunction,SMDPad,CuDef*%
%ADD15R,0.500000X1.400000*%
%TD*%
%TA.AperFunction,ComponentPad*%
%ADD16C,3.500000*%
%TD*%
%TA.AperFunction,SMDPad,CuDef*%
%ADD17R,0.600000X1.450000*%
%TD*%
%TA.AperFunction,SMDPad,CuDef*%
%ADD18R,0.300000X1.450000*%
%TD*%
%TA.AperFunction,ComponentPad*%
%ADD19O,1.200000X2.300000*%
%TD*%
%TA.AperFunction,ComponentPad*%
%ADD20O,1.100000X1.800000*%
%TD*%
%TA.AperFunction,SMDPad,CuDef*%
%ADD21RoundRect,0.200000X0.275000X-0.200000X0.275000X0.200000X-0.275000X0.200000X-0.275000X-0.200000X0*%
%TD*%
%TA.AperFunction,SMDPad,CuDef*%
%ADD22RoundRect,0.200000X-0.275000X0.200000X-0.275000X-0.200000X0.275000X-0.200000X0.275000X0.200000X0*%
%TD*%
%TA.AperFunction,SMDPad,CuDef*%
%ADD23R,0.375000X0.500000*%
%TD*%
%TA.AperFunction,SMDPad,CuDef*%
%ADD24R,0.300000X0.650000*%
%TD*%
%TA.AperFunction,ViaPad*%
%ADD25C,0.700000*%
%TD*%
%TA.AperFunction,Conductor*%
%ADD26C,0.300000*%
%TD*%
%TA.AperFunction,Conductor*%
%ADD27C,0.400000*%
%TD*%
%TA.AperFunction,Conductor*%
%ADD28C,0.200000*%
%TD*%
%TA.AperFunction,Conductor*%
%ADD29C,0.250000*%
%TD*%
%TA.AperFunction,Profile*%
%ADD30C,0.050000*%
%TD*%
G04 APERTURE END LIST*
D10*
D11*
X132002200Y-131007200D02*
X240002200Y-131007200D01*
X240002200Y-163007200D01*
X132002200Y-163007200D01*
X132002200Y-131007200D01*
D10*
D11*
X-35000000Y25000000D02*
X242002200Y25000000D01*
X242002200Y-165007200D01*
X-35000000Y-165007200D01*
X-35000000Y25000000D01*
D10*
D11*
X-33000000Y23000000D02*
X240002200Y23000000D01*
X240002200Y-163007200D01*
X-33000000Y-163007200D01*
X-33000000Y23000000D01*
D10*
D11*
X15000000Y23000000D02*
X15000000Y25000000D01*
D10*
D11*
X65000000Y23000000D02*
X65000000Y25000000D01*
D10*
D11*
X115000000Y23000000D02*
X115000000Y25000000D01*
D10*
D11*
X165000000Y23000000D02*
X165000000Y25000000D01*
D10*
D11*
X215000000Y23000000D02*
X215000000Y25000000D01*
D10*
D11*
X-8910840Y23406396D02*
X-9653697Y23406396D01*
X-9282269Y23406396D02*
X-9282269Y24706396D01*
X-9282269Y24706396D02*
X-9406078Y24520681D01*
X-9406078Y24520681D02*
X-9529888Y24396872D01*
X-9529888Y24396872D02*
X-9653697Y24334967D01*
D10*
D11*
X40346303Y24582586D02*
X40408207Y24644491D01*
X40408207Y24644491D02*
X40532017Y24706396D01*
X40532017Y24706396D02*
X40841541Y24706396D01*
X40841541Y24706396D02*
X40965350Y24644491D01*
X40965350Y24644491D02*
X41027255Y24582586D01*
X41027255Y24582586D02*
X41089160Y24458777D01*
X41089160Y24458777D02*
X41089160Y24334967D01*
X41089160Y24334967D02*
X41027255Y24149253D01*
X41027255Y24149253D02*
X40284398Y23406396D01*
X40284398Y23406396D02*
X41089160Y23406396D01*
D10*
D11*
X90284398Y24706396D02*
X91089160Y24706396D01*
X91089160Y24706396D02*
X90655826Y24211158D01*
X90655826Y24211158D02*
X90841541Y24211158D01*
X90841541Y24211158D02*
X90965350Y24149253D01*
X90965350Y24149253D02*
X91027255Y24087348D01*
X91027255Y24087348D02*
X91089160Y23963539D01*
X91089160Y23963539D02*
X91089160Y23654015D01*
X91089160Y23654015D02*
X91027255Y23530205D01*
X91027255Y23530205D02*
X90965350Y23468300D01*
X90965350Y23468300D02*
X90841541Y23406396D01*
X90841541Y23406396D02*
X90470112Y23406396D01*
X90470112Y23406396D02*
X90346303Y23468300D01*
X90346303Y23468300D02*
X90284398Y23530205D01*
D10*
D11*
X140965350Y24273062D02*
X140965350Y23406396D01*
X140655826Y24768300D02*
X140346303Y23839729D01*
X140346303Y23839729D02*
X141151064Y23839729D01*
D10*
D11*
X191027255Y24706396D02*
X190408207Y24706396D01*
X190408207Y24706396D02*
X190346303Y24087348D01*
X190346303Y24087348D02*
X190408207Y24149253D01*
X190408207Y24149253D02*
X190532017Y24211158D01*
X190532017Y24211158D02*
X190841541Y24211158D01*
X190841541Y24211158D02*
X190965350Y24149253D01*
X190965350Y24149253D02*
X191027255Y24087348D01*
X191027255Y24087348D02*
X191089160Y23963539D01*
X191089160Y23963539D02*
X191089160Y23654015D01*
X191089160Y23654015D02*
X191027255Y23530205D01*
X191027255Y23530205D02*
X190965350Y23468300D01*
X190965350Y23468300D02*
X190841541Y23406396D01*
X190841541Y23406396D02*
X190532017Y23406396D01*
X190532017Y23406396D02*
X190408207Y23468300D01*
X190408207Y23468300D02*
X190346303Y23530205D01*
D10*
D11*
X240965350Y24706396D02*
X240717731Y24706396D01*
X240717731Y24706396D02*
X240593922Y24644491D01*
X240593922Y24644491D02*
X240532017Y24582586D01*
X240532017Y24582586D02*
X240408207Y24396872D01*
X240408207Y24396872D02*
X240346303Y24149253D01*
X240346303Y24149253D02*
X240346303Y23654015D01*
X240346303Y23654015D02*
X240408207Y23530205D01*
X240408207Y23530205D02*
X240470112Y23468300D01*
X240470112Y23468300D02*
X240593922Y23406396D01*
X240593922Y23406396D02*
X240841541Y23406396D01*
X240841541Y23406396D02*
X240965350Y23468300D01*
X240965350Y23468300D02*
X241027255Y23530205D01*
X241027255Y23530205D02*
X241089160Y23654015D01*
X241089160Y23654015D02*
X241089160Y23963539D01*
X241089160Y23963539D02*
X241027255Y24087348D01*
X241027255Y24087348D02*
X240965350Y24149253D01*
X240965350Y24149253D02*
X240841541Y24211158D01*
X240841541Y24211158D02*
X240593922Y24211158D01*
X240593922Y24211158D02*
X240470112Y24149253D01*
X240470112Y24149253D02*
X240408207Y24087348D01*
X240408207Y24087348D02*
X240346303Y23963539D01*
D10*
D11*
X15000000Y-163007200D02*
X15000000Y-165007200D01*
D10*
D11*
X65000000Y-163007200D02*
X65000000Y-165007200D01*
D10*
D11*
X115000000Y-163007200D02*
X115000000Y-165007200D01*
D10*
D11*
X165000000Y-163007200D02*
X165000000Y-165007200D01*
D10*
D11*
X215000000Y-163007200D02*
X215000000Y-165007200D01*
D10*
D11*
X-8910840Y-164600804D02*
X-9653697Y-164600804D01*
X-9282269Y-164600804D02*
X-9282269Y-163300804D01*
X-9282269Y-163300804D02*
X-9406078Y-163486519D01*
X-9406078Y-163486519D02*
X-9529888Y-163610328D01*
X-9529888Y-163610328D02*
X-9653697Y-163672233D01*
D10*
D11*
X40346303Y-163424614D02*
X40408207Y-163362709D01*
X40408207Y-163362709D02*
X40532017Y-163300804D01*
X40532017Y-163300804D02*
X40841541Y-163300804D01*
X40841541Y-163300804D02*
X40965350Y-163362709D01*
X40965350Y-163362709D02*
X41027255Y-163424614D01*
X41027255Y-163424614D02*
X41089160Y-163548423D01*
X41089160Y-163548423D02*
X41089160Y-163672233D01*
X41089160Y-163672233D02*
X41027255Y-163857947D01*
X41027255Y-163857947D02*
X40284398Y-164600804D01*
X40284398Y-164600804D02*
X41089160Y-164600804D01*
D10*
D11*
X90284398Y-163300804D02*
X91089160Y-163300804D01*
X91089160Y-163300804D02*
X90655826Y-163796042D01*
X90655826Y-163796042D02*
X90841541Y-163796042D01*
X90841541Y-163796042D02*
X90965350Y-163857947D01*
X90965350Y-163857947D02*
X91027255Y-163919852D01*
X91027255Y-163919852D02*
X91089160Y-164043661D01*
X91089160Y-164043661D02*
X91089160Y-164353185D01*
X91089160Y-164353185D02*
X91027255Y-164476995D01*
X91027255Y-164476995D02*
X90965350Y-164538900D01*
X90965350Y-164538900D02*
X90841541Y-164600804D01*
X90841541Y-164600804D02*
X90470112Y-164600804D01*
X90470112Y-164600804D02*
X90346303Y-164538900D01*
X90346303Y-164538900D02*
X90284398Y-164476995D01*
D10*
D11*
X140965350Y-163734138D02*
X140965350Y-164600804D01*
X140655826Y-163238900D02*
X140346303Y-164167471D01*
X140346303Y-164167471D02*
X141151064Y-164167471D01*
D10*
D11*
X191027255Y-163300804D02*
X190408207Y-163300804D01*
X190408207Y-163300804D02*
X190346303Y-163919852D01*
X190346303Y-163919852D02*
X190408207Y-163857947D01*
X190408207Y-163857947D02*
X190532017Y-163796042D01*
X190532017Y-163796042D02*
X190841541Y-163796042D01*
X190841541Y-163796042D02*
X190965350Y-163857947D01*
X190965350Y-163857947D02*
X191027255Y-163919852D01*
X191027255Y-163919852D02*
X191089160Y-164043661D01*
X191089160Y-164043661D02*
X191089160Y-164353185D01*
X191089160Y-164353185D02*
X191027255Y-164476995D01*
X191027255Y-164476995D02*
X190965350Y-164538900D01*
X190965350Y-164538900D02*
X190841541Y-164600804D01*
X190841541Y-164600804D02*
X190532017Y-164600804D01*
X190532017Y-164600804D02*
X190408207Y-164538900D01*
X190408207Y-164538900D02*
X190346303Y-164476995D01*
D10*
D11*
X240965350Y-163300804D02*
X240717731Y-163300804D01*
X240717731Y-163300804D02*
X240593922Y-163362709D01*
X240593922Y-163362709D02*
X240532017Y-163424614D01*
X240532017Y-163424614D02*
X240408207Y-163610328D01*
X240408207Y-163610328D02*
X240346303Y-163857947D01*
X240346303Y-163857947D02*
X240346303Y-164353185D01*
X240346303Y-164353185D02*
X240408207Y-164476995D01*
X240408207Y-164476995D02*
X240470112Y-164538900D01*
X240470112Y-164538900D02*
X240593922Y-164600804D01*
X240593922Y-164600804D02*
X240841541Y-164600804D01*
X240841541Y-164600804D02*
X240965350Y-164538900D01*
X240965350Y-164538900D02*
X241027255Y-164476995D01*
X241027255Y-164476995D02*
X241089160Y-164353185D01*
X241089160Y-164353185D02*
X241089160Y-164043661D01*
X241089160Y-164043661D02*
X241027255Y-163919852D01*
X241027255Y-163919852D02*
X240965350Y-163857947D01*
X240965350Y-163857947D02*
X240841541Y-163796042D01*
X240841541Y-163796042D02*
X240593922Y-163796042D01*
X240593922Y-163796042D02*
X240470112Y-163857947D01*
X240470112Y-163857947D02*
X240408207Y-163919852D01*
X240408207Y-163919852D02*
X240346303Y-164043661D01*
D10*
D11*
X-35000000Y-25000000D02*
X-33000000Y-25000000D01*
D10*
D11*
X-35000000Y-75000000D02*
X-33000000Y-75000000D01*
D10*
D11*
X-35000000Y-125000000D02*
X-33000000Y-125000000D01*
D10*
D11*
X-34309524Y-222176D02*
X-33690477Y-222176D01*
X-34433334Y-593604D02*
X-34000001Y706396D01*
X-34000001Y706396D02*
X-33566667Y-593604D01*
D10*
D11*
X-33907143Y-49912652D02*
X-33721429Y-49974557D01*
X-33721429Y-49974557D02*
X-33659524Y-50036461D01*
X-33659524Y-50036461D02*
X-33597620Y-50160271D01*
X-33597620Y-50160271D02*
X-33597620Y-50345985D01*
X-33597620Y-50345985D02*
X-33659524Y-50469795D01*
X-33659524Y-50469795D02*
X-33721429Y-50531700D01*
X-33721429Y-50531700D02*
X-33845239Y-50593604D01*
X-33845239Y-50593604D02*
X-34340477Y-50593604D01*
X-34340477Y-50593604D02*
X-34340477Y-49293604D01*
X-34340477Y-49293604D02*
X-33907143Y-49293604D01*
X-33907143Y-49293604D02*
X-33783334Y-49355509D01*
X-33783334Y-49355509D02*
X-33721429Y-49417414D01*
X-33721429Y-49417414D02*
X-33659524Y-49541223D01*
X-33659524Y-49541223D02*
X-33659524Y-49665033D01*
X-33659524Y-49665033D02*
X-33721429Y-49788842D01*
X-33721429Y-49788842D02*
X-33783334Y-49850747D01*
X-33783334Y-49850747D02*
X-33907143Y-49912652D01*
X-33907143Y-49912652D02*
X-34340477Y-49912652D01*
D10*
D11*
X-33597620Y-100469795D02*
X-33659524Y-100531700D01*
X-33659524Y-100531700D02*
X-33845239Y-100593604D01*
X-33845239Y-100593604D02*
X-33969048Y-100593604D01*
X-33969048Y-100593604D02*
X-34154762Y-100531700D01*
X-34154762Y-100531700D02*
X-34278572Y-100407890D01*
X-34278572Y-100407890D02*
X-34340477Y-100284080D01*
X-34340477Y-100284080D02*
X-34402381Y-100036461D01*
X-34402381Y-100036461D02*
X-34402381Y-99850747D01*
X-34402381Y-99850747D02*
X-34340477Y-99603128D01*
X-34340477Y-99603128D02*
X-34278572Y-99479319D01*
X-34278572Y-99479319D02*
X-34154762Y-99355509D01*
X-34154762Y-99355509D02*
X-33969048Y-99293604D01*
X-33969048Y-99293604D02*
X-33845239Y-99293604D01*
X-33845239Y-99293604D02*
X-33659524Y-99355509D01*
X-33659524Y-99355509D02*
X-33597620Y-99417414D01*
D10*
D11*
X-34340477Y-150593604D02*
X-34340477Y-149293604D01*
X-34340477Y-149293604D02*
X-34030953Y-149293604D01*
X-34030953Y-149293604D02*
X-33845239Y-149355509D01*
X-33845239Y-149355509D02*
X-33721429Y-149479319D01*
X-33721429Y-149479319D02*
X-33659524Y-149603128D01*
X-33659524Y-149603128D02*
X-33597620Y-149850747D01*
X-33597620Y-149850747D02*
X-33597620Y-150036461D01*
X-33597620Y-150036461D02*
X-33659524Y-150284080D01*
X-33659524Y-150284080D02*
X-33721429Y-150407890D01*
X-33721429Y-150407890D02*
X-33845239Y-150531700D01*
X-33845239Y-150531700D02*
X-34030953Y-150593604D01*
X-34030953Y-150593604D02*
X-34340477Y-150593604D01*
D10*
D11*
X242002200Y-25000000D02*
X240002200Y-25000000D01*
D10*
D11*
X242002200Y-75000000D02*
X240002200Y-75000000D01*
D10*
D11*
X242002200Y-125000000D02*
X240002200Y-125000000D01*
D10*
D11*
X240692676Y-222176D02*
X241311723Y-222176D01*
X240568866Y-593604D02*
X241002199Y706396D01*
X241002199Y706396D02*
X241435533Y-593604D01*
D10*
D11*
X241095057Y-49912652D02*
X241280771Y-49974557D01*
X241280771Y-49974557D02*
X241342676Y-50036461D01*
X241342676Y-50036461D02*
X241404580Y-50160271D01*
X241404580Y-50160271D02*
X241404580Y-50345985D01*
X241404580Y-50345985D02*
X241342676Y-50469795D01*
X241342676Y-50469795D02*
X241280771Y-50531700D01*
X241280771Y-50531700D02*
X241156961Y-50593604D01*
X241156961Y-50593604D02*
X240661723Y-50593604D01*
X240661723Y-50593604D02*
X240661723Y-49293604D01*
X240661723Y-49293604D02*
X241095057Y-49293604D01*
X241095057Y-49293604D02*
X241218866Y-49355509D01*
X241218866Y-49355509D02*
X241280771Y-49417414D01*
X241280771Y-49417414D02*
X241342676Y-49541223D01*
X241342676Y-49541223D02*
X241342676Y-49665033D01*
X241342676Y-49665033D02*
X241280771Y-49788842D01*
X241280771Y-49788842D02*
X241218866Y-49850747D01*
X241218866Y-49850747D02*
X241095057Y-49912652D01*
X241095057Y-49912652D02*
X240661723Y-49912652D01*
D10*
D11*
X241404580Y-100469795D02*
X241342676Y-100531700D01*
X241342676Y-100531700D02*
X241156961Y-100593604D01*
X241156961Y-100593604D02*
X241033152Y-100593604D01*
X241033152Y-100593604D02*
X240847438Y-100531700D01*
X240847438Y-100531700D02*
X240723628Y-100407890D01*
X240723628Y-100407890D02*
X240661723Y-100284080D01*
X240661723Y-100284080D02*
X240599819Y-100036461D01*
X240599819Y-100036461D02*
X240599819Y-99850747D01*
X240599819Y-99850747D02*
X240661723Y-99603128D01*
X240661723Y-99603128D02*
X240723628Y-99479319D01*
X240723628Y-99479319D02*
X240847438Y-99355509D01*
X240847438Y-99355509D02*
X241033152Y-99293604D01*
X241033152Y-99293604D02*
X241156961Y-99293604D01*
X241156961Y-99293604D02*
X241342676Y-99355509D01*
X241342676Y-99355509D02*
X241404580Y-99417414D01*
D10*
D11*
X240661723Y-150593604D02*
X240661723Y-149293604D01*
X240661723Y-149293604D02*
X240971247Y-149293604D01*
X240971247Y-149293604D02*
X241156961Y-149355509D01*
X241156961Y-149355509D02*
X241280771Y-149479319D01*
X241280771Y-149479319D02*
X241342676Y-149603128D01*
X241342676Y-149603128D02*
X241404580Y-149850747D01*
X241404580Y-149850747D02*
X241404580Y-150036461D01*
X241404580Y-150036461D02*
X241342676Y-150284080D01*
X241342676Y-150284080D02*
X241280771Y-150407890D01*
X241280771Y-150407890D02*
X241156961Y-150531700D01*
X241156961Y-150531700D02*
X240971247Y-150593604D01*
X240971247Y-150593604D02*
X240661723Y-150593604D01*
D10*
D11*
X155458026Y-158793328D02*
X155458026Y-157293328D01*
X155458026Y-157293328D02*
X155815169Y-157293328D01*
X155815169Y-157293328D02*
X156029455Y-157364757D01*
X156029455Y-157364757D02*
X156172312Y-157507614D01*
X156172312Y-157507614D02*
X156243741Y-157650471D01*
X156243741Y-157650471D02*
X156315169Y-157936185D01*
X156315169Y-157936185D02*
X156315169Y-158150471D01*
X156315169Y-158150471D02*
X156243741Y-158436185D01*
X156243741Y-158436185D02*
X156172312Y-158579042D01*
X156172312Y-158579042D02*
X156029455Y-158721900D01*
X156029455Y-158721900D02*
X155815169Y-158793328D01*
X155815169Y-158793328D02*
X155458026Y-158793328D01*
X157600884Y-158793328D02*
X157600884Y-158007614D01*
X157600884Y-158007614D02*
X157529455Y-157864757D01*
X157529455Y-157864757D02*
X157386598Y-157793328D01*
X157386598Y-157793328D02*
X157100884Y-157793328D01*
X157100884Y-157793328D02*
X156958026Y-157864757D01*
X157600884Y-158721900D02*
X157458026Y-158793328D01*
X157458026Y-158793328D02*
X157100884Y-158793328D01*
X157100884Y-158793328D02*
X156958026Y-158721900D01*
X156958026Y-158721900D02*
X156886598Y-158579042D01*
X156886598Y-158579042D02*
X156886598Y-158436185D01*
X156886598Y-158436185D02*
X156958026Y-158293328D01*
X156958026Y-158293328D02*
X157100884Y-158221900D01*
X157100884Y-158221900D02*
X157458026Y-158221900D01*
X157458026Y-158221900D02*
X157600884Y-158150471D01*
X158100884Y-157793328D02*
X158672312Y-157793328D01*
X158315169Y-157293328D02*
X158315169Y-158579042D01*
X158315169Y-158579042D02*
X158386598Y-158721900D01*
X158386598Y-158721900D02*
X158529455Y-158793328D01*
X158529455Y-158793328D02*
X158672312Y-158793328D01*
X159743741Y-158721900D02*
X159600884Y-158793328D01*
X159600884Y-158793328D02*
X159315170Y-158793328D01*
X159315170Y-158793328D02*
X159172312Y-158721900D01*
X159172312Y-158721900D02*
X159100884Y-158579042D01*
X159100884Y-158579042D02*
X159100884Y-158007614D01*
X159100884Y-158007614D02*
X159172312Y-157864757D01*
X159172312Y-157864757D02*
X159315170Y-157793328D01*
X159315170Y-157793328D02*
X159600884Y-157793328D01*
X159600884Y-157793328D02*
X159743741Y-157864757D01*
X159743741Y-157864757D02*
X159815170Y-158007614D01*
X159815170Y-158007614D02*
X159815170Y-158150471D01*
X159815170Y-158150471D02*
X159100884Y-158293328D01*
X160458026Y-158650471D02*
X160529455Y-158721900D01*
X160529455Y-158721900D02*
X160458026Y-158793328D01*
X160458026Y-158793328D02*
X160386598Y-158721900D01*
X160386598Y-158721900D02*
X160458026Y-158650471D01*
X160458026Y-158650471D02*
X160458026Y-158793328D01*
X160458026Y-157864757D02*
X160529455Y-157936185D01*
X160529455Y-157936185D02*
X160458026Y-158007614D01*
X160458026Y-158007614D02*
X160386598Y-157936185D01*
X160386598Y-157936185D02*
X160458026Y-157864757D01*
X160458026Y-157864757D02*
X160458026Y-158007614D01*
D10*
D11*
X132002200Y-159507200D02*
X240002200Y-159507200D01*
D10*
D11*
X133458026Y-161593328D02*
X133458026Y-160093328D01*
X134315169Y-161593328D02*
X133672312Y-160736185D01*
X134315169Y-160093328D02*
X133458026Y-160950471D01*
X134958026Y-161593328D02*
X134958026Y-160593328D01*
X134958026Y-160093328D02*
X134886598Y-160164757D01*
X134886598Y-160164757D02*
X134958026Y-160236185D01*
X134958026Y-160236185D02*
X135029455Y-160164757D01*
X135029455Y-160164757D02*
X134958026Y-160093328D01*
X134958026Y-160093328D02*
X134958026Y-160236185D01*
X136529455Y-161450471D02*
X136458027Y-161521900D01*
X136458027Y-161521900D02*
X136243741Y-161593328D01*
X136243741Y-161593328D02*
X136100884Y-161593328D01*
X136100884Y-161593328D02*
X135886598Y-161521900D01*
X135886598Y-161521900D02*
X135743741Y-161379042D01*
X135743741Y-161379042D02*
X135672312Y-161236185D01*
X135672312Y-161236185D02*
X135600884Y-160950471D01*
X135600884Y-160950471D02*
X135600884Y-160736185D01*
X135600884Y-160736185D02*
X135672312Y-160450471D01*
X135672312Y-160450471D02*
X135743741Y-160307614D01*
X135743741Y-160307614D02*
X135886598Y-160164757D01*
X135886598Y-160164757D02*
X136100884Y-160093328D01*
X136100884Y-160093328D02*
X136243741Y-160093328D01*
X136243741Y-160093328D02*
X136458027Y-160164757D01*
X136458027Y-160164757D02*
X136529455Y-160236185D01*
X137815170Y-161593328D02*
X137815170Y-160807614D01*
X137815170Y-160807614D02*
X137743741Y-160664757D01*
X137743741Y-160664757D02*
X137600884Y-160593328D01*
X137600884Y-160593328D02*
X137315170Y-160593328D01*
X137315170Y-160593328D02*
X137172312Y-160664757D01*
X137815170Y-161521900D02*
X137672312Y-161593328D01*
X137672312Y-161593328D02*
X137315170Y-161593328D01*
X137315170Y-161593328D02*
X137172312Y-161521900D01*
X137172312Y-161521900D02*
X137100884Y-161379042D01*
X137100884Y-161379042D02*
X137100884Y-161236185D01*
X137100884Y-161236185D02*
X137172312Y-161093328D01*
X137172312Y-161093328D02*
X137315170Y-161021900D01*
X137315170Y-161021900D02*
X137672312Y-161021900D01*
X137672312Y-161021900D02*
X137815170Y-160950471D01*
X139172313Y-161593328D02*
X139172313Y-160093328D01*
X139172313Y-161521900D02*
X139029455Y-161593328D01*
X139029455Y-161593328D02*
X138743741Y-161593328D01*
X138743741Y-161593328D02*
X138600884Y-161521900D01*
X138600884Y-161521900D02*
X138529455Y-161450471D01*
X138529455Y-161450471D02*
X138458027Y-161307614D01*
X138458027Y-161307614D02*
X138458027Y-160879042D01*
X138458027Y-160879042D02*
X138529455Y-160736185D01*
X138529455Y-160736185D02*
X138600884Y-160664757D01*
X138600884Y-160664757D02*
X138743741Y-160593328D01*
X138743741Y-160593328D02*
X139029455Y-160593328D01*
X139029455Y-160593328D02*
X139172313Y-160664757D01*
X141029455Y-160807614D02*
X141529455Y-160807614D01*
X141743741Y-161593328D02*
X141029455Y-161593328D01*
X141029455Y-161593328D02*
X141029455Y-160093328D01*
X141029455Y-160093328D02*
X141743741Y-160093328D01*
X142386598Y-161450471D02*
X142458027Y-161521900D01*
X142458027Y-161521900D02*
X142386598Y-161593328D01*
X142386598Y-161593328D02*
X142315170Y-161521900D01*
X142315170Y-161521900D02*
X142386598Y-161450471D01*
X142386598Y-161450471D02*
X142386598Y-161593328D01*
X143100884Y-161593328D02*
X143100884Y-160093328D01*
X143100884Y-160093328D02*
X143458027Y-160093328D01*
X143458027Y-160093328D02*
X143672313Y-160164757D01*
X143672313Y-160164757D02*
X143815170Y-160307614D01*
X143815170Y-160307614D02*
X143886599Y-160450471D01*
X143886599Y-160450471D02*
X143958027Y-160736185D01*
X143958027Y-160736185D02*
X143958027Y-160950471D01*
X143958027Y-160950471D02*
X143886599Y-161236185D01*
X143886599Y-161236185D02*
X143815170Y-161379042D01*
X143815170Y-161379042D02*
X143672313Y-161521900D01*
X143672313Y-161521900D02*
X143458027Y-161593328D01*
X143458027Y-161593328D02*
X143100884Y-161593328D01*
X144600884Y-161450471D02*
X144672313Y-161521900D01*
X144672313Y-161521900D02*
X144600884Y-161593328D01*
X144600884Y-161593328D02*
X144529456Y-161521900D01*
X144529456Y-161521900D02*
X144600884Y-161450471D01*
X144600884Y-161450471D02*
X144600884Y-161593328D01*
X145243742Y-161164757D02*
X145958028Y-161164757D01*
X145100885Y-161593328D02*
X145600885Y-160093328D01*
X145600885Y-160093328D02*
X146100885Y-161593328D01*
X146600884Y-161450471D02*
X146672313Y-161521900D01*
X146672313Y-161521900D02*
X146600884Y-161593328D01*
X146600884Y-161593328D02*
X146529456Y-161521900D01*
X146529456Y-161521900D02*
X146600884Y-161450471D01*
X146600884Y-161450471D02*
X146600884Y-161593328D01*
X148672313Y-160736185D02*
X148529456Y-160664757D01*
X148529456Y-160664757D02*
X148458027Y-160593328D01*
X148458027Y-160593328D02*
X148386599Y-160450471D01*
X148386599Y-160450471D02*
X148386599Y-160379042D01*
X148386599Y-160379042D02*
X148458027Y-160236185D01*
X148458027Y-160236185D02*
X148529456Y-160164757D01*
X148529456Y-160164757D02*
X148672313Y-160093328D01*
X148672313Y-160093328D02*
X148958027Y-160093328D01*
X148958027Y-160093328D02*
X149100885Y-160164757D01*
X149100885Y-160164757D02*
X149172313Y-160236185D01*
X149172313Y-160236185D02*
X149243742Y-160379042D01*
X149243742Y-160379042D02*
X149243742Y-160450471D01*
X149243742Y-160450471D02*
X149172313Y-160593328D01*
X149172313Y-160593328D02*
X149100885Y-160664757D01*
X149100885Y-160664757D02*
X148958027Y-160736185D01*
X148958027Y-160736185D02*
X148672313Y-160736185D01*
X148672313Y-160736185D02*
X148529456Y-160807614D01*
X148529456Y-160807614D02*
X148458027Y-160879042D01*
X148458027Y-160879042D02*
X148386599Y-161021900D01*
X148386599Y-161021900D02*
X148386599Y-161307614D01*
X148386599Y-161307614D02*
X148458027Y-161450471D01*
X148458027Y-161450471D02*
X148529456Y-161521900D01*
X148529456Y-161521900D02*
X148672313Y-161593328D01*
X148672313Y-161593328D02*
X148958027Y-161593328D01*
X148958027Y-161593328D02*
X149100885Y-161521900D01*
X149100885Y-161521900D02*
X149172313Y-161450471D01*
X149172313Y-161450471D02*
X149243742Y-161307614D01*
X149243742Y-161307614D02*
X149243742Y-161021900D01*
X149243742Y-161021900D02*
X149172313Y-160879042D01*
X149172313Y-160879042D02*
X149100885Y-160807614D01*
X149100885Y-160807614D02*
X148958027Y-160736185D01*
X149886598Y-161450471D02*
X149958027Y-161521900D01*
X149958027Y-161521900D02*
X149886598Y-161593328D01*
X149886598Y-161593328D02*
X149815170Y-161521900D01*
X149815170Y-161521900D02*
X149886598Y-161450471D01*
X149886598Y-161450471D02*
X149886598Y-161593328D01*
X150886599Y-160093328D02*
X151029456Y-160093328D01*
X151029456Y-160093328D02*
X151172313Y-160164757D01*
X151172313Y-160164757D02*
X151243742Y-160236185D01*
X151243742Y-160236185D02*
X151315170Y-160379042D01*
X151315170Y-160379042D02*
X151386599Y-160664757D01*
X151386599Y-160664757D02*
X151386599Y-161021900D01*
X151386599Y-161021900D02*
X151315170Y-161307614D01*
X151315170Y-161307614D02*
X151243742Y-161450471D01*
X151243742Y-161450471D02*
X151172313Y-161521900D01*
X151172313Y-161521900D02*
X151029456Y-161593328D01*
X151029456Y-161593328D02*
X150886599Y-161593328D01*
X150886599Y-161593328D02*
X150743742Y-161521900D01*
X150743742Y-161521900D02*
X150672313Y-161450471D01*
X150672313Y-161450471D02*
X150600884Y-161307614D01*
X150600884Y-161307614D02*
X150529456Y-161021900D01*
X150529456Y-161021900D02*
X150529456Y-160664757D01*
X150529456Y-160664757D02*
X150600884Y-160379042D01*
X150600884Y-160379042D02*
X150672313Y-160236185D01*
X150672313Y-160236185D02*
X150743742Y-160164757D01*
X150743742Y-160164757D02*
X150886599Y-160093328D01*
X152029455Y-161450471D02*
X152100884Y-161521900D01*
X152100884Y-161521900D02*
X152029455Y-161593328D01*
X152029455Y-161593328D02*
X151958027Y-161521900D01*
X151958027Y-161521900D02*
X152029455Y-161450471D01*
X152029455Y-161450471D02*
X152029455Y-161593328D01*
X152600884Y-160093328D02*
X153529456Y-160093328D01*
X153529456Y-160093328D02*
X153029456Y-160664757D01*
X153029456Y-160664757D02*
X153243741Y-160664757D01*
X153243741Y-160664757D02*
X153386599Y-160736185D01*
X153386599Y-160736185D02*
X153458027Y-160807614D01*
X153458027Y-160807614D02*
X153529456Y-160950471D01*
X153529456Y-160950471D02*
X153529456Y-161307614D01*
X153529456Y-161307614D02*
X153458027Y-161450471D01*
X153458027Y-161450471D02*
X153386599Y-161521900D01*
X153386599Y-161521900D02*
X153243741Y-161593328D01*
X153243741Y-161593328D02*
X152815170Y-161593328D01*
X152815170Y-161593328D02*
X152672313Y-161521900D01*
X152672313Y-161521900D02*
X152600884Y-161450471D01*
D10*
D11*
X132002200Y-156507200D02*
X240002200Y-156507200D01*
D10*
D12*
X219413853Y-158785528D02*
X218913853Y-158071242D01*
X218556710Y-158785528D02*
X218556710Y-157285528D01*
X218556710Y-157285528D02*
X219128139Y-157285528D01*
X219128139Y-157285528D02*
X219270996Y-157356957D01*
X219270996Y-157356957D02*
X219342425Y-157428385D01*
X219342425Y-157428385D02*
X219413853Y-157571242D01*
X219413853Y-157571242D02*
X219413853Y-157785528D01*
X219413853Y-157785528D02*
X219342425Y-157928385D01*
X219342425Y-157928385D02*
X219270996Y-157999814D01*
X219270996Y-157999814D02*
X219128139Y-158071242D01*
X219128139Y-158071242D02*
X218556710Y-158071242D01*
X220628139Y-158714100D02*
X220485282Y-158785528D01*
X220485282Y-158785528D02*
X220199568Y-158785528D01*
X220199568Y-158785528D02*
X220056710Y-158714100D01*
X220056710Y-158714100D02*
X219985282Y-158571242D01*
X219985282Y-158571242D02*
X219985282Y-157999814D01*
X219985282Y-157999814D02*
X220056710Y-157856957D01*
X220056710Y-157856957D02*
X220199568Y-157785528D01*
X220199568Y-157785528D02*
X220485282Y-157785528D01*
X220485282Y-157785528D02*
X220628139Y-157856957D01*
X220628139Y-157856957D02*
X220699568Y-157999814D01*
X220699568Y-157999814D02*
X220699568Y-158142671D01*
X220699568Y-158142671D02*
X219985282Y-158285528D01*
X221199567Y-157785528D02*
X221556710Y-158785528D01*
X221556710Y-158785528D02*
X221913853Y-157785528D01*
X222485281Y-158642671D02*
X222556710Y-158714100D01*
X222556710Y-158714100D02*
X222485281Y-158785528D01*
X222485281Y-158785528D02*
X222413853Y-158714100D01*
X222413853Y-158714100D02*
X222485281Y-158642671D01*
X222485281Y-158642671D02*
X222485281Y-158785528D01*
X222485281Y-157856957D02*
X222556710Y-157928385D01*
X222556710Y-157928385D02*
X222485281Y-157999814D01*
X222485281Y-157999814D02*
X222413853Y-157928385D01*
X222413853Y-157928385D02*
X222485281Y-157856957D01*
X222485281Y-157856957D02*
X222485281Y-157999814D01*
D10*
D11*
X133386598Y-158721900D02*
X133600884Y-158793328D01*
X133600884Y-158793328D02*
X133958026Y-158793328D01*
X133958026Y-158793328D02*
X134100884Y-158721900D01*
X134100884Y-158721900D02*
X134172312Y-158650471D01*
X134172312Y-158650471D02*
X134243741Y-158507614D01*
X134243741Y-158507614D02*
X134243741Y-158364757D01*
X134243741Y-158364757D02*
X134172312Y-158221900D01*
X134172312Y-158221900D02*
X134100884Y-158150471D01*
X134100884Y-158150471D02*
X133958026Y-158079042D01*
X133958026Y-158079042D02*
X133672312Y-158007614D01*
X133672312Y-158007614D02*
X133529455Y-157936185D01*
X133529455Y-157936185D02*
X133458026Y-157864757D01*
X133458026Y-157864757D02*
X133386598Y-157721900D01*
X133386598Y-157721900D02*
X133386598Y-157579042D01*
X133386598Y-157579042D02*
X133458026Y-157436185D01*
X133458026Y-157436185D02*
X133529455Y-157364757D01*
X133529455Y-157364757D02*
X133672312Y-157293328D01*
X133672312Y-157293328D02*
X134029455Y-157293328D01*
X134029455Y-157293328D02*
X134243741Y-157364757D01*
X134886597Y-158793328D02*
X134886597Y-157793328D01*
X134886597Y-157293328D02*
X134815169Y-157364757D01*
X134815169Y-157364757D02*
X134886597Y-157436185D01*
X134886597Y-157436185D02*
X134958026Y-157364757D01*
X134958026Y-157364757D02*
X134886597Y-157293328D01*
X134886597Y-157293328D02*
X134886597Y-157436185D01*
X135458026Y-157793328D02*
X136243741Y-157793328D01*
X136243741Y-157793328D02*
X135458026Y-158793328D01*
X135458026Y-158793328D02*
X136243741Y-158793328D01*
X137386598Y-158721900D02*
X137243741Y-158793328D01*
X137243741Y-158793328D02*
X136958027Y-158793328D01*
X136958027Y-158793328D02*
X136815169Y-158721900D01*
X136815169Y-158721900D02*
X136743741Y-158579042D01*
X136743741Y-158579042D02*
X136743741Y-158007614D01*
X136743741Y-158007614D02*
X136815169Y-157864757D01*
X136815169Y-157864757D02*
X136958027Y-157793328D01*
X136958027Y-157793328D02*
X137243741Y-157793328D01*
X137243741Y-157793328D02*
X137386598Y-157864757D01*
X137386598Y-157864757D02*
X137458027Y-158007614D01*
X137458027Y-158007614D02*
X137458027Y-158150471D01*
X137458027Y-158150471D02*
X136743741Y-158293328D01*
X138100883Y-158650471D02*
X138172312Y-158721900D01*
X138172312Y-158721900D02*
X138100883Y-158793328D01*
X138100883Y-158793328D02*
X138029455Y-158721900D01*
X138029455Y-158721900D02*
X138100883Y-158650471D01*
X138100883Y-158650471D02*
X138100883Y-158793328D01*
X138100883Y-157864757D02*
X138172312Y-157936185D01*
X138172312Y-157936185D02*
X138100883Y-158007614D01*
X138100883Y-158007614D02*
X138029455Y-157936185D01*
X138029455Y-157936185D02*
X138100883Y-157864757D01*
X138100883Y-157864757D02*
X138100883Y-158007614D01*
X139886598Y-158364757D02*
X140600884Y-158364757D01*
X139743741Y-158793328D02*
X140243741Y-157293328D01*
X140243741Y-157293328D02*
X140743741Y-158793328D01*
X141886598Y-157793328D02*
X141886598Y-158793328D01*
X141529455Y-157221900D02*
X141172312Y-158293328D01*
X141172312Y-158293328D02*
X142100883Y-158293328D01*
D10*
D11*
X218458026Y-161593328D02*
X218458026Y-160093328D01*
X219815170Y-161593328D02*
X219815170Y-160093328D01*
X219815170Y-161521900D02*
X219672312Y-161593328D01*
X219672312Y-161593328D02*
X219386598Y-161593328D01*
X219386598Y-161593328D02*
X219243741Y-161521900D01*
X219243741Y-161521900D02*
X219172312Y-161450471D01*
X219172312Y-161450471D02*
X219100884Y-161307614D01*
X219100884Y-161307614D02*
X219100884Y-160879042D01*
X219100884Y-160879042D02*
X219172312Y-160736185D01*
X219172312Y-160736185D02*
X219243741Y-160664757D01*
X219243741Y-160664757D02*
X219386598Y-160593328D01*
X219386598Y-160593328D02*
X219672312Y-160593328D01*
X219672312Y-160593328D02*
X219815170Y-160664757D01*
X220529455Y-161450471D02*
X220600884Y-161521900D01*
X220600884Y-161521900D02*
X220529455Y-161593328D01*
X220529455Y-161593328D02*
X220458027Y-161521900D01*
X220458027Y-161521900D02*
X220529455Y-161450471D01*
X220529455Y-161450471D02*
X220529455Y-161593328D01*
X220529455Y-160664757D02*
X220600884Y-160736185D01*
X220600884Y-160736185D02*
X220529455Y-160807614D01*
X220529455Y-160807614D02*
X220458027Y-160736185D01*
X220458027Y-160736185D02*
X220529455Y-160664757D01*
X220529455Y-160664757D02*
X220529455Y-160807614D01*
X223172313Y-161593328D02*
X222315170Y-161593328D01*
X222743741Y-161593328D02*
X222743741Y-160093328D01*
X222743741Y-160093328D02*
X222600884Y-160307614D01*
X222600884Y-160307614D02*
X222458027Y-160450471D01*
X222458027Y-160450471D02*
X222315170Y-160521900D01*
X224886598Y-160021900D02*
X223600884Y-161950471D01*
X226172313Y-161593328D02*
X225315170Y-161593328D01*
X225743741Y-161593328D02*
X225743741Y-160093328D01*
X225743741Y-160093328D02*
X225600884Y-160307614D01*
X225600884Y-160307614D02*
X225458027Y-160450471D01*
X225458027Y-160450471D02*
X225315170Y-160521900D01*
D10*
D11*
X132002200Y-152507200D02*
X240002200Y-152507200D01*
D10*
D13*
X133693928Y-153211638D02*
X134836785Y-153211638D01*
X134015357Y-155211638D02*
X134265357Y-153211638D01*
X135253452Y-155211638D02*
X135420119Y-153878304D01*
X135503452Y-153211638D02*
X135396309Y-153306876D01*
X135396309Y-153306876D02*
X135479643Y-153402114D01*
X135479643Y-153402114D02*
X135586786Y-153306876D01*
X135586786Y-153306876D02*
X135503452Y-153211638D01*
X135503452Y-153211638D02*
X135479643Y-153402114D01*
X136086786Y-153878304D02*
X136848690Y-153878304D01*
X136455833Y-153211638D02*
X136241548Y-154925923D01*
X136241548Y-154925923D02*
X136312976Y-155116400D01*
X136312976Y-155116400D02*
X136491548Y-155211638D01*
X136491548Y-155211638D02*
X136682024Y-155211638D01*
X137634405Y-155211638D02*
X137455833Y-155116400D01*
X137455833Y-155116400D02*
X137384405Y-154925923D01*
X137384405Y-154925923D02*
X137598690Y-153211638D01*
X139170119Y-155116400D02*
X138967738Y-155211638D01*
X138967738Y-155211638D02*
X138586785Y-155211638D01*
X138586785Y-155211638D02*
X138408214Y-155116400D01*
X138408214Y-155116400D02*
X138336785Y-154925923D01*
X138336785Y-154925923D02*
X138432024Y-154164019D01*
X138432024Y-154164019D02*
X138551071Y-153973542D01*
X138551071Y-153973542D02*
X138753452Y-153878304D01*
X138753452Y-153878304D02*
X139134404Y-153878304D01*
X139134404Y-153878304D02*
X139312976Y-153973542D01*
X139312976Y-153973542D02*
X139384404Y-154164019D01*
X139384404Y-154164019D02*
X139360595Y-154354495D01*
X139360595Y-154354495D02*
X138384404Y-154544971D01*
X140134405Y-155021161D02*
X140217738Y-155116400D01*
X140217738Y-155116400D02*
X140110595Y-155211638D01*
X140110595Y-155211638D02*
X140027262Y-155116400D01*
X140027262Y-155116400D02*
X140134405Y-155021161D01*
X140134405Y-155021161D02*
X140110595Y-155211638D01*
X140265357Y-153973542D02*
X140348690Y-154068780D01*
X140348690Y-154068780D02*
X140241548Y-154164019D01*
X140241548Y-154164019D02*
X140158214Y-154068780D01*
X140158214Y-154068780D02*
X140265357Y-153973542D01*
X140265357Y-153973542D02*
X140241548Y-154164019D01*
D10*
D11*
X133958026Y-150607614D02*
X133458026Y-150607614D01*
X133458026Y-151393328D02*
X133458026Y-149893328D01*
X133458026Y-149893328D02*
X134172312Y-149893328D01*
X134743740Y-151393328D02*
X134743740Y-150393328D01*
X134743740Y-149893328D02*
X134672312Y-149964757D01*
X134672312Y-149964757D02*
X134743740Y-150036185D01*
X134743740Y-150036185D02*
X134815169Y-149964757D01*
X134815169Y-149964757D02*
X134743740Y-149893328D01*
X134743740Y-149893328D02*
X134743740Y-150036185D01*
X135672312Y-151393328D02*
X135529455Y-151321900D01*
X135529455Y-151321900D02*
X135458026Y-151179042D01*
X135458026Y-151179042D02*
X135458026Y-149893328D01*
X136815169Y-151321900D02*
X136672312Y-151393328D01*
X136672312Y-151393328D02*
X136386598Y-151393328D01*
X136386598Y-151393328D02*
X136243740Y-151321900D01*
X136243740Y-151321900D02*
X136172312Y-151179042D01*
X136172312Y-151179042D02*
X136172312Y-150607614D01*
X136172312Y-150607614D02*
X136243740Y-150464757D01*
X136243740Y-150464757D02*
X136386598Y-150393328D01*
X136386598Y-150393328D02*
X136672312Y-150393328D01*
X136672312Y-150393328D02*
X136815169Y-150464757D01*
X136815169Y-150464757D02*
X136886598Y-150607614D01*
X136886598Y-150607614D02*
X136886598Y-150750471D01*
X136886598Y-150750471D02*
X136172312Y-150893328D01*
X137529454Y-151250471D02*
X137600883Y-151321900D01*
X137600883Y-151321900D02*
X137529454Y-151393328D01*
X137529454Y-151393328D02*
X137458026Y-151321900D01*
X137458026Y-151321900D02*
X137529454Y-151250471D01*
X137529454Y-151250471D02*
X137529454Y-151393328D01*
X137529454Y-150464757D02*
X137600883Y-150536185D01*
X137600883Y-150536185D02*
X137529454Y-150607614D01*
X137529454Y-150607614D02*
X137458026Y-150536185D01*
X137458026Y-150536185D02*
X137529454Y-150464757D01*
X137529454Y-150464757D02*
X137529454Y-150607614D01*
X140029455Y-150393328D02*
X140029455Y-151393328D01*
X139386597Y-150393328D02*
X139386597Y-151179042D01*
X139386597Y-151179042D02*
X139458026Y-151321900D01*
X139458026Y-151321900D02*
X139600883Y-151393328D01*
X139600883Y-151393328D02*
X139815169Y-151393328D01*
X139815169Y-151393328D02*
X139958026Y-151321900D01*
X139958026Y-151321900D02*
X140029455Y-151250471D01*
X141529455Y-151393328D02*
X140672312Y-151393328D01*
X141100883Y-151393328D02*
X141100883Y-149893328D01*
X141100883Y-149893328D02*
X140958026Y-150107614D01*
X140958026Y-150107614D02*
X140815169Y-150250471D01*
X140815169Y-150250471D02*
X140672312Y-150321900D01*
X142172311Y-151250471D02*
X142243740Y-151321900D01*
X142243740Y-151321900D02*
X142172311Y-151393328D01*
X142172311Y-151393328D02*
X142100883Y-151321900D01*
X142100883Y-151321900D02*
X142172311Y-151250471D01*
X142172311Y-151250471D02*
X142172311Y-151393328D01*
X142886597Y-151393328D02*
X142886597Y-149893328D01*
X143029455Y-150821900D02*
X143458026Y-151393328D01*
X143458026Y-150393328D02*
X142886597Y-150964757D01*
X144100883Y-151393328D02*
X144100883Y-150393328D01*
X144100883Y-149893328D02*
X144029455Y-149964757D01*
X144029455Y-149964757D02*
X144100883Y-150036185D01*
X144100883Y-150036185D02*
X144172312Y-149964757D01*
X144172312Y-149964757D02*
X144100883Y-149893328D01*
X144100883Y-149893328D02*
X144100883Y-150036185D01*
X145458027Y-151321900D02*
X145315169Y-151393328D01*
X145315169Y-151393328D02*
X145029455Y-151393328D01*
X145029455Y-151393328D02*
X144886598Y-151321900D01*
X144886598Y-151321900D02*
X144815169Y-151250471D01*
X144815169Y-151250471D02*
X144743741Y-151107614D01*
X144743741Y-151107614D02*
X144743741Y-150679042D01*
X144743741Y-150679042D02*
X144815169Y-150536185D01*
X144815169Y-150536185D02*
X144886598Y-150464757D01*
X144886598Y-150464757D02*
X145029455Y-150393328D01*
X145029455Y-150393328D02*
X145315169Y-150393328D01*
X145315169Y-150393328D02*
X145458027Y-150464757D01*
X146743741Y-151393328D02*
X146743741Y-150607614D01*
X146743741Y-150607614D02*
X146672312Y-150464757D01*
X146672312Y-150464757D02*
X146529455Y-150393328D01*
X146529455Y-150393328D02*
X146243741Y-150393328D01*
X146243741Y-150393328D02*
X146100883Y-150464757D01*
X146743741Y-151321900D02*
X146600883Y-151393328D01*
X146600883Y-151393328D02*
X146243741Y-151393328D01*
X146243741Y-151393328D02*
X146100883Y-151321900D01*
X146100883Y-151321900D02*
X146029455Y-151179042D01*
X146029455Y-151179042D02*
X146029455Y-151036185D01*
X146029455Y-151036185D02*
X146100883Y-150893328D01*
X146100883Y-150893328D02*
X146243741Y-150821900D01*
X146243741Y-150821900D02*
X146600883Y-150821900D01*
X146600883Y-150821900D02*
X146743741Y-150750471D01*
X148100884Y-151393328D02*
X148100884Y-149893328D01*
X148100884Y-151321900D02*
X147958026Y-151393328D01*
X147958026Y-151393328D02*
X147672312Y-151393328D01*
X147672312Y-151393328D02*
X147529455Y-151321900D01*
X147529455Y-151321900D02*
X147458026Y-151250471D01*
X147458026Y-151250471D02*
X147386598Y-151107614D01*
X147386598Y-151107614D02*
X147386598Y-150679042D01*
X147386598Y-150679042D02*
X147458026Y-150536185D01*
X147458026Y-150536185D02*
X147529455Y-150464757D01*
X147529455Y-150464757D02*
X147672312Y-150393328D01*
X147672312Y-150393328D02*
X147958026Y-150393328D01*
X147958026Y-150393328D02*
X148100884Y-150464757D01*
X148458027Y-151536185D02*
X149600884Y-151536185D01*
X149958026Y-150393328D02*
X149958026Y-151893328D01*
X149958026Y-150464757D02*
X150100884Y-150393328D01*
X150100884Y-150393328D02*
X150386598Y-150393328D01*
X150386598Y-150393328D02*
X150529455Y-150464757D01*
X150529455Y-150464757D02*
X150600884Y-150536185D01*
X150600884Y-150536185D02*
X150672312Y-150679042D01*
X150672312Y-150679042D02*
X150672312Y-151107614D01*
X150672312Y-151107614D02*
X150600884Y-151250471D01*
X150600884Y-151250471D02*
X150529455Y-151321900D01*
X150529455Y-151321900D02*
X150386598Y-151393328D01*
X150386598Y-151393328D02*
X150100884Y-151393328D01*
X150100884Y-151393328D02*
X149958026Y-151321900D01*
X151958027Y-151321900D02*
X151815169Y-151393328D01*
X151815169Y-151393328D02*
X151529455Y-151393328D01*
X151529455Y-151393328D02*
X151386598Y-151321900D01*
X151386598Y-151321900D02*
X151315169Y-151250471D01*
X151315169Y-151250471D02*
X151243741Y-151107614D01*
X151243741Y-151107614D02*
X151243741Y-150679042D01*
X151243741Y-150679042D02*
X151315169Y-150536185D01*
X151315169Y-150536185D02*
X151386598Y-150464757D01*
X151386598Y-150464757D02*
X151529455Y-150393328D01*
X151529455Y-150393328D02*
X151815169Y-150393328D01*
X151815169Y-150393328D02*
X151958027Y-150464757D01*
X152600883Y-151393328D02*
X152600883Y-149893328D01*
X152600883Y-150464757D02*
X152743741Y-150393328D01*
X152743741Y-150393328D02*
X153029455Y-150393328D01*
X153029455Y-150393328D02*
X153172312Y-150464757D01*
X153172312Y-150464757D02*
X153243741Y-150536185D01*
X153243741Y-150536185D02*
X153315169Y-150679042D01*
X153315169Y-150679042D02*
X153315169Y-151107614D01*
X153315169Y-151107614D02*
X153243741Y-151250471D01*
X153243741Y-151250471D02*
X153172312Y-151321900D01*
X153172312Y-151321900D02*
X153029455Y-151393328D01*
X153029455Y-151393328D02*
X152743741Y-151393328D01*
X152743741Y-151393328D02*
X152600883Y-151321900D01*
D10*
D11*
X132002200Y-146507200D02*
X240002200Y-146507200D01*
D10*
D11*
X133386598Y-148621900D02*
X133600884Y-148693328D01*
X133600884Y-148693328D02*
X133958026Y-148693328D01*
X133958026Y-148693328D02*
X134100884Y-148621900D01*
X134100884Y-148621900D02*
X134172312Y-148550471D01*
X134172312Y-148550471D02*
X134243741Y-148407614D01*
X134243741Y-148407614D02*
X134243741Y-148264757D01*
X134243741Y-148264757D02*
X134172312Y-148121900D01*
X134172312Y-148121900D02*
X134100884Y-148050471D01*
X134100884Y-148050471D02*
X133958026Y-147979042D01*
X133958026Y-147979042D02*
X133672312Y-147907614D01*
X133672312Y-147907614D02*
X133529455Y-147836185D01*
X133529455Y-147836185D02*
X133458026Y-147764757D01*
X133458026Y-147764757D02*
X133386598Y-147621900D01*
X133386598Y-147621900D02*
X133386598Y-147479042D01*
X133386598Y-147479042D02*
X133458026Y-147336185D01*
X133458026Y-147336185D02*
X133529455Y-147264757D01*
X133529455Y-147264757D02*
X133672312Y-147193328D01*
X133672312Y-147193328D02*
X134029455Y-147193328D01*
X134029455Y-147193328D02*
X134243741Y-147264757D01*
X134886597Y-148693328D02*
X134886597Y-147193328D01*
X135529455Y-148693328D02*
X135529455Y-147907614D01*
X135529455Y-147907614D02*
X135458026Y-147764757D01*
X135458026Y-147764757D02*
X135315169Y-147693328D01*
X135315169Y-147693328D02*
X135100883Y-147693328D01*
X135100883Y-147693328D02*
X134958026Y-147764757D01*
X134958026Y-147764757D02*
X134886597Y-147836185D01*
X136815169Y-148621900D02*
X136672312Y-148693328D01*
X136672312Y-148693328D02*
X136386598Y-148693328D01*
X136386598Y-148693328D02*
X136243740Y-148621900D01*
X136243740Y-148621900D02*
X136172312Y-148479042D01*
X136172312Y-148479042D02*
X136172312Y-147907614D01*
X136172312Y-147907614D02*
X136243740Y-147764757D01*
X136243740Y-147764757D02*
X136386598Y-147693328D01*
X136386598Y-147693328D02*
X136672312Y-147693328D01*
X136672312Y-147693328D02*
X136815169Y-147764757D01*
X136815169Y-147764757D02*
X136886598Y-147907614D01*
X136886598Y-147907614D02*
X136886598Y-148050471D01*
X136886598Y-148050471D02*
X136172312Y-148193328D01*
X138100883Y-148621900D02*
X137958026Y-148693328D01*
X137958026Y-148693328D02*
X137672312Y-148693328D01*
X137672312Y-148693328D02*
X137529454Y-148621900D01*
X137529454Y-148621900D02*
X137458026Y-148479042D01*
X137458026Y-148479042D02*
X137458026Y-147907614D01*
X137458026Y-147907614D02*
X137529454Y-147764757D01*
X137529454Y-147764757D02*
X137672312Y-147693328D01*
X137672312Y-147693328D02*
X137958026Y-147693328D01*
X137958026Y-147693328D02*
X138100883Y-147764757D01*
X138100883Y-147764757D02*
X138172312Y-147907614D01*
X138172312Y-147907614D02*
X138172312Y-148050471D01*
X138172312Y-148050471D02*
X137458026Y-148193328D01*
X138600883Y-147693328D02*
X139172311Y-147693328D01*
X138815168Y-147193328D02*
X138815168Y-148479042D01*
X138815168Y-148479042D02*
X138886597Y-148621900D01*
X138886597Y-148621900D02*
X139029454Y-148693328D01*
X139029454Y-148693328D02*
X139172311Y-148693328D01*
X139672311Y-148550471D02*
X139743740Y-148621900D01*
X139743740Y-148621900D02*
X139672311Y-148693328D01*
X139672311Y-148693328D02*
X139600883Y-148621900D01*
X139600883Y-148621900D02*
X139672311Y-148550471D01*
X139672311Y-148550471D02*
X139672311Y-148693328D01*
X139672311Y-147764757D02*
X139743740Y-147836185D01*
X139743740Y-147836185D02*
X139672311Y-147907614D01*
X139672311Y-147907614D02*
X139600883Y-147836185D01*
X139600883Y-147836185D02*
X139672311Y-147764757D01*
X139672311Y-147764757D02*
X139672311Y-147907614D01*
D10*
D11*
X152002200Y-156507200D02*
X152002200Y-159507200D01*
D10*
D11*
X216002200Y-156507200D02*
X216002200Y-163007200D01*
D14*
%TO.P,J2,MP,MountPin*%
%TO.N,GND*%
X12900000Y-14375000D03*
X5100000Y-14375000D03*
D15*
%TO.P,J2,4,Pin_4*%
X10500000Y-11850000D03*
%TO.P,J2,3,Pin_3*%
%TO.N,D+*%
X9500000Y-11850000D03*
%TO.P,J2,2,Pin_2*%
%TO.N,D-*%
X8500000Y-11850000D03*
%TO.P,J2,1,Pin_1*%
%TO.N,UVCC*%
X7500000Y-11850000D03*
%TD*%
D16*
%TO.P,REF\u002A\u002A,1*%
%TO.N,GND*%
X2000000Y-2000000D03*
%TD*%
%TO.P,REF\u002A\u002A,1*%
%TO.N,GND*%
X16000000Y-2000000D03*
%TD*%
%TO.P,REF\u002A\u002A,1*%
%TO.N,GND*%
X2000000Y-14500000D03*
%TD*%
%TO.P,REF\u002A\u002A,1*%
%TO.N,GND*%
X16000000Y-14500000D03*
%TD*%
D17*
%TO.P,J1,A1,GND*%
%TO.N,GND*%
X12250000Y-7745000D03*
%TO.P,J1,A4,VBUS*%
%TO.N,UVCC*%
X11450000Y-7745000D03*
D18*
%TO.P,J1,A5,CC1*%
%TO.N,Net-(J1-CC1)*%
X10250000Y-7745000D03*
%TO.P,J1,A6,D+*%
%TO.N,DP*%
X9250000Y-7745000D03*
%TO.P,J1,A7,D-*%
%TO.N,DN*%
X8750000Y-7745000D03*
%TO.P,J1,A8,SBU1*%
%TO.N,unconnected-(J1-SBU1-PadA8)*%
X7750000Y-7745000D03*
D17*
%TO.P,J1,A9,VBUS*%
%TO.N,UVCC*%
X6550000Y-7745000D03*
%TO.P,J1,A12,GND*%
%TO.N,GND*%
X5750000Y-7745000D03*
%TO.P,J1,B1,GND*%
X5750000Y-7745000D03*
%TO.P,J1,B4,VBUS*%
%TO.N,UVCC*%
X6550000Y-7745000D03*
D18*
%TO.P,J1,B5,CC2*%
%TO.N,Net-(J1-CC2)*%
X7250000Y-7745000D03*
%TO.P,J1,B6,D+*%
%TO.N,DP*%
X8250000Y-7745000D03*
%TO.P,J1,B7,D-*%
%TO.N,DN*%
X9750000Y-7745000D03*
%TO.P,J1,B8,SBU2*%
%TO.N,unconnected-(J1-SBU2-PadB8)*%
X10750000Y-7745000D03*
D17*
%TO.P,J1,B9,VBUS*%
%TO.N,UVCC*%
X11450000Y-7745000D03*
%TO.P,J1,B12,GND*%
%TO.N,GND*%
X12250000Y-7745000D03*
D19*
%TO.P,J1,S1,SHIELD*%
X13320000Y-6830000D03*
D20*
X13320000Y-2650000D03*
D19*
X4680000Y-6830000D03*
D20*
X4680000Y-2650000D03*
%TD*%
D21*
%TO.P,R1,1*%
%TO.N,Net-(J1-CC1)*%
X15900000Y-10425000D03*
%TO.P,R1,2*%
%TO.N,GND*%
X15900000Y-8775000D03*
%TD*%
D22*
%TO.P,R2,1*%
%TO.N,GND*%
X14500000Y-8775000D03*
%TO.P,R2,2*%
%TO.N,Net-(J1-CC2)*%
X14500000Y-10425000D03*
%TD*%
D23*
%TO.P,U1,1,I/O1*%
%TO.N,DN*%
X3137500Y-8750000D03*
D24*
%TO.P,U1,2,GND*%
%TO.N,GND*%
X2600000Y-8675000D03*
D23*
%TO.P,U1,3,I/O2*%
%TO.N,DP*%
X2062500Y-8750000D03*
%TO.P,U1,4,I/O2*%
%TO.N,D+*%
X2062500Y-10450000D03*
D24*
%TO.P,U1,5,VBUS*%
%TO.N,UVCC*%
X2600000Y-10525000D03*
D23*
%TO.P,U1,6,I/O1*%
%TO.N,D-*%
X3137500Y-10450000D03*
%TD*%
D25*
%TO.N,DN*%
X7560000Y-5880000D03*
X8660000Y-4780000D03*
%TD*%
D26*
%TO.N,GND*%
X13320000Y-8775000D02*
X13320000Y-6830000D01*
X14500000Y-8775000D02*
X13320000Y-8775000D01*
D27*
%TO.N,UVCC*%
X12040000Y-10240000D02*
X7200000Y-10240000D01*
X13370000Y-11570000D02*
X12040000Y-10240000D01*
X16030000Y-11570000D02*
X13370000Y-11570000D01*
X14400000Y-4900000D02*
X17060000Y-7560000D01*
X11900000Y-4900000D02*
X14400000Y-4900000D01*
X11025000Y-5775000D02*
X11900000Y-4900000D01*
X17060000Y-7560000D02*
X17060000Y-10540000D01*
X17060000Y-10540000D02*
X16030000Y-11570000D01*
X11025000Y-6575000D02*
X11025000Y-5775000D01*
X11450000Y-7000000D02*
X11025000Y-6575000D01*
X11450000Y-7745000D02*
X11450000Y-7000000D01*
X6550000Y-9850000D02*
X6550000Y-9100000D01*
X6940000Y-10240000D02*
X6550000Y-9850000D01*
X7200000Y-10240000D02*
X6940000Y-10240000D01*
D28*
%TO.N,D-*%
X8500000Y-12900000D02*
X8500000Y-11750000D01*
X6300000Y-12200000D02*
X7500000Y-13400000D01*
X8000000Y-13400000D02*
X8500000Y-12900000D01*
X3500000Y-12200000D02*
X6300000Y-12200000D01*
X2900000Y-11293750D02*
X2900000Y-11600000D01*
X3137500Y-11056250D02*
X2900000Y-11293750D01*
X3137500Y-10450000D02*
X3137500Y-11056250D01*
X2900000Y-11600000D02*
X3500000Y-12200000D01*
X7500000Y-13400000D02*
X8000000Y-13400000D01*
%TO.N,D+*%
X9500000Y-13000000D02*
X9500000Y-11750000D01*
X7400000Y-13900000D02*
X8600000Y-13900000D01*
X8600000Y-13900000D02*
X9500000Y-13000000D01*
X2500000Y-11725000D02*
X3375000Y-12600000D01*
X2500000Y-11300000D02*
X2500000Y-11725000D01*
X2062500Y-10862500D02*
X2500000Y-11300000D01*
X2062500Y-10450000D02*
X2062500Y-10862500D01*
X6100000Y-12600000D02*
X7400000Y-13900000D01*
X3375000Y-12600000D02*
X6100000Y-12600000D01*
D27*
%TO.N,UVCC*%
X7500000Y-10240000D02*
X7200000Y-10240000D01*
X7500000Y-11750000D02*
X7500000Y-10240000D01*
D29*
X5100000Y-9100000D02*
X6550000Y-9100000D01*
D27*
X6550000Y-9100000D02*
X6550000Y-7745000D01*
D29*
X2870000Y-9850000D02*
X2600000Y-10120000D01*
X4350000Y-9850000D02*
X2870000Y-9850000D01*
X5100000Y-9100000D02*
X4350000Y-9850000D01*
X2600000Y-10120000D02*
X2600000Y-10525000D01*
%TO.N,GND*%
X4680000Y-8645000D02*
X4680000Y-6830000D01*
X2875000Y-9350000D02*
X3975000Y-9350000D01*
X2600000Y-9075000D02*
X2875000Y-9350000D01*
X2600000Y-8675000D02*
X2600000Y-9075000D01*
X3975000Y-9350000D02*
X4680000Y-8645000D01*
D28*
%TO.N,DP*%
X9250000Y-8725000D02*
X9250000Y-7745000D01*
X2350000Y-7925000D02*
X2062500Y-8212500D01*
X3875000Y-4750000D02*
X2350000Y-6275000D01*
X9250000Y-6500000D02*
X7500000Y-4750000D01*
X7500000Y-4750000D02*
X3875000Y-4750000D01*
X8250000Y-8725000D02*
X8525000Y-9000000D01*
X8525000Y-9000000D02*
X8975000Y-9000000D01*
X2350000Y-6275000D02*
X2350000Y-7925000D01*
X9250000Y-7745000D02*
X9250000Y-6500000D01*
X8250000Y-7745000D02*
X8250000Y-8725000D01*
X8975000Y-9000000D02*
X9250000Y-8725000D01*
X2062500Y-8212500D02*
X2062500Y-8750000D01*
%TO.N,Net-(J1-CC1)*%
X15900000Y-9600000D02*
X13300000Y-9600000D01*
X12700000Y-9000000D02*
X10525000Y-9000000D01*
X10250000Y-8725000D02*
X10250000Y-7745000D01*
X15900000Y-10425000D02*
X15900000Y-9600000D01*
X10525000Y-9000000D02*
X10250000Y-8725000D01*
X13300000Y-9600000D02*
X12700000Y-9000000D01*
%TO.N,DN*%
X2875000Y-7925000D02*
X2875000Y-6425000D01*
X7560000Y-5880000D02*
X7960000Y-5880000D01*
X3137500Y-8187500D02*
X2875000Y-7925000D01*
X7960000Y-5880000D02*
X8750000Y-6670000D01*
X8750000Y-6670000D02*
X8750000Y-7745000D01*
X7560000Y-5480000D02*
X7560000Y-5880000D01*
X4100000Y-5200000D02*
X7280000Y-5200000D01*
X7280000Y-5200000D02*
X7560000Y-5480000D01*
X8660000Y-4780000D02*
X8660000Y-5110000D01*
X8660000Y-5110000D02*
X9750000Y-6200000D01*
X3137500Y-8750000D02*
X3137500Y-8187500D01*
X9750000Y-6200000D02*
X9750000Y-7745000D01*
X2875000Y-6425000D02*
X4100000Y-5200000D01*
%TO.N,Net-(J1-CC2)*%
X13325000Y-10425000D02*
X14500000Y-10425000D01*
X8060000Y-9600000D02*
X12500000Y-9600000D01*
X12500000Y-9600000D02*
X13325000Y-10425000D01*
X7250000Y-7745000D02*
X7250000Y-8790000D01*
X7250000Y-8790000D02*
X8060000Y-9600000D01*
D27*
%TO.N,UVCC*%
X6500000Y-7795000D02*
X6550000Y-7745000D01*
D26*
%TO.N,GND*%
X12250000Y-7250000D02*
X12670000Y-6830000D01*
X12250000Y-7745000D02*
X12250000Y-7250000D01*
X12670000Y-6830000D02*
X13320000Y-6830000D01*
X5750000Y-7745000D02*
X5750000Y-7250000D01*
X5750000Y-7250000D02*
X5330000Y-6830000D01*
X5330000Y-6830000D02*
X4680000Y-6830000D01*
%TD*%
%TA.AperFunction,Conductor*%
%TO.N,GND*%
G36*
X15024042Y-45185D02*
G01*
X15069797Y-97989D01*
X15079741Y-167147D01*
X15050716Y-230703D01*
X15016430Y-258332D01*
X14915960Y-313191D01*
X14915960Y-313192D01*
X14686934Y-484639D01*
X14686922Y-484649D01*
X14674175Y-497397D01*
X14674175Y-497398D01*
X15348961Y-1172184D01*
X15330664Y-1184411D01*
X15184411Y-1330664D01*
X15172184Y-1348961D01*
X14497398Y-674175D01*
X14497397Y-674175D01*
X14484649Y-686922D01*
X14484639Y-686934D01*
X14313192Y-915960D01*
X14313191Y-915961D01*
X14176091Y-1167041D01*
X14076109Y-1435104D01*
X14036898Y-1615356D01*
X14003413Y-1676679D01*
X13942090Y-1710164D01*
X13872398Y-1705180D01*
X13835499Y-1681465D01*
X13834680Y-1682464D01*
X13829969Y-1678598D01*
X13698948Y-1591052D01*
X13698939Y-1591047D01*
X13553351Y-1530743D01*
X13553345Y-1530741D01*
X13445000Y-1509189D01*
X13445000Y-2075757D01*
X13435796Y-2070444D01*
X13359496Y-2050000D01*
X13280504Y-2050000D01*
X13204204Y-2070444D01*
X13195000Y-2075757D01*
X13195000Y-1509190D01*
X13194999Y-1509189D01*
X13086654Y-1530741D01*
X13086648Y-1530743D01*
X12941060Y-1591047D01*
X12941051Y-1591052D01*
X12810030Y-1678598D01*
X12810026Y-1678601D01*
X12698601Y-1790026D01*
X12698598Y-1790030D01*
X12611052Y-1921051D01*
X12611047Y-1921060D01*
X12550743Y-2066648D01*
X12550741Y-2066656D01*
X12520000Y-2221202D01*
X12520000Y-2525000D01*
X13020000Y-2525000D01*
X13020000Y-2775000D01*
X12520000Y-2775000D01*
X12520000Y-3078797D01*
X12550741Y-3233343D01*
X12550743Y-3233351D01*
X12611047Y-3378939D01*
X12611052Y-3378948D01*
X12698598Y-3509969D01*
X12698601Y-3509973D01*
X12810026Y-3621398D01*
X12810030Y-3621401D01*
X12941051Y-3708947D01*
X12941060Y-3708952D01*
X13086648Y-3769256D01*
X13086656Y-3769258D01*
X13194999Y-3790809D01*
X13195000Y-3790809D01*
X13195000Y-3224242D01*
X13204204Y-3229556D01*
X13280504Y-3250000D01*
X13359496Y-3250000D01*
X13435796Y-3229556D01*
X13445000Y-3224242D01*
X13445000Y-3790809D01*
X13553343Y-3769258D01*
X13553351Y-3769256D01*
X13698939Y-3708952D01*
X13698948Y-3708947D01*
X13829969Y-3621401D01*
X13829973Y-3621398D01*
X13941398Y-3509973D01*
X13941401Y-3509969D01*
X14028947Y-3378948D01*
X14028952Y-3378939D01*
X14089256Y-3233351D01*
X14089258Y-3233343D01*
X14105486Y-3151763D01*
X14137870Y-3089852D01*
X14198586Y-3055278D01*
X14268355Y-3059017D01*
X14325028Y-3099883D01*
X14326370Y-3101644D01*
X14484633Y-3313059D01*
X14484649Y-3313077D01*
X14497397Y-3325825D01*
X14497398Y-3325825D01*
X15172184Y-2651038D01*
X15184411Y-2669336D01*
X15330664Y-2815589D01*
X15348961Y-2827815D01*
X14674175Y-3502602D01*
X14686922Y-3515350D01*
X14686934Y-3515360D01*
X14915960Y-3686807D01*
X14915961Y-3686808D01*
X15167042Y-3823908D01*
X15167041Y-3823908D01*
X15435104Y-3923890D01*
X15714637Y-3984699D01*
X15999999Y-4005109D01*
X16000001Y-4005109D01*
X16285362Y-3984699D01*
X16564895Y-3923890D01*
X16832958Y-3823908D01*
X17084038Y-3686808D01*
X17084039Y-3686807D01*
X17313065Y-3515360D01*
X17313077Y-3515350D01*
X17325825Y-3502602D01*
X16651038Y-2827815D01*
X16669336Y-2815589D01*
X16815589Y-2669336D01*
X16827815Y-2651038D01*
X17502602Y-3325825D01*
X17502603Y-3325825D01*
X17515350Y-3313077D01*
X17515360Y-3313065D01*
X17686807Y-3084039D01*
X17686808Y-3084039D01*
X17741668Y-2983570D01*
X17791073Y-2934165D01*
X17859346Y-2919313D01*
X17924810Y-2943730D01*
X17966682Y-2999663D01*
X17974500Y-3042997D01*
X17974500Y-13457002D01*
X17954815Y-13524041D01*
X17902011Y-13569796D01*
X17832853Y-13579740D01*
X17769297Y-13550715D01*
X17741668Y-13516429D01*
X17686808Y-13415961D01*
X17686807Y-13415960D01*
X17515360Y-13186934D01*
X17515350Y-13186922D01*
X17502603Y-13174175D01*
X17502602Y-13174175D01*
X16827815Y-13848961D01*
X16815589Y-13830664D01*
X16669336Y-13684411D01*
X16651038Y-13672184D01*
X17325825Y-12997398D01*
X17325825Y-12997397D01*
X17313077Y-12984649D01*
X17313065Y-12984639D01*
X17084039Y-12813192D01*
X17084038Y-12813191D01*
X16832957Y-12676091D01*
X16832958Y-12676091D01*
X16564895Y-12576109D01*
X16285362Y-12515300D01*
X16000001Y-12494891D01*
X15999999Y-12494891D01*
X15714637Y-12515300D01*
X15435104Y-12576109D01*
X15167041Y-12676091D01*
X14915961Y-12813191D01*
X14915960Y-12813192D01*
X14686934Y-12984639D01*
X14686922Y-12984649D01*
X14674175Y-12997397D01*
X14674175Y-12997398D01*
X15348961Y-13672184D01*
X15330664Y-13684411D01*
X15184411Y-13830664D01*
X15172184Y-13848961D01*
X14497398Y-13174175D01*
X14497397Y-13174175D01*
X14484649Y-13186922D01*
X14484639Y-13186934D01*
X14373267Y-13335710D01*
X14317333Y-13377581D01*
X14247642Y-13382565D01*
X14186319Y-13349080D01*
X14152834Y-13287757D01*
X14150000Y-13261399D01*
X14150000Y-13100373D01*
X14149999Y-13100371D01*
X14135496Y-13027459D01*
X14135494Y-13027455D01*
X14080239Y-12944760D01*
X13997544Y-12889505D01*
X13997540Y-12889503D01*
X13924627Y-12875000D01*
X13025000Y-12875000D01*
X13025000Y-15875000D01*
X13924626Y-15875000D01*
X13924628Y-15874999D01*
X13997540Y-15860496D01*
X13997544Y-15860494D01*
X14080239Y-15805239D01*
X14135494Y-15722544D01*
X14135495Y-15722544D01*
X14140318Y-15698296D01*
X14172702Y-15636384D01*
X14233417Y-15601809D01*
X14303187Y-15605548D01*
X14359860Y-15646413D01*
X14361203Y-15648175D01*
X14484633Y-15813059D01*
X14484649Y-15813077D01*
X14497397Y-15825825D01*
X14497398Y-15825825D01*
X15172184Y-15151038D01*
X15184411Y-15169336D01*
X15330664Y-15315589D01*
X15348961Y-15327815D01*
X14674175Y-16002602D01*
X14686922Y-16015350D01*
X14686934Y-16015360D01*
X14915960Y-16186807D01*
X14915960Y-16186808D01*
X15016430Y-16241668D01*
X15065835Y-16291073D01*
X15080687Y-16359346D01*
X15056270Y-16424810D01*
X15000337Y-16466682D01*
X14957003Y-16474500D01*
X3042997Y-16474500D01*
X2975958Y-16454815D01*
X2930203Y-16402011D01*
X2920259Y-16332853D01*
X2949284Y-16269297D01*
X2983570Y-16241668D01*
X3084039Y-16186808D01*
X3084039Y-16186807D01*
X3313065Y-16015360D01*
X3313077Y-16015350D01*
X3325825Y-16002602D01*
X2651038Y-15327815D01*
X2669336Y-15315589D01*
X2815589Y-15169336D01*
X2827815Y-15151038D01*
X3502602Y-15825825D01*
X3502603Y-15825825D01*
X3515350Y-15813077D01*
X3515366Y-15813059D01*
X3638796Y-15648175D01*
X3694729Y-15606303D01*
X3764421Y-15601319D01*
X3825744Y-15634803D01*
X3859229Y-15696126D01*
X3859680Y-15698292D01*
X3864503Y-15722541D01*
X3864505Y-15722544D01*
X3919760Y-15805239D01*
X4002455Y-15860494D01*
X4002459Y-15860496D01*
X4075371Y-15874999D01*
X4075374Y-15875000D01*
X4975000Y-15875000D01*
X5225000Y-15875000D01*
X6124626Y-15875000D01*
X6124628Y-15874999D01*
X6197540Y-15860496D01*
X6197544Y-15860494D01*
X6280239Y-15805239D01*
X6335494Y-15722544D01*
X6335496Y-15722540D01*
X6349999Y-15649628D01*
X11650000Y-15649628D01*
X11664503Y-15722540D01*
X11664505Y-15722544D01*
X11719760Y-15805239D01*
X11802455Y-15860494D01*
X11802459Y-15860496D01*
X11875371Y-15874999D01*
X11875374Y-15875000D01*
X12775000Y-15875000D01*
X12775000Y-14500000D01*
X11650000Y-14500000D01*
X11650000Y-15649628D01*
X6349999Y-15649628D01*
X6350000Y-15649626D01*
X6350000Y-14500000D01*
X5225000Y-14500000D01*
X5225000Y-15875000D01*
X4975000Y-15875000D01*
X4975000Y-14374000D01*
X4994685Y-14306961D01*
X5047489Y-14261206D01*
X5099000Y-14250000D01*
X6350000Y-14250000D01*
X6350000Y-13645044D01*
X6369685Y-13578005D01*
X6422489Y-13532250D01*
X6491647Y-13522306D01*
X6555203Y-13551331D01*
X6561681Y-13557363D01*
X7184788Y-14180470D01*
X7264712Y-14226614D01*
X7353856Y-14250500D01*
X7353857Y-14250500D01*
X7353858Y-14250500D01*
X8646142Y-14250500D01*
X8646144Y-14250500D01*
X8735288Y-14226614D01*
X8815212Y-14180470D01*
X9780470Y-13215212D01*
X9826614Y-13135288D01*
X9831993Y-13115212D01*
X9835970Y-13100371D01*
X11650000Y-13100371D01*
X11650000Y-14250000D01*
X12775000Y-14250000D01*
X12775000Y-12875000D01*
X11875373Y-12875000D01*
X11802459Y-12889503D01*
X11802455Y-12889505D01*
X11719760Y-12944760D01*
X11664505Y-13027455D01*
X11664503Y-13027459D01*
X11650000Y-13100371D01*
X9835970Y-13100371D01*
X9850500Y-13046144D01*
X9850500Y-12850401D01*
X9870185Y-12783362D01*
X9905610Y-12747298D01*
X9930601Y-12730601D01*
X9930601Y-12730600D01*
X9931563Y-12729958D01*
X9998241Y-12709082D01*
X10065620Y-12727568D01*
X10069342Y-12729960D01*
X10152455Y-12785494D01*
X10152459Y-12785496D01*
X10225371Y-12799999D01*
X10225374Y-12800000D01*
X10375000Y-12800000D01*
X10625000Y-12800000D01*
X10774626Y-12800000D01*
X10774628Y-12799999D01*
X10847540Y-12785496D01*
X10847544Y-12785494D01*
X10930239Y-12730239D01*
X10985494Y-12647544D01*
X10985496Y-12647540D01*
X10999999Y-12574628D01*
X11000000Y-12574626D01*
X11000000Y-11975000D01*
X10625000Y-11975000D01*
X10625000Y-12800000D01*
X10375000Y-12800000D01*
X10375000Y-11849000D01*
X10394685Y-11781961D01*
X10447489Y-11736206D01*
X10499000Y-11725000D01*
X11000000Y-11725000D01*
X11000000Y-11125373D01*
X10999999Y-11125371D01*
X10985496Y-11052459D01*
X10985494Y-11052455D01*
X10930239Y-10969759D01*
X10852180Y-10917602D01*
X10807374Y-10863990D01*
X10798667Y-10794665D01*
X10828821Y-10731638D01*
X10888264Y-10694918D01*
X10921070Y-10690500D01*
X11802035Y-10690500D01*
X11869074Y-10710185D01*
X11889716Y-10726819D01*
X13093386Y-11930489D01*
X13196113Y-11989799D01*
X13220321Y-11996284D01*
X13220324Y-11996286D01*
X13220325Y-11996286D01*
X13250447Y-12004357D01*
X13310691Y-12020500D01*
X13310693Y-12020500D01*
X16089308Y-12020500D01*
X16089309Y-12020500D01*
X16179673Y-11996286D01*
X16203887Y-11989799D01*
X16306614Y-11930489D01*
X17420489Y-10816614D01*
X17479799Y-10713887D01*
X17491575Y-10669938D01*
X17510500Y-10599309D01*
X17510500Y-7500691D01*
X17479799Y-7386114D01*
X17479799Y-7386113D01*
X17420489Y-7283386D01*
X14676614Y-4539511D01*
X14573887Y-4480201D01*
X14534065Y-4469531D01*
X14534062Y-4469530D01*
X14502468Y-4461064D01*
X14459309Y-4449500D01*
X11840691Y-4449500D01*
X11765934Y-4469530D01*
X11765935Y-4469531D01*
X11726111Y-4480201D01*
X11623386Y-4539511D01*
X11623383Y-4539513D01*
X10664513Y-5498383D01*
X10664509Y-5498389D01*
X10605201Y-5601112D01*
X10605200Y-5601117D01*
X10574500Y-5715691D01*
X10574500Y-6576000D01*
X10554815Y-6643039D01*
X10502011Y-6688794D01*
X10450500Y-6700000D01*
X10224500Y-6700000D01*
X10157461Y-6680315D01*
X10111706Y-6627511D01*
X10100500Y-6576000D01*
X10100500Y-6153858D01*
X10100500Y-6153856D01*
X10076614Y-6064712D01*
X10048079Y-6015288D01*
X10030470Y-5984788D01*
X9226717Y-5181035D01*
X9193232Y-5119712D01*
X9198216Y-5050020D01*
X9199837Y-5045901D01*
X9245044Y-4936762D01*
X9265682Y-4780000D01*
X9245044Y-4623238D01*
X9184536Y-4477159D01*
X9088282Y-4351718D01*
X8962841Y-4255464D01*
X8816762Y-4194956D01*
X8816760Y-4194955D01*
X8660001Y-4174318D01*
X8659999Y-4174318D01*
X8503239Y-4194955D01*
X8503237Y-4194956D01*
X8357160Y-4255463D01*
X8231718Y-4351718D01*
X8135463Y-4477160D01*
X8085627Y-4597475D01*
X8041786Y-4651878D01*
X7975491Y-4673943D01*
X7907792Y-4656664D01*
X7883385Y-4637703D01*
X7715213Y-4469531D01*
X7715208Y-4469527D01*
X7635290Y-4423387D01*
X7635289Y-4423386D01*
X7635288Y-4423386D01*
X7546144Y-4399500D01*
X3828856Y-4399500D01*
X3739712Y-4423386D01*
X3739709Y-4423387D01*
X3659791Y-4469527D01*
X3659786Y-4469531D01*
X2069531Y-6059786D01*
X2069529Y-6059789D01*
X2047247Y-6098384D01*
X2047246Y-6098386D01*
X2023386Y-6139711D01*
X1999500Y-6228856D01*
X1999500Y-7728456D01*
X1979815Y-7795495D01*
X1963181Y-7816137D01*
X1782031Y-7997286D01*
X1782027Y-7997291D01*
X1765761Y-8025467D01*
X1765760Y-8025469D01*
X1750823Y-8051340D01*
X1735886Y-8077211D01*
X1712000Y-8166356D01*
X1712000Y-8255442D01*
X1692315Y-8322481D01*
X1691103Y-8324332D01*
X1639033Y-8402260D01*
X1639032Y-8402264D01*
X1624500Y-8475321D01*
X1624500Y-9024678D01*
X1639032Y-9097735D01*
X1639033Y-9097739D01*
X1657405Y-9125235D01*
X1694399Y-9180601D01*
X1757481Y-9222750D01*
X1777260Y-9235966D01*
X1777264Y-9235967D01*
X1850321Y-9250499D01*
X1850324Y-9250500D01*
X1850326Y-9250500D01*
X2274674Y-9250500D01*
X2327093Y-9240073D01*
X2375475Y-9240073D01*
X2425376Y-9250000D01*
X2475000Y-9250000D01*
X2475000Y-9148880D01*
X2484440Y-9101424D01*
X2485440Y-9099010D01*
X2529283Y-9044608D01*
X2595578Y-9022545D01*
X2663277Y-9039826D01*
X2710886Y-9090965D01*
X2714560Y-9099010D01*
X2715560Y-9101424D01*
X2725000Y-9148880D01*
X2725000Y-9250000D01*
X2728518Y-9253518D01*
X2783575Y-9269685D01*
X2829330Y-9322489D01*
X2839274Y-9391647D01*
X2810249Y-9455203D01*
X2751471Y-9492977D01*
X2748659Y-9493766D01*
X2725063Y-9500089D01*
X2725060Y-9500090D01*
X2639440Y-9549522D01*
X2639435Y-9549526D01*
X2369438Y-9819525D01*
X2299527Y-9889435D01*
X2294577Y-9895887D01*
X2293064Y-9894726D01*
X2250078Y-9935715D01*
X2193257Y-9949500D01*
X1850323Y-9949500D01*
X1777264Y-9964032D01*
X1777260Y-9964033D01*
X1694399Y-10019399D01*
X1639033Y-10102260D01*
X1639032Y-10102264D01*
X1624500Y-10175321D01*
X1624500Y-10724678D01*
X1639032Y-10797735D01*
X1639033Y-10797739D01*
X1665856Y-10837882D01*
X1691102Y-10875667D01*
X1699865Y-10888781D01*
X1716536Y-10925576D01*
X1729343Y-10973372D01*
X1729348Y-10973388D01*
X1735885Y-10997786D01*
X1782027Y-11077708D01*
X1782031Y-11077713D01*
X2113181Y-11408862D01*
X2146666Y-11470185D01*
X2149500Y-11496543D01*
X2149500Y-11771145D01*
X2161307Y-11815211D01*
X2161308Y-11815211D01*
X2161308Y-11815212D01*
X2170495Y-11849500D01*
X2173387Y-11860290D01*
X2219527Y-11940208D01*
X2219531Y-11940213D01*
X2637585Y-12358267D01*
X2671070Y-12419590D01*
X2666086Y-12489282D01*
X2624214Y-12545215D01*
X2558750Y-12569632D01*
X2523546Y-12567114D01*
X2285362Y-12515300D01*
X2000001Y-12494891D01*
X1999999Y-12494891D01*
X1714637Y-12515300D01*
X1435104Y-12576109D01*
X1167041Y-12676091D01*
X915961Y-12813191D01*
X915960Y-12813192D01*
X686934Y-12984639D01*
X686922Y-12984649D01*
X674175Y-12997397D01*
X674175Y-12997398D01*
X1348961Y-13672184D01*
X1330664Y-13684411D01*
X1184411Y-13830664D01*
X1172184Y-13848961D01*
X497398Y-13174175D01*
X497397Y-13174175D01*
X484649Y-13186922D01*
X484639Y-13186934D01*
X313192Y-13415960D01*
X313191Y-13415961D01*
X258332Y-13516429D01*
X208927Y-13565834D01*
X140654Y-13580686D01*
X75189Y-13556269D01*
X33318Y-13500335D01*
X25500Y-13457002D01*
X25500Y-3042997D01*
X45185Y-2975958D01*
X97989Y-2930203D01*
X167147Y-2920259D01*
X230703Y-2949284D01*
X258332Y-2983570D01*
X313191Y-3084039D01*
X484639Y-3313065D01*
X484649Y-3313077D01*
X497397Y-3325825D01*
X497398Y-3325825D01*
X1172184Y-2651038D01*
X1184411Y-2669336D01*
X1330664Y-2815589D01*
X1348961Y-2827815D01*
X674175Y-3502602D01*
X686922Y-3515350D01*
X686934Y-3515360D01*
X915960Y-3686807D01*
X915961Y-3686808D01*
X1167042Y-3823908D01*
X1167041Y-3823908D01*
X1435104Y-3923890D01*
X1714637Y-3984699D01*
X1999999Y-4005109D01*
X2000001Y-4005109D01*
X2285362Y-3984699D01*
X2564895Y-3923890D01*
X2832958Y-3823908D01*
X3084038Y-3686808D01*
X3084039Y-3686807D01*
X3313065Y-3515360D01*
X3313077Y-3515350D01*
X3325825Y-3502602D01*
X2651038Y-2827815D01*
X2669336Y-2815589D01*
X2815589Y-2669336D01*
X2827815Y-2651038D01*
X3502602Y-3325825D01*
X3502603Y-3325825D01*
X3515350Y-3313077D01*
X3515366Y-3313059D01*
X3673629Y-3101644D01*
X3729562Y-3059772D01*
X3799254Y-3054788D01*
X3860577Y-3088273D01*
X3894062Y-3149596D01*
X3894513Y-3151762D01*
X3910741Y-3233345D01*
X3910743Y-3233351D01*
X3971047Y-3378939D01*
X3971052Y-3378948D01*
X4058598Y-3509969D01*
X4058601Y-3509973D01*
X4170026Y-3621398D01*
X4170030Y-3621401D01*
X4301051Y-3708947D01*
X4301060Y-3708952D01*
X4446648Y-3769256D01*
X4446656Y-3769258D01*
X4554999Y-3790809D01*
X4555000Y-3790809D01*
X4555000Y-3224242D01*
X4564204Y-3229556D01*
X4640504Y-3250000D01*
X4719496Y-3250000D01*
X4795796Y-3229556D01*
X4805000Y-3224242D01*
X4805000Y-3790809D01*
X4913343Y-3769258D01*
X4913351Y-3769256D01*
X5058939Y-3708952D01*
X5058948Y-3708947D01*
X5189969Y-3621401D01*
X5189973Y-3621398D01*
X5301398Y-3509973D01*
X5301401Y-3509969D01*
X5388947Y-3378948D01*
X5388952Y-3378939D01*
X5449256Y-3233351D01*
X5449258Y-3233343D01*
X5479999Y-3078797D01*
X5480000Y-3078794D01*
X5480000Y-2775000D01*
X4980000Y-2775000D01*
X4980000Y-2525000D01*
X5480000Y-2525000D01*
X5480000Y-2221206D01*
X5479999Y-2221202D01*
X5449258Y-2066656D01*
X5449256Y-2066648D01*
X5388952Y-1921060D01*
X5388947Y-1921051D01*
X5301401Y-1790030D01*
X5301398Y-1790026D01*
X5189973Y-1678601D01*
X5189969Y-1678598D01*
X5058948Y-1591052D01*
X5058939Y-1591047D01*
X4913351Y-1530743D01*
X4913345Y-1530741D01*
X4805000Y-1509189D01*
X4805000Y-2075757D01*
X4795796Y-2070444D01*
X4719496Y-2050000D01*
X4640504Y-2050000D01*
X4564204Y-2070444D01*
X4555000Y-2075757D01*
X4555000Y-1509190D01*
X4554999Y-1509189D01*
X4446654Y-1530741D01*
X4446648Y-1530743D01*
X4301060Y-1591047D01*
X4301051Y-1591052D01*
X4170030Y-1678598D01*
X4165320Y-1682464D01*
X4164096Y-1680973D01*
X4110600Y-1710170D01*
X4040909Y-1705171D01*
X3984984Y-1663288D01*
X3963101Y-1615356D01*
X3923890Y-1435104D01*
X3823908Y-1167041D01*
X3686808Y-915961D01*
X3686807Y-915960D01*
X3515360Y-686934D01*
X3515350Y-686922D01*
X3502603Y-674175D01*
X3502602Y-674175D01*
X2827815Y-1348961D01*
X2815589Y-1330664D01*
X2669336Y-1184411D01*
X2651038Y-1172184D01*
X3325825Y-497398D01*
X3325825Y-497397D01*
X3313077Y-484649D01*
X3313065Y-484639D01*
X3084039Y-313192D01*
X3084039Y-313191D01*
X2983570Y-258332D01*
X2934165Y-208927D01*
X2919313Y-140654D01*
X2943730Y-75190D01*
X2999663Y-33318D01*
X3042997Y-25500D01*
X14957003Y-25500D01*
X15024042Y-45185D01*
G37*
%TD.AperFunction*%
%TA.AperFunction,Conductor*%
G36*
X3749334Y-6148861D02*
G01*
X3805267Y-6190733D01*
X3829684Y-6256197D01*
X3830000Y-6265043D01*
X3830000Y-6705000D01*
X4380000Y-6705000D01*
X4380000Y-6955000D01*
X3830000Y-6955000D01*
X3830000Y-7463722D01*
X3862663Y-7627928D01*
X3862665Y-7627936D01*
X3926740Y-7782627D01*
X3926740Y-7782628D01*
X4019758Y-7921839D01*
X4019764Y-7921847D01*
X4138152Y-8040235D01*
X4138160Y-8040241D01*
X4277371Y-8133259D01*
X4432063Y-8197334D01*
X4432071Y-8197336D01*
X4600191Y-8230778D01*
X4662102Y-8263163D01*
X4696676Y-8323878D01*
X4700000Y-8352395D01*
X4700000Y-8917601D01*
X4680315Y-8984640D01*
X4663681Y-9005282D01*
X4230782Y-9438181D01*
X4169459Y-9471666D01*
X4143101Y-9474500D01*
X3470259Y-9474500D01*
X3403220Y-9454815D01*
X3357465Y-9402011D01*
X3347521Y-9332853D01*
X3376546Y-9269297D01*
X3412836Y-9243127D01*
X3412585Y-9242751D01*
X3422739Y-9235966D01*
X3422740Y-9235966D01*
X3505601Y-9180601D01*
X3560966Y-9097740D01*
X3575500Y-9024674D01*
X3575500Y-8475326D01*
X3575500Y-8475323D01*
X3575499Y-8475321D01*
X3560967Y-8402264D01*
X3560966Y-8402260D01*
X3508897Y-8324332D01*
X3488020Y-8257654D01*
X3488000Y-8255442D01*
X3488000Y-8141358D01*
X3488000Y-8141356D01*
X3464114Y-8052212D01*
X3457202Y-8040241D01*
X3446448Y-8021614D01*
X3446448Y-8021613D01*
X3417972Y-7972291D01*
X3417968Y-7972286D01*
X3261819Y-7816137D01*
X3228334Y-7754814D01*
X3225500Y-7728456D01*
X3225500Y-6621543D01*
X3245185Y-6554504D01*
X3261814Y-6533867D01*
X3618321Y-6177360D01*
X3679642Y-6143877D01*
X3749334Y-6148861D01*
G37*
%TD.AperFunction*%
%TA.AperFunction,Conductor*%
G36*
X14229074Y-5370185D02*
G01*
X14249716Y-5386819D01*
X16573181Y-7710284D01*
X16606666Y-7771607D01*
X16609500Y-7797965D01*
X16609500Y-8090759D01*
X16589815Y-8157798D01*
X16537011Y-8203553D01*
X16467853Y-8213497D01*
X16411867Y-8190530D01*
X16387644Y-8172653D01*
X16387645Y-8172653D01*
X16259602Y-8127850D01*
X16229207Y-8125000D01*
X16025000Y-8125000D01*
X16025000Y-8776000D01*
X16005315Y-8843039D01*
X15952511Y-8888794D01*
X15901000Y-8900000D01*
X13775001Y-8900000D01*
X13775001Y-9029196D01*
X13777851Y-9059607D01*
X13786578Y-9084544D01*
X13790141Y-9154323D01*
X13755412Y-9214951D01*
X13693419Y-9247178D01*
X13669537Y-9249500D01*
X13496544Y-9249500D01*
X13429505Y-9229815D01*
X13408863Y-9213181D01*
X13336319Y-9140637D01*
X13302834Y-9079314D01*
X13300000Y-9052956D01*
X13300000Y-8352395D01*
X13319685Y-8285356D01*
X13372489Y-8239601D01*
X13399809Y-8230778D01*
X13567928Y-8197336D01*
X13567936Y-8197334D01*
X13698126Y-8143408D01*
X13767595Y-8135939D01*
X13830075Y-8167214D01*
X13865727Y-8227303D01*
X13863233Y-8297128D01*
X13845350Y-8331602D01*
X13822653Y-8362355D01*
X13777850Y-8490395D01*
X13777850Y-8490399D01*
X13775000Y-8520793D01*
X13775000Y-8650000D01*
X14375000Y-8650000D01*
X14625000Y-8650000D01*
X15775000Y-8650000D01*
X15775000Y-8125000D01*
X15570804Y-8125000D01*
X15540393Y-8127851D01*
X15412354Y-8172653D01*
X15303205Y-8253209D01*
X15299767Y-8257868D01*
X15244118Y-8300117D01*
X15174462Y-8305573D01*
X15112914Y-8272503D01*
X15100233Y-8257868D01*
X15096794Y-8253209D01*
X14987645Y-8172653D01*
X14859602Y-8127850D01*
X14829207Y-8125000D01*
X14625000Y-8125000D01*
X14625000Y-8650000D01*
X14375000Y-8650000D01*
X14375000Y-8125000D01*
X14170804Y-8125000D01*
X14140392Y-8127852D01*
X14140388Y-8127852D01*
X14089930Y-8145508D01*
X14020152Y-8149069D01*
X13959525Y-8114339D01*
X13927299Y-8052345D01*
X13933705Y-7982769D01*
X13961299Y-7940783D01*
X13980236Y-7921846D01*
X13980241Y-7921839D01*
X14073259Y-7782628D01*
X14073259Y-7782627D01*
X14137334Y-7627936D01*
X14137336Y-7627928D01*
X14169999Y-7463722D01*
X14170000Y-7463720D01*
X14170000Y-6955000D01*
X13620000Y-6955000D01*
X13620000Y-6705000D01*
X14170000Y-6705000D01*
X14170000Y-6196279D01*
X14169999Y-6196277D01*
X14137336Y-6032071D01*
X14137334Y-6032063D01*
X14073259Y-5877372D01*
X14073259Y-5877371D01*
X13980241Y-5738160D01*
X13980235Y-5738152D01*
X13861846Y-5619763D01*
X13798748Y-5577603D01*
X13753942Y-5523990D01*
X13745235Y-5454666D01*
X13775389Y-5391638D01*
X13834832Y-5354918D01*
X13867638Y-5350500D01*
X14162035Y-5350500D01*
X14229074Y-5370185D01*
G37*
%TD.AperFunction*%
%TD*%
D30*
X16000000Y0D02*
X2000000Y0D01*
X0Y-2000000D02*
G75*
G02*
X2000000Y0I2000000J0D01*
G01*
X18000000Y-14500000D02*
G75*
G02*
X16000000Y-16500000I-2000000J0D01*
G01*
X18000000Y-14500000D02*
X18000000Y-2000000D01*
X2000000Y-16500000D02*
G75*
G02*
X0Y-14500000I0J2000000D01*
G01*
X2000000Y-16500000D02*
X16000000Y-16500000D01*
X0Y-2000000D02*
X0Y-14500000D01*
X16000000Y0D02*
G75*
G02*
X18000000Y-2000000I0J-2000000D01*
G01*
X2500000Y0D02*
G75*
G02*
X-2500000Y0I-2500000J0D01*
G01*
X-2500000Y0D02*
G75*
G02*
X2500000Y0I2500000J0D01*
G01*
X-2500000Y2500000D02*
X2500000Y-2500000D01*
X-2500000Y-2500000D02*
X2500000Y2500000D01*
M02*
